<?xml version="1.0" standalone="no"?>
<!DOCTYPE svg PUBLIC "-//W3C//DTD SVG 1.1//EN" "http://www.w3.org/Graphics/SVG/1.1/DTD/svg11.dtd" >
<svg xmlns="http://www.w3.org/2000/svg" xmlns:xlink="http://www.w3.org/1999/xlink" version="1.1">
<metadata></metadata>
<defs>
<font id="cakoregular" horiz-adv-x="1589" >
<font-face units-per-em="2048" ascent="1638" descent="-410" />
<missing-glyph horiz-adv-x="634" />
<glyph horiz-adv-x="0" />
<glyph horiz-adv-x="682" />
<glyph unicode=" "  horiz-adv-x="634" />
<glyph unicode="&#x09;" horiz-adv-x="634" />
<glyph unicode="&#xa0;" horiz-adv-x="634" />
<glyph unicode="!" horiz-adv-x="475" d="M238 109q0 50 34.5 85t83.5 35t84 -35t35 -85t-35 -85.5t-84 -35.5t-83.5 35.5t-34.5 85.5zM254 1024l84 -690h37l84 690v410h-205v-410z" />
<glyph unicode="&#x22;" horiz-adv-x="546" d="M164 1614l72 -543h6l73 543h-151zM397 1614l72 -543h6l74 543h-152z" />
<glyph unicode="#" horiz-adv-x="1167" d="M102 403h265l-113 -403h31l112 403h348l-112 -403h29l114 403h260v31h-250l121 422h260v33h-252l113 391h-31l-114 -391h-346l112 391h-31l-114 -391h-271v-33h263l-121 -422h-273v-31zM408 434l120 422h346l-120 -422h-346z" />
<glyph unicode="$" horiz-adv-x="1341" d="M242 535h98l217 -451q99 -49 225 -59v618q-4 1 -12 4t-12 4q-74 22 -127 41t-111 46t-97.5 58.5t-72.5 72t-49 93t-16 115.5q0 162 140 262t357 105v151h33v-151q147 -3 402 -60l65 -397l-139 -2l-203 404q-50 14 -125 20v-561l43 -12q72 -23 124.5 -43t113 -49 t102 -63.5t77.5 -78.5t53.5 -101.5t17.5 -125.5q0 -92 -43 -166t-116.5 -120.5t-168 -71.5t-201.5 -25h-2v-148h-33v148q-137 5 -281.5 33t-232.5 75zM428 1155q0 -60 25.5 -107t77 -81.5t109 -59t142.5 -49.5v553h-16q-87 0 -163.5 -31t-125.5 -90.5t-49 -134.5zM815 23h10 q103 0 188.5 29t141 92.5t55.5 152.5q0 55 -21.5 101.5t-54 78.5t-87.5 62t-106.5 50t-125.5 44v-610z" />
<glyph unicode="%" horiz-adv-x="1196" d="M115 1190q0 106 66.5 181t158.5 75q94 0 159.5 -75t65.5 -181q0 -107 -65.5 -181.5t-159.5 -74.5q-93 0 -159 74.5t-66 181.5zM162 0l956 1434h33l-954 -1434h-35zM207 1190q0 -99 39.5 -170.5t93.5 -71.5q56 0 95.5 71t39.5 171t-39.5 171t-95.5 71q-54 0 -93.5 -71.5 t-39.5 -170.5zM748 244q0 106 66.5 181t158.5 75q94 0 159.5 -75t65.5 -181q0 -107 -65.5 -181.5t-159.5 -74.5q-93 0 -159 74.5t-66 181.5zM840 244q0 -99 39.5 -170.5t93.5 -71.5q56 0 95.5 71t39.5 171t-39.5 170.5t-95.5 70.5q-54 0 -93.5 -71t-39.5 -170z" />
<glyph unicode="&#x26;" horiz-adv-x="1783" d="M176 508q0 126 50 230.5t131.5 169.5t186.5 95t214 15q-14 111 35 210.5t143 158.5t207 59q188 0 309 -150l-8 -8q-28 31 -80 51.5t-111 20.5q-69 0 -127 -22.5t-96.5 -60t-60 -87.5t-22 -102.5t21.5 -107.5t67 -101l289 -301l125 403l213 -4l-305 -432l-4 4l528 -549 h-266l-367 385q-104 -148 -184 -229.5t-171.5 -123.5t-207.5 -42q-139 0 -256 67t-185.5 186t-68.5 265zM352 584q0 -186 122.5 -307t297.5 -121q94 0 186 42.5t153.5 98.5t107.5 121l-312 327q-66 70 -99.5 121t-45.5 119q-108 17 -202.5 -30t-151 -146t-56.5 -225z" />
<glyph unicode="'" horiz-adv-x="313" d="M164 1614l72 -543h6l73 543h-151z" />
<glyph unicode="(" horiz-adv-x="620" d="M266 676q0 146 41 286t110.5 252.5t161 198.5t193.5 133l4 -6q-147 -116 -225 -345.5t-78 -518.5t78 -518.5t225 -345.5l-4 -7q-102 47 -193.5 133.5t-161 198.5t-110.5 252.5t-41 286.5z" />
<glyph unicode=")" horiz-adv-x="620" d="M-45 -188q147 116 225 345.5t78 518.5t-78 518.5t-225 345.5l4 6q102 -47 193.5 -133t161 -198.5t110.5 -252.5t41 -286t-41 -286.5t-110.5 -252.5t-161 -198.5t-193.5 -133.5z" />
<glyph unicode="*" horiz-adv-x="577" d="M102 1100l56 -96l174 155l-47 -227h110l-47 227l174 -155l56 96l-222 71l222 74l-56 94l-174 -151l47 225h-110l47 -225l-174 151l-56 -94l222 -74z" />
<glyph unicode="+" horiz-adv-x="919" d="M176 467h350v-350h43v350h353v45h-353v350h-43v-350h-350v-45z" />
<glyph unicode="," horiz-adv-x="395" d="M127 -258q128 168 168 248h-29q-49 0 -84 35.5t-35 85.5q0 49 34.5 83.5t84.5 34.5t84.5 -34.5t34.5 -83.5q0 -67 -72.5 -177t-165.5 -213z" />
<glyph unicode="-" horiz-adv-x="751" d="M102 471h650v33h-650v-33z" />
<glyph unicode="." horiz-adv-x="385" d="M147 109q0 50 35 85t84 35t84 -35t35 -85t-35 -85.5t-84 -35.5t-84 35.5t-35 85.5z" />
<glyph unicode="/" horiz-adv-x="901" d="M82 0h35l784 1434h-35z" />
<glyph unicode="0" horiz-adv-x="1331" d="M225 717q0 207 72.5 374t199 261t281.5 94t281.5 -94t199 -261t72.5 -374t-72.5 -374t-199 -261t-281.5 -94t-281.5 94t-199 261t-72.5 374zM446 717q0 -312 98 -505.5t234 -193.5t234 193.5t98 505.5t-98 505t-234 193t-234 -193t-98 -505z" />
<glyph unicode="1" horiz-adv-x="735" d="M53 975v39l469 432h8v-1374l148 -66v-6h-502v6l148 66v1142z" />
<glyph unicode="2" horiz-adv-x="1107" d="M111 0v4l409 422q154 152 228.5 276t74.5 275q0 158 -89 240.5t-226 82.5q-73 0 -140 -22.5t-122.5 -66.5t-88.5 -118.5t-32 -168.5h-6q-30 115 -5.5 211t87 165t160 107.5t214.5 38.5q199 0 319 -113t120 -293q0 -70 -19.5 -131t-64 -121.5t-88 -106.5t-119.5 -116 l-397 -381h678v-184h-893z" />
<glyph unicode="3" horiz-adv-x="1087" d="M156 393h6q40 -116 145.5 -183t233.5 -67q154 0 242.5 81.5t88.5 228.5q0 133 -92 216t-235 83q-70 0 -162 -29v35l88 28q42 14 68.5 23t66 26t64.5 33t54 40t46 50t28 61.5t11 76.5q0 97 -60 155t-178 58q-97 0 -185.5 -49t-129.5 -127h-4q17 130 124 221.5t247 91.5 q158 0 257 -81.5t99 -225.5q0 -64 -26 -118t-62 -88.5t-91 -63.5t-96 -43t-94 -29q199 0 328 -105t129 -280q0 -102 -39.5 -184t-105 -133t-147 -78t-169.5 -27q-86 0 -163.5 26t-139.5 74.5t-101.5 127t-45.5 175.5z" />
<glyph unicode="4" horiz-adv-x="1122" d="M45 422v6q230 234 356 476t156 530h264q-23 -79 -58.5 -158t-74 -145.5t-92 -139.5t-99.5 -128.5t-109 -124t-107.5 -113.5t-109.5 -110l-60 -60h540v288l203 148h4v-436h238v-33h-238v-350l148 -66v-6h-502v6l147 66v350h-606z" />
<glyph unicode="5" horiz-adv-x="1185" d="M164 410h6q40 -121 154 -195t247 -74q167 0 282.5 112t115.5 271q0 160 -108.5 267.5t-270.5 107.5q-115 0 -207 -54.5t-141 -156.5l-9 4l154 742h690l-30 -181h-666l-96 -469q55 94 152.5 144.5t215.5 50.5q219 0 364.5 -136.5t145.5 -355.5q0 -135 -70.5 -250.5 t-189 -182t-256.5 -66.5q-188 0 -325.5 121t-157.5 301z" />
<glyph unicode="6" horiz-adv-x="1249" d="M213 604q0 128 26 242.5t73.5 204.5t114 163.5t146.5 120t172 75t190.5 27.5t201.5 -22v-4q-149 -14 -265.5 -53.5t-196 -98.5t-134 -141t-83 -174t-40.5 -205q38 110 138 185t222 75q214 0 349 -145t135 -360q0 -108 -40.5 -202.5t-110 -161t-165 -104.5t-201.5 -38 q-109 0 -205.5 42t-169.5 119.5t-115 195t-42 259.5zM420 494q0 -203 95 -339.5t230 -136.5q134 0 226 136t92 340q0 201 -91 319.5t-231 118.5q-138 0 -229.5 -119t-91.5 -319z" />
<glyph unicode="7" horiz-adv-x="1052" d="M213 1253v181h946q-244 -349 -389 -682.5t-256 -751.5h-244q26 80 64 167t72 157.5t91 167t91.5 153.5t105.5 162t100.5 147.5t109 155.5t100.5 143h-791z" />
<glyph unicode="8" horiz-adv-x="1247" d="M201 373q0 142 105 241.5t278 130.5q-151 31 -243.5 122.5t-92.5 219.5q0 104 63 186.5t172 127.5t242 45t242 -45t172 -127.5t63 -186.5q0 -128 -92.5 -219.5t-243.5 -122.5q173 -31 278 -130.5t105 -241.5q0 -170 -148 -277.5t-376 -107.5t-376 107.5t-148 277.5z M420 373q0 -157 86.5 -256t218.5 -99t218.5 99t86.5 256t-86.5 255.5t-218.5 98.5t-218.5 -98.5t-86.5 -255.5zM446 1087q0 -138 80.5 -233.5t198.5 -95.5t198.5 95.5t80.5 233.5q0 139 -80.5 234.5t-198.5 95.5t-198.5 -95.5t-80.5 -234.5z" />
<glyph unicode="9" horiz-adv-x="1249" d="M188 940q0 108 40.5 202.5t110 161t165 104.5t201.5 38q109 0 205.5 -42.5t169.5 -119.5t115 -195t42 -260q0 -128 -26 -242.5t-73.5 -204.5t-114 -163.5t-146.5 -120t-172 -75t-190.5 -27.5t-201.5 22v5q149 14 265.5 53.5t196 98t134 140.5t83 174t40.5 205 q-38 -110 -138 -185t-222 -75q-214 0 -349 145.5t-135 360.5zM387 940q0 -201 91 -319.5t231 -118.5q138 0 229.5 119t91.5 319q0 203 -95 339t-230 136q-134 0 -226 -135.5t-92 -339.5z" />
<glyph unicode=":" horiz-adv-x="442" d="M205 109q0 50 35 85t84 35t83.5 -35t34.5 -85t-34.5 -85.5t-83.5 -35.5t-84 35.5t-35 85.5zM205 758q0 50 35 85.5t84 35.5t83.5 -35.5t34.5 -85.5t-34.5 -85.5t-83.5 -35.5t-84 35.5t-35 85.5z" />
<glyph unicode=";" horiz-adv-x="444" d="M168 -258q128 168 168 248h-29q-49 0 -84 35.5t-35 85.5q0 49 34.5 83.5t84.5 34.5t84.5 -34.5t34.5 -83.5q0 -67 -72.5 -177t-165.5 -213zM188 752q0 50 35 85t84 35t84 -35t35 -85t-35 -85.5t-84 -35.5t-84 35.5t-35 85.5z" />
<glyph unicode="&#x3c;" horiz-adv-x="724" d="M82 416l602 415v-8l-451 -407l451 -408v-8z" />
<glyph unicode="=" horiz-adv-x="989" d="M176 319v46h813v-46h-813zM176 627v45h813v-45h-813z" />
<glyph unicode="&#x3e;" horiz-adv-x="724" d="M164 0v8l450 408l-450 407v8l602 -415z" />
<glyph unicode="?" horiz-adv-x="931" d="M139 1085l56 316q172 45 309 45q206 0 330 -91.5t124 -250.5q0 -61 -16 -111.5t-40 -84t-61 -63.5t-69.5 -49t-75.5 -41q-13 -7 -20 -10q-77 -41 -119.5 -83t-50.5 -111l-25 -213h-37l-32 285q-6 50 10.5 89.5t47 67t69.5 52t78.5 50t73 55t54.5 74t21 99.5 q0 121 -71 213t-187 92q-65 0 -109 -14l-147 -318zM348 109q0 50 35 85t84 35t84 -35t35 -85t-35 -85.5t-84 -35.5t-84 35.5t-35 85.5z" />
<glyph unicode="@" horiz-adv-x="1771" d="M197 561q0 165 64 315t173.5 261t265.5 177t332 66q207 0 376.5 -90t266.5 -247.5t97 -350.5q0 -132 -50 -248t-146 -189t-218 -73q-97 0 -157 54t-66 133q-46 -75 -125 -125.5t-170 -50.5q-116 0 -188 91t-72 232q0 77 20 154t57.5 144.5t88 120t115.5 82.5t136 30 q87 0 150.5 -53.5t81.5 -135.5l174 152l27 -2l-121 -609q-8 -58 28.5 -105.5t104.5 -47.5q82 0 148 73.5t98 174t32 198.5q0 190 -90.5 342.5t-247.5 237t-350 84.5q-132 0 -250.5 -42t-209 -116.5t-157 -174t-101.5 -218t-35 -244.5q0 -165 59.5 -305t160 -233.5 t233.5 -146t280 -52.5q171 0 322 57.5t263 167.5l5 -4q-104 -118 -260.5 -184t-329.5 -66q-134 0 -257 33.5t-224 99.5t-176 157.5t-116.5 213.5t-41.5 262zM768 561q-3 -55 1.5 -102t19.5 -92.5t49.5 -72t85.5 -26.5q73 0 138 56.5t93 144.5l49 287q3 89 -39 153t-116 64 q-86 0 -152.5 -69t-97.5 -161t-31 -182z" />
<glyph unicode="A" horiz-adv-x="1486" d="M-53 0v4l229 137l442 1207l-122 79v7h317l526 -1358l148 -70v-6h-520v6l147 66l-172 444h-592l-137 -375l231 -137v-4h-497zM362 547h568l-291 751z" />
<glyph unicode="B" horiz-adv-x="1335" d="M193 0v6l147 66v1292l-147 66v4h585q223 0 347 -86t124 -254q0 -128 -85 -208t-236 -110q195 -25 304 -128t109 -265q0 -184 -130 -283.5t-361 -99.5h-657zM547 33h237q149 0 242.5 95t93.5 255q0 161 -112.5 266t-278.5 105h-182v-721zM547 786h162q144 0 234.5 76.5 t90.5 231.5t-88.5 231t-232.5 76h-166v-615z" />
<glyph unicode="C" horiz-adv-x="1556" d="M197 713q0 197 92 363t249.5 262t344.5 96h434l153 -379l-133 -4l-274 350h-133q-144 0 -271.5 -82.5t-203.5 -222.5t-76 -301q0 -128 46 -242.5t124.5 -196.5t187.5 -130t230 -48q212 0 379 136.5t210 342.5h9q-10 -138 -66.5 -261t-146 -213t-211.5 -142.5t-258 -52.5 q-188 0 -346 97t-249 263.5t-91 364.5z" />
<glyph unicode="D" horiz-adv-x="1478" d="M193 0v6l147 66v1292l-147 66v4h649q142 0 264 -63t203 -166t125 -235q43 -127 43 -260v-12q-3 -190 -80.5 -348t-223 -254t-331.5 -96h-649zM547 33h188q149 0 270 89t189 241t70 335v10q0 172 -64 329q-66 161 -190.5 262.5t-274.5 101.5h-188v-1368z" />
<glyph unicode="E" horiz-adv-x="1310" d="M193 0v6l147 66v1292l-147 66v4h1030l71 -340l-133 -4l-194 311h-420v-666h205l174 264h10v-557h-10l-174 267h-205v-676h389l276 350l134 -4l-154 -379h-999z" />
<glyph unicode="F" horiz-adv-x="1228" d="M193 0v6l147 66v1292l-147 66v4h1030l71 -340l-133 -4l-194 311h-420v-666h205l174 264h10v-557h-10l-174 267h-205v-637l147 -66v-6h-501z" />
<glyph unicode="G" horiz-adv-x="1591" d="M197 713q0 197 92 363t249.5 262t344.5 96h434l153 -379l-133 -4l-274 350h-133q-144 0 -271.5 -82.5t-203.5 -222.5t-76 -301q0 -128 46 -242.5t124.5 -196.5t187.5 -130t230 -48q237 0 383 180v211l-316 62v10h516v-641h-8l-127 301q-80 -147 -214.5 -230t-317.5 -83 q-188 0 -346 97t-249 263.5t-91 364.5z" />
<glyph unicode="H" horiz-adv-x="1548" d="M193 0v6l147 66v1292l-147 66v4h501v-4l-147 -66v-641h647v641l-147 66v4h501v-4l-147 -66v-1292l147 -66v-6h-501v6l147 66v620h-647v-620l147 -66v-6h-501z" />
<glyph unicode="I" horiz-adv-x="694" d="M193 0v6l147 66v1292l-147 66v4h501v-4l-147 -66v-1292l147 -66v-6h-501z" />
<glyph unicode="J" horiz-adv-x="679" d="M-61 -238q138 98 208 199.5t70 247.5v1155l-147 66v4h501v-4l-147 -66v-1079q0 -221 -121 -344.5t-360 -180.5z" />
<glyph unicode="K" horiz-adv-x="1437" d="M193 0v6l147 66v1292l-147 66v4h501v-4l-147 -66v-444q25 70 88 114.5t141 44.5h350l7 355h268l-146 -385h-479q-87 0 -149 -59.5t-62 -143.5t62 -143.5t149 -59.5h348l377 -637v-6h-475v6l170 76l-303 530h-117q-78 0 -141 45t-88 115v-700l147 -66v-6h-501z" />
<glyph unicode="L" horiz-adv-x="1220" d="M193 0v6l147 66v1292l-147 66v4h501v-4l-147 -66v-1331h280l328 348l145 -4l-221 -377h-886z" />
<glyph unicode="M" horiz-adv-x="1941" d="M61 0v4l236 137v1168l-172 118v7h352l565 -1106l527 1106h325v-7l-172 -118v-1237l148 -66v-6h-502v6l148 66v1173l-570 -1198h-6l-610 1196v-1102l235 -137v-4h-504z" />
<glyph unicode="N" horiz-adv-x="1468" d="M61 0v4l236 137v1172l-176 114v7h356l746 -1102v960l-236 138v4h504v-4l-236 -138v-1292h-59l-866 1280v-1139l235 -137v-4h-504z" />
<glyph unicode="O" d="M197 717q0 151 55 286.5t148.5 232.5t222 153.5t270.5 56.5t270.5 -56.5t222 -153.5t148.5 -232.5t55 -286.5t-55 -286.5t-148.5 -232.5t-222 -153.5t-270.5 -56.5t-270.5 56.5t-222 153.5t-148.5 232.5t-55 286.5zM422 717q0 -193 63 -354t171.5 -253t236.5 -92 t236.5 92t171.5 253t63 354q0 145 -37.5 274.5t-100.5 222t-150 147t-183 54.5t-183 -54.5t-150 -147t-100.5 -222t-37.5 -274.5z" />
<glyph unicode="P" horiz-adv-x="1251" d="M193 0v6l147 66v1292l-147 66v4h620q216 0 343.5 -115t127.5 -303t-127.5 -303t-343.5 -115h-266v-526l147 -66v-6h-501zM547 631h201q135 0 225 111t90 274t-90 274t-225 111h-201v-770z" />
<glyph unicode="Q" d="M197 717q0 151 55 286.5t148.5 232.5t222 153.5t270.5 56.5t270.5 -56.5t222 -153.5t148.5 -232.5t55 -286.5q0 -220 -110 -398t-291 -264l215 -258h-45l-203 242q-127 -51 -262 -51q-142 0 -270.5 56.5t-222 153.5t-148.5 232.5t-55 286.5zM422 717q0 -193 63 -354 t171.5 -253t236.5 -92q117 0 215 76l-166 199h45l148 -176q105 93 167 251t62 349q0 145 -37.5 274.5t-100.5 222t-150 147t-183 54.5t-183 -54.5t-150 -147t-100.5 -222t-37.5 -274.5z" />
<glyph unicode="R" horiz-adv-x="1306" d="M193 0v6l147 66v1292l-147 66v4h610q216 0 343.5 -113.5t127.5 -298.5t-127.5 -298.5t-343.5 -113.5h-256v-2q37 -98 104.5 -167.5t164.5 -111t216.5 -60.5t270.5 -19v-250q-121 5 -227.5 36.5t-187.5 81t-148 117.5t-113.5 142t-79.5 158v-463l147 -66v-6h-501zM547 643 h190q135 0 225.5 108t90.5 271t-90.5 271t-225.5 108h-190v-758z" />
<glyph unicode="S" horiz-adv-x="1341" d="M242 535h98l217 -451q122 -61 268 -61q103 0 188.5 29t141 92.5t55.5 152.5q0 43 -13.5 81t-33 66.5t-56.5 55.5t-68.5 45t-86 39t-92.5 34t-102 33q-74 22 -127 41t-111 46t-97.5 58.5t-72.5 72t-49 93t-16 115.5q0 165 145.5 266t368.5 101q151 0 418 -60l65 -397 l-139 -2l-203 404q-71 22 -174 22q-87 0 -163.5 -31t-125.5 -90.5t-49 -134.5q0 -45 14 -83t45 -68t65 -52.5t89 -44t101 -36.5t116 -35q72 -23 124.5 -43t113 -49t102 -63.5t77.5 -78.5t53.5 -101.5t17.5 -125.5q0 -92 -43 -166t-116.5 -120.5t-168 -71.5t-201.5 -25 q-137 0 -295.5 29t-253.5 79z" />
<glyph unicode="T" horiz-adv-x="1294" d="M33 1038l69 396h1121l71 -396l-6 -2l-233 363h-289v-1327l147 -66v-6h-501v6l149 66v1327h-289l-235 -363z" />
<glyph unicode="U" horiz-adv-x="1536" d="M147 1430v4h502v-4l-147 -66v-817q0 -233 111 -367.5t302 -134.5t301.5 134.5t110.5 367.5v745l-235 138v4h503v-4l-235 -138v-721q-1 -154 -39.5 -267.5t-110 -182t-167 -101t-216.5 -32.5t-216.5 32.5t-167 101t-110 182t-38.5 267.5v793z" />
<glyph unicode="V" horiz-adv-x="1474" d="M-12 1427v7h526v-7l-147 -65l464 -1071l439 1001l-232 138v4h478v-4l-209 -138l-566 -1292h-4l-602 1358z" />
<glyph unicode="W" horiz-adv-x="2365" d="M-12 1427v7h526v-7l-147 -65l464 -1071l332 758l-172 385h414v-7l-148 -65l465 -1071l439 1001l-232 138v4h477v-4l-208 -138l-566 -1292h-4l-446 1006l-441 -1006h-4l-602 1358z" />
<glyph unicode="X" horiz-adv-x="1454" d="M45 1427v7h549v-7l-148 -65l365 -539l381 471l-229 136v4h477v-4l-209 -138l-402 -495l488 -721l147 -70v-6h-549v6l148 66l-373 553l-393 -486l229 -135v-4h-477v4l209 137l414 510l-479 707z" />
<glyph unicode="Y" horiz-adv-x="1370" d="M16 1427v7h537v-7l-147 -65l387 -842l354 772l-232 138v4h478v-4l-209 -138l-381 -833v-387l147 -66v-6h-501v6l147 66v389l-432 897z" />
<glyph unicode="Z" horiz-adv-x="1404" d="M164 0l985 1401h-690l-234 -365l-4 2l70 396h1126l-997 -1399h764l233 364l4 -2l-69 -397h-1188z" />
<glyph unicode="[" horiz-adv-x="573" d="M369 -190v1806h348v-6l-142 -60v-1675l142 -57v-8h-348z" />
<glyph unicode="\" horiz-adv-x="901" d="M82 1434l784 -1434h35l-784 1434h-35z" />
<glyph unicode="]" horiz-adv-x="573" d="M82 -182l141 57v1675l-141 60v6h348v-1806h-348v8z" />
<glyph unicode="^" horiz-adv-x="854" d="M205 1128l311 306h21l311 -306l-6 -6l-316 172l-315 -172z" />
<glyph unicode="_" horiz-adv-x="1134" d="M-20 -39v-33h1155v33h-1155z" />
<glyph unicode="`" horiz-adv-x="696" d="M172 1298l498 -161l4 8l-434 289z" />
<glyph unicode="a" horiz-adv-x="1161" d="M172 733l225 291h389q109 0 187 -74.5t78 -177.5v-700l147 -66v-6h-346v303q-26 -125 -128.5 -219t-231.5 -94q-139 0 -224.5 69.5t-85.5 194.5q0 97 56 164.5t143 101.5l321 125q154 61 154 189q0 70 -50.5 115.5t-131.5 45.5h-174l-105 -262h-223zM373 336 q0 -96 56.5 -141t150.5 -45q113 0 188.5 72.5t75.5 193.5v291q-44 -56 -131 -91l-174 -67q-82 -31 -124 -87.5t-42 -125.5z" />
<glyph unicode="b" horiz-adv-x="1282" d="M123 0v6l147 66v1290l-147 65v7h354v-631q36 97 130 164t220 67q175 0 296.5 -150t121.5 -372t-121.5 -372t-296.5 -150q-126 0 -220 67t-130 164v-221h-354zM477 365q0 -110 78.5 -200.5t196.5 -90.5q124 0 199 112t75 326t-75 326t-199 112q-118 0 -196.5 -90.5 t-78.5 -200.5v-294z" />
<glyph unicode="c" horiz-adv-x="1193" d="M176 508q0 152 70.5 270.5t189.5 182t264 63.5h324l115 -291h-113l-201 260h-116q-67 0 -130.5 -28t-114 -78.5t-81.5 -129.5t-31 -173q0 -186 122.5 -307t297.5 -121q155 0 273.5 95.5t144.5 240.5h6q-2 -134 -70 -249.5t-185 -184t-255 -68.5q-139 0 -256 67 t-185.5 186t-68.5 265z" />
<glyph unicode="d" horiz-adv-x="1284" d="M197 512q0 147 56 267t151.5 187.5t209.5 67.5q126 0 220.5 -67t130.5 -164v559l-148 65v7h354v-1362l148 -66v-6h-354v221q-36 -97 -130.5 -164t-220.5 -67q-114 0 -209.5 67.5t-151.5 187.5t-56 267zM416 512q0 -214 75 -326t199 -112q118 0 196.5 90.5t78.5 200.5v294 q0 110 -78.5 200.5t-196.5 90.5q-124 0 -199 -112t-75 -326z" />
<glyph unicode="e" horiz-adv-x="1193" d="M176 508q0 152 70 273t189.5 187t264.5 66q165 0 296.5 -85.5t177.5 -231.5h-805q-17 -70 -17 -133q0 -186 122.5 -307t297.5 -121q155 0 273.5 95.5t144.5 240.5h6q-2 -134 -70 -249.5t-185 -184t-255 -68.5q-139 0 -256 67t-185.5 186t-68.5 265zM377 748h594 q-34 119 -106 187.5t-169 68.5q-102 0 -190.5 -68.5t-128.5 -187.5z" />
<glyph unicode="f" horiz-adv-x="813" d="M135 938v33h150q-58 92 -58 215q0 105 72.5 176.5t179.5 71.5h393l-96 -283h-151v250h-146q-91 0 -155 -60.5t-64 -154.5t64 -154.5t155 -60.5h365v-33h-352v-866l147 -66v-6h-502v6l148 66v866h-150z" />
<glyph unicode="g" horiz-adv-x="1259" d="M176 514q0 148 71 268.5t192 187t266 66.5q127 0 243 -55l277 123v-172h-230q111 -66 174.5 -172t63.5 -246q0 -148 -70.5 -268.5t-191.5 -187t-266 -66.5q-106 0 -158.5 -49.5t-52.5 -118.5t51.5 -108.5t124.5 -39.5q99 0 158 47t94 127q66 150 192 150q75 0 123.5 -48 t48.5 -120v-328h-319l110 191h176v137q0 60 -39.5 97.5t-99.5 37.5q-56 0 -93 -31t-65 -98l-53 -129q-91 -223 -307 -223q-124 0 -203.5 66.5t-79.5 181.5q0 94 75 168t196 102q-180 39 -294 178.5t-114 331.5zM383 514q0 -213 93.5 -353.5t228.5 -140.5t228 140.5t93 353.5 t-93 352.5t-228 139.5t-228.5 -139.5t-93.5 -352.5z" />
<glyph unicode="h" horiz-adv-x="1288" d="M123 0v6l147 66v1290l-147 65v7h354v-684q31 120 124 202t224 82q163 0 246.5 -101t83.5 -286v-575l148 -66v-6h-502v6l147 66v559q0 68 -9.5 117.5t-32.5 90t-64.5 61t-102.5 20.5q-64 0 -115.5 -32t-82.5 -82.5t-47.5 -107t-16.5 -110.5v-516l148 -66v-6h-502z" />
<glyph unicode="i" horiz-adv-x="630" d="M139 0v6l148 66v880l-148 66v6h355v-952l147 -66v-6h-502zM270 1280q0 50 35 84.5t84 34.5t84 -34.5t35 -84.5t-35 -84.5t-84 -34.5t-84 34.5t-35 84.5z" />
<glyph unicode="j" horiz-adv-x="569" d="M98 1018v6h355v-1147q0 -173 -104 -287t-243 -122v2q47 27 93.5 139t46.5 268v1075zM227 1280q0 50 34.5 84.5t84.5 34.5q48 0 83.5 -35t35.5 -84t-35.5 -84t-83.5 -35q-50 0 -84.5 34.5t-34.5 84.5z" />
<glyph unicode="k" horiz-adv-x="1251" d="M123 0v6l147 66v1290l-147 65v7h354v-605q20 87 93 141t169 54h435l-107 -256h-113v221h-217q-90 0 -160.5 -58t-70.5 -157t70.5 -157t160.5 -58h234l323 -553v-6h-424v6l148 66l-252 452h-27q-96 0 -169 54t-93 141v-647l148 -66v-6h-502z" />
<glyph unicode="l" horiz-adv-x="626" d="M123 0v6l147 66v1290l-147 65v7h354v-1362l148 -66v-6h-502z" />
<glyph unicode="m" horiz-adv-x="1974" d="M139 0v6l148 66v880l-148 66v6h355v-274q31 120 124 202t224 82q272 0 321 -284q36 118 132.5 201t224.5 83q163 0 246 -101t83 -286v-575l148 -66v-6h-502v6l147 66v559q0 68 -9.5 117.5t-32 90t-64 61t-102.5 20.5q-64 0 -116 -32t-83 -82.5t-47.5 -107t-16.5 -110.5 v-516l148 -66v-6h-502v6l148 66v559q0 68 -9.5 117.5t-32.5 90t-64.5 61t-102.5 20.5q-64 0 -115.5 -32t-82.5 -82.5t-47.5 -107t-16.5 -110.5v-516l147 -66v-6h-502z" />
<glyph unicode="n" horiz-adv-x="1296" d="M139 0v6l148 66v880l-148 66v6h355v-274q31 120 124 202t224 82q163 0 246 -101t83 -286v-575l148 -66v-6h-502v6l148 66v559q0 68 -9.5 117.5t-32.5 90t-64.5 61t-102.5 20.5q-64 0 -115.5 -32t-82.5 -82.5t-47.5 -107t-16.5 -110.5v-516l147 -66v-6h-502z" />
<glyph unicode="o" horiz-adv-x="1232" d="M176 512q0 148 71 268.5t192 187t266 66.5t266 -66.5t191.5 -187t70.5 -268.5t-70.5 -268.5t-191.5 -187t-266 -66.5t-266 66.5t-192 187t-71 268.5zM383 512q0 -213 93.5 -353.5t228.5 -140.5t228 140.5t93 353.5t-93 352.5t-228 139.5t-228.5 -139.5t-93.5 -352.5z" />
<glyph unicode="p" horiz-adv-x="1284" d="M127 -489l147 65v1290h-147v6l340 152h14v-221q36 97 130 164t220 67q175 0 296.5 -150t121.5 -372t-121.5 -372t-296.5 -150q-126 0 -220 67t-130 164v-645l148 -65v-7h-502v7zM481 365q0 -110 78.5 -200.5t196.5 -90.5q124 0 199 112t75 326t-75 326t-199 112 q-118 0 -196.5 -90.5t-78.5 -200.5v-294z" />
<glyph unicode="q" horiz-adv-x="1228" d="M176 512q0 222 121.5 372t296.5 150q117 0 203 -58t141 -151l199 199h14v-1448l147 -65v-7h-501v7l147 65v645q-36 -97 -130 -164t-220 -67q-175 0 -296.5 150t-121.5 372zM395 512q0 -214 75.5 -326t199.5 -112q79 0 143 44t97.5 110t33.5 137v294q0 112 -78 201.5 t-196 89.5q-124 0 -199.5 -112t-75.5 -326z" />
<glyph unicode="r" horiz-adv-x="960" d="M139 0v6l148 66v794h-148v6l340 152h15v-362q13 74 66 158t138 147t172 63q65 0 105 -10v-197q-87 17 -191 17q-89 0 -157 -47.5t-100.5 -118t-32.5 -148.5v-454l147 -66v-6h-502z" />
<glyph unicode="s" horiz-adv-x="1060" d="M184 360h86l172 -292q71 -48 199 -48q124 0 210 50q85 49 85 137q0 32 -11 57t-34 44.5t-48 34.5t-65.5 29.5t-73 24.5t-83.5 23q-53 14 -87.5 24.5t-81.5 28t-77.5 34.5t-64 42t-53 53.5t-32 67t-12.5 82.5q0 129 114 205.5t291 76.5q156 0 332 -43l37 -284l-96 -9 l-146 285q-65 21 -157 21q-112 0 -181 -51t-69 -126q0 -29 9 -52.5t35.5 -43t43 -31t64 -27.5t64 -20.5t75.5 -20.5l33 -9q179 -57 241 -89q118 -61 147 -161q11 -40 11 -86q0 -145 -119 -223q-112 -74 -287 -74h-22q-271 6 -412 76z" />
<glyph unicode="t" horiz-adv-x="819" d="M61 991v33h158l201 410h6v-410h281v-33h-281v-667q0 -95 42.5 -141t115.5 -46q71 0 128.5 59t73.5 132h9q-5 -139 -87.5 -238.5t-205.5 -99.5q-120 0 -201.5 75.5t-81.5 208.5v717h-158z" />
<glyph unicode="u" horiz-adv-x="1292" d="M98 1018v6h355v-631q0 -68 9.5 -117.5t32.5 -90t64.5 -61t102.5 -20.5q64 0 115.5 32t82.5 82.5t47.5 107t16.5 110.5v516l-148 66v6h354v-952l148 -66v-6h-354v274q-31 -120 -124.5 -202t-224.5 -82q-163 0 -246 101t-83 286v575z" />
<glyph unicode="v" horiz-adv-x="1204" d="M-29 1018v6h506v-6l-143 -64l346 -694l295 631l-213 129v4h459v-4l-203 -129l-420 -891h-8l-473 954z" />
<glyph unicode="w" horiz-adv-x="1953" d="M-29 1018v6h506v-6l-143 -64l346 -694l258 549l-107 215h396v-6l-144 -64l347 -694l294 631l-213 129v4h459v-4l-203 -129l-419 -891h-9l-381 768l-360 -768h-8l-473 954z" />
<glyph unicode="x" horiz-adv-x="1198" d="M25 1018v6h524v-6l-143 -64l260 -364l239 301l-211 129v4h459v-4l-201 -129l-264 -332l348 -489l144 -64v-6h-525v6l146 64l-254 356l-234 -293l211 -129v-4h-458v4l200 129l258 324l-354 497z" />
<glyph unicode="y" horiz-adv-x="1200" d="M-37 1018v6h506v-6l-143 -64l346 -694l295 631l-213 129v4h458v-4l-202 -129l-435 -918q-37 -77 -62 -125.5t-58 -102.5t-63.5 -85.5t-70 -59t-85.5 -39.5t-101 -12v220q297 0 430 266l-456 919z" />
<glyph unicode="z" horiz-adv-x="1064" d="M94 0l719 991h-485l-170 -360h-4l43 393h864l-719 -991h504l168 358h6l-43 -391h-883z" />
<glyph unicode="{" horiz-adv-x="600" d="M45 713q98 17 145.5 87t47.5 181v250q0 221 99.5 313t309.5 70v-8q-55 0 -94.5 -11t-63.5 -32t-38.5 -51.5t-20 -69t-7 -84.5t0.5 -98v-236q2 -131 -57.5 -206t-198.5 -105q139 -30 198.5 -104.5t57.5 -205.5v-237q-2 -52 -0.5 -98t7 -84.5t20 -69t38.5 -51.5t63.5 -32 t94.5 -11v-8q-210 -22 -309.5 70t-99.5 313v249q0 112 -47.5 183.5t-145.5 85.5z" />
<glyph unicode="|" horiz-adv-x="462" d="M430 -408l33 -2v1844h-33v-1842z" />
<glyph unicode="}" horiz-adv-x="600" d="M-49 -180q55 0 94.5 11t63.5 32t38.5 51.5t20 69t7 84.5t-0.5 98v237q-2 131 57.5 205.5t198.5 104.5q-139 30 -198.5 105t-57.5 206v236q2 52 0.5 98t-7 84.5t-20 69t-38.5 51.5t-63.5 32t-94.5 11v8q210 22 309.5 -70t99.5 -313v-250q0 -111 47.5 -181t145.5 -87 q-98 -14 -145.5 -85.5t-47.5 -183.5v-249q0 -221 -99.5 -313t-309.5 -70v8z" />
<glyph unicode="~" horiz-adv-x="909" d="M143 414q-2 60 28 104t73.5 63t93.5 19q48 0 91 -16.5t75.5 -40t64.5 -47t72.5 -40t85.5 -16.5q59 0 106 33t60 88l12 -4q4 -85 -53.5 -133.5t-142.5 -48.5q-50 0 -93.5 16.5t-75.5 40.5t-63 48t-70 40.5t-83 16.5q-62 0 -109 -36t-59 -91z" />
<glyph unicode="&#xa1;" horiz-adv-x="438" d="M238 1325q0 50 34.5 85.5t83.5 35.5t84 -35.5t35 -85.5t-35 -85.5t-84 -35.5t-83.5 35.5t-34.5 85.5zM254 0h205v410l-84 690h-37l-84 -690v-410z" />
<glyph unicode="&#xa2;" horiz-adv-x="1193" d="M176 508q0 151 70 269.5t188 182t262 64.5v119h33v-119h295l115 -291h-113l-201 260h-96v-835q14 -2 43 -2q155 0 273.5 95.5t144.5 240.5h6q-2 -127 -64 -238t-168.5 -181t-234.5 -81v-127h-33v125h-10q-139 0 -256 67t-185.5 186t-68.5 265zM352 584 q0 -164 97.5 -279.5t246.5 -142.5v831q-65 -2 -126.5 -31t-110 -80t-78 -128.5t-29.5 -169.5z" />
<glyph unicode="&#xa3;" horiz-adv-x="1161" d="M115 0v6q163 35 255.5 134.5t92.5 258.5q0 120 -82 273h-219v30h203q-8 15 -42 72.5t-46 81.5t-33 70.5t-29 85.5t-8 80q0 153 128 247.5t322 94.5h353l82 -349l-134 -6l-202 322h-58q-119 0 -193 -81.5t-75 -225.5q0 -43 12.5 -97t25 -89.5t41 -107.5t38.5 -98h366v-30 h-354q51 -141 51 -242q0 -74 -21.5 -141.5t-73.5 -132.5t-132 -111h461l192 277l131 -3l-102 -319h-950z" />
<glyph unicode="&#xa4;" horiz-adv-x="1048" d="M205 623q0 164 110 280l-104 105l29 28l104 -104q116 110 283 110q158 0 280 -112l107 106l28 -28l-106 -107q111 -121 111 -278q0 -78 -30 -151.5t-83 -129.5l108 -106l-28 -29l-109 106q-116 -110 -278 -110t-283 108l-104 -104l-29 29l104 104q-110 116 -110 283z M285 623q0 -142 100 -244.5t242 -102.5q136 0 239 103.5t103 243.5q0 141 -103 243.5t-239 102.5q-142 0 -242 -101.5t-100 -244.5z" />
<glyph unicode="&#xa5;" horiz-adv-x="1400" d="M49 1427v7h537v-7l-148 -65l387 -842l355 772l-232 138v4h477v-4l-208 -138l-373 -817h291v-29h-299v-112h299v-31h-299v-231l147 -66v-6h-502v6l148 66v231h-301v31h301v112h-301v29h295l-426 883z" />
<glyph unicode="&#xa6;" horiz-adv-x="462" d="M430 401v-807h33v807h-33zM430 627h33v807h-33v-807z" />
<glyph unicode="&#xa7;" horiz-adv-x="1060" d="M184 360h86l172 -292q71 -48 199 -48q124 0 210 50t85 139q0 30 -11 54.5t-34.5 44.5t-47 34.5t-66 29.5t-72.5 24t-84 24q-60 16 -100.5 29t-89.5 33.5t-81 44.5t-60.5 56t-42.5 74.5t-14 94.5q0 91 58.5 157t161.5 99q-95 42 -147 104t-52 158q0 129 114 205.5 t291 76.5q156 0 332 -43l37 -284l-96 -8l-146 284q-65 21 -157 21q-112 0 -181 -50.5t-69 -125.5q0 -26 8.5 -48t28.5 -39.5t39.5 -30t54 -25.5t58.5 -21t67.5 -20.5t66.5 -20.5q78 -26 127 -45.5t98 -48t75.5 -60.5t42.5 -77.5t16 -104.5q0 -92 -49.5 -157.5t-137.5 -100.5 q93 -43 140 -102.5t47 -157.5q0 -145 -119 -223.5t-309 -73.5q-271 6 -412 76zM358 827q0 -23 7.5 -43t17.5 -35t30.5 -29t36.5 -23t47 -20.5t50.5 -17.5t57 -17.5t57.5 -18.5q6 -2 153 -52q57 23 89.5 63t31.5 93q-1 45 -18.5 77.5t-56.5 57t-82.5 40.5t-116.5 36 q-83 21 -162 49q-66 -20 -104 -63t-38 -97z" />
<glyph unicode="&#xa8;" horiz-adv-x="661" d="M205 1346q0 41 29.5 70.5t70.5 29.5t71 -29.5t30 -70.5t-30 -71t-71 -30t-70.5 30t-29.5 71zM461 1346q0 41 29.5 70.5t70.5 29.5t71 -29.5t30 -70.5t-30 -71t-71 -30t-70.5 30t-29.5 71z" />
<glyph unicode="&#xa9;" horiz-adv-x="1687" d="M197 717q0 159 58.5 297.5t158.5 235.5t237 152.5t291 55.5t291 -55.5t237.5 -152.5t159 -235.5t58.5 -297.5q0 -212 -100 -382.5t-270.5 -265t-375.5 -94.5q-154 0 -291 55.5t-237 153t-158.5 236t-58.5 297.5zM227 717q0 -200 93 -363t257 -255.5t365 -92.5t365 92.5 t257 255.5t93 363q0 150 -54.5 282t-149.5 226t-227.5 148t-283.5 54t-283.5 -54t-227.5 -148t-149.5 -226t-54.5 -282zM588 719q0 157 103.5 264t252.5 107h238l63 -195l-86 -2l-137 176h-68q-108 -15 -177.5 -98t-69.5 -199q0 -130 82.5 -216.5t205.5 -86.5q104 0 189 69 t108 171h4q-9 -151 -110 -255t-242 -104q-149 0 -252.5 106.5t-103.5 262.5z" />
<glyph unicode="&#xab;" horiz-adv-x="1214" d="M78 662l622 561h9l-471 -561l471 -562h-9zM539 662l622 561h8l-471 -561l471 -562h-8z" />
<glyph unicode="&#xad;" horiz-adv-x="751" d="M102 471h650v33h-650v-33z" />
<glyph unicode="&#xae;" horiz-adv-x="1687" d="M197 717q0 159 58.5 297.5t158.5 235.5t237 152.5t291 55.5t291 -55.5t237.5 -152.5t159 -235.5t58.5 -297.5q0 -212 -100 -382.5t-270.5 -265t-375.5 -94.5q-154 0 -291 55.5t-237 153t-158.5 236t-58.5 297.5zM227 717q0 -200 93 -363t257 -255.5t365 -92.5t365 92.5 t257 255.5t93 363q0 150 -54.5 282t-149.5 226t-227.5 148t-283.5 54t-283.5 -54t-227.5 -148t-149.5 -226t-54.5 -282zM647 342v2l72 37v686l-72 37v2h334q124 0 194 -58.5t70 -156.5q0 -106 -75.5 -162.5t-215.5 -56.5h-100q0 -49 39.5 -85t105.5 -56t132 -29.5t137 -12.5 v-147q-86 3 -165.5 31t-147 86t-101.5 139v-217l76 -37v-2h-283zM854 694h86q71 0 119.5 58t48.5 137t-48.5 136.5t-119.5 57.5h-86v-389z" />
<glyph unicode="&#xaf;" horiz-adv-x="792" d="M205 1405h588v29h-588v-29z" />
<glyph unicode="&#xb0;" horiz-adv-x="608" d="M176 1229q0 -88 63.5 -152.5t153.5 -64.5t153.5 64.5t63.5 152.5t-63.5 152.5t-153.5 64.5t-153.5 -64.5t-63.5 -152.5zM225 1229q0 69 49.5 120.5t118.5 51.5t118.5 -51.5t49.5 -120.5t-49.5 -120.5t-118.5 -51.5t-118.5 51.5t-49.5 120.5z" />
<glyph unicode="&#xb1;" horiz-adv-x="937" d="M193 473v43h350v350h45v-350h350v-43h-350v-299h-45v299h-350zM205 0v43h725v-43h-725z" />
<glyph unicode="&#xb4;" horiz-adv-x="694" d="M213 1145l4 -8l498 161l-68 136z" />
<glyph unicode="&#xb6;" horiz-adv-x="1404" d="M135 999q0 -190 134.5 -312t328.5 -122h158v-729l-178 -80v-4h333v1655h131v-1655h334v4l-178 80v1514l178 80v4h-782q-192 0 -325.5 -123t-133.5 -312z" />
<glyph unicode="&#xb7;" horiz-adv-x="493" d="M258 578q0 50 35 85t84 35t84 -35t35 -85t-35 -85.5t-84 -35.5t-84 35.5t-35 85.5z" />
<glyph unicode="&#xb8;" horiz-adv-x="585" d="M213 -358l6 10q38 -10 70 -10q67 0 112 33.5t45 88.5q0 37 -30 63t-88 26q-18 0 -58 -7l115 154h33l-86 -117q34 11 65 11q70 0 106 -35.5t36 -85.5q0 -72 -59.5 -115t-141.5 -43q-66 0 -125 27z" />
<glyph unicode="&#xbb;" horiz-adv-x="1214" d="M168 100l471 562l-471 561h8l623 -561l-623 -562h-8zM629 100l471 562l-471 561h8l623 -561l-623 -562h-8z" />
<glyph unicode="&#xbf;" horiz-adv-x="931" d="M86 334q0 61 16 111t39.5 83.5t60.5 63t69.5 48.5t75.5 41q15 7 22 11q77 41 119.5 83.5t50.5 111.5l24 213h37l33 -285q6 -50 -10.5 -89.5t-47 -67t-69.5 -52t-78.5 -50t-73 -55t-54.5 -74t-21 -99.5q0 -121 71 -213t187 -92q64 0 108 14l148 317l112 -2l-55 -315 q-172 -45 -309 -45q-207 0 -331 91.5t-124 250.5zM459 1329q0 50 35 85.5t84 35.5t83.5 -35.5t34.5 -85.5t-34.5 -85.5t-83.5 -35.5t-84 35.5t-35 85.5z" />
<glyph unicode="&#xc0;" horiz-adv-x="1486" d="M-53 0v4l229 137l442 1207l-122 79v7h317l526 -1358l148 -70v-6h-520v6l147 66l-172 444h-592l-137 -375l231 -137v-4h-497zM362 547h568l-291 751zM412 1737l497 -162l4 8l-434 289z" />
<glyph unicode="&#xc1;" horiz-adv-x="1486" d="M-53 0v4l229 137l442 1207l-122 79v7h317l526 -1358l148 -70v-6h-520v6l147 66l-172 444h-592l-137 -375l231 -137v-4h-497zM362 547h568l-291 751zM432 1583l4 -8l498 162l-68 135z" />
<glyph unicode="&#xc2;" horiz-adv-x="1486" d="M-53 0v4l229 137l442 1207l-122 79v7h317l526 -1358l148 -70v-6h-520v6l147 66l-172 444h-592l-137 -375l231 -137v-4h-497zM362 547h568l-291 751zM373 1565l311 305h21l311 -305l-6 -6l-316 172l-315 -172z" />
<glyph unicode="&#xc3;" horiz-adv-x="1486" d="M-53 0v4l229 137l442 1207l-122 79v7h317l526 -1358l148 -70v-6h-520v6l147 66l-172 444h-592l-137 -375l231 -137v-4h-497zM362 547h568l-291 751zM397 1575q-13 118 37.5 187t132.5 69q38 0 73.5 -17t63 -41.5t54 -49t56 -41.5t58.5 -17q64 0 102.5 43.5t41.5 110.5h6 q13 -118 -37.5 -187t-132.5 -69q-38 0 -73.5 17t-63 41.5t-54 49t-56 41.5t-58.5 17q-64 0 -102.5 -43.5t-41.5 -110.5h-6z" />
<glyph unicode="&#xc4;" horiz-adv-x="1486" d="M-53 0v4l229 137l442 1207l-122 79v7h317l526 -1358l148 -70v-6h-520v6l147 66l-172 444h-592l-137 -375l231 -137v-4h-497zM362 547h568l-291 751zM467 1667q0 41 29.5 70.5t70.5 29.5t71 -29.5t30 -70.5t-30 -70.5t-71 -29.5t-70.5 29.5t-29.5 70.5zM723 1667 q0 41 29.5 70.5t70.5 29.5t71 -29.5t30 -70.5t-30 -70.5t-71 -29.5t-70.5 29.5t-29.5 70.5z" />
<glyph unicode="&#xc5;" horiz-adv-x="1486" d="M-53 0v4l229 137l442 1207l-122 79v7h317l526 -1358l148 -70v-6h-520v6l147 66l-172 444h-592l-137 -375l231 -137v-4h-497zM362 547h568l-291 751zM549 1712q0 63 44 107.5t107 44.5t107.5 -44.5t44.5 -107.5t-44.5 -107t-107.5 -44t-107 44t-44 107zM582 1712 q0 -51 34.5 -87t83.5 -36t84 36t35 87t-35 87t-84 36t-83.5 -36t-34.5 -87z" />
<glyph unicode="&#xc6;" horiz-adv-x="1843" d="M-70 0v4l230 135l522 1164l-201 127v4h1145l70 -340l-133 -4l-193 311h-416v-668h197l176 266h10v-557h-10l-176 269h-197v-678h385l275 348l133 -2l-152 -379h-995v6l148 66v528h-349l-204 -461l233 -135v-4h-498zM412 633h336v747z" />
<glyph unicode="&#xc7;" horiz-adv-x="1556" d="M197 713q0 197 92 363t249.5 262t344.5 96h434l153 -379l-133 -4l-274 350h-133q-144 0 -271.5 -82.5t-203.5 -222.5t-76 -301q0 -128 46 -242.5t124.5 -196.5t187.5 -130t230 -48q212 0 379 136.5t210 342.5h9q-10 -138 -66.5 -261t-145.5 -213t-211 -142.5t-257 -52.5 l-78 -105q34 11 65 11q70 0 106 -35.5t36 -85.5q0 -72 -59.5 -115t-141.5 -43q-67 0 -125 27l6 10q38 -10 70 -10q67 0 112.5 33.5t45.5 88.5q0 37 -30.5 63t-88.5 26q-18 0 -58 -7l107 142q-182 9 -332.5 107.5t-236.5 261.5t-86 356z" />
<glyph unicode="&#xc8;" horiz-adv-x="1310" d="M193 0v6l147 66v1292l-147 66v4h1030l71 -340l-133 -4l-194 311h-420v-666h205l174 264h10v-557h-10l-174 267h-205v-676h389l276 350l134 -4l-154 -379h-999zM463 1737l498 -162l4 8l-435 289z" />
<glyph unicode="&#xc9;" horiz-adv-x="1310" d="M193 0v6l147 66v1292l-147 66v4h1030l71 -340l-133 -4l-194 311h-420v-666h205l174 264h10v-557h-10l-174 267h-205v-676h389l276 350l134 -4l-154 -379h-999zM535 1583l4 -8l497 162l-67 135z" />
<glyph unicode="&#xca;" horiz-adv-x="1310" d="M193 0v6l147 66v1292l-147 66v4h1030l71 -340l-133 -4l-194 311h-420v-666h205l174 264h10v-557h-10l-174 267h-205v-676h389l276 350l134 -4l-154 -379h-999zM420 1565l311 305h21l311 -305l-6 -6l-316 172l-315 -172z" />
<glyph unicode="&#xcb;" horiz-adv-x="1310" d="M193 0v6l147 66v1292l-147 66v4h1030l71 -340l-133 -4l-194 311h-420v-666h205l174 264h10v-557h-10l-174 267h-205v-676h389l276 350l134 -4l-154 -379h-999zM526 1667q0 41 30 70.5t71 29.5t70.5 -29.5t29.5 -70.5t-29.5 -70.5t-70.5 -29.5t-71 29.5t-30 70.5z M782 1667q0 41 30 70.5t71 29.5t70.5 -29.5t29.5 -70.5t-29.5 -70.5t-70.5 -29.5t-71 29.5t-30 70.5z" />
<glyph unicode="&#xcc;" horiz-adv-x="694" d="M180 1737l498 -162l4 8l-434 289zM186 0v6l148 66v1292l-148 66v4h502v-4l-147 -66v-1292l147 -66v-6h-502z" />
<glyph unicode="&#xcd;" horiz-adv-x="694" d="M188 1583l5 -8l497 162l-67 135zM190 0v6l148 66v1292l-148 66v4h502v-4l-147 -66v-1292l147 -66v-6h-502z" />
<glyph unicode="&#xce;" horiz-adv-x="694" d="M49 1565l311 305h21l311 -305l-6 -6l-315 172l-316 -172zM121 0v6l147 66v1292l-147 66v4h502v-4l-148 -66v-1292l148 -66v-6h-502z" />
<glyph unicode="&#xcf;" horiz-adv-x="694" d="M193 0v6l147 66v1292l-147 66v4h501v-4l-147 -66v-1292l147 -66v-6h-501zM215 1667q0 41 29.5 70.5t70.5 29.5t71 -29.5t30 -70.5t-30 -70.5t-71 -29.5t-70.5 29.5t-29.5 70.5zM471 1667q0 41 29.5 70.5t70.5 29.5t71 -29.5t30 -70.5t-30 -70.5t-71 -29.5t-70.5 29.5 t-29.5 70.5z" />
<glyph unicode="&#xd0;" horiz-adv-x="1478" d="M41 707v32h223v625l-147 66v4h649q142 0 264 -63t203 -166t125.5 -235.5t42.5 -271.5q-3 -190 -80.5 -348t-223 -254t-331.5 -96h-649v6l147 66v635h-223zM471 33h188q149 0 270 89t189 241t70 335q2 178 -64.5 339t-190.5 262.5t-274 101.5h-188v-662h299v-32h-299v-674 z" />
<glyph unicode="&#xd1;" horiz-adv-x="1468" d="M61 0v4l236 137v1172l-176 114v7h356l746 -1102v960l-236 138v4h504v-4l-236 -138v-1292h-59l-866 1280v-1139l235 -137v-4h-504zM473 1575q-13 118 37.5 187t132.5 69q38 0 73.5 -17t63 -41.5t54 -49t56 -41.5t58.5 -17q64 0 102.5 43.5t41.5 110.5h6 q13 -118 -37.5 -187t-132.5 -69q-38 0 -73.5 17t-63 41.5t-54 49t-56 41.5t-58.5 17q-64 0 -102.5 -43.5t-41.5 -110.5h-6z" />
<glyph unicode="&#xd2;" d="M197 717q0 151 55 286.5t148.5 232.5t222 153.5t270.5 56.5t270.5 -56.5t222 -153.5t148.5 -232.5t55 -286.5t-55 -286.5t-148.5 -232.5t-222 -153.5t-270.5 -56.5t-270.5 56.5t-222 153.5t-148.5 232.5t-55 286.5zM422 717q0 -193 63 -354t171.5 -253t236.5 -92 t236.5 92t171.5 253t63 354q0 145 -37.5 274.5t-100.5 222t-150 147t-183 54.5t-183 -54.5t-150 -147t-100.5 -222t-37.5 -274.5zM606 1737l498 -162l4 8l-434 289z" />
<glyph unicode="&#xd3;" d="M197 717q0 151 55 286.5t148.5 232.5t222 153.5t270.5 56.5t270.5 -56.5t222 -153.5t148.5 -232.5t55 -286.5t-55 -286.5t-148.5 -232.5t-222 -153.5t-270.5 -56.5t-270.5 56.5t-222 153.5t-148.5 232.5t-55 286.5zM422 717q0 -193 63 -354t171.5 -253t236.5 -92 t236.5 92t171.5 253t63 354q0 145 -37.5 274.5t-100.5 222t-150 147t-183 54.5t-183 -54.5t-150 -147t-100.5 -222t-37.5 -274.5zM680 1583l4 -8l498 162l-68 135z" />
<glyph unicode="&#xd4;" d="M197 717q0 151 55 286.5t148.5 232.5t222 153.5t270.5 56.5t270.5 -56.5t222 -153.5t148.5 -232.5t55 -286.5t-55 -286.5t-148.5 -232.5t-222 -153.5t-270.5 -56.5t-270.5 56.5t-222 153.5t-148.5 232.5t-55 286.5zM422 717q0 -193 63 -354t171.5 -253t236.5 -92 t236.5 92t171.5 253t63 354q0 145 -37.5 274.5t-100.5 222t-150 147t-183 54.5t-183 -54.5t-150 -147t-100.5 -222t-37.5 -274.5zM571 1565l312 305h20l311 -305l-6 -6l-315 172l-315 -172z" />
<glyph unicode="&#xd5;" d="M197 717q0 151 55 286.5t148.5 232.5t222 153.5t270.5 56.5t270.5 -56.5t222 -153.5t148.5 -232.5t55 -286.5t-55 -286.5t-148.5 -232.5t-222 -153.5t-270.5 -56.5t-270.5 56.5t-222 153.5t-148.5 232.5t-55 286.5zM422 717q0 -193 63 -354t171.5 -253t236.5 -92 t236.5 92t171.5 253t63 354q0 145 -37.5 274.5t-100.5 222t-150 147t-183 54.5t-183 -54.5t-150 -147t-100.5 -222t-37.5 -274.5zM580 1575q-13 118 37.5 187t132.5 69q38 0 73.5 -17t63 -41.5t54 -49t56 -41.5t58.5 -17q64 0 102 43.5t41 110.5h6q13 -118 -37.5 -187 t-132.5 -69q-38 0 -73.5 17t-63 41.5t-54 49t-56 41.5t-58.5 17q-64 0 -102 -43.5t-41 -110.5h-6z" />
<glyph unicode="&#xd6;" d="M197 717q0 151 55 286.5t148.5 232.5t222 153.5t270.5 56.5t270.5 -56.5t222 -153.5t148.5 -232.5t55 -286.5t-55 -286.5t-148.5 -232.5t-222 -153.5t-270.5 -56.5t-270.5 56.5t-222 153.5t-148.5 232.5t-55 286.5zM422 717q0 -193 63 -354t171.5 -253t236.5 -92 t236.5 92t171.5 253t63 354q0 145 -37.5 274.5t-100.5 222t-150 147t-183 54.5t-183 -54.5t-150 -147t-100.5 -222t-37.5 -274.5zM666 1667q0 41 29.5 70.5t70.5 29.5t70.5 -29.5t29.5 -70.5t-29.5 -70.5t-70.5 -29.5t-70.5 29.5t-29.5 70.5zM922 1667q0 41 29.5 70.5 t70.5 29.5t70.5 -29.5t29.5 -70.5t-29.5 -70.5t-70.5 -29.5t-70.5 29.5t-29.5 70.5z" />
<glyph unicode="&#xd7;" horiz-adv-x="733" d="M176 242l31 -31l248 248l247 -248l31 31l-248 250l248 245l-31 31l-247 -248l-248 248l-31 -31l248 -245z" />
<glyph unicode="&#xd8;" d="M197 717q0 151 55 286.5t148.5 232.5t222 153.5t270.5 56.5q199 0 360 -105l101 166h35l-109 -182q143 -99 226 -258.5t83 -349.5q0 -151 -55 -286.5t-148.5 -232.5t-222 -153.5t-270.5 -56.5q-197 0 -358 102l-99 -164h-39l111 183q-144 99 -227.5 258.5t-83.5 349.5z M422 717q0 -150 38 -281.5t107 -226.5l631 1042q-132 164 -305 164q-96 0 -183 -54.5t-150 -147t-100.5 -222t-37.5 -274.5zM590 180q130 -162 303 -162q128 0 236.5 92t171.5 253t63 354q0 303 -145 508z" />
<glyph unicode="&#xd9;" horiz-adv-x="1536" d="M147 1430v4h502v-4l-147 -66v-817q0 -233 111 -367.5t302 -134.5t301.5 134.5t110.5 367.5v745l-235 138v4h503v-4l-235 -138v-721q-1 -154 -39.5 -267.5t-110 -182t-167 -101t-216.5 -32.5t-216.5 32.5t-167 101t-110 182t-38.5 267.5v793zM582 1737l497 -162l4 8 l-434 289z" />
<glyph unicode="&#xda;" horiz-adv-x="1536" d="M147 1430v4h502v-4l-147 -66v-817q0 -233 111 -367.5t302 -134.5t301.5 134.5t110.5 367.5v745l-235 138v4h503v-4l-235 -138v-721q-1 -154 -39.5 -267.5t-110 -182t-167 -101t-216.5 -32.5t-216.5 32.5t-167 101t-110 182t-38.5 267.5v793zM616 1583l5 -8l497 162 l-67 135z" />
<glyph unicode="&#xdb;" horiz-adv-x="1536" d="M147 1430v4h502v-4l-147 -66v-817q0 -233 111 -367.5t302 -134.5t301.5 134.5t110.5 367.5v745l-235 138v4h503v-4l-235 -138v-721q-1 -154 -39.5 -267.5t-110 -182t-167 -101t-216.5 -32.5t-216.5 32.5t-167 101t-110 182t-38.5 267.5v793zM539 1565l311 305h20 l312 -305l-6 -6l-316 172l-315 -172z" />
<glyph unicode="&#xdc;" horiz-adv-x="1536" d="M147 1430v4h502v-4l-147 -66v-817q0 -233 111 -367.5t302 -134.5t301.5 134.5t110.5 367.5v745l-235 138v4h503v-4l-235 -138v-721q-1 -154 -39.5 -267.5t-110 -182t-167 -101t-216.5 -32.5t-216.5 32.5t-167 101t-110 182t-38.5 267.5v793zM645 1667q0 41 29.5 70.5 t70.5 29.5t71 -29.5t30 -70.5t-30 -70.5t-71 -29.5t-70.5 29.5t-29.5 70.5zM901 1667q0 41 29.5 70.5t70.5 29.5t71 -29.5t30 -70.5t-30 -70.5t-71 -29.5t-70.5 29.5t-29.5 70.5z" />
<glyph unicode="&#xdd;" horiz-adv-x="1370" d="M16 1427v7h537v-7l-147 -65l387 -842l354 772l-232 138v4h478v-4l-209 -138l-381 -833v-387l147 -66v-6h-501v6l147 66v389l-432 897zM518 1583l4 -8l498 162l-68 135z" />
<glyph unicode="&#xde;" horiz-adv-x="1249" d="M193 0v6l147 66v1290l-147 65v7h501v-7l-147 -65v-225h266q215 0 343 -113.5t128 -294.5q0 -187 -126.5 -297t-344.5 -110h-266v-250l147 -66v-6h-501zM547 354h201q135 0 225 106.5t90 268.5t-90 268.5t-225 106.5h-201v-750z" />
<glyph unicode="&#xdf;" horiz-adv-x="1443" d="M102 0v6l148 66v989q0 180 118.5 282.5t301.5 102.5q139 0 222 -65t83 -177q0 -56 -22.5 -105.5t-55 -86t-64.5 -70.5t-54.5 -74t-22.5 -82q0 -19 4.5 -36t16 -31t22 -25t32.5 -22t36 -17.5t45 -16.5t46.5 -14.5t53 -14.5t53.5 -15q199 -57 294 -131t95 -201 q0 -129 -112 -201.5t-285 -72.5q-225 0 -361 53l-34 217h79l303 -240q128 0 206.5 46t78.5 131q0 36 -16 66.5t-41 51.5t-66.5 40.5t-81.5 32.5t-98 28q-61 17 -99.5 29t-89 32t-81.5 42t-60.5 52t-43 70t-13.5 88q0 51 28.5 97.5t69 84t81 77t69 94t28.5 118.5 q0 87 -63.5 141t-155.5 54q-109 0 -174 -78t-65 -221v-1022l147 -66v-6h-502z" />
<glyph unicode="&#xe0;" horiz-adv-x="1161" d="M172 733l225 291h389q109 0 187 -74.5t78 -177.5v-700l147 -66v-6h-346v303q-26 -125 -128.5 -219t-231.5 -94q-139 0 -224.5 69.5t-85.5 194.5q0 97 56 164.5t143 101.5l321 125q154 61 154 189q0 70 -50.5 115.5t-131.5 45.5h-174l-105 -262h-223zM373 336 q0 -96 56.5 -141t150.5 -45q113 0 188.5 72.5t75.5 193.5v291q-44 -56 -131 -91l-174 -67q-82 -31 -124 -87.5t-42 -125.5zM397 1323l498 -162l4 8l-434 289z" />
<glyph unicode="&#xe1;" horiz-adv-x="1157" d="M172 733l225 291h389q109 0 187 -74.5t78 -177.5v-700l147 -66v-6h-346v303q-26 -125 -128.5 -219t-231.5 -94q-139 0 -224.5 69.5t-85.5 194.5q0 97 56 164.5t143 101.5l321 125q154 61 154 189q0 70 -50.5 115.5t-131.5 45.5h-174l-105 -262h-223zM373 336 q0 -96 56.5 -141t150.5 -45q113 0 188.5 72.5t75.5 193.5v291q-44 -56 -131 -91l-174 -67q-82 -31 -124 -87.5t-42 -125.5zM473 1169l4 -8l498 162l-68 135z" />
<glyph unicode="&#xe2;" horiz-adv-x="1161" d="M172 733l225 291h389q109 0 187 -74.5t78 -177.5v-700l147 -66v-6h-346v303q-26 -125 -128.5 -219t-231.5 -94q-139 0 -224.5 69.5t-85.5 194.5q0 97 56 164.5t143 101.5l321 125q154 61 154 189q0 70 -50.5 115.5t-131.5 45.5h-174l-105 -262h-223zM328 1145l311 305h20 l312 -305l-6 -6l-316 172l-315 -172zM373 336q0 -96 56.5 -141t150.5 -45q113 0 188.5 72.5t75.5 193.5v291q-44 -56 -131 -91l-174 -67q-82 -31 -124 -87.5t-42 -125.5z" />
<glyph unicode="&#xe3;" horiz-adv-x="1161" d="M172 733l225 291h389q109 0 187 -74.5t78 -177.5v-700l147 -66v-6h-346v303q-26 -125 -128.5 -219t-231.5 -94q-139 0 -224.5 69.5t-85.5 194.5q0 97 56 164.5t143 101.5l321 125q154 61 154 189q0 70 -50.5 115.5t-131.5 45.5h-174l-105 -262h-223zM330 1161 q-13 118 37.5 187t132.5 69q38 0 73.5 -17t63 -41.5t54 -49t56 -41.5t58.5 -17q64 0 102 43.5t41 110.5h6q13 -118 -37.5 -187t-132.5 -69q-38 0 -73.5 17t-63 41.5t-54 49t-56 41.5t-58.5 17q-64 0 -102 -43.5t-41 -110.5h-6zM373 336q0 -96 56.5 -141t150.5 -45 q113 0 188.5 72.5t75.5 193.5v291q-44 -56 -131 -91l-174 -67q-82 -31 -124 -87.5t-42 -125.5z" />
<glyph unicode="&#xe4;" horiz-adv-x="1161" d="M172 733l225 291h389q109 0 187 -74.5t78 -177.5v-700l147 -66v-6h-346v303q-26 -125 -128.5 -219t-231.5 -94q-139 0 -224.5 69.5t-85.5 194.5q0 97 56 164.5t143 101.5l321 125q154 61 154 189q0 70 -50.5 115.5t-131.5 45.5h-174l-105 -262h-223zM373 336 q0 -96 56.5 -141t150.5 -45q113 0 188.5 72.5t75.5 193.5v291q-44 -56 -131 -91l-174 -67q-82 -31 -124 -87.5t-42 -125.5zM444 1270q0 41 30 70.5t71 29.5t70.5 -29.5t29.5 -70.5t-29.5 -71t-70.5 -30t-71 30t-30 71zM700 1270q0 41 30 70.5t71 29.5t70.5 -29.5t29.5 -70.5 t-29.5 -71t-70.5 -30t-71 30t-30 71z" />
<glyph unicode="&#xe5;" horiz-adv-x="1161" d="M172 733l225 291h389q109 0 187 -74.5t78 -177.5v-700l147 -66v-6h-346v303q-26 -125 -128.5 -219t-231.5 -94q-139 0 -224.5 69.5t-85.5 194.5q0 97 56 164.5t143 101.5l321 125q154 61 154 189q0 70 -50.5 115.5t-131.5 45.5h-174l-105 -262h-223zM373 336 q0 -96 56.5 -141t150.5 -45q113 0 188.5 72.5t75.5 193.5v291q-44 -56 -131 -91l-174 -67q-82 -31 -124 -87.5t-42 -125.5zM530 1300q0 63 44.5 107.5t107.5 44.5t107.5 -44.5t44.5 -107.5t-44.5 -107t-107.5 -44t-107.5 44t-44.5 107zM563 1300q0 -51 34.5 -86.5 t84.5 -35.5t84.5 35.5t34.5 86.5t-35 87t-84 36t-84 -36t-35 -87z" />
<glyph unicode="&#xe6;" horiz-adv-x="1863" d="M172 735l219 289h391q72 0 124.5 -35.5t66.5 -91.5l4 -92q53 104 159 166.5t236 62.5q161 0 288 -83t181 -224h-790q-31 -70 -31 -145q0 -186 122.5 -306t297.5 -120q155 0 273.5 95.5t144.5 240.5h6q-2 -134 -70 -249.5t-185 -184t-255 -68.5q-170 0 -307 102t-183 275 q-4 -76 -32 -144t-76 -120t-119 -82.5t-154 -30.5q-138 0 -221.5 69.5t-83.5 194.5q0 89 55.5 159t143.5 105l328 127q66 27 109.5 76.5t43.5 112.5q0 68 -53 114.5t-129 46.5h-178l-109 -262zM371 336q0 -96 56.5 -141t150.5 -45q63 0 114 21t81.5 55.5t47 75.5t17.5 83 v320q-23 -40 -78 -66l-252 -98q-62 -30 -99.5 -85t-37.5 -120zM1057 758h579q-38 99 -105.5 169t-160.5 70q-94 0 -182.5 -71t-130.5 -168z" />
<glyph unicode="&#xe7;" horiz-adv-x="1193" d="M176 508q0 152 70.5 270.5t189.5 182t264 63.5h324l115 -291h-113l-201 260h-116q-67 0 -130.5 -28t-114 -78.5t-81.5 -129.5t-31 -173q0 -186 122.5 -307t297.5 -121q155 0 273.5 95.5t144.5 240.5h6q-2 -134 -70 -249.5t-185 -184t-255 -68.5h-8l-78 -107q34 11 66 11 q70 0 105.5 -35t35.5 -86q0 -72 -59.5 -115t-141.5 -43q-66 0 -125 27l6 10q38 -10 70 -10q67 0 112.5 33.5t45.5 88.5q0 37 -30.5 63t-88.5 26q-17 0 -57 -7l108 146q-199 14 -335 160t-136 356z" />
<glyph unicode="&#xe8;" horiz-adv-x="1193" d="M176 508q0 152 70 273t189.5 187t264.5 66q165 0 296.5 -85.5t177.5 -231.5h-805q-17 -70 -17 -133q0 -186 122.5 -307t297.5 -121q155 0 273.5 95.5t144.5 240.5h6q-2 -134 -70 -249.5t-185 -184t-255 -68.5q-139 0 -256 67t-185.5 186t-68.5 265zM377 748h594 q-34 119 -106 187.5t-169 68.5q-102 0 -190.5 -68.5t-128.5 -187.5zM440 1323l498 -162l4 8l-434 289z" />
<glyph unicode="&#xe9;" horiz-adv-x="1193" d="M176 508q0 152 70 273t189.5 187t264.5 66q165 0 296.5 -85.5t177.5 -231.5h-805q-17 -70 -17 -133q0 -186 122.5 -307t297.5 -121q155 0 273.5 95.5t144.5 240.5h6q-2 -134 -70 -249.5t-185 -184t-255 -68.5q-139 0 -256 67t-185.5 186t-68.5 265zM377 748h594 q-34 119 -106 187.5t-169 68.5q-102 0 -190.5 -68.5t-128.5 -187.5zM459 1169l4 -8l498 162l-68 135z" />
<glyph unicode="&#xea;" horiz-adv-x="1193" d="M176 508q0 152 70 273t189.5 187t264.5 66q165 0 296.5 -85.5t177.5 -231.5h-805q-17 -70 -17 -133q0 -186 122.5 -307t297.5 -121q155 0 273.5 95.5t144.5 240.5h6q-2 -134 -70 -249.5t-185 -184t-255 -68.5q-139 0 -256 67t-185.5 186t-68.5 265zM377 748h594 q-34 119 -106 187.5t-169 68.5q-102 0 -190.5 -68.5t-128.5 -187.5zM379 1145l311 305h21l311 -305l-6 -6l-316 172l-315 -172z" />
<glyph unicode="&#xeb;" horiz-adv-x="1193" d="M176 508q0 152 70 273t189.5 187t264.5 66q165 0 296.5 -85.5t177.5 -231.5h-805q-17 -70 -17 -133q0 -186 122.5 -307t297.5 -121q155 0 273.5 95.5t144.5 240.5h6q-2 -134 -70 -249.5t-185 -184t-255 -68.5q-139 0 -256 67t-185.5 186t-68.5 265zM377 748h594 q-34 119 -106 187.5t-169 68.5q-102 0 -190.5 -68.5t-128.5 -187.5zM473 1270q0 41 29.5 70.5t70.5 29.5t71 -29.5t30 -70.5t-30 -71t-71 -30t-70.5 30t-29.5 71zM729 1270q0 41 29.5 70.5t70.5 29.5t71 -29.5t30 -70.5t-30 -71t-71 -30t-70.5 30t-29.5 71z" />
<glyph unicode="&#xec;" horiz-adv-x="630" d="M90 1323l498 -162l4 8l-434 289zM115 0v6l147 66v880l-147 66v6h354v-952l147 -66v-6h-501z" />
<glyph unicode="&#xed;" horiz-adv-x="630" d="M119 1169l4 -8l498 162l-68 135zM129 0v6l147 66v880l-147 66v6h354v-952l148 -66v-6h-502z" />
<glyph unicode="&#xee;" horiz-adv-x="630" d="M-16 1145l311 305h20l312 -305l-6 -6l-316 172l-315 -172zM61 0v6l148 66v880l-148 66v6h355v-952l147 -66v-6h-502z" />
<glyph unicode="&#xef;" horiz-adv-x="630" d="M139 0v6l148 66v880l-148 66v6h355v-952l147 -66v-6h-502zM160 1270q0 41 29.5 70.5t70.5 29.5t70.5 -29.5t29.5 -70.5t-29.5 -71t-70.5 -30t-70.5 30t-29.5 71zM416 1270q0 41 29.5 70.5t70.5 29.5t70.5 -29.5t29.5 -70.5t-29.5 -71t-70.5 -30t-70.5 30t-29.5 71z" />
<glyph unicode="&#xf0;" horiz-adv-x="1218" d="M164 512q0 -148 71 -268.5t192 -187t265 -66.5q109 0 205.5 40t168 111t112.5 175t41 227q0 463 -330 714l168 70l-10 27l-189 -78q-207 123 -526 149v-8q272 -46 426 -188l-191 -78l13 -27l196 82q149 -137 189 -338q-36 75 -109.5 120.5t-163.5 45.5q-144 0 -265 -66.5 t-192 -187t-71 -268.5zM371 512q0 141 43 256t116.5 179.5t161.5 64.5q135 0 228.5 -143.5t93.5 -356.5t-93.5 -355.5t-228.5 -142.5t-228 142.5t-93 355.5z" />
<glyph unicode="&#xf1;" horiz-adv-x="1296" d="M139 0v6l148 66v880l-148 66v6h355v-274q31 120 124 202t224 82q163 0 246 -101t83 -286v-575l148 -66v-6h-502v6l148 66v559q0 68 -9.5 117.5t-32.5 90t-64.5 61t-102.5 20.5q-64 0 -115.5 -32t-82.5 -82.5t-47.5 -107t-16.5 -110.5v-516l147 -66v-6h-502zM428 1161 q-13 118 37.5 187t132.5 69q38 0 73.5 -17t63 -41.5t54 -49t56 -41.5t58.5 -17q64 0 102.5 43.5t41.5 110.5h6q13 -118 -37.5 -187t-132.5 -69q-38 0 -73.5 17t-63 41.5t-54 49t-56 41.5t-58.5 17q-64 0 -102.5 -43.5t-41.5 -110.5h-6z" />
<glyph unicode="&#xf2;" horiz-adv-x="1232" d="M176 512q0 148 71 268.5t192 187t266 66.5t266 -66.5t191.5 -187t70.5 -268.5t-70.5 -268.5t-191.5 -187t-266 -66.5t-266 66.5t-192 187t-71 268.5zM383 512q0 -213 93.5 -353.5t228.5 -140.5t228 140.5t93 353.5t-93 352.5t-228 139.5t-228.5 -139.5t-93.5 -352.5z M426 1323l498 -162l4 8l-434 289z" />
<glyph unicode="&#xf3;" horiz-adv-x="1232" d="M176 512q0 148 71 268.5t192 187t266 66.5t266 -66.5t191.5 -187t70.5 -268.5t-70.5 -268.5t-191.5 -187t-266 -66.5t-266 66.5t-192 187t-71 268.5zM383 512q0 -213 93.5 -353.5t228.5 -140.5t228 140.5t93 353.5t-93 352.5t-228 139.5t-228.5 -139.5t-93.5 -352.5z M469 1169l4 -8l498 162l-68 135z" />
<glyph unicode="&#xf4;" horiz-adv-x="1232" d="M176 512q0 148 71 268.5t192 187t266 66.5t266 -66.5t191.5 -187t70.5 -268.5t-70.5 -268.5t-191.5 -187t-266 -66.5t-266 66.5t-192 187t-71 268.5zM379 1145l311 305h21l311 -305l-6 -6l-316 172l-315 -172zM383 512q0 -213 93.5 -353.5t228.5 -140.5t228 140.5 t93 353.5t-93 352.5t-228 139.5t-228.5 -139.5t-93.5 -352.5z" />
<glyph unicode="&#xf5;" horiz-adv-x="1232" d="M176 512q0 148 71 268.5t192 187t266 66.5t266 -66.5t191.5 -187t70.5 -268.5t-70.5 -268.5t-191.5 -187t-266 -66.5t-266 66.5t-192 187t-71 268.5zM383 512q0 -213 93.5 -353.5t228.5 -140.5t228 140.5t93 353.5t-93 352.5t-228 139.5t-228.5 -139.5t-93.5 -352.5z M391 1161q-13 118 37.5 187t132.5 69q38 0 73.5 -17t63 -41.5t54 -49t56 -41.5t58.5 -17q64 0 102.5 43.5t41.5 110.5h6q13 -118 -37.5 -187t-132.5 -69q-38 0 -73.5 17t-63 41.5t-54 49t-56 41.5t-58.5 17q-64 0 -102.5 -43.5t-41.5 -110.5h-6z" />
<glyph unicode="&#xf6;" horiz-adv-x="1232" d="M176 512q0 148 71 268.5t192 187t266 66.5t266 -66.5t191.5 -187t70.5 -268.5t-70.5 -268.5t-191.5 -187t-266 -66.5t-266 66.5t-192 187t-71 268.5zM383 512q0 -213 93.5 -353.5t228.5 -140.5t228 140.5t93 353.5t-93 352.5t-228 139.5t-228.5 -139.5t-93.5 -352.5z M477 1270q0 41 30 70.5t71 29.5t70.5 -29.5t29.5 -70.5t-29.5 -71t-70.5 -30t-71 30t-30 71zM733 1270q0 41 30 70.5t71 29.5t70.5 -29.5t29.5 -70.5t-29.5 -71t-70.5 -30t-71 30t-30 71z" />
<glyph unicode="&#xf7;" horiz-adv-x="919" d="M176 467v45h744v-45h-744zM496 160q0 22 15.5 36.5t37.5 14.5q21 0 36 -15t15 -36t-15 -36t-36 -15q-22 0 -37.5 14.5t-15.5 36.5zM496 819q0 22 15.5 36.5t37.5 14.5q21 0 36 -15t15 -36t-15 -36t-36 -15q-22 0 -37.5 14.5t-15.5 36.5z" />
<glyph unicode="&#xf8;" horiz-adv-x="1232" d="M176 512q0 148 71 268.5t192 187t266 66.5q134 0 253 -61l54 92h39l-64 -109q113 -68 179.5 -184.5t66.5 -259.5q0 -148 -70.5 -268.5t-191.5 -187t-266 -66.5q-138 0 -254 61l-56 -92h-37l64 109q-113 68 -179.5 184.5t-66.5 259.5zM383 512q0 -214 94 -354l434 737 q-88 109 -206 109q-135 0 -228.5 -139.5t-93.5 -352.5zM498 131q86 -113 207 -113q135 0 228 140.5t93 353.5q0 215 -94 352z" />
<glyph unicode="&#xf9;" horiz-adv-x="1292" d="M98 1018v6h355v-631q0 -68 9.5 -117.5t32.5 -90t64.5 -61t102.5 -20.5q64 0 115.5 32t82.5 82.5t47.5 107t16.5 110.5v516l-148 66v6h354v-952l148 -66v-6h-354v274q-31 -120 -124.5 -202t-224.5 -82q-163 0 -246 101t-83 286v575zM371 1323l497 -162l4 8l-434 289z" />
<glyph unicode="&#xfa;" horiz-adv-x="1292" d="M98 1018v6h355v-631q0 -68 9.5 -117.5t32.5 -90t64.5 -61t102.5 -20.5q64 0 115.5 32t82.5 82.5t47.5 107t16.5 110.5v516l-148 66v6h354v-952l148 -66v-6h-354v274q-31 -120 -124.5 -202t-224.5 -82q-163 0 -246 101t-83 286v575zM414 1169l4 -8l497 162l-67 135z" />
<glyph unicode="&#xfb;" horiz-adv-x="1292" d="M98 1018v6h355v-631q0 -68 9.5 -117.5t32.5 -90t64.5 -61t102.5 -20.5q64 0 115.5 32t82.5 82.5t47.5 107t16.5 110.5v516l-148 66v6h354v-952l148 -66v-6h-354v274q-31 -120 -124.5 -202t-224.5 -82q-163 0 -246 101t-83 286v575zM356 1145l312 305h20l311 -305l-6 -6 l-315 172l-316 -172z" />
<glyph unicode="&#xfc;" horiz-adv-x="1292" d="M98 1018v6h355v-631q0 -68 9.5 -117.5t32.5 -90t64.5 -61t102.5 -20.5q64 0 115.5 32t82.5 82.5t47.5 107t16.5 110.5v516l-148 66v6h354v-952l148 -66v-6h-354v274q-31 -120 -124.5 -202t-224.5 -82q-163 0 -246 101t-83 286v575zM446 1270q0 41 30 70.5t71 29.5 t70.5 -29.5t29.5 -70.5t-29.5 -71t-70.5 -30t-71 30t-30 71zM702 1270q0 41 30 70.5t71 29.5t70.5 -29.5t29.5 -70.5t-29.5 -71t-70.5 -30t-71 30t-30 71z" />
<glyph unicode="&#xfd;" horiz-adv-x="1212" d="M-37 1018v6h506v-6l-143 -64l346 -694l295 631l-213 129v4h458v-4l-202 -129l-435 -918q-37 -77 -62 -125.5t-58 -102.5t-63.5 -85.5t-70 -59t-85.5 -39.5t-101 -12v220q297 0 430 266l-456 919zM377 1169l4 -8l498 162l-68 135z" />
<glyph unicode="&#xfe;" horiz-adv-x="1284" d="M127 -489l147 65v1741h-147v6l340 152h14v-672q36 97 130 164t220 67q175 0 296.5 -150t121.5 -372t-121.5 -372t-296.5 -150q-126 0 -220 67t-130 164v-645l148 -65v-7h-502v7zM481 365q0 -110 78.5 -200.5t196.5 -90.5q124 0 199 112t75 326t-75 326t-199 112 q-118 0 -196.5 -90.5t-78.5 -200.5v-294z" />
<glyph unicode="&#xff;" horiz-adv-x="1200" d="M-37 1018v6h506v-6l-143 -64l346 -694l295 631l-213 129v4h458v-4l-202 -129l-435 -918q-37 -77 -62 -125.5t-58 -102.5t-63.5 -85.5t-70 -59t-85.5 -39.5t-101 -12v220q297 0 430 266l-456 919zM379 1270q0 41 29.5 70.5t70.5 29.5t71 -29.5t30 -70.5t-30 -71t-71 -30 t-70.5 30t-29.5 71zM635 1270q0 41 29.5 70.5t70.5 29.5t71 -29.5t30 -70.5t-30 -71t-71 -30t-70.5 30t-29.5 71z" />
<glyph unicode="&#x152;" horiz-adv-x="1947" d="M197 717q0 201 93.5 366t253 258t349.5 93h969l71 -340l-133 -4l-194 311h-420v-666h205l174 264h10v-557h-10l-174 267h-205v-676h389l276 350l134 -4l-154 -379h-938q-190 0 -349.5 93t-253 258t-93.5 366zM422 717q0 -193 63.5 -350.5t171 -245.5t236.5 -88h86v1368 h-86q-129 0 -236.5 -88t-171 -245.5t-63.5 -350.5z" />
<glyph unicode="&#x153;" horiz-adv-x="2084" d="M176 512q0 148 71 268.5t192 187t266 66.5q140 0 257.5 -62t186.5 -171q71 109 187 171t255 62q165 0 296 -85.5t177 -231.5h-804q-17 -70 -17 -133q0 -186 122.5 -307t297.5 -121q155 0 273.5 95.5t144.5 240.5h6q-2 -134 -70 -249.5t-185 -184t-255 -68.5 q-132 0 -245 62t-183 169q-69 -108 -187 -169.5t-257 -61.5q-145 0 -266 66.5t-192 187t-71 268.5zM383 512q0 -213 93.5 -353.5t228.5 -140.5t228 140.5t93 353.5t-93 352.5t-228 139.5t-228.5 -139.5t-93.5 -352.5zM1268 748h594q-34 119 -106 187.5t-169 68.5 q-102 0 -190.5 -68.5t-128.5 -187.5z" />
<glyph unicode="&#x178;" horiz-adv-x="1370" d="M16 1427v7h537v-7l-147 -65l387 -842l354 772l-232 138v4h478v-4l-209 -138l-381 -833v-387l147 -66v-6h-501v6l147 66v389l-432 897zM487 1667q0 41 30 70.5t71 29.5t70.5 -29.5t29.5 -70.5t-29.5 -70.5t-70.5 -29.5t-71 29.5t-30 70.5zM743 1667q0 41 30 70.5t71 29.5 t70.5 -29.5t29.5 -70.5t-29.5 -70.5t-70.5 -29.5t-71 29.5t-30 70.5z" />
<glyph unicode="&#x2c6;" horiz-adv-x="854" d="M205 1128l311 306h21l311 -306l-6 -6l-316 172l-315 -172z" />
<glyph unicode="&#x2dc;" horiz-adv-x="839" d="M193 1208q-13 118 37 187t132 69q38 0 73.5 -17t63.5 -41.5t54.5 -49t56 -41.5t58.5 -17q64 0 102 43.5t41 110.5h6q13 -118 -37.5 -187t-132.5 -69q-38 0 -73.5 17t-63 41.5t-54 49t-56 41.5t-58.5 17q-64 0 -102 -43.5t-41 -110.5h-6z" />
<glyph unicode="&#x2000;" horiz-adv-x="936" />
<glyph unicode="&#x2001;" horiz-adv-x="1872" />
<glyph unicode="&#x2002;" horiz-adv-x="936" />
<glyph unicode="&#x2003;" horiz-adv-x="1872" />
<glyph unicode="&#x2004;" horiz-adv-x="624" />
<glyph unicode="&#x2005;" horiz-adv-x="468" />
<glyph unicode="&#x2006;" horiz-adv-x="312" />
<glyph unicode="&#x2007;" horiz-adv-x="312" />
<glyph unicode="&#x2008;" horiz-adv-x="234" />
<glyph unicode="&#x2009;" horiz-adv-x="374" />
<glyph unicode="&#x200a;" horiz-adv-x="104" />
<glyph unicode="&#x2010;" horiz-adv-x="751" d="M102 471h650v33h-650v-33z" />
<glyph unicode="&#x2011;" horiz-adv-x="751" d="M102 471h650v33h-650v-33z" />
<glyph unicode="&#x2012;" horiz-adv-x="751" d="M102 471h650v33h-650v-33z" />
<glyph unicode="&#x2013;" horiz-adv-x="993" d="M102 471h891v33h-891v-33z" />
<glyph unicode="&#x2014;" horiz-adv-x="1402" d="M102 471h1301v33h-1301v-33z" />
<glyph unicode="&#x2018;" horiz-adv-x="323" d="M127 1096l147 551l-8 -551h-139z" />
<glyph unicode="&#x2019;" horiz-adv-x="323" d="M225 1063l8 551h140z" />
<glyph unicode="&#x201a;" horiz-adv-x="323" d="M225 -342l8 551h140z" />
<glyph unicode="&#x201c;" horiz-adv-x="569" d="M127 1096l147 551l-8 -551h-139zM373 1096l147 551l-8 -551h-139z" />
<glyph unicode="&#x201d;" horiz-adv-x="569" d="M225 1063l8 551h140zM471 1063l8 551h139z" />
<glyph unicode="&#x201e;" horiz-adv-x="569" d="M225 -342l8 551h140zM471 -342l8 551h139z" />
<glyph unicode="&#x2022;" horiz-adv-x="620" d="M143 559q0 97 71 167.5t169 70.5q97 0 167.5 -70.5t70.5 -167.5q0 -99 -70.5 -169.5t-167.5 -70.5q-99 0 -169.5 70.5t-70.5 169.5z" />
<glyph unicode="&#x2026;" horiz-adv-x="1093" d="M147 109q0 50 35 85t84 35t84 -35t35 -85t-35 -85.5t-84 -35.5t-84 35.5t-35 85.5zM502 109q0 50 35 85t84 35t83.5 -35t34.5 -85t-34.5 -85.5t-83.5 -35.5t-84 35.5t-35 85.5zM856 109q0 50 35 85t84 35t84 -35t35 -85t-35 -85.5t-84 -35.5t-84 35.5t-35 85.5z" />
<glyph unicode="&#x202f;" horiz-adv-x="374" />
<glyph unicode="&#x2039;" horiz-adv-x="753" d="M82 662l623 561h8l-471 -561l471 -562h-8z" />
<glyph unicode="&#x203a;" horiz-adv-x="753" d="M164 100l471 562l-471 561h8l623 -561l-623 -562h-8z" />
<glyph unicode="&#x205f;" horiz-adv-x="468" />
<glyph unicode="&#x20ac;" horiz-adv-x="1710" d="M238 584v30h159q-6 50 -6 99q0 61 8 108h-161v31h165q46 252 235.5 417t438.5 165h418l154 -379l-133 -4l-275 350h-117q-136 0 -257 -73.5t-199.5 -200t-92.5 -275.5h521v-31h-523v-26q0 -92 25 -181h498v-30h-488q61 -182 211 -294t342 -112q210 0 368.5 135.5 t201.5 343.5h8q-10 -138 -63.5 -261t-139 -213t-205 -142.5t-254.5 -52.5q-253 0 -443 169.5t-233 426.5h-163z" />
<glyph unicode="&#x2122;" horiz-adv-x="1021" d="M102 1323l21 111h321l21 -111l-2 -2l-68 104h-82v-368l41 -19v-2h-141v2l41 19v368h-82l-68 -104zM483 1036v2l68 45v312l-47 37v2h100l160 -316l151 316h93v-2l-47 -37v-338l40 -19v-2h-143v2l41 19v327l-162 -346h-2l-176 342v-297l68 -45v-2h-144z" />
<glyph unicode="&#x25fc;" horiz-adv-x="1024" d="M0 0v1024h1024v-1024h-1024z" />
<glyph unicode="&#xfb01;" horiz-adv-x="1271" d="M135 958v33h150q-58 92 -58 195q0 105 72.5 176.5t179.5 71.5h697l-97 -283h-151v250h-449q-91 0 -155 -60.5t-64 -154.5q0 -92 62.5 -143.5t156.5 -51.5h654v-919l147 -66v-6h-502v6l148 66v886h-434v-886l147 -66v-6h-502v6l148 66v886h-150z" />
</font>
</defs>
</svg>
