<?xml version="1.0" standalone="no"?>
<!DOCTYPE svg PUBLIC "-//W3C//DTD SVG 1.1//EN" "http://www.w3.org/Graphics/SVG/1.1/DTD/svg11.dtd" >
<svg xmlns="http://www.w3.org/2000/svg" xmlns:xlink="http://www.w3.org/1999/xlink" version="1.1">
<metadata></metadata>
<defs>
<font id="cakothin_italic" horiz-adv-x="1638" >
<font-face units-per-em="2048" ascent="1638" descent="-410" />
<missing-glyph horiz-adv-x="675" />
<glyph horiz-adv-x="0" />
<glyph horiz-adv-x="682" />
<glyph unicode=" "  horiz-adv-x="675" />
<glyph unicode="&#x09;" horiz-adv-x="675" />
<glyph unicode="&#xa0;" horiz-adv-x="675" />
<glyph unicode="!" horiz-adv-x="385" d="M31 37q3 15 16.5 25t28.5 10t23 -12t3 -27q-4 -15 -17.5 -25t-27.5 -10q-17 0 -24.5 12t-1.5 27zM104 186h9l366 1248h-24l-242 -865z" />
<glyph unicode="&#x22;" horiz-adv-x="385" d="M590 1116h8l150 498h-25zM725 1116h8l150 498h-25z" />
<glyph unicode="#" horiz-adv-x="1189" d="M66 410h270l-234 -410h21l233 410h369l-236 -410h21l235 410h254l7 22h-248l246 430h258l6 23h-252l225 395h-18l-228 -395h-368l225 395h-18l-228 -395h-274l-6 -23h268l-246 -430h-276zM369 432l245 430h369l-246 -430h-368z" />
<glyph unicode="$" horiz-adv-x="1404" d="M156 152l59 389h8l-47 -396q151 -130 432 -137l213 746q-57 13 -100 25.5t-88 27.5t-77 31.5t-61.5 37t-46.5 44t-27.5 52.5t-9.5 63.5t13 74.5q29 105 121.5 181.5t214 112.5t258.5 38l47 162h22l-47 -162q112 0 210 -20.5t155 -55.5l-6 -391h-8l-5 391 q-60 31 -157.5 47.5t-190.5 16.5l-188 -658q6 -1 18.5 -4t18.5 -4q56 -13 102 -26.5t92 -30.5t81 -36.5t66 -43t50.5 -52t31 -62t10 -73.5t-14.5 -86q-27 -95 -95 -166.5t-161.5 -112.5t-199 -61t-222.5 -20l-43 -150h-23l43 150q-143 3 -263.5 42.5t-184.5 115.5z M434.5 1039.5q-0.5 -32.5 10 -59.5t27.5 -50t45 -42t59 -34.5t73.5 -29.5t83.5 -25t94 -23l189 654q-132 -3 -249 -39t-205.5 -109t-115.5 -172q-11 -38 -11.5 -70.5zM631 8q109 0 208 18t190 56.5t156.5 107t92.5 160.5q13 45 14.5 84t-9.5 71t-29 59t-47.5 49t-62.5 40 t-77 34t-86.5 28t-95.5 24q-7 2 -21.5 5.5t-21.5 5.5z" />
<glyph unicode="%" horiz-adv-x="1175" d="M-61 0l1333 1434h20l-1333 -1434h-20zM240 1239q23 84 100 143.5t162 59.5t127.5 -61t17.5 -146q-23 -84 -99.5 -143.5t-160.5 -59.5q-86 0 -129 61t-18 146zM252 1235q-23 -79 16.5 -137t116.5 -58q79 0 153 59.5t97 139.5q23 79 -16.5 137t-116.5 58q-79 0 -153 -59.5 t-97 -139.5zM584 199q25 85 101 143.5t161 58.5t127.5 -60.5t17.5 -145.5q-23 -85 -99 -144t-161 -59t-128.5 61t-18.5 146zM596 195q-22 -80 17.5 -137.5t117.5 -57.5t151.5 59.5t96.5 139.5t-16 137t-117 57q-77 0 -151 -59t-99 -139z" />
<glyph unicode="&#x26;" horiz-adv-x="1880" d="M108 324.5q-2 72.5 19 152.5q57 199 239 340t382 141q115 0 200 -51q-39 98 -4 209q38 136 162.5 231t261.5 95q72 0 129.5 -34t85.5 -91l-16 -12q-31 57 -83.5 92t-117.5 35q-137 0 -251 -94.5t-152 -225.5q-20 -69 -9.5 -135.5t50.5 -110.5l299 -331l448 387l6 -9 l-448 -387l469 -526h-31l-455 512l-434 -375q-188 -145 -385 -145q-78 0 -145 25t-113.5 69t-75.5 105t-31 133.5zM131.5 291.5q13.5 -85.5 55.5 -150t117 -102t169 -37.5q92 0 195 39.5t188 105.5l428 371l-295 332q-108 98 -241 98q-192 0 -367.5 -140.5t-233.5 -334.5 q-29 -96 -15.5 -181.5z" />
<glyph unicode="'" horiz-adv-x="249" d="M590 1116h8l150 498h-25z" />
<glyph unicode="(" horiz-adv-x="450" d="M266 260.5q-18 229.5 49 454.5q68 236 213 458.5t338 370.5h17q-200 -152 -338.5 -373.5t-206.5 -459.5q-44 -153 -56 -296.5t17.5 -286t106.5 -245.5h-15q-107 148 -125 377.5z" />
<glyph unicode=")" horiz-adv-x="450" d="M-401 -117q200 152 337.5 373.5t204.5 458.5q44 154 57 297.5t-16 286t-106 245.5h12q73 -99 105.5 -237.5t24 -289.5t-53.5 -306q-68 -236 -213 -458t-338 -370h-14z" />
<glyph unicode="*" horiz-adv-x="497" d="M483 1106l191 88l-139 88l16 21l133 -101l45 189h25l-62 -189l189 101l8 -21l-195 -88l144 -88l-19 -21l-133 101l-45 -189h-25l62 189l-189 -101z" />
<glyph unicode="+" horiz-adv-x="833" d="M160 471h313l-90 -313h23l90 313h313l6 23h-313l90 313h-23l-90 -313h-313z" />
<glyph unicode="," horiz-adv-x="256" d="M-512 -328l244 326h-2q-12 0 -19.5 8t-7.5 19q0 19 13.5 33t33.5 14q12 0 20.5 -8.5t8.5 -20.5q0 -14 -10 -27l-271 -348z" />
<glyph unicode="-" horiz-adv-x="731" d="M57 471h650l6 23h-650z" />
<glyph unicode="." horiz-adv-x="245" d="M-109 37q3 15 17 25t29 10t23 -12t3 -27q-4 -15 -17.5 -25t-27.5 -10q-17 0 -25 12t-2 27z" />
<glyph unicode="/" horiz-adv-x="927" d="M-172 0h20l1196 1434h-20z" />
<glyph unicode="0" horiz-adv-x="1245" d="M195 337.5q-15 161.5 45 381.5q93 324 289 523.5t417 199.5q145 0 233.5 -92t103 -253.5t-45.5 -381.5q-92 -324 -288 -523.5t-417 -199.5q-145 0 -233.5 92t-103.5 253.5zM214.5 316.5q23.5 -158.5 106.5 -236.5t211 -78q95 0 193 45.5t190 132t172 226t130 313.5 t50 313t-42.5 225t-114 130.5t-166.5 44.5t-192.5 -45.5t-189.5 -132t-172 -225.5t-130 -314q-69 -240 -45.5 -398.5z" />
<glyph unicode="1" horiz-adv-x="690" d="M82 0l2 8l203 12l397 1385l-475 -408l-6 7l489 430h23l-406 -1414l195 -12l-2 -8h-420z" />
<glyph unicode="2" horiz-adv-x="1114" d="M-115 0l2 6q66 58 151.5 123.5t130.5 97.5t162 111t132 90q97 64 164 112t143.5 112.5t127 122.5t94 131.5t65.5 150.5q25 82 19.5 144.5t-29.5 106t-67.5 71.5t-94.5 40.5t-109 12.5q-86 0 -168 -22t-160 -68t-139 -128t-90 -192l-8 4l4 16q30 105 90 184t138 125 t164 68.5t179 22.5q185 0 264 -103.5t27 -279.5q-19 -66 -50 -126.5t-78.5 -117.5t-93 -103t-118 -102.5t-126 -95.5t-142.5 -100q-369 -246 -545 -396h801l68 201h8l-64 -219h-852z" />
<glyph unicode="3" horiz-adv-x="1069" d="M-33 270l8 -4q20 -119 116.5 -191.5t232.5 -72.5q191 0 348.5 109.5t210.5 291.5q48 167 -47.5 266t-278.5 99q-103 0 -211 -31l6 13q92 24 155 43.5t139 47.5t128.5 58.5t102.5 70t83 90.5t50 111q35 123 -32 192t-210 69q-132 0 -252.5 -82.5t-177.5 -225.5l-8 4 q57 147 181 230.5t263 83.5q160 0 226.5 -76.5t31.5 -198.5q-23 -81 -75 -145t-131 -110.5t-167 -79t-204 -60.5q61 12 118 12q188 0 284 -107t46 -278q-36 -125 -125.5 -218.5t-207 -141t-246.5 -47.5q-143 0 -239 76.5t-118 201.5z" />
<glyph unicode="4" horiz-adv-x="1136" d="M20 449q168 164 503 492.5t503 492.5h23l-277 -967h293l68 201h8l-64 -219h-311l-123 -429l195 -12l-2 -8h-420l2 8l203 12l122 429h-723zM61 467h689l268 942q-485 -478 -957 -942z" />
<glyph unicode="5" horiz-adv-x="1214" d="M127 289l6 -4q23 -127 125.5 -205t247.5 -78q132 0 264 66.5t231 179.5t136 244q35 138 3.5 246t-126.5 174.5t-226 66.5q-167 0 -312 -93t-240 -268l-9 13l383 803h660l-6 -23h-643l-334 -686q87 127 219 195.5t282 68.5q136 0 236.5 -67.5t135 -179.5t-2.5 -255 q-38 -136 -140.5 -250.5t-238 -179.5t-272.5 -65q-152 0 -254.5 82.5t-124.5 214.5z" />
<glyph unicode="6" horiz-adv-x="1259" d="M156 247q-32 116 6 267q18 63 37.5 118t60.5 138t90.5 153t129 150t174 142.5t228.5 117.5t289 86l107 19v-4l-100 -19q-337 -71 -576 -259.5t-366 -485.5q94 164 253.5 263t331.5 99q105 0 188.5 -40t131.5 -110t63 -165.5t-18 -206.5q-42 -146 -145 -265t-239 -186 t-276 -67t-239 69.5t-131 185.5zM184 510q-62 -216 38 -362t304 -146t389 147.5t248 364.5q62 216 -38 362t-304 146t-389 -147.5t-248 -364.5z" />
<glyph unicode="7" horiz-adv-x="1050" d="M41 2l1229 1411l-854 -2l-107 -338h-8l100 361l914 -2l-262 -302q-165 -189 -493.5 -566t-493.5 -566z" />
<glyph unicode="8" horiz-adv-x="1220" d="M90 375q39 141 187.5 246t332.5 127q-152 22 -232.5 119t-41.5 227q41 147 201.5 247.5t351.5 100.5q125 0 216.5 -46.5t128.5 -127.5t9 -178q-37 -130 -172.5 -225t-300.5 -117q170 -22 258 -129t47 -248q-31 -108 -123 -195.5t-218.5 -135.5t-258.5 -48t-231 49 t-142 137.5t-12 196.5zM109 371q-44 -155 62 -262t304 -107t368 109t214 264q43 152 -62.5 259t-304.5 107q-133 0 -257 -50.5t-210 -135t-114 -184.5zM356 1090q-40 -141 55 -239.5t279 -98.5t337.5 100.5t195.5 241.5q40 141 -57.5 239.5t-278.5 98.5t-336 -100.5 t-195 -241.5z" />
<glyph unicode="9" horiz-adv-x="1259" d="M274 0q89 15 101 18q691 159 942 746q-94 -164 -254 -263.5t-332 -99.5q-140 0 -239 69.5t-130.5 186t7.5 267.5q41 146 143.5 265t239 186t276.5 67t239 -69.5t131 -185.5t-7 -267q-18 -64 -37.5 -119t-61 -140.5t-90.5 -156t-129 -152t-174.5 -143t-228.5 -115 t-289 -80.5l-107 -18v4zM369 718q13 -93 59 -161t125 -106.5t178 -38.5q205 0 390.5 147.5t248.5 364.5q32 109 19 202t-59 161t-125 106.5t-179 38.5q-204 0 -389 -147.5t-248 -364.5q-33 -109 -20 -202z" />
<glyph unicode=":" horiz-adv-x="299" d="M-55 37q3 15 16.5 25t28.5 10t23 -12t3 -27q-4 -15 -17.5 -25t-27.5 -10q-17 0 -24.5 12t-1.5 27zM129 680q3 15 16.5 25t28.5 10t23.5 -12t3.5 -27q-4 -15 -17.5 -25t-27.5 -10q-17 0 -24.5 11.5t-2.5 27.5z" />
<glyph unicode=";" horiz-adv-x="299" d="M-479 -328l243 326h-2q-12 0 -19 8t-7 19q0 19 13.5 33t33.5 14q12 0 20.5 -8.5t8.5 -20.5t-11 -27l-270 -348zM-78 680q3 15 16.5 25t28.5 10t23.5 -12t3.5 -27q-4 -15 -17.5 -25t-27.5 -10q-17 0 -24.5 11.5t-2.5 27.5z" />
<glyph unicode="&#x3c;" horiz-adv-x="741" d="M37 416l725 415l-4 -14l-697 -401l465 -402l-4 -14z" />
<glyph unicode="=" horiz-adv-x="970" d="M70 309l6 23h786l-6 -23h-786zM162 633l6 22h786l-6 -22h-786z" />
<glyph unicode="&#x3e;" horiz-adv-x="741" d="M-115 0l4 14l699 402l-467 401l4 14l487 -415z" />
<glyph unicode="?" horiz-adv-x="778" d="M362 37q3 15 17 25t29 10t23 -12t3 -27q-4 -15 -17.5 -25t-27.5 -10q-17 0 -25 12t-2 27zM436 186l84 295q18 64 61 122.5t95 100.5t113.5 91t115 94.5t99.5 111t67 140.5q34 121 -32.5 201.5t-204.5 80.5q-33 0 -71.5 -10t-89.5 -34t-104.5 -77t-97.5 -128l-8 4 q55 101 141 174q61 47 123.5 68.5t110.5 21.5q79 0 138 -25t88 -67.5t38.5 -97.5t-10.5 -115q-24 -86 -84 -161.5t-130.5 -131.5t-140.5 -109.5t-128 -119.5t-79 -138l-86 -293z" />
<glyph unicode="@" horiz-adv-x="1814" d="M95.5 347q-3.5 124 33.5 263q48 168 157.5 321.5t252 264.5t314.5 176.5t341 65.5q112 0 208.5 -30t166.5 -83t119 -127t72 -161t20.5 -187t-31.5 -203q-22 -77 -68.5 -157.5t-107 -149t-137 -112.5t-150.5 -44q-45 0 -78.5 14t-50.5 36.5t-27.5 50.5t-9.5 57t4 55 q-61 -84 -168 -147.5t-225 -63.5q-131 0 -187.5 101.5t-13.5 253.5q35 125 125 238.5t207.5 183t227.5 69.5q108 0 165.5 -70t38.5 -165q15 38 43 103.5t39 92.5l21 -2l-242 -563q-14 -40 -14.5 -80.5t12.5 -75t48 -56t87 -21.5q71 0 144.5 45.5t131.5 115.5t101 147.5 t64 147.5q29 101 31.5 199t-19.5 183.5t-69.5 157.5t-115 124t-160.5 81t-202 29q-221 0 -439.5 -110.5t-379.5 -299t-225 -409.5q-36 -136 -33 -257.5t50 -224t123.5 -176.5t187.5 -115.5t243 -41.5q173 0 347 66.5t325 189.5h8q-153 -126 -328.5 -197t-351.5 -71 q-135 0 -250.5 42.5t-194.5 118t-128 179.5t-52.5 228zM547 541q-41 -147 13 -241.5t177 -94.5q109 0 221.5 63.5t176.5 157.5l147 342q18 104 -34.5 175t-162.5 71q-105 0 -218.5 -68.5t-199 -176t-118.5 -220.5z" />
<glyph unicode="A" horiz-adv-x="1523" d="M-319 0l2 8l202 12l959 1393l-195 12l2 9h213l172 -1414l195 -12l-2 -8h-414l2 8l203 12l-57 482h-723l-332 -482l194 -12l-2 -8h-419zM254 522h707l-109 873z" />
<glyph unicode="B" horiz-adv-x="1259" d="M-94 0l2 8l203 12l399 1393l-195 12l2 9h408q245 0 342 -43q135 -60 135 -194q0 -46 -16 -101q-28 -98 -103.5 -170.5t-170 -108.5t-199.5 -41q92 -2 167 -30t125 -81t66 -130q6 -28 6 -59q0 -54 -18 -116q-69 -240 -328 -327q-47 -16 -110 -23.5t-115 -8.5t-162 -1h-438 zM131 10h225q148 0 231 7t146 30q111 41 188.5 121.5t110.5 196.5q18 62 18 116q0 105 -68 177q-104 110 -337 110h-297zM352 784h295q116 0 218 32.5t182.5 105.5t109.5 178q17 56 17 103q0 121 -113 175q-95 45 -348 45h-176z" />
<glyph unicode="C" horiz-adv-x="1624" d="M180 490q0 8 -1 15q0 101 30 214q56 194 199 359t335.5 260.5t386.5 95.5h316l201 -371l-11 -6l-204 354h-308q-187 0 -374 -93.5t-326.5 -254t-194.5 -348.5q-29 -109 -29 -207v-16q2 -104 43.5 -192t107.5 -151.5t162 -99t210 -35.5q172 0 346 78.5t311.5 215.5 t210.5 304l13 -4q-74 -173 -213.5 -314t-316.5 -221.5t-355 -80.5q-118 0 -217.5 37t-167.5 103.5t-110 158t-44 199.5z" />
<glyph unicode="D" horiz-adv-x="1540" d="M-94 0l2 8l203 12l399 1393l-195 12l2 9h613q102 0 190.5 -26t154.5 -73t113 -113q48 -67 70 -146q21 -73 21 -156q0 -8 -1 -16q-2 -92 -30 -189q-56 -195 -196 -358.5t-334 -260t-398 -96.5h-614zM131 10h377q193 0 384.5 94t335.5 257.5t199 357.5q29 99 29 193 q0 90 -24 165q-24 77 -72 142t-113.5 109.5t-150.5 69.5t-181 25h-378z" />
<glyph unicode="E" horiz-adv-x="1333" d="M-94 0l2 8l203 12l399 1393l-195 12l2 9h959l57 -295l-10 -6l-61 280h-730l-196 -686h403l95 287h6l-168 -588h-6l69 287h-403l-199 -693h668l407 355l6 -6l-411 -369h-897z" />
<glyph unicode="F" horiz-adv-x="1218" d="M-94 0l2 8l203 12l399 1393l-195 12l2 9h957l57 -295l-10 -6l-61 280h-730l-196 -686h403l94 287h7l-170 -592h-6l69 285h-403l-197 -687l195 -12l-2 -8h-418z" />
<glyph unicode="G" horiz-adv-x="1660" d="M180 490q-1 7 -1 15q0 102 30 214q56 194 199 359t335.5 260.5t386.5 95.5h316l201 -371l-11 -6l-204 354h-308q-187 0 -374 -93.5t-326.5 -254t-194.5 -348.5q-29 -109 -29 -207v-16q3 -104 44 -192t107 -151.5t162 -99t210 -35.5q283 0 505.5 161.5t321.5 436.5 l-413 -2l4 17h436l-193 -627h-8l144 496q-114 -228 -322.5 -366t-478.5 -138q-118 0 -217.5 37t-167.5 103.5t-110 157.5t-44 200z" />
<glyph unicode="H" horiz-adv-x="1611" d="M-94 0l2 8l203 12l399 1393l-195 12l2 9h420l-2 -9l-203 -12l-196 -686h969l196 686l-194 12l2 9h420l-3 -9l-202 -12l-400 -1393l195 -12l-2 -8h-420l2 8l203 12l198 693h-968l-199 -693l195 -12l-2 -8h-420z" />
<glyph unicode="I" horiz-adv-x="620" d="M-94 0l2 8l203 12l399 1393l-195 12l2 9h420l-2 -9l-203 -12l-399 -1393l195 -12l-2 -8h-420z" />
<glyph unicode="J" horiz-adv-x="608" d="M-373 -231q52 33 170.5 128.5t165.5 149.5q22 25 37 61.5t37 110.5l342 1194l-195 12l2 9h420l-2 -9l-203 -12l-342 -1192q-2 -8 -8 -29t-8 -28.5t-7.5 -24.5t-8.5 -25t-8 -21t-10 -21t-11.5 -17.5t-13.5 -17.5q-35 -39 -169 -142.5t-182 -125.5h-6z" />
<glyph unicode="K" horiz-adv-x="1374" d="M-94 0l2 8l203 12l399 1393l-195 12l2 9h420l-2 -9l-203 -12l-141 -489q108 172 297 172h565l105 329h8l-98 -342h-578q-114 0 -201.5 -71.5t-117.5 -177.5q-12 -46 -12 -83q0 -36 20 -78q21 -43 67 -89l547 -564l195 -12l-2 -8h-420l2 8l203 10l-537 553q-44 42 -70 94 q-21 42 -21 75q0 7 1 14l-211 -734l195 -12l-2 -8h-420z" />
<glyph unicode="L" horiz-adv-x="1316" d="M-94 0l2 8l203 12l399 1393l-195 12l2 9h420l-2 -9l-203 -12l-399 -1393h692l406 353l8 -6l-412 -367h-921z" />
<glyph unicode="M" horiz-adv-x="1912" d="M-94 0l2 8l203 12l399 1391l-195 14l2 9h209l275 -1309l1007 1309h222l-2 -9l-203 -10l-400 -1395l195 -12l-2 -8h-420l2 8l203 12l397 1385l-1005 -1311h-11l-268 1286l-389 -1360l195 -12l-3 -8h-413z" />
<glyph unicode="N" horiz-adv-x="1538" d="M-94 0l2 8l203 12l399 1393l-195 12l2 9h222l528 -1379l389 1358l-194 12l2 9h411l-2 -9l-200 -12l-408 -1413h-4l-537 1413l-397 -1393l195 -12l-3 -8h-413z" />
<glyph unicode="O" d="M180 490q0 8 -1 15q0 101 30 214q57 197 199.5 363.5t335.5 263t389 96.5q118 0 217 -37t167 -103.5t109 -157.5q42 -92 44 -200q0 -6 1 -12q0 -103 -31 -217q-57 -198 -199 -364t-334 -262.5t-388 -96.5q-118 0 -217.5 37t-167.5 103.5t-110 158t-44 199.5zM200 490 q2 -106 41.5 -196t105 -155t162 -101t210.5 -36q142 0 287.5 57t266 153t213 228.5t134.5 278.5q30 114 30 216v9q-2 106 -42 196t-105.5 155t-162 101t-210.5 36q-142 0 -287.5 -57t-266 -153t-213 -228.5t-134.5 -278.5q-30 -114 -30 -216q1 -4 1 -9z" />
<glyph unicode="P" horiz-adv-x="1232" d="M-94 0l2 8l203 12l399 1393l-193 12l2 9h639q166 0 250 -123q54 -79 53 -177q0 -55 -16 -116q-50 -170 -205 -291t-325 -121h-414l-168 -586l195 -12l-2 -8h-420zM305 618h410q162 0 311.5 119t196.5 285q18 63 18 118q-1 93 -51 166q-82 117 -244 117h-409z" />
<glyph unicode="Q" d="M180 490q-1 7 -1 15q0 102 30 214q57 197 199.5 363.5t335.5 263t389 96.5q118 0 217.5 -37t167 -103.5t109.5 -157.5t43 -200q1 -4 1 -9q0 -104 -31 -220q-65 -226 -239.5 -408t-396.5 -262l143 -250h-14l-142 244q-133 -47 -272 -47q-118 0 -217.5 37t-167.5 103.5 t-110 157.5t-44 200zM200 490q1 -107 41 -196.5t105.5 -154.5t162 -101t210.5 -36q138 0 266 49l-96 168h14l94 -164q216 80 387.5 261t235.5 403q30 114 30 216v9q-2 107 -42 196.5t-105.5 154.5t-162 101t-210.5 36q-190 0 -377.5 -96.5t-327 -261t-196.5 -359.5 q-30 -114 -30 -216q0 -5 1 -9z" />
<glyph unicode="R" horiz-adv-x="1275" d="M-94 0l2 8l203 12l399 1393l-193 12l2 9h619q166 0 250 -123q54 -79 53 -177q0 -55 -16 -116q-50 -170 -205.5 -291t-325.5 -121l-393 -2q-2 -11 -2 -25q0 -22 6 -50q10 -45 36 -101t81.5 -119t130.5 -116q70 -48 127.5 -79.5t153 -63t198.5 -40.5v-10q-272 23 -493 184 q-205 138 -258 351l-148 -515l195 -12l-2 -8h-420zM305 618h389q162 0 311.5 119t196.5 285q18 63 18 119q0 92 -50 165q-81 117 -244 117h-389z" />
<glyph unicode="S" horiz-adv-x="1404" d="M156 152l59 389h8l-47 -396q158 -137 453 -137q109 0 208.5 18t190.5 56.5t157 107t93 160.5q12 45 14 84q0 5 1 9q0 34 -10 62q-11 32 -29 59t-47.5 49t-62.5 40t-77 34t-86.5 28t-95.5 24q-58 13 -100.5 23.5t-91 24.5t-82.5 27.5t-69 31.5t-57 36.5t-41 43t-26 52 t-6 61t12 71.5q30 107 126 184t221 112.5t265 35.5q113 0 212.5 -20.5t156.5 -55.5l-6 -391h-8l-5 391q-60 31 -159 47.5t-193 16.5q-135 0 -255.5 -35t-212.5 -109.5t-120 -175.5q-10 -36 -10.5 -67.5t7 -57.5t25 -48.5t39.5 -40.5t55 -34.5t66 -29t78 -25.5t86 -22.5 t95 -20.5q56 -13 102 -26.5t92 -30.5t81 -36.5t66 -43t50 -51.5q20 -28 32 -62q10 -30 10 -65v-9q-2 -40 -15 -86q-27 -95 -95 -166.5t-161.5 -112.5t-199 -61t-222.5 -20q-149 0 -276.5 39.5t-194.5 118.5z" />
<glyph unicode="T" horiz-adv-x="1327" d="M356 1137l228 297h1044l55 -297l-8 -7l-61 279h-504l-399 -1389l194 -12l-2 -8h-418l2 8l203 12l400 1389h-504l-221 -279z" />
<glyph unicode="U" horiz-adv-x="1630" d="M465 551l248 862l-195 12l2 9h420l-2 -9l-205 -12l-244 -858q-29 -102 -29 -185q0 -60 15 -110q35 -120 134.5 -183t246.5 -63q254 0 440 162t273 467l221 770l-193 12l2 9h412l-2 -9l-203 -12l-225 -786q-41 -144 -106.5 -257t-138 -183t-158.5 -115t-165 -62.5 t-161 -17.5q-101 0 -180.5 27.5t-130.5 78t-77 119.5q-26 68 -27 151q0 86 28 183z" />
<glyph unicode="V" horiz-adv-x="1523" d="M500 1425l2 9h420l-2 -9l-203 -12l155 -1374l957 1374l-195 12l2 9h414l-2 -9l-203 -12l-981 -1413h-8l-162 1413z" />
<glyph unicode="W" horiz-adv-x="2379" d="M500 1425l2 9h420l-2 -9l-203 -12l155 -1374l717 1032l-41 363h238l-2 -9l-211 -10l158 -1376l954 1374l-195 12l2 9h414l-2 -9l-203 -12l-981 -1413h-6l-121 1051l-729 -1051h-8l-162 1413z" />
<glyph unicode="X" horiz-adv-x="1435" d="M-246 0l2 8l207 12l682 689l-299 708l-205 8l2 9h437l-2 -9l-209 -8l293 -692l686 692l-205 8l2 9h430l-2 -9l-209 -8l-698 -704l292 -693l203 -12l-2 -8h-432l2 8l207 12l-287 676l-669 -676l200 -12l-2 -8h-424z" />
<glyph unicode="Y" horiz-adv-x="1361" d="M557 1425l2 9h420l-2 -9l-203 -12l166 -954l727 954l-194 12l2 9h413l-2 -9l-203 -12l-739 -977l-121 -416l195 -12l-2 -8h-420l2 8l203 12l121 416l-170 977z" />
<glyph unicode="Z" horiz-adv-x="1431" d="M-123 0l1602 1411h-987l-222 -281l-8 7l227 297h1039l-1600 -1411h1086l223 282l6 -6l-227 -299h-1139z" />
<glyph unicode="[" horiz-adv-x="432" d="M8 -190l518 1806h207l-4 -12h-184l-512 -1782h184l-2 -12h-207z" />
<glyph unicode="\" horiz-adv-x="927" d="M651 1434l373 -1434h20l-372 1434h-21z" />
<glyph unicode="]" horiz-adv-x="432" d="M-360 -190l2 12h184l512 1782h-184l4 12h207l-519 -1806h-206z" />
<glyph unicode="^" horiz-adv-x="888" d="M565 1143l410 291h33l241 -291h-18l-244 276l-403 -276h-19z" />
<glyph unicode="_" horiz-adv-x="1134" d="M-348 -61h1155l6 22h-1155z" />
<glyph unicode="`" horiz-adv-x="565" d="M733 1434l256 -291h21l-242 291h-35z" />
<glyph unicode="a" horiz-adv-x="1320" d="M116 306q-4 26 -4 54q0 72 25 152q63 221 248.5 370.5t392.5 149.5q129 0 220.5 -75.5t121.5 -194.5l76 262h23l-289 -1004l194 -12l-2 -8h-221l74 256q-91 -116 -226.5 -190t-265.5 -74q-101 0 -181.5 39.5t-126.5 109t-59 165.5zM150 253q29 -110 118.5 -174.5 t218.5 -64.5q134 0 267.5 73.5t228.5 195.5l131 460q-23 123 -114 195t-226 72q-196 0 -375.5 -145t-240.5 -357q-21 -81 -21 -152q0 -55 13 -103z" />
<glyph unicode="b" horiz-adv-x="1314" d="M-156 0l2 8l203 12l397 1385l-233 -135l-6 6l248 158h22l-192 -668q98 119 231 192.5t262 73.5q101 0 181.5 -40t125.5 -110.5t58 -166.5q4 -27 3 -54q0 -72 -24 -153q-41 -146 -140.5 -264.5t-231 -185t-267.5 -66.5q-129 0 -223 75.5t-119 192.5l-75 -260h-222z M145 279q25 -121 116 -193t226 -72q129 0 255.5 64.5t223 179t136.5 254.5q23 78 23 147q0 26 -3 51q-12 91 -55.5 158t-120 104.5t-172.5 37.5q-135 0 -267.5 -74t-227.5 -197z" />
<glyph unicode="c" horiz-adv-x="1241" d="M123 308q-5 30 -5 60q0 68 23 142q40 142 142.5 260.5t239 186t276.5 67.5h229l141 -262l-10 -6l-143 245h-221q-202 0 -387.5 -144.5t-245.5 -350.5q-21 -71 -21 -135q1 -31 5 -59q14 -90 59.5 -156t125 -104t179.5 -38q186 0 364.5 122t253.5 300l11 -4 q-80 -188 -260 -314t-373 -126q-104 0 -188 40.5t-132 111t-63 164.5z" />
<glyph unicode="d" horiz-adv-x="1320" d="M116 306q-4 26 -4 54q0 72 25 152q63 221 248.5 370.5t392.5 149.5q129 0 220.5 -75.5t121.5 -194.5l185 643l-234 -135l-6 6l248 158h22l-405 -1414l194 -12l-2 -8h-221l74 256q-91 -116 -226.5 -190t-265.5 -74q-101 0 -181.5 39.5t-126.5 109t-59 165.5zM150 253 q29 -110 118.5 -174.5t218.5 -64.5q134 0 267.5 73.5t228.5 195.5l131 460q-23 123 -114 195t-226 72q-196 0 -375.5 -145t-240.5 -357q-21 -81 -21 -152q0 -55 13 -103z" />
<glyph unicode="e" horiz-adv-x="1241" d="M123 309q-5 30 -5 61q0 69 23 144q63 219 255 368.5t405 149.5q151 0 253.5 -81.5t127.5 -213.5h-899q-81 -101 -119 -227q-22 -73 -22 -139q0 -29 4 -57q14 -91 59.5 -157.5t125 -104.5t179.5 -38q186 0 364.5 122t253.5 300l11 -4q-80 -188 -260 -314t-373 -126 q-104 0 -188 40.5t-132 111t-63 165.5zM293 750l862 4q-30 117 -124.5 186.5t-233.5 69.5q-136 0 -272 -71t-232 -189z" />
<glyph unicode="f" horiz-adv-x="677" d="M-729 -489l6 14l109 2q46 1 103.5 25.5t114 79.5t77.5 128l335 1176h-172l9 22l262 -2q-21 0 -49.5 12.5t-58 40t-39.5 71.5q-4 18 -4 38q0 32 9 70q29 102 125.5 174t202.5 72h268l-75 -220h-9l58 197h-254q-46 0 -103.5 -23t-114 -77t-77.5 -127q-11 -38 -11 -71 q0 -57 35 -97q53 -60 177 -60h4l182 2l-8 -22h-334l-338 -1180q-29 -102 -125.5 -173.5t-202.5 -71.5h-102z" />
<glyph unicode="g" horiz-adv-x="1269" d="M-8 -264q31 105 137 174.5t268 89.5q-123 13 -208.5 86t-111.5 182q-11 47 -11 99q0 69 20 147q62 212 253.5 361t403.5 149h97h108h228l-7 -23l-311 9q160 -42 232 -181q42 -81 42 -175q0 -69 -22 -144q-60 -206 -245.5 -354.5t-391.5 -157.5q-58 0 -88 -6 q-315 -61 -371 -260q-9 -32 -9 -61q0 -67 49 -119q71 -76 196 -76q127 0 237.5 76.5t141.5 183.5l26 92q20 71 86 121.5t138 50.5q73 0 109 -50q24 -31 24 -73q0 -25 -8 -53l-101 -348h-213l2 8l203 12l94 334q7 23 7 44q0 36 -21 64q-33 44 -105 44q-61 0 -118 -46.5 t-76 -109.5l-27 -94q-32 -112 -148.5 -188t-250.5 -76q-137 0 -214 78q-53 55 -53 127q0 30 9 63zM91 314q14 -92 59 -160t124 -107t179 -39q201 0 387.5 148.5t246.5 357.5q22 72 22 138q0 29 -4 57q-14 91 -59.5 158.5t-124.5 107t-178 39.5q-133 0 -265 -68t-231 -184 t-138 -252q-22 -73 -22 -140q0 -29 4 -56z" />
<glyph unicode="h" horiz-adv-x="1316" d="M-156 0l2 8l203 12l397 1385l-233 -135l-6 6l248 158h22l-205 -713q67 135 201 223t277 88q170 0 247 -112q47 -68 47 -160q0 -59 -20 -127l-176 -613l194 -12l-2 -8h-419l2 8l202 12l176 617q19 66 19 122q0 85 -43 147q-71 104 -232 104q-103 0 -207.5 -51t-182.5 -139 t-107 -189l-176 -611l194 -12l-2 -8h-420z" />
<glyph unicode="i" horiz-adv-x="571" d="M-123 0l2 8l203 12l280 975l-233 -135l-6 6l248 158h22l-289 -1004l195 -12l-2 -8h-420zM395 1206q4 15 17.5 25t27.5 10q17 0 25.5 -12t3.5 -27q-4 -15 -18 -25t-29 -10t-23.5 12t-3.5 27z" />
<glyph unicode="j" horiz-adv-x="489" d="M-385 -532q17 2 45.5 19t66 50.5t75 99t61.5 148.5l348 1210l-234 -135l-6 6l248 158h23l-357 -1243q-43 -147 -119.5 -227.5t-150.5 -85.5zM238 1206q4 15 17.5 25t27.5 10q17 0 25 -12t3 -27q-4 -15 -18 -25t-29 -10t-23 12t-3 27z" />
<glyph unicode="k" horiz-adv-x="1126" d="M-164 0l2 8l203 12l397 1387l-225 -131l-4 6l237 152h23l-186 -650q50 81 133.5 131t171.5 50h385l-72 -211h-8l55 190h-364q-102 0 -196.5 -73t-123.5 -175q-11 -37 -11 -70q0 -60 36 -108l432 -498l190 -12l-2 -8h-422l2 8l201 10l-418 486q-33 44 -39 110l-170 -594 l195 -12l-2 -8h-420z" />
<glyph unicode="l" horiz-adv-x="565" d="M-156 0l2 8l203 12l397 1385l-233 -135l-6 6l248 158h22l-405 -1414l194 -12l-2 -8h-420z" />
<glyph unicode="m" horiz-adv-x="2109" d="M-123 0l2 8l203 12l280 975l-233 -135l-6 6l248 158h22l-88 -303q67 135 200.5 223t276.5 88q154 0 232 -94q61 -73 62 -179q0 -30 -5 -63q67 150 204 243t284 93q170 0 247 -112q47 -68 47 -160q0 -59 -20 -127l-176 -613l194 -12l-2 -8h-419l2 8l202 12l176 617 q19 66 19 122q0 85 -43 147q-71 104 -232 104q-103 0 -207.5 -51t-182.5 -139t-107 -189l-176 -611l194 -12l-2 -8h-420l2 8l203 12l176 617q19 66 19 122q0 85 -43 147q-71 104 -232 104q-103 0 -207.5 -51t-182.5 -139t-107 -189l-177 -611l195 -12l-2 -8h-420z" />
<glyph unicode="n" horiz-adv-x="1333" d="M-123 0l2 8l203 12l280 975l-233 -135l-6 6l248 158h22l-88 -303q67 135 200.5 223t276.5 88q170 0 248 -112q47 -68 47 -160q0 -59 -20 -127l-176 -613l194 -12l-2 -8h-420l2 8l203 12l176 617q19 66 19 122q0 85 -43 147q-71 104 -232 104q-103 0 -207.5 -51 t-182.5 -139t-107 -189l-177 -611l195 -12l-2 -8h-420z" />
<glyph unicode="o" horiz-adv-x="1249" d="M123 308q-5 30 -5 61q0 69 23 145q42 146 145 265t239 186t276 67t239 -69.5t131 -185.5q15 -53 15 -113q0 -72 -21 -154q-42 -146 -144.5 -265t-238.5 -186t-276 -67q-105 0 -188.5 40t-131.5 110t-63 166zM164 510q-24 -83 -24 -155q0 -117 62 -207q100 -146 304 -146 t389 147.5t248 364.5q24 83 24 155q0 117 -62 207q-100 146 -304 146t-389 -147.5t-248 -364.5z" />
<glyph unicode="p" horiz-adv-x="1318" d="M-430 -496l2 9l203 12l422 1470l-234 -135l-6 6l248 158h22l-75 -258q98 119 231 192.5t262 73.5q101 0 181.5 -40t125.5 -110.5t58 -166.5q4 -27 4 -54q0 -73 -25 -153q-41 -146 -140.5 -264.5t-231 -185t-267.5 -66.5q-129 0 -223 75.5t-119 192.5l-211 -735l195 -12 l-2 -9h-420zM12 279q25 -121 116 -193t226 -72q129 0 255.5 64.5t223 179t136.5 254.5q23 78 23 147q0 26 -3 51q-12 91 -55.5 158t-120 104.5t-172.5 37.5q-135 0 -268 -74t-228 -197z" />
<glyph unicode="q" horiz-adv-x="1249" d="M116 306q-4 26 -4 54q0 72 25 152q63 221 248.5 370.5t392.5 149.5q129 0 220.5 -75.5t121.5 -194.5l76 262h23l-431 -1499l195 -12l-2 -9h-420l2 9l203 12l209 731q-91 -116 -226.5 -190t-265.5 -74q-101 0 -181.5 39.5t-126.5 109t-59 165.5zM150 253 q29 -110 118.5 -174.5t218.5 -64.5q134 0 267.5 73.5t228.5 195.5l131 460q-23 123 -114 195t-226 72q-196 0 -375.5 -145t-240.5 -357q-21 -81 -21 -152q0 -55 13 -103z" />
<glyph unicode="r" horiz-adv-x="862" d="M-123 0l2 8l203 12l280 975l-233 -135l-6 6l248 158h22l-90 -307q67 136 197 224.5t270 88.5q64 0 119 -18l-6 -25q-61 21 -117 21q-155 0 -299 -112t-188 -267l-175 -609l195 -12l-2 -8h-420z" />
<glyph unicode="s" horiz-adv-x="1071" d="M37 104l41 281h8l-29 -283q57 -48 145.5 -73t190.5 -25q181 0 315 62.5t169 183.5q9 32 9.5 59.5t-7.5 50t-21.5 41.5t-35.5 34.5t-46.5 28t-57.5 23t-65.5 19t-72.5 16.5q-42 9 -74 16.5t-68 18t-62 20.5t-52.5 23t-44 27.5t-32 32.5t-20.5 38t-6 44.5t8 52.5 q29 103 151.5 170t305.5 67q83 0 162.5 -15t120.5 -38l-2 -283h-9l-10 279q-86 45 -262 45q-173 0 -289 -64t-145 -163q-7 -23 -7.5 -44t5 -38.5t14.5 -32.5t25.5 -27.5t33 -23.5t41.5 -20.5t47 -17t53 -15.5t57 -14t61 -13q42 -9 76.5 -18.5t69.5 -21.5t62 -26t50.5 -31 t38.5 -38t24 -45t8.5 -53.5t-10.5 -63.5q-35 -123 -171 -190.5t-337 -67.5q-252 0 -356 112z" />
<glyph unicode="t" horiz-adv-x="788" d="M221 303l201 698h-137l6 23h137l117 410h22l-116 -410h342l-7 -23h-342l-198 -690q-17 -61 -17 -110q1 -65 31 -109q54 -78 160 -78q98 0 190 59.5t131 151.5l4 -4q-41 -99 -134.5 -164t-194.5 -65q-116 0 -176 86q-36 51 -36 120q0 48 17 105z" />
<glyph unicode="u" horiz-adv-x="1327" d="M352 1016l2 8h221l-182 -637q-19 -66 -19 -122q0 -85 43 -147q71 -104 232 -104q103 0 207.5 51t183 139t107.5 189l176 611l-195 12l2 8h222l-289 -1004l194 -12l-2 -8h-221l88 303q-67 -135 -200.5 -223t-276.5 -88q-170 0 -247 112q-47 68 -47 160q0 59 20 127 l176 613z" />
<glyph unicode="v" horiz-adv-x="1189" d="M336 1016l2 8h317l-2 -8l-151 -12l123 -965l688 965l-144 12l2 8h312l-2 -8l-152 -12l-715 -1004h-6l-129 1004z" />
<glyph unicode="w" horiz-adv-x="2031" d="M336 1016l2 8h324l-3 -8l-151 -12l123 -965l686 965l-141 12l2 8h309l-2 -8l-139 -12l122 -965l689 965l-144 12l2 8h309l-2 -8l-151 -12l-715 -1004h-10l-127 985l-701 -985h-10l-129 1004z" />
<glyph unicode="x" horiz-adv-x="1179" d="M-111 0h310l2 6l-142 14l469 472l199 -472l-149 -14l-3 -6h324l2 6l-145 14l-207 492l489 492l152 12l2 8h-311l-2 -8l143 -12l-477 -480l-203 480l152 12l2 8h-326l-2 -8l143 -12l211 -500l-481 -484l-150 -14z" />
<glyph unicode="y" horiz-adv-x="1198" d="M-164 -449q55 4 103.5 24.5t92.5 52.5t97.5 92t103.5 125t125 171l-129 988l-143 12l2 8h324l-2 -8l-152 -12l125 -965l690 965l-143 12l2 8h309l-2 -8l-152 -12l-710 -994q-80 -112 -130 -177t-105.5 -126t-99.5 -91t-94.5 -48t-109.5 -19z" />
<glyph unicode="z" horiz-adv-x="1011" d="M-201 0l1135 1001h-698l-189 -313h-8l184 336h766l-1136 -1001h741l184 305h8l-180 -328h-807z" />
<glyph unicode="{" horiz-adv-x="466" d="M70 713q57 9 101 31t73.5 50t54.5 76.5t41 93.5t37 117l31 113q24 83 36.5 122.5t33.5 95.5t39 80t46 54.5t62 41.5t80 19.5t106 8.5l-2 -10q-39 0 -71.5 -3t-60 -12t-49.5 -18t-42 -28t-34 -35t-29 -45.5t-25 -53t-23 -64.5t-22 -72.5t-23 -84.5l-31 -113 q-18 -68 -32 -111.5t-35.5 -88t-47.5 -72.5t-64 -52t-89 -40q34 -13 57 -31t33.5 -43.5t14 -53t-3 -68t-16 -78.5t-26.5 -95l-34 -113q-23 -75 -35 -117t-22.5 -93.5t-7.5 -77t13 -54t35 -41t63.5 -20.5t94.5 -8l-2 -10q-53 0 -91 4.5t-64 19t-42.5 28t-21 45.5t-5 56.5 t10.5 76t21 88t30 108.5l33 112q15 52 23 85.5t14.5 73t5.5 64.5t-8 51t-23.5 42.5t-43 29t-64.5 19.5z" />
<glyph unicode="|" horiz-adv-x="514" d="M-37 -408h23l528 1842h-22z" />
<glyph unicode="}" horiz-adv-x="466" d="M-442 -190l2 10q39 0 71.5 3t60.5 12t50 18.5t41.5 28t34 35t29 45.5t25 53t23 64t21.5 72.5t23 84.5l30 112q18 68 32 111.5t35.5 88.5t48 73t64.5 52t89 40q-41 16 -65 40t-34 53t-6 74t15 89t32 112l33 113q16 52 25.5 84t20 72.5t14 64t5.5 52.5t-3.5 45t-14.5 34 t-25.5 27.5t-39.5 18t-53.5 11.5t-69.5 3l2 10q53 0 91 -4.5t64 -19t42.5 -28.5t21.5 -45.5t5 -56.5t-10.5 -75t-21 -88.5t-30.5 -108.5l-33 -113q-15 -52 -23 -85.5t-14.5 -73t-5.5 -64t8 -51t23.5 -42.5t43 -28.5t64.5 -19.5q-57 -9 -101 -31t-73.5 -50.5t-54 -76.5 t-40.5 -93.5t-36 -117.5l-33 -113q-28 -96 -42.5 -141t-39.5 -104.5t-49 -83.5t-63 -50.5t-89 -34t-120 -7.5z" />
<glyph unicode="~" horiz-adv-x="911" d="M131 469q40 66 98.5 96.5t118.5 30.5q47 0 84 -21t62.5 -51t50 -59.5t59.5 -50.5t78 -21q128 0 197 113l16 -12q-76 -119 -221 -119q-50 0 -88 21t-62.5 50.5t-47 59.5t-54.5 51t-72 21q-132 0 -203 -121z" />
<glyph unicode="&#xa1;" horiz-adv-x="385" d="M66 0h24l242 864l108 383h-8zM444 1401q3 15 16.5 25t28.5 10t23.5 -12t3.5 -27q-4 -15 -17.5 -25t-27.5 -10q-17 0 -25 12t-2 27z" />
<glyph unicode="&#xa2;" horiz-adv-x="1241" d="M143 510q60 209 242 356t389 158l31 106h22l-30 -106h4h229l141 -262l-10 -6l-143 245h-221h-6l-283 -987h4q186 0 364.5 122t253.5 300l11 -4q-80 -188 -260 -314t-373 -126h-8l-33 -117h-23l33 117q-199 12 -297 161t-37 357zM164 506q-57 -199 36.5 -340t284.5 -152 l283 987q-196 -12 -371 -154.5t-233 -340.5z" />
<glyph unicode="&#xa3;" horiz-adv-x="1101" d="M-160 0l2 8l168 12q103 0 202.5 87.5t141.5 224.5q19 67 21.5 140t-4.5 122.5t-23 126.5l-239 -2l6 18l229 2q-16 75 -23 121t-5.5 113t18.5 127q40 142 173.5 238t272.5 96q112 0 176 -58q35 -29 50.5 -75.5t7.5 -100.5l-4 4q14 94 -49 150.5t-183 56.5q-84 0 -172 -42 t-157.5 -119t-96.5 -169q-6 -21 -10 -44.5t-5.5 -41t0 -44.5t2 -40.5t6.5 -45t7.5 -41t9.5 -46t9 -43.5l393 2l-6 -18l-383 -2q14 -72 20 -124.5t1.5 -128.5t-25.5 -149q-30 -107 -100 -184t-158 -111h544l273 236l6 -6l-277 -250h-819z" />
<glyph unicode="&#xa4;" horiz-adv-x="847" d="M86 264l98 76q-63 91 -24 221t149 217l-53 76l18 14l54 -75q118 88 243 88q129 0 195 -88l98 75l10 -14l-98 -76q63 -92 25 -221q-34 -125 -150 -217l54 -76l-17 -14l-55 76q-118 -88 -244 -88q-125 0 -194 88l-97 -76zM178 557q-35 -128 27 -217.5t186 -89.5t239 91.5 t152 219.5q37 127 -25.5 217t-185.5 90q-126 0 -241 -91.5t-152 -219.5z" />
<glyph unicode="&#xa5;" horiz-adv-x="1402" d="M598 1425l2 9h420l-2 -9l-203 -12l166 -954l727 954l-195 12l3 9h413l-2 -9l-203 -12l-739 -977h318l-5 -16h-317l-35 -119h318l-4 -18h-320l-76 -263l195 -12l-2 -8h-420l2 8l203 12l76 263h-308l4 18h310l34 119h-309l4 16h310l-170 977z" />
<glyph unicode="&#xa6;" horiz-adv-x="514" d="M-33 -401h23l225 786h-22zM268 647h23l225 787h-22z" />
<glyph unicode="&#xa7;" horiz-adv-x="1071" d="M37 104l41 281h8l-29 -283q57 -48 145.5 -73t190.5 -25q117 0 215.5 25.5t172 82.5t98.5 140q9 31 9 58.5t-8 50t-22 41.5t-36 34.5t-46.5 28t-57.5 23t-65.5 18.5t-72.5 16q-45 9 -81 17.5t-74.5 19.5t-66 23.5t-55 28.5t-43 34t-28 41t-11 48.5t7.5 56.5 q29 101 151.5 167t305.5 66q96 0 160 -12q-46 16 -119 30q-42 8 -75 15.5t-68 17t-62 19.5t-53 23t-43.5 27.5t-32 32t-20.5 38t-6 44.5t8 52q30 105 153 172t306 67q83 0 161.5 -15t118.5 -38l-2 -283h-8l-8 279q-90 45 -265 45q-172 0 -288 -64.5t-146 -164.5 q-6 -23 -7 -43t5 -37.5t15 -32t25 -27.5t33 -23.5t41.5 -20.5t47.5 -17.5t53.5 -15.5t57 -14t61.5 -13q48 -10 87 -20.5t77.5 -25t66 -31.5t51.5 -39t34.5 -48t14.5 -58t-9 -69q-30 -100 -139 -165.5t-269 -71.5q165 -34 228.5 -103.5t31.5 -181.5q-36 -124 -172.5 -192 t-337.5 -68q-252 0 -356 112zM254 788q-27 -92 48 -144.5t276 -96.5q169 0 291.5 56.5t156.5 170.5q18 66 -2 114t-72 74t-117.5 38t-148.5 12q-173 0 -289 -63.5t-143 -160.5z" />
<glyph unicode="&#xa8;" horiz-adv-x="389" d="M711 1407q4 15 18 25t29 10t23 -12t3 -27q-4 -15 -17.5 -25t-27.5 -10q-17 0 -25 12t-3 27zM821 1407q4 15 18 25t29 10t23.5 -12t3.5 -27q-4 -15 -17.5 -25t-27.5 -10q-17 0 -25.5 12t-3.5 27z" />
<glyph unicode="&#xa9;" d="M175.5 522q-1.5 -94 21.5 -173t70 -145.5t112 -113t150.5 -72.5t183.5 -26q197 0 390.5 97.5t336.5 264.5t200 365q32 121 30 229t-43.5 198.5t-109.5 156.5t-167 102.5t-217 36.5q-196 0 -389.5 -97.5t-337 -264.5t-201.5 -365q-28 -99 -29.5 -193zM199.5 493 q-1.5 107 29.5 226q42 146 134 278t211.5 227t264 151.5t287.5 56.5q114 0 210.5 -36.5t162 -102t106 -155.5t42 -197t-30.5 -226q-42 -146 -134 -278t-211.5 -227t-264 -151.5t-287.5 -56.5q-114 0 -210.5 36.5t-162 102t-105.5 155.5t-41.5 197zM621 725q37 127 151 215 t242 88h135l84 -156l-4 -4l-86 148h-131q-120 0 -226.5 -86t-142.5 -209q-34 -123 22.5 -207t176.5 -84q110 0 217 74t153 180l7 -4q-47 -113 -155.5 -187.5t-223.5 -74.5q-127 0 -191.5 90.5t-27.5 216.5z" />
<glyph unicode="&#xab;" horiz-adv-x="1218" d="M176 662l770 561h19l-766 -561l442 -562h-16zM633 662l770 561h18l-766 -561l443 -562h-17z" />
<glyph unicode="&#xad;" horiz-adv-x="731" d="M57 471h650l6 23h-650z" />
<glyph unicode="&#xae;" d="M179.5 489.5q-2.5 108.5 29.5 229.5q57 197 199.5 363.5t335.5 263t389 96.5q118 0 217.5 -37t167 -103.5t109.5 -157.5t43.5 -199.5t-30.5 -229.5q-57 -198 -199 -364t-334 -262.5t-388 -96.5q-118 0 -217.5 37t-167.5 103.5t-110 157.5t-44.5 199.5zM199.5 489.5 q1.5 -106.5 41.5 -196t105.5 -154.5t162 -101t210.5 -36q142 0 287.5 57t266 153t213 228.5t134.5 278.5q31 119 29.5 225.5t-41.5 196t-105.5 154.5t-162 101t-210.5 36q-190 0 -377.5 -96.5t-327 -261t-196.5 -359.5q-31 -119 -29.5 -225.5zM592 385l2 4l80 8l186 652 l-76 8l2 4h291q79 0 118 -59t15 -138q-23 -81 -95 -137.5t-152 -56.5l-185 -2q-7 -32 24.5 -88t100.5 -105q41 -26 60.5 -37.5t65 -27t93.5 -19.5v-6q-149 13 -243 86q-39 26 -64 59.5t-32.5 54t-14.5 50.5l-68 -238l91 -8l-3 -4h-196zM782 684h183q75 0 137 52.5t86 131.5 q22 79 -10.5 130t-108.5 51h-182z" />
<glyph unicode="&#xaf;" horiz-adv-x="690" d="M725 1417h485l4 17h-485z" />
<glyph unicode="&#xb0;" horiz-adv-x="479" d="M637 1303q15 57 67 98t109 41t85 -41t13 -98q-17 -56 -69.5 -97t-108.5 -41q-57 0 -85 41t-11 97zM659 1305q-14 -48 9 -87.5t69 -39.5q45 0 90.5 39.5t59.5 87.5t-9.5 86.5t-68.5 38.5q-46 0 -91 -38.5t-59 -86.5z" />
<glyph unicode="&#xb1;" horiz-adv-x="854" d="M-86 0l6 23h647l-6 -23h-647zM47 471l6 23h314l90 313h22l-90 -313h313l-6 -23h-313l-90 -313h-23l90 313h-313z" />
<glyph unicode="&#xb4;" horiz-adv-x="563" d="M565 1143h19l424 291h-35z" />
<glyph unicode="&#xb6;" horiz-adv-x="1183" d="M408 1022q50 169 203.5 290.5t320.5 121.5h586l-2 -9l-238 -12l-399 -1393l229 -12l-2 -8h-256l407 1421h-88l-407 -1421h-256l2 8l237 12l168 586h-208q-170 0 -258 123t-39 293z" />
<glyph unicode="&#xb7;" horiz-adv-x="360" d="M305 557q4 15 18 25t29 10t23.5 -12t3.5 -27q-4 -15 -17.5 -25t-27.5 -10q-17 0 -25.5 12t-3.5 27z" />
<glyph unicode="&#xb8;" horiz-adv-x="514" d="M-365 -481l3 8q127 13 229.5 85t128.5 163q29 108 -82 108q-66 0 -121 -51l-29 -2l160 170h17l-138 -147q53 43 117 43q53 0 84 -30.5t12 -92.5q-28 -102 -138.5 -172.5t-242.5 -81.5z" />
<glyph unicode="&#xbb;" horiz-adv-x="1218" d="M-57 100l766 562l-443 561h15l450 -561l-772 -562h-16zM399 100l766 562l-442 561h14l451 -561l-772 -562h-17z" />
<glyph unicode="&#xbf;" horiz-adv-x="778" d="M-86 303q21 73 67 139t100.5 112.5t117 97t116 93t98 100t62.5 118.5l86 292l8 -2l-82 -295q-16 -56 -50 -106t-77.5 -90t-93.5 -78.5t-100.5 -78.5t-95 -83.5t-81 -100.5t-55.5 -122q-34 -121 33 -202t205 -81q33 0 72 10t90 34.5t104.5 77.5t96.5 128l8 -4 q-49 -96 -142 -174q-60 -47 -122.5 -68.5t-108.5 -21.5q-158 0 -225.5 89.5t-30.5 215.5zM571 1407q4 15 18 25t29 10t23.5 -12t3.5 -27q-4 -15 -17.5 -25t-27.5 -10q-17 0 -25.5 12t-3.5 27z" />
<glyph unicode="&#xc0;" horiz-adv-x="1523" d="M-319 0l2 8l202 12l959 1393l-195 12l2 9h213l172 -1414l195 -12l-2 -8h-414l2 8l203 12l-57 482h-723l-332 -482l194 -12l-2 -8h-419zM254 522h707l-109 873zM743 1835l256 -291h21l-242 291h-35z" />
<glyph unicode="&#xc1;" horiz-adv-x="1523" d="M-319 0l2 8l202 12l959 1393l-195 12l2 9h213l172 -1414l195 -12l-2 -8h-414l2 8l203 12l-57 482h-723l-332 -482l194 -12l-2 -8h-419zM254 522h707l-109 873zM692 1544h19l424 291h-35z" />
<glyph unicode="&#xc2;" horiz-adv-x="1523" d="M-319 0l2 8l202 12l959 1393l-195 12l2 9h213l172 -1414l195 -12l-2 -8h-414l2 8l203 12l-57 482h-723l-332 -482l194 -12l-2 -8h-419zM254 522h707l-109 873zM551 1542l410 291h32l242 -291h-18l-244 277l-404 -277h-18z" />
<glyph unicode="&#xc3;" horiz-adv-x="1523" d="M-319 0l2 8l202 12l959 1393l-195 12l2 9h213l172 -1414l195 -12l-2 -8h-414l2 8l203 12l-57 482h-723l-332 -482l194 -12l-2 -8h-419zM254 522h707l-109 873zM580 1544q32 114 93 166.5t124 52.5q39 0 69.5 -21.5t49.5 -52t36.5 -61.5t42.5 -52.5t56 -21.5 q68 0 124 55.5t85 155.5l10 -4q-64 -219 -223 -219q-42 0 -73 21.5t-49 52t-34.5 61.5t-39 52.5t-52.5 21.5q-76 0 -130.5 -64t-78.5 -147z" />
<glyph unicode="&#xc4;" horiz-adv-x="1523" d="M-319 0l2 8l202 12l959 1393l-195 12l2 9h213l172 -1414l195 -12l-2 -8h-414l2 8l203 12l-57 482h-723l-332 -482l194 -12l-2 -8h-419zM254 522h707l-109 873zM813 1583q4 15 18 25t29 10t23.5 -12t3.5 -27q-4 -15 -17.5 -25t-27.5 -10q-17 0 -25.5 12t-3.5 27zM924 1583 q4 15 18 25t29 10t23 -12t3 -27q-4 -15 -17.5 -25t-27.5 -10q-17 0 -25 12t-3 27z" />
<glyph unicode="&#xc5;" horiz-adv-x="1523" d="M-319 0l2 8l202 12l959 1393l-195 12l2 9h213l172 -1414l195 -12l-2 -8h-414l2 8l203 12l-57 482h-723l-332 -482l194 -12l-2 -8h-419zM254 522h707l-109 873zM795 1673q-15 -56 13 -95.5t85 -39.5t110 41.5t68 97.5q15 58 -12.5 98t-83.5 40q-57 0 -110 -42.5t-70 -99.5 zM819 1679q14 48 58.5 85.5t91.5 37.5q45 0 68.5 -39.5t9.5 -87.5t-58.5 -86.5t-89.5 -38.5q-46 0 -70 40.5t-10 88.5z" />
<glyph unicode="&#xc6;" horiz-adv-x="1847" d="M-315 0l2 8l202 12l1035 1391l-195 14l2 9h948l58 -295l-11 -6l-61 280h-719l-196 -686h393l94 287h6l-168 -588h-6l70 287h-394l-198 -693h657l408 355l6 -6l-412 -369h-887l3 8l204 17l138 477h-398l-354 -482l194 -12l-2 -8h-419zM283 522h385l243 846z" />
<glyph unicode="&#xc7;" horiz-adv-x="1624" d="M183 498.5q-1 104.5 30 220.5q42 145 136.5 277.5t218.5 228.5t272.5 152.5t294.5 56.5h315l201 -371l-11 -6l-204 354h-308q-187 0 -374 -93.5t-326.5 -254t-194.5 -348.5q-31 -118 -28.5 -222.5t43.5 -192.5t107 -151.5t162 -99t210 -35.5q172 0 346 78.5t311.5 215.5 t210.5 304l13 -4q-74 -173 -213.5 -314t-316.5 -221.5t-355 -80.5h-31l-131 -139q53 43 117 43q53 0 84 -30.5t12 -92.5q-28 -102 -138.5 -172.5t-242.5 -81.5l2 8q127 13 230 85t129 163q29 108 -82 108q-66 0 -121 -51l-29 -2l154 164q-110 7 -201.5 48t-154 107.5 t-99.5 155.5t-38 193.5z" />
<glyph unicode="&#xc8;" horiz-adv-x="1333" d="M-94 0l2 8l203 12l399 1393l-195 12l2 9h959l57 -295l-10 -6l-61 280h-730l-196 -686h403l95 287h6l-168 -588h-6l69 287h-403l-199 -693h668l407 355l6 -6l-411 -369h-897zM748 1835l256 -291h20l-242 291h-34z" />
<glyph unicode="&#xc9;" horiz-adv-x="1333" d="M-94 0l2 8l203 12l399 1393l-195 12l2 9h959l57 -295l-10 -6l-61 280h-730l-196 -686h403l95 287h6l-168 -588h-6l69 287h-403l-199 -693h668l407 355l6 -6l-411 -369h-897zM772 1544h19l423 291h-34z" />
<glyph unicode="&#xca;" horiz-adv-x="1333" d="M-94 0l2 8l203 12l399 1393l-195 12l2 9h959l57 -295l-10 -6l-61 280h-730l-196 -686h403l95 287h6l-168 -588h-6l69 287h-403l-199 -693h668l407 355l6 -6l-411 -369h-897zM516 1542l410 291h32l242 -291h-18l-244 277l-403 -277h-19z" />
<glyph unicode="&#xcb;" horiz-adv-x="1333" d="M-94 0l2 8l203 12l399 1393l-195 12l2 9h959l57 -295l-10 -6l-61 280h-730l-196 -686h403l95 287h6l-168 -588h-6l69 287h-403l-199 -693h668l407 355l6 -6l-411 -369h-897zM821 1583q4 15 18 25t29 10t23.5 -12t3.5 -27q-4 -15 -17.5 -25t-27.5 -10q-17 0 -25.5 12 t-3.5 27zM932 1583q4 15 18 25t29 10t23.5 -12t3.5 -27q-4 -15 -17.5 -25t-27.5 -10q-17 0 -25.5 12t-3.5 27z" />
<glyph unicode="&#xcc;" horiz-adv-x="620" d="M-94 0l2 8l203 12l399 1393l-195 12l2 9h420l-2 -9l-203 -12l-399 -1393l195 -12l-2 -8h-420zM467 1835l256 -291h20l-241 291h-35z" />
<glyph unicode="&#xcd;" horiz-adv-x="620" d="M-94 0l2 8l203 12l399 1393l-195 12l2 9h420l-2 -9l-203 -12l-399 -1393l195 -12l-2 -8h-420zM362 1544h19l424 291h-35z" />
<glyph unicode="&#xce;" horiz-adv-x="620" d="M-94 0l2 8l203 12l399 1393l-195 12l2 9h420l-2 -9l-203 -12l-399 -1393l195 -12l-2 -8h-420zM217 1542l410 291h32l242 -291h-18l-244 277l-403 -277h-19z" />
<glyph unicode="&#xcf;" horiz-adv-x="620" d="M-94 0l2 8l203 12l399 1393l-195 12l2 9h420l-2 -9l-203 -12l-399 -1393l195 -12l-2 -8h-420zM479 1583q4 15 18 25t29 10t23.5 -12t3.5 -27q-4 -15 -17.5 -25t-27.5 -10q-17 0 -25.5 12t-3.5 27zM590 1583q4 15 18 25t29 10t23.5 -12t3.5 -27q-4 -15 -18 -25t-28 -10 q-17 0 -25 12t-3 27z" />
<glyph unicode="&#xd0;" horiz-adv-x="1540" d="M-94 0l2 8l203 12l198 695h-270l8 22h268l195 676l-195 12l2 9h613q102 0 190.5 -26t154.5 -73t113 -113.5t69.5 -145.5t20.5 -171.5t-30 -189.5q-56 -195 -196 -358.5t-334 -260t-398 -96.5h-614zM131 10h377q193 0 384.5 94t335.5 257.5t199 357.5q28 97 28.5 189 t-24 169t-72 142t-113 109.5t-150.5 69.5t-181 25h-378l-197 -686h356l-8 -22h-354z" />
<glyph unicode="&#xd1;" horiz-adv-x="1538" d="M-94 0l2 8l203 12l399 1393l-195 12l2 9h222l528 -1379l389 1358l-194 12l2 9h411l-2 -9l-200 -12l-408 -1413h-4l-537 1413l-397 -1393l195 -12l-3 -8h-413zM715 1544q32 114 93 166.5t124 52.5q39 0 69.5 -21.5t49.5 -52t36.5 -61.5t42.5 -52.5t56 -21.5q68 0 124 55.5 t85 155.5l10 -4q-64 -219 -223 -219q-42 0 -73 21.5t-49 52t-34.5 61.5t-39 52.5t-52.5 21.5q-76 0 -130.5 -64t-78.5 -147z" />
<glyph unicode="&#xd2;" d="M179.5 489.5q-2.5 108.5 29.5 229.5q57 197 199.5 363.5t335.5 263t389 96.5q118 0 217 -37t167 -103.5t109.5 -157.5t43.5 -199.5t-30 -229.5q-57 -198 -199 -364t-334 -262.5t-388 -96.5q-118 0 -217.5 37t-167.5 103.5t-110 157.5t-44.5 199.5zM199.5 489.5 q1.5 -106.5 41.5 -196t105.5 -154.5t162 -101t210.5 -36q142 0 287.5 57t266 153t213 228.5t134.5 278.5q31 119 29.5 225.5t-41.5 196t-105.5 154.5t-162 101t-210.5 36q-142 0 -287.5 -57t-266 -153t-213 -228.5t-134.5 -278.5q-31 -119 -29.5 -225.5zM1001 1835l256 -291 h21l-242 291h-35z" />
<glyph unicode="&#xd3;" d="M179.5 489.5q-2.5 108.5 29.5 229.5q57 197 199.5 363.5t335.5 263t389 96.5q118 0 217 -37t167 -103.5t109.5 -157.5t43.5 -199.5t-30 -229.5q-57 -198 -199 -364t-334 -262.5t-388 -96.5q-118 0 -217.5 37t-167.5 103.5t-110 157.5t-44.5 199.5zM199.5 489.5 q1.5 -106.5 41.5 -196t105.5 -154.5t162 -101t210.5 -36q142 0 287.5 57t266 153t213 228.5t134.5 278.5q31 119 29.5 225.5t-41.5 196t-105.5 154.5t-162 101t-210.5 36q-142 0 -287.5 -57t-266 -153t-213 -228.5t-134.5 -278.5q-31 -119 -29.5 -225.5zM1040 1544h19 l424 291h-35z" />
<glyph unicode="&#xd4;" d="M179.5 489.5q-2.5 108.5 29.5 229.5q57 197 199.5 363.5t335.5 263t389 96.5q118 0 217 -37t167 -103.5t109.5 -157.5t43.5 -199.5t-30 -229.5q-57 -198 -199 -364t-334 -262.5t-388 -96.5q-118 0 -217.5 37t-167.5 103.5t-110 157.5t-44.5 199.5zM199.5 489.5 q1.5 -106.5 41.5 -196t105.5 -154.5t162 -101t210.5 -36q142 0 287.5 57t266 153t213 228.5t134.5 278.5q31 119 29.5 225.5t-41.5 196t-105.5 154.5t-162 101t-210.5 36q-142 0 -287.5 -57t-266 -153t-213 -228.5t-134.5 -278.5q-31 -119 -29.5 -225.5zM819 1542l410 291 h33l241 -291h-18l-244 277l-403 -277h-19z" />
<glyph unicode="&#xd5;" d="M179.5 489.5q-2.5 108.5 29.5 229.5q57 197 199.5 363.5t335.5 263t389 96.5q118 0 217 -37t167 -103.5t109.5 -157.5t43.5 -199.5t-30 -229.5q-57 -198 -199 -364t-334 -262.5t-388 -96.5q-118 0 -217.5 37t-167.5 103.5t-110 157.5t-44.5 199.5zM199.5 489.5 q1.5 -106.5 41.5 -196t105.5 -154.5t162 -101t210.5 -36q142 0 287.5 57t266 153t213 228.5t134.5 278.5q31 119 29.5 225.5t-41.5 196t-105.5 154.5t-162 101t-210.5 36q-142 0 -287.5 -57t-266 -153t-213 -228.5t-134.5 -278.5q-31 -119 -29.5 -225.5zM848 1544 q32 114 93 166.5t124 52.5q39 0 69.5 -21.5t49.5 -52t36.5 -61.5t42.5 -52.5t56 -21.5q68 0 124 55.5t85 155.5l10 -4q-64 -219 -223 -219q-42 0 -73 21.5t-49 52t-34.5 61.5t-39 52.5t-52.5 21.5q-76 0 -130.5 -64t-78.5 -147z" />
<glyph unicode="&#xd6;" d="M179.5 489.5q-2.5 108.5 29.5 229.5q57 197 199.5 363.5t335.5 263t389 96.5q118 0 217 -37t167 -103.5t109.5 -157.5t43.5 -199.5t-30 -229.5q-57 -198 -199 -364t-334 -262.5t-388 -96.5q-118 0 -217.5 37t-167.5 103.5t-110 157.5t-44.5 199.5zM199.5 489.5 q1.5 -106.5 41.5 -196t105.5 -154.5t162 -101t210.5 -36q142 0 287.5 57t266 153t213 228.5t134.5 278.5q31 119 29.5 225.5t-41.5 196t-105.5 154.5t-162 101t-210.5 36q-142 0 -287.5 -57t-266 -153t-213 -228.5t-134.5 -278.5q-31 -119 -29.5 -225.5zM1081 1583 q4 15 18 25t29 10t23.5 -12t3.5 -27q-4 -15 -17.5 -25t-27.5 -10q-17 0 -25.5 12t-3.5 27zM1192 1583q4 15 18 25t29 10t23.5 -12t3.5 -27q-4 -15 -17.5 -25t-27.5 -10q-17 0 -25.5 12t-3.5 27z" />
<glyph unicode="&#xd7;" horiz-adv-x="657" d="M41 260l8 -14l285 221l160 -221l20 14l-158 223l285 222l-10 14l-285 -221l-160 221l-18 -14l158 -222z" />
<glyph unicode="&#xd8;" d="M239.5 349q-49.5 166 6.5 370q57 197 199.5 363.5t335 263t388.5 96.5q182 0 316 -86l63 78h21l-72 -86q137 -95 186.5 -262t-6.5 -371q-57 -198 -199 -364t-334 -262.5t-388 -96.5q-184 0 -318 86l-65 -78h-21l74 88q-137 95 -186.5 261zM257 353.5 q46 -161.5 177 -255.5l1041 1248q-128 86 -308 86q-142 0 -287.5 -57t-266 -153t-213 -228.5t-134.5 -278.5q-55 -200 -9 -361.5zM446 88q131 -86 310 -86q142 0 287.5 57t266 153t213 228.5t134.5 278.5q55 200 9 362t-177 256z" />
<glyph unicode="&#xd9;" horiz-adv-x="1630" d="M437.5 371q0.5 85 27.5 180l248 862l-195 12l2 9h420l-2 -9l-205 -12l-244 -858q-49 -175 -14 -295t134.5 -183t246.5 -63q254 0 440 162t273 467l221 770l-193 12l2 9h412l-2 -9l-203 -12l-225 -786q-41 -144 -106.5 -257t-138 -183t-158.5 -115t-165 -62.5t-161 -17.5 q-101 0 -180.5 27.5t-130.5 78t-77.5 119.5t-26 154zM1151 1835l256 -291h20l-241 291h-35z" />
<glyph unicode="&#xda;" horiz-adv-x="1630" d="M437.5 371q0.5 85 27.5 180l248 862l-195 12l2 9h420l-2 -9l-205 -12l-244 -858q-49 -175 -14 -295t134.5 -183t246.5 -63q254 0 440 162t273 467l221 770l-193 12l2 9h412l-2 -9l-203 -12l-225 -786q-41 -144 -106.5 -257t-138 -183t-158.5 -115t-165 -62.5t-161 -17.5 q-101 0 -180.5 27.5t-130.5 78t-77.5 119.5t-26 154zM1137 1544h18l424 291h-35z" />
<glyph unicode="&#xdb;" horiz-adv-x="1630" d="M437.5 371q0.5 85 27.5 180l248 862l-195 12l2 9h420l-2 -9l-205 -12l-244 -858q-49 -175 -14 -295t134.5 -183t246.5 -63q254 0 440 162t273 467l221 770l-193 12l2 9h412l-2 -9l-203 -12l-225 -786q-41 -144 -106.5 -257t-138 -183t-158.5 -115t-165 -62.5t-161 -17.5 q-101 0 -180.5 27.5t-130.5 78t-77.5 119.5t-26 154zM954 1542l410 291h33l241 -291h-18l-244 277l-403 -277h-19z" />
<glyph unicode="&#xdc;" horiz-adv-x="1630" d="M437.5 371q0.5 85 27.5 180l248 862l-195 12l2 9h420l-2 -9l-205 -12l-244 -858q-49 -175 -14 -295t134.5 -183t246.5 -63q254 0 440 162t273 467l221 770l-193 12l2 9h412l-2 -9l-203 -12l-225 -786q-41 -144 -106.5 -257t-138 -183t-158.5 -115t-165 -62.5t-161 -17.5 q-101 0 -180.5 27.5t-130.5 78t-77.5 119.5t-26 154zM1217 1583q4 15 18 25t29 10t23 -12t3 -27q-4 -15 -17.5 -25t-27.5 -10q-17 0 -25 12t-3 27zM1327 1583q4 15 18 25t29 10t23.5 -12t3.5 -27q-4 -15 -17.5 -25t-27.5 -10q-17 0 -25.5 12t-3.5 27z" />
<glyph unicode="&#xdd;" horiz-adv-x="1361" d="M557 1425l2 9h420l-2 -9l-203 -12l166 -954l727 954l-194 12l2 9h413l-2 -9l-203 -12l-739 -977l-121 -416l195 -12l-2 -8h-420l2 8l203 12l121 416l-170 977zM1122 1544h19l424 291h-35z" />
<glyph unicode="&#xde;" horiz-adv-x="1228" d="M-94 0l2 8l203 12l399 1393l-195 12l2 9h420l-2 -9l-203 -12l-79 -283h419q82 0 148 -33t103.5 -90t49.5 -132.5t-14 -159.5q-50 -170 -205 -291t-325 -121h-414l-82 -283l195 -12l-2 -8h-420zM219 315h410q162 0 310 118.5t198 285.5q49 167 -32.5 284t-244.5 117h-409z " />
<glyph unicode="&#xdf;" horiz-adv-x="1374" d="M-197 0l2 8l203 12l320 1115q40 140 147 223.5t223 83.5q112 0 167.5 -67t21.5 -183q-13 -48 -47 -91.5t-60.5 -64.5t-68.5 -49q-43 -26 -54.5 -33.5t-44.5 -31t-46.5 -39t-30.5 -41.5t-25 -54q-7 -25 -7.5 -47.5t4.5 -40.5t17.5 -33.5t27.5 -28t38.5 -24t46 -20 t55 -17.5t61 -15.5t66.5 -14.5q42 -9 76.5 -18t69.5 -21t62 -26t51 -31t39 -38t24 -45.5t8.5 -54t-10.5 -63.5q-34 -121 -158 -189.5t-309 -68.5q-62 0 -130 20.5t-118 61.5q-60 44 -78 125l6 -4q17 -62 72.5 -107t120 -64.5t127.5 -19.5q165 0 286.5 62.5t155.5 183.5 q9 32 10 60t-7 50.5t-21.5 41.5t-35.5 34t-47 27.5t-58 23t-65 19t-73 16.5q-41 9 -73.5 17t-66 18t-59 20t-49.5 23t-40.5 27t-29 31.5t-18 37.5t-5 44t8.5 51q8 25 21.5 47.5t26.5 38t37 34.5t39.5 29t47.5 30.5t48 30.5q140 84 174 201q26 94 -27.5 155.5t-157.5 61.5 q-105 0 -207.5 -83t-140.5 -218l-315 -1098l194 -12l-2 -8h-420z" />
<glyph unicode="&#xe0;" horiz-adv-x="1320" d="M116 305.5q-13 95.5 21 206.5q63 221 248.5 370.5t392.5 149.5q129 0 220.5 -75.5t121.5 -194.5l76 262h23l-289 -1004l194 -12l-2 -8h-221l74 256q-91 -116 -226.5 -190t-265.5 -74q-101 0 -181.5 39.5t-126.5 109t-59 165zM150 253q29 -110 118.5 -174.5t218.5 -64.5 q134 0 267.5 73.5t228.5 195.5l131 460q-23 123 -114 195t-226 72q-196 0 -375.5 -145t-240.5 -357q-37 -145 -8 -255zM653 1419l256 -291h21l-242 291h-35z" />
<glyph unicode="&#xe1;" horiz-adv-x="1148" d="M116 305.5q-13 95.5 21 206.5q63 221 248.5 370.5t392.5 149.5q129 0 220.5 -75.5t121.5 -194.5l76 262h23l-289 -1004l194 -12l-2 -8h-221l74 256q-91 -116 -226.5 -190t-265.5 -74q-101 0 -181.5 39.5t-126.5 109t-59 165zM150 253q29 -110 118.5 -174.5t218.5 -64.5 q134 0 267.5 73.5t228.5 195.5l131 460q-23 123 -114 195t-226 72q-196 0 -375.5 -145t-240.5 -357q-37 -145 -8 -255zM676 1128h18l424 291h-35z" />
<glyph unicode="&#xe2;" horiz-adv-x="1320" d="M116 305.5q-13 95.5 21 206.5q63 221 248.5 370.5t392.5 149.5q129 0 220.5 -75.5t121.5 -194.5l76 262h23l-289 -1004l194 -12l-2 -8h-221l74 256q-91 -116 -226.5 -190t-265.5 -74q-101 0 -181.5 39.5t-126.5 109t-59 165zM150 253q29 -110 118.5 -174.5t218.5 -64.5 q134 0 267.5 73.5t228.5 195.5l131 460q-23 123 -114 195t-226 72q-196 0 -375.5 -145t-240.5 -357q-37 -145 -8 -255zM418 1128l409 291h33l242 -291h-19l-243 277l-404 -277h-18z" />
<glyph unicode="&#xe3;" horiz-adv-x="1320" d="M116 305.5q-13 95.5 21 206.5q63 221 248.5 370.5t392.5 149.5q129 0 220.5 -75.5t121.5 -194.5l76 262h23l-289 -1004l194 -12l-2 -8h-221l74 256q-91 -116 -226.5 -190t-265.5 -74q-101 0 -181.5 39.5t-126.5 109t-59 165zM150 253q29 -110 118.5 -174.5t218.5 -64.5 q134 0 267.5 73.5t228.5 195.5l131 460q-23 123 -114 195t-226 72q-196 0 -375.5 -145t-240.5 -357q-37 -145 -8 -255zM504 1130q32 114 93 167t124 53q39 0 69.5 -21.5t49.5 -52t36.5 -61.5t42.5 -52.5t56 -21.5q68 0 124 55.5t85 155.5l10 -4q-32 -109 -89 -164.5 t-134 -55.5q-42 0 -73 21.5t-49 52t-34.5 61.5t-39 52.5t-52.5 21.5q-76 0 -130.5 -64t-78.5 -147z" />
<glyph unicode="&#xe4;" horiz-adv-x="1320" d="M116 305.5q-13 95.5 21 206.5q63 221 248.5 370.5t392.5 149.5q129 0 220.5 -75.5t121.5 -194.5l76 262h23l-289 -1004l194 -12l-2 -8h-221l74 256q-91 -116 -226.5 -190t-265.5 -74q-101 0 -181.5 39.5t-126.5 109t-59 165zM150 253q29 -110 118.5 -174.5t218.5 -64.5 q134 0 267.5 73.5t228.5 195.5l131 460q-23 123 -114 195t-226 72q-196 0 -375.5 -145t-240.5 -357q-37 -145 -8 -255zM745 1206q4 15 18.5 25t29.5 10t23 -12t3 -27q-4 -15 -17.5 -25t-27.5 -10q-17 0 -25.5 12t-3.5 27zM856 1206q4 15 18 25t29 10t23.5 -12t3.5 -27 q-4 -15 -17.5 -25t-27.5 -10q-17 0 -25.5 12t-3.5 27z" />
<glyph unicode="&#xe5;" horiz-adv-x="1320" d="M116 305.5q-13 95.5 21 206.5q63 221 248.5 370.5t392.5 149.5q129 0 220.5 -75.5t121.5 -194.5l76 262h23l-289 -1004l194 -12l-2 -8h-221l74 256q-91 -116 -226.5 -190t-265.5 -74q-101 0 -181.5 39.5t-126.5 109t-59 165zM150 253q29 -110 118.5 -174.5t218.5 -64.5 q134 0 267.5 73.5t228.5 195.5l131 460q-23 123 -114 195t-226 72q-196 0 -375.5 -145t-240.5 -357q-37 -145 -8 -255zM778 1264q-15 -56 13.5 -96t85.5 -40t110 42t68 98q15 57 -12.5 97t-84.5 40t-110 -42t-70 -99zM803 1270q14 48 58.5 85.5t90.5 37.5q45 0 68.5 -39.5 t9.5 -87.5t-58 -86.5t-89 -38.5q-46 0 -70 40.5t-10 88.5z" />
<glyph unicode="&#xe6;" horiz-adv-x="2152" d="M116 305.5q-13 95.5 21 206.5q63 221 248.5 370.5t392.5 149.5q129 0 220.5 -75.5t121.5 -194.5l76 262h23l-103 -352q96 161 258.5 260.5t333.5 99.5q151 0 253.5 -81.5t127.5 -213.5h-899q-81 -101 -119 -227q-32 -105 -18.5 -196t59.5 -157.5t125.5 -104.5t179.5 -38 q186 0 365 122t254 300l10 -4q-80 -188 -260 -314t-373 -126q-171 0 -277.5 102t-109.5 264l-102 -358h-23l74 256q-91 -116 -226.5 -190t-265.5 -74q-101 0 -181.5 39.5t-126.5 109t-59 165zM150 253q29 -110 118.5 -174.5t218.5 -64.5q134 0 267.5 73.5t228.5 195.5 l131 460q-23 123 -114 195t-226 72q-196 0 -375.5 -145t-240.5 -357q-37 -145 -8 -255zM1200 750l862 4q-30 117 -124.5 186.5t-233.5 69.5q-136 0 -272 -71t-232 -189z" />
<glyph unicode="&#xe7;" horiz-adv-x="1241" d="M126 315.5q-12 91.5 19 194.5q40 142 142.5 260.5t239 186t276.5 67.5h229l142 -262l-11 -6l-143 245h-221q-202 0 -387.5 -144.5t-245.5 -350.5q-31 -104 -16.5 -193.5t60 -156t125 -104.5t179.5 -38q186 0 365 122t254 300l10 -4q-80 -188 -260 -314t-373 -126h-23 l-129 -139q53 43 117 43q53 0 84 -30.5t12 -92.5q-28 -102 -138.5 -172.5t-242.5 -81.5l3 8q127 13 229.5 85t128.5 163q29 108 -82 108q-66 0 -121 -51l-29 -2l154 164q-96 7 -172 49.5t-119.5 111.5t-55.5 160.5z" />
<glyph unicode="&#xe8;" horiz-adv-x="1241" d="M123 309q-15 95 18 205q63 219 255 368.5t405 149.5q151 0 253.5 -81.5t127.5 -213.5h-899q-81 -101 -119 -227q-31 -105 -17.5 -196t59 -157.5t125 -104.5t179.5 -38q186 0 364.5 122t253.5 300l11 -4q-80 -188 -260 -314t-373 -126q-104 0 -188 40.5t-132 111 t-63 165.5zM293 750l862 4q-30 117 -124.5 186.5t-233.5 69.5q-136 0 -272 -71t-232 -189zM743 1419l256 -291h21l-242 291h-35z" />
<glyph unicode="&#xe9;" horiz-adv-x="1241" d="M123 309q-15 95 18 205q63 219 255 368.5t405 149.5q151 0 253.5 -81.5t127.5 -213.5h-899q-81 -101 -119 -227q-31 -105 -17.5 -196t59 -157.5t125 -104.5t179.5 -38q186 0 364.5 122t253.5 300l11 -4q-80 -188 -260 -314t-373 -126q-104 0 -188 40.5t-132 111 t-63 165.5zM293 750l862 4q-30 117 -124.5 186.5t-233.5 69.5q-136 0 -272 -71t-232 -189zM662 1128h18l424 291h-35z" />
<glyph unicode="&#xea;" horiz-adv-x="1241" d="M123 309q-15 95 18 205q63 219 255 368.5t405 149.5q151 0 253.5 -81.5t127.5 -213.5h-899q-81 -101 -119 -227q-31 -105 -17.5 -196t59 -157.5t125 -104.5t179.5 -38q186 0 364.5 122t253.5 300l11 -4q-80 -188 -260 -314t-373 -126q-104 0 -188 40.5t-132 111 t-63 165.5zM293 750l862 4q-30 117 -124.5 186.5t-233.5 69.5q-136 0 -272 -71t-232 -189zM502 1128l409 291h33l242 -291h-19l-243 277l-404 -277h-18z" />
<glyph unicode="&#xeb;" horiz-adv-x="1241" d="M123 309q-15 95 18 205q63 219 255 368.5t405 149.5q151 0 253.5 -81.5t127.5 -213.5h-899q-81 -101 -119 -227q-31 -105 -17.5 -196t59 -157.5t125 -104.5t179.5 -38q186 0 364.5 122t253.5 300l11 -4q-80 -188 -260 -314t-373 -126q-104 0 -188 40.5t-132 111 t-63 165.5zM293 750l862 4q-30 117 -124.5 186.5t-233.5 69.5q-136 0 -272 -71t-232 -189zM750 1206q4 15 18 25t29 10t23 -12t3 -27q-4 -15 -17.5 -25t-27.5 -10q-17 0 -25 12t-3 27zM860 1206q4 15 18 25t29 10t23.5 -12t3.5 -27q-4 -15 -17.5 -25t-27.5 -10 q-17 0 -25.5 12t-3.5 27z" />
<glyph unicode="&#xec;" horiz-adv-x="571" d="M-123 0l2 8l203 12l280 975l-233 -135l-6 6l248 158h22l-289 -1004l195 -12l-2 -8h-420zM279 1419l256 -291h20l-242 291h-34z" />
<glyph unicode="&#xed;" horiz-adv-x="571" d="M-123 0l2 8l203 12l280 975l-233 -135l-6 6l248 158h22l-289 -1004l195 -12l-2 -8h-420zM229 1128h19l424 291h-35z" />
<glyph unicode="&#xee;" horiz-adv-x="571" d="M-123 0l2 8l203 12l280 975l-233 -135l-6 6l248 158h22l-289 -1004l195 -12l-2 -8h-420zM78 1128l409 291h33l242 -291h-19l-243 277l-404 -277h-18z" />
<glyph unicode="&#xef;" horiz-adv-x="571" d="M-123 0l2 8l203 12l280 975l-233 -135l-6 6l248 158h22l-289 -1004l195 -12l-2 -8h-420zM340 1206q4 15 18 25t29 10t23.5 -12t3.5 -27q-4 -15 -17.5 -25t-27.5 -10q-17 0 -25.5 12t-3.5 27zM451 1206q4 15 18 25t29 10t23 -12t3 -27q-4 -15 -17.5 -25t-27.5 -10 q-17 0 -25 12t-3 27z" />
<glyph unicode="&#xf0;" horiz-adv-x="1228" d="M115 247q-32 116 6 267q42 146 144.5 265t238.5 186t276 67q163 0 268 -91t119 -239q40 339 -155 527l-232 -76v14l221 74q-153 142 -446 193v4q303 -47 467 -191l211 70v-14l-201 -66q253 -240 113 -727q-42 -146 -145 -265t-239 -186t-276 -67t-239 69.5t-131 185.5z M143 510q-62 -216 38 -362t304 -146t389 147.5t248 364.5q62 216 -38 362t-304 146t-389 -147.5t-248 -364.5z" />
<glyph unicode="&#xf1;" horiz-adv-x="1333" d="M-123 0l2 8l203 12l280 975l-233 -135l-6 6l248 158h22l-88 -303q67 135 200.5 223t276.5 88q170 0 247.5 -112.5t27.5 -286.5l-176 -613l194 -12l-2 -8h-420l2 8l203 12l176 617q47 166 -24 269.5t-232 103.5q-103 0 -207.5 -51t-182.5 -139t-107 -189l-177 -611 l195 -12l-2 -8h-420zM489 1130q32 114 93.5 167t124.5 53q39 0 69.5 -21.5t49.5 -52t36.5 -61.5t42.5 -52.5t56 -21.5q68 0 123.5 55.5t84.5 155.5l11 -4q-32 -109 -89.5 -164.5t-134.5 -55.5q-42 0 -73 21.5t-49 52t-34 61.5t-38.5 52.5t-52.5 21.5q-76 0 -130.5 -64 t-78.5 -147z" />
<glyph unicode="&#xf2;" horiz-adv-x="1249" d="M123 307.5q-15 95.5 18 206.5q42 146 145 265t239 186t276 67t239 -69.5t131 -185.5t-6 -267q-42 -146 -144.5 -265t-238.5 -186t-276 -67q-105 0 -188.5 40t-131.5 110t-63 165.5zM164 510q-62 -216 38 -362t304 -146t389 147.5t248 364.5q62 216 -38 362t-304 146 t-389 -147.5t-248 -364.5zM694 1419l256 -291h21l-242 291h-35z" />
<glyph unicode="&#xf3;" horiz-adv-x="1249" d="M123 307.5q-15 95.5 18 206.5q42 146 145 265t239 186t276 67t239 -69.5t131 -185.5t-6 -267q-42 -146 -144.5 -265t-238.5 -186t-276 -67q-105 0 -188.5 40t-131.5 110t-63 165.5zM164 510q-62 -216 38 -362t304 -146t389 147.5t248 364.5q62 216 -38 362t-304 146 t-389 -147.5t-248 -364.5zM680 1128h18l424 291h-35z" />
<glyph unicode="&#xf4;" horiz-adv-x="1249" d="M123 307.5q-15 95.5 18 206.5q42 146 145 265t239 186t276 67t239 -69.5t131 -185.5t-6 -267q-42 -146 -144.5 -265t-238.5 -186t-276 -67q-105 0 -188.5 40t-131.5 110t-63 165.5zM164 510q-62 -216 38 -362t304 -146t389 147.5t248 364.5q62 216 -38 362t-304 146 t-389 -147.5t-248 -364.5zM492 1128l409 291h33l242 -291h-19l-244 277l-403 -277h-18z" />
<glyph unicode="&#xf5;" horiz-adv-x="1249" d="M123 307.5q-15 95.5 18 206.5q42 146 145 265t239 186t276 67t239 -69.5t131 -185.5t-6 -267q-42 -146 -144.5 -265t-238.5 -186t-276 -67q-105 0 -188.5 40t-131.5 110t-63 165.5zM164 510q-62 -216 38 -362t304 -146t389 147.5t248 364.5q62 216 -38 362t-304 146 t-389 -147.5t-248 -364.5zM516 1130q32 114 93 167t124 53q39 0 69.5 -21.5t49.5 -52t36.5 -61.5t42.5 -52.5t56 -21.5q68 0 124 55.5t85 155.5l10 -4q-32 -109 -89 -164.5t-134 -55.5q-42 0 -73 21.5t-49 52t-34.5 61.5t-39 52.5t-52.5 21.5q-76 0 -130.5 -64t-78.5 -147z " />
<glyph unicode="&#xf6;" horiz-adv-x="1249" d="M123 307.5q-15 95.5 18 206.5q42 146 145 265t239 186t276 67t239 -69.5t131 -185.5t-6 -267q-42 -146 -144.5 -265t-238.5 -186t-276 -67q-105 0 -188.5 40t-131.5 110t-63 165.5zM164 510q-62 -216 38 -362t304 -146t389 147.5t248 364.5q62 216 -38 362t-304 146 t-389 -147.5t-248 -364.5zM760 1206q4 15 18 25t29 10t23.5 -12t3.5 -27q-4 -15 -18 -25t-28 -10q-17 0 -25 12t-3 27zM870 1206q4 15 18.5 25t29.5 10t23 -12t3 -27q-4 -15 -17.5 -25t-27.5 -10q-17 0 -25.5 12t-3.5 27z" />
<glyph unicode="&#xf7;" horiz-adv-x="831" d="M160 471l6 23h647l-6 -23h-647zM358 162q4 15 17.5 25t27.5 10q17 0 24.5 -11.5t2.5 -27.5q-3 -15 -16.5 -25t-28.5 -10t-23.5 12t-3.5 27zM543 807q4 15 17.5 25t27.5 10q17 0 25 -12t3 -27q-4 -15 -17.5 -25t-27.5 -10q-17 0 -25 12t-3 27z" />
<glyph unicode="&#xf8;" horiz-adv-x="1249" d="M164 246q-34 118 6 268q42 146 144.5 265t238.5 186t276 67q131 0 226 -61l45 53h20l-51 -61q97 -67 131 -185t-6 -268q-42 -146 -144.5 -265t-238.5 -186t-276 -67q-131 0 -226 61l-45 -53h-20l51 61q-97 67 -131 185zM183.5 251q29.5 -113 119.5 -179l744 889 q-89 61 -218 61q-204 0 -388.5 -147.5t-247.5 -364.5q-39 -146 -9.5 -259zM317 63q89 -61 218 -61q204 0 388.5 147.5t247.5 364.5q39 146 9.5 259t-119.5 179z" />
<glyph unicode="&#xf9;" horiz-adv-x="1327" d="M352 1016l2 8h221l-182 -637q-47 -166 24 -269.5t232 -103.5q103 0 207.5 51t183 139t107.5 189l176 611l-195 12l2 8h222l-289 -1004l194 -12l-2 -8h-221l88 303q-67 -135 -200.5 -223t-276.5 -88q-170 0 -247 112.5t-27 286.5l176 613zM770 1419l256 -291h21l-242 291 h-35z" />
<glyph unicode="&#xfa;" horiz-adv-x="1327" d="M352 1016l2 8h221l-182 -637q-47 -166 24 -269.5t232 -103.5q103 0 207.5 51t183 139t107.5 189l176 611l-195 12l2 8h222l-289 -1004l194 -12l-2 -8h-221l88 303q-67 -135 -200.5 -223t-276.5 -88q-170 0 -247 112.5t-27 286.5l176 613zM780 1128h19l424 291h-35z" />
<glyph unicode="&#xfb;" horiz-adv-x="1327" d="M352 1016l2 8h221l-182 -637q-47 -166 24 -269.5t232 -103.5q103 0 207.5 51t183 139t107.5 189l176 611l-195 12l2 8h222l-289 -1004l194 -12l-2 -8h-221l88 303q-67 -135 -200.5 -223t-276.5 -88q-170 0 -247 112.5t-27 286.5l176 613zM635 1128l409 291h33l242 -291 h-19l-243 277l-404 -277h-18z" />
<glyph unicode="&#xfc;" horiz-adv-x="1327" d="M352 1016l2 8h221l-182 -637q-47 -166 24 -269.5t232 -103.5q103 0 207.5 51t183 139t107.5 189l176 611l-195 12l2 8h222l-289 -1004l194 -12l-2 -8h-221l88 303q-67 -135 -200.5 -223t-276.5 -88q-170 0 -247 112.5t-27 286.5l176 613zM899 1206q4 15 18 25t29 10 t23.5 -12t3.5 -27q-4 -15 -17.5 -25t-27.5 -10q-17 0 -25.5 12t-3.5 27zM1010 1206q4 15 18 25t29 10t23 -12t3 -27q-4 -15 -17.5 -25t-27.5 -10q-17 0 -25 12t-3 27z" />
<glyph unicode="&#xfd;" horiz-adv-x="1198" d="M-164 -449q55 4 103.5 24.5t92.5 52.5t97.5 92t103.5 125t125 171l-129 988l-143 12l2 8h324l-2 -8l-152 -12l125 -965l690 965l-143 12l2 8h309l-2 -8l-152 -12l-710 -994q-80 -112 -130 -177t-105.5 -126t-99.5 -91t-94.5 -48t-109.5 -19zM549 1128h18l424 291h-35z " />
<glyph unicode="&#xfe;" horiz-adv-x="1318" d="M-430 -496l2 9l203 12l538 1880l-233 -135l-6 6l248 158h22l-192 -668q98 119 231 192.5t262 73.5q101 0 181.5 -40t125.5 -110.5t58 -166.5t-21 -207q-41 -146 -140.5 -264.5t-231 -185t-267.5 -66.5q-129 0 -223 75.5t-119 192.5l-211 -735l195 -12l-2 -9h-420zM12 279 q25 -121 116 -193t226 -72q129 0 255.5 64.5t223 179t136.5 254.5q32 107 20 198t-55.5 158t-120 104.5t-172.5 37.5q-135 0 -268 -74t-228 -197z" />
<glyph unicode="&#xff;" horiz-adv-x="1198" d="M-164 -449q55 4 103.5 24.5t92.5 52.5t97.5 92t103.5 125t125 171l-129 988l-143 12l2 8h324l-2 -8l-152 -12l125 -965l690 965l-143 12l2 8h309l-2 -8l-152 -12l-710 -994q-80 -112 -130 -177t-105.5 -126t-99.5 -91t-94.5 -48t-109.5 -19zM625 1206q4 15 18 25t29 10 t23 -12t3 -27q-4 -15 -17.5 -25t-27.5 -10q-17 0 -25 12t-3 27zM735 1206q4 15 18 25t29 10t23.5 -12t3.5 -27q-4 -15 -17.5 -25t-27.5 -10q-17 0 -25.5 12t-3.5 27z" />
<glyph unicode="&#x152;" horiz-adv-x="2021" d="M183 492.5q-3 106.5 28 226.5q42 145 136.5 277.5t218.5 228.5t272.5 152.5t294.5 56.5h927l58 -295l-11 -6l-61 280h-729l-197 -686h404l94 287h6l-168 -588h-6l70 287h-404l-198 -693h667l408 355l6 -6l-412 -369h-864q-116 0 -215.5 37t-168 102.5t-111 156t-45.5 197 zM203.5 495.5q2.5 -103.5 42.5 -190.5t105 -149.5t160.5 -97.5t207.5 -35h176l399 1388h-176q-187 0 -372 -93t-322.5 -253.5t-192.5 -349.5q-30 -116 -27.5 -219.5z" />
<glyph unicode="&#x153;" horiz-adv-x="2242" d="M123 307.5q-15 95.5 18 206.5q42 146 145 265t239 186t276 67q184 0 292 -115t93 -294q90 181 261 295t355 114q151 0 253.5 -81.5t127.5 -213.5h-899q-81 -101 -119 -227q-31 -105 -17.5 -196t59 -157.5t125 -104.5t179.5 -38q186 0 365 122t254 300l10 -4 q-80 -188 -260 -314t-373 -126q-184 0 -291 115.5t-92 293.5q-89 -181 -261 -295t-357 -114q-105 0 -188.5 40t-131.5 110t-63 165.5zM164 510q-62 -216 38 -362t304 -146t389 147.5t248 364.5q62 216 -38 362t-304 146t-389 -147.5t-248 -364.5zM1294 750l863 4 q-30 117 -125 186.5t-234 69.5q-136 0 -272 -71t-232 -189z" />
<glyph unicode="&#x178;" horiz-adv-x="1361" d="M557 1425l2 9h420l-2 -9l-203 -12l166 -954l727 954l-194 12l2 9h413l-2 -9l-203 -12l-739 -977l-121 -416l195 -12l-2 -8h-420l2 8l203 12l121 416l-170 977zM1176 1583q4 15 18 25t29 10t23 -12t3 -27q-4 -15 -17.5 -25t-27.5 -10q-17 0 -25 12t-3 27zM1286 1583 q4 15 18 25t29 10t23.5 -12t3.5 -27q-4 -15 -17.5 -25t-27.5 -10q-17 0 -25.5 12t-3.5 27z" />
<glyph unicode="&#x2c6;" horiz-adv-x="888" d="M565 1143l410 291h33l241 -291h-18l-244 276l-403 -276h-19z" />
<glyph unicode="&#x2dc;" horiz-adv-x="831" d="M606 1214q32 114 93 167t124 53q39 0 69.5 -21.5t49.5 -52t36.5 -61.5t42.5 -52.5t56 -21.5q68 0 124 55.5t85 155.5l10 -4q-32 -109 -89 -164.5t-134 -55.5q-42 0 -73 21.5t-49 52t-34.5 61.5t-39 52.5t-52.5 21.5q-76 0 -130.5 -64t-78.5 -147z" />
<glyph unicode="&#x2000;" horiz-adv-x="917" />
<glyph unicode="&#x2001;" horiz-adv-x="1835" />
<glyph unicode="&#x2002;" horiz-adv-x="917" />
<glyph unicode="&#x2003;" horiz-adv-x="1835" />
<glyph unicode="&#x2004;" horiz-adv-x="611" />
<glyph unicode="&#x2005;" horiz-adv-x="458" />
<glyph unicode="&#x2006;" horiz-adv-x="305" />
<glyph unicode="&#x2007;" horiz-adv-x="305" />
<glyph unicode="&#x2008;" horiz-adv-x="229" />
<glyph unicode="&#x2009;" horiz-adv-x="367" />
<glyph unicode="&#x200a;" horiz-adv-x="101" />
<glyph unicode="&#x2010;" horiz-adv-x="731" d="M57 471h650l6 23h-650z" />
<glyph unicode="&#x2011;" horiz-adv-x="731" d="M57 471h650l6 23h-650z" />
<glyph unicode="&#x2012;" horiz-adv-x="731" d="M57 471h650l6 23h-650z" />
<glyph unicode="&#x2013;" horiz-adv-x="972" d="M57 471h891l6 23h-891z" />
<glyph unicode="&#x2014;" horiz-adv-x="1382" d="M57 471h1301l6 23h-1301z" />
<glyph unicode="&#x2018;" horiz-adv-x="249" d="M569 1116h25l141 498h-8z" />
<glyph unicode="&#x2019;" horiz-adv-x="249" d="M578 1116h8l157 498h-24z" />
<glyph unicode="&#x201a;" horiz-adv-x="249" d="M-254 -330h8l160 498h-25z" />
<glyph unicode="&#x201c;" horiz-adv-x="387" d="M569 1116h25l141 498h-8zM707 1116h24l141 498h-8z" />
<glyph unicode="&#x201d;" horiz-adv-x="387" d="M578 1116h8l157 498h-24zM715 1116h8l158 498h-25z" />
<glyph unicode="&#x201e;" horiz-adv-x="387" d="M-254 -330h8l160 498h-25zM-117 -330h8l160 498h-24z" />
<glyph unicode="&#x2022;" horiz-adv-x="380" d="M172 561q12 42 53 72.5t86 30.5q43 0 65.5 -33t10.5 -76q-13 -44 -53.5 -76.5t-81.5 -32.5q-47 0 -70.5 34t-9.5 81z" />
<glyph unicode="&#x2026;" horiz-adv-x="696" d="M-109 37q3 15 17 25t29 10t23 -12t3 -27q-4 -15 -17.5 -25t-27.5 -10q-17 0 -25 12t-2 27zM117 37q3 15 16.5 25t28.5 10t23 -12t3 -27q-4 -15 -17.5 -25t-27.5 -10q-17 0 -24.5 12t-1.5 27zM342 37q3 15 16.5 25t28.5 10t23.5 -12t3.5 -27q-4 -15 -17.5 -25t-27.5 -10 q-17 0 -25 12t-2 27z" />
<glyph unicode="&#x202f;" horiz-adv-x="367" />
<glyph unicode="&#x2039;" horiz-adv-x="761" d="M176 662l770 561h19l-766 -561l442 -562h-16z" />
<glyph unicode="&#x203a;" horiz-adv-x="761" d="M-57 100l766 562l-443 561h15l450 -561l-772 -562h-16z" />
<glyph unicode="&#x205f;" horiz-adv-x="458" />
<glyph unicode="&#x20ac;" horiz-adv-x="1718" d="M283 573l4 19l162 2q10 67 26 125q15 55 47 127l-164 -2l7 18l165 2q123 247 366.5 408.5t500.5 161.5h241l199 -371l-10 -6l-203 354h-233q-247 0 -482.5 -157t-353.5 -394l459 2l-6 -18l-463 -2q-30 -67 -49 -127q-14 -51 -25 -125l465 2l-4 -19l-463 -2 q-20 -243 125.5 -400t394.5 -157q127 0 251.5 48t226 130.5t183 188t132.5 223.5l8 -4q-46 -118 -126.5 -226.5t-184 -194t-233 -136.5t-261.5 -51q-170 0 -298.5 76t-190.5 209t-47 298z" />
<glyph unicode="&#x2122;" horiz-adv-x="1017" d="M561 1350l66 84h299l16 -84l-2 -2l-18 79h-146l-112 -397l55 -4v-2h-119v2l57 4l113 397h-143l-64 -79zM885 1024v2l59 4l113 397l-56 5v2h60l78 -375l288 375h64v-2l-57 -2l-113 -400l53 -4v-2h-119v2l58 4l112 395l-286 -374h-2l-78 368l-111 -389l56 -4v-2h-119z" />
<glyph unicode="&#x25fc;" horiz-adv-x="1024" d="M0 0v1024h1024v-1024h-1024z" />
<glyph unicode="&#xfb01;" horiz-adv-x="1142" d="M-729 -489l6 14l109 2q46 1 103.5 25.5t114 79.5t77.5 128l335 1176h-172l9 22l262 -2q-23 0 -52 13t-57.5 41.5t-38 72t5.5 105.5q29 102 125.5 174t202.5 72h477l-98 -299h-8l78 276h-461q-46 0 -103.5 -23t-114 -77t-77.5 -127q-31 -106 23.5 -167.5t181.5 -60.5 l444 2l-270 -938l194 -12l-2 -8h-420l2 8l203 12l262 916h-573l-338 -1180q-29 -102 -125.5 -173.5t-202.5 -71.5h-102z" />
</font>
</defs>
</svg>
