<?xml version="1.0" standalone="no"?>
<!DOCTYPE svg PUBLIC "-//W3C//DTD SVG 1.1//EN" "http://www.w3.org/Graphics/SVG/1.1/DTD/svg11.dtd" >
<svg xmlns="http://www.w3.org/2000/svg" xmlns:xlink="http://www.w3.org/1999/xlink" version="1.1">
<metadata></metadata>
<defs>
<font id="cakothin" horiz-adv-x="1638" >
<font-face units-per-em="2048" ascent="1638" descent="-410" />
<missing-glyph horiz-adv-x="675" />
<glyph horiz-adv-x="0" />
<glyph horiz-adv-x="682" />
<glyph unicode=" "  horiz-adv-x="675" />
<glyph unicode="&#x09;" horiz-adv-x="675" />
<glyph unicode="&#xa0;" horiz-adv-x="675" />
<glyph unicode="!" horiz-adv-x="385" d="M156 35q0 15 11 26t26 11t25.5 -11t10.5 -26t-10.5 -26t-25.5 -11t-26 11t-11 26zM180 1434l6 -865l2 -383h9l2 383l6 865h-25z" />
<glyph unicode="&#x22;" horiz-adv-x="385" d="M113 1614l8 -498h8l8 498h-24zM248 1614l8 -498h8l8 498h-24z" />
<glyph unicode="#" horiz-adv-x="1189" d="M61 410h271l-115 -410h21l114 410h369l-117 -410h21l116 410h254v22h-247l122 430h258v23h-251l112 395h-20l-113 -395h-369l113 395h-20l-113 -395h-274v-23h268l-123 -430h-277v-22zM358 432l123 430h369l-123 -430h-369z" />
<glyph unicode="$" horiz-adv-x="1404" d="M129 541h8l68 -396q184 -130 469 -137v746q-99 22 -167 41.5t-136 49t-108 64.5t-64.5 85t-24.5 114q0 105 71 182t182 113.5t247 38.5v162h22v-162q111 0 215.5 -20.5t171.5 -55.5l105 -391h-8l-117 391q-67 31 -170 47.5t-197 16.5v-658q7 -1 20.5 -4t20.5 -4 q98 -22 171.5 -44t145 -56.5t117 -76t73.5 -100.5t28 -131q0 -95 -47 -166.5t-129.5 -113t-182.5 -62t-217 -20.5v-150h-22v150q-143 3 -274.5 42.5t-219.5 115.5zM197 1112q0 -60 24 -108t63 -81.5t103 -61.5t129.5 -47t157.5 -38v654q-97 -2 -182 -23t-151.5 -59.5 t-105 -99.5t-38.5 -136zM696 8q109 0 203.5 18t174.5 55.5t126.5 106t46.5 160.5q0 71 -26.5 128.5t-69.5 97t-111.5 72t-138 53t-162.5 40.5q-7 1 -21.5 4.5t-21.5 4.5v-740z" />
<glyph unicode="%" horiz-adv-x="1175" d="M61 1237q0 85 60 145t145 60t145 -60t60 -145t-60 -145t-145 -60t-145 60t-60 145zM76 1237q0 -80 56 -138.5t134 -58.5t134.5 58.5t56.5 138.5t-56.5 138.5t-134.5 58.5t-134 -58.5t-56 -138.5zM117 0l921 1434h21l-922 -1434h-20zM705 197q0 85 59.5 144.5t144.5 59.5 t145 -59.5t60 -144.5t-60 -145t-145 -60t-144.5 60t-59.5 145zM719 197q0 -80 56 -138.5t134 -58.5t134.5 58.5t56.5 138.5t-56.5 138t-134.5 58t-134 -58t-56 -138z" />
<glyph unicode="&#x26;" horiz-adv-x="1880" d="M113 475q0 131 65 242t176 176t242 65q113 0 215 -51q-66 92 -66 207q0 136 97.5 232t234.5 96q72 0 140 -34t112 -91l-14 -12q-46 57 -109.5 92t-128.5 35q-137 0 -224 -94t-87 -224q0 -70 30 -137t83 -111l393 -331l338 387l8 -9l-338 -387l621 -526h-31l-602 512 l-328 -375q-69 -69 -158.5 -107t-185.5 -38q-131 0 -242 65t-176 176t-65 242zM135 475q0 -126 61.5 -235t168 -173.5t231.5 -64.5q91 0 182 39t158 106l321 371l-391 332q-138 98 -270 98q-125 0 -231.5 -64.5t-168 -173.5t-61.5 -235z" />
<glyph unicode="'" horiz-adv-x="249" d="M113 1614l8 -498h8l8 498h-24z" />
<glyph unicode="(" horiz-adv-x="450" d="M143 713q0 236 81.5 459.5t232.5 371.5h14q-156 -152 -230.5 -372.5t-74.5 -458.5q0 -237 74.5 -457.5t230.5 -372.5h-14q-151 148 -232.5 371t-81.5 459z" />
<glyph unicode=")" horiz-adv-x="450" d="M-20 -117q156 152 230.5 372.5t74.5 457.5q0 238 -74.5 458.5t-230.5 372.5h14q151 -148 232 -371t81 -460q0 -236 -81 -459t-232 -371h-14z" />
<glyph unicode="*" horiz-adv-x="497" d="M72 1106l12 -21l160 101l-8 -189h24l-8 189l162 -101l12 21l-168 88l168 88l-12 21l-162 -101l8 189h-24l8 -189l-160 101l-12 -21l166 -88z" />
<glyph unicode="+" horiz-adv-x="833" d="M92 471h314v-313h22v313h313v23h-313v313h-22v-313h-314v-23z" />
<glyph unicode="," horiz-adv-x="256" d="M-14 -330q26 55 75.5 164.5t75.5 163.5h-4q-15 0 -26 11t-11 26t11 26t26 11t26 -11t11 -26q0 -9 -4 -17l-170 -348h-10z" />
<glyph unicode="-" horiz-adv-x="731" d="M41 471h649v23h-649v-23z" />
<glyph unicode="." horiz-adv-x="245" d="M86 35q0 15 11 26t26 11t26 -11t11 -26t-11 -26t-26 -11t-26 11t-11 26z" />
<glyph unicode="/" horiz-adv-x="927" d="M61 0h21l784 1434h-20z" />
<glyph unicode="0" horiz-adv-x="1245" d="M123 717q0 214 63.5 379.5t177.5 255.5t259 90t258.5 -90t177 -255.5t63.5 -379.5t-63.5 -379.5t-177 -255.5t-258.5 -90t-259 90t-177.5 255.5t-63.5 379.5zM145 717q0 -174 39.5 -313.5t107 -225.5t152 -131t179.5 -45t179.5 45t151.5 131t106.5 225.5t39.5 313.5 t-39.5 313.5t-106.5 225.5t-151.5 131t-179.5 45t-179.5 -45t-152 -131t-107 -225.5t-39.5 -313.5z" />
<glyph unicode="1" horiz-adv-x="690" d="M20 1004l367 430h23v-1414l198 -12v-8h-420v8l199 12v1385l-358 -408z" />
<glyph unicode="2" horiz-adv-x="1114" d="M90 0v6q34 40 74.5 82t71.5 72t81 74t74 64l81 67.5t73 60.5q79 66 131.5 113t111 112t92 123t56 131t22.5 150q0 99 -34 174t-91 118t-123.5 64t-140.5 21q-68 0 -130 -13t-120 -43.5t-100 -76t-66.5 -116.5t-23.5 -159h-8v16q0 84 24.5 152.5t67 114t101 76.5t124.5 45 t140 14q185 0 293 -102t108 -279q0 -79 -23 -153t-57 -132t-95.5 -125.5t-114 -115.5t-136.5 -119q-13 -11 -68 -57.5t-75.5 -64.5t-68.5 -60.5t-77 -70.5t-68.5 -67.5t-72.5 -77.5h801l10 201h8v-219h-852z" />
<glyph unicode="3" horiz-adv-x="1069" d="M53 268h8q56 -119 173 -192.5t253 -73.5q191 0 317 108.5t126 290.5q0 167 -124 267t-308 100q-99 0 -201 -31l4 13q72 21 122 37t111 39.5t101.5 46t82 54t65.5 66t39.5 79.5t15.5 97q0 123 -87.5 193t-230.5 70q-133 0 -229 -81.5t-113 -224.5h-8q13 147 114 231.5 t240 84.5q160 0 248 -75.5t88 -197.5q0 -65 -23 -120t-62.5 -96t-100 -75.5t-126.5 -59t-151 -46.5q59 12 117 12q187 0 312.5 -106t125.5 -277q0 -124 -63 -218.5t-168 -142.5t-234 -48q-143 0 -259.5 75.5t-174.5 200.5z" />
<glyph unicode="4" horiz-adv-x="1136" d="M29 449q121 164 361.5 492.5t361.5 492.5h22v-967h293l10 201h8v-219h-311v-429l199 -12v-8h-420v8l199 12v429h-723zM63 467h689v942z" />
<glyph unicode="5" horiz-adv-x="1214" d="M127 287h8q59 -127 184.5 -206t270.5 -79q132 0 244.5 66t178.5 178t66 243q0 133 -66.5 246t-179 178.5t-243.5 65.5q-167 0 -285.5 -92t-163.5 -266l-12 10l154 803h659v-23h-643l-137 -688q52 127 165 196.5t263 69.5q136 0 254 -65.5t188 -181.5t70 -253 q0 -136 -70 -251t-188 -180.5t-254 -65.5q-152 0 -277 81.5t-186 213.5z" />
<glyph unicode="6" horiz-adv-x="1259" d="M123 512q0 63 4 118t21 138.5t46.5 153.5t86 150.5t133.5 142.5t195 117.5t265 86.5l101 19v-4l-96 -19q-317 -71 -501.5 -259t-225.5 -486q48 162 179.5 262t303.5 100q140 0 257.5 -67.5t186 -187t68.5 -265.5t-68.5 -265.5t-186 -187t-257.5 -67.5t-257.5 67.5 t-186 187t-68.5 265.5zM145 512q0 -107 39 -202t104.5 -162.5t156 -106.5t190.5 -39t190 39t156 106.5t104.5 162.5t38.5 202t-38.5 202t-104.5 162.5t-156 106.5t-190 39t-190.5 -39t-156 -106.5t-104.5 -162.5t-39 -202z" />
<glyph unicode="7" horiz-adv-x="1050" d="M117 1434h913l-176 -301q-111 -189 -331 -566.5t-330 -566.5h-25l823 1411h-854l-10 -338h-8z" />
<glyph unicode="8" horiz-adv-x="1220" d="M117 373q0 141 118.5 247t294.5 128q-158 22 -266 118t-108 226q0 97 60 177.5t164.5 126.5t229.5 46q191 0 323 -101.5t132 -248.5q0 -130 -108.5 -226t-266.5 -118q177 -22 295.5 -128t118.5 -247q0 -108 -68 -196t-181 -136.5t-245 -48.5t-245 48.5t-180.5 136.5 t-67.5 196zM137 373q0 -155 137.5 -263t335.5 -108t335.5 108t137.5 263q0 152 -136.5 260t-336.5 108t-336.5 -108t-136.5 -260zM178 1092q0 -141 124 -240.5t308 -99.5t308 99.5t124 240.5t-125.5 240.5t-306.5 99.5t-306.5 -99.5t-125.5 -240.5z" />
<glyph unicode="9" horiz-adv-x="1259" d="M113 922q0 146 68.5 265.5t186 187t257.5 67.5t257.5 -67.5t186 -187t68.5 -265.5q0 -768 -752 -908l-100 -18v4q87 16 96 18q646 160 727 746q-48 -163 -179.5 -263t-303.5 -100q-105 0 -199.5 40t-163 109t-109 166t-40.5 206zM135 922q0 -107 39 -202t104.5 -162.5 t156 -106.5t190.5 -39t190 39t156 106.5t104.5 162.5t38.5 202t-38.5 202t-104.5 162.5t-156 106.5t-190 39t-190.5 -39t-156 -106.5t-104.5 -162.5t-39 -202z" />
<glyph unicode=":" horiz-adv-x="299" d="M113 35q0 15 11 26t26 11t25.5 -11t10.5 -26t-10.5 -26t-25.5 -11t-26 11t-11 26zM113 678q0 15 11 26t26 11t25.5 -11t10.5 -26t-10.5 -26t-25.5 -11t-26 11t-11 26z" />
<glyph unicode=";" horiz-adv-x="299" d="M2 -330q26 54 76.5 163.5t75.5 164.5h-4q-15 0 -26 11t-11 26t11 26t26 11t25.5 -11t10.5 -26q0 -9 -4 -17l-170 -348h-10zM113 678q0 15 11 26t26 11t25.5 -11t10.5 -26t-10.5 -26t-25.5 -11t-26 11t-11 26z" />
<glyph unicode="&#x3c;" horiz-adv-x="741" d="M45 416l606 415v-14l-581 -401l581 -402v-14z" />
<glyph unicode="=" horiz-adv-x="970" d="M92 309v23h787v-23h-787zM92 633v22h787v-22h-787z" />
<glyph unicode="&#x3e;" horiz-adv-x="741" d="M90 0v14l582 402l-582 401v14l606 -415z" />
<glyph unicode="?" horiz-adv-x="778" d="M96 1176q24 103 92 174q47 48 103 70t104 22q157 0 249.5 -88.5t92.5 -214.5q0 -63 -20.5 -120t-53 -101.5t-72 -86t-79 -81t-72.5 -80t-54 -89.5t-21 -102q0 -49 -1.5 -146.5t-1.5 -146.5h-8l-2 293q0 56 19.5 106.5t51.5 90t71 78t77.5 79t71 84t52.5 100.5t20 122 q0 121 -90.5 202.5t-229.5 81.5q-34 0 -69.5 -9.5t-79 -33.5t-82 -76.5t-60.5 -127.5h-8zM322 35q0 15 10.5 26t25.5 11t26 -11t11 -26t-11 -26t-26 -11t-25.5 11t-10.5 26z" />
<glyph unicode="@" horiz-adv-x="1814" d="M102 608q0 168 65.5 322t176.5 265t265 177t323 66q168 0 315 -65t248 -173.5t159 -252t58 -298.5q0 -104 -38.5 -209t-117 -180.5t-176.5 -75.5q-55 0 -98 20.5t-67.5 54t-38 67.5t-17.5 71q-37 -83 -126.5 -147t-207.5 -64q-131 0 -216 100.5t-85 252.5q0 125 57.5 239 t155 184t207.5 70q108 0 185 -69.5t85 -165.5q4 33 13.5 97t13.5 97h21l-80 -561q-4 -55 15 -107t68 -90t117 -38q71 0 131.5 45t97.5 114.5t58 147t21 147.5q0 152 -56 293t-154 248t-241 171t-307 64q-165 0 -315 -65t-257.5 -174.5t-171 -260.5t-63.5 -317 q0 -222 107.5 -410t293 -297.5t406.5 -109.5q172 0 326 66.5t270 189.5h8q-117 -126 -272.5 -197t-331.5 -71q-169 0 -323 65.5t-265 176.5t-176.5 264.5t-65.5 322.5zM541 543q0 -147 81.5 -242.5t206.5 -95.5q107 0 201 63t131 156l49 342q-11 104 -84.5 176t-183.5 72 q-105 0 -199 -68t-148 -175t-54 -220v-8z" />
<glyph unicode="A" horiz-adv-x="1523" d="M-12 0v8l198 12l559 1393l-198 12v9h213l577 -1414l199 -12v-8h-414v8l199 12l-197 482h-723l-192 -482l199 -12v-8h-420zM410 522h706l-358 873z" />
<glyph unicode="B" horiz-adv-x="1259" d="M100 0v8l199 12v1393l-199 12v9h408q245 0 356 -43q201 -79 201 -293q0 -98 -54.5 -171t-139 -109.5t-187.5 -41.5q92 -2 175.5 -30.5t148.5 -79.5t103 -130t38 -174q0 -242 -234 -329q-43 -16 -104 -23.5t-112.5 -8.5t-161.5 -1h-437zM322 10h227q147 0 228 7t138 30 q207 85 207 315q0 183 -135.5 294.5t-368.5 111.5h-296v-758zM322 784h294q86 0 160 18.5t133 55.5t93 99t34 141q0 207 -178 280q-108 45 -360 45h-176v-639z" />
<glyph unicode="C" horiz-adv-x="1622" d="M102 717q0 145 57 278t153 229t229 153t278 57h316l307 -371l-8 -6l-308 354h-307q-187 0 -347 -93t-253.5 -253t-93.5 -348q0 -191 92.5 -353t252.5 -256t349 -94q172 0 323 78t250 214.5t124 303.5h12q-24 -173 -123.5 -314.5t-253.5 -222.5t-332 -81q-196 0 -361 97 t-260.5 264t-95.5 364z" />
<glyph unicode="D" horiz-adv-x="1540" d="M100 0v8l199 12v1393l-199 12v9h613q153 0 288.5 -57t230.5 -154t150.5 -228.5t55.5 -277.5t-55.5 -277.5t-150.5 -228.5t-230.5 -154t-288.5 -57h-613zM322 10h378q144 0 276 55.5t228.5 149.5t153.5 225.5t57 276.5q0 194 -96.5 356.5t-261 256t-357.5 93.5h-378v-1413 z" />
<glyph unicode="E" horiz-adv-x="1333" d="M100 0v8l199 12v1393l-199 12v9h959l141 -295l-8 -6l-141 280h-729v-686h403l12 287h6v-588h-6l-12 287h-403v-693h667l305 355l9 -6l-306 -369h-897z" />
<glyph unicode="F" horiz-adv-x="1218" d="M100 0v8l199 12v1393l-199 12v9h957l141 -295l-8 -6l-141 280h-730v-686h404l12 287h6v-592h-6l-12 285h-404v-687l199 -12v-8h-418z" />
<glyph unicode="G" horiz-adv-x="1660" d="M102 717q0 145 57 278t153 229t229 153t278 57h316l307 -371l-8 -6l-308 354h-307q-187 0 -347 -93t-253.5 -253t-93.5 -348q0 -191 92.5 -353t252.5 -256t349 -94q283 0 459.5 160.5t196.5 435.5h-414v17h436l-12 -627h-8v498q-48 -228 -218 -367t-440 -139 q-196 0 -361 97t-260.5 264t-95.5 364z" />
<glyph unicode="H" horiz-adv-x="1611" d="M100 0v8l199 12v1393l-199 12v9h420v-9l-198 -12v-686h968v686l-198 12v9h419v-9l-198 -12v-1393l198 -12v-8h-419v8l198 12v693h-968v-693l198 -12v-8h-420z" />
<glyph unicode="I" horiz-adv-x="620" d="M100 0v8l199 12v1393l-199 12v9h420v-9l-198 -12v-1393l198 -12v-8h-420z" />
<glyph unicode="J" horiz-adv-x="608" d="M27 -231q44 34 135 128.5t121 147.5q16 24 20 59t4 113v1196l-198 12v9h419v-9l-198 -12v-1190q0 -113 -9 -147q-6 -21 -16 -37q-24 -39 -127.5 -143.5t-144.5 -126.5h-6z" />
<glyph unicode="K" horiz-adv-x="1374" d="M100 0v8l199 12v1393l-199 12v9h420v-9l-198 -12v-491q59 174 247 174h564l10 329h8v-342h-578q-114 0 -180.5 -70.5t-66.5 -176.5q0 -69 30.5 -127t116.5 -125l709 -564l198 -12v-8h-419v8l198 10l-696 553q-56 43 -96.5 93.5t-44.5 87.5v-732l198 -12v-8h-420z" />
<glyph unicode="L" horiz-adv-x="1316" d="M100 0v8l199 12v1393l-199 12v9h420v-9l-198 -12v-1393h692l305 353l8 -6l-305 -367h-922z" />
<glyph unicode="M" horiz-adv-x="1912" d="M100 0v8l199 12v1391l-199 14v9h209l649 -1309l633 1309h221v-9l-198 -10v-1395l198 -12v-8h-419v8l198 12v1385l-630 -1311h-11l-637 1286l2 -1360l199 -12v-8h-414z" />
<glyph unicode="N" horiz-adv-x="1538" d="M100 0v8l199 12v1393l-199 12v9h222l923 -1379v1358l-198 12v9h411v-9l-196 -12l-2 -1413h-5l-942 1413l2 -1393l199 -12v-8h-414z" />
<glyph unicode="O" d="M102 717q0 -197 95.5 -364t260.5 -264t361 -97t361 97t260.5 264t95.5 364t-95.5 364t-260.5 264t-361 97t-361 -97t-260.5 -264t-95.5 -364zM125 717q0 146 54.5 278t147 228t221.5 152.5t271 56.5t271 -56.5t221.5 -152.5t147 -228t54.5 -278t-54.5 -278t-147 -228 t-221.5 -152.5t-271 -56.5t-271 56.5t-221.5 152.5t-147 228t-54.5 278z" />
<glyph unicode="P" horiz-adv-x="1232" d="M100 0h420v8l-198 12v586h411q170 0 292 122t122 292q0 169 -119.5 291.5t-286.5 122.5h-639v-9l197 -12v-1393l-199 -12v-8zM322 618v805h409q163 0 278 -118t115 -285q0 -166 -115 -284t-278 -118h-409z" />
<glyph unicode="Q" d="M102 717q0 197 95.5 364t260.5 264t361 97t361 -97t260.5 -264t95.5 -364q0 -226 -123 -409t-323 -263l215 -250h-15l-211 246q-119 -49 -260 -49q-196 0 -361 97t-260.5 264t-95.5 364zM125 717q0 -146 54.5 -278t147 -228t221.5 -152.5t271 -56.5q134 0 252 47 l-145 170h14l141 -166q194 80 313 260.5t119 403.5q0 146 -54.5 278t-147 228t-221.5 152.5t-271 56.5t-271 -56.5t-221.5 -152.5t-147 -228t-54.5 -278z" />
<glyph unicode="R" horiz-adv-x="1275" d="M100 0v8l199 12v1393l-197 12v9h619q167 0 286 -122.5t119 -291.5q0 -170 -121.5 -292t-291.5 -122h-391q2 -30 25 -75.5t65 -101.5t115.5 -119t164.5 -115q128 -75 254 -123t279 -62v-10q-163 14 -292.5 61.5t-254.5 120.5q-245 141 -356 350v-512l198 -12v-8h-420z M322 618h389q163 0 278 118t115 284q0 167 -115 285t-278 118h-389v-805z" />
<glyph unicode="S" horiz-adv-x="1404" d="M129 541h8l68 -396q194 -137 491 -137q109 0 203.5 18t174.5 55.5t126.5 106t46.5 160.5q0 71 -26.5 128.5t-69.5 97t-111.5 72t-138 53t-162.5 40.5q-81 17 -136.5 30.5t-120 32.5t-106.5 38.5t-83.5 46.5t-65.5 58.5t-38.5 72.5t-14.5 90q0 107 74 184.5t189 113.5 t255 36q113 0 218.5 -20.5t172.5 -55.5l105 -391h-8l-117 391q-68 31 -172 47.5t-199 16.5q-135 0 -245 -34.5t-180 -108t-70 -175.5q0 -54 17.5 -97.5t54.5 -77t80.5 -58.5t110 -46.5t128.5 -36.5t149 -32q98 -22 171.5 -44t145 -56.5t117 -76t73.5 -100.5t28 -131 q0 -95 -47 -166.5t-129.5 -113t-182.5 -62t-217 -20.5q-149 0 -287 39.5t-229 118.5z" />
<glyph unicode="T" horiz-adv-x="1327" d="M0 1137l141 297h1045l141 -297l-8 -7l-141 279h-504v-1389l198 -12v-8h-417v8l198 12v1389h-503l-142 -279z" />
<glyph unicode="U" horiz-adv-x="1630" d="M70 1425v9h419v-9l-200 -12l2 -856q0 -169 70.5 -294t187.5 -187t264 -62q254 0 393.5 161t139.5 466v772l-197 12v9h412v-9l-199 -12v-784q0 -144 -33 -257.5t-86 -183.5t-126.5 -115.5t-147.5 -63t-156 -17.5q-168 0 -293 73.5t-188.5 199t-63.5 284.5v864z" />
<glyph unicode="V" horiz-adv-x="1523" d="M-12 1425v9h420v-9l-199 -12l549 -1374l563 1374l-199 12v9h414v-9l-199 -12l-575 -1413h-8l-568 1413z" />
<glyph unicode="W" horiz-adv-x="2379" d="M-12 1425v9h420v-9l-199 -12l549 -1374l422 1032l-146 363h238v-9l-207 -10l551 -1376l561 1374l-199 12v9h414v-9l-199 -12l-575 -1413h-6l-424 1051l-426 -1051h-8l-568 1413z" />
<glyph unicode="X" horiz-adv-x="1435" d="M2 1425v9h436v-9l-207 -8l492 -692l487 692l-206 8v9h430v-9l-207 -8l-496 -704l492 -693l207 -12v-8h-433v8l203 12l-481 676l-475 -676l205 -12v-8h-424v8l202 12l484 689l-502 708z" />
<glyph unicode="Y" horiz-adv-x="1361" d="M16 1425v9h420v-9l-198 -12l440 -954l452 954l-198 12v9h414v-9l-199 -12l-461 -977v-416l199 -12v-8h-420v8l199 12v416l-449 977z" />
<glyph unicode="Z" horiz-adv-x="1431" d="M86 0l1196 1411h-987l-141 -281l-9 7l142 297h1038l-1196 -1411h1088l141 282l8 -6l-141 -299h-1139z" />
<glyph unicode="[" horiz-adv-x="432" d="M205 -190v1806h207v-12h-185v-1782h185v-12h-207z" />
<glyph unicode="\" horiz-adv-x="927" d="M61 1434l785 -1434h20l-784 1434h-21z" />
<glyph unicode="]" horiz-adv-x="432" d="M20 -178h185v1782h-185v12h207v-1806h-207v12z" />
<glyph unicode="^" horiz-adv-x="888" d="M102 1143l326 291h33l325 -291h-18l-324 276l-323 -276h-19z" />
<glyph unicode="_" horiz-adv-x="1134" d="M-10 -39v-22h1155v22h-1155z" />
<glyph unicode="`" horiz-adv-x="565" d="M102 1434l340 -291h21l-326 291h-35z" />
<glyph unicode="a" horiz-adv-x="1159" d="M92 256q0 82 59.5 153t155.5 103l455 162q52 17 83.5 60t31.5 97q0 69 -59 119.5t-142 50.5h-344l-219 -245l-9 6l218 262h358q90 0 154.5 -57.5t64.5 -135.5v-811l201 -12v-8h-223v319q-26 -151 -141.5 -239t-280.5 -88q-172 0 -267.5 65.5t-95.5 198.5zM117 258 q0 -128 89 -186t238 -58q87 0 161 23t123 61t83.5 86.5t50 99.5t15.5 101v358q-32 -65 -109 -90l-455 -161q-90 -30 -143 -95t-53 -139z" />
<glyph unicode="b" horiz-adv-x="1314" d="M66 1276l202 158h23v-670q63 119 176 193.5t242 74.5q135 0 248 -68t179 -188t66 -266q0 -221 -143 -369.5t-350 -148.5q-130 0 -245 75t-173 191v-258h-221v8l198 12v1385l-194 -135zM291 281q59 -122 171 -194.5t247 -72.5q129 0 236.5 64t171 178t63.5 254 q0 212 -137.5 356t-333.5 144q-135 0 -247 -73t-171 -196v-460z" />
<glyph unicode="c" horiz-adv-x="1241" d="M113 508q0 106 40.5 202t109 164.5t163.5 109t199 40.5h227l217 -262l-8 -6l-215 245h-221q-99 0 -189.5 -38.5t-156.5 -104t-105 -157.5t-39 -193q0 -206 143.5 -350t346.5 -144q186 0 329 121t168 299h11q-26 -188 -170.5 -315t-337.5 -127q-104 0 -199 40.5 t-163.5 109t-109 164.5t-40.5 202z" />
<glyph unicode="d" horiz-adv-x="1320" d="M113 510q0 146 66 266t179 188t248 68q129 0 242 -74.5t176 -193.5v641l-195 -135l-8 6l203 158h23v-1414l198 -12v-8h-221v258q-58 -116 -173 -191t-245 -75q-207 0 -350 148.5t-143 369.5zM135 510q0 -140 63.5 -254t171 -178t236.5 -64q135 0 247 72.5t171 194.5v460 q-59 123 -171 196t-247 73q-196 0 -333.5 -144t-137.5 -356z" />
<glyph unicode="e" horiz-adv-x="1241" d="M113 512q0 144 68.5 263.5t186 188t257.5 68.5q151 0 275 -80.5t187 -212.5h-899q-53 -103 -53 -227q0 -138 66 -252.5t178.5 -180t245.5 -65.5q186 0 329 121t168 299h11q-26 -188 -170.5 -315t-337.5 -127q-140 0 -257.5 68.5t-186 188t-68.5 263.5zM195 752h862 q-63 117 -178 187.5t-254 70.5q-137 0 -251.5 -70t-178.5 -188z" />
<glyph unicode="f" horiz-adv-x="677" d="M61 0v8l199 12v916h-137v22l223 -2q-17 1 -40 8t-52.5 25t-53.5 43t-40.5 65.5t-16.5 88.5q0 102 76 175t182 73h269l-13 -220h-8v197h-254q-26 0 -56 -8t-61 -26.5t-55.5 -44t-40.5 -63.5t-16 -83q0 -106 71.5 -168t198.5 -62h180v-20h-333v-916l198 -12v-8h-420z" />
<glyph unicode="g" horiz-adv-x="1269" d="M113 512q0 212 150 362t362 150h96h108h226v-23l-312 9q171 -42 282.5 -180.5t111.5 -317.5q0 -136 -66 -252t-179 -186t-247 -76q-56 0 -86 -6q-65 -13 -114.5 -32t-92 -49t-65.5 -74.5t-23 -102.5q0 -105 92.5 -181.5t218.5 -76.5t215 76t89 182v92q0 71 51 122.5 t123 51.5q73 0 123.5 -48.5t50.5 -125.5v-350h-213v8l198 12v332q0 65 -45.5 109.5t-117.5 44.5q-61 0 -105.5 -45.5t-44.5 -108.5v-94q0 -112 -95 -189t-229 -77q-138 0 -235.5 77t-97.5 189q0 106 87 176t242 90q-194 20 -326 166.5t-132 345.5zM135 512q0 -137 65.5 -253 t178.5 -183.5t246 -67.5q132 0 244.5 67.5t178.5 183.5t66 253q0 136 -66 251.5t-178.5 183t-244.5 67.5q-202 0 -346 -147.5t-144 -354.5z" />
<glyph unicode="h" horiz-adv-x="1316" d="M66 1276l202 158h23v-715q28 135 137 224t252 89q170 0 278.5 -111.5t108.5 -285.5v-615l199 -12v-8h-420v8l198 12v615q0 166 -101.5 270.5t-262.5 104.5q-158 0 -273.5 -111.5t-115.5 -265.5v-613l198 -12v-8h-419v8l198 12v1385l-194 -135z" />
<glyph unicode="i" horiz-adv-x="571" d="M82 866l203 158h22v-1004l199 -12v-8h-420v8l199 12v975l-195 -135zM258 1204q0 15 11 26t26 11t26 -11t11 -26t-11 -26t-26 -11t-26 11t-11 26z" />
<glyph unicode="j" horiz-adv-x="489" d="M61 866l203 158h23v-1241q0 -147 -54.5 -228.5t-126.5 -86.5q17 2 41 18.5t51.5 50t46.5 98.5t19 148v1212l-194 -135zM231 1204q0 15 11 26t26 11t26 -11t11 -26t-11 -26t-26 -11t-26 11t-11 26z" />
<glyph unicode="k" horiz-adv-x="1126" d="M66 0v8l198 12v1387l-188 -131l-6 6l194 152h23v-652q27 81 96.5 132t157.5 51h385l-13 -211h-8v190h-364q-103 0 -175.5 -72.5t-72.5 -173.5q0 -105 78 -180l573 -498l195 -12v-8h-422v8l196 10l-557 486q-47 44 -69 108v-592l198 -12v-8h-419z" />
<glyph unicode="l" horiz-adv-x="565" d="M66 1276l202 158h23v-1414l198 -12v-8h-419v8l198 12v1385l-194 -135z" />
<glyph unicode="m" horiz-adv-x="2109" d="M82 866l203 158h22v-305q28 135 137 224t252 89q154 0 258.5 -92.5t124.5 -243.5q24 149 136 242.5t258 93.5q170 0 278.5 -111.5t108.5 -285.5v-615l198 -12v-8h-420v8l199 12v615q0 166 -101.5 270.5t-262.5 104.5q-158 0 -274 -111.5t-116 -265.5v-613l199 -12v-8 h-420v8l199 12v615q0 166 -102 270.5t-263 104.5q-158 0 -273.5 -111.5t-115.5 -265.5v-613l199 -12v-8h-420v8l199 12v975l-195 -135z" />
<glyph unicode="n" horiz-adv-x="1333" d="M82 866l203 158h22v-305q28 135 137 224t252 89q170 0 278.5 -111.5t108.5 -285.5v-615l199 -12v-8h-420v8l199 12v615q0 166 -102 270.5t-263 104.5q-158 0 -273.5 -111.5t-115.5 -265.5v-613l199 -12v-8h-420v8l199 12v975l-195 -135z" />
<glyph unicode="o" horiz-adv-x="1249" d="M113 512q0 146 68.5 265.5t186 187t257.5 67.5t257.5 -67.5t186 -187t68.5 -265.5t-68.5 -265.5t-186 -187t-257.5 -67.5t-257.5 67.5t-186 187t-68.5 265.5zM135 512q0 -107 39 -202t104.5 -162.5t156 -106.5t190.5 -39t190 39t156 106.5t104.5 162.5t38.5 202 t-38.5 202t-104.5 162.5t-156 106.5t-190 39t-190.5 -39t-156 -106.5t-104.5 -162.5t-39 -202z" />
<glyph unicode="p" horiz-adv-x="1318" d="M70 866l202 158h23v-260q63 119 176 193.5t242 74.5q135 0 248 -68t179 -188t66 -266q0 -221 -143 -369.5t-350 -148.5q-130 0 -245 75t-173 191v-733l199 -12v-9h-420v9l198 12v1470l-194 -135zM295 281q59 -122 171 -194.5t247 -72.5q129 0 236.5 64t171 178t63.5 254 q0 212 -137.5 356t-333.5 144q-135 0 -247 -73t-171 -196v-460z" />
<glyph unicode="q" horiz-adv-x="1249" d="M113 510q0 146 66 266t179 188t248 68q129 0 242 -74.5t176 -193.5v260h23v-1499l198 -12v-9h-420v9l199 12v733q-58 -116 -173 -191t-245 -75q-207 0 -350 148.5t-143 369.5zM135 510q0 -140 63.5 -254t171 -178t236.5 -64q135 0 247 72.5t171 194.5v460 q-59 123 -171 196t-247 73q-196 0 -333.5 -144t-137.5 -356z" />
<glyph unicode="r" horiz-adv-x="862" d="M82 866l203 158h22v-309q28 136 132.5 225.5t244.5 89.5q64 0 123 -18v-25q-68 21 -123 21q-155 0 -266 -111t-111 -266v-611l199 -12v-8h-420v8l199 12v975l-195 -135z" />
<glyph unicode="s" horiz-adv-x="1071" d="M96 385h8l54 -283q143 -98 364 -98q117 0 207.5 25t147.5 81t57 138q0 50 -19.5 90.5t-51.5 68.5t-82 50.5t-102 37t-122 27.5q-69 14 -117 25.5t-101.5 28.5t-88 36.5t-64 45.5t-43.5 59.5t-14 75.5q0 104 104 171.5t287 67.5q83 0 166.5 -15t130.5 -38l78 -283h-8 l-90 279q-101 45 -277 45q-172 0 -269 -63t-97 -162q0 -39 13.5 -70t42 -55t61 -42t83 -33t94 -25.5t107.5 -22.5q73 -15 128.5 -30.5t109 -40t88.5 -55t56 -73.5t21 -96q0 -123 -117.5 -191.5t-318.5 -68.5q-253 0 -387 112z" />
<glyph unicode="t" horiz-adv-x="788" d="M61 1001v23h138v410h22v-410h342v-23h-342v-688q0 -142 77 -220.5t183 -78.5q99 0 173.5 58.5t86.5 150.5h7q-14 -99 -90 -165t-177 -66q-116 0 -199 84t-83 225v700h-138z" />
<glyph unicode="u" horiz-adv-x="1327" d="M55 1016v8h221v-635q0 -166 102 -270.5t263 -104.5q158 0 273.5 111.5t115.5 265.5v613l-199 12v8h222v-1004l198 -12v-8h-221v305q-28 -135 -137 -224t-252 -89q-170 0 -278.5 111.5t-108.5 285.5v615z" />
<glyph unicode="v" horiz-adv-x="1189" d="M23 1016v8h317v-8l-147 -12l399 -965l412 965l-148 12v8h311v-8l-147 -12l-426 -1004h-6l-418 1004z" />
<glyph unicode="w" horiz-adv-x="2031" d="M23 1016v8h323v-8l-147 -12l399 -965l410 965l-146 12v8h309v-8l-135 -12l400 -965l411 965l-147 12v8h309v-8l-147 -12l-426 -1004h-11l-409 985l-418 -985h-10l-418 1004z" />
<glyph unicode="x" horiz-adv-x="1179" d="M78 1016l147 -12l355 -500l-342 -484l-146 -14v-6h309v6l-145 14l334 472l334 -472l-146 -14v-6h324v6l-150 14l-348 492l348 492l148 12v8h-312v-8l148 -12l-340 -480l-340 480l147 12v8h-325v-8z" />
<glyph unicode="y" horiz-adv-x="1198" d="M23 1016v8h323v-8l-147 -12l401 -965l414 965l-148 12v8h310v-8l-148 -12l-426 -992q-40 -94 -66.5 -150.5t-59 -115t-59 -90t-61.5 -58.5t-73.5 -37.5t-87.5 -11.5v2q53 4 96 24t77.5 51.5t71 92t68 125t76.5 170.5l-414 990z" />
<glyph unicode="z" horiz-adv-x="1011" d="M47 0l848 1001h-700l-99 -313h-8l88 336h766l-850 -1001h744l96 305h8l-86 -328h-807z" />
<glyph unicode="{" horiz-adv-x="466" d="M4 713q46 8 79.5 22.5t55.5 40t35.5 52.5t20 70t8.5 82t2 99v113q0 82 1 122.5t6 96t16 80t30.5 55t50.5 42t74.5 20t103.5 8.5v-10q-78 0 -127.5 -14.5t-78 -45.5t-40.5 -80t-14.5 -117t0.5 -157l2 -113q1 -51 0 -94t-6 -79t-15.5 -66t-29 -53.5t-46 -42t-66.5 -31.5 q39 -13 66.5 -31.5t46 -42t29 -53.5t15.5 -66.5t6 -79.5t0 -94l-2 -113q-3 -89 -0.5 -157t14.5 -116.5t40.5 -79.5t78 -45.5t127.5 -14.5v-10q-53 0 -92.5 4.5t-69.5 19t-50 27.5t-33.5 45t-21 55.5t-11 75t-4 88t-0.5 108.5v113q0 72 -3 117t-14 93t-32.5 76t-59 50 t-92.5 31z" />
<glyph unicode="|" horiz-adv-x="514" d="M246 -408h22v1842h-22v-1842z" />
<glyph unicode="}" horiz-adv-x="466" d="M-20 -180q78 0 127.5 14.5t78 45.5t40.5 79.5t14.5 116.5t-0.5 157l-2 113q-1 51 0 94t6 79.5t15.5 66.5t29 53.5t46 42t66.5 31.5q-39 13 -66.5 31.5t-46 42t-29 53.5t-15.5 66t-6 79t0 94l2 113q3 89 0.5 157t-14.5 117t-40.5 80t-78 45.5t-127.5 14.5v10 q60 0 103.5 -8.5t74.5 -20t50.5 -42t30.5 -55t16 -80t6 -96t1 -122.5v-113q0 -60 2 -99t8.5 -82t20 -70t35.5 -52.5t55.5 -40t79.5 -22.5q-55 -9 -92.5 -31t-59 -50t-32.5 -76t-14 -93t-3 -117v-113q0 -72 -0.5 -108.5t-4 -88t-11 -75t-21 -55.5t-33.5 -45t-50 -27.5 t-69.5 -19t-92.5 -4.5v10z" />
<glyph unicode="~" horiz-adv-x="911" d="M78 467q22 66 72 97.5t110 31.5q47 0 90 -21t76.5 -51t66.5 -59.5t74 -50.5t84 -21q127 0 164 111l19 -8q-41 -121 -187 -121q-50 0 -94 21t-77 50.5t-64.5 59.5t-69.5 51t-78 21q-132 0 -168 -119z" />
<glyph unicode="&#xa1;" horiz-adv-x="385" d="M156 1399q0 15 11 26t26 11t25.5 -11t10.5 -26t-10.5 -26t-25.5 -11t-26 11t-11 26zM180 0h25l-6 864l-2 383h-9l-2 -383z" />
<glyph unicode="&#xa2;" horiz-adv-x="1241" d="M113 508q0 137 64.5 253t175 185.5t243.5 77.5v106h22v-106h7h227l217 -262l-8 -6l-215 245h-221h-7v-987h7q186 0 329 121t168 299h11q-26 -188 -170.5 -315t-337.5 -127h-7v-117h-22v117q-133 8 -243.5 77.5t-175 185.5t-64.5 253zM135 508q0 -198 134 -340t327 -154 v987q-193 -12 -327 -153.5t-134 -339.5z" />
<glyph unicode="&#xa3;" horiz-adv-x="1101" d="M68 0v8l163 12q103 0 178 86.5t76 223.5q0 67 -19 140.5t-39 121.5t-58 127h-240v18h229q-38 79 -56.5 122t-37 111.5t-18.5 127.5q0 143 106 239.5t246 96.5q108 0 190 -56q94 -65 109 -176h-6q-12 94 -92 151.5t-201 57.5q-83 0 -158 -41.5t-123 -118t-49 -168.5 q0 -24 2.5 -48t11.5 -52.5t13.5 -45t20.5 -52t20.5 -46t26 -53.5l24.5 -49h391v-18h-383q54 -113 83.5 -205t29.5 -197q0 -107 -48 -185.5t-126 -111.5h545l204 236l9 -6l-205 -250h-819z" />
<glyph unicode="&#xa4;" horiz-adv-x="847" d="M102 559q0 128 88 219l-75 76l14 14l76 -75q91 88 219 88t219 -88l76 75l14 -14l-76 -76q88 -91 88 -219t-88 -219l76 -76l-14 -14l-76 76q-91 -88 -219 -88t-219 88l-76 -76l-14 14l75 76q-88 91 -88 219zM123 559q0 -128 88.5 -218.5t212.5 -90.5t212.5 90.5 t88.5 218.5t-88.5 218.5t-212.5 90.5t-212.5 -90.5t-88.5 -218.5z" />
<glyph unicode="&#xa5;" horiz-adv-x="1402" d="M37 1425v9h420v-9l-199 -12l440 -954l453 954l-199 12v9h414v-9l-199 -12l-460 -977h319v-16h-319v-119h319v-18h-319v-263l198 -12v-8h-420v8l199 12v263h-307v18h307v119h-307v16h307l-448 977z" />
<glyph unicode="&#xa6;" horiz-adv-x="514" d="M246 385v-786h22v786h-22zM246 647h22v787h-22v-787z" />
<glyph unicode="&#xa7;" horiz-adv-x="1071" d="M96 385h8l54 -283q143 -98 364 -98q117 0 207.5 25t147.5 81.5t57 139.5q0 50 -19.5 90t-51.5 68t-82 50.5t-102.5 36.5t-121.5 27q-78 14 -135.5 28.5t-115.5 36.5t-94 49t-58.5 65.5t-22.5 86.5q0 101 104.5 168.5t286.5 67.5q94 0 162 -12q-54 17 -129 30 q-82 15 -139 29t-116 36t-94 48.5t-57 65.5t-22 88q0 105 104 173t287 68q83 0 166.5 -15t130.5 -38l78 -283h-8l-90 279q-101 45 -277 45q-172 0 -269 -63.5t-97 -163.5q0 -38 13.5 -68.5t42 -54t61.5 -41.5t82.5 -33.5t94 -26t107.5 -22.5q91 -18 158 -39.5t125.5 -54.5 t89 -82t30.5 -113q0 -100 -90.5 -166.5t-247.5 -72.5q174 -34 257 -102.5t83 -180.5q0 -124 -117.5 -193t-318.5 -69q-253 0 -387 112zM156 791q0 -93 90.5 -146.5t304.5 -97.5q109 0 192 22t136 74t53 129q0 66 -34 114.5t-93.5 75t-129.5 38.5t-153 12 q-173 0 -269.5 -62.5t-96.5 -158.5z" />
<glyph unicode="&#xa8;" horiz-adv-x="389" d="M102 1405q0 15 11 26t26 11t26 -11t11 -26t-11 -26t-26 -11t-26 11t-11 26zM213 1405q0 15 11 26t26 11t26 -11t11 -26t-11 -26t-26 -11t-26 11t-11 26z" />
<glyph unicode="&#xa9;" d="M102 717q0 -197 95.5 -364t260.5 -264t361 -97t361 97t260.5 264t95.5 364t-95.5 364t-260.5 264t-361 97t-361 -97t-260.5 -264t-95.5 -364zM125 717q0 146 54.5 278t147 228t221.5 152.5t271 56.5t271 -56.5t221.5 -152.5t147 -228t54.5 -278t-54.5 -278t-147 -228 t-221.5 -152.5t-271 -56.5t-271 56.5t-221.5 152.5t-147 228t-54.5 278zM514 723q0 127 89.5 216t217.5 89h135l129 -156l-4 -4l-129 148h-131q-120 0 -201 -85t-81 -208t81 -208t201 -85q110 0 196 73t101 179h6q-15 -113 -101.5 -188.5t-201.5 -75.5q-127 0 -217 89.5 t-90 215.5z" />
<glyph unicode="&#xab;" horiz-adv-x="1218" d="M45 662l610 561h17l-604 -561l604 -562h-17zM502 662l610 561h16l-604 -561l604 -562h-16z" />
<glyph unicode="&#xad;" horiz-adv-x="731" d="M41 471h649v23h-649v-23z" />
<glyph unicode="&#xae;" d="M102 717q0 197 95.5 364t260.5 264t361 97t361 -97t260.5 -264t95.5 -364t-95.5 -364t-260.5 -264t-361 -97t-361 97t-260.5 264t-95.5 364zM125 717q0 -146 54.5 -278t147 -228t221.5 -152.5t271 -56.5t271 56.5t221.5 152.5t147 228t54.5 278t-54.5 278t-147 228 t-221.5 152.5t-271 56.5t-271 -56.5t-221.5 -152.5t-147 -228t-54.5 -278zM582 385v4l77 8v652l-77 8v4h290q79 0 135 -58t56 -137q0 -82 -56.5 -139t-136.5 -57h-184q2 -32 50.5 -88.5t131.5 -104.5q41 -24 69 -38t76 -29t97 -19v-6q-148 13 -268 84q-46 27 -80.5 61 t-46.5 53t-29 50v-236l92 -8v-4h-196zM686 684h182q76 0 123 51.5t47 130.5t-47 131t-123 52h-182v-365z" />
<glyph unicode="&#xaf;" horiz-adv-x="690" d="M102 1417h486v17h-486v-17z" />
<glyph unicode="&#xb0;" horiz-adv-x="479" d="M102 1303q0 -56 40.5 -97t97.5 -41t97 41t40 97q0 57 -40 98t-97 41t-97.5 -41t-40.5 -98zM125 1305q0 48 34.5 86.5t80.5 38.5q45 0 78.5 -38.5t33.5 -86.5t-33.5 -87.5t-78.5 -39.5q-46 0 -80.5 39.5t-34.5 87.5z" />
<glyph unicode="&#xb1;" horiz-adv-x="854" d="M102 471v23h314v313h22v-313h314v-23h-314v-313h-22v313h-314zM104 0v23h648v-23h-648z" />
<glyph unicode="&#xb4;" horiz-adv-x="563" d="M102 1143h19l340 291h-35z" />
<glyph unicode="&#xb6;" horiz-adv-x="1183" d="M92 1020q0 -170 122 -292t292 -122h211v-586l-234 -12v-8h256v1421h88v-1421h256v8l-233 12v1393l233 12v9h-585q-167 0 -286.5 -122.5t-119.5 -291.5z" />
<glyph unicode="&#xb7;" horiz-adv-x="360" d="M143 555q0 15 11 26t26 11t26 -11t11 -26t-11 -26t-26 -11t-26 11t-11 26z" />
<glyph unicode="&#xb8;" horiz-adv-x="514" d="M102 -473q124 13 205.5 84t81.5 162q0 49 -27.5 79.5t-87.5 30.5q-63 0 -104 -51l-27 -2l111 170h16l-96 -147q43 43 107 43q53 0 92 -29.5t39 -91.5q0 -103 -90.5 -174t-219.5 -82v8z" />
<glyph unicode="&#xbb;" horiz-adv-x="1218" d="M90 100l604 562l-604 561h16l611 -561l-611 -562h-16zM547 100l604 562l-604 561h16l611 -561l-611 -562h-16z" />
<glyph unicode="&#xbf;" horiz-adv-x="778" d="M41 301q0 63 20.5 120t53 101.5t72.5 86t79.5 81t72.5 80t54 89.5t21 102q0 49 1 146t1 146h8l2 -292q0 -56 -19.5 -106.5t-51.5 -90t-71 -78t-77.5 -79t-71 -84t-52.5 -100.5t-20 -122q0 -121 91 -203t229 -82q26 0 53 5t63 21.5t67 42t60.5 72t47.5 107.5h8 q-24 -103 -92 -174q-47 -48 -103 -70t-104 -22q-157 0 -249.5 88.5t-92.5 214.5zM383 1405q0 15 11 26t26 11t26 -11t11 -26t-11 -26t-26 -11t-26 11t-11 26z" />
<glyph unicode="&#xc0;" horiz-adv-x="1523" d="M-12 0v8l198 12l559 1393l-198 12v9h213l577 -1414l199 -12v-8h-414v8l199 12l-197 482h-723l-192 -482l199 -12v-8h-420zM410 522h706l-358 873zM524 1835l340 -291h21l-326 291h-35z" />
<glyph unicode="&#xc1;" horiz-adv-x="1523" d="M-12 0v8l198 12l559 1393l-198 12v9h213l577 -1414l199 -12v-8h-414v8l199 12l-197 482h-723l-192 -482l199 -12v-8h-420zM410 522h706l-358 873zM557 1544h18l340 291h-34z" />
<glyph unicode="&#xc2;" horiz-adv-x="1523" d="M-12 0v8l198 12l559 1393l-198 12v9h213l577 -1414l199 -12v-8h-414v8l199 12l-197 482h-723l-192 -482l199 -12v-8h-420zM410 522h706l-358 873zM416 1542l325 291h33l326 -291h-19l-323 277l-324 -277h-18z" />
<glyph unicode="&#xc3;" horiz-adv-x="1523" d="M-12 0v8l198 12l559 1393l-198 12v9h213l577 -1414l199 -12v-8h-414v8l199 12l-197 482h-723l-192 -482l199 -12v-8h-420zM410 522h706l-358 873zM444 1542q0 114 46 167.5t110 53.5q39 0 75 -21.5t63.5 -52t54.5 -61.5t58 -52.5t62 -21.5q69 0 108.5 54.5t39.5 154.5h10 q0 -109 -41.5 -165t-120.5 -56q-41 0 -78 21.5t-64 52t-52 61.5t-54 52.5t-59 21.5q-40 0 -69.5 -19t-46 -50.5t-24 -66.5t-7.5 -73h-11z" />
<glyph unicode="&#xc4;" horiz-adv-x="1523" d="M-12 0v8l198 12l559 1393l-198 12v9h213l577 -1414l199 -12v-8h-414v8l199 12l-197 482h-723l-192 -482l199 -12v-8h-420zM410 522h706l-358 873zM666 1581q0 15 10.5 26t25.5 11t26 -11t11 -26t-11 -26t-26 -11t-25.5 11t-10.5 26zM776 1581q0 15 11 26t26 11t26 -11 t11 -26t-11 -26t-26 -11t-26 11t-11 26z" />
<glyph unicode="&#xc5;" horiz-adv-x="1523" d="M-12 0v8l198 12l559 1393l-198 12v9h213l577 -1414l199 -12v-8h-414v8l199 12l-197 482h-723l-192 -482l199 -12v-8h-420zM410 522h706l-358 873zM621 1675q0 -56 40 -96.5t97 -40.5t97 40.5t40 96.5q0 57 -40 98.5t-97 41.5t-97 -41.5t-40 -98.5zM643 1677 q0 48 34.5 86.5t80.5 38.5q45 0 78.5 -38.5t33.5 -86.5t-33.5 -87.5t-78.5 -39.5q-46 0 -80.5 39.5t-34.5 87.5z" />
<glyph unicode="&#xc6;" horiz-adv-x="1847" d="M-10 0v8l198 12l635 1391l-198 14v9h948l141 -295l-8 -6l-141 280h-719v-686h393l12 287h6v-588h-6l-12 287h-393v-693h657l305 355l9 -6l-306 -369h-886v8l198 17v477h-397l-215 -482l199 -12v-8h-420zM436 522h387v846z" />
<glyph unicode="&#xc7;" horiz-adv-x="1622" d="M102 717q0 145 57 278t153 229t229 153t278 57h316l307 -371l-8 -6l-308 354h-307q-187 0 -347 -93t-253.5 -253t-93.5 -348q0 -191 92.5 -353t252.5 -256t349 -94q172 0 323 78t250 214.5t124 303.5h12q-24 -173 -123.5 -314.5t-253.5 -222.5t-332 -81h-28l-93 -139 q43 43 107 43q53 0 92 -29.5t39 -91.5q0 -103 -90 -174t-219 -82v8q124 13 205 84t81 162q0 49 -27 79.5t-87 30.5q-32 0 -60 -15t-45 -36l-26 -2l106 164q-140 8 -264.5 68.5t-214 156t-141.5 225.5t-52 273z" />
<glyph unicode="&#xc8;" horiz-adv-x="1333" d="M100 0v8l199 12v1393l-199 12v9h959l141 -295l-8 -6l-141 280h-729v-686h403l12 287h6v-588h-6l-12 287h-403v-693h667l305 355l9 -6l-306 -369h-897zM416 1835l340 -291h20l-325 291h-35z" />
<glyph unicode="&#xc9;" horiz-adv-x="1333" d="M100 0v8l199 12v1393l-199 12v9h959l141 -295l-8 -6l-141 280h-729v-686h403l12 287h6v-588h-6l-12 287h-403v-693h667l305 355l9 -6l-306 -369h-897zM524 1544h19l340 291h-35z" />
<glyph unicode="&#xca;" horiz-adv-x="1333" d="M100 0v8l199 12v1393l-199 12v9h959l141 -295l-8 -6l-141 280h-729v-686h403l12 287h6v-588h-6l-12 287h-403v-693h667l305 355l9 -6l-306 -369h-897zM268 1542l326 291h33l325 -291h-18l-324 277l-323 -277h-19z" />
<glyph unicode="&#xcb;" horiz-adv-x="1333" d="M100 0v8l199 12v1393l-199 12v9h959l141 -295l-8 -6l-141 280h-729v-686h403l12 287h6v-588h-6l-12 287h-403v-693h667l305 355l9 -6l-306 -369h-897zM561 1581q0 15 11 26t26 11t26 -11t11 -26t-11 -26t-26 -11t-26 11t-11 26zM672 1581q0 15 11 26t26 11t25.5 -11 t10.5 -26t-10.5 -26t-25.5 -11t-26 11t-11 26z" />
<glyph unicode="&#xcc;" horiz-adv-x="620" d="M100 0v8l199 12v1393l-199 12v9h420v-9l-198 -12v-1393l198 -12v-8h-420zM135 1835l340 -291h21l-326 291h-35z" />
<glyph unicode="&#xcd;" horiz-adv-x="620" d="M100 0v8l199 12v1393l-199 12v9h420v-9l-198 -12v-1393l198 -12v-8h-420zM115 1544h18l340 291h-35z" />
<glyph unicode="&#xce;" horiz-adv-x="620" d="M-31 1542l326 291h33l325 -291h-18l-324 277l-323 -277h-19zM100 0v8l199 12v1393l-199 12v9h420v-9l-198 -12v-1393l198 -12v-8h-420z" />
<glyph unicode="&#xcf;" horiz-adv-x="620" d="M100 0v8l199 12v1393l-199 12v9h420v-9l-198 -12v-1393l198 -12v-8h-420zM219 1581q0 15 11 26t26 11t26 -11t11 -26t-11 -26t-26 -11t-26 11t-11 26zM330 1581q0 15 11 26t26 11t25.5 -11t10.5 -26t-10.5 -26t-25.5 -11t-26 11t-11 26z" />
<glyph unicode="&#xd0;" horiz-adv-x="1540" d="M29 715v22h270v676l-199 12v9h613q153 0 288.5 -57t230.5 -154t150.5 -228.5t55.5 -277.5t-55.5 -277.5t-150.5 -228.5t-230.5 -154t-288.5 -57h-613v8l199 12v695h-270zM322 10h378q144 0 276 55.5t228.5 149.5t153.5 225.5t57 276.5q0 194 -96.5 356.5t-261 256 t-357.5 93.5h-378v-686h356v-22h-356v-705z" />
<glyph unicode="&#xd1;" horiz-adv-x="1538" d="M100 0v8l199 12v1393l-199 12v9h222l923 -1379v1358l-198 12v9h411v-9l-196 -12l-2 -1413h-5l-942 1413l2 -1393l199 -12v-8h-414zM467 1542q0 114 46 167.5t110 53.5q39 0 75 -21.5t63.5 -52t54.5 -61.5t58 -52.5t62 -21.5q68 0 107.5 54.5t39.5 154.5h11 q0 -109 -41.5 -165t-120.5 -56q-41 0 -78 21.5t-64 52t-52 61.5t-54 52.5t-59 21.5q-52 0 -87 -34t-48 -78.5t-13 -96.5h-10z" />
<glyph unicode="&#xd2;" d="M102 717q0 -197 95.5 -364t260.5 -264t361 -97t361 97t260.5 264t95.5 364t-95.5 364t-260.5 264t-361 97t-361 -97t-260.5 -264t-95.5 -364zM125 717q0 146 54.5 278t147 228t221.5 152.5t271 56.5t271 -56.5t221.5 -152.5t147 -228t54.5 -278t-54.5 -278t-147 -228 t-221.5 -152.5t-271 -56.5t-271 56.5t-221.5 152.5t-147 228t-54.5 278zM575 1835l340 -291h21l-326 291h-35z" />
<glyph unicode="&#xd3;" d="M102 717q0 -197 95.5 -364t260.5 -264t361 -97t361 97t260.5 264t95.5 364t-95.5 364t-260.5 264t-361 97t-361 -97t-260.5 -264t-95.5 -364zM125 717q0 146 54.5 278t147 228t221.5 152.5t271 56.5t271 -56.5t221.5 -152.5t147 -228t54.5 -278t-54.5 -278t-147 -228 t-221.5 -152.5t-271 -56.5t-271 56.5t-221.5 152.5t-147 228t-54.5 278zM698 1544h19l340 291h-35z" />
<glyph unicode="&#xd4;" d="M102 717q0 -197 95.5 -364t260.5 -264t361 -97t361 97t260.5 264t95.5 364t-95.5 364t-260.5 264t-361 97t-361 -97t-260.5 -264t-95.5 -364zM125 717q0 146 54.5 278t147 228t221.5 152.5t271 56.5t271 -56.5t221.5 -152.5t147 -228t54.5 -278t-54.5 -278t-147 -228 t-221.5 -152.5t-271 -56.5t-271 56.5t-221.5 152.5t-147 228t-54.5 278zM477 1542l326 291h33l325 -291h-18l-324 277l-323 -277h-19z" />
<glyph unicode="&#xd5;" d="M102 717q0 -197 95.5 -364t260.5 -264t361 -97t361 97t260.5 264t95.5 364t-95.5 364t-260.5 264t-361 97t-361 -97t-260.5 -264t-95.5 -364zM125 717q0 146 54.5 278t147 228t221.5 152.5t271 56.5t271 -56.5t221.5 -152.5t147 -228t54.5 -278t-54.5 -278t-147 -228 t-221.5 -152.5t-271 -56.5t-271 56.5t-221.5 152.5t-147 228t-54.5 278zM506 1542q0 114 46 167.5t110 53.5q39 0 75 -21.5t63.5 -52t54.5 -61.5t58 -52.5t62 -21.5q68 0 107.5 54.5t39.5 154.5h11q0 -109 -41.5 -165t-120.5 -56q-41 0 -78 21.5t-64 52t-52 61.5t-54 52.5 t-59 21.5q-52 0 -87 -34t-48 -78.5t-13 -96.5h-10z" />
<glyph unicode="&#xd6;" d="M102 717q0 -197 95.5 -364t260.5 -264t361 -97t361 97t260.5 264t95.5 364t-95.5 364t-260.5 264t-361 97t-361 -97t-260.5 -264t-95.5 -364zM125 717q0 146 54.5 278t147 228t221.5 152.5t271 56.5t271 -56.5t221.5 -152.5t147 -228t54.5 -278t-54.5 -278t-147 -228 t-221.5 -152.5t-271 -56.5t-271 56.5t-221.5 152.5t-147 228t-54.5 278zM727 1581q0 15 11 26t26 11t26 -11t11 -26t-11 -26t-26 -11t-26 11t-11 26zM838 1581q0 15 10.5 26t25.5 11t26 -11t11 -26t-11 -26t-26 -11t-25.5 11t-10.5 26z" />
<glyph unicode="&#xd7;" horiz-adv-x="657" d="M92 260l14 -14l222 221l223 -221l14 14l-221 223l221 222l-14 14l-221 -221l-224 221l-14 -14l221 -222z" />
<glyph unicode="&#xd8;" d="M102 717q0 197 95.5 364t260.5 264t361 97q180 0 338 -84l43 76h21l-47 -86q165 -94 263.5 -262.5t98.5 -368.5q0 -197 -95.5 -364t-260.5 -264t-361 -97q-184 0 -340 86l-43 -78h-20l47 86q-165 95 -263 263t-98 368zM125 717q0 -195 93.5 -360t250.5 -259l682 1248 q-153 86 -332 86q-142 0 -271 -56.5t-221.5 -152.5t-147 -228t-54.5 -278zM485 90q151 -88 334 -88q142 0 271 56.5t221.5 152.5t147 228t54.5 278q0 195 -93.5 360t-252.5 260z" />
<glyph unicode="&#xd9;" horiz-adv-x="1630" d="M70 1425v9h419v-9l-200 -12l2 -856q0 -169 70.5 -294t187.5 -187t264 -62q254 0 393.5 161t139.5 466v772l-197 12v9h412v-9l-199 -12v-784q0 -144 -33 -257.5t-86 -183.5t-126.5 -115.5t-147.5 -63t-156 -17.5q-168 0 -293 73.5t-188.5 199t-63.5 284.5v864zM569 1835 l340 -291h21l-326 291h-35z" />
<glyph unicode="&#xda;" horiz-adv-x="1630" d="M70 1425v9h419v-9l-200 -12l2 -856q0 -169 70.5 -294t187.5 -187t264 -62q254 0 393.5 161t139.5 466v772l-197 12v9h412v-9l-199 -12v-784q0 -144 -33 -257.5t-86 -183.5t-126.5 -115.5t-147.5 -63t-156 -17.5q-168 0 -293 73.5t-188.5 199t-63.5 284.5v864zM655 1544 h19l340 291h-35z" />
<glyph unicode="&#xdb;" horiz-adv-x="1630" d="M70 1425v9h419v-9l-200 -12l2 -856q0 -169 70.5 -294t187.5 -187t264 -62q254 0 393.5 161t139.5 466v772l-197 12v9h412v-9l-199 -12v-784q0 -144 -33 -257.5t-86 -183.5t-126.5 -115.5t-147.5 -63t-156 -17.5q-168 0 -293 73.5t-188.5 199t-63.5 284.5v864zM473 1542 l326 291h32l326 -291h-18l-324 277l-323 -277h-19z" />
<glyph unicode="&#xdc;" horiz-adv-x="1630" d="M70 1425v9h419v-9l-200 -12l2 -856q0 -169 70.5 -294t187.5 -187t264 -62q254 0 393.5 161t139.5 466v772l-197 12v9h412v-9l-199 -12v-784q0 -144 -33 -257.5t-86 -183.5t-126.5 -115.5t-147.5 -63t-156 -17.5q-168 0 -293 73.5t-188.5 199t-63.5 284.5v864zM723 1581 q0 15 11 26t26 11t26 -11t11 -26t-11 -26t-26 -11t-26 11t-11 26zM834 1581q0 15 10.5 26t25.5 11t26 -11t11 -26t-11 -26t-26 -11t-25.5 11t-10.5 26z" />
<glyph unicode="&#xdd;" horiz-adv-x="1361" d="M16 1425v9h420v-9l-198 -12l440 -954l452 954l-198 12v9h414v-9l-199 -12l-461 -977v-416l199 -12v-8h-420v8l199 12v416l-449 977zM547 1544h18l340 291h-35z" />
<glyph unicode="&#xde;" horiz-adv-x="1228" d="M100 0h420v8l-198 12v283h411q170 0 292 122t122 292t-122 291.5t-292 121.5h-411v283l198 12v9h-420v-9l199 -12v-1393l-199 -12v-8zM322 315v803h409q163 0 278 -117.5t115 -283.5t-115 -284t-278 -118h-409z" />
<glyph unicode="&#xdf;" horiz-adv-x="1374" d="M49 0v8l199 12v1113q0 141 83 225t199 84q112 0 186.5 -66t74.5 -182q0 -114 -119 -205q-4 -3 -26.5 -20.5t-27.5 -21.5t-23 -19.5t-23.5 -22.5t-17 -22.5t-15 -27.5t-7.5 -29t-4 -35q0 -45 19.5 -80.5t50 -59.5t83 -44t103 -32.5t125.5 -27.5q73 -15 128 -30.5 t109.5 -40t89 -54.5t56 -73t21.5 -97q0 -121 -105 -190.5t-290 -69.5q-62 0 -135.5 20t-135.5 60q-73 48 -112 125h6q53 -91 164 -142t213 -51q107 0 188.5 25.5t131.5 81.5t50 137q0 51 -19.5 91.5t-51 68.5t-82.5 50t-102.5 36.5t-121.5 27.5q-82 17 -137 31t-110.5 36 t-87.5 48t-52 64t-20 87q0 19 4 36.5t9 31t16.5 28.5t19.5 24.5t24.5 23.5t26.5 21.5t30 23t30 22.5q114 89 114 201q0 95 -71.5 157t-176.5 62q-104 0 -182 -82t-78 -217v-1100l199 -12v-8h-420z" />
<glyph unicode="&#xe0;" horiz-adv-x="1159" d="M92 256q0 82 59.5 153t155.5 103l455 162q52 17 83.5 60t31.5 97q0 69 -59 119.5t-142 50.5h-344l-219 -245l-9 6l218 262h358q90 0 154.5 -57.5t64.5 -135.5v-811l201 -12v-8h-223v319q-26 -151 -141.5 -239t-280.5 -88q-172 0 -267.5 65.5t-95.5 198.5zM117 258 q0 -128 89 -186t238 -58q87 0 161 23t123 61t83.5 86.5t50 99.5t15.5 101v358q-32 -65 -109 -90l-455 -161q-90 -30 -143 -95t-53 -139zM365 1419l340 -291h20l-326 291h-34z" />
<glyph unicode="&#xe1;" horiz-adv-x="1148" d="M92 256q0 82 59.5 153t155.5 103l455 162q52 17 83.5 60t31.5 97q0 69 -59 119.5t-142 50.5h-344l-219 -245l-9 6l218 262h358q90 0 154.5 -57.5t64.5 -135.5v-811l201 -12v-8h-223v319q-26 -151 -141.5 -239t-280.5 -88q-172 0 -267.5 65.5t-95.5 198.5zM117 258 q0 -128 89 -186t238 -58q87 0 161 23t123 61t83.5 86.5t50 99.5t15.5 101v358q-32 -65 -109 -90l-455 -161q-90 -30 -143 -95t-53 -139zM471 1128h18l340 291h-34z" />
<glyph unicode="&#xe2;" horiz-adv-x="1159" d="M92 256q0 82 59.5 153t155.5 103l455 162q52 17 83.5 60t31.5 97q0 69 -59 119.5t-142 50.5h-344l-219 -245l-9 6l218 262h358q90 0 154.5 -57.5t64.5 -135.5v-811l201 -12v-8h-223v319q-26 -151 -141.5 -239t-280.5 -88q-172 0 -267.5 65.5t-95.5 198.5zM117 258 q0 -128 89 -186t238 -58q87 0 161 23t123 61t83.5 86.5t50 99.5t15.5 101v358q-32 -65 -109 -90l-455 -161q-90 -30 -143 -95t-53 -139zM213 1128l326 291h32l326 -291h-18l-324 277l-324 -277h-18z" />
<glyph unicode="&#xe3;" horiz-adv-x="1159" d="M92 256q0 82 59.5 153t155.5 103l455 162q52 17 83.5 60t31.5 97q0 69 -59 119.5t-142 50.5h-344l-219 -245l-9 6l218 262h358q90 0 154.5 -57.5t64.5 -135.5v-811l201 -12v-8h-223v319q-26 -151 -141.5 -239t-280.5 -88q-172 0 -267.5 65.5t-95.5 198.5zM117 258 q0 -128 89 -186t238 -58q87 0 161 23t123 61t83.5 86.5t50 99.5t15.5 101v358q-32 -65 -109 -90l-455 -161q-90 -30 -143 -95t-53 -139zM197 1128q0 115 45.5 168.5t109.5 53.5q39 0 75 -21.5t64 -52t54.5 -61.5t58 -52.5t62.5 -21.5q68 0 107.5 54.5t39.5 154.5h10 q0 -110 -41.5 -166t-119.5 -56q-41 0 -78 21.5t-64.5 52t-52.5 61.5t-54 52.5t-59 21.5q-40 0 -69.5 -19t-46 -50.5t-24 -66.5t-7.5 -73h-10z" />
<glyph unicode="&#xe4;" horiz-adv-x="1159" d="M92 256q0 82 59.5 153t155.5 103l455 162q52 17 83.5 60t31.5 97q0 69 -59 119.5t-142 50.5h-344l-219 -245l-9 6l218 262h358q90 0 154.5 -57.5t64.5 -135.5v-811l201 -12v-8h-223v319q-26 -151 -141.5 -239t-280.5 -88q-172 0 -267.5 65.5t-95.5 198.5zM117 258 q0 -128 89 -186t238 -58q87 0 161 23t123 61t83.5 86.5t50 99.5t15.5 101v358q-32 -65 -109 -90l-455 -161q-90 -30 -143 -95t-53 -139zM469 1204q0 15 11 26t26 11t26 -11t11 -26t-11 -26t-26 -11t-26 11t-11 26zM580 1204q0 15 10.5 26t25.5 11t26 -11t11 -26t-11 -26 t-26 -11t-25.5 11t-10.5 26z" />
<glyph unicode="&#xe5;" horiz-adv-x="1159" d="M92 256q0 82 59.5 153t155.5 103l455 162q52 17 83.5 60t31.5 97q0 69 -59 119.5t-142 50.5h-344l-219 -245l-9 6l218 262h358q90 0 154.5 -57.5t64.5 -135.5v-811l201 -12v-8h-223v319q-26 -151 -141.5 -239t-280.5 -88q-172 0 -267.5 65.5t-95.5 198.5zM117 258 q0 -128 89 -186t238 -58q87 0 161 23t123 61t83.5 86.5t50 99.5t15.5 101v358q-32 -65 -109 -90l-455 -161q-90 -30 -143 -95t-53 -139zM426 1266q0 -56 40 -97t97 -41t97 41t40 97q0 57 -40 98t-97 41t-97 -41t-40 -98zM449 1268q0 48 34 86.5t80 38.5q45 0 79 -38.5 t34 -86.5t-34 -87.5t-79 -39.5q-46 0 -80 39.5t-34 87.5z" />
<glyph unicode="&#xe6;" horiz-adv-x="2007" d="M92 256q0 82 59 152t156 104l455 162q53 19 84 61t31 96q0 69 -59 119.5t-142 50.5h-344l-219 -245l-9 6l218 262h358q90 0 154.5 -57.5t64.5 -135.5v-172q46 165 182 269t310 104q151 0 275 -80.5t187 -212.5h-899q-53 -103 -53 -227q0 -138 66 -252.5t178.5 -180 t245.5 -65.5q186 0 329 121t168 299h10q-26 -189 -170.5 -315.5t-336.5 -126.5q-179 0 -317 109t-179 280q-9 -166 -127.5 -277.5t-312.5 -111.5q-172 0 -267.5 65.5t-95.5 198.5zM117 258q0 -128 89 -186t238 -58q87 0 161 23t123 61t83.5 86.5t50 99.5t15.5 101v358 q-32 -65 -109 -90l-455 -161q-90 -32 -143 -96t-53 -138zM958 752h863q-63 117 -178 187.5t-254 70.5q-137 0 -252 -70t-179 -188z" />
<glyph unicode="&#xe7;" horiz-adv-x="1241" d="M113 508q0 106 40.5 202t109 164.5t163.5 109t199 40.5h227l217 -262l-8 -6l-215 245h-221q-99 0 -189.5 -38.5t-156.5 -104t-105 -157.5t-39 -193q0 -206 143.5 -350t346.5 -144q186 0 329 121t168 299h11q-26 -188 -170.5 -315t-337.5 -127h-19l-92 -139q43 43 107 43 q53 0 92 -29.5t39 -91.5q0 -103 -90.5 -174t-219.5 -82v8q124 13 205.5 84t81.5 162q0 49 -27.5 79.5t-87.5 30.5q-63 0 -104 -51l-27 -2l107 164q-200 12 -338.5 160t-138.5 354z" />
<glyph unicode="&#xe8;" horiz-adv-x="1241" d="M113 512q0 144 68.5 263.5t186 188t257.5 68.5q151 0 275 -80.5t187 -212.5h-899q-53 -103 -53 -227q0 -138 66 -252.5t178.5 -180t245.5 -65.5q186 0 329 121t168 299h11q-26 -188 -170.5 -315t-337.5 -127q-140 0 -257.5 68.5t-186 188t-68.5 263.5zM195 752h862 q-63 117 -178 187.5t-254 70.5q-137 0 -251.5 -70t-178.5 -188zM451 1419l340 -291h20l-326 291h-34z" />
<glyph unicode="&#xe9;" horiz-adv-x="1241" d="M113 512q0 144 68.5 263.5t186 188t257.5 68.5q151 0 275 -80.5t187 -212.5h-899q-53 -103 -53 -227q0 -138 66 -252.5t178.5 -180t245.5 -65.5q186 0 329 121t168 299h11q-26 -188 -170.5 -315t-337.5 -127q-140 0 -257.5 68.5t-186 188t-68.5 263.5zM195 752h862 q-63 117 -178 187.5t-254 70.5q-137 0 -251.5 -70t-178.5 -188zM453 1128h18l340 291h-35z" />
<glyph unicode="&#xea;" horiz-adv-x="1241" d="M113 512q0 144 68.5 263.5t186 188t257.5 68.5q151 0 275 -80.5t187 -212.5h-899q-53 -103 -53 -227q0 -138 66 -252.5t178.5 -180t245.5 -65.5q186 0 329 121t168 299h11q-26 -188 -170.5 -315t-337.5 -127q-140 0 -257.5 68.5t-186 188t-68.5 263.5zM195 752h862 q-63 117 -178 187.5t-254 70.5q-137 0 -251.5 -70t-178.5 -188zM293 1128l325 291h33l326 -291h-19l-323 277l-324 -277h-18z" />
<glyph unicode="&#xeb;" horiz-adv-x="1241" d="M113 512q0 144 68.5 263.5t186 188t257.5 68.5q151 0 275 -80.5t187 -212.5h-899q-53 -103 -53 -227q0 -138 66 -252.5t178.5 -180t245.5 -65.5q186 0 329 121t168 299h11q-26 -188 -170.5 -315t-337.5 -127q-140 0 -257.5 68.5t-186 188t-68.5 263.5zM195 752h862 q-63 117 -178 187.5t-254 70.5q-137 0 -251.5 -70t-178.5 -188zM522 1204q0 15 11 26t26 11t26 -11t11 -26t-11 -26t-26 -11t-26 11t-11 26zM633 1204q0 15 11 26t26 11t26 -11t11 -26t-11 -26t-26 -11t-26 11t-11 26z" />
<glyph unicode="&#xec;" horiz-adv-x="571" d="M76 1419l340 -291h20l-325 291h-35zM82 866l203 158h22v-1004l199 -12v-8h-420v8l199 12v975l-195 -135z" />
<glyph unicode="&#xed;" horiz-adv-x="571" d="M82 866l203 158h22v-1004l199 -12v-8h-420v8l199 12v975l-195 -135zM111 1128h18l340 291h-35z" />
<glyph unicode="&#xee;" horiz-adv-x="571" d="M-41 1128l326 291h32l326 -291h-18l-324 277l-324 -277h-18zM82 866l203 158h22v-1004l199 -12v-8h-420v8l199 12v975l-195 -135z" />
<glyph unicode="&#xef;" horiz-adv-x="571" d="M82 866l203 158h22v-1004l199 -12v-8h-420v8l199 12v975l-195 -135zM203 1204q0 15 11 26t26 11t25.5 -11t10.5 -26t-10.5 -26t-25.5 -11t-26 11t-11 26zM313 1204q0 15 11 26t26 11t26 -11t11 -26t-11 -26t-26 -11t-26 11t-11 26z" />
<glyph unicode="&#xf0;" horiz-adv-x="1228" d="M102 512q0 -146 68.5 -265.5t186 -187t257.5 -67.5t257.5 67.5t186 187t68.5 265.5q0 488 -319 725l180 66l-4 14l-190 -70q-204 143 -521 191v-4q303 -49 502 -195l-201 -72l5 -14l208 78q249 -191 308 -529q-56 149 -186.5 239.5t-293.5 90.5q-140 0 -257.5 -67.5 t-186 -187t-68.5 -265.5zM125 512q0 107 38.5 202t104.5 162.5t156 106.5t190 39t190.5 -39t156 -106.5t104.5 -162.5t39 -202t-39 -202t-104.5 -162.5t-156 -106.5t-190.5 -39t-190 39t-156 106.5t-104.5 162.5t-38.5 202z" />
<glyph unicode="&#xf1;" horiz-adv-x="1333" d="M82 866l203 158h22v-305q28 135 137 224t252 89q170 0 278.5 -111.5t108.5 -285.5v-615l199 -12v-8h-420v8l199 12v615q0 166 -102 270.5t-263 104.5q-158 0 -273.5 -111.5t-115.5 -265.5v-613l199 -12v-8h-420v8l199 12v975l-195 -135zM375 1128q0 115 45.5 168.5 t109.5 53.5q39 0 75 -21.5t64 -52t54.5 -61.5t58 -52.5t62.5 -21.5q68 0 107.5 54.5t39.5 154.5h10q0 -110 -41.5 -166t-119.5 -56q-41 0 -78 21.5t-64.5 52t-52.5 61.5t-54 52.5t-59 21.5q-40 0 -69.5 -19t-46 -50.5t-24 -66.5t-7.5 -73h-10z" />
<glyph unicode="&#xf2;" horiz-adv-x="1249" d="M113 512q0 146 68.5 265.5t186 187t257.5 67.5t257.5 -67.5t186 -187t68.5 -265.5t-68.5 -265.5t-186 -187t-257.5 -67.5t-257.5 67.5t-186 187t-68.5 265.5zM135 512q0 -107 39 -202t104.5 -162.5t156 -106.5t190.5 -39t190 39t156 106.5t104.5 162.5t38.5 202 t-38.5 202t-104.5 162.5t-156 106.5t-190 39t-190.5 -39t-156 -106.5t-104.5 -162.5t-39 -202zM401 1419l340 -291h21l-326 291h-35z" />
<glyph unicode="&#xf3;" horiz-adv-x="1249" d="M113 512q0 146 68.5 265.5t186 187t257.5 67.5t257.5 -67.5t186 -187t68.5 -265.5t-68.5 -265.5t-186 -187t-257.5 -67.5t-257.5 67.5t-186 187t-68.5 265.5zM135 512q0 -107 39 -202t104.5 -162.5t156 -106.5t190.5 -39t190 39t156 106.5t104.5 162.5t38.5 202 t-38.5 202t-104.5 162.5t-156 106.5t-190 39t-190.5 -39t-156 -106.5t-104.5 -162.5t-39 -202zM471 1128h18l340 291h-34z" />
<glyph unicode="&#xf4;" horiz-adv-x="1249" d="M113 512q0 146 68.5 265.5t186 187t257.5 67.5t257.5 -67.5t186 -187t68.5 -265.5t-68.5 -265.5t-186 -187t-257.5 -67.5t-257.5 67.5t-186 187t-68.5 265.5zM135 512q0 -107 39 -202t104.5 -162.5t156 -106.5t190.5 -39t190 39t156 106.5t104.5 162.5t38.5 202 t-38.5 202t-104.5 162.5t-156 106.5t-190 39t-190.5 -39t-156 -106.5t-104.5 -162.5t-39 -202zM283 1128l325 291h33l326 -291h-19l-323 277l-324 -277h-18z" />
<glyph unicode="&#xf5;" horiz-adv-x="1249" d="M113 512q0 146 68.5 265.5t186 187t257.5 67.5t257.5 -67.5t186 -187t68.5 -265.5t-68.5 -265.5t-186 -187t-257.5 -67.5t-257.5 67.5t-186 187t-68.5 265.5zM135 512q0 -107 39 -202t104.5 -162.5t156 -106.5t190.5 -39t190 39t156 106.5t104.5 162.5t38.5 202 t-38.5 202t-104.5 162.5t-156 106.5t-190 39t-190.5 -39t-156 -106.5t-104.5 -162.5t-39 -202zM311 1128q0 115 46 168.5t110 53.5q39 0 75 -21.5t63.5 -52t54.5 -61.5t58 -52.5t62 -21.5q69 0 108.5 54.5t39.5 154.5h10q0 -109 -41.5 -165.5t-120.5 -56.5q-41 0 -78 21.5 t-64 52t-52 61.5t-54 52.5t-59 21.5q-40 0 -69.5 -19t-46 -50.5t-24 -66.5t-7.5 -73h-11z" />
<glyph unicode="&#xf6;" horiz-adv-x="1249" d="M113 512q0 146 68.5 265.5t186 187t257.5 67.5t257.5 -67.5t186 -187t68.5 -265.5t-68.5 -265.5t-186 -187t-257.5 -67.5t-257.5 67.5t-186 187t-68.5 265.5zM135 512q0 -107 39 -202t104.5 -162.5t156 -106.5t190.5 -39t190 39t156 106.5t104.5 162.5t38.5 202 t-38.5 202t-104.5 162.5t-156 106.5t-190 39t-190.5 -39t-156 -106.5t-104.5 -162.5t-39 -202zM532 1204q0 15 11 26t26 11t26 -11t11 -26t-11 -26t-26 -11t-26 11t-11 26zM643 1204q0 15 11 26t26 11t26 -11t11 -26t-11 -26t-26 -11t-26 11t-11 26z" />
<glyph unicode="&#xf7;" horiz-adv-x="831" d="M92 471v23h647v-23h-647zM379 160q0 15 11 26t26 11t26 -11t11 -26t-11 -26t-26 -11t-26 11t-11 26zM379 805q0 15 11 26t26 11t26 -11t11 -26t-11 -26t-26 -11t-26 11t-11 26z" />
<glyph unicode="&#xf8;" horiz-adv-x="1249" d="M113 512q0 146 68.5 265.5t186 187t257.5 67.5q132 0 241 -59l29 51h20l-32 -59q116 -67 185 -187t69 -266t-68.5 -265.5t-186 -187t-257.5 -67.5q-133 0 -242 59l-29 -51h-20l33 59q-116 67 -185 187t-69 266zM135 512q0 -141 64.5 -256.5t173.5 -183.5l487 889 q-109 61 -235 61q-100 0 -190.5 -39t-156 -106.5t-104.5 -162.5t-39 -202zM389 63q109 -61 236 -61q100 0 190 39t156 106.5t104.5 162.5t38.5 202q0 141 -64 256.5t-173 183.5z" />
<glyph unicode="&#xf9;" horiz-adv-x="1327" d="M55 1016v8h221v-635q0 -166 102 -270.5t263 -104.5q158 0 273.5 111.5t115.5 265.5v613l-199 12v8h222v-1004l198 -12v-8h-221v305q-28 -135 -137 -224t-252 -89q-170 0 -278.5 111.5t-108.5 285.5v615zM354 1419l340 -291h21l-326 291h-35z" />
<glyph unicode="&#xfa;" horiz-adv-x="1327" d="M55 1016v8h221v-635q0 -166 102 -270.5t263 -104.5q158 0 273.5 111.5t115.5 265.5v613l-199 12v8h222v-1004l198 -12v-8h-221v305q-28 -135 -137 -224t-252 -89q-170 0 -278.5 111.5t-108.5 285.5v615zM449 1128h18l340 291h-35z" />
<glyph unicode="&#xfb;" horiz-adv-x="1327" d="M55 1016v8h221v-635q0 -166 102 -270.5t263 -104.5q158 0 273.5 111.5t115.5 265.5v613l-199 12v8h222v-1004l198 -12v-8h-221v305q-28 -135 -137 -224t-252 -89q-170 0 -278.5 111.5t-108.5 285.5v615zM303 1128l326 291h33l325 -291h-18l-324 277l-323 -277h-19z" />
<glyph unicode="&#xfc;" horiz-adv-x="1327" d="M55 1016v8h221v-635q0 -166 102 -270.5t263 -104.5q158 0 273.5 111.5t115.5 265.5v613l-199 12v8h222v-1004l198 -12v-8h-221v305q-28 -135 -137 -224t-252 -89q-170 0 -278.5 111.5t-108.5 285.5v615zM549 1204q0 15 11 26t26 11t26 -11t11 -26t-11 -26t-26 -11t-26 11 t-11 26zM659 1204q0 15 11 26t26 11t26 -11t11 -26t-11 -26t-26 -11t-26 11t-11 26z" />
<glyph unicode="&#xfd;" horiz-adv-x="1198" d="M23 1016v8h323v-8l-147 -12l401 -965l414 965l-148 12v8h310v-8l-148 -12l-426 -992q-40 -94 -66.5 -150.5t-59 -115t-59 -90t-61.5 -58.5t-73.5 -37.5t-87.5 -11.5v2q53 4 96 24t77.5 51.5t71 92t68 125t76.5 170.5l-414 990zM451 1128h18l340 291h-35z" />
<glyph unicode="&#xfe;" horiz-adv-x="1318" d="M70 1276l202 158h23v-670q63 119 176 193.5t242 74.5q135 0 248 -68t179 -188t66 -266q0 -221 -143 -369.5t-350 -148.5q-130 0 -245 75t-173 191v-733l199 -12v-9h-420v9l198 12v1880l-194 -135zM295 281q59 -122 171 -194.5t247 -72.5q129 0 236.5 64t171 178t63.5 254 q0 212 -137.5 356t-333.5 144q-135 0 -247 -73t-171 -196v-460z" />
<glyph unicode="&#xff;" horiz-adv-x="1198" d="M23 1016v8h323v-8l-147 -12l401 -965l414 965l-148 12v8h310v-8l-148 -12l-426 -992q-40 -94 -66.5 -150.5t-59 -115t-59 -90t-61.5 -58.5t-73.5 -37.5t-87.5 -11.5v2q53 4 96 24t77.5 51.5t71 92t68 125t76.5 170.5l-414 990zM508 1204q0 15 11 26t26 11t26 -11t11 -26 t-11 -26t-26 -11t-26 11t-11 26zM618 1204q0 15 11 26t26 11t26 -11t11 -26t-11 -26t-26 -11t-26 11t-11 26z" />
<glyph unicode="&#x152;" horiz-adv-x="2021" d="M102 717q0 145 57 278t153 229t229 153t278 57h928l141 -295l-8 -6l-141 280h-729v-686h403l12 287h7v-588h-7l-12 287h-403v-693h667l305 355l9 -6l-305 -369h-867q-145 0 -278 57t-229 153t-153 229t-57 278zM125 717q0 -189 91.5 -349t249.5 -252.5t345 -92.5h176 v1388h-176q-187 0 -345 -92.5t-249.5 -252.5t-91.5 -349z" />
<glyph unicode="&#x153;" horiz-adv-x="2242" d="M113 512q0 146 68.5 265.5t186 187t257.5 67.5q184 0 324 -114.5t177 -294.5q37 179 176.5 294t323.5 115q151 0 275.5 -80.5t187.5 -212.5h-899q-53 -103 -53 -227q0 -138 65.5 -252.5t178 -180t245.5 -65.5q186 0 329.5 121t168.5 299h10q-26 -188 -170.5 -315 t-337.5 -127q-184 0 -323.5 115t-176.5 294q-37 -180 -177 -294.5t-324 -114.5q-140 0 -257.5 67.5t-186 187t-68.5 265.5zM135 512q0 -107 39 -202t104.5 -162.5t156 -106.5t190.5 -39t190 39t156 106.5t104.5 162.5t38.5 202t-38.5 202t-104.5 162.5t-156 106.5t-190 39 t-190.5 -39t-156 -106.5t-104.5 -162.5t-39 -202zM1196 752h862q-63 117 -178 187.5t-254 70.5q-137 0 -251.5 -70t-178.5 -188z" />
<glyph unicode="&#x178;" horiz-adv-x="1361" d="M16 1425v9h420v-9l-198 -12l440 -954l452 954l-198 12v9h414v-9l-199 -12l-461 -977v-416l199 -12v-8h-420v8l199 12v416l-449 977zM590 1581q0 15 11 26t26 11t26 -11t11 -26t-11 -26t-26 -11t-26 11t-11 26zM700 1581q0 15 11 26t26 11t26 -11t11 -26t-11 -26t-26 -11 t-26 11t-11 26z" />
<glyph unicode="&#x2c6;" horiz-adv-x="888" d="M102 1143l326 291h33l325 -291h-18l-324 276l-323 -276h-19z" />
<glyph unicode="&#x2dc;" horiz-adv-x="831" d="M102 1212q0 115 46 168.5t110 53.5q39 0 75 -21.5t63.5 -52t54.5 -61.5t58 -52.5t62 -21.5q69 0 108.5 54.5t39.5 154.5h10q0 -109 -41.5 -165.5t-120.5 -56.5q-41 0 -78 21.5t-64 52t-52 61.5t-54 52.5t-59 21.5q-40 0 -69.5 -19t-46 -50.5t-24 -66.5t-7.5 -73h-11z" />
<glyph unicode="&#x2000;" horiz-adv-x="917" />
<glyph unicode="&#x2001;" horiz-adv-x="1835" />
<glyph unicode="&#x2002;" horiz-adv-x="917" />
<glyph unicode="&#x2003;" horiz-adv-x="1835" />
<glyph unicode="&#x2004;" horiz-adv-x="611" />
<glyph unicode="&#x2005;" horiz-adv-x="458" />
<glyph unicode="&#x2006;" horiz-adv-x="305" />
<glyph unicode="&#x2007;" horiz-adv-x="305" />
<glyph unicode="&#x2008;" horiz-adv-x="229" />
<glyph unicode="&#x2009;" horiz-adv-x="367" />
<glyph unicode="&#x200a;" horiz-adv-x="101" />
<glyph unicode="&#x2010;" horiz-adv-x="731" d="M41 471h649v23h-649v-23z" />
<glyph unicode="&#x2011;" horiz-adv-x="731" d="M41 471h649v23h-649v-23z" />
<glyph unicode="&#x2012;" horiz-adv-x="731" d="M41 471h649v23h-649v-23z" />
<glyph unicode="&#x2013;" horiz-adv-x="972" d="M41 471h891v23h-891v-23z" />
<glyph unicode="&#x2014;" horiz-adv-x="1382" d="M41 471h1300v23h-1300v-23z" />
<glyph unicode="&#x2018;" horiz-adv-x="249" d="M111 1116h24v498h-8z" />
<glyph unicode="&#x2019;" horiz-adv-x="249" d="M115 1116h8l16 498h-24v-498z" />
<glyph unicode="&#x201a;" horiz-adv-x="249" d="M115 168v-498h8l16 498h-24z" />
<glyph unicode="&#x201c;" horiz-adv-x="387" d="M111 1116h24v498h-8zM248 1116h24v498h-8z" />
<glyph unicode="&#x201d;" horiz-adv-x="387" d="M115 1116h8l16 498h-24v-498zM252 1116h8l16 498h-24v-498z" />
<glyph unicode="&#x201e;" horiz-adv-x="387" d="M115 168v-498h8l16 498h-24zM252 168v-498h8l16 498h-24z" />
<glyph unicode="&#x2022;" horiz-adv-x="380" d="M82 559q0 42 33 73.5t78 31.5q43 0 74.5 -32t31.5 -73q0 -47 -31.5 -80t-74.5 -33q-46 0 -78.5 33t-32.5 80z" />
<glyph unicode="&#x2026;" horiz-adv-x="696" d="M86 35q0 15 11 26t26 11t26 -11t11 -26t-11 -26t-26 -11t-26 11t-11 26zM311 35q0 15 11 26t26 11t26 -11t11 -26t-11 -26t-26 -11t-26 11t-11 26zM537 35q0 15 10.5 26t25.5 11t26 -11t11 -26t-11 -26t-26 -11t-25.5 11t-10.5 26z" />
<glyph unicode="&#x202f;" horiz-adv-x="367" />
<glyph unicode="&#x2039;" horiz-adv-x="761" d="M45 662l610 561h17l-604 -561l604 -562h-17z" />
<glyph unicode="&#x203a;" horiz-adv-x="761" d="M90 100l604 562l-604 561h16l611 -561l-611 -562h-16z" />
<glyph unicode="&#x205f;" horiz-adv-x="458" />
<glyph unicode="&#x20ac;" horiz-adv-x="1718" d="M123 573v19h162q-11 75 -11 125q0 52 11 127h-162v18h166q52 247 248.5 409.5t453.5 162.5h242l305 -371l-8 -6l-305 354h-234q-247 0 -437.5 -156t-240.5 -393h459v-18h-463q-12 -62 -12 -127q0 -57 10 -125h465v-19h-461q50 -243 240.5 -401t439.5 -158q127 0 238 48 t188.5 129.5t128.5 187t68 223.5h10q-13 -118 -62.5 -227t-128.5 -194.5t-194.5 -137t-247.5 -51.5q-258 0 -455 164.5t-247 416.5h-166z" />
<glyph unicode="&#x2122;" horiz-adv-x="1017" d="M41 1350l41 84h299l41 -84l-2 -2l-41 79h-146v-397l58 -4v-2h-119v2l55 4v397h-143l-41 -79zM457 1024v2l57 4v397l-57 5v2h59l186 -375l181 375h63v-2l-55 -2v-400l55 -4v-2h-119v2l56 4v395l-181 -374h-2l-182 368v-389l57 -4v-2h-118z" />
<glyph unicode="&#x25fc;" horiz-adv-x="1024" d="M0 0v1024h1024v-1024h-1024z" />
<glyph unicode="&#xfb01;" horiz-adv-x="1142" d="M61 0v8l199 12v916h-137v22l223 -2q-17 1 -40 8t-52.5 25t-53.5 43t-40.5 65.5t-16.5 88.5q0 102 76 175t182 73h332l146 -2l-13 -299h-8l-2 276l-461 2q-26 0 -56 -8t-61 -26.5t-55.5 -44t-40.5 -63.5t-16 -83q0 -106 71.5 -168t198.5 -62l443 2v-938l198 -12v-8h-420v8 l199 12v916h-573v-916l198 -12v-8h-420z" />
</font>
</defs>
</svg>
