<?xml version="1.0" standalone="no"?>
<!DOCTYPE svg PUBLIC "-//W3C//DTD SVG 1.1//EN" "http://www.w3.org/Graphics/SVG/1.1/DTD/svg11.dtd" >
<svg xmlns="http://www.w3.org/2000/svg" xmlns:xlink="http://www.w3.org/1999/xlink" version="1.1">
<metadata></metadata>
<defs>
<font id="lausanne300" horiz-adv-x="1253" >
<font-face units-per-em="2048" ascent="1638" descent="-410" />
<missing-glyph horiz-adv-x="430" />
<glyph unicode="&#xfb01;" horiz-adv-x="1077" d="M61 907v152h146v139q0 123 61 193q62 71 195 71h115v-155h-68q-64 0 -92 -25q-31 -28 -31 -92v-131h178v-152h-178v-907h-180v907h-146zM754 1249v205h196v-205h-196zM760 0v1059h184v-1059h-184z" />
<glyph unicode="&#xfb02;" horiz-adv-x="1089" d="M61 907v152h146v139q0 123 61 193q62 71 195 71h115v-155h-68q-64 0 -92 -25q-31 -28 -31 -92v-131h178v-152h-178v-907h-180v907h-146zM766 0v1462h184v-1462h-184z" />
<glyph unicode="&#xd;" horiz-adv-x="681" />
<glyph horiz-adv-x="1048" />
<glyph horiz-adv-x="1048" />
<glyph unicode=" "  horiz-adv-x="430" />
<glyph unicode="&#x09;" horiz-adv-x="430" />
<glyph unicode="&#xa0;" horiz-adv-x="430" />
<glyph unicode="!" horiz-adv-x="507" d="M147 0v233h213v-233h-213zM156 950v512h194v-512l-47 -561h-100z" />
<glyph unicode="&#x22;" horiz-adv-x="917" d="M201 975v487h188v-487h-188zM528 975v487h189v-487h-189z" />
<glyph unicode="#" horiz-adv-x="1163" d="M82 422v139h219l43 307h-209v140h227l60 419h141l-59 -419h254l59 419h141l-59 -419h182v-140h-200l-43 -307h186v-139h-207l-59 -422h-142l60 422h-254l-60 -422h-141l60 422h-199zM442 561h254l43 307h-254z" />
<glyph unicode="$" horiz-adv-x="1247" d="M78 420h194q12 -131 88 -201q77 -71 199 -86v533q-97 25 -158 51q-76 32 -133 71q-67 44 -106 117q-38 66 -41 164q-3 191 125 301q129 110 313 125v139h127v-139q181 -15 295 -117q113 -101 131 -295h-199q-38 219 -227 246v-518q2 -1 10.5 -2.5t24.5 -5.5t33 -8 q15 -4 31 -8.5t25 -7t13 -3.5q14 -3 64 -18q47 -14 65 -25q11 -7 58 -31q41 -21 55 -38q35 -42 41 -48q28 -28 37 -59t18 -70q8 -36 8 -86q0 -201 -141 -309q-143 -110 -342 -125v-174h-127v174q-210 18 -338 131q-131 110 -143 322zM315 1100q0 -101 60 -158 q56 -53 184 -94v481q-104 -12 -174 -67q-70 -58 -70 -162zM686 131q124 9 207 74q82 61 82 190q0 61 -21 105q-21 40 -67 67q-48 28 -86 39q-55 16 -115 31v-506z" />
<glyph unicode="%" horiz-adv-x="1953" d="M119 1040q0 172 94 297q91 125 254 125q162 0 256 -125q92 -127 92 -297q0 -171 -92 -301q-95 -129 -256 -129q-163 0 -254 129q-94 128 -94 301zM295 1042q0 -119 47 -202q46 -82 125 -82q81 0 127 82q45 80 45 202q0 123 -45 197q-46 76 -127 76q-79 0 -125 -76 q-47 -77 -47 -197zM385 -49l973 1534h201l-973 -1534h-201zM1139 410q0 172 94 297q90 124 254 124q163 0 256 -124q92 -127 92 -297q0 -171 -92 -301q-95 -129 -256 -129q-163 0 -254 129q-94 128 -94 301zM1315 412q0 -120 47 -203q46 -82 125 -82q81 0 127 82 q45 80 45 203q0 122 -45 196q-46 76 -127 76q-79 0 -125 -76q-47 -77 -47 -196z" />
<glyph unicode="&#x26;" horiz-adv-x="1335" d="M86 375q0 154 92 254q88 99 262 188q-25 30 -45 57q-23 30 -43 56q-13 17 -33 49q-17 28 -28 57q-12 27 -17 58q-8 31 -8 67q0 125 88 213t242 88q145 0 252 -78q102 -80 102 -221q0 -219 -274 -379l256 -315q31 66 47 190h156q-20 -134 -93 -315l297 -344h-227l-156 197 q-139 -222 -413 -222q-145 0 -236 45q-98 43 -141 113q-47 68 -62 127q-18 58 -18 115zM270 377q0 -104 84 -176t195 -72q63 0 110 12q40 8 84 45q46 42 54 52q4 5 11 14.5t19.5 27l22.5 31.5l-313 398q-92 -58 -101 -64q-27 -19 -80 -65q-42 -40 -65 -93q-21 -49 -21 -110z M440 1153q0 -39 25 -94q25 -54 45 -80q26 -40 63 -88q43 28 95 65q30 24 71 84q37 52 37 113q0 66 -45 111t-123 45q-68 0 -116 -39q-52 -40 -52 -117z" />
<glyph unicode="'" horiz-adv-x="585" d="M201 975v487h184v-487h-184z" />
<glyph unicode="(" horiz-adv-x="585" d="M102 553q0 237 84 491q84 250 238 453h162q-299 -526 -299 -944q0 -235 78 -467q76 -229 221 -492h-162q-160 253 -240 476q-82 230 -82 483z" />
<glyph unicode=")" horiz-adv-x="585" d="M0 -406q150 272 223 492q76 227 76 467q0 418 -299 944h162q156 -205 239 -453q82 -247 82 -491q0 -253 -82 -483q-81 -227 -239 -476h-162z" />
<glyph unicode="*" horiz-adv-x="745" d="M61 1214l37 99l221 -88l-4 237h109l-4 -237l223 88l41 -99l-229 -75l141 -189l-84 -63l-139 209l-135 -209l-93 63l140 189z" />
<glyph unicode="+" d="M111 481v156h434v440h164v-440h434v-156h-434v-440h-164v440h-434z" />
<glyph unicode="," horiz-adv-x="491" d="M74 -231l102 479h205l-143 -479h-164z" />
<glyph unicode="-" horiz-adv-x="911" d="M127 483v172h657v-172h-657z" />
<glyph unicode="." horiz-adv-x="495" d="M135 0v233h225v-233h-225z" />
<glyph unicode="/" horiz-adv-x="698" d="M0 -199l500 1778h174l-500 -1778h-174z" />
<glyph unicode="0" horiz-adv-x="1228" d="M94 731q0 140 29 275q27 126 86 235q57 105 164 168q101 61 241 61t244 -61q105 -64 162 -168q62 -115 88 -235q27 -126 27 -275q0 -147 -27 -276q-25 -121 -88 -240q-57 -107 -162 -174q-107 -66 -244 -66t-241 66q-107 66 -164 174q-59 109 -86 240q-29 139 -29 276z M279 731q0 -114 20 -211q19 -107 57 -190q43 -94 107 -144q64 -55 151 -55t154 55q61 49 104 144q38 83 60 190q18 102 18 211q0 155 -32 275q-35 128 -111 219q-81 90 -193 90t-190 -90q-77 -89 -113 -219q-32 -120 -32 -275z" />
<glyph unicode="1" horiz-adv-x="860" d="M111 1083v140q171 0 260 47q91 48 121 192h151v-1462h-184v1083h-348z" />
<glyph unicode="2" horiz-adv-x="1193" d="M115 0q0 91 28 180q26 80 66 142q30 52 102 120q66 60 113 95q95 65 123 84q101 66 155 106q43 32 101 90q53 53 71 109q19 59 19 129q0 117 -74 188q-75 72 -207 72q-142 0 -217 -90q-73 -88 -76 -228h-184q0 232 127 353q126 120 361 120q208 0 331 -108 q123 -111 123 -309q0 -117 -39 -199q-42 -92 -84 -131q-45 -45 -139 -121q-24 -18 -31 -24q-122 -91 -131 -97q-109 -78 -137 -100q-55 -43 -106 -102q-53 -62 -74 -123h756v-156h-977z" />
<glyph unicode="3" horiz-adv-x="1179" d="M94 420h195q9 -143 90 -215q80 -74 217 -74q144 0 225 84q80 83 80 211q0 140 -100 203t-252 63h-45v174q323 3 323 219q0 108 -61 166q-66 60 -174 60q-227 0 -248 -230h-182q6 175 123 283q112 106 313 106q187 0 303 -96q111 -99 111 -260q0 -247 -219 -330 q292 -70 292 -364q0 -198 -133 -322q-132 -123 -360 -123q-224 0 -350 117q-130 115 -148 328z" />
<glyph unicode="4" horiz-adv-x="1153" d="M74 371v149l651 942h168v-938h162v-153h-162v-371h-184v371h-635zM262 524h447v637h-9z" />
<glyph unicode="5" horiz-adv-x="1191" d="M102 391h185q15 -110 104 -184q88 -76 211 -76q137 0 232 92q96 93 96 252q0 150 -96 246t-240 96q-182 0 -270 -162l-191 23l113 784h741v-155h-596l-78 -508l2 -2q37 77 123 129q80 51 189 51q214 0 352 -135q135 -138 135 -367q0 -210 -141 -354q-146 -146 -371 -146 q-195 0 -340 115t-160 301z" />
<glyph unicode="6" horiz-adv-x="1214" d="M94 700q0 141 29 283q27 130 86 246q57 111 164 180q104 66 241 66q390 0 469 -363h-184q-13 34 -31 76q-8 14 -43 63q-33 38 -77 52q-53 16 -119 16q-316 0 -350 -547v-45h2q39 105 137 176q103 74 237 74q205 0 342 -146q136 -145 136 -358t-150 -354 q-150 -144 -369 -144q-235 0 -385 166q-79 86 -106 219q-29 142 -29 340zM295 473q0 -139 92 -242q87 -100 227 -100q141 0 238 100q96 104 96 242q0 143 -94 244q-93 100 -240 100q-141 0 -229 -94q-90 -96 -90 -250z" />
<glyph unicode="7" horiz-adv-x="1071" d="M45 1307v155h940v-172q-224 -224 -377 -583q-159 -366 -180 -707h-184q27 404 202 778q176 377 406 529h-807z" />
<glyph unicode="8" horiz-adv-x="1222" d="M94 397q3 144 96 244q90 97 220 133q-110 27 -183 121q-73 91 -73 215q0 165 131 266q129 99 329 99t332 -99q129 -102 129 -266q0 -121 -74 -213q-75 -97 -184 -123q128 -35 219 -133q92 -103 92 -244q0 -194 -143 -307q-145 -115 -369 -115q-228 0 -376 115 q-149 116 -146 307zM279 414q0 -122 90 -203q89 -80 245 -80q155 0 244 80q86 80 86 205q0 120 -86 200q-90 78 -244 78q-156 0 -245 -80q-90 -81 -90 -200zM340 1077q0 -100 76 -170q77 -71 198 -71q122 0 199 71q76 70 76 170q0 102 -76 172t-199 70q-122 0 -198 -70 t-76 -172z" />
<glyph unicode="9" horiz-adv-x="1214" d="M82 977q0 213 149 356q151 142 369 142q242 0 387 -160q78 -84 105 -219q28 -143 28 -346q0 -220 -49 -388q-53 -172 -168 -278q-118 -109 -291 -109q-196 0 -329 103q-132 102 -162 260h184q59 -207 295 -207q170 0 246 141q78 144 90 406v24h-2q-25 -83 -125 -157 q-97 -72 -229 -72q-217 0 -357 143q-141 144 -141 361zM266 977q0 -138 96 -242q95 -102 238 -102q144 0 238 104q96 104 96 240q0 143 -96 244q-94 98 -238 98q-142 0 -235 -100q-99 -102 -99 -242z" />
<glyph unicode=":" horiz-adv-x="512" d="M143 20v246h226v-246h-226zM143 731v246h226v-246h-226z" />
<glyph unicode=";" horiz-adv-x="512" d="M61 -231l103 479h225l-164 -479h-164zM143 731v246h226v-246h-226z" />
<glyph unicode="&#x3c;" d="M106 455v127l1041 471v-140l-871 -395l871 -395v-139z" />
<glyph unicode="=" d="M111 242v139h1032v-139h-1032zM111 655v140h1032v-140h-1032z" />
<glyph unicode="&#x3e;" d="M106 -16v139l871 395l-871 395v140l1041 -471v-127z" />
<glyph unicode="?" horiz-adv-x="1091" d="M90 991v58q0 200 125 325q126 123 322 123q194 0 313 -113t119 -297q0 -76 -31 -149q-29 -68 -57 -104q-20 -25 -88 -97q-114 -117 -140 -168q-35 -65 -35 -133v-47h-184v64q0 93 37 168q34 75 88 129q59 59 103 98q48 43 88 108q34 61 34 131q0 114 -65 185 q-66 69 -182 69q-119 0 -189 -79q-74 -80 -74 -213v-58h-184zM428 0v233h213v-233h-213z" />
<glyph unicode="@" horiz-adv-x="1689" d="M78 653q0 358 233 588q229 229 568 229q333 0 532 -196q201 -198 201 -510q0 -229 -99 -367q-99 -141 -256 -141q-99 0 -151 49q-54 51 -57 135q-21 -87 -88 -145q-66 -57 -164 -57q-157 0 -252 108q-96 110 -96 293q0 190 116 315q118 127 271 127q108 0 165 -57 q58 -58 70 -147l14 165h150l-51 -507q-4 -36 -4 -43q0 -54 20 -74q20 -23 62 -23q90 0 145 105q55 101 55 264q0 259 -151 410t-432 151t-459 -184q-178 -187 -178 -488q0 -288 178 -463q178 -178 489 -178q224 0 377 99l62 -127q-188 -117 -439 -117q-360 0 -596 219 q-235 216 -235 567zM612 645q0 -132 45 -194q48 -66 160 -66q106 0 170 88q62 89 62 234q0 100 -54 163q-53 62 -147 62q-105 0 -170 -80q-66 -81 -66 -207z" />
<glyph unicode="A" horiz-adv-x="1447" d="M37 0l565 1462h244l565 -1462h-201l-161 428h-650l-161 -428h-201zM459 588h530l-262 700h-6z" />
<glyph unicode="B" horiz-adv-x="1245" d="M156 0v1462h440q140 0 152 -2q171 -15 272 -119q98 -104 98 -270q0 -106 -78 -199q-80 -95 -215 -116v-2q149 -15 254 -109q101 -91 101 -231q0 -160 -107 -279q-106 -118 -291 -133q-14 -2 -106 -2h-520zM350 164h359q124 0 200 67q76 64 76 183q0 115 -76 182 q-77 68 -200 68h-359v-500zM350 827h301q130 0 201 62q72 63 72 182q0 227 -273 227h-301v-471z" />
<glyph unicode="C" horiz-adv-x="1581" d="M82 731q0 324 199 541t546 217q502 0 658 -457h-195q-66 150 -170 221q-110 72 -293 72q-261 0 -405 -170q-146 -175 -146 -424q0 -250 146 -422q144 -172 405 -172q363 0 465 295h195q-47 -195 -221 -326q-177 -133 -439 -133q-347 0 -546 217t-199 541z" />
<glyph unicode="D" horiz-adv-x="1429" d="M156 0v1462h440q354 0 553 -190t199 -516q0 -332 -199 -543q-201 -213 -541 -213h-452zM350 164h264q235 0 387 155t152 437q0 265 -152 405q-149 137 -395 137h-256v-1134z" />
<glyph unicode="E" horiz-adv-x="1187" d="M156 0v1462h919v-164h-725v-473h682v-163h-682v-498h731v-164h-925z" />
<glyph unicode="F" horiz-adv-x="1105" d="M156 0v1462h901v-164h-707v-473h647v-163h-647v-662h-194z" />
<glyph unicode="G" horiz-adv-x="1603" d="M82 731q0 201 84 377q83 171 254 281q169 108 399 108q262 0 420 -131q160 -133 213 -334h-195q-88 301 -438 301q-255 0 -399 -178q-144 -179 -144 -424q0 -243 140 -424q138 -178 383 -178q128 0 233 45q106 46 180 154q74 109 74 262l-457 -4v159h635l-18 -745h-123 l-25 281q-52 -150 -178 -232q-128 -84 -321 -84q-343 0 -529 223q-188 226 -188 543z" />
<glyph unicode="H" horiz-adv-x="1404" d="M156 0v1462h194v-647h705v647h194v-1462h-194v651h-705v-651h-194z" />
<glyph unicode="I" horiz-adv-x="538" d="M172 0v1462h195v-1462h-195z" />
<glyph unicode="J" horiz-adv-x="1015" d="M57 362h195q6 -233 217 -233q217 0 217 248v1085h195v-1063q0 -209 -103 -321q-104 -113 -307 -113q-193 0 -299 103t-115 294z" />
<glyph unicode="K" horiz-adv-x="1298" d="M156 0v1462h194v-737l676 737h248l-580 -610l596 -852h-233l-490 717l-217 -230v-487h-194z" />
<glyph unicode="L" horiz-adv-x="1110" d="M156 0v1462h194v-1298h711v-164h-905z" />
<glyph unicode="M" horiz-adv-x="1783" d="M156 0v1462l327 -2l410 -1243l407 1245h328v-1462h-194v1270h-4l-424 -1270h-226l-426 1270h-4v-1270h-194z" />
<glyph unicode="N" horiz-adv-x="1472" d="M156 0v1462h233l565 -923l168 -267v299v891h195v-1462h-240l-563 918q-6 9 -20.5 31.5t-30.5 48t-31 51.5q-20 33 -48 76.5t-34 52.5v-310v-868h-194z" />
<glyph unicode="O" horiz-adv-x="1679" d="M82 731q0 318 207 545q206 221 551 221t551 -221q206 -226 206 -545q0 -322 -206 -543q-204 -223 -551 -223t-551 223q-207 222 -207 543zM276 731q0 -243 152 -424q150 -178 412 -178q261 0 411 178q152 181 152 424t-152 424q-150 178 -411 178q-262 0 -412 -178 q-152 -181 -152 -424z" />
<glyph unicode="P" horiz-adv-x="1191" d="M156 0v1462h499q218 0 353 -123q135 -126 135 -317t-135 -317q-135 -123 -343 -123h-10h-305v-582h-194zM350 745h285h12q145 0 223 72t78 205q0 130 -78 205q-80 71 -235 71h-285v-553z" />
<glyph unicode="Q" horiz-adv-x="1679" d="M82 735q0 318 207 545q206 221 551 221t551 -221q206 -226 206 -545q0 -355 -239 -575q107 -80 201 -105l-70 -133q-74 6 -258 146q-169 -99 -391 -99q-346 0 -551 224q-207 222 -207 542zM276 735q0 -243 152 -424q150 -178 412 -178q137 0 250 55q-107 88 -220 138 l82 123q105 -38 271 -168q180 174 180 454q0 243 -152 424q-150 178 -411 178q-262 0 -412 -178q-152 -181 -152 -424z" />
<glyph unicode="R" horiz-adv-x="1353" d="M156 0v1462h561q240 0 368 -116q127 -118 127 -299q0 -133 -82 -240q-81 -107 -219 -141q86 -24 140 -103q47 -71 96 -229q35 -106 41 -123q11 -38 39 -92q25 -54 61 -99v-20h-221q-31 48 -51 104q-26 74 -43 134q-22 77 -35 112q-47 124 -104 187q-61 61 -183 61h-301 v-598h-194zM350 762h359q153 0 229 76q78 78 78 209q0 251 -320 251h-346v-536z" />
<glyph unicode="S" horiz-adv-x="1282" d="M82 463h194q3 -166 105 -248q103 -86 270 -86q141 0 248 70q107 67 107 192q0 23 -7 51q-10 35 -12 41q-11 22 -26 37q-12 10 -31 29q-12 9 -39 24q-41 18 -43 19q-5 2 -51 18q-12 3 -28 8.5t-21 6.5q-12 2 -58 16q-15 3 -33 8t-22 6q-35 10 -84.5 24.5t-63.5 18.5 q-53 15 -131 52q-83 36 -120 73q-41 41 -74 103q-32 60 -35 143v8q0 196 145 307q146 113 361 113q226 0 364 -117q136 -118 148 -338h-195q-15 149 -92 220t-225 71q-133 0 -221 -61q-90 -66 -90 -189q0 -101 90 -157q84 -56 260 -103q13 -3 73 -18q16 -4 34 -9t28.5 -8 t15.5 -4q18 -7 70 -22q33 -9 74 -27q32 -16 61 -30q37 -19 59 -41q10 -12 46 -48q24 -27 38 -61q19 -64 21 -72q8 -36 8 -86q0 -137 -84 -241q-82 -101 -205 -146q-116 -45 -260 -45q-254 0 -411 127q-158 128 -158 371z" />
<glyph unicode="T" horiz-adv-x="1173" d="M41 1298v164h1092v-164h-449v-1298h-195v1298h-448z" />
<glyph unicode="U" horiz-adv-x="1372" d="M135 520v942h195v-942q0 -170 94 -280q92 -111 274 -111q172 0 258 111q86 109 86 280v942h195v-942q0 -235 -137 -393q-137 -162 -402 -162q-273 0 -417 156q-146 158 -146 399z" />
<glyph unicode="V" horiz-adv-x="1363" d="M12 1462h213l451 -1263h8l455 1263h213l-549 -1460l-246 -2z" />
<glyph unicode="W" horiz-adv-x="1880" d="M20 1462h205l293 -1255h2l285 1255h266l277 -1257h2l305 1257h205l-383 -1462h-263l-274 1268h-2l-291 -1268h-260z" />
<glyph unicode="X" horiz-adv-x="1304" d="M8 0l527 752l-498 710h246l364 -551l389 551h230l-508 -714l538 -748h-249l-400 588l-407 -588h-232z" />
<glyph unicode="Y" horiz-adv-x="1277" d="M33 1462h225l379 -682l383 682h225l-510 -860v-602h-194v602z" />
<glyph unicode="Z" horiz-adv-x="1265" d="M111 0v176l813 1114h-768v172h995v-176l-809 -1114h834v-172h-1065z" />
<glyph unicode="[" horiz-adv-x="563" d="M160 -406v1903h383v-139h-219v-1624h219v-140h-383z" />
<glyph unicode="\" horiz-adv-x="706" d="M-25 1497h150l606 -1532h-149z" />
<glyph unicode="]" horiz-adv-x="563" d="M20 -266h220v1624h-220v139h383v-1903h-383v140z" />
<glyph unicode="^" d="M115 541l446 886h131l447 -886h-144l-370 737l-365 -737h-145z" />
<glyph unicode="_" horiz-adv-x="1171" d="M12 -154h1147v-102h-1147v102z" />
<glyph unicode="`" horiz-adv-x="479" d="M47 1462h234l182 -284h-135z" />
<glyph unicode="a" horiz-adv-x="1105" d="M74 289q0 73 30 131q26 51 72 90q45 33 109 55q76 24 114 31q48 9 119 18q9 1 92 13q105 18 146 53q39 33 39 98q0 67 -62 111q-65 41 -174 41q-100 0 -160 -51q-63 -51 -69 -140h-185q6 134 111 242q104 104 297 104q106 0 192 -28q75 -24 127 -70q42 -39 70 -100 q25 -65 31 -109q6 -50 6 -108v-455q0 -106 16 -215h-196q-4 70 -4 154v41h-2q-24 -82 -109 -152q-83 -68 -240 -68q-179 0 -274 95q-96 96 -96 219zM256 289q0 -73 61 -119q60 -45 160 -45q135 0 230 92q92 89 92 275v141h-4q-17 -56 -78 -98q-62 -41 -215 -68 q-127 -21 -187 -59q-59 -38 -59 -119z" />
<glyph unicode="b" horiz-adv-x="1239" d="M131 0v1462h184v-618h2q35 97 134 168q100 71 231 71q219 0 352 -151q131 -149 131 -400q0 -249 -131 -401q-132 -156 -352 -156q-130 0 -231 72q-98 67 -134 164h-2v-211h-184zM309 532q0 -167 86 -282q85 -117 250 -117q161 0 250 111q86 112 86 288q0 177 -88 287 q-89 109 -248 109q-165 0 -250 -113q-86 -115 -86 -283z" />
<glyph unicode="c" horiz-adv-x="1159" d="M74 528q0 245 149 400t393 155q194 0 310 -94q113 -94 151 -248h-184q-77 191 -283 191q-159 0 -254 -115q-98 -113 -98 -289q0 -171 98 -284q95 -115 254 -115q215 0 289 195h186q-95 -349 -469 -349q-243 0 -393 156q-149 155 -149 397z" />
<glyph unicode="d" horiz-adv-x="1226" d="M74 532q0 242 135 398q132 153 356 153q148 0 238 -69q94 -75 119 -170h2v618h184v-1462h-184v211h-2q-26 -97 -119 -168q-92 -68 -238 -68q-222 0 -356 158q-135 156 -135 399zM258 532q0 -169 86 -284t250 -115q182 0 258 113q78 113 78 286q0 166 -86 281 q-89 115 -250 115q-159 0 -248 -115q-88 -113 -88 -281z" />
<glyph unicode="e" horiz-adv-x="1157" d="M74 535q0 238 145 395q144 153 371 153q132 0 233 -49q98 -52 154 -135q52 -85 80 -182q23 -90 26 -205v-33h-831q9 -163 102 -256q91 -94 236 -94q245 0 297 186h180q-44 -168 -168 -252q-125 -88 -305 -88q-233 0 -377 156q-143 152 -143 404zM254 627h643 q-12 139 -90 223q-79 82 -217 82q-140 0 -228 -82q-90 -84 -108 -223z" />
<glyph unicode="f" horiz-adv-x="626" d="M61 907v152h146v139q0 123 61 193q62 71 195 71h115v-155h-68q-64 0 -92 -25q-31 -28 -31 -92v-131h178v-152h-178v-907h-180v907h-146z" />
<glyph unicode="g" horiz-adv-x="1239" d="M74 543q0 240 133 391q131 149 358 149q148 0 238 -69q94 -75 119 -170h2v215h184v-977q0 -228 -137 -356q-138 -132 -342 -132q-197 0 -336 97q-139 95 -154 264h185q27 -205 305 -205q136 0 215 82q80 80 80 250v149h-2q-26 -97 -119 -168q-91 -67 -238 -67 q-223 0 -356 154q-135 150 -135 393zM258 543q0 -167 86 -279q85 -110 250 -110q182 0 258 108q78 110 78 270q0 166 -86 281q-89 115 -250 115q-162 0 -248 -111q-88 -110 -88 -274z" />
<glyph unicode="h" horiz-adv-x="1134" d="M131 0v1462h184v-618h2q20 96 107 170q81 69 209 69q197 0 291 -110q92 -112 92 -287v-686h-185v668q0 260 -223 260q-128 0 -211 -86q-82 -88 -82 -281v-561h-184z" />
<glyph unicode="i" horiz-adv-x="450" d="M127 1249v205h197v-205h-197zM133 0v1059h184v-1059h-184z" />
<glyph unicode="j" horiz-adv-x="485" d="M-41 -244h78q66 0 96 23q27 21 27 90v1194h180v-1198q0 -123 -61 -193q-62 -71 -195 -71h-125v155zM150 1249v205h196v-205h-196z" />
<glyph unicode="k" horiz-adv-x="1054" d="M131 0v1462h184v-866l459 463h223l-442 -447l483 -612h-235l-375 483l-113 -112v-371h-184z" />
<glyph unicode="l" horiz-adv-x="462" d="M139 0v1462h185v-1462h-185z" />
<glyph unicode="m" horiz-adv-x="1687" d="M131 0v1059h184v-215h2q20 99 97 170q72 69 192 69q255 0 316 -223h4q24 87 108 156q82 67 189 67q182 0 264 -110t82 -287v-686h-185v668q0 260 -204 260q-236 0 -236 -367v-561h-182v668q0 260 -201 260q-246 0 -246 -367v-561h-184z" />
<glyph unicode="n" horiz-adv-x="1134" d="M131 0v1059h184v-215h2q20 96 107 170q81 69 209 69q197 0 291 -110q92 -112 92 -287v-686h-185v668q0 260 -223 260q-128 0 -211 -86q-82 -88 -82 -281v-561h-184z" />
<glyph unicode="o" horiz-adv-x="1208" d="M74 528q0 239 147 398q145 157 383 157q237 0 385 -157q146 -161 146 -398t-146 -395q-149 -158 -385 -158q-237 0 -383 158q-147 156 -147 395zM258 528q0 -167 98 -280q94 -117 248 -117q151 0 250 117q96 116 96 280q0 166 -96 285q-100 115 -250 115 q-153 0 -248 -115q-98 -116 -98 -285z" />
<glyph unicode="p" horiz-adv-x="1239" d="M131 -410v1469h184v-215h2q26 96 121 170q87 69 236 69q223 0 358 -153q133 -157 133 -398q0 -242 -133 -399q-137 -158 -358 -158q-147 0 -236 68q-95 70 -121 168h-2v-621h-184zM309 532q0 -175 78 -288q76 -113 258 -113q165 0 250 117q86 115 86 284q0 168 -88 281 q-89 115 -248 115q-162 0 -248 -115q-88 -113 -88 -281z" />
<glyph unicode="q" horiz-adv-x="1239" d="M74 532q0 242 135 398q132 153 356 153q148 0 238 -69q94 -75 119 -170h2v215h184v-1469h-184v621h-2q-26 -97 -119 -168q-92 -68 -238 -68q-222 0 -356 158q-135 156 -135 399zM258 532q0 -169 86 -284q85 -117 250 -117q182 0 258 113q78 113 78 288q0 166 -86 281 q-89 115 -250 115q-159 0 -248 -115q-88 -113 -88 -281z" />
<glyph unicode="r" horiz-adv-x="684" d="M131 0v1059h184l2 -256h2q34 125 119 194q82 67 193 76v-184q-147 -9 -230 -109q-86 -103 -86 -278v-502h-184z" />
<glyph unicode="s" horiz-adv-x="980" d="M66 319h184q17 -96 80 -143q60 -45 172 -45q94 0 162 39q67 40 67 123q0 24 -6 45q-11 21 -27 35q-32 23 -34 24q-23 14 -50 21q-9 2 -26.5 7.5t-24.5 6.5q-6 1 -26 6t-35 8q-16 3 -36 7.5t-24 5.5q-346 79 -346 313q0 141 121 227q122 84 270 84q165 0 281 -88 q114 -89 129 -256h-182q-9 98 -76 144q-65 45 -158 45q-80 0 -139 -41q-61 -40 -61 -107q0 -53 51 -92t94 -51q54 -19 143 -37q18 -4 25 -6q321 -70 321 -291q0 -157 -131 -242q-133 -86 -288 -86q-96 0 -187 31q-91 28 -162 111q-72 78 -81 202z" />
<glyph unicode="t" horiz-adv-x="634" d="M33 907v152h157v260l175 82h6v-342h202v-152h-202v-610q0 -67 30 -107q27 -43 84 -43h66v-147h-84q-133 0 -205 84t-72 201v622h-157z" />
<glyph unicode="u" horiz-adv-x="1134" d="M119 373v686h184v-668q0 -260 223 -260q129 0 211 88q82 85 82 279v561h185v-1059h-185v215h-2q-20 -95 -106 -168q-84 -72 -209 -72q-198 0 -289 111q-94 110 -94 287z" />
<glyph unicode="v" horiz-adv-x="1087" d="M45 1059h201q3 -10 56 -165t93 -271q121 -357 150 -437h2l295 873h200q-86 -234 -196 -529q-90 -243 -201 -530h-203q-12 32 -198 530q-45 119 -111.5 295t-87.5 234z" />
<glyph unicode="w" horiz-adv-x="1591" d="M45 1059h188l173 -676l47 -186h2q3 12 10 43t12 51q4 14 9 34.5t8 33.5t6 22l174 678h241l175 -678l47 -186h2q11 43 24 98q0 2 25 96l170 670h188l-313 -1059h-195l-196 727q-3 10 -23 92q-16 64 -24 92h-2q-3 -10 -23 -92q-4 -16 -8.5 -36t-7.5 -33.5t-6 -22.5 l-197 -727h-195z" />
<glyph unicode="x" horiz-adv-x="1097" d="M29 0l411 545l-403 514h223l289 -373l289 373h209l-402 -500l424 -559h-223l-309 416l-297 -416h-211z" />
<glyph unicode="y" horiz-adv-x="1122" d="M45 1059h197l336 -877h2l301 877h196l-479 -1264q-76 -205 -268 -205h-144v156h117q34 0 53 8q5 2 13 5.5t13 5.5t9 4q15 10 27 32l7.5 15l6 12t2.5 6q9 18 19 45l36 92q-18 45 -92 227t-129 318q-155 376 -223 543z" />
<glyph unicode="z" horiz-adv-x="1015" d="M86 0v125l614 778h-127h-442v156h799v-111l-625 -792h117h524v-156h-860z" />
<glyph unicode="{" horiz-adv-x="706" d="M111 475v139q66 0 118 70q52 67 52 172v373q0 124 69 196t152 72h143v-123h-102q-99 0 -99 -176v-375q0 -125 -61 -192q-61 -70 -117 -82v-6q57 -9 119 -74q59 -65 59 -201v-374q0 -177 99 -177h102v-123h-143q-84 0 -152 74q-69 69 -69 195v373q0 109 -50 174 q-53 65 -120 65z" />
<glyph unicode="|" horiz-adv-x="479" d="M170 -438v2048h139v-2048h-139z" />
<glyph unicode="}" horiz-adv-x="706" d="M61 -283h103q98 0 98 177v374q0 124 62 195q62 68 116 80v6q-57 9 -116 74q-62 65 -62 200v371q0 180 -98 180h-103v123h144q81 0 153 -72q68 -74 68 -196v-373q0 -111 51 -174q50 -68 119 -68v-139q-67 0 -119 -67q-51 -68 -51 -172v-373q0 -124 -68 -195 q-71 -74 -153 -74h-144v123z" />
<glyph unicode="~" d="M154 469q86 176 256 176q76 0 227 -65q6 -3 16 -7.5t26.5 -12t29.5 -13.5q55 -30 82 -37q30 -12 55 -12q11 0 31 4q10 2 26 10q9 3 25 16q4 4 10.5 11t9.5 10q7 5 23 24q8 10 18 25q2 5 19 29q17 23 18 26l74 -102q-57 -84 -113 -129q-59 -47 -143 -47q-93 0 -209 67 q-136 80 -236 80q-102 0 -172 -155z" />
<glyph unicode="&#xa1;" horiz-adv-x="512" d="M143 829v234h213v-234h-213zM152 113l47 561h100l47 -561v-512h-194v512z" />
<glyph unicode="&#xa2;" horiz-adv-x="1163" d="M106 516q0 228 121 393q120 159 342 174v195h80v-193q375 -18 416 -366h-178q-41 194 -238 209v-797q106 9 170 82t78 174h174q-18 -162 -125 -278q-108 -120 -297 -132v-213h-80v213q-210 12 -338 152q-125 137 -125 387zM291 516q0 -180 76 -274q78 -96 202 -111v797 q-128 -15 -202 -117q-76 -101 -76 -295z" />
<glyph unicode="&#xa3;" horiz-adv-x="1163" d="M63 98q139 119 193 187q78 104 78 194q0 82 -53 191h-193v92h141q-98 174 -98 319q0 190 137 303q134 113 330 113q468 0 483 -444h-186q-9 152 -78 221q-70 67 -209 67q-126 0 -207 -75q-86 -77 -86 -191q0 -31 7 -71q3 -36 18 -70q7 -19 22 -55q5 -13 31 -62 q25 -49 29 -55h354v-92h-309q41 -77 41 -154q0 -68 -21 -121q-22 -57 -65 -106q-38 -43 -94 -88q-36 -29 -129 -95l4 -4q143 82 262 82q104 0 219 -28q124 -37 172 -37q88 0 182 76l103 -134q-113 -96 -314 -96q-68 0 -202 41q-128 43 -277 43q-95 0 -205 -72z" />
<glyph unicode="&#xa4;" horiz-adv-x="1163" d="M63 297l111 119q-104 137 -104 299q0 172 106 307l-113 115l101 100l115 -115q138 105 309 105q164 0 295 -101l114 113l103 -104l-113 -113q107 -137 107 -303q0 -170 -107 -307l113 -115l-96 -96l-111 116q-137 -110 -307 -110q-177 0 -314 110l-110 -118zM244 715 q0 -152 100 -252q100 -103 242 -103t237 105q97 108 97 254q0 142 -97 250q-94 104 -235 104q-145 0 -244 -102q-100 -103 -100 -256z" />
<glyph unicode="&#xa5;" horiz-adv-x="1163" d="M12 1462h224l356 -723l346 723h213l-365 -706h191v-123h-258l-37 -68v-86h295v-123h-295v-356h-195v356h-288v123h288v86l-36 68h-252v123h188z" />
<glyph unicode="&#xa6;" horiz-adv-x="479" d="M170 -182v512h139v-512h-139zM170 842v512h139v-512h-139z" />
<glyph unicode="&#xa7;" horiz-adv-x="1163" d="M84 666q0 92 70 168q70 73 165 100q-110 104 -110 231q0 153 115 242q116 90 264 90q173 0 282 -92q108 -91 111 -277h-174q-3 95 -64 156q-62 59 -159 59q-89 0 -140 -45q-55 -46 -55 -131q0 -39 23 -80q19 -36 73 -75q52 -39 93 -62q57 -34 116 -65q21 -12 35 -19 q106 -60 127 -73q60 -42 105 -82q52 -47 81 -109q27 -62 27 -133q0 -94 -68 -168q-69 -75 -170 -115q146 -103 146 -264q0 -147 -107 -235q-110 -93 -276 -93q-185 0 -301 101q-119 101 -131 278h174q3 -102 76 -163q71 -62 178 -62q83 0 145 45q62 47 62 125q0 24 -6 45 q-4 15 -19 41q-22 30 -27 37q-30 30 -38 37q-30 20 -43 33q-6 4 -52 32q-30 16 -53 31q-7 3 -26.5 14.5t-32.5 18.5q-54 28 -60 31q-83 45 -131 77q-53 35 -110 86q-58 52 -86 119q-29 69 -29 146zM252 674q0 -15 4 -39q3 -21 12 -39q3 -7 9 -17.5t8 -13.5q6 -15 24 -30 q12 -10 27 -25q6 -6 33 -23q26 -19 30 -20q8 -8 35 -23q8 -5 16 -9.5t12 -7t5 -3.5q152 -80 287 -170q147 62 147 190q0 27 -6 48q-5 18 -23 43q-21 25 -28 36q-8 11 -39 35q-30 21 -39 27q-1 1 -8 6t-16 11t-19 12q-34 19 -39 24q-241 144 -283 174q-63 -21 -106 -72 q-43 -52 -43 -114z" />
<glyph unicode="&#xa8;" horiz-adv-x="692" d="M70 1249v213h184v-213h-184zM438 1249v213h185v-213h-185z" />
<glyph unicode="&#xa9;" horiz-adv-x="1679" d="M53 694q0 328 234 553q229 223 555 223t555 -223t229 -553q0 -334 -229 -557q-230 -227 -555 -227q-327 0 -557 227q-232 226 -232 557zM209 694q0 -281 182 -469t451 -188q266 0 448 188q180 186 180 469q0 277 -180 463t-448 186q-271 0 -451 -186q-182 -188 -182 -463 zM410 694q0 183 120 312t320 129q144 0 240 -84q97 -87 137 -207h-144q-31 79 -82 121q-53 41 -151 41q-139 0 -217 -84q-76 -85 -76 -228q0 -139 80 -225q77 -89 213 -86q107 3 162 43t80 119h141q-24 -114 -127 -203q-104 -90 -256 -90q-199 0 -318 131q-122 128 -122 311 z" />
<glyph unicode="&#xab;" horiz-adv-x="847" d="M20 545l261 438h163l-229 -438l229 -439h-163zM379 545l260 438h164l-230 -438l230 -439h-164z" />
<glyph unicode="&#xac;" d="M111 655v140h1032v-572h-139v432h-893z" />
<glyph unicode="&#xad;" horiz-adv-x="821" d="M115 487v164h592v-164h-592z" />
<glyph unicode="&#xae;" horiz-adv-x="1679" d="M53 694q0 328 234 553q229 223 555 223t555 -223t229 -553q0 -334 -229 -557q-230 -227 -555 -227q-327 0 -557 227q-232 226 -232 557zM209 694q0 -281 182 -469t451 -188q266 0 448 188q180 186 180 469q0 277 -180 463t-448 186q-271 0 -451 -186q-182 -188 -182 -463 zM530 274v838h381q129 0 197 -68t68 -159q0 -198 -199 -219q77 -12 117 -70q41 -61 57 -129q28 -119 78 -180v-13h-137q-24 34 -35 66q-18 52 -23 76q-13 45 -18 59q-46 135 -170 135h-178v-336h-138zM668 731h217q90 0 127 37q35 38 35 115q0 123 -162 123h-217v-275z" />
<glyph unicode="&#xaf;" horiz-adv-x="821" d="M61 1284v113h699v-113h-699z" />
<glyph unicode="&#xb0;" horiz-adv-x="843" d="M127 1157q0 123 86 209t209 86q120 0 209 -86q86 -89 86 -209q0 -123 -86 -209t-209 -86q-126 0 -209 86q-86 83 -86 209zM229 1157q0 -73 54 -133q53 -59 139 -59t139 59t53 133q0 76 -53 135q-52 58 -139 58t-139 -58q-54 -60 -54 -135z" />
<glyph unicode="&#xb1;" d="M111 0v139h1032v-139h-1032zM111 555v139h446v340h139v-340h447v-139h-447v-342h-139v342h-446z" />
<glyph unicode="&#xb4;" horiz-adv-x="522" d="M68 1178l182 284h233l-280 -284h-135z" />
<glyph unicode="&#xb5;" horiz-adv-x="1163" d="M143 -406v1465h174v-676q0 -135 64 -193q64 -61 172 -61q151 0 223 90q70 88 70 242v598h174v-1059h-164v209h-4q-21 -133 -96 -184q-74 -50 -203 -50q-93 0 -154 52q-62 50 -77 129h-5v-562h-174z" />
<glyph unicode="&#xb6;" d="M106 1036q0 199 127 314q124 112 345 112h491v-1779h-135v1667h-256v-1667h-135v944q-184 0 -310 123q-127 124 -127 286z" />
<glyph unicode="&#xb7;" horiz-adv-x="593" d="M166 637q0 53 39 92t92 39t92 -39t39 -92q0 -51 -39 -90q-41 -41 -90 -41q-53 0 -92 39q-41 41 -41 92z" />
<glyph unicode="&#xb8;" horiz-adv-x="532" d="M43 -389l39 100q56 -39 125 -39q42 0 88 17q39 14 39 47q0 29 -27 47q-29 16 -69 16q-31 0 -84 -16l-56 80l123 137h109l-86 -109l4 -4q21 15 67 15q72 0 123 -39q49 -40 49 -111q0 -94 -75 -137q-74 -45 -179 -45q-100 0 -190 41z" />
<glyph unicode="&#xbb;" horiz-adv-x="847" d="M45 106l229 439l-229 438h164l260 -438l-260 -439h-164zM403 106l230 439l-230 438h164l260 -438l-260 -439h-164z" />
<glyph unicode="&#xbc;" horiz-adv-x="1671" d="M98 1176v100q108 0 170 27q59 27 74 94h117v-834h-144v613h-217zM279 -45l890 1534h152l-891 -1534h-151zM961 176v103l385 544h147v-528h121v-119h-121v-199h-143v199h-389zM1118 295h232v336z" />
<glyph unicode="&#xbd;" horiz-adv-x="1710" d="M98 1176v100q108 0 170 27q59 27 74 94h117v-834h-144v613h-217zM299 -45l891 1534h151l-890 -1534h-152zM1028 -14q0 46 10 98q8 38 37 82q18 25 45 61q15 21 62 56q36 23 57 39q8 4 64 36q108 67 153 115q39 42 39 113q0 49 -39 82q-38 32 -100 32q-60 0 -107 -41 q-45 -39 -45 -106h-143q0 124 90 199q89 71 205 71q117 0 198 -63q84 -66 84 -174q0 -92 -41 -148q-47 -60 -131 -121q-15 -9 -20 -14q-31 -24 -96 -59q-50 -27 -107 -66q-45 -33 -65 -69h467v-123h-617z" />
<glyph unicode="&#xbe;" horiz-adv-x="1675" d="M98 801h144q6 -133 159 -133q73 0 113 32q41 35 41 95q0 59 -45 98q-46 37 -111 37q-9 0 -59 -4v131h22h21q61 0 102 30q37 30 37 87q0 100 -127 100q-130 0 -133 -121h-143q3 111 76 178q72 66 200 66q118 0 197 -54q76 -52 76 -149q0 -154 -174 -197v-2q91 -12 149 -67 q57 -57 57 -142q0 -119 -82 -180t-217 -61q-139 0 -221 67q-85 66 -82 189zM383 -45l891 1534h151l-890 -1534h-152zM965 176v103l385 544h147v-528h121v-119h-121v-199h-143v199h-389zM1122 295h232v336z" />
<glyph unicode="&#xbf;" horiz-adv-x="1153" d="M197 -25q0 81 30 152q25 60 60 104q20 26 86 95q112 115 139 168q35 65 35 133v47h184v-64q0 -90 -35 -168q-38 -76 -88 -127q-85 -84 -102 -100q-53 -47 -88 -109q-37 -61 -37 -131q0 -111 68 -182q66 -72 180 -72q116 0 190 80q72 81 72 213v58h184v-58 q0 -201 -125 -323q-125 -125 -321 -125q-193 0 -314 115q-118 112 -118 294zM524 829v234h213v-234h-213z" />
<glyph unicode="&#xc0;" horiz-adv-x="1447" d="M37 0l565 1462h244l565 -1462h-201l-161 428h-650l-161 -428h-201zM358 1812h275l258 -231h-205zM459 588h530l-262 700h-6z" />
<glyph unicode="&#xc1;" horiz-adv-x="1447" d="M37 0l565 1462h244l565 -1462h-201l-161 428h-650l-161 -428h-201zM459 588h530l-262 700h-6zM481 1581l258 231h275l-328 -231h-205z" />
<glyph unicode="&#xc2;" horiz-adv-x="1447" d="M37 0l565 1462h244l565 -1462h-201l-161 428h-650l-161 -428h-201zM391 1544l232 260h204l232 -260h-205l-129 160l-129 -160h-205zM459 588h530l-262 700h-6z" />
<glyph unicode="&#xc3;" horiz-adv-x="1447" d="M37 0l565 1462h244l565 -1462h-201l-161 428h-650l-161 -428h-201zM373 1591q47 226 217 226q55 0 151 -41q93 -41 133 -41q68 0 95 90h106q-15 -100 -67 -164t-140 -64q-57 0 -153 41q-91 39 -135 39q-66 0 -101 -86h-106zM459 588h530l-262 700h-6z" />
<glyph unicode="&#xc4;" horiz-adv-x="1447" d="M37 0l565 1462h244l565 -1462h-201l-161 428h-650l-161 -428h-201zM440 1602v213h185v-213h-185zM459 588h530l-262 700h-6zM825 1602v213h185v-213h-185z" />
<glyph unicode="&#xc5;" horiz-adv-x="1447" d="M37 0l565 1462h244l565 -1462h-201l-161 428h-650l-161 -428h-201zM459 588h530l-262 700h-6zM504 1796q0 93 65 158q63 63 156 63t156 -63q65 -65 65 -158q0 -91 -65 -156t-156 -65t-156 65t-65 156zM600 1794q0 -55 35 -90q34 -37 90 -37t90 37q35 35 35 90 q0 54 -35 92q-35 35 -90 35t-90 -35q-35 -38 -35 -92z" />
<glyph unicode="&#xc6;" horiz-adv-x="2056" d="M37 0l829 1462h1078v-164h-725v-473h682v-163h-682v-498h731v-164h-926v453h-516l-252 -453h-219zM596 612h428v686h-45z" />
<glyph unicode="&#xc7;" horiz-adv-x="1597" d="M82 731q0 324 199 541t546 217q502 0 658 -457h-195q-66 150 -170 221q-110 72 -293 72q-261 0 -405 -170q-146 -175 -146 -424q0 -250 146 -422q144 -172 405 -172q363 0 465 295h195q-43 -180 -199 -309q-157 -133 -397 -148l-64 -79l4 -5q21 15 68 15q72 0 123 -39 q49 -40 49 -111q0 -94 -76 -137q-74 -45 -178 -45q-100 0 -190 41l39 104q55 -38 137 -38q115 0 115 63q0 59 -97 59q-31 0 -84 -16l-55 80l96 108q-323 15 -510 232q-186 210 -186 524z" />
<glyph unicode="&#xc8;" horiz-adv-x="1187" d="M156 0v1462h919v-164h-725v-473h682v-163h-682v-498h731v-164h-925zM291 1812h274l258 -231h-205z" />
<glyph unicode="&#xc9;" horiz-adv-x="1187" d="M156 0v1462h919v-164h-725v-473h682v-163h-682v-498h731v-164h-925zM473 1581l258 231h275l-328 -231h-205z" />
<glyph unicode="&#xca;" horiz-adv-x="1187" d="M156 0v1462h919v-164h-725v-473h682v-163h-682v-498h731v-164h-925zM297 1544l231 260h205l232 -260h-205l-129 160l-129 -160h-205z" />
<glyph unicode="&#xcb;" horiz-adv-x="1187" d="M156 0v1462h919v-164h-725v-473h682v-163h-682v-498h731v-164h-925zM356 1602v213h185v-213h-185zM741 1602v213h185v-213h-185z" />
<glyph unicode="&#xcc;" horiz-adv-x="538" d="M-66 1812h275l258 -231h-205zM172 0v1462h195v-1462h-195z" />
<glyph unicode="&#xcd;" horiz-adv-x="538" d="M88 1581l258 231h275l-328 -231h-205zM172 0v1462h195v-1462h-195z" />
<glyph unicode="&#xce;" horiz-adv-x="538" d="M-66 1544l232 260h205l231 -260h-205l-129 160l-129 -160h-205zM172 0v1462h195v-1462h-195z" />
<glyph unicode="&#xcf;" horiz-adv-x="538" d="M-8 1602v213h184v-213h-184zM172 0v1462h195v-1462h-195zM377 1602v213h184v-213h-184z" />
<glyph unicode="&#xd0;" horiz-adv-x="1429" d="M29 653v140h127v669h440q354 0 553 -190t199 -516q0 -332 -199 -543q-201 -213 -541 -213h-452v653h-127zM350 164h264q235 0 387 155t152 437q0 265 -152 405q-149 137 -395 137h-256v-505h455v-140h-455v-489z" />
<glyph unicode="&#xd1;" horiz-adv-x="1472" d="M156 0v1462h233l565 -923l168 -267v299v891h195v-1462h-240l-563 918q-6 9 -20.5 31.5t-30.5 48t-31 51.5q-20 33 -48 76.5t-34 52.5v-310v-868h-194zM385 1591q47 226 217 226q56 0 152 -41q93 -41 133 -41q67 0 94 90h106q-15 -100 -67 -164t-139 -64q-58 0 -154 41 q-91 39 -135 39q-65 0 -100 -86h-107z" />
<glyph unicode="&#xd2;" horiz-adv-x="1712" d="M82 731q0 318 207 545q206 221 551 221t551 -221q206 -226 206 -545q0 -322 -206 -543q-204 -223 -551 -223t-551 223q-207 222 -207 543zM276 731q0 -243 152 -424q150 -178 412 -178q261 0 411 178q152 181 152 424t-152 424q-150 178 -411 178q-262 0 -412 -178 q-152 -181 -152 -424zM496 1812h274l258 -231h-205z" />
<glyph unicode="&#xd3;" horiz-adv-x="1712" d="M82 731q0 318 207 545q206 221 551 221t551 -221q206 -226 206 -545q0 -322 -206 -543q-204 -223 -551 -223t-551 223q-207 222 -207 543zM276 731q0 -243 152 -424q150 -178 412 -178q261 0 411 178q152 181 152 424t-152 424q-150 178 -411 178q-262 0 -412 -178 q-152 -181 -152 -424zM666 1581l258 231h274l-328 -231h-204z" />
<glyph unicode="&#xd4;" horiz-adv-x="1712" d="M82 731q0 318 207 545q206 221 551 221t551 -221q206 -226 206 -545q0 -322 -206 -543q-204 -223 -551 -223t-551 223q-207 222 -207 543zM276 731q0 -243 152 -424q150 -178 412 -178q261 0 411 178q152 181 152 424t-152 424q-150 178 -411 178q-262 0 -412 -178 q-152 -181 -152 -424zM522 1544l232 260h204l232 -260h-205l-129 160l-129 -160h-205z" />
<glyph unicode="&#xd5;" horiz-adv-x="1712" d="M82 731q0 318 207 545q206 221 551 221t551 -221q206 -226 206 -545q0 -322 -206 -543q-204 -223 -551 -223t-551 223q-207 222 -207 543zM276 731q0 -243 152 -424q150 -178 412 -178q261 0 411 178q152 181 152 424t-152 424q-150 178 -411 178q-262 0 -412 -178 q-152 -181 -152 -424zM506 1591q47 226 217 226q55 0 151 -41q93 -41 134 -41q67 0 94 90h106q-15 -100 -67 -164t-140 -64q-57 0 -153 41q-91 39 -135 39q-66 0 -101 -86h-106z" />
<glyph unicode="&#xd6;" horiz-adv-x="1712" d="M82 731q0 318 207 545q206 221 551 221t551 -221q206 -226 206 -545q0 -322 -206 -543q-204 -223 -551 -223t-551 223q-207 222 -207 543zM276 731q0 -243 152 -424q150 -178 412 -178q261 0 411 178q152 181 152 424t-152 424q-150 178 -411 178q-262 0 -412 -178 q-152 -181 -152 -424zM571 1602v213h185v-213h-185zM956 1602v213h185v-213h-185z" />
<glyph unicode="&#xd7;" d="M152 156l366 364l-364 363l110 110l365 -362l362 364l111 -110l-363 -365l365 -366l-111 -111l-364 369l-367 -367z" />
<glyph unicode="&#xd8;" horiz-adv-x="1687" d="M82 731q0 318 207 545q206 221 551 221q344 0 555 -227l147 143l64 -63l-154 -150q145 -204 145 -469q0 -322 -206 -543q-204 -223 -551 -223q-280 0 -484 160l-168 -164l-65 62l168 163q-209 218 -209 545zM276 731q0 -244 146 -416l842 826q-155 192 -424 192 q-262 0 -412 -178q-152 -181 -152 -424zM485 252q144 -123 355 -123q261 0 411 178q152 181 152 424q0 191 -88 334z" />
<glyph unicode="&#xd9;" horiz-adv-x="1372" d="M135 520v942h195v-942q0 -170 94 -280q92 -111 274 -111q172 0 258 111q86 109 86 280v942h195v-942q0 -235 -137 -393q-137 -162 -402 -162q-273 0 -417 156q-146 158 -146 399zM375 1812h274l258 -231h-205z" />
<glyph unicode="&#xda;" horiz-adv-x="1372" d="M135 520v942h195v-942q0 -170 94 -280q92 -111 274 -111q172 0 258 111q86 109 86 280v942h195v-942q0 -235 -137 -393q-137 -162 -402 -162q-273 0 -417 156q-146 158 -146 399zM530 1581l258 231h275l-328 -231h-205z" />
<glyph unicode="&#xdb;" horiz-adv-x="1372" d="M135 520v942h195v-942q0 -170 94 -280q92 -111 274 -111q172 0 258 111q86 109 86 280v942h195v-942q0 -235 -137 -393q-137 -162 -402 -162q-273 0 -417 156q-146 158 -146 399zM352 1544l232 260h204l232 -260h-205l-129 160l-129 -160h-205z" />
<glyph unicode="&#xdc;" horiz-adv-x="1372" d="M135 520v942h195v-942q0 -170 94 -280q92 -111 274 -111q172 0 258 111q86 109 86 280v942h195v-942q0 -235 -137 -393q-137 -162 -402 -162q-273 0 -417 156q-146 158 -146 399zM401 1602v213h185v-213h-185zM786 1602v213h185v-213h-185z" />
<glyph unicode="&#xdd;" horiz-adv-x="1277" d="M33 1462h225l379 -682l383 682h225l-510 -860v-602h-194v602zM508 1581l258 231h274l-327 -231h-205z" />
<glyph unicode="&#xde;" horiz-adv-x="1351" d="M172 0v1462h195v-233h446q218 0 334 -113q115 -115 115 -321q0 -205 -115 -320q-116 -113 -334 -110h-446v-365h-195zM367 528h381q319 -3 319 267t-319 270h-381v-537z" />
<glyph unicode="&#xdf;" horiz-adv-x="1126" d="M143 0v1087q0 183 117 297q113 113 299 113q173 0 295 -96q119 -94 119 -266q0 -330 -357 -336v-8q213 3 322 -103q106 -106 106 -274q0 -196 -126 -316q-124 -118 -330 -118q-106 0 -168 16v160q55 -19 149 -19q149 0 222 76t73 209q0 175 -73 233q-74 57 -248 66 q-11 0 -19 2h-22v129q286 9 286 256q0 110 -59 172q-59 59 -158 59q-120 0 -180 -63q-63 -63 -63 -223v-1053h-185z" />
<glyph unicode="&#xe0;" horiz-adv-x="1105" d="M74 289q0 73 30 131q26 51 72 90q45 33 109 55q76 24 114 31q48 9 119 18q9 1 92 13q105 18 146 53q39 33 39 98q0 67 -62 111q-65 41 -174 41q-100 0 -160 -51q-63 -51 -69 -140h-185q6 134 111 242q104 104 297 104q106 0 192 -28q75 -24 127 -70q42 -39 70 -100 q25 -65 31 -109q6 -50 6 -108v-455q0 -106 16 -215h-196q-4 70 -4 154v41h-2q-24 -82 -109 -152q-83 -68 -240 -68q-179 0 -274 95q-96 96 -96 219zM256 289q0 -73 61 -119q60 -45 160 -45q135 0 230 92q92 89 92 275v141h-4q-17 -56 -78 -98q-62 -41 -215 -68 q-127 -21 -187 -59q-59 -38 -59 -119zM293 1466h233l183 -284h-136z" />
<glyph unicode="&#xe1;" horiz-adv-x="1105" d="M74 289q0 73 30 131q26 51 72 90q45 33 109 55q76 24 114 31q48 9 119 18q9 1 92 13q105 18 146 53q39 33 39 98q0 67 -62 111q-65 41 -174 41q-100 0 -160 -51q-63 -51 -69 -140h-185q6 134 111 242q104 104 297 104q106 0 192 -28q75 -24 127 -70q42 -39 70 -100 q25 -65 31 -109q6 -50 6 -108v-455q0 -106 16 -215h-196q-4 70 -4 154v41h-2q-24 -82 -109 -152q-83 -68 -240 -68q-179 0 -274 95q-96 96 -96 219zM256 289q0 -73 61 -119q60 -45 160 -45q135 0 230 92q92 89 92 275v141h-4q-17 -56 -78 -98q-62 -41 -215 -68 q-127 -21 -187 -59q-59 -38 -59 -119zM473 1182l182 284h234l-281 -284h-135z" />
<glyph unicode="&#xe2;" horiz-adv-x="1105" d="M74 289q0 73 30 131q26 51 72 90q45 33 109 55q76 24 114 31q48 9 119 18q9 1 92 13q105 18 146 53q39 33 39 98q0 67 -62 111q-65 41 -174 41q-100 0 -160 -51q-63 -51 -69 -140h-185q6 134 111 242q104 104 297 104q106 0 192 -28q75 -24 127 -70q42 -39 70 -100 q25 -65 31 -109q6 -50 6 -108v-455q0 -106 16 -215h-196q-4 70 -4 154v41h-2q-24 -82 -109 -152q-83 -68 -240 -68q-179 0 -274 95q-96 96 -96 219zM238 1198l231 268h193l231 -268h-193l-135 172l-135 -172h-192zM256 289q0 -73 61 -119q60 -45 160 -45q135 0 230 92 q92 89 92 275v141h-4q-17 -56 -78 -98q-62 -41 -215 -68q-127 -21 -187 -59q-59 -38 -59 -119z" />
<glyph unicode="&#xe3;" horiz-adv-x="1105" d="M74 289q0 73 30 131q26 51 72 90q45 33 109 55q76 24 114 31q48 9 119 18q9 1 92 13q105 18 146 53q39 33 39 98q0 67 -62 111q-65 41 -174 41q-100 0 -160 -51q-63 -51 -69 -140h-185q6 134 111 242q104 104 297 104q106 0 192 -28q75 -24 127 -70q42 -39 70 -100 q25 -65 31 -109q6 -50 6 -108v-455q0 -106 16 -215h-196q-4 70 -4 154v41h-2q-24 -82 -109 -152q-83 -68 -240 -68q-179 0 -274 95q-96 96 -96 219zM244 1239q46 225 217 225q55 0 151 -41q93 -41 133 -41q67 0 95 91h106q-12 -91 -65 -162q-48 -66 -142 -66q-63 0 -153 41 q-79 39 -135 39q-66 0 -101 -86h-106zM256 289q0 -73 61 -119q60 -45 160 -45q135 0 230 92q92 89 92 275v141h-4q-17 -56 -78 -98q-62 -41 -215 -68q-127 -21 -187 -59q-59 -38 -59 -119z" />
<glyph unicode="&#xe4;" horiz-adv-x="1105" d="M74 289q0 73 30 131q26 51 72 90q45 33 109 55q76 24 114 31q48 9 119 18q9 1 92 13q105 18 146 53q39 33 39 98q0 67 -62 111q-65 41 -174 41q-100 0 -160 -51q-63 -51 -69 -140h-185q6 134 111 242q104 104 297 104q106 0 192 -28q75 -24 127 -70q42 -39 70 -100 q25 -65 31 -109q6 -50 6 -108v-455q0 -106 16 -215h-196q-4 70 -4 154v41h-2q-24 -82 -109 -152q-83 -68 -240 -68q-179 0 -274 95q-96 96 -96 219zM256 289q0 -73 61 -119q60 -45 160 -45q135 0 230 92q92 89 92 275v141h-4q-17 -56 -78 -98q-62 -41 -215 -68 q-127 -21 -187 -59q-59 -38 -59 -119zM303 1253v213h184v-213h-184zM672 1253v213h184v-213h-184z" />
<glyph unicode="&#xe5;" horiz-adv-x="1105" d="M74 289q0 73 30 131q26 51 72 90q45 33 109 55q76 24 114 31q48 9 119 18q9 1 92 13q105 18 146 53q39 33 39 98q0 67 -62 111q-65 41 -174 41q-100 0 -160 -51q-63 -51 -69 -140h-185q6 134 111 242q104 104 297 104q106 0 192 -28q75 -24 127 -70q42 -39 70 -100 q25 -65 31 -109q6 -50 6 -108v-455q0 -106 16 -215h-196q-4 70 -4 154v41h-2q-24 -82 -109 -152q-83 -68 -240 -68q-179 0 -274 95q-96 96 -96 219zM256 289q0 -73 61 -119q60 -45 160 -45q135 0 230 92q92 89 92 275v141h-4q-17 -56 -78 -98q-62 -41 -215 -68 q-127 -21 -187 -59q-59 -38 -59 -119zM342 1399q0 95 70 162q67 67 161 67t164 -67q68 -68 68 -162t-68 -162q-71 -68 -164 -68t-161 68q-70 67 -70 162zM436 1397q0 -60 39 -99q41 -41 98 -41q58 0 99 41q39 39 39 99q0 61 -39 100t-99 39q-59 0 -98 -39t-39 -100z" />
<glyph unicode="&#xe6;" horiz-adv-x="1804" d="M74 289q0 73 30 131q26 51 72 90q45 33 109 55q76 24 114 31q48 9 119 18q9 1 92 13q105 18 146 53q39 33 39 98q0 67 -62 111q-65 41 -174 41q-100 0 -160 -51q-63 -51 -69 -140h-185q6 134 111 242q104 104 297 104q280 0 360 -176q119 174 340 174q134 0 232 -49 q95 -50 147 -135q52 -84 76 -180q23 -103 23 -207v-33h-768q9 -163 90 -256q82 -94 200 -94q233 0 285 186h176q-88 -340 -457 -340q-294 0 -399 273q-108 -273 -414 -273q-179 0 -274 95q-96 96 -96 219zM256 289q0 -73 61 -119q60 -45 160 -45q135 0 230 92q92 89 92 275 v141h-4q-17 -56 -78 -98q-62 -41 -215 -68q-127 -21 -187 -59q-59 -38 -59 -119zM965 627h585q-24 305 -297 305q-125 0 -198 -82q-75 -81 -90 -223z" />
<glyph unicode="&#xe7;" horiz-adv-x="1159" d="M74 528q0 245 149 400t393 155q194 0 310 -94q113 -94 151 -248h-184q-77 191 -283 191q-159 0 -254 -115q-98 -113 -98 -289q0 -171 98 -284q95 -115 254 -115q215 0 289 195h186q-86 -326 -419 -347l-66 -81l4 -5q21 15 68 15q72 0 123 -39q49 -40 49 -111 q0 -94 -76 -137q-74 -45 -178 -45q-101 0 -191 41l39 100q56 -39 125 -39q42 0 88 17q39 14 39 47q0 30 -26 47q-29 16 -70 16q-31 0 -84 -16l-55 80l100 110q-217 21 -350 175q-131 149 -131 376z" />
<glyph unicode="&#xe8;" horiz-adv-x="1157" d="M74 535q0 238 145 395q144 153 371 153q132 0 233 -49q98 -52 154 -135q52 -85 80 -182q23 -90 26 -205v-33h-831q9 -163 102 -256q91 -94 236 -94q245 0 297 186h180q-44 -168 -168 -252q-125 -88 -305 -88q-233 0 -377 156q-143 152 -143 404zM254 627h643 q-12 139 -90 223q-79 82 -217 82q-140 0 -228 -82q-90 -84 -108 -223zM309 1466h234l182 -284h-135z" />
<glyph unicode="&#xe9;" horiz-adv-x="1157" d="M74 535q0 238 145 395q144 153 371 153q132 0 233 -49q98 -52 154 -135q52 -85 80 -182q23 -90 26 -205v-33h-831q9 -163 102 -256q91 -94 236 -94q245 0 297 186h180q-44 -168 -168 -252q-125 -88 -305 -88q-233 0 -377 156q-143 152 -143 404zM254 627h643 q-12 139 -90 223q-79 82 -217 82q-140 0 -228 -82q-90 -84 -108 -223zM463 1182l182 284h234l-281 -284h-135z" />
<glyph unicode="&#xea;" horiz-adv-x="1157" d="M74 535q0 238 145 395q144 153 371 153q132 0 233 -49q98 -52 154 -135q52 -85 80 -182q23 -90 26 -205v-33h-831q9 -163 102 -256q91 -94 236 -94q245 0 297 186h180q-44 -168 -168 -252q-125 -88 -305 -88q-233 0 -377 156q-143 152 -143 404zM254 627h643 q-12 139 -90 223q-79 82 -217 82q-140 0 -228 -82q-90 -84 -108 -223zM266 1198l232 268h192l232 -268h-193l-135 172l-135 -172h-193z" />
<glyph unicode="&#xeb;" horiz-adv-x="1157" d="M74 535q0 238 145 395q144 153 371 153q132 0 233 -49q98 -52 154 -135q52 -85 80 -182q23 -90 26 -205v-33h-831q9 -163 102 -256q91 -94 236 -94q245 0 297 186h180q-44 -168 -168 -252q-125 -88 -305 -88q-233 0 -377 156q-143 152 -143 404zM254 627h643 q-12 139 -90 223q-79 82 -217 82q-140 0 -228 -82q-90 -84 -108 -223zM328 1253v213h184v-213h-184zM696 1253v213h185v-213h-185z" />
<glyph unicode="&#xec;" horiz-adv-x="454" d="M-68 1466h234l182 -284h-135zM135 0v1059h184v-1059h-184z" />
<glyph unicode="&#xed;" horiz-adv-x="454" d="M123 1182l182 284h234l-281 -284h-135zM135 0v1059h184v-1059h-184z" />
<glyph unicode="&#xee;" horiz-adv-x="454" d="M-96 1198l231 268h193l231 -268h-192l-136 172l-135 -172h-192zM135 0v1059h184v-1059h-184z" />
<glyph unicode="&#xef;" horiz-adv-x="454" d="M-45 1253v213h184v-213h-184zM135 0v1059h184v-1059h-184zM324 1253v213h184v-213h-184z" />
<glyph unicode="&#xf0;" horiz-adv-x="1200" d="M86 528q0 212 131 361q129 147 352 147q240 0 344 -192h5q-48 111 -148 229q-95 111 -162 158l-235 -111l-78 82l223 105q-66 57 -164 96l164 94q111 -76 158 -115l246 115l71 -76l-235 -108q356 -295 356 -785q0 -241 -135 -397t-379 -156t-379 156t-135 397zM270 528 q0 -183 95 -292q94 -107 235 -107q142 0 236 107t94 292q0 150 -84 254q-85 101 -256 101q-151 0 -236 -97q-84 -96 -84 -258z" />
<glyph unicode="&#xf1;" horiz-adv-x="1146" d="M131 0v1059h184v-215h2q20 96 107 170q81 69 209 69q197 0 291 -110q92 -112 92 -287v-686h-185v668q0 260 -223 260q-128 0 -211 -86q-82 -88 -82 -281v-561h-184zM252 1239q46 225 217 225q56 0 152 -41q93 -41 133 -41q66 0 94 91h106q-12 -91 -65 -162 q-48 -66 -141 -66q-64 0 -154 41q-79 39 -135 39q-66 0 -101 -86h-106z" />
<glyph unicode="&#xf2;" horiz-adv-x="1208" d="M74 528q0 239 147 398q145 157 383 157q237 0 385 -157q146 -161 146 -398t-146 -395q-149 -158 -385 -158q-237 0 -383 158q-147 156 -147 395zM258 528q0 -167 98 -280q94 -117 248 -117q151 0 250 117q96 116 96 280q0 166 -96 285q-100 115 -250 115 q-153 0 -248 -115q-98 -116 -98 -285zM313 1466h234l182 -284h-135z" />
<glyph unicode="&#xf3;" horiz-adv-x="1208" d="M74 528q0 239 147 398q145 157 383 157q237 0 385 -157q146 -161 146 -398t-146 -395q-149 -158 -385 -158q-237 0 -383 158q-147 156 -147 395zM258 528q0 -167 98 -280q94 -117 248 -117q151 0 250 117q96 116 96 280q0 166 -96 285q-100 115 -250 115 q-153 0 -248 -115q-98 -116 -98 -285zM473 1182l182 284h234l-281 -284h-135z" />
<glyph unicode="&#xf4;" horiz-adv-x="1208" d="M74 528q0 239 147 398q145 157 383 157q237 0 385 -157q146 -161 146 -398t-146 -395q-149 -158 -385 -158q-237 0 -383 158q-147 156 -147 395zM258 528q0 -167 98 -280q94 -117 248 -117q151 0 250 117q96 116 96 280q0 166 -96 285q-100 115 -250 115 q-153 0 -248 -115q-98 -116 -98 -285zM276 1198l232 268h192l232 -268h-193l-135 172l-135 -172h-193z" />
<glyph unicode="&#xf5;" horiz-adv-x="1208" d="M74 528q0 239 147 398q145 157 383 157q237 0 385 -157q146 -161 146 -398t-146 -395q-149 -158 -385 -158q-237 0 -383 158q-147 156 -147 395zM254 1239q46 225 217 225q56 0 152 -41q93 -41 133 -41q66 0 94 91h106q-12 -91 -65 -162q-48 -66 -141 -66q-64 0 -154 41 q-79 39 -135 39q-66 0 -101 -86h-106zM258 528q0 -167 98 -280q94 -117 248 -117q151 0 250 117q96 116 96 280q0 166 -96 285q-100 115 -250 115q-153 0 -248 -115q-98 -116 -98 -285z" />
<glyph unicode="&#xf6;" horiz-adv-x="1208" d="M74 528q0 239 147 398q145 157 383 157q237 0 385 -157q146 -161 146 -398t-146 -395q-149 -158 -385 -158q-237 0 -383 158q-147 156 -147 395zM258 528q0 -167 98 -280q94 -117 248 -117q151 0 250 117q96 116 96 280q0 166 -96 285q-100 115 -250 115 q-153 0 -248 -115q-98 -116 -98 -285zM328 1253v213h184v-213h-184zM696 1253v213h185v-213h-185z" />
<glyph unicode="&#xf7;" d="M111 449v139h1032v-139h-1032zM496 96q0 53 39 92t92 39t92 -39t39 -92q0 -51 -39 -90q-41 -41 -90 -41q-53 0 -92 39q-41 41 -41 92zM496 940q0 53 39 92t92 39t92 -39t39 -92q0 -51 -39 -90q-41 -41 -90 -41q-53 0 -92 39q-41 41 -41 92z" />
<glyph unicode="&#xf8;" horiz-adv-x="1208" d="M70 4l133 148q-129 156 -129 376q0 239 147 398q145 157 383 157q195 0 336 -112l113 125l53 -54l-113 -124q142 -154 142 -390q0 -237 -146 -395q-149 -158 -385 -158q-207 0 -348 123l-129 -143zM258 528q0 -132 68 -241l499 555q-95 86 -221 86q-153 0 -248 -115 q-98 -116 -98 -285zM373 227q96 -96 231 -96q151 0 250 117q96 116 96 280q0 149 -76 256z" />
<glyph unicode="&#xf9;" horiz-adv-x="1134" d="M119 373v686h184v-668q0 -260 223 -260q129 0 211 88q82 85 82 279v561h185v-1059h-185v215h-2q-20 -95 -106 -168q-84 -72 -209 -72q-198 0 -289 111q-94 110 -94 287zM291 1466h233l183 -284h-136z" />
<glyph unicode="&#xfa;" horiz-adv-x="1134" d="M119 373v686h184v-668q0 -260 223 -260q129 0 211 88q82 85 82 279v561h185v-1059h-185v215h-2q-20 -95 -106 -168q-84 -72 -209 -72q-198 0 -289 111q-94 110 -94 287zM469 1182l182 284h234l-281 -284h-135z" />
<glyph unicode="&#xfb;" horiz-adv-x="1134" d="M119 373v686h184v-668q0 -260 223 -260q129 0 211 88q82 85 82 279v561h185v-1059h-185v215h-2q-20 -95 -106 -168q-84 -72 -209 -72q-198 0 -289 111q-94 110 -94 287zM233 1198l232 268h192l232 -268h-193l-135 172l-135 -172h-193z" />
<glyph unicode="&#xfc;" horiz-adv-x="1134" d="M119 373v686h184v-668q0 -260 223 -260q129 0 211 88q82 85 82 279v561h185v-1059h-185v215h-2q-20 -95 -106 -168q-84 -72 -209 -72q-198 0 -289 111q-94 110 -94 287zM297 1253v213h184v-213h-184zM666 1253v213h184v-213h-184z" />
<glyph unicode="&#xfd;" horiz-adv-x="1122" d="M45 1059h197l336 -877h2l301 877h196l-479 -1264q-76 -205 -268 -205h-144v156h117q34 0 53 8q5 2 13 5.5t13 5.5t9 4q15 10 27 32l7.5 15l6 12t2.5 6q9 18 19 45l36 92q-18 45 -92 227t-129 318q-155 376 -223 543zM434 1182l182 284h234l-281 -284h-135z" />
<glyph unicode="&#xfe;" horiz-adv-x="1239" d="M150 -406v1868h174v-608h4q85 229 338 229q234 0 360 -159q127 -160 127 -398t-125 -393q-128 -158 -358 -158q-100 0 -197 54t-145 174h-4v-609h-174zM317 530q0 -168 84 -284q83 -117 250 -117q166 0 242 119q76 116 76 291q0 160 -84 276q-83 115 -244 115 q-165 0 -244 -117q-80 -118 -80 -283z" />
<glyph unicode="&#xff;" horiz-adv-x="1122" d="M45 1059h197l336 -877h2l301 877h196l-479 -1264q-76 -205 -268 -205h-144v156h117q34 0 53 8q5 2 13 5.5t13 5.5t9 4q15 10 27 32l7.5 15l6 12t2.5 6q9 18 19 45l36 92q-18 45 -92 227t-129 318q-155 376 -223 543zM287 1253v213h184v-213h-184zM655 1253v213h185v-213 h-185z" />
<glyph unicode="&#x152;" horiz-adv-x="2308" d="M82 731q0 319 194 545q194 221 523 221q335 0 510 -233v198h886v-164h-692v-473h649v-163h-649v-498h699v-164h-893v201q-175 -236 -510 -236q-331 0 -523 223q-194 221 -194 543zM276 731q0 -160 58 -291q58 -135 178 -223q119 -88 287 -88q167 0 286 88q121 89 179 223 q57 129 57 291q0 161 -57 293q-59 132 -179 221q-119 88 -286 88q-168 0 -287 -88t-178 -221q-58 -134 -58 -293z" />
<glyph unicode="&#x153;" horiz-adv-x="1992" d="M74 528q0 238 145 398q145 157 381 157q295 0 420 -247q59 118 166 182q109 65 248 65q133 0 231 -49q100 -53 152 -135q52 -85 77 -182q25 -98 25 -205v-33h-819q9 -162 100 -256q88 -94 234 -94q240 0 292 186h181q-44 -167 -166 -252q-122 -88 -303 -88 q-298 0 -418 246q-126 -246 -420 -246q-235 0 -381 158q-145 157 -145 395zM258 528q0 -166 96 -282q95 -115 246 -115q153 0 248 115q94 113 94 282t-94 285q-95 115 -248 115q-151 0 -246 -115q-96 -119 -96 -285zM1102 627h635q-27 305 -303 305q-141 0 -226 -82 q-88 -82 -106 -223z" />
<glyph unicode="&#x178;" horiz-adv-x="1277" d="M33 1462h225l379 -682l383 682h225l-510 -860v-602h-194v602zM354 1602v213h185v-213h-185zM739 1602v213h185v-213h-185z" />
<glyph unicode="&#x2c6;" horiz-adv-x="819" d="M82 1194l231 268h193l231 -268h-192l-135 172l-136 -172h-192z" />
<glyph unicode="&#x2dc;" d="M248 1235q46 225 217 225q55 0 151 -41q93 -41 134 -41q67 0 94 90h106q-12 -90 -65 -161q-48 -66 -142 -66q-63 0 -153 41q-79 39 -135 39q-66 0 -101 -86h-106z" />
<glyph unicode="&#x2000;" horiz-adv-x="1008" />
<glyph unicode="&#x2001;" horiz-adv-x="2017" />
<glyph unicode="&#x2002;" horiz-adv-x="1008" />
<glyph unicode="&#x2003;" horiz-adv-x="2017" />
<glyph unicode="&#x2004;" horiz-adv-x="672" />
<glyph unicode="&#x2005;" horiz-adv-x="504" />
<glyph unicode="&#x2006;" horiz-adv-x="336" />
<glyph unicode="&#x2007;" horiz-adv-x="336" />
<glyph unicode="&#x2008;" horiz-adv-x="252" />
<glyph unicode="&#x2009;" horiz-adv-x="403" />
<glyph unicode="&#x200a;" horiz-adv-x="112" />
<glyph unicode="&#x2010;" horiz-adv-x="911" d="M127 483v172h657v-172h-657z" />
<glyph unicode="&#x2011;" horiz-adv-x="911" d="M127 483v172h657v-172h-657z" />
<glyph unicode="&#x2012;" horiz-adv-x="911" d="M127 483v172h657v-172h-657z" />
<glyph unicode="&#x2013;" horiz-adv-x="1196" d="M86 487v164h1024v-164h-1024z" />
<glyph unicode="&#x2014;" horiz-adv-x="1662" d="M74 487v164h1515v-164h-1515z" />
<glyph unicode="&#x2018;" horiz-adv-x="444" d="M86 983l133 479h164l-102 -479h-195z" />
<glyph unicode="&#x2019;" horiz-adv-x="444" d="M86 983l102 479h195l-133 -479h-164z" />
<glyph unicode="&#x201a;" horiz-adv-x="444" d="M86 -231l102 479h195l-133 -479h-164z" />
<glyph unicode="&#x201c;" horiz-adv-x="813" d="M86 983l133 479h164l-102 -479h-195zM455 983l133 479h164l-103 -479h-194z" />
<glyph unicode="&#x201d;" horiz-adv-x="813" d="M86 983l102 479h195l-133 -479h-164zM455 983l102 479h195l-134 -479h-163z" />
<glyph unicode="&#x201e;" horiz-adv-x="813" d="M86 -231l102 479h195l-133 -479h-164zM455 -231l102 479h195l-134 -479h-163z" />
<glyph unicode="&#x2022;" horiz-adv-x="1026" d="M143 557q0 158 111 266q112 109 268 109q157 0 269 -109q108 -108 108 -266q0 -157 -108 -268q-110 -113 -269 -113q-158 0 -268 113q-111 111 -111 268z" />
<glyph unicode="&#x2026;" horiz-adv-x="1392" d="M135 0v246h221v-246h-221zM586 0v246h221v-246h-221zM1036 0v246h221v-246h-221z" />
<glyph unicode="&#x202f;" horiz-adv-x="403" />
<glyph unicode="&#x2039;" horiz-adv-x="489" d="M20 545l261 438h163l-229 -438l229 -439h-163z" />
<glyph unicode="&#x203a;" horiz-adv-x="489" d="M45 106l229 439l-229 438h164l260 -438l-260 -439h-164z" />
<glyph unicode="&#x205f;" horiz-adv-x="504" />
<glyph unicode="&#x20ac;" horiz-adv-x="1466" d="M57 782l58 148h164q59 254 251 409q196 158 484 158q224 0 391 -102l-55 -144q-137 90 -336 90q-207 0 -348 -114q-142 -115 -195 -297h758l-53 -148h-732q-2 -10 -2 -51q0 -5 4 -67h689l-54 -148h-606q59 -177 197 -285q137 -110 342 -110q227 0 370 110v-176 q-162 -90 -370 -90q-285 0 -477 154q-189 149 -254 397h-215l47 148h143q-2 14 -2 67q0 41 2 51h-201z" />
<glyph unicode="&#x2122;" horiz-adv-x="2052" d="M143 1350v112h668v-112h-264v-732h-139v732h-265zM983 618v844h215l252 -674l248 674h213v-844h-139v713h-5l-268 -713h-104l-269 713h-4v-713h-139z" />
<glyph unicode="&#x25fc;" horiz-adv-x="1054" d="M0 0v1055h1055v-1055h-1055z" />
</font>
</defs>
</svg>
