<?xml version="1.0" standalone="no"?>
<!DOCTYPE svg PUBLIC "-//W3C//DTD SVG 1.1//EN" "http://www.w3.org/Graphics/SVG/1.1/DTD/svg11.dtd" >
<svg xmlns="http://www.w3.org/2000/svg" xmlns:xlink="http://www.w3.org/1999/xlink" version="1.1">
<metadata></metadata>
<defs>
<font id="cakoblack" horiz-adv-x="1257" >
<font-face units-per-em="2048" ascent="1638" descent="-410" />
<missing-glyph horiz-adv-x="593" />
<glyph horiz-adv-x="0" />
<glyph horiz-adv-x="682" />
<glyph unicode=" "  horiz-adv-x="593" />
<glyph unicode="&#x09;" horiz-adv-x="593" />
<glyph unicode="&#xa0;" horiz-adv-x="593" />
<glyph unicode="!" horiz-adv-x="565" d="M164 184q0 83 59 142t142 59t141.5 -59t58.5 -142t-58.5 -141.5t-141.5 -58.5t-142 58.5t-59 141.5zM172 1264l162 -783h65l162 783v170h-389v-170z" />
<glyph unicode="&#x22;" horiz-adv-x="706" d="M98 1614l138 -590h4l137 590h-279zM428 1614l137 -590h4l138 590h-279z" />
<glyph unicode="#" horiz-adv-x="1142" d="M82 395h256l-109 -395h39l113 395h326l-109 -395h39l113 395h266v41h-254l119 414h262v41h-250l113 389h-43l-117 -389h-322l113 389h-43l-117 -389h-266v-41h256l-119 -414h-266v-41zM393 436l119 414h324l-119 -414h-324z" />
<glyph unicode="$" horiz-adv-x="1277" d="M225 47v481l174 -2l361 -467v453l-113 49q-66 29 -115 56.5t-102.5 70t-87.5 91t-56 117.5t-22 151q0 167 136 280t360 117v143h43v-143q109 -6 438 -45l4 -400h-268l-174 230v-303l45 -21q39 -17 63 -28.5t61.5 -30t62 -34t57.5 -37.5t54.5 -44t46 -49.5t40 -58t29 -66 t20 -77t6.5 -87.5q0 -118 -65 -211t-174.5 -142.5t-241.5 -49.5h-4v-144h-43v144q-120 5 -280.5 21.5t-254.5 35.5zM530 1196q0 -45 16.5 -82.5t51 -67.5t71 -52t91.5 -48v338l-82 109h-2q-67 -20 -106.5 -74.5t-39.5 -122.5zM803 39q6 -2 20 -2q92 0 156.5 60.5t64.5 146.5 q0 46 -17.5 83.5t-53.5 67.5t-74.5 52t-95.5 47v-455z" />
<glyph unicode="%" horiz-adv-x="1216" d="M102 1143q0 128 72 217.5t174 89.5t174 -89.5t72 -217.5t-72 -217.5t-174 -89.5t-174 89.5t-72 217.5zM141 0l989 1434h48l-990 -1434h-47zM270 1143q0 -118 23.5 -202.5t54.5 -84.5t54.5 84.5t23.5 202.5t-23.5 202.5t-54.5 84.5t-54.5 -84.5t-23.5 -202.5zM725 291 q0 128 72 217.5t174 89.5t174 -89.5t72 -217.5t-72 -217.5t-174 -89.5t-174 89.5t-72 217.5zM893 291q0 -118 23.5 -202.5t54.5 -84.5t54.5 84.5t23.5 202.5t-23.5 202.5t-54.5 84.5t-54.5 -84.5t-23.5 -202.5z" />
<glyph unicode="&#x26;" horiz-adv-x="1685" d="M123 512q0 142 70.5 263.5t190.5 192t259 70.5h14v11q0 166 128.5 283.5t308.5 117.5q118 0 205 -44t159 -132v-2q-48 16 -143 16q-127 0 -209 -59t-82 -160q0 -77 59 -168l224 -309v409h372l-327 -469l385 -532h-453l-174 238l-4 -7q-71 -111 -191.5 -179t-259.5 -68 q-145 0 -267.5 70.5t-193.5 192t-71 265.5zM469 662q0 -157 106.5 -258t258.5 -101q107 0 182 45l10 6l-223 305q-130 179 -146 326q-84 -51 -136 -137.5t-52 -185.5z" />
<glyph unicode="'" horiz-adv-x="376" d="M98 1614l138 -590h4l137 590h-279z" />
<glyph unicode="(" horiz-adv-x="790" d="M246 637q0 144 40 279t108.5 241t157.5 189t190 133.5t202 64.5v-2q-141 -77 -225 -321t-84 -584q0 -342 85 -585.5t224 -319.5v-2q-102 14 -203 64.5t-190 133.5t-157 189t-108 241t-40 279z" />
<glyph unicode=")" horiz-adv-x="790" d="M-61 -268q139 76 224 319.5t85 585.5q0 340 -84 584t-225 321v2q101 -14 202 -64.5t190 -133.5t157.5 -189t108.5 -241t40 -279t-40 -279t-108 -241t-157 -189t-190 -133.5t-203 -64.5v2z" />
<glyph unicode="*" horiz-adv-x="655" d="M61 1092l99 -170l186 208l-86 -266h197l-86 266l186 -208l98 170l-274 57l274 57l-98 170l-186 -205l86 263h-197l86 -263l-186 205l-99 -170l275 -57z" />
<glyph unicode="+" horiz-adv-x="1005" d="M164 463h387v-387h65v387h390v65h-390v387h-65v-387h-387v-65z" />
<glyph unicode="," horiz-adv-x="532" d="M139 184q0 83 59 142t142 59t142 -59t59 -142q0 -53 -19 -108q-26 -73 -94 -145t-188 -156l-29 41q145 102 178 168h-49q-83 0 -142 58.5t-59 141.5z" />
<glyph unicode="-" horiz-adv-x="772" d="M123 471h649v43h-649v-43z" />
<glyph unicode="." horiz-adv-x="524" d="M123 184q0 83 59 142t142 59t141.5 -59t58.5 -142t-58.5 -141.5t-141.5 -58.5t-142 58.5t-59 141.5z" />
<glyph unicode="/" horiz-adv-x="872" d="M41 0h47l784 1434h-47z" />
<glyph unicode="0" horiz-adv-x="1417" d="M205 717q0 200 81.5 368.5t221 266.5t303.5 98t303.5 -98t221 -266.5t81.5 -368.5t-81.5 -368.5t-221 -266.5t-303.5 -98t-303.5 98t-221 266.5t-81.5 368.5zM623 717q0 -185 25.5 -343t69 -249.5t93.5 -91.5t93.5 91.5t69 249.5t25.5 343t-25.5 343t-69 249.5 t-93.5 91.5t-93.5 -91.5t-69 -249.5t-25.5 -343z" />
<glyph unicode="1" horiz-adv-x="778" d="M41 958v52l573 440h2v-1329l99 -119l2 -2h-588v2l98 119v905z" />
<glyph unicode="2" horiz-adv-x="1101" d="M82 1020q0 132 72 231t188.5 149t257.5 50q198 0 322.5 -117.5t124.5 -290.5q0 -183 -150 -358q-53 -64 -207 -175.5t-203 -160.5h578v-348h-934v2q23 26 89 100.5t120.5 139t101.5 125.5q254 323 254 530q0 118 -70 197.5t-182 79.5q-60 0 -117.5 -24.5t-103.5 -68.5 t-74.5 -112t-29.5 -148h-2q-35 103 -35 199z" />
<glyph unicode="3" horiz-adv-x="1105" d="M18 516h2q27 -113 128 -179.5t223 -66.5q130 0 213.5 77.5t83.5 195.5q0 105 -68 181.5t-172 76.5q-48 0 -123 -21v64q40 40 121 118.5t121 118.5h-195h-211l2 353h406h436l-569 -545q56 18 116 18q126 0 237.5 -60.5t180 -166t68.5 -229.5q0 -130 -69 -238t-185 -168.5 t-252 -60.5q-109 0 -208 44t-167.5 116t-102 170.5t-16.5 201.5z" />
<glyph unicode="4" horiz-adv-x="1107" d="M0 414q112 129 188.5 236.5t140 232.5t96.5 260.5t38 290.5h385q-13 -87 -69.5 -195.5t-133 -210.5t-175 -210t-186.5 -192t-175 -159h403v227l379 226v-453h188v-53h-188v-293l98 -119v-2h-575v2l98 119v293h-512z" />
<glyph unicode="5" horiz-adv-x="1155" d="M43 530h2q24 -115 126 -183t224 -68q131 0 218 80t87 198t-75.5 189t-202.5 71t-240 -63h-2l152 680h680l-84 -324h-621l-59 -266q56 60 139 89.5t172 29.5q138 0 253.5 -59.5t185 -172t69.5 -256.5q0 -133 -71 -246.5t-191 -179t-260 -65.5q-110 0 -208 43.5t-166 116.5 t-103.5 174t-24.5 212z" />
<glyph unicode="6" horiz-adv-x="1236" d="M184 614q0 190 36.5 341.5t110.5 263t193 171.5t277 60q108 0 196.5 -35t135.5 -108v-2q-76 26 -152 26q-214 0 -326 -141.5t-112 -376.5q41 68 108.5 102.5t147.5 34.5q196 0 326 -137.5t130 -337.5q0 -142 -69.5 -255t-188.5 -174.5t-264 -61.5q-92 0 -172 21.5 t-150 70t-120 120.5t-78.5 179t-28.5 239zM571 473q0 -191 44.5 -315.5t109.5 -124.5t109.5 124.5t44.5 315.5q0 188 -43 288.5t-111 100.5t-111 -100.5t-43 -288.5z" />
<glyph unicode="7" horiz-adv-x="1054" d="M193 0q0 59 14 122.5t44.5 130.5t62 126.5t84 132t91 124.5t103 126.5t101 115.5t103 114.5t91.5 101.5h-694v340h978q-141 -182 -237 -344q-77 -127 -134.5 -256t-91 -235t-56 -220t-31 -197.5t-13.5 -181.5h-415z" />
<glyph unicode="8" horiz-adv-x="1273" d="M164 365q0 143 108.5 251.5t274.5 128.5q-141 28 -233.5 122t-92.5 237q0 104 68 184t180.5 121t249.5 41t249.5 -41t180.5 -121t68 -184q0 -143 -92.5 -237t-233.5 -122q166 -20 274.5 -128.5t108.5 -251.5q0 -116 -71 -203t-196.5 -132.5t-287.5 -45.5t-287.5 45.5 t-196.5 132.5t-71 203zM586 354q0 -141 38 -231t95 -90t95 90t38 231q0 146 -38 247t-95 101t-95 -101t-38 -247zM586 1083q0 -133 38 -224t95 -91t95 91t38 224q0 132 -39 226t-94 94t-94 -94t-39 -226z" />
<glyph unicode="9" horiz-adv-x="1236" d="M147 958q0 142 70 255.5t189 175t264 61.5q76 0 144.5 -15.5t130.5 -47t111.5 -83t86 -120t56.5 -161.5t20 -204q0 -190 -36.5 -341t-110.5 -262.5t-193 -171.5t-277 -60q-108 0 -196.5 35t-135.5 108v2q79 -27 152 -27q214 0 326 142t112 377q-41 -68 -109 -103 t-147 -35q-196 0 -326.5 137.5t-130.5 337.5zM524 961q0 -188 43 -289t111 -101t110.5 101t42.5 289q0 192 -44 316t-109 124t-109.5 -124.5t-44.5 -315.5z" />
<glyph unicode=":" horiz-adv-x="585" d="M184 184q0 83 59 142t142 59t142 -59t59 -142t-59 -141.5t-142 -58.5t-142 58.5t-59 141.5zM184 840q0 83 59 141.5t142 58.5t142 -58.5t59 -141.5t-59 -142t-142 -59t-142 59t-59 142z" />
<glyph unicode=";" horiz-adv-x="587" d="M188 184q0 83 59 142t142 59t142 -59t59 -142q0 -53 -19 -108q-26 -73 -94 -145t-188 -156l-29 41q145 102 178 168h-49q-83 0 -142 58.5t-59 141.5zM188 827q0 83 59 142t142 59t142 -59t59 -142t-59 -141.5t-142 -58.5t-142 58.5t-59 141.5z" />
<glyph unicode="&#x3c;" horiz-adv-x="706" d="M82 416l596 415v-2l-318 -413l318 -414v-2z" />
<glyph unicode="=" horiz-adv-x="1005" d="M164 330v65h842v-65h-842zM164 621v65h842v-65h-842z" />
<glyph unicode="&#x3e;" horiz-adv-x="706" d="M139 0v2l318 414l-318 413v2l596 -415z" />
<glyph unicode="?" horiz-adv-x="1085" d="M172 1100v315q147 35 383 35q94 0 177.5 -15t155 -47t123 -78.5t80.5 -112t29 -144.5q0 -54 -19.5 -101t-51 -82.5t-83 -71t-101.5 -61t-122 -57.5q-94 -41 -152 -83.5t-83 -107.5h-29l-8 125q-3 50 15.5 92t49 70t67 60.5t68.5 62t53 75t21 99.5q0 70 -36 148t-93 131 t-112 53l-162 -305h-170zM319 184q0 83 59 142t142 59t142 -59t59 -142t-59 -141.5t-142 -58.5t-142 58.5t-59 141.5z" />
<glyph unicode="@" horiz-adv-x="1724" d="M184 514q0 160 62 307t171 257.5t268.5 176.5t342.5 66q192 0 349 -69t252 -204.5t95 -314.5q0 -245 -136 -400t-357 -155q-94 0 -157.5 40.5t-67.5 121.5q-56 -67 -123.5 -105t-132.5 -38q-100 0 -161 83t-61 214q0 130 57.5 261.5t155 218.5t203.5 87q66 0 116.5 -38 t78.5 -105q33 64 81 87t115 23l158 -6l-164 -653q-9 -29 11.5 -50.5t56.5 -21.5q70 0 129 69t90 168.5t31 198.5q0 133 -50.5 240t-136.5 174t-196.5 102t-235.5 35q-131 0 -244.5 -42.5t-196 -115.5t-142 -171t-88.5 -210t-29 -231q0 -131 36 -240.5t98 -185t146 -128 t179 -77t198 -24.5q172 0 321.5 48.5t256.5 143.5v-8q-94 -110 -251 -170.5t-327 -60.5q-134 0 -251.5 25t-219.5 80t-174.5 136t-114 198.5t-41.5 262.5zM863.5 387.5q10.5 -55.5 49.5 -55.5q38 0 74.5 49.5t54.5 130.5l52 231q17 69 5.5 129t-50.5 60q-41 0 -72 -48 t-49 -128l-60 -262q-15 -51 -4.5 -106.5z" />
<glyph unicode="A" horiz-adv-x="1449" d="M-70 0v2l260 287l324 999l-51 144v2h414l524 -1430v-4h-574v2l105 113l-141 389h-480l-67 -215l252 -287v-2h-566zM328 549h448l-235 665z" />
<glyph unicode="B" horiz-adv-x="1413" d="M180 0v2l99 119v1192l-99 119v2h651q143 0 248 -31q252 -73 252 -311q0 -123 -69.5 -205t-206.5 -115q189 -30 284 -126.5t95 -250.5q0 -245 -234 -340q-131 -55 -334 -55h-686zM668 45h4q138 0 223 98q80 99 80 252t-80 250.5t-223 97.5h-4v-698zM668 788h2 q126 0 193 80.5t67 223.5q0 157 -94 239q-67 58 -166 58h-2v-601z" />
<glyph unicode="C" horiz-adv-x="1486" d="M184 707q0 201 88.5 368.5t239 263t328.5 95.5h555v-387h-279l-237 339h-2q-154 -46 -251.5 -188t-97.5 -328q0 -228 138.5 -379t343.5 -151q160 0 297 102t186 260h2q-1 -144 -51 -276t-135.5 -229.5t-208 -155t-260.5 -57.5q-180 0 -331 96.5t-238 262.5t-87 364z" />
<glyph unicode="D" horiz-adv-x="1413" d="M180 0v2l99 119v1192l-99 119v2h686q133 0 241.5 -68.5t174.5 -178.5t100 -242q30 -115 29 -231v-34q-5 -140 -42 -261.5t-103 -215.5t-169.5 -148.5t-230.5 -54.5h-686zM668 47h4q105 0 182 88t115.5 228t42.5 315v30q0 108 -18 214q-21 122 -62 224t-109.5 166 t-152.5 64h-2v-1329z" />
<glyph unicode="E" horiz-adv-x="1286" d="M180 0v2l99 119v1192l-99 119v2h1104v-387h-260l-244 342h-112v-652h2l340 246h14v-524h-14l-340 250h-2v-664h112l244 342h260v-387h-1104z" />
<glyph unicode="F" horiz-adv-x="1234" d="M180 0v2l99 119v1192l-99 119v2h1104v-387h-260l-244 342h-112v-652h2l340 246h14v-524h-14l-340 250h-2v-588l98 -119v-2h-586z" />
<glyph unicode="G" horiz-adv-x="1521" d="M184 713q0 196 88 362t239 262.5t329 96.5h555v-377h-281l-235 329h-2q-155 -46 -252 -186t-97 -321q0 -103 32 -197t87.5 -163t131 -117t162.5 -60q31 -4 62 -4q58 0 119 14v168l-100 133v2h479v-663h-2l-172 231q-91 -112 -217 -175.5t-270 -63.5q-134 0 -255 56 t-209 152.5t-140 232.5t-52 288z" />
<glyph unicode="H" horiz-adv-x="1484" d="M180 0v2l99 119v1192l-99 119v2h586v-2l-98 -119v-594h329v594l-98 119v2h586v-2l-99 -119v-1192l99 -119v-2h-586v2l98 119v551h-329v-551l98 -119v-2h-586z" />
<glyph unicode="I" horiz-adv-x="765" d="M180 0v2l99 119v1192l-99 119v2h586v-2l-98 -119v-1192l98 -119v-2h-586z" />
<glyph unicode="J" horiz-adv-x="751" d="M-172 -244q67 44 116 99t95 133q63 104 63 213v1112l-98 119v2h586v-2l-98 -119v-922q0 -286 -125 -440q-160 -197 -508 -197h-31v2z" />
<glyph unicode="K" horiz-adv-x="1464" d="M180 0v2l99 119v1192l-99 119v2h586v-2l-98 -119v-410q22 68 84.5 111t138.5 43h127v377h526l-289 -420h-364q-80 0 -137.5 -54t-57.5 -133q0 -82 55 -125t148 -43h266l389 -657v-2h-616v2l98 117l-319 530l-49 82v-610l98 -119v-2h-586z" />
<glyph unicode="L" horiz-adv-x="1122" d="M180 0v2l99 119v1192l-99 119v2h586v-2l-98 -119v-713l-238 -324q-12 -16 -22 -34.5t-20.5 -44.5t-9 -49.5t12.5 -45.5t44.5 -36.5t86.5 -18.5l248 340h442l-272 -387h-760z" />
<glyph unicode="M" horiz-adv-x="2007" d="M0 0v2l274 303v873l-139 254v2h494l477 -902l418 902h424v-2l-140 -254v-1057l99 -119v-2h-586v2l98 119v985l-510 -1106h-2l-590 1100v-795l275 -303v-2h-592z" />
<glyph unicode="N" horiz-adv-x="1472" d="M0 0v2l274 303v899l-151 228l-2 2h495l570 -799v493l-275 304v2h592v-2l-274 -304v-1128h-113l-799 1139v-834l275 -303v-2h-592z" />
<glyph unicode="O" horiz-adv-x="1540" d="M184 717q0 -154 54 -290.5t145 -233t216 -153t263 -56.5t263 56.5t216 153t145 233t54 290.5t-54 290.5t-145 233t-216 153t-263 56.5t-263 -56.5t-216 -153t-145 -233t-54 -290.5zM614 717q0 190 33.5 348t90.5 247t124 89t124 -89t90.5 -247t33.5 -348t-33.5 -348 t-90.5 -247t-124 -89t-124 89t-90.5 247t-33.5 348z" />
<glyph unicode="P" horiz-adv-x="1269" d="M180 0h586v2l-98 119v465h118q262 0 397.5 111t135.5 315t-136 313t-401 109h-602v-2l99 -119v-1192l-99 -119v-2zM668 633v753h2q67 0 118.5 -55.5t76 -139t24.5 -179.5q0 -144 -57.5 -247t-161.5 -132h-2z" />
<glyph unicode="Q" horiz-adv-x="1626" d="M184 717q0 -146 54 -279t145 -229t216.5 -152.5t262.5 -56.5h836v475h-2l-406 -422h-172q189 81 305.5 261t116.5 403q0 154 -54 290.5t-145 233t-216 153t-263 56.5t-263 -56.5t-216 -153t-145 -233t-54 -290.5zM614 717q0 190 33.5 348t90.5 247t124 89t124 -89 t90.5 -247t33.5 -348t-34 -344t-90.5 -239t-123.5 -85t-123.5 85t-90.5 239t-34 344z" />
<glyph unicode="R" horiz-adv-x="1351" d="M180 0v2l99 125v1180l-99 125v2h602q264 0 400.5 -107t136.5 -301q0 -222 -155.5 -318t-483.5 -96h-12q0 -48 42 -77t101 -29h502v-504q-249 0 -439 160q-148 123 -206 313v-354l98 -119v-2h-586zM668 659h2q67 0 118.5 56.5t76 138.5t24.5 172q0 89 -24.5 169.5 t-76 135.5t-118.5 55h-2v-727z" />
<glyph unicode="S" horiz-adv-x="1277" d="M225 47v481l174 -2l373 -483q27 -6 51 -6q92 0 156.5 60.5t64.5 146.5q0 32 -9.5 60t-23.5 49.5t-41 43.5t-49.5 36.5t-61.5 34t-65.5 31t-73.5 31t-73 31.5q-66 29 -115 56.5t-102.5 70t-87.5 91t-56 117.5t-22 151q0 170 140.5 283.5t371.5 113.5q82 0 465 -45l4 -400 h-268l-299 394h-2q-67 -20 -106.5 -74.5t-39.5 -122.5q0 -43 18.5 -80.5t39 -61.5t71.5 -54.5t77.5 -43.5t96.5 -44q10 -5 15 -7q39 -17 63 -28.5t61.5 -30t62 -34t57.5 -37.5t54.5 -44t46 -49.5t40 -58t29 -66t20 -77t6.5 -87.5q0 -118 -65 -211t-174.5 -142.5 t-241.5 -49.5q-111 0 -292 18t-290 39z" />
<glyph unicode="T" d="M61 940v494h1196v-494h-2l-327 449h-74v-1268l98 -119v-2h-585v2l98 119v1268h-74l-328 -449h-2z" />
<glyph unicode="U" horiz-adv-x="1439" d="M152 1432v2h585v-2l-98 -119v-760q0 -134 21 -228.5t62 -149t94.5 -79t125.5 -24.5q135 0 215.5 112.5t81.5 335.5l4 608l-270 304v2h583v-2l-270 -304l-4 -608q-1 -130 -29 -227.5t-86.5 -167.5t-155 -105.5t-229.5 -35.5q-278 0 -405 137t-127 452v740z" />
<glyph unicode="V" horiz-adv-x="1423" d="M29 1432v2h635v-2l-105 -113l379 -801l236 502l-211 412v2h460v-2l-675 -1432h-3l-659 1319z" />
<glyph unicode="W" horiz-adv-x="2349" d="M29 1432v2h635v-2l-105 -113l379 -801l229 490l-215 426h637v-2l-104 -113l379 -801l235 502l-211 412v2h461v-2l-676 -1432h-2l-475 950l-448 -950h-3l-659 1319z" />
<glyph unicode="X" horiz-adv-x="1472" d="M41 0v2l553 594l-531 836v2h670v-2l-98 -113l258 -404l205 222l-189 295v2h529v-2l-520 -558l491 -774l64 -98v-2h-662v2l98 98l-288 455l-207 -223l209 -330v-2h-582z" />
<glyph unicode="Y" horiz-adv-x="1378" d="M61 1432v2h670v-2l-129 -113l320 -739l215 452l-201 400v2h442v-2l-53 -113l-391 -834v-364l98 -119v-2h-590v2l99 119v364l-422 834z" />
<glyph unicode="Z" horiz-adv-x="1376" d="M90 0l774 1389h-395l-324 -449h-2v494h1213l-797 -1389h440l324 449h2v-494h-1235z" />
<glyph unicode="[" horiz-adv-x="714" d="M328 -190v1806h487v-2l-98 -119v-1565l100 -116v-4h-489z" />
<glyph unicode="\" horiz-adv-x="872" d="M41 1434l784 -1434h47l-784 1434h-47z" />
<glyph unicode="]" horiz-adv-x="714" d="M123 -186l100 116v1565l-98 119v2h487v-1806h-489v4z" />
<glyph unicode="^" horiz-adv-x="819" d="M205 1102v2l305 330h4l305 -330v-2l-307 92z" />
<glyph unicode="_" horiz-adv-x="1134" d="M-20 -39v-43h1155v43h-1155z" />
<glyph unicode="`" horiz-adv-x="825" d="M205 1130h620v3l-620 301v-304z" />
<glyph unicode="a" horiz-adv-x="1163" d="M143 709l219 315h431q127 0 217 -91.5t90 -219.5v-594l94 -115v-4h-164q-80 0 -139 28.5t-89.5 67.5t-48.5 91.5t-22 87t-4 67.5q-6 -149 -91 -251.5t-222 -102.5q-103 0 -174.5 74t-71.5 190q0 95 51 164t131 106l201 92q82 37 137 93.5t55 126.5q0 68 -48 110.5 t-117 42.5h-11v-278h-424zM526 412q0 -63 23 -95t63 -32q36 0 61 29t27 71v281q-20 -20 -47 -41l-47 -37q-36 -28 -58 -74t-22 -102z" />
<glyph unicode="b" horiz-adv-x="1247" d="M102 0v2l99 119v1192l-99 119v2h488v-570q48 79 119 125.5t149 46.5q150 0 254.5 -150.5t104.5 -373.5t-104.5 -373.5t-254.5 -150.5q-78 0 -149 46.5t-119 125.5v-160h-488zM594 367q0 -93 30 -158.5t74 -65.5q36 0 57 28t32.5 110t11.5 231t-11.5 231t-32.5 110t-57 28 q-44 0 -74 -65.5t-30 -158.5v-290z" />
<glyph unicode="c" horiz-adv-x="1144" d="M123 502q0 146 68.5 266t185.5 188t256 68h450v-315h-202l-199 286h-2q-97 -41 -161 -135.5t-64 -210.5q0 -162 101 -257t249 -95q122 0 215 70t121 180h2q3 -26 3 -51q0 -82 -28 -160q-36 -102 -105 -179t-169 -123t-211 -46q-139 0 -255.5 65.5t-185.5 184t-69 264.5z " />
<glyph unicode="d" horiz-adv-x="1247" d="M164 512q0 223 104 373.5t254 150.5q78 0 149.5 -46.5t119.5 -125.5v449l-99 119v2h488v-1313l98 -119v-2h-487v160q-48 -79 -119.5 -125.5t-149.5 -46.5q-150 0 -254 150.5t-104 373.5zM582 512q0 -150 11.5 -231.5t32 -109.5t56.5 -28q44 0 74 65.5t30 158.5v290 q0 93 -30 158.5t-74 65.5q-36 0 -56.5 -28t-32 -109.5t-11.5 -231.5z" />
<glyph unicode="e" horiz-adv-x="1144" d="M123 502q0 165 73.5 288t196.5 184.5t277 61.5q172 0 300 -85t175 -236h-684q-6 -35 -6 -66q0 -162 101 -257t249 -95q122 0 215 70t121 180h2q2 -26 2 -51q0 -118 -53 -224q-65 -130 -188.5 -207t-270.5 -77q-139 0 -255.5 65.5t-185.5 184t-69 264.5zM469 762h297 q-1 35 -5 67.5t-13.5 70.5t-30 61.5t-49.5 23.5q-55 0 -117 -74t-82 -149z" />
<glyph unicode="f" horiz-adv-x="948" d="M20 936v47h160v197q0 113 80.5 183.5t200.5 70.5h487l-200 -295h-218v247h-69q-101 0 -167.5 -56t-66.5 -150q0 -95 66.5 -146t169.5 -51h481v-47h-375v-815l99 -119v-2h-586v2l98 119v815h-160z" />
<glyph unicode="g" horiz-adv-x="1249" d="M123 512q0 139 73 257t198.5 186.5t273.5 68.5q138 0 256 -59q12 -6 33.5 1.5t33.5 24.5l135 191h134l-3 -320h-192q147 -147 147 -350q0 -109 -44.5 -205.5t-119 -163t-173 -105t-205.5 -38.5h-8q-37 0 -67 -26t-30 -58q0 -35 30 -59.5t73 -24.5q102 0 180 82l55 66 q66 77 148 77q72 0 123 -50t51 -120v-393h-422l217 311h158v82q0 52 -37 88.5t-90 36.5t-91.5 -39t-76.5 -114l-97 -199q-37 -84 -106 -133t-154 -49q-106 0 -182 74t-76 178q0 57 25 107t65.5 84.5t86 58t92.5 34.5q-179 42 -296.5 180.5t-117.5 317.5zM514 512 q0 -197 45 -336t109 -139t108.5 139t44.5 336t-44.5 336t-108.5 139t-109 -139t-45 -336z" />
<glyph unicode="h" d="M102 0v2l99 119v1192l-99 119v2h488v-699q46 148 118 224.5t193 76.5q123 0 195.5 -76t72.5 -208v-631l99 -119v-2h-488v586q0 50 -29 78t-71 28q-65 0 -90 -55v-516l98 -119v-2h-586z" />
<glyph unicode="i" horiz-adv-x="688" d="M102 0v2l99 119v782l-99 119v2h488v-903l98 -119v-2h-586zM195 1356q0 82 58.5 141t141.5 59q82 0 141.5 -59t59.5 -141q0 -83 -59.5 -142t-141.5 -59q-83 0 -141.5 59t-58.5 142z" />
<glyph unicode="j" horiz-adv-x="647" d="M0 -532q49 32 89 181.5t40 321.5v932l-98 119v2h487v-1053q0 -132 -73.5 -247.5t-192.5 -183t-252 -72.5zM123 1356q0 82 59 141t142 59q82 0 141 -59t59 -141q0 -83 -59 -142t-141 -59q-83 0 -142 59t-59 142z" />
<glyph unicode="k" horiz-adv-x="1370" d="M102 0v2l99 119v1192l-99 119v2h488v-609q23 92 100 145.5t180 53.5h476l-220 -315h-204v270h-52q-104 0 -174.5 -62t-70.5 -161q0 -97 69 -148t176 -51h224l336 -555v-2h-617v2l98 119l-108 172q-118 192 -161 271.5t-52 121.5v-565l98 -119v-2h-586z" />
<glyph unicode="l" horiz-adv-x="688" d="M102 0v2l99 119v1192l-99 119v2h488v-1313l98 -119v-2h-586z" />
<glyph unicode="m" horiz-adv-x="1837" d="M102 0v2l99 119v782l-99 119v2h488v-289q46 148 118 224.5t193 76.5t194.5 -83.5t73.5 -217.5q46 148 118.5 224.5t193.5 76.5t194.5 -85t73.5 -220v-610l98 -119v-2h-487v586q0 50 -29 78t-71 28q-30 0 -54.5 -14.5t-36.5 -40.5v-516l99 -119v-2h-488v586q0 50 -29 78 t-71 28q-65 0 -90 -55v-516l98 -119v-2h-586z" />
<glyph unicode="n" d="M102 0v2l99 119v782l-99 119v2h488v-289q46 148 118 224.5t193 76.5t194.5 -83.5t73.5 -217.5v-614l99 -119v-2h-488v586q0 50 -29 78t-71 28q-65 0 -90 -55v-516l98 -119v-2h-586z" />
<glyph unicode="o" horiz-adv-x="1212" d="M123 512q0 151 73.5 271.5t197.5 186.5t274 66t274 -66t197 -186.5t73 -271.5t-73 -271.5t-197 -186.5t-274 -66t-274 66t-197.5 186.5t-73.5 271.5zM514 512q0 -210 44.5 -348.5t109.5 -138.5t109 138t44 349t-44 349t-109 138t-109.5 -138.5t-44.5 -348.5z" />
<glyph unicode="p" horiz-adv-x="1247" d="M102 -494l99 119v1118l-99 109v2l486 174h2v-164q48 79 119 125.5t149 46.5q150 0 254.5 -150.5t104.5 -373.5t-104.5 -373.5t-254.5 -150.5q-78 0 -149 46.5t-119 125.5v-535l98 -119v-2h-586v2zM594 367q0 -93 30 -158.5t74 -65.5q36 0 57 28t32.5 110t11.5 231 t-11.5 231t-32.5 110t-57 28q-44 0 -74 -65.5t-30 -158.5v-290z" />
<glyph unicode="q" horiz-adv-x="1206" d="M123 512q0 223 104 373.5t254 150.5q74 0 141 -40.5t115 -110.5l400 143h2v-1403l98 -119v-2h-586v2l99 119v535q-46 -79 -118 -125.5t-151 -46.5q-150 0 -254 150.5t-104 373.5zM541 512q0 -150 11.5 -231.5t32 -109.5t56.5 -28q44 0 74 65.5t30 158.5v290 q0 93 -30 158.5t-74 65.5q-36 0 -56.5 -28t-32 -109.5t-11.5 -231.5z" />
<glyph unicode="r" horiz-adv-x="1058" d="M102 0v2l99 119v618l-99 109v2l486 174h2v-371q30 80 74 143.5t92 102t92.5 65t88 38.5t64.5 16.5t35 5.5h2v-436h-319q-129 0 -129 -82v-385l98 -119v-2h-586z" />
<glyph unicode="s" horiz-adv-x="1048" d="M164 29v352h153l334 -350h4q67 -1 119 39q50 37 49 92v6q-1 15 -7.5 28.5t-20.5 25t-27.5 20t-38.5 18.5t-43.5 17t-51.5 18.5t-54 19.5q-134 51 -160 63q-153 70 -201 187q-26 63 -26 144q0 105 62.5 180t155.5 109t203 34q101 -2 385 -28l2 -291h-247l-199 284h-2 q-55 -13 -94 -51t-39 -88q0 -33 27 -59.5t57 -39t84.5 -32t77.5 -29.5q59 -26 97.5 -44t84.5 -42.5t74.5 -45.5t57.5 -48.5t45 -56.5t26 -65t10 -77q0 -84 -33.5 -148t-92 -102.5t-133.5 -57.5t-163 -19q-301 12 -475 37z" />
<glyph unicode="t" horiz-adv-x="847" d="M0 975v2l565 455h2v-406l219 -2v-47h-219v-504q0 -47 30 -73.5t71 -26.5q36 0 67.5 23t42.5 65h2q1 -12 1 -25q0 -94 -33 -188q-37 -108 -115.5 -184t-177.5 -76q-121 0 -203 74.5t-82 201.5v711h-170z" />
<glyph unicode="u" d="M82 1022v2h487v-586q0 -50 29.5 -78t71.5 -28q65 0 90 55v516l-98 119v2h487v-903l98 -119v-2h-487v289q-46 -148 -118 -224.5t-193 -76.5t-195 85t-74 220v610z" />
<glyph unicode="v" horiz-adv-x="1216" d="M41 1022v2h569v-2l-98 -119l285 -491l180 299l-186 311v2h426v-2l-72 -119l-537 -903h-2z" />
<glyph unicode="w" horiz-adv-x="1961" d="M41 1022v2h545v-2l-74 -119l285 -491l168 280l-183 330v2h545v-2l-74 -119l285 -491l180 299l-186 311v2h430v-2l-72 -119l-540 -903h-2l-355 641l-385 -641h-2z" />
<glyph unicode="x" horiz-adv-x="1216" d="M61 1022l422 -629l-417 -391v-2h505v2l-182 242l119 114l201 -278l-80 -78v-2h583v2l-448 612l428 408v2h-477v-2l170 -238l-146 -139l-182 258l92 119v2h-588v-2z" />
<glyph unicode="y" horiz-adv-x="1224" d="M41 1022v2h571v-2l-98 -119l281 -491l188 299l-186 311v2h428v-2l-74 -117l-590 -968q-11 -18 -31 -51q-63 -103 -94.5 -148.5t-85 -98.5t-115 -71.5t-149.5 -18.5v426q43 -16 96 -23q41 -6 92 -6h28q67 2 140.5 30t137.5 81l-474 848z" />
<glyph unicode="z" horiz-adv-x="1116" d="M90 0l606 981h-284l-242 -410h-2v453h962l-606 -981h281l242 410h2v-453h-959z" />
<glyph unicode="{" horiz-adv-x="731" d="M82 713q64 9 123 62t59 108v387q0 82 29 148.5t79.5 109t119 68.5t147.5 27.5t164 -13.5v-4q-39 0 -69.5 -10t-50 -24t-33.5 -39t-21 -45t-10.5 -53.5t-4 -53t-0.5 -54.5v-360q0 -102 -90 -167t-260 -87q170 -22 260 -87t90 -167v-361q0 -35 0.5 -54.5t4 -52.5t10.5 -53 t21 -45t33.5 -39t50 -24t69.5 -10v-4q-85 -15 -164 -13.5t-147.5 27.5t-119 68.5t-79.5 109t-29 148.5v387q0 55 -59 108t-123 62z" />
<glyph unicode="|" horiz-adv-x="411" d="M369 -408l43 -2v1844h-43v-1842z" />
<glyph unicode="}" horiz-adv-x="731" d="M-61 -180q39 0 69.5 10t50 24t33.5 39t20.5 44.5t10 53.5t4 53t0.5 54v361q0 102 90 167t260 87q-170 22 -260 87t-90 167v360q0 35 -0.5 54t-4 53t-10 53.5t-20.5 45t-33.5 39t-50 24t-69.5 10.5v4q143 29 264 1t197.5 -116.5t76.5 -224.5v-387q0 -55 59 -108t123 -62 q-64 -9 -123 -62t-59 -108v-387q0 -136 -76.5 -224.5t-197.5 -116.5t-264 1v4z" />
<glyph unicode="~" horiz-adv-x="905" d="M96.5 464.5q12.5 45.5 45 76.5t75 47t88.5 16q61 0 118.5 -18.5t94 -41t83.5 -41t89 -18.5q56 0 107.5 39t60.5 94h6q14 -59 1.5 -104.5t-45 -76.5t-75 -46.5t-88.5 -15.5q-61 0 -118.5 18.5t-94 41t-83.5 41t-89 18.5q-56 0 -107.5 -39.5t-60.5 -94.5h-6 q-14 59 -1.5 104.5z" />
<glyph unicode="&#xa1;" horiz-adv-x="565" d="M164 1249q0 83 59 142t142 59t141.5 -59t58.5 -142t-58.5 -141.5t-141.5 -58.5t-142 58.5t-59 141.5zM172 0h389v170l-162 782h-65l-162 -782v-170z" />
<glyph unicode="&#xa2;" horiz-adv-x="1144" d="M123 502q0 146 68.5 266t185.5 188t256 68h49v129h43v-129h358v-315h-202l-156 225v-629q36 -8 80 -8q122 0 215 70t121 180h2q20 -197 -102 -356.5t-316 -194.5v-141h-43v135q-16 -2 -49 -2q-139 0 -255.5 65.5t-185.5 184t-69 264.5zM455 649q0 -125 62.5 -212 t164.5 -122v680h-2q-97 -41 -161 -135.5t-64 -210.5z" />
<glyph unicode="&#xa3;" horiz-adv-x="1218" d="M94 0v2q44 35 80 68q199 187 199 397q0 70 -27 156h-221v43h203q-24 43 -67 99t-73 94.5t-53.5 98.5t-23.5 125q0 163 146 257t392 94h525v-394h-254l-191 336q-110 0 -159.5 -62.5t-49.5 -209.5q0 -93 52.5 -234.5t60.5 -203.5h348v-43h-342q6 -35 6 -80 q0 -291 -280 -475h374l181 319h254v-387h-1080z" />
<glyph unicode="&#xa4;" horiz-adv-x="1247" d="M205 205l133 133q-133 146 -133 348q0 195 131 342l-131 133l43 43l131 -133q149 133 348 133q190 0 340 -137l137 137l43 -43l-137 -137q133 -149 133 -338q0 -193 -135 -344l139 -137l-43 -43l-139 137q-149 -133 -338 -133q-198 0 -346 129l-133 -133zM342 686 q0 -158 112.5 -271.5t272.5 -113.5q147 0 264 115.5t117 269.5q0 102 -55 190.5t-142.5 139.5t-183.5 51q-161 0 -273 -112t-112 -269z" />
<glyph unicode="&#xa5;" horiz-adv-x="1398" d="M82 1432v2h670v-2l-129 -113l319 -739l215 452l-201 400v2h443v-2l-53 -113l-377 -805h264v-43h-279v-106h279v-43h-279v-201l99 -119v-2h-590v2l98 119v201h-293v43h293v106h-293v43h279l-408 805z" />
<glyph unicode="&#xa6;" horiz-adv-x="411" d="M369 -410h43v828h-43v-828zM369 606h43v828h-43v-828z" />
<glyph unicode="&#xa7;" horiz-adv-x="1040" d="M164 14v344h139l303 -344h6q59 0 105.5 38.5t46.5 86.5q0 23 -12.5 44t-29.5 36t-50 32t-58.5 27.5t-70.5 28.5q-137 53 -192 86q-163 100 -163 273q0 103 60.5 174.5t163.5 103.5l49 12q-5 3 -14.5 8.5t-14.5 8.5q-96 59 -144 126.5t-48 160.5q0 71 32.5 127.5t87 91 t122 53t141.5 18.5q162 0 430 -30v-344h-140l-303 344h-6q-59 0 -104 -38.5t-45 -86.5q0 -23 12.5 -43.5t29 -35t50.5 -32t58 -28t71 -29.5q137 -53 193 -88q159 -98 159 -269q0 -117 -73.5 -191.5t-196.5 -98.5q110 -63 164.5 -134.5t54.5 -169.5q0 -93 -55.5 -161 t-140.5 -99.5t-187 -31.5q-239 0 -430 30zM395 821q0 -44 31.5 -77t71 -49.5t105 -43.5t104.5 -49q59 14 87.5 40t28.5 71q0 31 -22 59t-61 50.5t-77 39.5t-86.5 37t-72.5 33q-109 -30 -109 -111z" />
<glyph unicode="&#xa8;" horiz-adv-x="931" d="M205 1286q0 68 48.5 116t115.5 48t115 -48t48 -116t-48 -116t-115 -48t-115.5 48t-48.5 116zM604 1286q0 68 48 116t116 48t116 -48t48 -116t-48 -116t-116 -48t-116 48t-48 116z" />
<glyph unicode="&#xa9;" horiz-adv-x="1732" d="M184 717q0 -170 60.5 -313t165 -240t246 -151t302.5 -54t302.5 54t246.5 151t165.5 240t60.5 313t-60.5 313t-165.5 240t-246.5 151t-302.5 54t-302.5 -54t-246 -151t-165 -240t-60.5 -313zM231 717q0 207 94.5 371t260.5 254t372 90t372 -90t261 -254t95 -371t-95 -371 t-261 -254t-372 -90t-372 90t-260.5 254t-94.5 371zM545 715q0 187 117 311.5t286 124.5h340v-233h-170l-145 202h-2q-97 -30 -155 -109.5t-58 -191.5q0 -138 83.5 -225.5t209.5 -87.5q98 0 182 65t115 162h2q-3 -187 -118 -319.5t-284 -132.5t-286 123.5t-117 310.5z" />
<glyph unicode="&#xab;" horiz-adv-x="1210" d="M82 662l633 561h2l-338 -561l338 -562h-2zM547 662l633 561h2l-338 -561l338 -562h-2z" />
<glyph unicode="&#xad;" horiz-adv-x="772" d="M123 471h649v43h-649v-43z" />
<glyph unicode="&#xae;" horiz-adv-x="1732" d="M184 717q0 170 60.5 313t165 240t246 151t302.5 54t302.5 -54t246.5 -151t165.5 -240t60.5 -313t-60.5 -313t-165.5 -240t-246.5 -151t-302.5 -54t-302.5 54t-246 151t-165 240t-60.5 313zM231 717q0 -207 94.5 -371t260.5 -254t372 -90t372 90t261 254t95 371t-95 371 t-261 254t-372 90t-372 -90t-260.5 -254t-94.5 -371zM608 297v2l64 63v721l-64 66v2h377q338 0 338 -238q0 -127 -93.5 -183t-297.5 -56h-17q0 -49 19 -68.5t76 -19.5h311v-289q-62 0 -133.5 21.5t-130.5 58.5q-102 63 -142 162v-177l60 -63v-2h-367zM915 707h5 q67 15 110 72t43 134q0 78 -42.5 133.5t-110.5 73.5h-5v-413z" />
<glyph unicode="&#xaf;" horiz-adv-x="894" d="M205 1391h690v43h-690v-43z" />
<glyph unicode="&#xb0;" horiz-adv-x="735" d="M143 1155q0 -122 87 -209.5t210 -87.5q119 0 207 88t88 209q0 119 -88.5 207t-206.5 88q-122 0 -209.5 -88t-87.5 -207zM221 1155q0 89 64 153t155 64q85 0 151 -64.5t66 -152.5t-66.5 -153.5t-150.5 -65.5q-90 0 -154.5 64.5t-64.5 154.5z" />
<glyph unicode="&#xb1;" horiz-adv-x="1021" d="M180 473v66h387v387h66v-387h389v-66h-389v-285h-66v285h-387zM203 0v63h801v-63h-801z" />
<glyph unicode="&#xb4;" horiz-adv-x="825" d="M205 1130h620v304l-620 -301v-3z" />
<glyph unicode="&#xb6;" horiz-adv-x="1622" d="M82 979q0 -140 70 -245.5t185.5 -158.5t258.5 -53h104v-868l-122 -148v-2h411v1887h172v-1887h412v2l-123 148v1630l123 148v2h-977q-143 0 -258.5 -53t-185.5 -158t-70 -244z" />
<glyph unicode="&#xb7;" horiz-adv-x="626" d="M225 602q0 83 59 142t142 59t142 -59t59 -142t-59 -142t-142 -59t-142 59t-59 142z" />
<glyph unicode="&#xb8;" horiz-adv-x="655" d="M205 -248l18 12q55 -94 133 -94q42 0 69.5 25.5t27.5 64.5q0 42 -39.5 73t-124.5 34v2l117 131h49l-76 -84q42 13 90 5.5t89.5 -25.5t69 -54.5t27.5 -81.5q0 -74 -60 -124t-146 -50q-81 0 -150 43.5t-94 122.5z" />
<glyph unicode="&#xbb;" horiz-adv-x="1210" d="M139 100l338 562l-338 561h2l633 -561l-633 -562h-2zM604 100l338 562l-338 561h2l633 -561l-633 -562h-2z" />
<glyph unicode="&#xbf;" horiz-adv-x="1085" d="M102 381q0 54 19.5 101t51 82.5t83 71t101.5 61t122 57.5q95 42 153 83.5t83 106.5h28l9 -125q3 -43 -10.5 -80t-38 -64t-54 -52.5t-60 -52t-55.5 -55.5t-41 -68.5t-16 -86.5q0 -70 36 -148t93.5 -130.5t112.5 -52.5l162 305h170v-316q-143 -34 -383 -34q-94 0 -177.5 15 t-155 47t-123.5 78.5t-81 112t-29 144.5zM502 1249q0 83 58.5 142t141.5 59t142 -59t59 -142t-59 -141.5t-142 -58.5t-141.5 58.5t-58.5 141.5z" />
<glyph unicode="&#xc0;" horiz-adv-x="1449" d="M-70 0v2l260 287l324 999l-51 144v2h414l524 -1430v-4h-574v2l105 113l-141 389h-480l-67 -215l252 -287v-2h-566zM328 549h448l-235 665zM350 1606h621v2l-621 301v-303z" />
<glyph unicode="&#xc1;" horiz-adv-x="1449" d="M-70 0v2l260 287l324 999l-51 144v2h414l524 -1430v-4h-574v2l105 113l-141 389h-480l-67 -215l252 -287v-2h-566zM315 1606h621v303l-621 -301v-2zM328 549h448l-235 665z" />
<glyph unicode="&#xc2;" horiz-adv-x="1449" d="M-70 0v2l260 287l324 999l-51 144v2h414l524 -1430v-4h-574v2l105 113l-141 389h-480l-67 -215l252 -287v-2h-566zM328 549h448l-235 665zM348 1573v2l305 330h4l306 -330v-2l-308 92z" />
<glyph unicode="&#xc3;" horiz-adv-x="1449" d="M-70 0v2l260 287l324 999l-51 144v2h414l524 -1430v-4h-574v2l105 113l-141 389h-480l-67 -215l252 -287v-2h-566zM328 549h448l-235 665zM367 1606q-28 118 31.5 204t152.5 86q39 0 82 -19t75.5 -42t71.5 -42t70 -19t58.5 7.5t51 31t27.5 59.5h2q19 -75 0 -140 t-70.5 -108t-113.5 -43q-39 0 -82 19t-75.5 42.5t-71.5 42.5t-70 19t-58.5 -7.5t-51 -31t-27.5 -59.5h-2z" />
<glyph unicode="&#xc4;" horiz-adv-x="1449" d="M-70 0v2l260 287l324 999l-51 144v2h414l524 -1430v-4h-574v2l105 113l-141 389h-480l-67 -215l252 -287v-2h-566zM295 1751q0 67 48.5 115.5t115.5 48.5t115.5 -48.5t48.5 -115.5t-48.5 -115.5t-115.5 -48.5t-115.5 48.5t-48.5 115.5zM328 549h448l-235 665zM694 1751 q0 67 48 115.5t116 48.5t116 -48.5t48 -115.5t-48 -115.5t-116 -48.5t-116 48.5t-48 115.5z" />
<glyph unicode="&#xc5;" horiz-adv-x="1449" d="M-70 0v2l260 287l324 999l-51 144v2h414l524 -1430v-4h-574v2l105 113l-141 389h-480l-67 -215l252 -287v-2h-566zM328 549h448l-235 665zM494 1751q0 -68 48 -116t115 -48q65 0 113.5 48.5t48.5 115.5q0 65 -48.5 113.5t-113.5 48.5q-67 0 -115 -48.5t-48 -113.5z M537 1751q0 48 35 83.5t85 35.5q46 0 82.5 -36t36.5 -83q0 -49 -36.5 -85t-82.5 -36q-51 0 -85.5 35.5t-34.5 85.5z" />
<glyph unicode="&#xc6;" horiz-adv-x="1839" d="M-123 0v2l275 285l389 891l-215 254v2h1360v-387h-261l-243 342h-113v-652h2l340 246h14v-524h-14l-340 250h-2v-664h113l243 342h261v-387h-1104v2l98 119v575h-301l-180 -409l270 -285v-2h-592zM395 741h285v650z" />
<glyph unicode="&#xc7;" horiz-adv-x="1486" d="M184 707q0 201 88.5 368.5t239 263t328.5 95.5h555v-387h-279l-237 339h-2q-154 -46 -251.5 -188t-97.5 -328q0 -228 138.5 -379t343.5 -151q160 0 297 102t186 260h2q-1 -187 -80.5 -347.5t-223 -260.5t-319.5 -110l-61 -68q42 13 90 5.5t89.5 -25.5t69 -54.5 t27.5 -81.5q0 -74 -60 -124t-146 -50q-81 0 -150 43.5t-94 122.5l18 12q55 -94 133 -94q42 0 69.5 25.5t27.5 64.5q0 42 -39.5 73t-124.5 34v2l102 115q-176 5 -323 102.5t-231.5 262t-84.5 358.5z" />
<glyph unicode="&#xc8;" horiz-adv-x="1286" d="M180 0v2l99 119v1192l-99 119v2h1104v-387h-260l-244 342h-112v-652h2l340 246h14v-524h-14l-340 250h-2v-664h112l244 342h260v-387h-1104zM438 1606h621v2l-621 301v-303z" />
<glyph unicode="&#xc9;" horiz-adv-x="1286" d="M180 0v2l99 119v1192l-99 119v2h1104v-387h-260l-244 342h-112v-652h2l340 246h14v-524h-14l-340 250h-2v-664h112l244 342h260v-387h-1104zM432 1606h621v303l-621 -301v-2z" />
<glyph unicode="&#xca;" horiz-adv-x="1286" d="M180 0v2l99 119v1192l-99 119v2h1104v-387h-260l-244 342h-112v-652h2l340 246h14v-524h-14l-340 250h-2v-664h112l244 342h260v-387h-1104zM469 1573v2l305 330h4l305 -330v-2l-307 92z" />
<glyph unicode="&#xcb;" horiz-adv-x="1286" d="M180 0v2l99 119v1192l-99 119v2h1104v-387h-260l-244 342h-112v-652h2l340 246h14v-524h-14l-340 250h-2v-664h112l244 342h260v-387h-1104zM389 1751q0 67 48.5 115.5t115.5 48.5t115.5 -48.5t48.5 -115.5t-48.5 -115.5t-115.5 -48.5t-115.5 48.5t-48.5 115.5zM788 1751 q0 67 48 115.5t116 48.5t116 -48.5t48 -115.5t-48 -115.5t-116 -48.5t-116 48.5t-48 115.5z" />
<glyph unicode="&#xcc;" horiz-adv-x="765" d="M156 1606h620v2l-620 301v-303zM168 0v2l98 119v1192l-98 119v2h586v-2l-99 -119v-1192l99 -119v-2h-586z" />
<glyph unicode="&#xcd;" horiz-adv-x="765" d="M135 1606h621v303l-621 -301v-2zM158 0v2l98 119v1192l-98 119v2h585v-2l-98 -119v-1192l98 -119v-2h-585z" />
<glyph unicode="&#xce;" horiz-adv-x="765" d="M152 1573v2l305 330h4l305 -330v-2l-307 92zM166 0v2l98 119v1192l-98 119v2h586v-2l-99 -119v-1192l99 -119v-2h-586z" />
<glyph unicode="&#xcf;" horiz-adv-x="765" d="M41 1751q0 67 48.5 115.5t115.5 48.5t115.5 -48.5t48.5 -115.5t-48.5 -115.5t-115.5 -48.5t-115.5 48.5t-48.5 115.5zM111 0v2l98 119v1192l-98 119v2h585v-2l-98 -119v-1192l98 -119v-2h-585zM440 1751q0 67 48 115.5t116 48.5t116 -48.5t48 -115.5t-48 -115.5 t-116 -48.5t-116 48.5t-48 115.5z" />
<glyph unicode="&#xd0;" horiz-adv-x="1413" d="M20 696v43h179v574l-99 119v2h686q133 0 241.5 -68.5t174.5 -178.5t100 -242t29 -265q-5 -140 -42 -261.5t-103 -215.5t-169.5 -148.5t-230.5 -54.5h-686v2l99 119v575h-179zM588 47h4q105 0 182 88t115.5 228t42.5 315q3 122 -18 243.5t-62 224t-109.5 166.5t-152.5 64 h-2v-637h243v-43h-243v-649z" />
<glyph unicode="&#xd1;" horiz-adv-x="1472" d="M0 0v2l274 303v899l-151 228l-2 2h495l570 -799v493l-275 304v2h592v-2l-274 -304v-1128h-113l-799 1139v-834l275 -303v-2h-592zM457 1606q-28 118 31.5 204t152.5 86q39 0 82 -19t75.5 -42t71.5 -42t70 -19t58.5 7.5t51 31t27.5 59.5h2q19 -75 0 -140t-70.5 -108 t-113.5 -43q-39 0 -82 19t-75.5 42.5t-71.5 42.5t-70 19t-58.5 -7.5t-51 -31t-27.5 -59.5h-2z" />
<glyph unicode="&#xd2;" horiz-adv-x="1540" d="M184 717q0 -154 54 -290.5t145 -233t216 -153t263 -56.5t263 56.5t216 153t145 233t54 290.5t-54 290.5t-145 233t-216 153t-263 56.5t-263 -56.5t-216 -153t-145 -233t-54 -290.5zM565 1606h621v2l-621 301v-303zM614 717q0 190 33.5 348t90.5 247t124 89t124 -89 t90.5 -247t33.5 -348t-33.5 -348t-90.5 -247t-124 -89t-124 89t-90.5 247t-33.5 348z" />
<glyph unicode="&#xd3;" horiz-adv-x="1540" d="M184 717q0 -154 54 -290.5t145 -233t216 -153t263 -56.5t263 56.5t216 153t145 233t54 290.5t-54 290.5t-145 233t-216 153t-263 56.5t-263 -56.5t-216 -153t-145 -233t-54 -290.5zM549 1606h620v303l-620 -301v-2zM614 717q0 190 33.5 348t90.5 247t124 89t124 -89 t90.5 -247t33.5 -348t-33.5 -348t-90.5 -247t-124 -89t-124 89t-90.5 247t-33.5 348z" />
<glyph unicode="&#xd4;" horiz-adv-x="1540" d="M184 717q0 -154 54 -290.5t145 -233t216 -153t263 -56.5t263 56.5t216 153t145 233t54 290.5t-54 290.5t-145 233t-216 153t-263 56.5t-263 -56.5t-216 -153t-145 -233t-54 -290.5zM555 1573v2l305 330h4l305 -330v-2l-307 92zM614 717q0 190 33.5 348t90.5 247t124 89 t124 -89t90.5 -247t33.5 -348t-33.5 -348t-90.5 -247t-124 -89t-124 89t-90.5 247t-33.5 348z" />
<glyph unicode="&#xd5;" horiz-adv-x="1540" d="M184 717q0 -154 54 -290.5t145 -233t216 -153t263 -56.5t263 56.5t216 153t145 233t54 290.5t-54 290.5t-145 233t-216 153t-263 56.5t-263 -56.5t-216 -153t-145 -233t-54 -290.5zM549 1606q-28 118 31.5 204t152.5 86q39 0 82 -19t75.5 -42t71.5 -42t70 -19t58.5 7.5 t51 31t27.5 59.5h2q19 -75 0 -140t-70.5 -108t-113.5 -43q-39 0 -82 19t-75.5 42.5t-71.5 42.5t-70 19t-58.5 -7.5t-51 -31t-27.5 -59.5h-2zM614 717q0 190 33.5 348t90.5 247t124 89t124 -89t90.5 -247t33.5 -348t-33.5 -348t-90.5 -247t-124 -89t-124 89t-90.5 247 t-33.5 348z" />
<glyph unicode="&#xd6;" horiz-adv-x="1540" d="M184 717q0 -154 54 -290.5t145 -233t216 -153t263 -56.5t263 56.5t216 153t145 233t54 290.5t-54 290.5t-145 233t-216 153t-263 56.5t-263 -56.5t-216 -153t-145 -233t-54 -290.5zM500 1751q0 67 48 115.5t116 48.5q67 0 115 -48t48 -116t-48 -116t-115 -48 q-68 0 -116 48.5t-48 115.5zM614 717q0 190 33.5 348t90.5 247t124 89t124 -89t90.5 -247t33.5 -348t-33.5 -348t-90.5 -247t-124 -89t-124 89t-90.5 247t-33.5 348zM899 1751q0 67 48.5 115.5t115.5 48.5t115.5 -48.5t48.5 -115.5t-48.5 -115.5t-115.5 -48.5t-115.5 48.5 t-48.5 115.5z" />
<glyph unicode="&#xd7;" horiz-adv-x="806" d="M164 223l47 -47l274 275l275 -275l47 45l-277 277l275 272l-47 47l-273 -274l-274 274l-47 -47l274 -272z" />
<glyph unicode="&#xd8;" horiz-adv-x="1540" d="M184 717q0 154 54 290.5t145 233t216 153t263 56.5q208 0 377 -121l164 252h47l-178 -276q124 -101 196 -254t72 -334q0 -154 -54 -290.5t-145 -233t-216 -153t-263 -56.5q-204 0 -370 116l-162 -247h-56l181 274q-126 102 -198.5 255.5t-72.5 334.5zM614 717 q0 -161 25 -305l434 665q-32 149 -88.5 236.5t-122.5 87.5q-67 0 -124 -89t-90.5 -247t-33.5 -348zM651 350q34 -147 90 -232t121 -85q67 0 124 89t90.5 247t33.5 348q0 160 -25 301z" />
<glyph unicode="&#xd9;" horiz-adv-x="1439" d="M152 1432v2h585v-2l-98 -119v-760q0 -134 21 -228.5t62 -149t94.5 -79t125.5 -24.5q135 0 215.5 112.5t81.5 335.5l4 608l-270 304v2h583v-2l-270 -304l-4 -608q-1 -130 -29 -227.5t-86.5 -167.5t-155 -105.5t-229.5 -35.5q-278 0 -405 137t-127 452v740zM555 1606h621v2 l-621 301v-303z" />
<glyph unicode="&#xda;" horiz-adv-x="1439" d="M152 1432v2h585v-2l-98 -119v-760q0 -134 21 -228.5t62 -149t94.5 -79t125.5 -24.5q135 0 215.5 112.5t81.5 335.5l4 608l-270 304v2h583v-2l-270 -304l-4 -608q-1 -130 -29 -227.5t-86.5 -167.5t-155 -105.5t-229.5 -35.5q-278 0 -405 137t-127 452v740zM498 1606h620 v303l-620 -301v-2z" />
<glyph unicode="&#xdb;" horiz-adv-x="1439" d="M152 1432v2h585v-2l-98 -119v-760q0 -134 21 -228.5t62 -149t94.5 -79t125.5 -24.5q135 0 215.5 112.5t81.5 335.5l4 608l-270 304v2h583v-2l-270 -304l-4 -608q-1 -130 -29 -227.5t-86.5 -167.5t-155 -105.5t-229.5 -35.5q-278 0 -405 137t-127 452v740zM532 1573v2 l306 330h4l305 -330v-2l-307 92z" />
<glyph unicode="&#xdc;" horiz-adv-x="1439" d="M152 1432v2h585v-2l-98 -119v-760q0 -134 21 -228.5t62 -149t94.5 -79t125.5 -24.5q135 0 215.5 112.5t81.5 335.5l4 608l-270 304v2h583v-2l-270 -304l-4 -608q-1 -130 -29 -227.5t-86.5 -167.5t-155 -105.5t-229.5 -35.5q-278 0 -405 137t-127 452v740zM494 1751 q0 68 48 116t115 48t115.5 -48.5t48.5 -115.5t-48.5 -115.5t-115.5 -48.5t-115 48t-48 116zM893 1751q0 67 48.5 115.5t115.5 48.5t115.5 -48.5t48.5 -115.5t-48.5 -115.5t-115.5 -48.5t-115.5 48.5t-48.5 115.5z" />
<glyph unicode="&#xdd;" horiz-adv-x="1378" d="M61 1432v2h670v-2l-129 -113l320 -739l215 452l-201 400v2h442v-2l-53 -113l-391 -834v-364l98 -119v-2h-590v2l99 119v364l-422 834zM494 1606h620v303l-620 -301v-2z" />
<glyph unicode="&#xde;" horiz-adv-x="1269" d="M180 0h586v2l-98 119v217h118q262 0 397.5 104.5t135.5 296.5q0 191 -136 294.5t-401 103.5h-114v176l98 119v2h-586v-2l99 -119v-1192l-99 -119v-2zM668 385v705h2q105 -29 162 -123t57 -228q0 -135 -57 -230t-162 -124h-2z" />
<glyph unicode="&#xdf;" horiz-adv-x="1511" d="M102 0v2l99 119v823q1 109 48.5 204.5t125 161t179.5 103t212 37.5q165 0 252.5 -64.5t87.5 -173.5q0 -79 -43 -172q-25 -54 -60 -105.5t-53 -84t-18 -68.5q0 -30 23 -51.5t51 -32.5t80.5 -28.5t82.5 -30.5q94 -41 156 -75.5t115 -78.5t77.5 -96.5t24.5 -116.5 q0 -70 -34 -126.5t-91 -91t-126.5 -52.5t-145.5 -18q-252 0 -449 30q-3 59 -10 179.5t-10 179.5h166l321 -359q61 0 108.5 38.5t47.5 86.5q0 19 -7 35t-26 31t-33.5 25.5t-49 26t-51.5 22.5t-62 24q-149 57 -211 97q-163 104 -156 274q1 35 15 69.5t39 67.5t43 53.5t46 48.5 q70 68 102.5 135t32.5 146t-56 124.5t-134 45.5q-105 0 -163 -75.5t-58 -223.5v-1065h-488z" />
<glyph unicode="&#xe0;" horiz-adv-x="1163" d="M143 709l219 315h431q127 0 217 -91.5t90 -219.5v-594l94 -115v-4h-164q-80 0 -139 28.5t-89.5 67.5t-48.5 91.5t-22 87t-4 67.5q-6 -149 -91 -251.5t-222 -102.5q-103 0 -174.5 74t-71.5 190q0 95 51 164t131 106l201 92q82 37 137 93.5t55 126.5q0 68 -48 110.5 t-117 42.5h-11v-278h-424zM360 1192h621v2l-621 301v-303zM526 412q0 -63 23 -95t63 -32q36 0 61 29t27 71v281q-20 -20 -47 -41l-47 -37q-36 -28 -58 -74t-22 -102z" />
<glyph unicode="&#xe1;" horiz-adv-x="1163" d="M143 709l219 315h431q127 0 217 -91.5t90 -219.5v-594l94 -115v-4h-164q-80 0 -139 28.5t-89.5 67.5t-48.5 91.5t-22 87t-4 67.5q-6 -149 -91 -251.5t-222 -102.5q-103 0 -174.5 74t-71.5 190q0 95 51 164t131 106l201 92q82 37 137 93.5t55 126.5q0 68 -48 110.5 t-117 42.5h-11v-278h-424zM365 1192h620v303l-620 -301v-2zM526 412q0 -63 23 -95t63 -32q36 0 61 29t27 71v281q-20 -20 -47 -41l-47 -37q-36 -28 -58 -74t-22 -102z" />
<glyph unicode="&#xe2;" horiz-adv-x="1163" d="M143 709l219 315h431q127 0 217 -91.5t90 -219.5v-594l94 -115v-4h-164q-80 0 -139 28.5t-89.5 67.5t-48.5 91.5t-22 87t-4 67.5q-6 -149 -91 -251.5t-222 -102.5q-103 0 -174.5 74t-71.5 190q0 95 51 164t131 106l201 92q82 37 137 93.5t55 126.5q0 68 -48 110.5 t-117 42.5h-11v-278h-424zM342 1149v2l305 330h4l305 -330v-2l-307 92zM526 412q0 -63 23 -95t63 -32q36 0 61 29t27 71v281q-20 -20 -47 -41l-47 -37q-36 -28 -58 -74t-22 -102z" />
<glyph unicode="&#xe3;" horiz-adv-x="1163" d="M143 709l219 315h431q127 0 217 -91.5t90 -219.5v-594l94 -115v-4h-164q-80 0 -139 28.5t-89.5 67.5t-48.5 91.5t-22 87t-4 67.5q-6 -149 -91 -251.5t-222 -102.5q-103 0 -174.5 74t-71.5 190q0 95 51 164t131 106l201 92q82 37 137 93.5t55 126.5q0 68 -48 110.5 t-117 42.5h-11v-278h-424zM360 1192q-28 118 32 204.5t153 86.5q39 0 82 -19t75.5 -42.5t71.5 -42.5t70 -19t58.5 7.5t51 31t27.5 59.5h2q19 -75 0 -140t-70.5 -108t-113.5 -43q-39 0 -82 19t-75.5 42.5t-71.5 42.5t-70 19t-58.5 -7.5t-51.5 -31t-28 -59.5h-2zM526 412 q0 -63 23 -95t63 -32q36 0 61 29t27 71v281q-20 -20 -47 -41l-47 -37q-36 -28 -58 -74t-22 -102z" />
<glyph unicode="&#xe4;" horiz-adv-x="1163" d="M143 709l219 315h431q127 0 217 -91.5t90 -219.5v-594l94 -115v-4h-164q-80 0 -139 28.5t-89.5 67.5t-48.5 91.5t-22 87t-4 67.5q-6 -149 -91 -251.5t-222 -102.5q-103 0 -174.5 74t-71.5 190q0 95 51 164t131 106l201 92q82 37 137 93.5t55 126.5q0 68 -48 110.5 t-117 42.5h-11v-278h-424zM317 1335q0 67 48.5 115.5t115.5 48.5t115.5 -48.5t48.5 -115.5t-48.5 -115.5t-115.5 -48.5t-115.5 48.5t-48.5 115.5zM526 412q0 -63 23 -95t63 -32q36 0 61 29t27 71v281q-20 -20 -47 -41l-47 -37q-36 -28 -58 -74t-22 -102zM717 1335 q0 67 48.5 115.5t115.5 48.5t115 -48t48 -116t-48 -116t-115 -48t-115.5 48.5t-48.5 115.5z" />
<glyph unicode="&#xe5;" horiz-adv-x="1163" d="M143 709l219 315h431q127 0 217 -91.5t90 -219.5v-594l94 -115v-4h-164q-80 0 -139 28.5t-89.5 67.5t-48.5 91.5t-22 87t-4 67.5q-6 -149 -91 -251.5t-222 -102.5q-103 0 -174.5 74t-71.5 190q0 95 51 164t131 106l201 92q82 37 137 93.5t55 126.5q0 68 -48 110.5 t-117 42.5h-11v-278h-424zM526 412q0 -63 23 -95t63 -32q36 0 61 29t27 71v281q-20 -20 -47 -41l-47 -37q-36 -28 -58 -74t-22 -102zM532 1335q0 -67 48 -115.5t116 -48.5q65 0 113.5 48.5t48.5 115.5q0 65 -49 113.5t-113 48.5q-67 0 -115.5 -48.5t-48.5 -113.5zM575 1335 q0 48 35.5 83.5t85.5 35.5q46 0 82.5 -36t36.5 -83q0 -49 -36.5 -85t-82.5 -36q-51 0 -86 35.5t-35 85.5z" />
<glyph unicode="&#xe6;" horiz-adv-x="1722" d="M143 709l219 315h426q109 0 160 -63l8 -11q125 86 301 86q172 0 300.5 -85t175.5 -236h-684q-7 -40 -7 -66q0 -162 101.5 -257t249.5 -95q122 0 215 70t121 180h2q14 -145 -51 -274.5t-188.5 -207t-270.5 -77.5q-163 0 -297.5 94.5t-186.5 269.5q-4 -96 -44 -178.5 t-113.5 -134t-165.5 -51.5q-103 0 -174.5 74t-71.5 190q0 95 51 164t131 106l201 92q82 37 137 93.5t55 126.5q0 68 -48 110.5t-117 42.5h-11v-278h-424zM526 412q0 -63 23 -95t63 -32q36 0 61 29t27 71v281q-20 -20 -47 -41l-47 -37q-36 -28 -58 -74t-22 -102zM1057 762 h297q-1 34 -5 67t-14 71t-30.5 61.5t-49.5 23.5q-55 0 -116.5 -74t-81.5 -149z" />
<glyph unicode="&#xe7;" horiz-adv-x="1144" d="M123 502q0 146 68.5 266t185.5 188t256 68h450v-315h-202l-199 286h-2q-97 -41 -161 -135.5t-64 -210.5q0 -162 101 -257t249 -95q122 0 215 70t121 180h2q14 -144 -50 -273t-186.5 -207t-269.5 -79l-66 -72q42 13 90.5 5.5t90 -25.5t69 -54.5t27.5 -81.5 q0 -74 -60.5 -124t-146.5 -50q-81 0 -150 43.5t-94 122.5l19 12q55 -94 133 -94q42 0 69 25.5t27 64.5q0 42 -39.5 73t-124.5 34v2l107 121q-197 15 -331 159t-134 353z" />
<glyph unicode="&#xe8;" horiz-adv-x="1144" d="M123 502q0 165 73.5 288t196.5 184.5t277 61.5q172 0 300 -85t175 -236h-684q-6 -35 -6 -66q0 -162 101 -257t249 -95q122 0 215 70t121 180h2q14 -145 -51 -274.5t-188.5 -207t-270.5 -77.5q-139 0 -255.5 65.5t-185.5 184t-69 264.5zM346 1192h621v2l-621 301v-303z M469 762h297q-1 35 -5 67.5t-13.5 70.5t-30 61.5t-49.5 23.5q-55 0 -117 -74t-82 -149z" />
<glyph unicode="&#xe9;" horiz-adv-x="1144" d="M123 502q0 165 73.5 288t196.5 184.5t277 61.5q172 0 300 -85t175 -236h-684q-6 -35 -6 -66q0 -162 101 -257t249 -95q122 0 215 70t121 180h2q14 -145 -51 -274.5t-188.5 -207t-270.5 -77.5q-139 0 -255.5 65.5t-185.5 184t-69 264.5zM342 1192h621v303l-621 -301v-2z M469 762h297q-1 35 -5 67.5t-13.5 70.5t-30 61.5t-49.5 23.5q-55 0 -117 -74t-82 -149z" />
<glyph unicode="&#xea;" horiz-adv-x="1144" d="M123 502q0 165 73.5 288t196.5 184.5t277 61.5q172 0 300 -85t175 -236h-684q-6 -35 -6 -66q0 -162 101 -257t249 -95q122 0 215 70t121 180h2q14 -145 -51 -274.5t-188.5 -207t-270.5 -77.5q-139 0 -255.5 65.5t-185.5 184t-69 264.5zM350 1149v2l305 330h4l306 -330v-2 l-308 92zM469 762h297q-1 35 -5 67.5t-13.5 70.5t-30 61.5t-49.5 23.5q-55 0 -117 -74t-82 -149z" />
<glyph unicode="&#xeb;" horiz-adv-x="1144" d="M123 502q0 165 73.5 288t196.5 184.5t277 61.5q172 0 300 -85t175 -236h-684q-6 -35 -6 -66q0 -162 101 -257t249 -95q122 0 215 70t121 180h2q14 -145 -51 -274.5t-188.5 -207t-270.5 -77.5q-139 0 -255.5 65.5t-185.5 184t-69 264.5zM307 1335q0 67 48.5 115.5 t115.5 48.5t115.5 -48.5t48.5 -115.5t-48.5 -115.5t-115.5 -48.5t-115.5 48.5t-48.5 115.5zM469 762h297q-1 35 -5 67.5t-13.5 70.5t-30 61.5t-49.5 23.5q-55 0 -117 -74t-82 -149zM707 1335q0 68 48 116t115 48q68 0 116 -48.5t48 -115.5t-48 -115.5t-116 -48.5 q-67 0 -115 48t-48 116z" />
<glyph unicode="&#xec;" horiz-adv-x="688" d="M94 1192h621v2l-621 301v-303zM98 0v2l99 119v782l-99 119v2h488v-903l98 -119v-2h-586z" />
<glyph unicode="&#xed;" horiz-adv-x="688" d="M0 1192h621v303l-621 -301v-2zM51 0v2l99 119v782l-99 119v2h488v-903l98 -119v-2h-586z" />
<glyph unicode="&#xee;" horiz-adv-x="688" d="M53 1149v2l305 330h4l306 -330v-2l-308 92zM78 0v2l98 119v782l-98 119v2h487v-903l99 -119v-2h-586z" />
<glyph unicode="&#xef;" horiz-adv-x="688" d="M-45 1335q0 67 48.5 115.5t115.5 48.5t115.5 -48.5t48.5 -115.5t-48.5 -115.5t-115.5 -48.5t-115.5 48.5t-48.5 115.5zM29 0v2l98 119v782l-98 119v2h487v-903l98 -119v-2h-585zM354 1335q0 67 48 115.5t116 48.5t116 -48.5t48 -115.5t-48 -115.5t-116 -48.5t-116 48.5 t-48 115.5z" />
<glyph unicode="&#xf0;" horiz-adv-x="1208" d="M123 512q0 -151 73.5 -271.5t197.5 -186.5t274 -66q113 0 211.5 39.5t171.5 112.5t115 184t42 247q0 124 -24 230t-70.5 191.5t-106 153.5t-139.5 130l156 74l-18 39l-185 -86q-211 108 -532 108v-10q116 -23 200 -63.5t148 -120.5l-178 -84l18 -39l185 86 q41 -63 71 -148q-40 4 -65 4q-150 0 -274 -66t-197.5 -186.5t-73.5 -271.5zM514 512q0 210 44.5 348.5t109.5 138.5t109 -138t44 -349t-44 -349t-109 -138t-109.5 138.5t-44.5 348.5z" />
<glyph unicode="&#xf1;" d="M102 0v2l99 119v782l-99 119v2h488v-289q46 148 118 224.5t193 76.5t194.5 -83.5t73.5 -217.5v-614l99 -119v-2h-488v586q0 50 -29 78t-71 28q-65 0 -90 -55v-516l98 -119v-2h-586zM393 1192q-28 118 32 204.5t153 86.5q39 0 82 -19t75.5 -42.5t71.5 -42.5t70 -19 t58.5 7.5t51 31t27.5 59.5h2q22 -70 0.5 -138.5t-72.5 -110.5t-113 -42q-39 0 -82 19t-75.5 42.5t-71.5 42.5t-70 19t-58.5 -7.5t-51 -31t-27.5 -59.5h-2z" />
<glyph unicode="&#xf2;" horiz-adv-x="1212" d="M123 512q0 151 73.5 271.5t197.5 186.5t274 66t274 -66t197 -186.5t73 -271.5t-73 -271.5t-197 -186.5t-274 -66t-274 66t-197.5 186.5t-73.5 271.5zM367 1192h620v2l-620 301v-303zM514 512q0 -210 44.5 -348.5t109.5 -138.5t109 138t44 349t-44 349t-109 138 t-109.5 -138.5t-44.5 -348.5z" />
<glyph unicode="&#xf3;" horiz-adv-x="1212" d="M123 512q0 151 73.5 271.5t197.5 186.5t274 66t274 -66t197 -186.5t73 -271.5t-73 -271.5t-197 -186.5t-274 -66t-274 66t-197.5 186.5t-73.5 271.5zM342 1192h621v303l-621 -301v-2zM514 512q0 -210 44.5 -348.5t109.5 -138.5t109 138t44 349t-44 349t-109 138 t-109.5 -138.5t-44.5 -348.5z" />
<glyph unicode="&#xf4;" horiz-adv-x="1212" d="M123 512q0 151 73.5 271.5t197.5 186.5t274 66t274 -66t197 -186.5t73 -271.5t-73 -271.5t-197 -186.5t-274 -66t-274 66t-197.5 186.5t-73.5 271.5zM360 1149v2l306 330h4l305 -330v-2l-307 92zM514 512q0 -210 44.5 -348.5t109.5 -138.5t109 138t44 349t-44 349 t-109 138t-109.5 -138.5t-44.5 -348.5z" />
<glyph unicode="&#xf5;" horiz-adv-x="1212" d="M123 512q0 151 73.5 271.5t197.5 186.5t274 66t274 -66t197 -186.5t73 -271.5t-73 -271.5t-197 -186.5t-274 -66t-274 66t-197.5 186.5t-73.5 271.5zM354 1192q-28 118 32 204.5t153 86.5q39 0 82 -19t75.5 -42.5t71.5 -42.5t70 -19t58.5 7.5t51 31t27.5 59.5h2 q19 -75 0 -140t-70.5 -108t-113.5 -43q-39 0 -82 19t-75.5 42.5t-71.5 42.5t-70 19t-58.5 -7.5t-51.5 -31t-28 -59.5h-2zM514 512q0 -210 44.5 -348.5t109.5 -138.5t109 138t44 349t-44 349t-109 138t-109.5 -138.5t-44.5 -348.5z" />
<glyph unicode="&#xf6;" horiz-adv-x="1212" d="M123 512q0 151 73.5 271.5t197.5 186.5t274 66t274 -66t197 -186.5t73 -271.5t-73 -271.5t-197 -186.5t-274 -66t-274 66t-197.5 186.5t-73.5 271.5zM305 1335q0 67 48.5 115.5t115.5 48.5t115.5 -48.5t48.5 -115.5t-48.5 -115.5t-115.5 -48.5t-115.5 48.5t-48.5 115.5z M514 512q0 -210 44.5 -348.5t109.5 -138.5t109 138t44 349t-44 349t-109 138t-109.5 -138.5t-44.5 -348.5zM705 1335q0 68 48 116t115 48q68 0 116 -48.5t48 -115.5t-48 -115.5t-116 -48.5q-67 0 -115 48t-48 116z" />
<glyph unicode="&#xf7;" horiz-adv-x="1005" d="M164 463v65h842v-65h-842zM518 160q0 26 20 45.5t48 19.5q26 0 45.5 -19.5t19.5 -45.5q0 -28 -19.5 -48t-45.5 -20q-28 0 -48 20t-20 48zM518 834q0 26 20 45.5t48 19.5q26 0 45.5 -19.5t19.5 -45.5q0 -28 -19.5 -48t-45.5 -20q-28 0 -48 20t-20 48z" />
<glyph unicode="&#xf8;" horiz-adv-x="1212" d="M123 512q0 151 73.5 271.5t197.5 186.5t274 66q142 0 264 -61l82 131h55l-96 -154q110 -69 174.5 -184t64.5 -256q0 -151 -73 -271.5t-197 -186.5t-274 -66q-143 0 -265 61l-81 -131h-56l96 154q-110 69 -174.5 184t-64.5 256zM514 512q0 -89 10 -184l277 438 q-20 108 -55.5 170.5t-77.5 62.5q-65 0 -109.5 -138.5t-44.5 -348.5zM535 258q20 -108 55.5 -170.5t77.5 -62.5q65 0 109 138t44 349q0 89 -10 184z" />
<glyph unicode="&#xf9;" d="M82 1022v2h487v-586q0 -50 29.5 -78t71.5 -28q65 0 90 55v516l-98 119v2h487v-903l98 -119v-2h-487v289q-46 -148 -118 -224.5t-193 -76.5t-195 85t-74 220v610zM362 1192h621v2l-621 301v-303z" />
<glyph unicode="&#xfa;" d="M82 1022v2h487v-586q0 -50 29.5 -78t71.5 -28q65 0 90 55v516l-98 119v2h487v-903l98 -119v-2h-487v289q-46 -148 -118 -224.5t-193 -76.5t-195 85t-74 220v610zM311 1192h621v303l-621 -301v-2z" />
<glyph unicode="&#xfb;" d="M82 1022v2h487v-586q0 -50 29.5 -78t71.5 -28q65 0 90 55v516l-98 119v2h487v-903l98 -119v-2h-487v289q-46 -148 -118 -224.5t-193 -76.5t-195 85t-74 220v610zM352 1149v2l305 330h5l305 -330v-2l-308 92z" />
<glyph unicode="&#xfc;" d="M82 1022v2h487v-586q0 -50 29.5 -78t71.5 -28q65 0 90 55v516l-98 119v2h487v-903l98 -119v-2h-487v289q-46 -148 -118 -224.5t-193 -76.5t-195 85t-74 220v610zM287 1335q0 67 48.5 115.5t115.5 48.5t115 -48t48 -116t-48 -116t-115 -48t-115.5 48.5t-48.5 115.5z M686 1335q0 67 48 115.5t116 48.5t116 -48.5t48 -115.5t-48 -115.5t-116 -48.5t-116 48.5t-48 115.5z" />
<glyph unicode="&#xfd;" horiz-adv-x="1224" d="M41 1022v2h571v-2l-98 -119l281 -491l188 299l-186 311v2h428v-2l-74 -117l-590 -968q-11 -18 -31 -51q-63 -103 -94.5 -148.5t-85 -98.5t-115 -71.5t-149.5 -18.5v426q43 -16 95.5 -23.5t120 -5.5t141 30t137.5 81l-474 848zM350 1192h621v303l-621 -301v-2z" />
<glyph unicode="&#xfe;" horiz-adv-x="1247" d="M102 -494l99 119v1569l-99 109v2l486 174h2v-615q48 79 119 125.5t149 46.5q150 0 254.5 -150.5t104.5 -373.5t-104.5 -373.5t-254.5 -150.5q-78 0 -149 46.5t-119 125.5v-535l98 -119v-2h-586v2zM594 367q0 -93 30 -158.5t74 -65.5q36 0 57 28t32.5 110t11.5 231 t-11.5 231t-32.5 110t-57 28q-44 0 -74 -65.5t-30 -158.5v-290z" />
<glyph unicode="&#xff;" horiz-adv-x="1224" d="M41 1022v2h571v-2l-98 -119l281 -491l188 299l-186 311v2h428v-2l-74 -117l-590 -968q-11 -18 -31 -51q-63 -103 -94.5 -148.5t-85 -98.5t-115 -71.5t-149.5 -18.5v426q43 -16 95.5 -23.5t120 -5.5t141 30t137.5 81l-474 848zM307 1335q0 67 48.5 115.5t115.5 48.5 t115.5 -48.5t48.5 -115.5t-48.5 -115.5t-115.5 -48.5t-115.5 48.5t-48.5 115.5zM707 1335q0 68 48 116t115 48q68 0 116 -48.5t48 -115.5t-48 -115.5t-116 -48.5q-67 0 -115 48t-48 116z" />
<glyph unicode="&#x152;" horiz-adv-x="1871" d="M184 717q0 153 53.5 287.5t145 228t216.5 147.5t263 54h1010v-387h-260l-244 342h-113v-652h2l340 246h15v-524h-15l-340 250h-2v-664h113l244 342h260v-387h-1010q-138 0 -263 54t-216.5 147.5t-145 228t-53.5 287.5zM614 717q0 -190 34 -344t90.5 -239t123.5 -85h4 v1335h-4q-67 0 -123.5 -84.5t-90.5 -238.5t-34 -344z" />
<glyph unicode="&#x153;" horiz-adv-x="2070" d="M123 512q0 151 73.5 271.5t197.5 186.5t274 66q145 0 266 -62.5t194 -172.5q71 113 193.5 174t273.5 61q172 0 300.5 -85t175.5 -236h-685q-6 -35 -6 -66q0 -162 101.5 -257t249.5 -95q122 0 214.5 70t120.5 180h2q11 -108 -25 -211t-105 -179.5t-169 -122.5t-210 -46 q-134 0 -248.5 62.5t-184.5 170.5q-72 -109 -193 -171t-265 -62q-150 0 -274 66t-197.5 186.5t-73.5 271.5zM514 512q0 -210 44.5 -348.5t109.5 -138.5t109 138t44 349t-44 349t-109 138t-109.5 -138.5t-44.5 -348.5zM1395 762h297q-1 34 -5 67t-14 71t-30.5 61.5 t-49.5 23.5q-55 0 -116.5 -74t-81.5 -149z" />
<glyph unicode="&#x178;" horiz-adv-x="1378" d="M61 1432v2h670v-2l-129 -113l320 -739l215 452l-201 400v2h442v-2l-53 -113l-391 -834v-364l98 -119v-2h-590v2l99 119v364l-422 834zM397 1751q0 67 48.5 115.5t115.5 48.5t115.5 -48.5t48.5 -115.5t-48.5 -115.5t-115.5 -48.5t-115.5 48.5t-48.5 115.5zM797 1751 q0 67 48.5 115.5t115.5 48.5t115 -48t48 -116t-48 -116t-115 -48t-115.5 48.5t-48.5 115.5z" />
<glyph unicode="&#x2c6;" horiz-adv-x="819" d="M205 1102v2l305 330h4l305 -330v-2l-307 92z" />
<glyph unicode="&#x2dc;" horiz-adv-x="845" d="M182 1202q-28 118 32 204.5t153 86.5q39 0 82 -19t75.5 -42.5t71.5 -42.5t70 -19t58.5 7.5t51 31t27.5 59.5h2q19 -75 0 -139.5t-70.5 -107.5t-113.5 -43q-39 0 -82 19t-75.5 42t-71.5 42t-70 19t-58.5 -7.5t-51.5 -31t-28 -59.5h-2z" />
<glyph unicode="&#x2000;" horiz-adv-x="957" />
<glyph unicode="&#x2001;" horiz-adv-x="1915" />
<glyph unicode="&#x2002;" horiz-adv-x="957" />
<glyph unicode="&#x2003;" horiz-adv-x="1915" />
<glyph unicode="&#x2004;" horiz-adv-x="638" />
<glyph unicode="&#x2005;" horiz-adv-x="478" />
<glyph unicode="&#x2006;" horiz-adv-x="319" />
<glyph unicode="&#x2007;" horiz-adv-x="319" />
<glyph unicode="&#x2008;" horiz-adv-x="239" />
<glyph unicode="&#x2009;" horiz-adv-x="383" />
<glyph unicode="&#x200a;" horiz-adv-x="106" />
<glyph unicode="&#x2010;" horiz-adv-x="772" d="M123 471h649v43h-649v-43z" />
<glyph unicode="&#x2011;" horiz-adv-x="772" d="M123 471h649v43h-649v-43z" />
<glyph unicode="&#x2012;" horiz-adv-x="772" d="M123 471h649v43h-649v-43z" />
<glyph unicode="&#x2013;" horiz-adv-x="1013" d="M123 471h891v43h-891v-43z" />
<glyph unicode="&#x2014;" horiz-adv-x="1423" d="M123 471h1300v43h-1300v-43z" />
<glyph unicode="&#x2018;" horiz-adv-x="395" d="M-20 1075l301 621h2v-621h-303z" />
<glyph unicode="&#x2019;" horiz-adv-x="395" d="M205 993v621h303l-301 -621h-2z" />
<glyph unicode="&#x201a;" horiz-adv-x="395" d="M205 252h303l-301 -621h-2v621z" />
<glyph unicode="&#x201c;" horiz-adv-x="749" d="M-20 1075l301 621h2v-621h-303zM334 1075l301 621h2v-621h-303z" />
<glyph unicode="&#x201d;" horiz-adv-x="749" d="M205 993v621h303l-301 -621h-2zM559 993v621h303l-301 -621h-2z" />
<glyph unicode="&#x201e;" horiz-adv-x="749" d="M205 252h303l-301 -621h-2v621zM559 252h303l-301 -621h-2v621z" />
<glyph unicode="&#x2022;" horiz-adv-x="860" d="M123 559q0 152 108.5 260.5t260.5 108.5t260 -108.5t108 -260.5t-108 -260.5t-260 -108.5t-260.5 108.5t-108.5 260.5z" />
<glyph unicode="&#x2026;" horiz-adv-x="1490" d="M123 184q0 83 59 142t142 59t141.5 -59t58.5 -142t-58.5 -141.5t-141.5 -58.5t-142 58.5t-59 141.5zM606 184q0 83 59 142t142 59t142 -59t59 -142t-59 -141.5t-142 -58.5t-142 58.5t-59 141.5zM1090 184q0 83 58.5 142t141.5 59t142 -59t59 -142t-59 -141.5t-142 -58.5 t-141.5 58.5t-58.5 141.5z" />
<glyph unicode="&#x202f;" horiz-adv-x="383" />
<glyph unicode="&#x2039;" horiz-adv-x="745" d="M82 662l633 561h2l-338 -561l338 -562h-2z" />
<glyph unicode="&#x203a;" horiz-adv-x="745" d="M139 100l338 562l-338 561h2l633 -561l-633 -562h-2z" />
<glyph unicode="&#x205f;" horiz-adv-x="478" />
<glyph unicode="&#x20ac;" horiz-adv-x="1662" d="M225 592v43h160q-4 50 -4 72q0 30 4 92h-160v43h166q43 257 224.5 424.5t420.5 167.5h555v-387h-278l-238 339h-2q-161 -50 -254.5 -194.5t-93.5 -349.5h487v-43h-483q7 -61 16 -92q12 -37 27 -72h440v-43h-419q62 -117 171 -184.5t242 -67.5q160 0 297.5 102t186.5 260 h2q-1 -193 -85.5 -357.5t-235.5 -262.5t-335 -98q-122 0 -234 46.5t-196 127.5t-141.5 193.5t-75.5 240.5h-164z" />
<glyph unicode="&#x2122;" horiz-adv-x="1026" d="M123 1294v140h344v-140h-2l-94 127h-21v-362l27 -33v-2h-164v2l27 33v362h-23l-92 -127h-2zM469 1024v2l78 86v248l-39 72v2h141l135 -258l121 258h121v-2l-39 -72v-301l27 -33v-2h-166v2l26 33v282l-145 -317h-2l-168 315v-227l76 -86v-2h-166z" />
<glyph unicode="&#x25fc;" horiz-adv-x="1024" d="M0 0v1024h1024v-1024h-1024z" />
<glyph unicode="&#xfb01;" horiz-adv-x="1404" d="M20 977v47h160v156q0 113 80.5 183.5t200.5 70.5h860l-201 -295h-223v247h-436q-98 0 -166 -54t-68 -132q0 -87 60 -131.5t162 -44.5h817v-903l98 -119v-2h-586v2l99 119v782l-62 74h-246v-856l99 -119v-2h-586v2l98 119v856h-160z" />
</font>
</defs>
</svg>
