<?xml version="1.0" standalone="no"?>
<!DOCTYPE svg PUBLIC "-//W3C//DTD SVG 1.1//EN" "http://www.w3.org/Graphics/SVG/1.1/DTD/svg11.dtd" >
<svg xmlns="http://www.w3.org/2000/svg" xmlns:xlink="http://www.w3.org/1999/xlink" version="1.1">
<metadata></metadata>
<defs>
<font id="chomskyregular" horiz-adv-x="1525" >
<font-face units-per-em="2048" ascent="1638" descent="-410" />
<missing-glyph horiz-adv-x="307" />
<glyph unicode="&#xfb01;" horiz-adv-x="1189" d="M31 176l137 89v541q0 20 -2 30q-3 16 -12 28q-14 20 -37 31t-47 9v29l98 105v264l457 258l348 -210l-253 -142l-297 181v-121v-236h345l186 -2v-785l69 -69l88 59l49 -39l-294 -206l-197 176l-314 -166l-216 186l-79 -49zM423 245l116 -97l160 97v541q0 35 -3 52 q-4 25 -20 47q-16 23 -41 32l-9 3h-203v-675z" />
<glyph unicode="&#xfb02;" horiz-adv-x="1200" d="M31 176l137 89v542q0 20 -2 29q-3 16 -12 28q-14 20 -37 31t-47 9v29l98 105v264l457 258l187 -116l153 118h39v-1317l79 -79l59 50l29 -40l-255 -176l-216 186l-64 -40l1 -1l-11 -5l-5 -3l-266 -137l-216 186l-79 -49zM423 245l116 -97l54 29l136 88v655h-306v-675z M423 1032h306v108q0 20 -2 30q-3 16 -12 28q-11 16 -37 31q-33 20 -37 23l-218 137v-121v-236z" />
<glyph unicode="&#xfb03;" horiz-adv-x="1701" d="M31 176l137 89v541q0 20 -2 30q-3 16 -12 28q-14 20 -37 31t-47 9v29l98 105v264l457 258l256 -136l257 145l348 -209l-253 -142l-297 180v-366h344l186 -2v-785l69 -69l88 59l49 -39l-294 -206l-197 176l-325 -166l-216 150l-285 -150l-216 186l-79 -49zM423 245 l116 -97l131 80v578q0 66 5 114h-252v-675zM423 1032h258v222l-258 135v-121v-236zM935 245l106 -97l170 97v541q0 35 -3 52q-4 25 -20 47q-16 23 -41 32l-9 3h-202v-665h-1v-10z" />
<glyph unicode="&#xfb04;" horiz-adv-x="1701" d="M31 176l137 89v541q0 20 -2 30q-3 16 -12 28q-14 20 -37 31t-47 9v29l98 105v264l457 258l286 -152l244 150l161 -99l151 103h39v-1317l78 -79l59 50l30 -40l-255 -176l-216 186l-64 -40v-1l-10 -5l-5 -3l-267 -137l-216 150l-285 -150l-216 186l-79 -49zM423 245 l116 -97l131 80v578v114h-80h-84h-83v-675zM423 1032h101h146v229l-247 128v-121v-236zM924 243l117 -95l54 29l136 88v655h-307v-675v-2zM924 1032h307v139q0 20 -2 30q-3 16 -12 28q-10 15 -37 30q-38 22 -55 35l-144 90l-57 -36v-121v-195z" />
<glyph horiz-adv-x="0" />
<glyph horiz-adv-x="682" />
<glyph unicode=" "  horiz-adv-x="307" />
<glyph unicode="&#x09;" horiz-adv-x="307" />
<glyph unicode="&#xa0;" horiz-adv-x="307" />
<glyph unicode="!" horiz-adv-x="436" d="M31 1359v30l282 181h39l-88 -1136h-57l-95 774q-2 12 -3.5 35t-3.5 34q-4 24 -8 34q-6 16 -19 29q-19 19 -47 19zM34 165l184 184l188 -187l-185 -184z" />
<glyph unicode="&#x22;" horiz-adv-x="811" d="M31 1359v30l282 181h39l-88 -756h-57l-57 350q-10 66 -20 96q-9 28 -19 44q-15 24 -33 36q-20 14 -47 19zM461 1359v30l282 181h39l-88 -756h-57l-57 350q-11 72 -19 96q-8 25 -20 44q-15 24 -33 36q-20 14 -47 19z" />
<glyph unicode="#" horiz-adv-x="1427" d="M160 725h240v211h-234l-6 219h240v229h219v-229h211v217h219v-217h211v-219h-211v-211h211v-219h-211v-225h-219v225h-211v-225h-219v225h-234zM619 725h211v211h-211v-211z" />
<glyph unicode="$" horiz-adv-x="1337" d="M31 -61q-21 125 27 245q33 83 110 179q48 60 143 155q29 29 91 85l18 17l-286 187v412l321 241q65 49 104 63q3 1 9.5 3t9.5 3v121h57v-112q20 1 43 -2q32 -4 63 -15v129h58v-151q83 -37 108 -45q99 -32 179 -9q93 27 138 111q21 40 26 84v1l29 -1h2h27l-1 -28 q0 -52 -6 -86q-28 -159 -144 -306q-56 -71 -192 -191q79 -27 153 -66q76 -41 151 -103v-514l-470 -296v-163h-58v126l-33 -21q-34 37 -73 67v-172h-57v211q-53 31 -105 46q-71 22 -143 20q-107 -4 -172 -25q-25 -8 -42 -21q-13 -10 -22 -25q-10 -65 2 -124zM204 320 q82 59 183 79q95 18 191 3v281l-138 -123q-45 -40 -89 -83q-85 -83 -137 -145q-1 -2 -4.5 -6t-5.5 -6zM402 958l176 -120v422q-78 36 -137 77l-39 -18v-361zM635 391q27 -6 79 -24q9 -3 27 -11v473l-106 -95v-343zM635 811l106 95v300q-40 8 -72 19q-12 4 -34 12v-426z M799 331q79 -38 163 -104l39 19v471l-202 99v-485zM799 958l80 71q12 11 47.5 41.5t52 46t44 41.5t49 49.5t40.5 48.5q1 1 2.5 3.5t2.5 3.5q-57 -37 -120 -55q-89 -25 -198 -12v-238z" />
<glyph unicode="%" horiz-adv-x="1636" d="M4 1095q3 154 109 263q54 55 129 87t160 30q77 -1 149 -32.5t123 -83.5q98 -100 110 -247q11 -162 -89 -280q-52 -62 -128 -98q-78 -38 -165 -39q-85 -1 -165 33q-75 32 -131 93q-105 114 -102 274zM239 989q0 -47 4 -70q7 -43 23 -68q20 -33 54 -52q38 -22 76 -23 q41 -1 80 18q36 18 57 50q20 29 26 68q4 24 4 71v189q0 106 -25 153q-21 39 -56 60q-41 25 -86 23q-43 -1 -81 -26q-32 -21 -52 -59q-24 -46 -24 -148v-186zM338 13l811 1461h137l-805 -1461h-143zM864 419q3 154 109 263q54 55 129 87t160 30q77 -1 149 -32.5t123 -83.5 q98 -100 110 -247q12 -163 -89 -281q-52 -62 -128 -98t-165 -38q-85 -1 -165 33q-75 32 -131 93q-105 114 -102 274zM1099 313q0 -48 4 -71q7 -42 23 -67q21 -35 54 -53q36 -20 77 -22q40 -1 79 18q36 18 57 50q20 29 26 68q4 24 4 71v189q0 106 -25 153q-21 39 -56 60 q-39 24 -85 22q-45 -2 -81 -25q-34 -22 -53 -59q-24 -46 -24 -148v-186z" />
<glyph unicode="&#x26;" horiz-adv-x="1511" d="M18 355q-15 98 15 191q29 89 101 164q41 43 150 121q10 7 30.5 22t30.5 23l-104 132q-60 75 -73 133q-17 76 22 148q31 58 101 114q48 38 127 85q100 60 172 66q71 5 126 -31q58 -38 80 -103q8 -25 10 -56q3 -61 -27 -127q-24 -53 -67 -111q-49 -64 -115 -135 q100 -136 176 -235l225 222h441l53 49l26 -30l-284 -279h-2q-101 -188 -184 -306q100 -121 254 -296q68 -78 103 -116h-369l-160 202q-44 -44 -78 -73q-91 -78 -187 -116q-107 -42 -216 -29q-93 10 -174 62q-78 49 -132 130q-56 84 -71 179zM265 496q-6 -67 23 -134 q27 -62 83 -106q81 -63 191 -63q96 0 196 55q33 19 55 35l-399 505q-30 -38 -44 -57q-95 -131 -105 -235zM391 1314q1 -23 13 -48q9 -19 26 -43q63 -90 121 -169q3 4 10 12.5t11 13.5q47 62 62 123q18 75 -9 136q-27 60 -82 79q-30 11 -58 7q-32 -5 -53 -22q-20 -15 -31 -39 q-11 -25 -10 -50zM803 718q87 -111 195 -244q5 6 46 64q68 100 115 180h-356z" />
<glyph unicode="'" horiz-adv-x="380" d="M31 1359v30l282 181h39l-88 -756h-57l-57 350q-10 66 -20 96q-9 28 -19 44q-15 24 -33 36q-20 14 -47 19z" />
<glyph unicode="(" horiz-adv-x="653" d="M25 774q0 -286 156 -520q159 -238 418 -347l21 34q-155 118 -251 288q-143 253 -137 567q6 288 140 523q95 167 250 287l-20 34q-262 -110 -420 -346q-157 -236 -157 -520z" />
<glyph unicode=")" horiz-adv-x="653" d="M25 1606l20 34q262 -110 420 -346q157 -236 157 -520q0 -286 -156 -520q-159 -238 -418 -347l-21 34q155 118 251 288q143 253 137 567q-6 288 -140 523q-95 167 -250 287z" />
<glyph unicode="*" horiz-adv-x="811" d="M43 1315l6 19l330 -151l-25 154q-7 40 -10 48q-2 8 -10 22q-6 11 -16 18q-12 8 -24 10v14l141 91h20l-42 -360l139 72q35 18 43 23q9 7 18 17q10 12 12 21q4 10 2 25l14 5l130 -106l6 -19l-356 -71l111 -110l15.5 -15.5t20.5 -18.5q9 -7 21 -12q13 -5 24 -5q13 0 25 6 l8 -11l-60 -157l-16 -11l-178 316l-70 -140q-1 -3 -9.5 -19t-11.5 -25q-3 -8 -5 -24q-2 -12 3 -24q5 -14 13 -22l-8 -12l-168 10l-16 11l246 267l-155 24q-40 5 -48 5q-16 0 -24 -2q-14 -3 -23 -10t-16 -20l-14 5zM389 1156l5 -3l5 3l-2 6h-6z" />
<glyph unicode="+" horiz-adv-x="1175" d="M70 641l199 219h220v246l220 199v-445h418l-199 -219h-219v-235l-220 -199v434h-419z" />
<glyph unicode="," horiz-adv-x="483" d="M31 169l277 182q71 -44 111 -111q44 -75 41 -159q-3 -67 -38 -131q-32 -59 -82 -110q-78 -81 -190 -155l-14 21q49 25 84 70t48 99q20 86 -7 168q-15 44 -40 75q-31 38 -71 44q-15 2 -35 -3q-10 -3 -32 -16l-26 -17z" />
<glyph unicode="-" horiz-adv-x="1011" d="M31 656l250 280h625l47 49l30 -29l-251 -280h-622l-50 -49z" />
<glyph unicode="." horiz-adv-x="432" d="M31 165l184 184l187 -187l-184 -184z" />
<glyph unicode="/" horiz-adv-x="854" d="M-13 -88l234 -1l663 1711h-237z" />
<glyph unicode="0" horiz-adv-x="1224" d="M31 717q-5 295 137 502q79 115 191 180q119 69 252 69q134 0 253 -68q113 -65 192 -180q143 -209 138 -503q-5 -283 -149 -482q-80 -110 -189 -170q-117 -64 -245 -64q-129 0 -244 65q-110 62 -188 170q-143 197 -148 481zM363 394q0 -67 9 -105q12 -52 47 -93 q34 -40 84 -62q48 -21 102 -24q61 -3 110 12q55 17 94 58t53 96q10 40 8 110l-12 677q-2 77 -10 114q-13 61 -45 104q-34 45 -87 72q-50 25 -111 25q-58 0 -108 -26t-84 -72q-32 -44 -43 -102q-7 -37 -7 -111v-673z" />
<glyph unicode="1" horiz-adv-x="614" d="M82 1231l2 74l418 176v-1477h-332v1055q0 64 -16 101q-22 51 -72 71z" />
<glyph unicode="2" horiz-adv-x="1165" d="M16 1082q1 89 60 174q51 75 135 127q154 98 354 103q176 5 309 -73q70 -41 121.5 -105.5t71.5 -140.5q24 -87 3 -182q-19 -86 -77 -167q-89 -123 -287 -226q-57 -30 -164 -79.5t-150 -71.5q-129 -65 -249 -144h750q71 0 109 12q56 18 92 61l42 -21l-166 -346l-939 -3v295 q123 156 304 283q25 18 83 56.5t100 69t78 62.5q102 90 140 186q31 78 25 151q-6 78 -50 145q-42 65 -114 101q-71 36 -150 31q-94 -5 -170 -62q-77 -58 -107 -146q67 14 121 -27t59 -110q5 -67 -41 -114q-46 -48 -113 -48q-80 0 -133 66q-49 61 -47 143z" />
<glyph unicode="3" horiz-adv-x="1064" d="M61 305q-3 84 46 144q54 65 135 65q65 0 111 -48q47 -48 42 -114q-5 -69 -58 -110q-54 -42 -122 -27q36 -85 117 -127q82 -43 172 -27q109 19 184 114q70 88 76 204q4 68 -18 133t-68 112q-70 71 -170 84q-111 13 -202 -53l-65 47l586 483h-736l54 279h844l-34 -276 l-287 -236q160 -2 276 -110q106 -100 128 -248q21 -142 -44 -277q-73 -149 -227 -239q-149 -87 -320 -87q-158 0 -274 77q-65 44 -101 101q-42 66 -45 136z" />
<glyph unicode="4" horiz-adv-x="1277" d="M31 458v167l803 860h170v-797q29 3 62 11q81 20 141 73l41 -21l-80 -293h-164v-499h-332v499h-641zM209 684h463v510z" />
<glyph unicode="5" horiz-adv-x="1050" d="M31 244q-3 83 46 143q54 66 134 66q66 0 112 -48q47 -48 42 -114q-5 -69 -59 -110q-54 -42 -122 -27q36 -84 118 -127q82 -42 171 -27q111 20 185 113q69 87 75 204q3 68 -19.5 132.5t-66.5 112.5q-63 67 -158 99q-80 27 -186 30q-73 3 -159 -7l141 795h501q72 0 110 15 q55 22 82 72l42 -20l-171 -364h-551l-37 -195q89 3 165 -5q137 -15 245 -59q124 -51 208 -142q66 -72 99 -164.5t26 -188.5q-7 -100 -55 -193t-126 -161q-161 -140 -372 -145q-158 -3 -275 76q-63 43 -101 102q-41 65 -44 137z" />
<glyph unicode="6" horiz-adv-x="1175" d="M22 670q6 182 78 362q60 149 149 246q102 111 238 159q174 60 354 20q55 -12 107 -38q53 -27 88 -70q39 -48 43 -104q5 -59 -31 -106q-24 -30 -53 -43q-35 -15 -67 -12q-45 3 -81 34q-35 30 -44 75q-9 46 10 86q20 41 60 63q-102 63 -220 31q-81 -22 -145 -88 q-59 -60 -93 -143q-42 -102 -42 -215q86 50 188 64t198 -10q97 -24 180 -84.5t135 -145.5q66 -107 72 -233q6 -128 -49 -238q-72 -145 -220 -222q-142 -74 -306 -60q-150 12 -276 95q-123 81 -195 217q-84 160 -78 360zM348 464q5 -128 55 -214q30 -50 73 -82 q45 -33 102 -41q61 -8 119 19q52 24 93 76q67 86 81 225q16 162 -45 273q-35 65 -94 102q-62 39 -134 34q-62 -4 -119 -45q-50 -35 -82 -97q-54 -103 -49 -250z" />
<glyph unicode="7" horiz-adv-x="1120" d="M28 1069l103 399h958q-6 -14 -19 -42t-19 -42q-306 -687 -601 -1385l-123 1l497 1136h-582q-65 0 -102 -16q-51 -22 -71 -72z" />
<glyph unicode="8" horiz-adv-x="1200" d="M31 399q-3 73 25.5 143.5t79.5 125.5q86 92 225 141q-54 18 -96 44q-83 51 -124 124q-46 82 -39 170q7 80 58 150q47 64 122 105q127 70 315 73q189 4 316 -58q78 -38 127 -99q54 -67 66 -146q14 -90 -31 -176q-41 -79 -123 -132q-45 -29 -92 -47q144 -48 229 -154 q52 -64 73 -143t6 -160q-18 -88 -78 -163q-56 -69 -141 -115q-148 -80 -353 -82q-219 -2 -369 88q-87 52 -138 131q-55 85 -58 180zM339 476q-8 -126 54 -224q33 -52 82 -83q52 -33 110 -36q62 -3 116 24q55 27 92 77q71 92 69 226q-2 132 -76 222q-38 47 -94 72 q-40 18 -84 20h-3h-17q-2 0 -6.5 -0.5t-6.5 -0.5q-52 -6 -97 -34q-43 -27 -74 -70q-59 -82 -65 -193zM386 1150q-11 -106 39 -188q25 -41 68 -70q40 -27 91 -30q52 -3 101 24q46 25 76 71q57 88 42 202q-12 89 -63 148q-27 32 -64 50q-38 19 -79 19q-42 0 -82 -19t-67 -52 q-52 -60 -62 -155z" />
<glyph unicode="9" horiz-adv-x="1189" d="M42 942.5q-8 120.5 38 228.5q65 153 211 238q144 83 311 71q151 -11 281 -100q124 -85 195 -227q78 -154 76 -349q-1 -177 -67 -352q-56 -148 -145 -248q-100 -112 -237 -162q-170 -62 -354 -24q-62 13 -107 36q-54 27 -89 69q-38 46 -44 103q-6 60 30 107q23 29 52 43 q31 15 67 13q46 -3 81 -32q36 -29 45 -75q9 -45 -9 -86q-19 -42 -59 -64q54 -28 117 -32t120 18q75 28 133 94q50 57 83 141q31 79 37 168q-89 -47 -190.5 -57.5t-198.5 16.5t-178.5 90t-131.5 150q-59 102 -67 222.5zM308 988q2 -155 72 -257q42 -60 100 -89 q63 -32 132 -21q61 9 110 50q46 38 73 98q46 101 36 240q-10 133 -67 222q-34 53 -81 83q-50 32 -110 35q-62 3 -120 -31q-52 -30 -88 -89q-59 -95 -57 -241z" />
<glyph unicode=":" horiz-adv-x="432" d="M31 165l184 184l187 -187l-184 -184zM31 861l184 184l187 -187l-184 -184z" />
<glyph unicode=";" horiz-adv-x="483" d="M8 738l184 184l187 -187l-184 -184zM31 169l277 182q71 -44 111 -111q44 -75 41 -159q-3 -67 -38 -131q-32 -59 -82 -110q-78 -81 -190 -155l-14 21q49 25 84 70t48 99q20 86 -7 168q-15 44 -40 75q-31 38 -71 44q-15 2 -35 -3q-10 -3 -32 -16l-26 -17z" />
<glyph unicode="&#x3c;" horiz-adv-x="870" d="M51 555l583 -316l-35 -76l41 -20l161 308l-624 324v17l624 324l-161 309l-41 -21l35 -76l-583 -316q40 -112 40 -228q0 -117 -40 -229z" />
<glyph unicode="=" horiz-adv-x="1427" d="M136 457l198 219h981l-198 -219h-981zM136 887l198 219h981l-198 -219h-981z" />
<glyph unicode="&#x3e;" horiz-adv-x="870" d="M51 451l625 324v17l-625 324l162 309l41 -21l-35 -76l582 -316q-39 -110 -39 -228q0 -120 39 -229l-582 -316l35 -76l-41 -20z" />
<glyph unicode="?" horiz-adv-x="653" d="M-2 165l184 184l187 -187l-184 -184zM0 1312l162 308l41 -21l-35 -75l459 -316q-60 -107 -80 -229q-21 -126 6 -252l-182 -74q-58 -25 -76 -35q-37 -22 -64 -53q-60 -68 -47 -155l-53 -2l-41 387l412 192z" />
<glyph unicode="@" horiz-adv-x="1546" d="M-50 512q0 167 65.5 319.5t176 263t264 175.5t321.5 65t321.5 -65.5t264.5 -175.5t176.5 -262.5t65.5 -319.5t-65.5 -319.5t-176.5 -262.5t-264.5 -175.5t-321.5 -65.5t-321.5 65t-264 175.5t-176 263t-65.5 319.5zM-9 512q0 -159 62.5 -304t167.5 -249.5t250.5 -166.5 t305.5 -62t305.5 62t250.5 166.5t167.5 249.5t62.5 304t-62.5 304t-167.5 249.5t-250.5 166.5t-305.5 62t-305.5 -62t-250.5 -166.5t-167.5 -249.5t-62.5 -304zM289 548q20 106 95 204q65 85 170 148q146 86 320 98l183 -86l77 62l36 -45l-87 -70v-533l99 -98l88 59l10 -40 l-285 -195l-157 156l-216 -157q-127 25 -219 118q-74 75 -104 175t-10 204zM536 540q9 -121 57 -198q27 -44 71 -75q43 -31 96 -37q38 -3 68 5v707q-111 3 -190 -74q-59 -58 -86 -153q-22 -80 -16 -175z" />
<glyph unicode="A" d="M31 -20q55 148 178 248q39 31 87 58l225 373q-71 33 -132 95q-80 83 -109 197q-14 56 -14 111.5t14 111.5q27 110 101 198q71 85 174 136.5t216 61.5q28 3 56 2q81 0 163 -21q110 -29 201 -91l126 121l45 -37l-36 -39q-29 -40 -40 -89q-8 -37 -8 -97v-64v-689v-51 q0 -123 9 -163q18 -81 79 -129l70 57l59 -67l-272 -220q-57 37 -115 87q-68 58 -131 132l-229 -198q-68 58 -152 89q-82 30 -167 30h-5q-99 -1 -192.5 -41t-161.5 -112h-39zM382 1059q-4 -28 -4 -56q0 -42 10 -83q33 -141 152 -229l390 646q-77 33 -158 34h-13 q-98 0 -183 -44q-93 -48 -147 -137q-37 -60 -47 -131zM389 326q50 17 100 24q41 6 81 6q64 0 128 -14q105 -24 193 -82l123 104v191h-487zM654 766h360v525q-20 14 -31 20z" />
<glyph unicode="B" horiz-adv-x="1650" d="M36 805q11 48 41 86q31 39 74 58q44 21 130 32v53q0 37 5 62q6 32 24 57q23 35 94 79q29 19 87 55t87 55q-28 -3 -60 2q-30 3 -124 31q-49 14 -90 14q-19 0 -37 -3q-40 -8 -68 -30q-29 -23 -40 -57h-48q56 137 184 209q78 45 164 46h6q53 0 130 -17q90 -20 136 -22h16 q52 0 105 16q36 11 76 34l-12 -46l-303 -237q-22 -18 -32 -29q-15 -17 -24 -36q-12 -29 -12 -86v-300v-208q0 -77 -11 -120q-15 -57 -50 -108q-52 -75 -133 -126t-176 -74l-19 49q36 20 65 57q45 58 55 150q5 45 5 162v139h-62q-26 0 -38 -2q-16 -3 -35 -13q-33 -20 -43 -59 q-6 -22 -2 -44h-39q-32 57 -32 118q0 26 6 53zM65 -66q83 145 221.5 247t300.5 137q15 21 31 55q14 33 20 66q5 29 5 69v640q119 153 274 263q160 115 348 177l331 -389l-255 -179q68 -25 128 -57q79 -42 152 -103v-514l-684 -354q-195 101 -395 101q-35 0 -71 -3 q-111 -10 -202 -51q-84 -39 -154 -105h-50zM692 333q23 1 47 1q121 0 231 -39q5 -2 14.5 -5.5t11.5 -4.5v1118q-28 -22 -46 -50q-31 -47 -35 -99v-421v-115q0 -57 -6 -94q-8 -51 -29 -90q-32 -62 -123 -143q-11 -10 -32.5 -29t-32.5 -29zM1054 258q72 -38 131 -90l168 78 v226l-299 -151v-63zM1054 387l299 151v149l-299 -151v-149zM1054 602l270 136q-45 31 -94 59q-85 47 -176 79v-274zM1054 891l273 203l-273 321v-524z" />
<glyph unicode="C" horiz-adv-x="1386" d="M31 733q8 254 163 461q153 204 395 286l20 -29q-137 -71 -221 -206l541 330q95 -70 210 -123q66 -29 137 -52l64 53l17 -20l-243 -254q-113 45 -220 104q-5 3 -15 8.5t-15 8.5v-1101q127 18 231 92q109 76 172 201h39q-6 -112 -54 -211q-67 -137 -198 -223 q-125 -82 -284 -93q-21 -1 -43 -1q-126 0 -248 50q-143 59 -246 170q-101 110 -154 254q-48 132 -48 269v26zM285 900q-3 -42 -3 -82q0 -103 20 -196q12 -57 35 -112l112 48v655l-110 -67q-42 -107 -54 -246zM360 461q30 -55 58 -89q81 -98 193 -143q82 -34 183 -34h11v1140 q-41 26 -76 49l-16 -10v-765z" />
<glyph unicode="D" horiz-adv-x="1529" d="M31 -65q66 125 177 217.5t245 134.5q68 68 105 113q40 51 54 91q14 39 14 105v209v160q0 123 25 191q23 62 67 110h-66q-58 -51 -79 -99q-20 -47 -20 -129v-159v-209q0 -76 -11 -119q-15 -59 -50 -109q-52 -75 -133 -126t-176 -74l-19 49q36 20 65 57q45 58 55 150 q5 45 5 162v6h-50q-19 0 -37 -3q-19 -3 -35 -12q-33 -19 -43 -60q-6 -22 -2 -44h-39q-32 58 -32 119q0 26 6 53q11 47 41 85q31 39 74 58q43 20 117 31v51q0 39 5 66q6 34 24 62q26 41 98 88l162 106h-285q-35 0 -56 7q-26 9 -46 32q-23 27 -35 70q-9 33 -11 78v7 q0 69 20 149l44 -2q4 -24 20 -44q14 -19 36 -31q18 -11 46 -14q16 -2 48 -2h560q160 0 251 -38q117 -49 197 -159q117 -164 131 -418q2 -34 2 -69q0 -175 -51 -353q-29 -104 -84 -217l-512 -281q-152 108 -339 113h-15q-109 0 -213 -39q-112 -42 -197 -120h-58zM556 311 q54 8 109 8q63 0 126 -11v946q-60 -46 -86 -117q-21 -57 -21 -172l-1 -160v-209q0 -77 -17 -125q-19 -51 -64 -107q-30 -36 -46 -53zM849 295q145 -37 258 -125q63 160 92 329q23 138 23 253l-373 -189v-268zM849 629l372 188q0 4 -0.5 11.5t-0.5 11.5q-5 69 -17 124 l-354 -178v-157zM849 851l338 171q-28 84 -77 140q-52 59 -124 85q-56 19 -137 19v-415z" />
<glyph unicode="E" horiz-adv-x="1386" d="M31 733q5 256 159 463q152 204 399 284l20 -29q-136 -70 -221 -207l541 331q95 -70 210 -123q66 -29 137 -52l64 53l17 -20l-244 -254q-109 44 -219 104q-5 3 -15.5 8.5t-15.5 8.5v-358h478l-250 -260h-228v-483q129 17 241 91q114 76 183 202h39q-4 -109 -54 -211 q-71 -144 -207 -227q-135 -83 -295 -89q-13 -1 -27 -1q-134 0 -262 56q-141 60 -244 170q-101 108 -155 250q-51 135 -51 277v16zM285 900q-4 -46 -4 -89q0 -98 20 -189q12 -57 35 -112l113 48v655l-110 -67q-42 -107 -54 -246zM359 460q29 -53 59 -88q79 -97 193 -142 q88 -35 184 -36q5 0 10 1v1140q-41 26 -76 49l-16 -10v-765z" />
<glyph unicode="F" horiz-adv-x="1566" d="M39 -29q20 70 79 117q58 45 147 57q57 82 67 212q4 56 4 125q0 20 -0.5 60.5t-0.5 60.5v146h-95q-25 0 -38 -2q-18 -3 -36 -14q-33 -22 -42 -61q-6 -28 -2 -53h-39q-30 55 -30 121q0 22 5 47q9 51 39 89q32 41 75 62q14 7 29.5 12t34 9t30.5 6.5t35 6t32 4.5q1 0 1 0.5 t1 0.5v50q0 43 6 63q8 28 29 55q9 12 21 24.5t20.5 21.5t24 23t22.5 21q73 72 158 138q-41 -11 -79 -11q-12 0 -32 2q-32 4 -137 39q-60 20 -103 20q-21 0 -37 -4q-37 -8 -66 -32q-30 -25 -42 -60h-48q58 145 183 220q77 46 165 48h6q53 0 143 -23q98 -26 149 -28h16 q56 0 105 16q42 14 77 36l-3 -54q-70 -46 -105 -68q-74 -48 -102 -74q-47 -42 -73 -101q-33 -72 -33 -195l-1 -290v-388q0 -59 -15 -92q-18 -40 -60 -72q-30 -23 -92 -55t-85 -47l-18 -12q54 -1 158 -15q56 -8 168 -20q26 17 37 46q8 22 8 60v1036l397 351q98 -67 210 -116 q65 -27 108 -41l65 60l57 -43l-251 -248q-90 27 -158 60q-78 37 -140 81v-375h410l-233 -239h-177v-292q-152 -221 -335 -401q-31 -31 -93 -87q-55 -48 -74 -59q-22 -13 -44 -17q-20 -4 -47 -4l-121 -2q-18 0 -26 -2q-18 -4 -24 -9q-9 -6 -18 -19q-8 -11 -9 -24 q-3 -20 3 -40q6 -18 20 -34q30 -33 69 -39v-53h-7q-78 0 -142 44q-69 47 -96 123q-14 39 -14 78q0 31 9 63z" />
<glyph unicode="G" horiz-adv-x="1484" d="M31 690q4 130 53.5 253t135.5 222q97 112 231 182.5t282 87.5l200 159q98 -79 208 -135q75 -39 152 -65l67 66l41 -41l-340 -337q100 -21 185 -82t138 -149q56 -94 68 -207q3 -30 3 -60q0 -81 -24 -157q-58 -189 -230 -321q-146 -112 -331 -144q-65 -11 -130 -11 q-117 0 -230 37q-108 36 -200.5 106t-156.5 164q-123 182 -123 402q0 15 1 30zM314 868q1 -141 28 -291q14 -80 36 -154q15 15 28 36q26 43 37 114q6 40 6 120v583q-60 -57 -91 -129q-44 -103 -44 -265v-14zM413 327q3 -5 7 -15t7 -15q70 -141 189 -213q97 -58 206 -58v819 l-109 -108v-35q0 -86 -16 -136q-21 -65 -71 -117q-63 -66 -154 -102q-31 -13 -59 -20zM713 820l371 367q-102 47 -190 99q-77 46 -163 107h-3q-3 -1 -8 -1t-7 -1v-407v-164zM881 31l12 3q134 28 217 136q80 104 83 243v27l-312 -158v-251zM881 348l305 154q-12 64 -43 127 l-262 -132v-149zM881 563l233 117q-11 18 -27 37q-84 102 -206 148v-302z" />
<glyph unicode="H" horiz-adv-x="1538" d="M31 -71q49 100 133.5 175.5t189.5 112.5q94 33 189 33q94 0 189 -32v1159q-18 -20 -35 -44q-25 -35 -39 -79q-19 -59 -19 -175v-159v-297q0 -53 -5 -89q-7 -48 -25 -86q-35 -77 -119 -130q-99 -64 -227 -75v51q43 23 66 56q25 34 37 82q9 39 11 89v31q-1 28 -1 64 q-2 62 -1 85v6h-50q-20 0 -38 -3q-19 -3 -35 -12q-33 -19 -43 -60q-6 -20 -1 -44h-40q-31 56 -31 117q0 27 6 55q11 49 40 85q30 38 75 58q43 20 117 31v51q0 79 18 123q21 52 78 98q20 16 58.5 42.5t52.5 36.5q45 33 98 94l52 60h59v-497h281v369l-55 52l-70 -54l-2 57 l238 193l155 -127l60 49l36 -45l-77 -63v-1109l58 -65l64 54l29 -30l-271 -230l-198 181l-50 -38l-23 30l105 82l1 454h-281v-508q11 -5 33 -17l-204 -195q-98 68 -216 73h-18q-77 1 -151 -29q-83 -34 -142 -97h-62zM46 1283q22 64 51 109q45 71 102 107q46 29 100 40 q35 7 78 7q14 0 29 -1q22 -2 61.5 -7t55.5 -7q27 -3 53 -3q34 0 65 5q57 9 108 40l39 -20q-4 -4 -12 -12.5t-12 -13.5q-77 -86 -117 -118q-72 -59 -147 -74q-28 -6 -64 -6q-25 0 -53 3q-13 1 -53.5 7t-62.5 7q-32 2 -55 -2q-42 -7 -73 -26q-34 -22 -54 -55z" />
<glyph unicode="I" horiz-adv-x="1218" d="M32 68q-2 -16 -2 -32q0 -34 10 -66q22 -73 81 -121t135 -54v33q-40 0 -67 24q-30 27 -33 62q-2 22 5 38q7 18 25 29q18 12 36 13q17 1 38 -2l189 -25q50 -7 83 -7q17 0 29 2q29 3 54 15q26 12 49 29q152 111 272 252q89 104 158 221v850q0 82 16 125q23 62 78 97l-31 34 l-120 -80q-42 -29 -69 -49t-59 -51.5t-52 -64.5q-31 -49 -44 -114q-8 -40 -8 -123v-857q0 -49 -11 -74q-16 -36 -50 -53q-50 13 -119 40q-25 10 -91.5 39.5t-103.5 42.5q-81 29 -150 29q-30 0 -57 -5q-104 -21 -158 -106q-27 -41 -33 -91zM132 1305q54 134 159 218 q83 67 183 76q12 1 26 1q56 0 125 -17q118 -29 149 -32q14 -1 28 -1q52 0 100 17q43 16 79 49l-3 -54q-34 -51 -80 -88q-14 -12 -48 -36.5t-51 -39.5q-49 -42 -75 -99q-34 -74 -34 -195v-290v-158q0 -46 -5 -80q-6 -42 -25 -77q-32 -62 -113 -113q-76 -48 -180 -79h-68 q56 30 89 88q25 42 33 101q5 35 5 107v146h-75q-25 0 -38 -2q-18 -3 -36 -14q-33 -22 -42 -61q-6 -25 -1 -53h-39q-31 57 -31 121q0 22 5 47q9 51 39 89q30 39 76 61q41 19 142 36v54q0 46 5 68q8 37 25 63q24 38 97 93q71 54 164 130q-68 -22 -135 -23h-9q-52 0 -121 11 q-100 16 -128 17q-50 0 -81 -15q-46 -21 -63 -66h-48z" />
<glyph unicode="J" horiz-adv-x="1218" d="M33 147q-2 -16 -2 -32q0 -73 44 -140q48 -73 136 -117q104 -53 233 -53q58 0 121 11q153 25 275 107q151 101 216 270q48 125 48 346v606q0 133 14 205q20 105 72 192l-26 26q-28 -22 -42 -32q-6 -5 -43.5 -32t-50 -37t-39.5 -32t-45 -42t-33 -42q-53 -75 -69 -180 q-9 -58 -9 -194v-665q0 -128 -26 -200q-34 -96 -117 -164q-72 -60 -158 -82q-46 -12 -90 -12t-87 12q-64 17 -116 61t-80 104q32 -15 63 -15q39 0 76 23q31 19 50 52q17 30 19 70v5q0 61 -45 106q-46 44 -112 44q-67 0 -120 -51q-47 -46 -57 -118zM87 1362q19 109 112 175 q77 54 184 54h18q54 -2 188 -32q109 -24 174 -24h14q114 6 199 72l46 -42q-103 -77 -156 -127q-68 -64 -95 -128q-26 -61 -26 -157v-883q0 -79 -18 -128q-21 -57 -74 -105q-101 -93 -276 -133v67q37 11 63 36q19 18 28 43q7 20 7 52v573h-51q-25 0 -37 -2q-18 -3 -36 -13 q-33 -20 -43 -59q-6 -21 -1 -45h-39q-32 58 -32 119q0 26 6 53q11 49 40 85q32 40 75 59q41 19 118 30v83q0 55 9 85q10 35 40 75q25 32 61 65.5t62 54t72 53.5q-55 -11 -114 -11q-14 0 -28 1q-16 1 -102 10q-54 5 -92 5q-23 0 -40 -2q-56 -7 -93 -33q-45 -32 -54 -82 q-1 -9 -1 -18q0 -29 14 -54q20 -34 57 -46l-8 -17q-91 31 -139 114q-36 61 -36 130q0 23 4 47z" />
<glyph unicode="K" horiz-adv-x="1605" d="M31 1284q77 142 158 218q43 39 84 58q42 19 91 19h9q42 -1 109 -24q74 -25 108 -30q18 -2 36 -2q27 0 53 5q59 13 106 46l-3 -31q-2 -2 -5.5 -5t-5.5 -4q-38 -29 -64 -60q-69 -78 -106 -172q-33 -84 -33 -219v-227v-158q0 -62 -5 -92q-8 -49 -28 -87q-38 -75 -124 -134 q-75 -51 -166 -86h-68q41 20 70 55q36 44 49 109q8 39 8 120v171h-55q-22 0 -33 -2q-19 -3 -32 -10q-32 -16 -44 -48q-12 -29 -6 -59h-39q-26 59 -26 119q0 27 5 55q10 54 38 90q32 42 76 61q43 19 117 21q2 85 22 143q19 51 51 91q22 27 76 73l84 71q-30 -15 -58 -22 q-26 -7 -57 -7q-36 0 -78 10q-14 3 -41.5 11t-49.5 13t-42 6q-9 1 -17 1q-38 0 -64 -16q-43 -24 -52 -71h-48zM51 -46q31 63 81 126q112 139 273 204q61 39 117 84q67 56 98 117q17 35 23 70q4 25 6 78l10 487q2 117 26 188q30 88 96 167q59 71 142 128l17 -24l16 -24 q-80 -57 -131 -117q-59 -70 -85 -148q-22 -65 -24 -171l-7 -350l418 485q-104 5 -191 61l-79 -87l-29 30l252 301q50 -57 119 -76q31 -9 60 -9q46 0 87 22q56 31 75 94l28 -1q4 -25 4 -50q0 -65 -30 -124q-41 -81 -125 -125q-51 -26 -112 -34l-266 -307q81 -25 146 -72 q75 -53 125 -131q45 -69 73 -166q9 -30 22 -87t16 -69q22 -89 59 -148q30 -49 75 -88l140 109v-63l-313 -248q-66 32 -114 90q-44 54 -72 131l-283 -223q-112 88 -249 118q-60 13 -114 13q-27 0 -53 -3q-90 -11 -158 -54q-66 -41 -106 -104h-63zM558 324q12 2 38 4 q19 1 38 1q92 0 180 -28q108 -34 193 -104l59 46q-12 40 -30 122q-27 118 -57 180q-45 91 -119 145q-55 40 -118 53l-26 -30h-8l-2 -81q-2 -56 -7 -86q-9 -51 -27 -87q-33 -68 -113 -135h-1z" />
<glyph unicode="L" horiz-adv-x="1406" d="M31 1284q66 140 158 218q42 36 85 55q45 20 99 22h5q50 0 119 -19q92 -25 123 -29q18 -2 34 -2q50 0 94 18q42 16 78 49l-3 -55q-45 -53 -99 -96q-23 -19 -53 -39q-22 -18 -32 -28q-34 -31 -55 -78q-36 -84 -36 -217v-289v-158q0 -128 -26 -199q-35 -96 -118 -162 q-77 -61 -180 -78h-67q55 28 89 87q31 54 36 147q2 34 2 152v128h-61q-23 0 -34 -2q-19 -3 -32 -10q-32 -16 -44 -48q-11 -27 -5 -59h-40q-26 59 -26 119q0 27 5 55q10 54 38 90q32 41 77 61q47 21 122 21v69q0 66 8 98q12 49 42 88q27 36 72 67q21 15 82 54q23 14 47 32 q-36 -8 -55 -9q-12 -1 -25 -1q-46 0 -104 11q-98 18 -129 19h-10q-40 0 -71 -15q-45 -23 -62 -67h-48zM114 -53q84 150 227 245q97 64 213 95q22 24 40 56q33 64 40 155q3 41 3 162v115v191q0 130 6 181q12 100 51 172q47 84 132 142q104 72 290 108l31 6l1 -23l-44 -20 q-59 -27 -95 -54q-46 -35 -71 -82q-24 -45 -32 -103q-5 -36 -5 -109v-160v-354q0 -79 -16 -125q-20 -56 -65 -108q-55 -63 -140 -128q44 4 88 4q126 0 262 -35q128 -35 247 -95l67 49l33 -46l-301 -225q-205 119 -439 119h-30q-274 -9 -493 -171v38z" />
<glyph unicode="M" horiz-adv-x="2160" d="M31 1299l39 -19q12 34 40 57q24 21 51 28q17 5 37 5q18 0 37 -4q14 -3 73 -20q52 -15 87 -16h11q40 0 77 12q61 19 121 69q40 34 100 97l24 27l-40 19q-10 -12 -22 -22q-28 -26 -50 -33q-24 -7 -58 -2q-19 2 -49 8q-29 6 -85 26q-51 18 -87 23q-14 2 -28 2q-27 0 -52 -7 q-38 -10 -73 -34q-59 -40 -102 -107q-32 -50 -51 -109zM44 760q11 48 41 86q31 39 74 58q40 19 137 33q4 45 10 67q16 62 55 118q51 72 173 149l410 260l275 -227l10 -9l111 67v149h59v-114l222 134l260 -232l85 69l37 -45l-107 -86v-953l89 -77l116 77l29 -29l-312 -255 l-236 196l-69 -49l-19 29l117 82v326q-50 42 -113 42h-8q-48 -3 -91 -33v-352l65 43l29 -29l-343 -255l-236 196l-68 -49l-20 29l128 89v316q-52 45 -117 45h-8q-49 -3 -92 -33v-78v-197q0 -69 -15 -109q-19 -51 -62 -91q-71 -66 -165 -88q-37 -8 -94 -12q-63 -4 -93 -13 q-33 -10 -52 -31q-22 -24 -19 -55q1 -24 19 -43q15 -16 39 -26q25 -9 50 -8v-49q-13 -2 -26 -2l-66 11q-46 16 -80 49q-72 69 -74 177v6q0 84 53 149q34 41 85 63q43 18 104 25q11 1 68 4t87 9q38 8 73 26q34 18 59 49q32 39 44 98q6 30 6 108v320v426q-54 -41 -85 -96 q-19 -33 -27 -69q-6 -29 -6 -75v-458q0 -57 -10 -89q-13 -42 -46 -78q-48 -52 -137 -87q-73 -29 -159 -35l-10 39q29 3 50 21q16 13 28 36q9 17 14 42q4 24 4 90v155h-67q-26 0 -38 -2q-16 -3 -35 -13q-33 -20 -43 -59q-6 -22 -2 -44h-39q-32 57 -32 118q0 26 6 53zM737 653 q43 29 94 31h9q65 0 114 -43v206q-51 -44 -115 -44h-8q-49 1 -94 32v-182zM737 895q43 -30 92 -33h8q65 0 117 45v251l-217 148v-411zM1219 304l121 -91v1092l-121 -74v-927zM1399 653q42 29 94 31h8q60 0 110 -40v200q-51 -41 -110 -41h-8q-51 2 -94 32v-182zM1399 894 q41 -29 91 -32h8q63 0 113 42v244l-212 171v-425z" />
<glyph unicode="N" horiz-adv-x="1470" d="M31 100q0 98 62 171q54 65 143 92q51 15 106 15v336h-22q-28 0 -34 -1q-20 -4 -32 -11q-17 -10 -25 -24q-10 -16 -8 -33q2 -28 27 -45l-11 -29q-59 16 -99 63q-39 46 -45 109q-1 11 -1 21q0 90 71 158q44 43 106 60q34 10 73 10v277q-6 8 -10 12q-21 24 -43 36 q-27 14 -54 7q-25 -6 -40 -26q-12 -16 -23 -43q-8 -21 -12 -38l-39 10q-6 30 -6 59q0 76 42 144q46 74 125 105q45 18 89 18l73 -12q63 -20 105 -71q17 -20 44 -61t37 -55l493 -825q8 157 10 335q1 46 1 90q0 132 -5 250q-63 5 -120 30q-53 23 -92 61l-79 -87l-29 29 l255 295l40 -1q22 -28 48 -47q30 -23 70 -34q23 -7 44 -7q17 0 33 5q37 10 61 37q25 28 28 66l28 -1q25 -48 25 -100q0 -18 -3 -37q-12 -72 -63 -124q-42 -43 -101 -65q-46 -17 -94 -20v-1204h-77l-616 1042l-71 120q-13 24 -16 28v-816q1 0 3.5 -0.5t3.5 -0.5 q139 -23 244 -128l69 79l29 -30l-264 -294q-50 53 -106 75q-35 13 -65 13q-13 0 -25 -2q-23 -5 -42 -19q-20 -15 -29 -36q-9 -22 -8 -44q2 -23 13 -44q18 -32 53 -49q27 -13 59 -13h12l-10 -39q-21 -3 -41 -3l-91 16q-66 24 -110 75q-64 73 -64 170z" />
<glyph unicode="O" horiz-adv-x="1480" d="M33 687q-2 34 -2 67q0 242 109 449q72 137 188.5 243.5t258.5 163.5l30 -37q-142 -101 -226 -253l-4 -8l592 255q117 -48 214.5 -134.5t159.5 -197.5q98 -175 98 -374q0 -189 -85 -369q-84 -176 -231 -321q-94 -94 -194 -151q-113 -64 -234 -76q-25 -2 -50 -2 q-122 0 -233 57q-125 64 -218 190q-155 209 -173 498zM284 914q-1 -18 -1 -35q0 -153 47 -295q1 -3 3 -9.5t3 -9.5l142 61v662l-127 -53q-61 -150 -67 -321zM356 514q57 -130 145 -214q72 -69 154 -102q77 -32 158 -31h23h2v1175q-36 26 -91 58l-4 -2v-721zM896 175 q82 18 143 59q88 59 142 160q61 116 61 252q0 44 -6 90l-340 -171v-390zM896 630l328 166q-15 67 -42 128l-286 -144v-150zM896 845l261 132q-42 81 -86 138q-77 101 -175 181v-451z" />
<glyph unicode="P" horiz-adv-x="1382" d="M31 28q99 179 290 278v383h-35q-18 1 -32 1q-21 0 -35 -2q-16 -1 -32 -8q-14 -6 -26 -19q-21 -23 -21 -57v-7h-47q-13 35 -13 73q0 20 4 41q11 57 45 98t86 65q45 20 93 21q6 0 13 -1v339q0 30 -4 53q-5 27 -23 47q-14 14 -33 19t-38 0q-37 -10 -59 -47q-13 -22 -18 -49 h-49q3 73 41 132q42 65 115 99q56 26 117 26q17 0 33 -2q51 -6 91 -28q44 -23 71 -63q28 -40 37 -88q6 -31 6 -95v-37l70 51v258h58v-215l364 265q77 -54 140 -117q61 -59 114 -133v-959l-538 -290q-42 37 -80 60v-290v-58h-128h-287v58v346q-147 -43 -243 -148h-47z M608 -170h70v321q-28 13 -70 25v-346zM608 384h18q21 0 52 -1v805l-70 -49v-755zM736 377q174 -25 311 -126l45 27v466l-356 -179v-188zM736 630l356 180v149l-356 -179v-150zM736 845l356 180v146q-51 57 -99 100q-48 42 -93 74l-164 -115v-385z" />
<glyph unicode="Q" horiz-adv-x="1654" d="M33 687q-2 34 -2 67q0 242 109 449q72 137 188.5 243.5t258.5 163.5l30 -37q-142 -101 -226 -253l-4 -8l592 255q117 -48 214.5 -134.5t159.5 -197.5q98 -175 98 -374q0 -189 -85 -369q-58 -120 -145 -227q73 -126 191 -211q39 -28 88 -54l82 70l43 -43l-309 -245 q-63 32 -120 80q-66 56 -147 159q-15 19 -35 46q-41 -29 -73 -47q-113 -64 -234 -76q-25 -2 -50 -2q-122 0 -233 57q-125 64 -218 190q-155 209 -173 498zM284 914q-1 -18 -1 -35q0 -153 47 -295q8 -27 18 -50q46 29 73 74q28 45 38 114q5 33 5 120v440l-113 -47 q-61 -150 -67 -321zM379 466q52 -98 122 -166q72 -69 154 -102q77 -32 158 -32q12 0 23 1h2v1175q-36 26 -91 58l-19 -8v-408v-133q0 -86 -16 -136q-21 -67 -71 -118q-63 -66 -154 -102q-48 -19 -108 -29zM896 175q82 18 143 59q88 59 142 160q61 116 61 252q0 44 -6 90 l-340 -171v-390zM896 630l328 166q-15 67 -42 128l-286 -144v-150zM896 845l261 132q-42 81 -86 138q-77 101 -175 181v-451z" />
<glyph unicode="R" horiz-adv-x="1634" d="M31 -52q31 63 81 126q99 122 237 188v471h-68q-22 0 -33 -2q-22 -4 -32 -9q-31 -16 -44 -49q-12 -29 -6 -59h-39q-27 61 -27 122q0 27 5 53q10 52 39 90q31 41 76 60q47 21 129 21v377q0 40 -3 53q-7 31 -23 48q-13 14 -33 21q-16 5 -39 2q-39 -8 -61 -44 q-16 -27 -16 -56h-49q3 70 42 131q42 65 115 99q58 27 118 27q16 0 32 -2q48 -6 91 -29q44 -23 71 -63q27 -38 36 -87q7 -36 7 -96v-30l82 69v219h59v-171l258 214l325 -444l-335 -288q41 -21 67 -40q77 -54 126 -130q45 -69 73 -167q8 -30 21 -85.5t17 -69.5 q22 -89 59 -148q31 -51 74 -88l141 109v-63l-314 -248q-65 31 -113 90q-46 55 -74 137q-1 4 -4 12.5t-4 12.5l-322 -255q-114 89 -249 119q-60 13 -114 13q-27 0 -53 -3q-88 -11 -157 -54q-67 -42 -107 -104h-62zM637 322q41 -1 82 -9v1000l-82 -72v-919zM778 299 q118 -34 209 -109l98 78l-21 90q-26 116 -58 181q-45 92 -118 145q-37 27 -78 41l-32 -28v-398zM778 769l323 280l-260 369l-63 -54v-595z" />
<glyph unicode="S" horiz-adv-x="1337" d="M33 -5q-3 22 -3 45q0 73 28 144q33 88 109 179q55 66 144 155q29 29 91 85l18 17l-286 187v412l561 354q96 -88 212 -119q52 -13 98 -13q41 0 79 10q94 26 140 105q23 40 26 84v1l29 -1h2h27l-1 -28q0 -52 -6 -86q-28 -159 -144 -306q-56 -71 -192 -191q79 -27 153 -66 q76 -41 151 -103v-514l-561 -354q-101 110 -235 152q-65 20 -131 20h-12q-107 -4 -172 -25q-25 -8 -42 -21q-16 -13 -24 -29q-4 -23 -4 -45q0 -14 2 -28q8 -77 56 -134q63 -76 181 -98q43 -8 112 -8q43 0 96 3q203 12 306 42q82 25 137 69q64 51 89 123q5 16 8 28l55 -16 q-3 -12 -8 -28q-28 -89 -89.5 -163t-145.5 -124q-156 -93 -345 -93h-19q-128 3 -235 51q-117 52 -187 150q-57 81 -68 177zM210 325q79 55 177 74q51 10 104 10q109 0 223 -42q54 -20 111 -50v486l-73 36l-312 -279q-45 -40 -89 -83q-89 -89 -136 -146q-1 -1 -2.5 -3 t-2.5 -3zM402 958l113 -78v411q-38 20 -74 46l-39 -18v-361zM573 841l53 -37l253 225q12 11 47.5 41.5t52 46t44 41.5t49 49.5t40.5 48.5q1 1 2.5 3t2.5 3q-54 -35 -120 -54q-61 -16 -128 -16q-95 0 -200 33q-43 13 -96 37v-421zM882 284q28 -17 80 -57l39 19v471l-119 58 v-491z" />
<glyph unicode="T" horiz-adv-x="1335" d="M40 751q34 181 163 308q130 129 310 158l20 -30q-136 -92 -206 -242l450 192v-621l-361 -152q41 -41 97 -73q105 -59 224 -58q31 0 62 3q89 11 170 52v346l-135 135l135 135v252q-4 0 -14.5 1t-14.5 2q-41 6 -85 16t-101.5 24.5t-83.5 20.5q-36 8 -130 32t-146 35 q-40 9 -71 9q-23 0 -42 -5q-30 -6 -52 -24q-25 -20 -35 -45q-6 -16 -6 -32t6 -33q12 -32 44 -48l-19 -30q-86 38 -122 124q-19 45 -19 91q0 41 15 83q24 68 82 117q55 46 129 65q46 12 98 12q29 0 60 -4q65 -7 155 -38q18 -6 55 -19t59 -20t54 -16.5t59 -15.5q15 -3 44 -10 t47 -11t43.5 -8t47.5 -5q35 -2 60 12q15 9 24 20q9 12 11 29q1 16 -7 33q-7 14 -21 25q-22 17 -62 26q-22 5 -66 11v39q23 2 42 2t34 -2q78 -8 138 -41q67 -37 102 -100q26 -47 26 -97q0 -27 -8 -55q-21 -77 -91 -124q-54 -37 -129 -47q-25 -3 -53 -3v-246l137 -137 l-137 -137v-311q34 25 42 31q116 95 172 237h39v-23q0 -129 -62 -249q-73 -140 -212 -223q-134 -80 -297 -86h-23q-131 0 -256 52q-136 56 -233 162q-98 106 -140 248q-26 88 -26 175q0 53 10 106zM300 551q25 -77 78 -144l135 57v501l-213 -90q-26 -84 -26 -165t26 -159z " />
<glyph unicode="U" horiz-adv-x="1732" d="M31 1275q89 161 183 234q40 31 77 43q33 11 64 11q12 0 24 -2q32 -4 73 -21q8 -3 32 -14t38 -16q44 -17 74 -19q7 -1 13 0q31 0 62 11q30 11 89 55q4 2 10.5 7.5t9.5 8.5l48 -48q-106 -69 -186.5 -168t-127.5 -216q-60 -149 -60 -310q0 -34 3 -68q9 -126 56 -234l113 48 v322v178q0 109 27 171q29 66 104 138q71 67 225 179l43 1v-187l280 180l177 -148l82 67l37 -44l-91 -73v-1077l100 -85l63 54l30 -30l-271 -223l-230 193l-317 -217q-128 1 -250.5 48.5t-218.5 133.5t-158 201.5t-78 242.5q-7 50 -7 99q0 180 91 343q108 195 307 295 q-43 -17 -91 -17q-21 0 -43 3q-22 4 -124 36q-50 16 -91 16q-19 0 -36 -4q-40 -10 -67 -34q-29 -26 -40 -64h-48zM537 480q72 -135 197 -214q108 -66 232 -74v1296q-36 -32 -54 -77q-22 -51 -22 -156v-90v-536zM1025 192q5 0 15.5 1t15.5 2l170 111v388l-201 -101v-401z M1025 659l201 101v149l-201 -101v-149zM1025 874l201 101v275l-114 124l-87 -54v-446z" />
<glyph unicode="V" horiz-adv-x="1441" d="M31 27q43 97 121.5 172t176.5 117v437h-48h-21q-29 0 -45 -2q-16 -1 -32 -8q-16 -6 -27 -19q-10 -10 -18 -33q-5 -15 -5 -37v-7h-47q-9 37 -9 73q0 27 5 54q13 66 51 116q42 55 101 77q31 12 64 11q15 0 31 -2v355q0 36 -4 53q-7 31 -23 48q-14 16 -34 22t-41 3 q-41 -8 -66 -46q-13 -23 -18 -48h-49q-1 8 -1 16q0 60 34 114q44 70 124 101q52 20 107 20q26 0 53 -4q50 -8 90 -31q44 -25 71 -62q27 -38 37 -87q7 -36 7 -95v-98l86 73v284h59v-234l329 280l199 -188l88 71l36 -44l-122 -99v1v-907l80 63l39 -64l-657 -500 q-71 76 -169.5 118t-202.5 42q-174 0 -311 -106h-39zM616 352q44 -6 86 -18v897l-86 -72v-807zM761 312q104 -45 175 -116l100 78v486l-275 -139v-309zM761 687l275 139v149l-275 -139v-149zM761 902l275 139v265l-111 111l-164 -137v-378z" />
<glyph unicode="W" horiz-adv-x="1921" d="M31 27q43 97 121 172.5t177 116.5v419h-82q-25 0 -37 -2q-18 -3 -36 -13q-33 -20 -43 -59q-6 -20 -1 -44h-39q-32 57 -32 118q0 26 6 53q11 50 40 86q30 38 75 58q13 6 27 11t32 9t27 5.5t33.5 5t29.5 4.5v92v254q0 33 -3 49q-4 24 -20 44q-16 21 -37 31q-23 11 -48 9 q-39 -2 -71 -30q-30 -27 -38 -66h-51q-1 10 -1 20q0 45 19 86q38 82 127 119q59 24 121 25q26 0 53 -5q75 -13 128 -53q57 -43 83 -111q20 -54 22 -133v-137v-117v-693q58 -9 94 -21v1249h59v-180l278 209l201 -190v-1049l107 -72v1282h59v-183l280 210l201 -189v-1032 l-553 -414l-351 239l-275 -225q-64 68 -151.5 107t-180.5 41h-15q-166 0 -296 -106h-39zM766 307q40 -18 82 -47l133 112v363l-215 -109v-319zM766 692l215 109v149l-215 -109v-149zM766 907l215 109v278l-133 110l-82 -62v-435zM1389 272l118 -80l121 87v457l-217 -110 v-354h-22zM1411 692l217 110v149l-217 -110v-149zM1411 907l217 110v275l-133 110l-84 -63v-432z" />
<glyph unicode="X" horiz-adv-x="1427" d="M31 1266q14 77 59.5 142.5t112.5 104.5q72 42 149 46q10 1 21 1q70 0 133 -30q83 -37 145 -120q29 -40 51 -82l272 231h40q19 -26 48 -47q55 -39 116 -39q15 0 30 2q39 6 73.5 29.5t53.5 57.5h28q2 -18 2 -36q0 -48 -15 -96q-21 -66 -66 -114q-88 -94 -214 -96 q-17 0 -26 1l-177 -238h428l-199 -219h-138q146 -320 303 -516l79 41l58 -99l-324 -208l-397 747l-274 -367q2 0 6 -1t6 -1q183 -19 351 -141l69 79l29 -30l-264 -294q-91 87 -186 114q-32 9 -61 9q-25 0 -48 -7q-25 -7 -47 -26q-23 -20 -32 -45q-8 -20 -8 -39q0 -25 13 -49 q17 -35 52 -52q26 -13 53 -12q10 0 19 1l-10 -38q-21 -3 -41 -3l-91 16q-63 23 -110 74q-66 76 -66 171q0 98 64 171q56 63 144 89q37 11 86 14l299 402h-515l199 219h228l-81 154q-64 120 -100 177q-20 32 -39 48q-27 22 -57 22q-21 0 -41 -9q-18 -8 -33 -25 q-31 -34 -39 -84h-121zM722 1289q4 -7 10 -23t10 -23l93 -205l144 193q-32 9 -56 19q-74 30 -137 89z" />
<glyph unicode="Y" horiz-adv-x="1400" d="M32 646q-1 11 -1 21q0 91 70 158q44 43 106 60q34 10 69 10q9 0 18 -1v339q0 30 -4 53q-5 27 -23 47q-14 14 -33 19t-38 0q-37 -10 -59 -47q-15 -24 -19 -49h-49q3 71 42 132q42 65 115 99q56 26 117 26q16 0 33 -2q51 -6 91 -28q44 -23 71 -63q26 -38 36 -88 q7 -36 7 -95v-1088q13 -3 52.5 -13t61.5 -15q3 -1 9.5 -2t9.5 -2v1385h59v-206l278 225l207 -179l77 62l36 -44l-104 -85l1 -974q0 -85 -15 -129q-23 -66 -75 -105q-51 -38 -121 -46q-18 -2 -40 -2q-40 0 -91 7q-58 9 -164 32t-142 30q-89 17 -155 20h-20q-79 0 -132 -28 q-32 -16 -51 -42q-21 -29 -24 -61q-3 -33 12 -60q15 -28 42 -45q39 -26 101 -26h17q39 2 81 11t96 23.5t80 20.5q143 32 259 40q31 2 60 2q75 0 132 -17q49 -14 86 -44q39 -31 60 -75q18 -40 18 -81v-11q-3 -47 -26 -90q-44 -82 -139 -123q-32 -14 -76 -23l-10 40q11 1 21 6 q23 11 37 33t11 48q-1 20 -17 41q-13 18 -35 27q-27 12 -64 12q-12 0 -24 -1q-34 -3 -70.5 -9t-83 -15.5t-69.5 -13.5q-36 -6 -108.5 -20t-110.5 -20q-61 -10 -113 -10q-61 0 -109 14q-66 18 -116 64t-72 112q-13 41 -13 82q0 59 28 117q45 94 142 143q9 5 29 13v475h-36 q-28 0 -34 -1q-20 -4 -32 -11q-17 -10 -25 -24q-10 -16 -8 -33q2 -28 27 -45l-11 -29q-59 16 -99 63q-38 47 -44 109zM773 111q44 0 76 12q41 14 70 45q28 30 44 71q19 53 19 167v180q-49 39 -109 39h-9q-48 -3 -91 -33v-481zM773 652q42 29 93 31h9q59 0 107 -38v195 q-48 -38 -107 -38h-9q-50 2 -93 32v-182zM773 893q41 -29 91 -32h9q60 0 109 39v317l-111 85l-98 -78v-331z" />
<glyph unicode="Z" horiz-adv-x="1323" d="M31 1201l206 381q68 -25 167 -53q216 -59 392 -60q70 0 134 10q144 22 268 85l36 -40q-72 -151 -178 -289.5t-255 -298.5h263l-173 -260h-323q-100 -118 -219 -263l-62 -77q183 54 375 54q58 0 116 -5q223 -20 428 -111l59 69l29 -19l-253 -327q-86 34 -181 60 q-174 49 -316 57q-30 2 -59 2q-140 0 -259 -40q-89 -30 -163 -76l-19 19q40 80 56 108q139 248 404 549h-236l172 260h302q50 54 148 162l105 115q-141 -27 -288 -27q-39 0 -79 2q-247 12 -482 105l-76 -111z" />
<glyph unicode="[" horiz-adv-x="595" d="M47 0v59v1525v58h509v-58h-245v-1525h245v-59h-509z" />
<glyph unicode="\" horiz-adv-x="854" d="M-13 1622h237l660 -1710l-234 -1z" />
<glyph unicode="]" horiz-adv-x="595" d="M47 0h509v59v1525v58h-509v-58h245v-1525h-245v-59z" />
<glyph unicode="^" horiz-adv-x="1155" d="M85 930l423 429l452 -417l15 -12l138 217l-462 427l-4 3l-15 11l-544 -552z" />
<glyph unicode="_" horiz-adv-x="1632" d="M22 -219l199 219l1379 -2l-199 -219z" />
<glyph unicode="`" horiz-adv-x="573" d="M130 1407l263 -292l18 13l-175 360z" />
<glyph unicode="a" horiz-adv-x="993" d="M31 272q3 56 35 109q25 41 76 87q59 52 134 91q-10 4 -30 14q-82 39 -119 96q-24 37 -27 77v11q0 31 14 62q16 33 46 60q22 20 68 43l226 118l302 -195l83 67l36 -44l-107 -87v-516l98 -99l89 59l9 -39l-285 -196l-156 157l-216 -157q-137 18 -219 117q-58 69 -58 150 q0 7 1 15zM159 765q1 -41 31 -77q31 -39 98 -71q44 -22 114 -43q48 -15 111 -30v192l-255 157q-25 -10 -43 -24q-26 -20 -41 -46q-15 -27 -15 -58zM280 459q-4 -22 -4 -43q0 -69 37 -138q23 -43 53 -70q35 -32 78 -39q14 -2 27 -2q22 0 42 6v311q-20 6 -60.5 18.5 t-60.5 18.5q-54 16 -80 25q-24 -39 -32 -87z" />
<glyph unicode="b" horiz-adv-x="940" d="M31 176l29 -39l79 49l309 -187l462 263v606l-209 196l-258 -169v675h-39l-334 -235v-30q27 -9 47 -19q27 -15 37 -30q9 -12 12 -28q2 -10 2 -31v-932zM443 295v533l92 60l123 -128v-591z" />
<glyph unicode="c" horiz-adv-x="700" d="M31 211l309 -211h29l301 265l-27 35l-118 -85q-70 2 -130 37q-67 40 -101 104v533l182 -152l195 148l-217 174l-423 -236v-612z" />
<glyph unicode="d" horiz-adv-x="892" d="M31 205v629l249 154l-193 175l-41 -7v367l706 -621l76 61l36 -44l-88 -71l-1 -581l-449 -265zM295 312l217 -151v616l-217 197v-662z" />
<glyph unicode="e" horiz-adv-x="913" d="M31 177l97 78v540l490 255l207 -314v-10l-442 -275v-88l245 -167l226 177l29 -49l-422 -344l-304 226l-90 -74zM383 501l216 137l-177 255l-39 -22v-370z" />
<glyph unicode="f" horiz-adv-x="927" d="M31 176l137 89v542q0 20 -2 29q-3 16 -12 28q-14 20 -37 31t-47 9v29l98 105v264l457 258l274 -170l-253 -142l-223 141v-121v-236h264l-97 -112h-167v-675l116 -97l68 37l30 -40l-282 -145l-216 186l-79 -49z" />
<glyph unicode="g" horiz-adv-x="1011" d="M31 -295q36 97 123 160t191 66h14q66 0 129 -26q71 -29 122 -82q23 3 40 16t27 34q10 22 8 45q-2 24 -9 46q-3 8 -38 84q-20 46 -25 79v3l-190 -130l-294 206v589l461 265l269 -202l87 71l37 -45l-98 -79v-521q0 -46 5 -80q6 -41 24 -77q22 -45 25 -55q8 -32 1 -60 q-9 -32 -34 -54q-15 -14 -51 -34q-25 -14 -52 -33l-379 -267q-57 85 -158 107q-25 5 -51 5q-28 0 -57 -6q-55 -12 -98 -45zM374 333l235 -146q0 4 -0.5 11.5t-0.5 11.5l2 506l-236 157v-540z" />
<glyph unicode="h" horiz-adv-x="1060" d="M31 176l137 89v932q0 21 -2 31q-3 16 -12 28q-10 15 -37 30q-20 10 -47 19v30l334 235h39v-759l255 239l217 -181l81 65l36 -44l-88 -72v-534q0 -106 -11 -166q-16 -88 -58 -156q-63 -103 -177 -154q-87 -39 -180 -39q-32 0 -65 5v49q69 15 119 64q54 52 79 130 q28 85 28 248v490l-122 101l-114 -106v-505l67 -67l63 44l37 -46l-255 -176l-211 178l-78 -49z" />
<glyph unicode="i" horiz-adv-x="698" d="M31 863l275 187l157 -187v-618l68 -69l89 59l49 -39l-295 -206l-196 176l-69 -49l-29 40l127 88v540l-68 88l-79 -49zM142 1326l195 172l175 -199l-196 -171z" />
<glyph unicode="j" horiz-adv-x="577" d="M31 863l275 187l134 -160l72 58l36 -45l-85 -69v-589l-5 -192q-2 -78 -14 -131q-15 -65 -54 -121q-57 -83 -149 -127q-86 -41 -177 -41h-16v58q36 2 64 18q44 24 69 73q20 40 25 98q3 30 3 63.5t-1 76.5t-1 64v161v540l-68 88l-79 -49zM142 1326l195 172l175 -199 l-196 -171z" />
<glyph unicode="k" horiz-adv-x="1228" d="M31 176l137 89v932q0 21 -2 31q-3 16 -12 28q-10 15 -37 30q-20 10 -47 19v30l334 235h39v-1325l79 -79l58 50l30 -40l-255 -176l-216 186l-79 -49zM483 569l304 471h20q20 -38 57 -59q32 -19 72 -19h8q42 2 74 22q35 22 54 56h39q-7 -49 -19 -87q-16 -53 -42 -95 q-30 -49 -70 -75q-44 -29 -92 -35q-14 -2 -29 -2q-34 0 -68 10q-58 17 -102 58l-20 -39l403 -599l88 59l39 -49l-314 -206z" />
<glyph unicode="l" horiz-adv-x="638" d="M31 176l137 89v932q0 21 -2 31q-3 16 -12 28q-10 15 -37 30q-20 10 -47 19v30l334 235h39v-1325l79 -79l58 50l30 -40l-255 -176l-216 186l-79 -49z" />
<glyph unicode="m" horiz-adv-x="1648" d="M31 848l284 196l151 -168l269 168l204 -175l282 175l212 -183l67 54l36 -45l-101 -82v-514l96 -98l88 66l1 -75l-304 -197l-203 177l86 78v505l-142 129l-108 -65v-548l107 -94l-225 -182l-203 177l86 78v505l-142 129l-90 -54v-580l89 -78l-197 -177l-235 187l78 68v544 l-78 89l-79 -49z" />
<glyph unicode="n" horiz-adv-x="1189" d="M31 848l284 196l158 -176l225 176l232 -199l87 70l36 -45l-99 -80v-535l88 -79l78 59l40 -59l-305 -206l-206 187l69 68v505l-147 128l-89 -70v-563l89 -78l-197 -177l-235 187l78 68v544l-78 89l-79 -49z" />
<glyph unicode="o" horiz-adv-x="921" d="M31 183l105 85v527l461 265l294 -226v-560l-451 -274q-48 35 -144 104t-144 104l-85 -69zM401 314l235 -157v589l-235 157v-589z" />
<glyph unicode="p" horiz-adv-x="1001" d="M31 885l248 166q51 -34 86 -74q33 -39 52 -78v-38l258 193l199 -175l62 51l36 -44l-76 -63v-570q-100 -56 -185 -116q-79 -55 -155 -121q-71 41 -139 70v-93q0 -25 3 -47q3 -25 14 -44q10 -19 30 -34q20 -14 48 -19v-29l-293 -176h-39v517q-57 11 -106 17l106 89v511 q2 22 -7 41q-10 21 -26 33q-21 15 -47 15q-27 0 -47 -14zM417 239l21 -9q117 -48 204 -89v609l-135 111l-90 -68v-554z" />
<glyph unicode="q" horiz-adv-x="940" d="M31 188l209 -195l258 168v-511h39l334 236v29q-25 8 -48 20q-25 14 -36 30q-9 12 -12 28q-2 10 -2 30v769l137 88l-29 40l-79 -49l-309 186l-462 -262v-607zM283 297v591l215 -126v-533l-92 -60z" />
<glyph unicode="r" horiz-adv-x="894" d="M31 863l275 187l150 -161l142 162h22q31 -49 88 -51q28 -1 55 13t42 38h61q-8 -64 -22 -114q-15 -54 -39 -91q-29 -46 -73 -66q-32 -15 -68 -15h-9q-39 1 -76 17q-53 21 -100 67v-604l81 -64l110 76l39 -46l-306 -221l-225 176l-69 -49l-29 40l127 88v540l-68 88l-79 -49 z" />
<glyph unicode="s" horiz-adv-x="833" d="M42 156q26 84 132 190l51 48l-155 122v287l423 246q34 -50 85 -74q34 -16 67 -16q36 0 64 22q31 23 36 63h1h58q-13 -120 -57 -218q-25 -54 -59 -97q-22 -27 -63 -64l177 -130v-310l-405 -245q-33 58 -93 83q-32 12 -59 12h-4q-35 -2 -60 -19q-21 -16 -28 -35 q-8 -22 0 -44q8 -20 25 -30l-20 -54q-37 14 -66 42.5t-45 65.5q-17 40 -17 82q0 36 12 73zM156 244q53 41 123 47q11 1 22 1q56 0 109 -26q86 -41 127 -132v267l-113 91l-74 -64q-81 -70 -135 -122q-45 -46 -59 -62zM334 649l85 -86l151 129q43 36 71 71q10 11 19 25 q-33 -16 -71 -21q-16 -2 -32 -2l-96 20q-91 40 -127 131v-267z" />
<glyph unicode="t" horiz-adv-x="716" d="M31 176l137 89v500q0 20 -2 30q-3 16 -12 28q-14 20 -37 31t-47 9v29l334 335h39v-236h244l-97 -112h-147v-634l96 -97l68 37l30 -40l-282 -145l-216 186l-79 -49z" />
<glyph unicode="u" horiz-adv-x="1118" d="M31 871l264 171q30 -12 57 -30q41 -30 67 -69q22 -33 31 -71q7 -29 7 -76v-493l128 -122l98 72q0 6 -0.5 18.5t-0.5 18.5v62v421l-106 94l192 177l137 -117l72 49l29 -39l-88 -69v-489l1 -85q0 -62 16 -95q15 -29 39 -45l76 62l38 -51l-246 -169q-50 6 -89 42 q-47 43 -62 117q-4 19 -6 40l-258 -203l-279 233l64 54v480q0 30 -3 44q-5 24 -16 40q-11 17 -33 27q-20 9 -43 4q-6 -1 -18 -5q-26 -9 -47 -27z" />
<glyph unicode="v" horiz-adv-x="1075" d="M31 1023q0 59 33 109q37 55 104 93q62 35 134 41l10 -39q-1 -1 -3.5 -2t-3.5 -1q-31 -11 -53 -33q-28 -30 -28 -68v-8q3 -41 34 -74q18 -19 66 -51q46 -30 67 -49q52 -47 69 -120q10 -42 10 -140v-430l184 -118l59 35v623l-90 82l214 178l208 -182l-76 -62v-556 l-470 -280l-277 169l-64 -51l-36 44l92 75v386v73q-2 48 -9 71q-14 49 -59 96q-8 9 -25 25t-30 29.5t-23 27.5q-37 50 -37 107z" />
<glyph unicode="w" horiz-adv-x="1538" d="M31 1023q0 59 33 109q37 55 104 93q62 35 134 41l10 -39q-1 -1 -3.5 -2t-3.5 -1q-31 -11 -53 -33q-28 -30 -28 -68v-8q3 -41 34 -74q18 -19 66 -51q46 -30 67 -49q52 -47 69 -120q10 -42 10 -140v-430l161 -106l39 23v623l-90 82l214 178l208 -182l-76 -62l-1 -556 l162 -106l45 26v620l-91 82l215 178l128 -113l88 72l36 -45l-121 -98v-644l-475 -252l-198 143l-258 -143l-234 169l-64 -51l-36 44l92 75v386v73q-2 48 -9 71q-14 49 -59 96q-8 9 -25 25t-30 29.5t-23 27.5q-37 50 -37 107z" />
<glyph unicode="x" horiz-adv-x="1040" d="M15 891l260 175l163 -97l105 -225l122 301h48q31 -48 89 -50q29 -2 55 12t41 38h62q-8 -62 -22 -113q-17 -60 -38 -93q-30 -47 -74 -65q-31 -13 -67 -13h-10q-30 1 -76 16q-33 10 -56 22l-46 -116l209 -447q10 -22 18 -31q12 -14 31 -17q18 -3 35 3q7 2 31 17 q32 22 59 44l56 -51l-287 -201l-197 127l-92 206l-125 -319l1 3l-1 -3h-21q-35 43 -89 51q-9 1 -19 1q-26 0 -50 -10q-34 -14 -56 -42h-43q3 52 17 107q15 58 44 98q34 47 83 66q32 12 67 12h10q33 -1 76 -15q4 -2 12.5 -5t12.5 -4l51 127l-187 421q-13 28 -26 42 q-16 18 -43 21q-22 3 -47 -9q-11 -5 -42 -25q-2 -1 -6 -3.5t-6 -4.5z" />
<glyph unicode="y" horiz-adv-x="1060" d="M31 858l29 -39l82 50l75 -89v-574l295 -206l192 133q0 -1 0.5 -2.5t0.5 -2.5q6 -44 21 -80q4 -10 17.5 -39t19.5 -46q9 -26 10 -45q2 -23 -8 -45t-26 -34q-17 -13 -41 -16q-51 53 -122 82q-63 26 -129 26h-14q-104 -3 -191 -66t-123 -160l30 -20q43 33 98 45q29 6 57 6 q26 0 51 -5q101 -22 158 -107l378 267q27 19 52 33q38 21 52 34q23 20 33 54q8 30 0 60q-2 10 -25 55q-19 39 -25 77q-5 34 -5 80v541l-186 220l-198 -134l110 -131l2 -570v-26l-238 149v525l-157 186z" />
<glyph unicode="z" horiz-adv-x="894" d="M31 19l19 -19q73 56 162 76q52 12 108 12q70 0 148 -18q91 -20 181 -61l216 265l-29 20l-59 -69q-137 70 -285 79l-46 2q-108 0 -209 -32l62 77q50 60 76 90h215l167 197l-29 29l-48 -49h-149q67 75 115 134q106 128 180 259l-20 29q-91 -61 -200 -73q-30 -4 -62 -4 q-82 0 -180 24q-81 20 -166 53l-157 -294l39 -20l49 79q97 -45 204 -56q30 -3 60 -3q94 0 187 29q-69 -81 -136 -157h-207l-167 -196l29 -30l50 49h139q-135 -155 -198 -277q-36 -70 -59 -145z" />
<glyph unicode="{" horiz-adv-x="655" d="M26 776v23q49 40 84 98q47 77 60 177q5 39 5.5 120.5t6.5 122.5q8 64 31 116q24 55 66 95q25 25 61 43h264v-23q-36 -18 -61 -43q-42 -40 -66 -95q-23 -52 -31 -116q-6 -41 -6.5 -122.5t-5.5 -120.5q-13 -100 -60 -177q-28 -45 -68 -84q21 -12 45 -34q42 -40 66 -95 q23 -51 31 -117q6 -41 6.5 -122.5t5.5 -120.5q13 -99 60 -176q35 -58 84 -98v-24h-264q-48 39 -84 99q-47 77 -60 176q-5 39 -5.5 120.5t-6.5 122.5q-8 64 -31 116q-25 57 -66 96q-25 25 -61 43z" />
<glyph unicode="|" horiz-adv-x="335" d="M59 -11l220 199v1371l-220 -199v-1371z" />
<glyph unicode="}" horiz-adv-x="655" d="M26 3h264q48 39 84 99q47 77 60 176q5 39 5.5 120.5t6.5 122.5q8 64 31 116q25 57 66 96q25 25 61 43v23q-49 40 -84 98q-47 77 -60 177q-5 39 -5.5 120.5t-6.5 122.5q-8 64 -31 116q-24 55 -66 95q-25 25 -61 43h-264v-23q36 -18 61 -43q42 -40 66 -95q23 -52 31 -116 q6 -41 6.5 -122.5t5.5 -120.5q13 -100 60 -177q28 -45 68 -84q-21 -12 -45 -34q-42 -40 -66 -95q-23 -51 -31 -117q-6 -41 -6.5 -122.5t-5.5 -120.5q-13 -99 -60 -176q-35 -58 -84 -98v-24z" />
<glyph unicode="~" horiz-adv-x="1095" d="M59 755q38 53 78 98q65 71 136 107q75 37 169 34q62 -2 170 -33q96 -28 134 -36q80 -16 138 -3q40 8 68 28q34 23 53 57l64 -28q-29 -63 -68 -109q-57 -69 -136 -107q-65 -32 -138 -35q-71 -3 -142 17q-26 7 -80 25.5t-83 25.5q-94 24 -169 5q-34 -8 -68 -28 q-36 -20 -63 -46z" />
<glyph unicode="&#xa1;" horiz-adv-x="436" d="M31 159l282 -181h39l-88 1136h-57l-95 -774q-2 -11 -3.5 -34t-3.5 -35q-4 -24 -8 -34q-6 -16 -19 -29q-19 -19 -47 -19v-30zM34 1383l184 -184l188 187l-185 184z" />
<glyph unicode="&#xa2;" horiz-adv-x="700" d="M31 211v612l281 157v191h57v-159l85 47l217 -174l-195 -148l-182 152v-533q34 -64 101 -104q60 -35 130 -37l118 85l27 -35l-301 -265v-121h-57v140z" />
<glyph unicode="&#xa3;" horiz-adv-x="1333" d="M27 44q67 195 86 397q11 110 6 266q-1 25 -4.5 88.5t-3.5 88.5t2 88q11 138 81 262t183 203q125 88 274 108q116 16 248 -7q141 -24 229 -92q53 -41 81 -94q32 -58 27 -120q-5 -66 -47 -113q-44 -49 -109 -52q-66 -3 -114 43q-47 46 -44 113q2 36 20.5 68.5t49.5 51.5 t68.5 21.5t70.5 -11.5q-113 117 -270 142q-89 14 -177.5 -7t-157.5 -75q-81 -64 -117 -164q-26 -72 -26 -201v-77h88v119q0 98 15 149q22 76 74 129q75 79 182 94q108 16 203 -37l-39 -49q-36 13 -71 2t-59 -41q-22 -28 -30 -65q-5 -24 -5 -72v-229h284l-5 -219h-279v-151 q0 -55 -9 -85q-10 -35 -40 -75q-25 -32 -61 -65.5t-62 -54t-72 -53.5q75 13 142 10q33 -1 70 -6t81 -12t69 -10q132 -16 219 15q95 33 147 114l109 -155q-38 -97 -124 -159q-80 -58 -190 -71q-23 -3 -47 -3.5t-51 2t-46 4.5t-51 8t-46 9t-49 10q-190 40 -291 27 q-111 -14 -198 -72l-46 42q99 73 155 127q68 64 95 128q26 61 26 157v319h-88v-143q0 -136 -9 -194q-16 -105 -69 -180q-13 -19 -30 -37.5t-30.5 -31.5t-37 -32t-35 -27.5t-40 -29t-37.5 -27.5q-25 -18 -43 -32z" />
<glyph unicode="&#xa4;" horiz-adv-x="1030" d="M22 873l36 44l121 -97l418 240l261 -200l85 69l36 -45l-88 -71v-514l112 -90l-36 -45l-110 89l-417 -253l-288 208l-85 -69l-36 44l105 85v513zM401 314l235 -157v589l-235 157v-589z" />
<glyph unicode="&#xa5;" horiz-adv-x="1400" d="M32 646q-9 104 69 179q44 43 106 60q42 12 87 9v339q0 30 -4 53q-5 27 -23 47q-14 14 -33 19t-38 0q-37 -10 -59 -47q-15 -24 -19 -49h-49q3 71 42 132q42 65 115 99q71 33 150 24q51 -6 91 -28q44 -23 71 -63q26 -38 36 -88q7 -36 7 -95v-427h133v692h59v-206l278 225 l207 -179l77 62l36 -44l-104 -85l1 -465h95v-58h-95v-106h95v-58h-95v-287q0 -85 -15 -129q-23 -66 -75 -105q-51 -38 -121 -46q-52 -6 -131 5q-58 9 -164 32t-142 30q-89 17 -155 20q-92 4 -152 -28q-32 -16 -51 -42q-21 -29 -24 -61q-3 -33 12 -60q15 -28 42 -45 q44 -30 118 -26q39 2 81 11t96 23.5t80 20.5q143 32 259 40q114 9 192 -15q49 -14 86 -44q39 -31 60 -75q21 -46 18 -92q-3 -47 -26 -90q-44 -82 -139 -123q-32 -14 -76 -23l-10 40q11 1 21 6q23 11 37 33t11 48q-1 20 -17 41q-13 18 -35 27q-36 16 -88 11q-34 -3 -70.5 -9 t-83 -15.5t-69.5 -13.5q-36 -6 -108.5 -20t-110.5 -20q-134 -22 -222 4q-66 18 -116 64t-72 112q-33 101 15 199q45 94 142 143q9 5 29 13v475h-36q-28 0 -34 -1q-20 -4 -32 -11q-17 -10 -25 -24q-10 -16 -8 -33q2 -28 27 -45l-11 -29q-59 16 -99 63q-38 47 -44 109z M581 149q13 -3 52.5 -13t61.5 -15q3 -1 9.5 -2t9.5 -2v471h-133v-439zM581 646h133v106h-133v-106zM773 111q44 0 76 12q41 14 70 45q28 30 44 71q19 53 19 167v182h-209v-477zM773 646h209v106h-209v-106zM773 810h209v407l-111 85l-98 -78v-414z" />
<glyph unicode="&#xa6;" horiz-adv-x="335" d="M59 -11l220 199v613l-220 -199v-613zM59 811l220 199v612l-220 -199v-612z" />
<glyph unicode="&#xa7;" horiz-adv-x="1337" d="M33 -5q-11 96 25 189q33 88 109 179q55 66 144 155q29 29 91 85l18 17l-286 187v412l561 354q96 -88 212 -119q97 -25 177 -3q94 26 140 105q23 40 26 84v1l29 -1h2h27l-1 -28q0 -52 -6 -86q-28 -159 -144 -306q-56 -71 -192 -191q79 -27 153 -66q76 -41 151 -103v-514 l-561 -354q-101 110 -235 152q-71 22 -143 20q-107 -4 -172 -25q-25 -8 -42 -21q-16 -13 -24 -29q-6 -38 -2 -73q8 -77 56 -134q63 -76 181 -98q69 -13 208 -5q203 12 306 42q82 25 137 69q64 51 89 123q5 16 8 28l55 -16q-3 -12 -8 -28q-28 -89 -89.5 -163t-145.5 -124 q-164 -98 -364 -93q-128 3 -235 51q-117 52 -187 150q-57 81 -68 177zM210 325q79 55 177 74q157 30 327 -32q54 -20 111 -50v486l-73 36l-312 -279q-45 -40 -89 -83q-89 -89 -136 -146q-1 -1 -2.5 -3t-2.5 -3zM402 958l113 -78v411q-38 20 -74 46l-39 -18v-361zM573 841 l53 -37l253 225q12 11 47.5 41.5t52 46t44 41.5t49 49.5t40.5 48.5q1 1 2.5 3t2.5 3q-54 -35 -120 -54q-149 -40 -328 17q-43 13 -96 37v-421zM882 284q28 -17 80 -57l39 19v471l-119 58v-491z" />
<glyph unicode="&#xa8;" horiz-adv-x="0" d="M31 1252l184 184l187 -187l-184 -184zM502 1252l184 184l187 -187l-184 -184z" />
<glyph unicode="&#xa9;" horiz-adv-x="1632" d="M-50 512q0 167 65.5 319.5t176 263t264 175.5t321.5 65t321.5 -65.5t264.5 -175.5t176.5 -262.5t65.5 -319.5t-65.5 -319.5t-176.5 -262.5t-264.5 -175.5t-321.5 -65.5t-321.5 65t-264 175.5t-176 263t-65.5 319.5zM-9 512q0 -159 62.5 -304t167.5 -249.5t250.5 -166.5 t305.5 -62t305.5 62t250.5 166.5t167.5 249.5t62.5 304t-62.5 304t-167.5 249.5t-250.5 166.5t-305.5 62t-305.5 -62t-250.5 -166.5t-167.5 -249.5t-62.5 -304zM423 514q5 129 81 230q77 102 198 144l10 -15q-67 -34 -110 -103l270 165q48 -35 105 -61q42 -19 68 -27l33 27 l8 -10l-122 -127q-48 19 -109 52q-2 2 -7.5 5t-8.5 4v-551q64 9 116 46q56 41 86 100h19q-3 -55 -27 -105q-34 -69 -99 -111q-66 -43 -141 -47q-74 -5 -145.5 24.5t-123.5 85.5q-51 54 -77 126t-24 148zM550 598q-6 -74 8 -139q4 -21 18 -56l56 24v327l-55 -33 q-22 -58 -27 -123zM587 378q9 -19 30 -45q41 -49 96 -71q48 -18 97 -17v570q-7 4 -38 25l-8 -5v-383z" />
<glyph unicode="&#xaa;" horiz-adv-x="868" d="M86 984q3 42 27 82q21 35 56 65q43 37 101 68q-12 4 -23 10q-62 30 -89 73q-19 29 -20 57t11 55q13 27 34 45q20 18 51 33l169 88l227 -146l62 50l27 -33l-80 -65v-388l74 -73l66 44l7 -30l-214 -146l-117 117l-162 -118q-103 13 -164 88q-47 58 -43 124zM182 1354 q0 -30 23 -58q23 -29 74 -53q41 -19 86 -33q32 -10 82 -22v144l-191 118q-14 -6 -32 -19q-21 -15 -30 -33q-12 -22 -12 -44zM273 1125q-11 -71 24 -137q14 -28 41 -52q28 -25 58 -30q24 -4 51 4v233l-90 27q-40 12 -60 19q-18 -30 -24 -64z" />
<glyph unicode="&#xab;" horiz-adv-x="1167" d="M51 750q153 -94 283 -218q158 -151 270 -327q-11 218 -135 405q-51 77 -119 140q70 65 119 139q124 187 135 405q-112 -176 -270 -327q-127 -121 -283 -217zM543 750q150 -92 282 -218q161 -153 271 -327q-11 218 -135 405q-51 77 -119 140q70 65 119 139 q124 187 135 405q-110 -174 -271 -327q-129 -123 -282 -217z" />
<glyph unicode="&#xac;" horiz-adv-x="1011" d="M31 656l250 280h467h219l2 -662h-219l-1 402h-639l-50 -49z" />
<glyph unicode="&#xad;" horiz-adv-x="1011" d="M31 656l250 280h625l47 49l30 -29l-251 -280h-622l-50 -49z" />
<glyph unicode="&#xae;" horiz-adv-x="1665" d="M3 512q0 167 65.5 319.5t176.5 262.5t264.5 175.5t321.5 65.5t321.5 -65t264 -175.5t176 -263t65.5 -319.5t-65.5 -319.5t-176 -263t-264 -175.5t-321.5 -65t-321.5 65.5t-264.5 175.5t-176.5 262.5t-65.5 319.5zM45 512q0 -159 62.5 -304t167.5 -249.5t250.5 -166.5 t305.5 -62t305.5 62t250.5 166.5t167.5 249.5t62.5 304t-62.5 304t-167.5 249.5t-250.5 166.5t-305.5 62t-305.5 -62t-250.5 -166.5t-167.5 -249.5t-62.5 -304zM437 106q19 38 40 63q48 60 119 94v236h-34q-11 0 -17 -1q-11 -2 -16 -5q-15 -8 -22 -24q-6 -14 -3 -29h-19 q-20 45 -11 87q5 27 19 45q15 19 38 30q22 10 65 10v189q0 18 -2 27q-3 14 -11 23q-6 7 -17 11q-8 3 -19 1q-19 -3 -31 -22q-8 -13 -8 -28h-24q2 35 21 65q21 33 57 50q35 17 75 12q28 -3 46 -14q21 -12 35 -32t18 -43q4 -21 4 -48v-15l41 34v110h29v-86l129 108l163 -223 l-168 -143q16 -8 34 -21q37 -27 63 -65q22 -32 36 -83q4 -13 9.5 -39t9.5 -39q12 -44 30 -74q18 -29 37 -44l70 55v-32l-157 -124q-34 17 -56 45q-24 28 -37 69q0 2 -1.5 6t-2.5 6l-161 -127q-58 44 -125 59q-42 9 -83 5q-43 -5 -79 -27q-31 -19 -53 -52h-31zM740 293 q26 -2 41 -4v500l-41 -36v-460zM810 282q59 -17 105 -54l49 38q-8 30 -11 45q-14 60 -29 91q-24 48 -59 72q-18 14 -39 21l-16 -14v-199zM810 517l162 140l-130 184l-32 -27v-297z" />
<glyph unicode="&#xaf;" horiz-adv-x="0" d="M297 1153v219l559 -2v-219z" />
<glyph unicode="&#xb0;" horiz-adv-x="479" d="M41 1266q0 80 56.5 136t135.5 56q80 0 136.5 -56.5t56.5 -135.5q0 -80 -57 -136.5t-136 -56.5t-135.5 56.5t-56.5 136.5zM99 1266q0 -56 39.5 -95.5t94.5 -39.5t95 39.5t40 95.5q0 55 -39.5 94.5t-95.5 39.5q-55 0 -94.5 -39t-39.5 -95z" />
<glyph unicode="&#xb1;" horiz-adv-x="1175" d="M70 -96l199 219h858l-199 -219h-858zM70 641l199 219h220v246l220 199v-445h418l-199 -219h-219v-235l-220 -199v434h-419z" />
<glyph unicode="&#xb2;" horiz-adv-x="755" d="M11 703q2 61 38 113q33 47 88 83q101 64 230 67q115 3 201 -47q97 -57 125 -160q16 -60 2 -119q-13 -57 -50 -108q-58 -80 -186 -147q-36 -19 -104.5 -50.5t-99.5 -47.5q-87 -43 -162 -94h487q46 0 72 8q36 11 59 40l28 -14l-108 -225l-611 -2v192q78 98 198 183 q15 10 42.5 29t45 31t40.5 29.5t41 33.5q68 60 92 121q19 50 15 98q-5 54 -32 94q-30 44 -74 66q-46 23 -97 20q-62 -3 -111 -40q-50 -38 -70 -95q43 10 79 -18t39 -71t-27 -75q-29 -30 -73 -30q-53 0 -87 42q-30 37 -30 93z" />
<glyph unicode="&#xb3;" horiz-adv-x="692" d="M40 198q-2 55 30 94q34 42 87 42q44 0 73 -31q30 -32 27 -74q-3 -44 -38 -71q-36 -28 -79 -18q24 -55 76 -83t111 -17q71 12 120 74q45 57 50 132q5 95 -56 159q-46 47 -111 55q-72 8 -131 -34l-42 31l381 313h-479l35 181h549l-22 -179l-187 -153q105 -2 180 -72 q69 -64 83 -161q14 -93 -29 -180q-47 -96 -148 -155q-97 -57 -207 -57q-104 0 -178 50q-40 26 -66 66q-28 42 -29 88z" />
<glyph unicode="&#xb4;" horiz-adv-x="573" d="M130 1128l176 360l105 -81l-263 -292z" />
<glyph unicode="&#xb5;" horiz-adv-x="1089" d="M23 871l243 171q162 -60 162 -246v-219v-274l129 -122l97 72v37v62v421l-107 94l193 177l136 -117l72 49l29 -39l-88 -69v-489l1 -85q2 -103 55 -140l77 62l37 -51l-245 -169q-70 9 -109.5 64t-47.5 135l-229 -179v-313h-224v471v585q0 88 -53 111q-49 21 -108 -28z" />
<glyph unicode="&#xb6;" horiz-adv-x="1298" d="M32 1009q27 -173 155 -290q74 -68 171.5 -102t198.5 -27v-651q0 -32 -7 -52q-10 -27 -28 -44q-26 -25 -63 -36v-67q175 40 276 133q53 48 74 105q18 49 18 128v1047q0 96 26 157q27 64 95 128q53 50 156 127l-46 42l-323 1q-237 0 -363 -47q-88 -33 -160.5 -92.5 t-117.5 -137.5q-88 -153 -62 -322zM115 -16q-12 -91 43 -172q49 -73 136 -116q150 -75 353 -44q156 24 274 107q86 61 145 153t86 199q16 65 24 147t9 131.5t1 149.5v606q0 133 14 205q20 105 72 192l-26 26q-18 -14 -43 -32q-9 -7 -37.5 -27.5t-40 -29t-35 -27.5t-37 -32 t-30.5 -31.5t-30 -37.5q-53 -75 -69 -180q-9 -58 -9 -194v-829q0 -128 -26 -200q-34 -96 -117 -164q-72 -60 -158 -82q-91 -24 -177 0q-64 17 -116.5 61t-80.5 104q34 -16 71 -14q36 1 69 22q31 19 50 52q17 30 19 70q2 64 -45 111q-45 45 -112 45t-120 -51 q-47 -46 -57 -118z" />
<glyph unicode="&#xb7;" horiz-adv-x="432" d="M31 828l184 184l187 -187l-184 -184z" />
<glyph unicode="&#xb8;" horiz-adv-x="417" d="M18 244l221 105q70 -31 111 -81q44 -55 41 -115q-3 -49 -38 -95q-33 -43 -82 -80q-72 -54 -191 -112l-13 15q48 19 83 52t49 71q28 77 -24 146q-53 70 -157 94z" />
<glyph unicode="&#xb9;" horiz-adv-x="399" d="M53 800l1 48l272 114v-959h-216v685q0 44 -10 66q-15 34 -47 46z" />
<glyph unicode="&#xba;" horiz-adv-x="804" d="M77 896l79 64v395l346 199l220 -169v-420l-338 -206l-216 156l-64 -52zM354 994l177 -117v441l-177 118v-442z" />
<glyph unicode="&#xbb;" horiz-adv-x="1167" d="M51 205q11 218 135 405q51 77 119 140q-70 65 -119 139q-124 187 -135 405q110 -174 271 -327q129 -123 282 -217q-150 -92 -282 -218q-161 -153 -271 -327zM543 205q11 218 135 405q51 77 119 140q-70 65 -119 139q-124 187 -135 405q112 -176 270 -327 q127 -121 283 -217q-153 -94 -283 -218q-158 -151 -270 -327z" />
<glyph unicode="&#xbf;" horiz-adv-x="653" d="M-2 390q62 109 81 229q21 124 -7 252l182 73q52 22 76 36q41 24 65 52q59 67 46 156l53 2l41 -387l-411 -192l501 -325l-161 -308l-41 20l34 76zM256 1436l184 184l187 -187l-184 -184z" />
<glyph unicode="&#xc0;" d="M31 -20q55 148 178 248q39 31 87 58l225 373q-71 33 -132 95q-80 83 -109 197q-27 111 0 223q27 110 101 198q71 85 174 136.5t216 61.5q109 10 218.5 -19t201.5 -91l126 121l45 -37l-36 -39q-29 -40 -40 -89q-8 -37 -8 -97v-64v-689v-51q0 -123 9 -163q18 -81 79 -129 l70 57l59 -67l-272 -220q-57 37 -115 87q-68 58 -131 132l-229 -198q-67 58 -151.5 89t-172.5 30q-99 -1 -192.5 -41t-161.5 -112h-39zM382.5 1059q-10.5 -71 5.5 -139q33 -141 152 -229l390 646q-77 33 -158 34q-105 3 -196 -44q-93 -48 -147 -137q-36 -60 -46.5 -131z M389 326q50 17 100 24q104 15 209 -8.5t193 -81.5l123 104v191h-487zM654 766h360v525q-20 14 -31 20zM859 2013l263 -292l18 14l-175 359z" />
<glyph unicode="&#xc1;" d="M31 -20q55 148 178 248q39 31 87 58l225 373q-71 33 -132 95q-80 83 -109 197q-27 111 0 223q27 110 101 198q71 85 174 136.5t216 61.5q109 10 218.5 -19t201.5 -91l126 121l45 -37l-36 -39q-29 -40 -40 -89q-8 -37 -8 -97v-64v-689v-51q0 -123 9 -163q18 -81 79 -129 l70 57l59 -67l-272 -220q-57 37 -115 87q-68 58 -131 132l-229 -198q-67 58 -151.5 89t-172.5 30q-99 -1 -192.5 -41t-161.5 -112h-39zM382.5 1059q-10.5 -71 5.5 -139q33 -141 152 -229l390 646q-77 33 -158 34q-105 3 -196 -44q-93 -48 -147 -137q-36 -60 -46.5 -131z M389 326q50 17 100 24q104 15 209 -8.5t193 -81.5l123 104v191h-487zM654 766h360v525q-20 14 -31 20zM859 1735l176 359l105 -81l-263 -292z" />
<glyph unicode="&#xc2;" d="M31 -20q55 148 178 248q39 31 87 58l225 373q-71 33 -132 95q-80 83 -109 197q-27 111 0 223q27 110 101 198q71 85 174 136.5t216 61.5q109 10 218.5 -19t201.5 -91l126 121l45 -37l-36 -39q-29 -40 -40 -89q-8 -37 -8 -97v-64v-689v-51q0 -123 9 -163q18 -81 79 -129 l70 57l59 -67l-272 -220q-57 37 -115 87q-68 58 -131 132l-229 -198q-67 58 -151.5 89t-172.5 30q-99 -1 -192.5 -41t-161.5 -112h-39zM382.5 1059q-10.5 -71 5.5 -139q33 -141 152 -229l390 646q-77 33 -158 34q-105 3 -196 -44q-93 -48 -147 -137q-36 -60 -46.5 -131z M389 326q50 17 100 24q104 15 209 -8.5t193 -81.5l123 104v191h-487zM574 1725l317 322l339 -313l12 -9l103 163l-347 320l-2 2l-12 9l-408 -414zM654 766h360v525q-20 14 -31 20z" />
<glyph unicode="&#xc3;" d="M31 -20q55 148 178 248q39 31 87 58l225 373q-71 33 -132 95q-80 83 -109 197q-27 111 0 223q27 110 101 198q71 85 174 136.5t216 61.5q109 10 218.5 -19t201.5 -91l126 121l45 -37l-36 -39q-29 -40 -40 -89q-8 -37 -8 -97v-64v-689v-51q0 -123 9 -163q18 -81 79 -129 l70 57l59 -67l-272 -220q-57 37 -115 87q-68 58 -131 132l-229 -198q-67 58 -151.5 89t-172.5 30q-99 -1 -192.5 -41t-161.5 -112h-39zM382.5 1059q-10.5 -71 5.5 -139q33 -141 152 -229l390 646q-77 33 -158 34q-105 3 -196 -44q-93 -48 -147 -137q-36 -60 -46.5 -131z M389 326q50 17 100 24q104 15 209 -8.5t193 -81.5l123 104v191h-487zM555 1744q30 47 64 88q58 66 113 96q64 34 140 31q56 -2 141 -30q74 -24 112 -32q68 -14 115 -3q32 8 56 25q29 21 44 52l53 -25q-24 -56 -57 -99q-47 -61 -113 -96q-55 -29 -115 -32q-53 -3 -117 16 q-23 6 -67.5 23t-67.5 23q-78 22 -141 4q-30 -9 -56 -25q-27 -17 -52 -42zM654 766h360v525q-20 14 -31 20z" />
<glyph unicode="&#xc4;" d="M31 -20q55 148 178 248q39 31 87 58l225 373q-71 33 -132 95q-80 83 -109 197q-27 111 0 223q27 110 101 198q71 85 174 136.5t216 61.5q109 10 218.5 -19t201.5 -91l126 121l45 -37l-36 -39q-29 -40 -40 -89q-8 -37 -8 -97v-64v-689v-51q0 -123 9 -163q18 -81 79 -129 l70 57l59 -67l-272 -220q-57 37 -115 87q-68 58 -131 132l-229 -198q-67 58 -151.5 89t-172.5 30q-99 -1 -192.5 -41t-161.5 -112h-39zM382.5 1059q-10.5 -71 5.5 -139q33 -141 152 -229l390 646q-77 33 -158 34q-105 3 -196 -44q-93 -48 -147 -137q-36 -60 -46.5 -131z M389 326q50 17 100 24q104 15 209 -8.5t193 -81.5l123 104v191h-487zM547 1953l184 184l187 -187l-184 -184zM654 766h360v525q-20 14 -31 20zM1018 1953l184 184l187 -187l-184 -184z" />
<glyph unicode="&#xc5;" d="M31 -20q55 148 178 248q39 31 87 58l225 373q-71 33 -132 95q-80 83 -109 197q-27 111 0 223q27 110 101 198q71 85 174 136.5t216 61.5q55 4 111 0q-65 15 -107 67.5t-42 119.5q0 79 56.5 136t136.5 57q79 0 135.5 -56.5t56.5 -136.5q0 -79 -56 -135.5t-136 -56.5h-3 q147 -23 268 -105l126 121l45 -37l-36 -39q-29 -40 -40 -89q-8 -37 -8 -97v-64v-689v-51q0 -123 9 -163q18 -81 79 -129l70 57l59 -67l-272 -220q-57 37 -115 87q-68 58 -131 132l-229 -198q-67 58 -151.5 89t-172.5 30q-99 -1 -192.5 -41t-161.5 -112h-39zM382.5 1059 q-10.5 -71 5.5 -139q33 -141 152 -229l390 646q-77 33 -158 34q-105 3 -196 -44q-93 -48 -147 -137q-36 -60 -46.5 -131zM389 326q50 17 100 24q104 15 209 -8.5t193 -81.5l123 104v191h-487zM654 766h360v525q-20 14 -31 20zM791 1757q0 -55 39.5 -95t95.5 -40 q55 0 94.5 39.5t39.5 95.5t-39.5 95.5t-94.5 39.5q-56 0 -95.5 -40t-39.5 -95z" />
<glyph unicode="&#xc6;" horiz-adv-x="2433" d="M47 -20q54 147 179 248q41 33 86 58l226 373q-73 34 -133 95q-80 83 -109 197q-27 111 0 223q27 110 101 198q71 85 174 136.5t216 61.5q109 10 218.5 -19t201.5 -91l127 121l44 -37q-21 -19 -35 -39q-29 -40 -40 -89q-9 -41 -9 -97v-64v-66l634 386q95 -70 210 -123 q66 -29 137 -52l65 53l16 -20l-243 -254q-113 45 -220 104q-5 3 -15 8.5t-15 8.5v-358h477l-250 -260h-227v-483q134 12 244 86q116 77 179 207h40q-4 -107 -55 -211q-71 -144 -207 -227q-132 -81 -294 -89q-148 -7 -290 52.5t-246 169.5q-58 60 -101 135l-20 -4l-349 -304 q-67 58 -151.5 89t-172.5 30q-99 -1 -192.5 -41t-161.5 -112h-39zM398.5 1059q-10.5 -71 5.5 -139t56 -127.5t97 -101.5l389 646q-77 33 -158 34q-105 3 -196 -44q-93 -48 -147 -137q-36 -60 -46.5 -131zM405 326q49 16 101 24q104 15 208.5 -8.5t192.5 -81.5l123 106v189 h-487zM671 766h359v525q-20 14 -31 20zM1294 581q11 -36 31 -76l123 53v656l-154 -93v-540zM1352 458q29 -48 66 -86q74 -80 176 -126t210 -49v1138q-41 26 -76 49l-15 -9l-1 -766z" />
<glyph unicode="&#xc7;" horiz-adv-x="1386" d="M31 733q8 254 163 461q153 204 395 286l20 -29q-137 -71 -221 -206l541 330q95 -70 210 -123q66 -29 137 -52l64 53l17 -20l-243 -254q-113 45 -220 104q-5 3 -15 8.5t-15 8.5v-1101q127 18 231 92q109 76 172 201h39q-6 -112 -54 -211q-67 -137 -198 -223 q-108 -69 -242 -88q14 -13 28 -30q44 -55 41 -115q-3 -49 -37 -94q-33 -43 -82 -80q-72 -54 -191 -112l-13 15q48 20 83 52t49 70q28 77 -24 147q-52 69 -157 93l118 56q-112 19 -214.5 74t-179.5 138q-101 109 -154 253.5t-48 295.5zM285 900q-11 -149 17 -278 q12 -57 35 -112l112 48v655l-110 -67q-42 -107 -54 -246zM360 461q30 -55 58 -89q81 -98 193 -143q87 -36 194 -34v1140q-41 26 -76 49l-16 -10v-765z" />
<glyph unicode="&#xc8;" horiz-adv-x="1386" d="M31 733q5 256 159 463q152 204 399 284l20 -29q-136 -70 -221 -207l541 331q95 -70 210 -123q66 -29 137 -52l64 53l17 -20l-244 -254q-109 44 -219 104q-5 3 -15.5 8.5t-15.5 8.5v-358h478l-250 -260h-228v-483q129 17 241 91q114 76 183 202h39q-4 -109 -54 -211 q-71 -144 -207 -227q-135 -83 -295 -89q-148 -6 -289 54.5t-244 170.5q-102 108 -155.5 250.5t-50.5 292.5zM285 900q-13 -147 16 -278q12 -57 35 -112l113 48v655l-110 -67q-42 -107 -54 -246zM359 460q29 -53 59 -88q79 -97 193 -142q93 -37 194 -35v1140q-41 26 -76 49 l-16 -10v-765zM794 1964l263 -292l18 14l-176 359z" />
<glyph unicode="&#xc9;" horiz-adv-x="1386" d="M31 733q5 256 159 463q152 204 399 284l20 -29q-136 -70 -221 -207l541 331q95 -70 210 -123q66 -29 137 -52l64 53l17 -20l-244 -254q-109 44 -219 104q-5 3 -15.5 8.5t-15.5 8.5v-358h478l-250 -260h-228v-483q129 17 241 91q114 76 183 202h39q-4 -109 -54 -211 q-71 -144 -207 -227q-135 -83 -295 -89q-148 -6 -289 54.5t-244 170.5q-102 108 -155.5 250.5t-50.5 292.5zM285 900q-13 -147 16 -278q12 -57 35 -112l113 48v655l-110 -67q-42 -107 -54 -246zM359 460q29 -53 59 -88q79 -97 193 -142q93 -37 194 -35v1140q-41 26 -76 49 l-16 -10v-765zM794 1686l175 359l106 -81l-263 -292z" />
<glyph unicode="&#xca;" horiz-adv-x="1386" d="M31 733q5 256 159 463q152 204 399 284l20 -29q-136 -70 -221 -207l541 331q95 -70 210 -123q66 -29 137 -52l64 53l17 -20l-244 -254q-109 44 -219 104q-5 3 -15.5 8.5t-15.5 8.5v-358h478l-250 -260h-228v-483q129 17 241 91q114 76 183 202h39q-4 -109 -54 -211 q-71 -144 -207 -227q-135 -83 -295 -89q-148 -6 -289 54.5t-244 170.5q-102 108 -155.5 250.5t-50.5 292.5zM285 900q-13 -147 16 -278q12 -57 35 -112l113 48v655l-110 -67q-42 -107 -54 -246zM359 460q29 -53 59 -88q79 -97 193 -142q93 -37 194 -35v1140q-41 26 -76 49 l-16 -10v-765zM508 1676l318 322l339 -313l11 -9l104 162l-347 321l-3 2l-11 9l-408 -414z" />
<glyph unicode="&#xcb;" horiz-adv-x="1386" d="M31 733q5 256 159 463q152 204 399 284l20 -29q-136 -70 -221 -207l541 331q95 -70 210 -123q66 -29 137 -52l64 53l17 -20l-244 -254q-109 44 -219 104q-5 3 -15.5 8.5t-15.5 8.5v-358h478l-250 -260h-228v-483q129 17 241 91q114 76 183 202h39q-4 -109 -54 -211 q-71 -144 -207 -227q-135 -83 -295 -89q-148 -6 -289 54.5t-244 170.5q-102 108 -155.5 250.5t-50.5 292.5zM285 900q-13 -147 16 -278q12 -57 35 -112l113 48v655l-110 -67q-42 -107 -54 -246zM359 460q29 -53 59 -88q79 -97 193 -142q93 -37 194 -35v1140q-41 26 -76 49 l-16 -10v-765zM481 1904l184 184l187 -187l-184 -185zM952 1904l184 184l187 -187l-184 -185z" />
<glyph unicode="&#xcc;" horiz-adv-x="1218" d="M32.5 67.5q-6.5 -50.5 7.5 -97.5q22 -73 81 -121t135 -54v33q-40 0 -67 24q-30 27 -33 62q-2 22 5 38q7 18 25 29q18 12 36 13q17 1 38 -2l189 -25q75 -10 112 -5q29 3 54 15q26 12 49 29q152 111 272 252q89 104 158 221v850q0 82 16 125q23 62 78 97l-31 34l-120 -80 q-42 -29 -69 -49t-59 -51.5t-52 -64.5q-31 -49 -44 -114q-8 -40 -8 -123v-857q0 -49 -11 -74q-16 -36 -50 -53q-50 13 -119 40q-25 10 -91.5 39.5t-103.5 42.5q-116 42 -207 24q-104 -21 -158 -106q-26 -41 -32.5 -91.5zM132 1305q54 134 159 218q83 67 183 76q65 5 151 -16 q118 -29 149 -32q67 -6 128 16q43 16 79 49l-3 -54q-34 -51 -80 -88q-14 -12 -48 -36.5t-51 -39.5q-49 -42 -75 -99q-34 -74 -34 -195v-290v-158q0 -46 -5 -80q-6 -42 -25 -77q-32 -62 -113 -113q-76 -48 -180 -79h-68q56 30 89 88q25 42 33 101q5 35 5 107v146h-75 q-25 0 -38 -2q-18 -3 -36 -14q-33 -22 -42 -61q-6 -25 -1 -53h-39q-31 57 -31 121q0 22 5 47q9 51 39 89q30 39 76 61q41 19 142 36v54q0 46 5 68q8 37 25 63q24 38 97 93q71 54 164 130q-68 -22 -135 -23q-55 -1 -130 11q-100 16 -128 17q-50 0 -81 -15q-46 -21 -63 -66 h-48zM622 2046l263 -292l17 13l-175 360z" />
<glyph unicode="&#xcd;" horiz-adv-x="1218" d="M32.5 67.5q-6.5 -50.5 7.5 -97.5q22 -73 81 -121t135 -54v33q-40 0 -67 24q-30 27 -33 62q-2 22 5 38q7 18 25 29q18 12 36 13q17 1 38 -2l189 -25q75 -10 112 -5q29 3 54 15q26 12 49 29q152 111 272 252q89 104 158 221v850q0 82 16 125q23 62 78 97l-31 34l-120 -80 q-42 -29 -69 -49t-59 -51.5t-52 -64.5q-31 -49 -44 -114q-8 -40 -8 -123v-857q0 -49 -11 -74q-16 -36 -50 -53q-50 13 -119 40q-25 10 -91.5 39.5t-103.5 42.5q-116 42 -207 24q-104 -21 -158 -106q-26 -41 -32.5 -91.5zM132 1305q54 134 159 218q83 67 183 76q65 5 151 -16 q118 -29 149 -32q67 -6 128 16q43 16 79 49l-3 -54q-34 -51 -80 -88q-14 -12 -48 -36.5t-51 -39.5q-49 -42 -75 -99q-34 -74 -34 -195v-290v-158q0 -46 -5 -80q-6 -42 -25 -77q-32 -62 -113 -113q-76 -48 -180 -79h-68q56 30 89 88q25 42 33 101q5 35 5 107v146h-75 q-25 0 -38 -2q-18 -3 -36 -14q-33 -22 -42 -61q-6 -25 -1 -53h-39q-31 57 -31 121q0 22 5 47q9 51 39 89q30 39 76 61q41 19 142 36v54q0 46 5 68q8 37 25 63q24 38 97 93q71 54 164 130q-68 -22 -135 -23q-55 -1 -130 11q-100 16 -128 17q-50 0 -81 -15q-46 -21 -63 -66 h-48zM622 1767l175 360l105 -81l-262 -292z" />
<glyph unicode="&#xce;" horiz-adv-x="1218" d="M32.5 67.5q-6.5 -50.5 7.5 -97.5q22 -73 81 -121t135 -54v33q-40 0 -67 24q-30 27 -33 62q-2 22 5 38q7 18 25 29q18 12 36 13q17 1 38 -2l189 -25q75 -10 112 -5q29 3 54 15q26 12 49 29q152 111 272 252q89 104 158 221v850q0 82 16 125q23 62 78 97l-31 34l-120 -80 q-42 -29 -69 -49t-59 -51.5t-52 -64.5q-31 -49 -44 -114q-8 -40 -8 -123v-857q0 -49 -11 -74q-16 -36 -50 -53q-50 13 -119 40q-25 10 -91.5 39.5t-103.5 42.5q-116 42 -207 24q-104 -21 -158 -106q-26 -41 -32.5 -91.5zM132 1305q54 134 159 218q83 67 183 76q65 5 151 -16 q118 -29 149 -32q67 -6 128 16q43 16 79 49l-3 -54q-34 -51 -80 -88q-14 -12 -48 -36.5t-51 -39.5q-49 -42 -75 -99q-34 -74 -34 -195v-290v-158q0 -46 -5 -80q-6 -42 -25 -77q-32 -62 -113 -113q-76 -48 -180 -79h-68q56 30 89 88q25 42 33 101q5 35 5 107v146h-75 q-25 0 -38 -2q-18 -3 -36 -14q-33 -22 -42 -61q-6 -25 -1 -53h-39q-31 57 -31 121q0 22 5 47q9 51 39 89q30 39 76 61q41 19 142 36v54q0 46 5 68q8 37 25 63q24 38 97 93q71 54 164 130q-68 -22 -135 -23q-55 -1 -130 11q-100 16 -128 17q-50 0 -81 -15q-46 -21 -63 -66 h-48zM336 1758l318 322l339 -313l11 -9l104 162l-347 321l-3 2l-11 9l-408 -414z" />
<glyph unicode="&#xcf;" horiz-adv-x="1218" d="M32.5 67.5q-6.5 -50.5 7.5 -97.5q22 -73 81 -121t135 -54v33q-40 0 -67 24q-30 27 -33 62q-2 22 5 38q7 18 25 29q18 12 36 13q17 1 38 -2l189 -25q75 -10 112 -5q29 3 54 15q26 12 49 29q152 111 272 252q89 104 158 221v850q0 82 16 125q23 62 78 97l-31 34l-120 -80 q-42 -29 -69 -49t-59 -51.5t-52 -64.5q-31 -49 -44 -114q-8 -40 -8 -123v-857q0 -49 -11 -74q-16 -36 -50 -53q-50 13 -119 40q-25 10 -91.5 39.5t-103.5 42.5q-116 42 -207 24q-104 -21 -158 -106q-26 -41 -32.5 -91.5zM132 1305q54 134 159 218q83 67 183 76q65 5 151 -16 q118 -29 149 -32q67 -6 128 16q43 16 79 49l-3 -54q-34 -51 -80 -88q-14 -12 -48 -36.5t-51 -39.5q-49 -42 -75 -99q-34 -74 -34 -195v-290v-158q0 -46 -5 -80q-6 -42 -25 -77q-32 -62 -113 -113q-76 -48 -180 -79h-68q56 30 89 88q25 42 33 101q5 35 5 107v146h-75 q-25 0 -38 -2q-18 -3 -36 -14q-33 -22 -42 -61q-6 -25 -1 -53h-39q-31 57 -31 121q0 22 5 47q9 51 39 89q30 39 76 61q41 19 142 36v54q0 46 5 68q8 37 25 63q24 38 97 93q71 54 164 130q-68 -22 -135 -23q-55 -1 -130 11q-100 16 -128 17q-50 0 -81 -15q-46 -21 -63 -66 h-48zM309 1985l184 185l187 -188l-184 -184zM780 1985l184 185l187 -188l-184 -184z" />
<glyph unicode="&#xd0;" horiz-adv-x="1529" d="M31 -65q66 125 177 217.5t245 134.5q68 68 105 113q40 51 54 91q14 39 14 105v95l-73 -5v-16q0 -76 -11 -119q-15 -59 -50 -109q-52 -75 -133 -126t-176 -74l-19 49q36 20 65 57q45 58 55 150q5 45 5 162v9l-50 -3q-24 -2 -36 -5q-24 -6 -35 -12q-32 -19 -44 -58 q-6 -22 -2 -44h-39q-52 81 -26 172q25 90 115 143q47 27 117 41v41q0 39 5 66q6 34 24 62q26 41 98 88l162 106h-285q-35 0 -56 7q-26 9 -46 32q-23 27 -35 70q-9 33 -11 78q-1 72 20 156l44 -2q4 -24 20 -44q14 -19 36 -31q18 -11 46 -14q16 -2 48 -2h560q160 0 251 -38 q117 -49 197 -159q117 -164 131 -418q12 -209 -49 -422q-29 -104 -84 -217l-512 -281q-152 108 -339 113q-116 3 -227.5 -39t-197.5 -120h-58zM553 922q36 2 54 5q3 1 9.5 2t9.5 1v35q0 123 25 191q23 62 67 110h-66q-58 -51 -79 -99q-20 -47 -20 -129v-116zM556 311 q118 18 235 -3v946q-60 -46 -86 -117q-21 -57 -21 -172l-1 -160v-209q0 -76 -17 -124q-19 -53 -64 -108q-30 -36 -46 -53zM849 295q145 -37 258 -125q63 160 92 329q23 138 23 253l-373 -189v-268zM849 629l372 188q0 4 -0.5 11.5t-0.5 11.5q-5 69 -17 124l-354 -178v-157z M849 851l338 171q-28 84 -77 140q-52 59 -124 85q-56 19 -137 19v-415z" />
<glyph unicode="&#xd1;" horiz-adv-x="1470" d="M31 100q0 98 62 171q54 65 143 92q51 15 106 15v336h-22q-28 0 -34 -1q-20 -4 -32 -11q-17 -10 -25 -24q-10 -16 -8 -33q2 -28 27 -45l-11 -29q-59 16 -99 63q-39 46 -45 109q-9 103 70 179q44 43 106 60q34 10 73 10v277q-6 8 -10 12q-21 24 -43 36q-27 14 -54 7 q-25 -6 -40 -26q-12 -16 -23 -43q-8 -21 -12 -38l-39 10q-22 109 36 203q46 74 125 105q81 32 162 6q63 -20 105 -71q17 -20 44 -61t37 -55l493 -825q8 157 10 335q2 182 -4 340q-63 5 -120 30q-53 23 -92 61l-79 -87l-29 29l255 295l40 -1q22 -28 48 -47q30 -23 70 -34 q42 -12 77 -2q37 10 61 37q25 28 28 66l28 -1q34 -65 22 -137t-63 -124q-42 -43 -101 -65q-46 -17 -94 -20v-1204h-77l-616 1042l-71 120q-13 24 -16 28v-816q1 0 3.5 -0.5t3.5 -0.5q139 -23 244 -128l69 79l29 -30l-264 -294q-50 53 -106 75q-50 19 -90 11q-23 -5 -42 -19 q-20 -15 -29 -36q-9 -22 -8 -44q2 -23 13 -44q18 -32 53 -49q32 -16 71 -13l-10 -39q-66 -11 -132 13t-110 75q-64 73 -64 170zM407 1678q30 46 65 89q59 67 112 96q64 34 141 31q56 -2 141 -30q74 -24 112 -32q67 -14 114 -3q32 8 56 25q30 22 44 51l53 -25 q-24 -57 -56 -98q-48 -62 -113 -97q-53 -28 -115 -31q-56 -3 -118 15q-23 7 -67.5 24t-67.5 23q-77 22 -140 4q-30 -9 -56 -25q-27 -17 -52 -42z" />
<glyph unicode="&#xd2;" horiz-adv-x="1480" d="M33 687q-17 281 107 516q72 137 188.5 243.5t258.5 163.5l30 -37q-142 -101 -226 -253l-4 -8l592 255q117 -48 214.5 -134.5t159.5 -197.5q96 -171 98 -370q1 -191 -85 -373q-84 -176 -231 -321q-94 -94 -194 -151q-113 -64 -234 -76q-150 -14 -283 55q-125 64 -218 190 q-155 209 -173 498zM284 914q-6 -172 46 -330q1 -3 3 -9.5t3 -9.5l142 61v662l-127 -53q-61 -150 -67 -321zM356 514q57 -130 145 -214q72 -69 154 -102q88 -36 181 -31h2v1175q-36 26 -91 58l-4 -2v-721zM753 2054l263 -292l18 14l-176 359zM896 175q82 18 143 59 q88 59 142 160q81 153 55 342l-340 -171v-390zM896 630l328 166q-15 67 -42 128l-286 -144v-150zM896 845l261 132q-42 81 -86 138q-77 101 -175 181v-451z" />
<glyph unicode="&#xd3;" horiz-adv-x="1480" d="M33 687q-17 281 107 516q72 137 188.5 243.5t258.5 163.5l30 -37q-142 -101 -226 -253l-4 -8l592 255q117 -48 214.5 -134.5t159.5 -197.5q96 -171 98 -370q1 -191 -85 -373q-84 -176 -231 -321q-94 -94 -194 -151q-113 -64 -234 -76q-150 -14 -283 55q-125 64 -218 190 q-155 209 -173 498zM284 914q-6 -172 46 -330q1 -3 3 -9.5t3 -9.5l142 61v662l-127 -53q-61 -150 -67 -321zM356 514q57 -130 145 -214q72 -69 154 -102q88 -36 181 -31h2v1175q-36 26 -91 58l-4 -2v-721zM753 1776l175 359l106 -81l-263 -292zM896 175q82 18 143 59 q88 59 142 160q81 153 55 342l-340 -171v-390zM896 630l328 166q-15 67 -42 128l-286 -144v-150zM896 845l261 132q-42 81 -86 138q-77 101 -175 181v-451z" />
<glyph unicode="&#xd4;" horiz-adv-x="1480" d="M33 687q-17 281 107 516q72 137 188.5 243.5t258.5 163.5l30 -37q-142 -101 -226 -253l-4 -8l592 255q117 -48 214.5 -134.5t159.5 -197.5q96 -171 98 -370q1 -191 -85 -373q-84 -176 -231 -321q-94 -94 -194 -151q-113 -64 -234 -76q-150 -14 -283 55q-125 64 -218 190 q-155 209 -173 498zM284 914q-6 -172 46 -330q1 -3 3 -9.5t3 -9.5l142 61v662l-127 -53q-61 -150 -67 -321zM356 514q57 -130 145 -214q72 -69 154 -102q88 -36 181 -31h2v1175q-36 26 -91 58l-4 -2v-721zM467 1766l318 322l339 -313l11 -9l104 163l-347 320l-3 2l-11 9 l-408 -414zM896 175q82 18 143 59q88 59 142 160q81 153 55 342l-340 -171v-390zM896 630l328 166q-15 67 -42 128l-286 -144v-150zM896 845l261 132q-42 81 -86 138q-77 101 -175 181v-451z" />
<glyph unicode="&#xd5;" horiz-adv-x="1480" d="M33 687q-17 281 107 516q72 137 188.5 243.5t258.5 163.5l30 -37q-142 -101 -226 -253l-4 -8l592 255q117 -48 214.5 -134.5t159.5 -197.5q96 -171 98 -370q1 -191 -85 -373q-84 -176 -231 -321q-94 -94 -194 -151q-113 -64 -234 -76q-150 -14 -283 55q-125 64 -218 190 q-155 209 -173 498zM284 914q-6 -172 46 -330q1 -3 3 -9.5t3 -9.5l142 61v662l-127 -53q-61 -150 -67 -321zM356 514q57 -130 145 -214q72 -69 154 -102q88 -36 181 -31h2v1175q-36 26 -91 58l-4 -2v-721zM448 1785q30 47 64 88q58 66 113 96q64 34 140 31q57 -2 142 -30 q76 -25 111 -32q68 -14 115 -3q32 8 56 25q29 21 44 52l53 -26q-24 -57 -56 -98q-47 -61 -113 -96q-55 -29 -115 -32q-53 -3 -118 16q-23 6 -67.5 22.5t-67.5 23.5q-77 22 -140 4q-30 -9 -56 -25q-27 -17 -52 -42zM896 175q82 18 143 59q88 59 142 160q81 153 55 342 l-340 -171v-390zM896 630l328 166q-15 67 -42 128l-286 -144v-150zM896 845l261 132q-42 81 -86 138q-77 101 -175 181v-451z" />
<glyph unicode="&#xd6;" horiz-adv-x="1480" d="M33 687q-17 281 107 516q72 137 188.5 243.5t258.5 163.5l30 -37q-142 -101 -226 -253l-4 -8l592 255q117 -48 214.5 -134.5t159.5 -197.5q96 -171 98 -370q1 -191 -85 -373q-84 -176 -231 -321q-94 -94 -194 -151q-113 -64 -234 -76q-150 -14 -283 55q-125 64 -218 190 q-155 209 -173 498zM284 914q-6 -172 46 -330q1 -3 3 -9.5t3 -9.5l142 61v662l-127 -53q-61 -150 -67 -321zM356 514q57 -130 145 -214q72 -69 154 -102q88 -36 181 -31h2v1175q-36 26 -91 58l-4 -2v-721zM440 1994l184 184l187 -187l-184 -184zM896 175q82 18 143 59 q88 59 142 160q81 153 55 342l-340 -171v-390zM896 630l328 166q-15 67 -42 128l-286 -144v-150zM896 845l261 132q-42 81 -86 138q-77 101 -175 181v-451zM911 1994l184 184l187 -187l-184 -184z" />
<glyph unicode="&#xd7;" horiz-adv-x="1175" d="M141 410l316 309l-304 313h295l161 -165l169 165h295l-320 -313l301 -309h-296l-157 161l-164 -161h-296z" />
<glyph unicode="&#xd8;" horiz-adv-x="1480" d="M33 687q-17 281 107 516q72 137 188.5 243.5t258.5 163.5l30 -37q-142 -101 -226 -253l-4 -8l592 255q110 -45 207 -128l75 130l51 -29l-82 -142q74 -74 123 -163q96 -171 98 -370q1 -191 -85 -373q-84 -176 -231 -321q-94 -94 -194 -151q-113 -64 -234 -76 q-147 -14 -277 52l-69 -119l-51 29l69 119q-96 62 -173 164q-155 209 -173 498zM284 914q-6 -172 46 -330q1 -3 3 -9.5t3 -9.5l142 61v662l-127 -53q-61 -150 -67 -321zM356 515q58 -132 145 -215q4 -4 13 -11.5t10 -8.5l506 885q-120 140 -283 235l-4 -2v-721zM571 244 q47 -31 84 -46q88 -36 181 -31q112 6 203 67q88 59 142 160q81 153 55 342l-536 -267zM752 561l472 235q-15 67 -42 128l-307 -155l-2 4zM922 859l235 118q-42 81 -86 138q0 1 -1 1z" />
<glyph unicode="&#xd9;" horiz-adv-x="1732" d="M31 1275q89 161 183 234q40 31 77 43q46 15 88 9q32 -4 73 -21q8 -3 32 -14t38 -16q44 -17 74 -19q38 -3 75 11q30 11 89 55q4 2 10.5 7.5t9.5 8.5l48 -48q-106 -69 -186.5 -168t-127.5 -216q-72 -180 -57 -378q9 -126 56 -234l113 48v322v178q0 109 27 171 q29 66 104 138q71 67 225 179l43 1v-187l280 180l177 -148l82 67l37 -44l-91 -73v-1077l100 -85l63 54l30 -30l-271 -223l-230 193l-317 -217q-128 1 -250.5 48.5t-218.5 133.5t-158 201.5t-78 242.5q-31 235 84 442q108 195 307 295q-62 -25 -134 -14q-22 4 -124 36 q-74 23 -127 12q-40 -10 -67 -34q-29 -26 -40 -64h-48zM537 480q72 -135 197 -214q108 -66 232 -74v1296q-36 -32 -54 -77q-22 -51 -22 -156v-90v-536zM810 1997l263 -292l18 13l-176 360zM1025 192q5 0 15.5 1t15.5 2l170 111v388l-201 -101v-401zM1025 659l201 101v149 l-201 -101v-149zM1025 874l201 101v275l-114 124l-87 -54v-446z" />
<glyph unicode="&#xda;" horiz-adv-x="1732" d="M31 1275q89 161 183 234q40 31 77 43q46 15 88 9q32 -4 73 -21q8 -3 32 -14t38 -16q44 -17 74 -19q38 -3 75 11q30 11 89 55q4 2 10.5 7.5t9.5 8.5l48 -48q-106 -69 -186.5 -168t-127.5 -216q-72 -180 -57 -378q9 -126 56 -234l113 48v322v178q0 109 27 171 q29 66 104 138q71 67 225 179l43 1v-187l280 180l177 -148l82 67l37 -44l-91 -73v-1077l100 -85l63 54l30 -30l-271 -223l-230 193l-317 -217q-128 1 -250.5 48.5t-218.5 133.5t-158 201.5t-78 242.5q-31 235 84 442q108 195 307 295q-62 -25 -134 -14q-22 4 -124 36 q-74 23 -127 12q-40 -10 -67 -34q-29 -26 -40 -64h-48zM537 480q72 -135 197 -214q108 -66 232 -74v1296q-36 -32 -54 -77q-22 -51 -22 -156v-90v-536zM810 1718l176 360l105 -81l-263 -292zM1025 192q5 0 15.5 1t15.5 2l170 111v388l-201 -101v-401zM1025 659l201 101v149 l-201 -101v-149zM1025 874l201 101v275l-114 124l-87 -54v-446z" />
<glyph unicode="&#xdb;" horiz-adv-x="1732" d="M31 1275q89 161 183 234q40 31 77 43q46 15 88 9q32 -4 73 -21q8 -3 32 -14t38 -16q44 -17 74 -19q38 -3 75 11q30 11 89 55q4 2 10.5 7.5t9.5 8.5l48 -48q-106 -69 -186.5 -168t-127.5 -216q-72 -180 -57 -378q9 -126 56 -234l113 48v322v178q0 109 27 171 q29 66 104 138q71 67 225 179l43 1v-187l280 180l177 -148l82 67l37 -44l-91 -73v-1077l100 -85l63 54l30 -30l-271 -223l-230 193l-317 -217q-128 1 -250.5 48.5t-218.5 133.5t-158 201.5t-78 242.5q-31 235 84 442q108 195 307 295q-62 -25 -134 -14q-22 4 -124 36 q-74 23 -127 12q-40 -10 -67 -34q-29 -26 -40 -64h-48zM524 1709l318 321l339 -312l12 -9l103 162l-347 320l-2 3l-12 8l-408 -414zM537 480q72 -135 197 -214q108 -66 232 -74v1296q-36 -32 -54 -77q-22 -51 -22 -156v-90v-536zM1025 192q5 0 15.5 1t15.5 2l170 111v388 l-201 -101v-401zM1025 659l201 101v149l-201 -101v-149zM1025 874l201 101v275l-114 124l-87 -54v-446z" />
<glyph unicode="&#xdc;" horiz-adv-x="1732" d="M31 1275q89 161 183 234q40 31 77 43q46 15 88 9q32 -4 73 -21q8 -3 32 -14t38 -16q44 -17 74 -19q38 -3 75 11q30 11 89 55q4 2 10.5 7.5t9.5 8.5l48 -48q-106 -69 -186.5 -168t-127.5 -216q-72 -180 -57 -378q9 -126 56 -234l113 48v322v178q0 109 27 171 q29 66 104 138q71 67 225 179l43 1v-187l280 180l177 -148l82 67l37 -44l-91 -73v-1077l100 -85l63 54l30 -30l-271 -223l-230 193l-317 -217q-128 1 -250.5 48.5t-218.5 133.5t-158 201.5t-78 242.5q-31 235 84 442q108 195 307 295q-62 -25 -134 -14q-22 4 -124 36 q-74 23 -127 12q-40 -10 -67 -34q-29 -26 -40 -64h-48zM497 1936l184 184l188 -187l-184 -184zM537 480q72 -135 197 -214q108 -66 232 -74v1296q-36 -32 -54 -77q-22 -51 -22 -156v-90v-536zM968 1936l185 184l187 -187l-184 -184zM1025 192q5 0 15.5 1t15.5 2l170 111v388 l-201 -101v-401zM1025 659l201 101v149l-201 -101v-149zM1025 874l201 101v275l-114 124l-87 -54v-446z" />
<glyph unicode="&#xdd;" horiz-adv-x="1400" d="M32 646q-9 104 69 179q44 43 106 60q42 12 87 9v339q0 30 -4 53q-5 27 -23 47q-14 14 -33 19t-38 0q-37 -10 -59 -47q-15 -24 -19 -49h-49q3 71 42 132q42 65 115 99q71 33 150 24q51 -6 91 -28q44 -23 71 -63q26 -38 36 -88q7 -36 7 -95v-1088q13 -3 52.5 -13t61.5 -15 q3 -1 9.5 -2t9.5 -2v1385h59v-206l278 225l207 -179l77 62l36 -44l-104 -85l1 -974q0 -85 -15 -129q-23 -66 -75 -105q-51 -38 -121 -46q-52 -6 -131 5q-58 9 -164 32t-142 30q-89 17 -155 20q-92 4 -152 -28q-32 -16 -51 -42q-21 -29 -24 -61q-3 -33 12 -60q15 -28 42 -45 q44 -30 118 -26q39 2 81 11t96 23.5t80 20.5q143 32 259 40q114 9 192 -15q49 -14 86 -44q39 -31 60 -75q21 -46 18 -92q-3 -47 -26 -90q-44 -82 -139 -123q-32 -14 -76 -23l-10 40q11 1 21 6q23 11 37 33t11 48q-1 20 -17 41q-13 18 -35 27q-36 16 -88 11q-34 -3 -70.5 -9 t-83 -15.5t-69.5 -13.5q-36 -6 -108.5 -20t-110.5 -20q-134 -22 -222 4q-66 18 -116 64t-72 112q-33 101 15 199q45 94 142 143q9 5 29 13v475h-36q-28 0 -34 -1q-20 -4 -32 -11q-17 -10 -25 -24q-10 -16 -8 -33q2 -28 27 -45l-11 -29q-59 16 -99 63q-38 47 -44 109z M565 1645l175 359l105 -81l-263 -292zM773 111q44 0 76 12q41 14 70 45q28 30 44 71q19 53 19 167v180q-52 42 -118 39q-48 -3 -91 -33v-481zM773 652q42 29 93 31q64 3 116 -38v195q-52 -41 -116 -38q-50 2 -93 32v-182zM773 893q41 -29 91 -32q66 -3 118 39v317l-111 85 l-98 -78v-331z" />
<glyph unicode="&#xde;" horiz-adv-x="1382" d="M31 69q99 179 290 278v342h-35q-45 2 -67 -1q-16 -1 -32 -8q-14 -6 -26 -19q-21 -23 -21 -57v-7h-47q-20 55 -9 114q11 57 45 98q35 43 86 66q49 22 106 19v339q0 30 -4 53q-5 27 -23 47q-14 14 -33 19t-38 0q-37 -10 -59 -47q-13 -22 -18 -49h-49q6 74 41 132 q43 72 113 106q75 37 152 17q78 -20 129 -85q43 -56 62 -142q7 -36 11 -80.5t4 -71.5t-0.5 -85.5t-0.5 -75.5v-37l70 51v524h58v-482l364 265q80 -56 140 -116q58 -57 114 -134v-651l-538 -290q-42 37 -80 60v-331v-58h-128h-287v445q-147 -43 -243 -148h-47zM608 -170h70 v362q-28 13 -70 25v-387zM608 425q23 1 70 -1v498l-70 -49v-448zM736 418q174 -25 311 -126l45 26v344l-356 -179v-65zM736 549l356 179v149l-356 -179v-149zM736 763l332 168q-39 42 -75 74q-48 42 -93 74l-164 -115v-201z" />
<glyph unicode="&#xdf;" horiz-adv-x="1122" d="M31 176l137 89v542q0 20 -2 29q-3 16 -12 28q-14 20 -37 31t-47 9v29l98 105v264l457 258l274 -170l-253 -142l-223 141v-121v-404v-57l87 81l275 -198l-226 -209q69 -25 125 -74t89 -114q70 -138 26 -285q-32 -110 -123 -187q-89 -76 -206 -88l4 -49q178 -22 334 67 t228 254q38 88 43.5 186t-23.5 189q-28 91 -88 169t-141 129l189 170l-351 239l-242 -223v-57v-562l116 -97l68 37l30 -40l-282 -145l-216 186l-79 -49z" />
<glyph unicode="&#xe0;" horiz-adv-x="993" d="M31 272q3 56 35 109q25 41 76 87q59 52 134 91q-10 4 -30 14q-82 39 -119 96q-24 37 -27 77q-3 37 14 73q16 33 46 60q22 20 68 43l226 118l302 -195l83 67l36 -44l-107 -87v-516l98 -99l89 59l9 -39l-285 -196l-156 157l-216 -157q-137 18 -219 117q-63 76 -57 165z M159 765q1 -41 31 -77q31 -39 98 -71q44 -22 114 -43q48 -15 111 -30v192l-255 157q-25 -10 -43 -24q-26 -20 -41 -46q-15 -27 -15 -58zM280 459q-15 -91 33 -181q23 -43 53 -70q35 -32 78 -39q36 -6 69 4v311q-20 6 -60.5 18.5t-60.5 18.5q-54 16 -80 25q-24 -39 -32 -87z M384 1440l263 -292l18 13l-176 360z" />
<glyph unicode="&#xe1;" horiz-adv-x="993" d="M31 272q3 56 35 109q25 41 76 87q59 52 134 91q-10 4 -30 14q-82 39 -119 96q-24 37 -27 77q-3 37 14 73q16 33 46 60q22 20 68 43l226 118l302 -195l83 67l36 -44l-107 -87v-516l98 -99l89 59l9 -39l-285 -196l-156 157l-216 -157q-137 18 -219 117q-63 76 -57 165z M159 765q1 -41 31 -77q31 -39 98 -71q44 -22 114 -43q48 -15 111 -30v192l-255 157q-25 -10 -43 -24q-26 -20 -41 -46q-15 -27 -15 -58zM280 459q-15 -91 33 -181q23 -43 53 -70q35 -32 78 -39q36 -6 69 4v311q-20 6 -60.5 18.5t-60.5 18.5q-54 16 -80 25q-24 -39 -32 -87z M384 1161l176 360l105 -81l-263 -292z" />
<glyph unicode="&#xe2;" horiz-adv-x="993" d="M31 272q3 56 35 109q25 41 76 87q59 52 134 91q-10 4 -30 14q-82 39 -119 96q-24 37 -27 77q-3 37 14 73q16 33 46 60q22 20 68 43l226 118l302 -195l83 67l36 -44l-107 -87v-516l98 -99l89 59l9 -39l-285 -196l-156 157l-216 -157q-137 18 -219 117q-63 76 -57 165z M99 1152l317 321l339 -312l12 -9l103 162l-347 320l-2 2l-12 9l-408 -414zM159 765q1 -41 31 -77q31 -39 98 -71q44 -22 114 -43q48 -15 111 -30v192l-255 157q-25 -10 -43 -24q-26 -20 -41 -46q-15 -27 -15 -58zM280 459q-15 -91 33 -181q23 -43 53 -70q35 -32 78 -39 q36 -6 69 4v311q-20 6 -60.5 18.5t-60.5 18.5q-54 16 -80 25q-24 -39 -32 -87z" />
<glyph unicode="&#xe3;" horiz-adv-x="993" d="M31 272q3 56 35 109q25 41 76 87q59 52 134 91q-10 4 -30 14q-82 39 -119 96q-24 37 -27 77q-3 37 14 73q16 33 46 60q22 20 68 43l226 118l302 -195l83 67l36 -44l-107 -87v-516l98 -99l89 59l9 -39l-285 -196l-156 157l-216 -157q-137 18 -219 117q-63 76 -57 165z M79 1170q30 46 65 89q58 66 113 96q64 34 140 31q56 -2 141 -30q74 -24 112 -32q67 -14 114 -3q33 8 57 25q30 22 44 51l52 -25q-24 -57 -56 -98q-47 -61 -113 -96q-55 -29 -115 -32q-56 -3 -117 15q-23 6 -68 23t-68 24q-77 22 -140 4q-30 -9 -56 -25q-27 -17 -52 -42z M159 765q1 -41 31 -77q31 -39 98 -71q44 -22 114 -43q48 -15 111 -30v192l-255 157q-25 -10 -43 -24q-26 -20 -41 -46q-15 -27 -15 -58zM280 459q-15 -91 33 -181q23 -43 53 -70q35 -32 78 -39q36 -6 69 4v311q-20 6 -60.5 18.5t-60.5 18.5q-54 16 -80 25q-24 -39 -32 -87z " />
<glyph unicode="&#xe4;" horiz-adv-x="993" d="M31 272q3 56 35 109q25 41 76 87q59 52 134 91q-10 4 -30 14q-82 39 -119 96q-24 37 -27 77q-3 37 14 73q16 33 46 60q22 20 68 43l226 118l302 -195l83 67l36 -44l-107 -87v-516l98 -99l89 59l9 -39l-285 -196l-156 157l-216 -157q-137 18 -219 117q-63 76 -57 165z M71 1379l185 184l187 -187l-184 -184zM159 765q1 -41 31 -77q31 -39 98 -71q44 -22 114 -43q48 -15 111 -30v192l-255 157q-25 -10 -43 -24q-26 -20 -41 -46q-15 -27 -15 -58zM280 459q-15 -91 33 -181q23 -43 53 -70q35 -32 78 -39q36 -6 69 4v311q-20 6 -60.5 18.5 t-60.5 18.5q-54 16 -80 25q-24 -39 -32 -87zM542 1379l185 184l187 -187l-184 -184z" />
<glyph unicode="&#xe5;" horiz-adv-x="993" d="M31 272q3 56 35 109q25 41 76 87q59 52 134 91q-10 4 -30 14q-82 39 -119 96q-24 37 -27 77q-3 37 14 73q16 33 46 60q22 20 68 43l155 81q-55 21 -90 70.5t-35 110.5q0 79 56.5 135.5t136.5 56.5q79 0 135.5 -56t56.5 -136q0 -62 -36.5 -112t-93.5 -70l243 -157l83 67 l36 -44l-107 -87v-516l98 -99l89 59l9 -39l-285 -196l-156 157l-216 -157q-137 18 -219 117q-63 76 -57 165zM159 765q1 -41 31 -77q31 -39 98 -71q44 -22 114 -43q48 -15 111 -30v192l-255 157q-25 -10 -43 -24q-26 -20 -41 -46q-15 -27 -15 -58zM280 459q-15 -91 33 -181 q23 -43 53 -70q35 -32 78 -39q36 -6 69 4v311q-20 6 -60.5 18.5t-60.5 18.5q-54 16 -80 25q-24 -39 -32 -87zM316 1184q0 -56 40 -95.5t95 -39.5t94.5 39.5t39.5 95.5t-39.5 95t-94.5 39q-56 0 -95.5 -39.5t-39.5 -94.5z" />
<glyph unicode="&#xe6;" horiz-adv-x="1290" d="M31 272q3 56 35 109q25 41 76 87q61 54 136 92q-6 2 -15.5 7t-12.5 6q-82 39 -119 96q-23 35 -26 77q-3 39 13 73q16 33 46 60q23 20 68 43l226 118l237 -153l313 163l206 -314v-10l-442 -275v-88l245 -167l226 177l30 -49l-423 -344l-287 213l-256 -203 q-137 18 -219 117q-63 76 -57 165zM163 765q1 -41 31 -77q31 -39 98 -71q43 -21 115 -43q52 -16 110 -30v192l-255 157q-25 -10 -43 -24q-25 -19 -40 -46q-16 -29 -16 -58zM280 459q-15 -93 33 -181q21 -38 50 -62q35 -28 74 -28q51 0 80 40v257q-20 6 -60.5 18t-60.5 18 q-60 17 -84 26q-24 -38 -32 -88zM772 501l216 137l-177 255l-39 -22v-33v-337z" />
<glyph unicode="&#xe7;" horiz-adv-x="700" d="M31 211l282 -192l40 19q21 -10 37 -19l280 246l-27 35l-118 -85q-70 2 -130 37q-67 40 -101 104v533l182 -152l195 148l-217 174l-423 -236v-612zM132 -67l181 86l27 -19h29l21 19q46 -27 74 -62q44 -55 41 -115q-3 -49 -38 -95q-31 -41 -82 -79q-75 -57 -191 -113 l-13 15q48 19 83 52t49 71q28 77 -24 146q-53 70 -157 94z" />
<glyph unicode="&#xe8;" horiz-adv-x="913" d="M31 177l97 78v540l490 255l207 -314v-10l-442 -275v-88l245 -167l226 177l29 -49l-422 -344l-304 226l-90 -74zM383 501l216 137l-177 255l-39 -22v-370zM386 1473l263 -293l18 14l-175 360z" />
<glyph unicode="&#xe9;" horiz-adv-x="913" d="M31 177l97 78v540l490 255l207 -314v-10l-442 -275v-88l245 -167l226 177l29 -49l-422 -344l-304 226l-90 -74zM383 501l216 137l-177 255l-39 -22v-370zM386 1194l176 360l105 -81l-263 -293z" />
<glyph unicode="&#xea;" horiz-adv-x="913" d="M31 177l97 78v540l490 255l207 -314v-10l-442 -275v-88l245 -167l226 177l29 -49l-422 -344l-304 226l-90 -74zM101 1185l317 321l339 -313l12 -8l103 162l-347 320l-2 2l-12 9l-408 -414zM383 501l216 137l-177 255l-39 -22v-370z" />
<glyph unicode="&#xeb;" horiz-adv-x="913" d="M31 177l97 78v540l490 255l207 -314v-10l-442 -275v-88l245 -167l226 177l29 -49l-422 -344l-304 226l-90 -74zM73 1412l185 184l187 -187l-184 -184zM383 501l216 137l-177 255l-39 -22v-370zM545 1412l184 184l187 -187l-184 -184z" />
<glyph unicode="&#xec;" horiz-adv-x="698" d="M31 863l275 187l157 -187v-618l68 -69l89 59l49 -39l-295 -206l-196 176l-69 -49l-29 40l127 88v540l-68 88l-79 -49zM171 1448l263 -292l18 13l-176 360z" />
<glyph unicode="&#xed;" horiz-adv-x="698" d="M31 863l275 187l157 -187v-618l68 -69l89 59l49 -39l-295 -206l-196 176l-69 -49l-29 40l127 88v540l-68 88l-79 -49zM171 1169l176 360l105 -81l-263 -292z" />
<glyph unicode="&#xee;" horiz-adv-x="698" d="M-114 1160l317 322l339 -313l12 -9l103 162l-347 321l-2 2l-12 8l-408 -413zM31 863l275 187l157 -187v-618l68 -69l89 59l49 -39l-295 -206l-196 176l-69 -49l-29 40l127 88v540l-68 88l-79 -49z" />
<glyph unicode="&#xef;" horiz-adv-x="698" d="M-142 1387l185 185l187 -188l-184 -184zM31 863l275 187l157 -187v-618l68 -69l89 59l49 -39l-295 -206l-196 176l-69 -49l-29 40l127 88v540l-68 88l-79 -49zM329 1387l185 185l187 -188l-184 -184z" />
<glyph unicode="&#xf0;" horiz-adv-x="892" d="M31 205v629l249 154l-83 75l-75 -89l-41 41l74 87l-68 61l-41 -7v367l267 -235l71 85l41 -41l-69 -81l396 -349l76 61l36 -44l-88 -71l-1 -581l-449 -265zM295 312l217 -151v616l-217 197v-662z" />
<glyph unicode="&#xf1;" horiz-adv-x="1189" d="M31 848l284 196l158 -176l225 176l232 -199l87 70l36 -45l-99 -80v-535l88 -79l78 59l40 -59l-305 -206l-206 187l69 68v505l-147 128l-89 -70v-563l89 -78l-197 -177l-235 187l78 68v544l-78 89l-79 -49zM219 1187q30 47 64 88q58 66 113 96q64 34 140 31q57 -2 142 -30 q76 -25 111 -32q68 -14 115 -3q32 8 56 25q29 21 44 52l53 -26q-23 -54 -57 -98q-47 -61 -113 -96q-55 -29 -114 -32q-53 -3 -118 16q-23 6 -67.5 22.5t-67.5 23.5q-77 22 -140 4q-32 -9 -57 -25q-27 -17 -52 -42z" />
<glyph unicode="&#xf2;" horiz-adv-x="921" d="M31 183l105 85v527l461 265l294 -226v-560l-451 -274q-48 35 -144 104t-144 104l-85 -69zM401 314l235 -157v589l-235 157v-589zM409 1448l263 -292l17 13l-175 360z" />
<glyph unicode="&#xf3;" horiz-adv-x="921" d="M31 183l105 85v527l461 265l294 -226v-560l-451 -274q-48 35 -144 104t-144 104l-85 -69zM401 314l235 -157v589l-235 157v-589zM409 1169l175 360l105 -81l-262 -292z" />
<glyph unicode="&#xf4;" horiz-adv-x="921" d="M31 183l105 85v527l461 265l294 -226v-560l-451 -274q-48 35 -144 104t-144 104l-85 -69zM123 1160l318 322l339 -313l11 -9l104 162l-347 321l-3 2l-11 8l-408 -413zM401 314l235 -157v589l-235 157v-589z" />
<glyph unicode="&#xf5;" horiz-adv-x="921" d="M31 183l105 85v527l461 265l294 -226v-560l-451 -274q-48 35 -144 104t-144 104l-85 -69zM104 1178q33 52 64 89q58 66 113 96q64 34 140 31q57 -2 142 -30q76 -25 111 -32q68 -14 115 -3q32 8 56 25q29 21 44 52l53 -26q-23 -54 -57 -98q-48 -62 -112 -96 q-55 -29 -115 -32q-53 -3 -118 16q-23 6 -67.5 22.5t-67.5 23.5q-77 22 -140 4q-32 -9 -57 -25q-24 -15 -51 -42zM401 314l235 -157v589l-235 157v-589z" />
<glyph unicode="&#xf6;" horiz-adv-x="921" d="M31 183l105 85v527l461 265l294 -226v-560l-451 -274q-48 35 -144 104t-144 104l-85 -69zM96 1387l184 185l187 -188l-184 -184zM401 314l235 -157v589l-235 157v-589zM567 1387l184 185l187 -188l-184 -184z" />
<glyph unicode="&#xf7;" horiz-adv-x="1431" d="M70 656l250 280h973l47 49l30 -29l-251 -280h-971l-49 -49zM549 402l184 184l188 -187l-184 -184zM549 1232l184 184l188 -187l-184 -184z" />
<glyph unicode="&#xf8;" horiz-adv-x="921" d="M31 183l105 85v527l461 265l135 -103l144 252l51 -29l-148 -259l112 -87v-560l-451 -274q-45 33 -135 97l-152 -265l-51 29l155 270q-35 25 -105 77l-85 -69zM401 381l217 377l-217 145v-522zM422 300l214 -143v516z" />
<glyph unicode="&#xf9;" horiz-adv-x="1118" d="M31 871l264 171q30 -12 57 -30q41 -30 67 -69q22 -33 31 -71q7 -29 7 -76v-493l128 -122l98 72q0 6 -0.5 18.5t-0.5 18.5v62v421l-106 94l192 177l137 -117l72 49l29 -39l-88 -69v-489l1 -85q0 -62 16 -95q15 -29 39 -45l76 62l38 -51l-246 -169q-50 6 -89 42 q-47 43 -62 117q-4 19 -6 40l-258 -203l-279 233l64 54v480q0 30 -3 44q-5 24 -16 40q-11 17 -33 27q-20 9 -43 4q-6 -1 -18 -5q-26 -9 -47 -27zM483 1473l262 -293l18 14l-175 360z" />
<glyph unicode="&#xfa;" horiz-adv-x="1118" d="M31 871l264 171q30 -12 57 -30q41 -30 67 -69q22 -33 31 -71q7 -29 7 -76v-493l128 -122l98 72q0 6 -0.5 18.5t-0.5 18.5v62v421l-106 94l192 177l137 -117l72 49l29 -39l-88 -69v-489l1 -85q0 -62 16 -95q15 -29 39 -45l76 62l38 -51l-246 -169q-50 6 -89 42 q-47 43 -62 117q-4 19 -6 40l-258 -203l-279 233l64 54v480q0 30 -3 44q-5 24 -16 40q-11 17 -33 27q-20 9 -43 4q-6 -1 -18 -5q-26 -9 -47 -27zM483 1194l175 360l105 -81l-263 -293z" />
<glyph unicode="&#xfb;" horiz-adv-x="1118" d="M31 871l264 171q30 -12 57 -30q41 -30 67 -69q22 -33 31 -71q7 -29 7 -76v-493l128 -122l98 72q0 6 -0.5 18.5t-0.5 18.5v62v421l-106 94l192 177l137 -117l72 49l29 -39l-88 -69v-489l1 -85q0 -62 16 -95q15 -29 39 -45l76 62l38 -51l-246 -169q-50 6 -89 42 q-47 43 -62 117q-4 19 -6 40l-258 -203l-279 233l64 54v480q0 30 -3 44q-5 24 -16 40q-11 17 -33 27q-20 9 -43 4q-6 -1 -18 -5q-26 -9 -47 -27zM197 1185l318 321l339 -313l11 -8l103 162l-347 320l-2 2l-11 9l-409 -414z" />
<glyph unicode="&#xfc;" horiz-adv-x="1118" d="M31 871l264 171q30 -12 57 -30q41 -30 67 -69q22 -33 31 -71q7 -29 7 -76v-493l128 -122l98 72q0 6 -0.5 18.5t-0.5 18.5v62v421l-106 94l192 177l137 -117l72 49l29 -39l-88 -69v-489l1 -85q0 -62 16 -95q15 -29 39 -45l76 62l38 -51l-246 -169q-50 6 -89 42 q-47 43 -62 117q-4 19 -6 40l-258 -203l-279 233l64 54v480q0 30 -3 44q-5 24 -16 40q-11 17 -33 27q-20 9 -43 4q-6 -1 -18 -5q-26 -9 -47 -27zM170 1412l184 184l187 -187l-184 -184zM641 1412l184 184l187 -187l-184 -184z" />
<glyph unicode="&#xfd;" horiz-adv-x="1060" d="M31 858l29 -39l82 50l75 -89v-574l295 -206l192 133q0 -1 0.5 -2.5t0.5 -2.5q6 -44 21 -80q4 -10 17.5 -39t19.5 -46q9 -26 10 -45q2 -23 -8 -45t-26 -34q-17 -13 -41 -16q-51 53 -121.5 82t-143.5 26q-104 -3 -191 -66t-123 -160l30 -20q43 33 98 45t108 1 q101 -22 158 -107l378 267q27 19 52 33q38 21 52 34q23 20 33 54q8 30 0 60q-2 10 -25 55q-19 39 -25 77q-5 34 -5 80v541l-186 220l-198 -134l110 -131l2 -570v-26l-238 149v525l-157 186zM491 1186l175 360l105 -82l-262 -292z" />
<glyph unicode="&#xfe;" horiz-adv-x="1001" d="M31 1294l248 167q49 -32 86 -75q33 -39 52 -78v-447l258 193l199 -175l62 51l36 -44l-76 -63v-570q-100 -56 -185 -116q-79 -55 -155 -121q-71 41 -139 70v-93q0 -25 3 -47q3 -25 14 -44q10 -19 30 -34q20 -14 48 -19v-29l-293 -176h-39v517q-57 11 -106 17l106 89v876 q0 42 -4 63q-6 34 -29 55q-22 20 -47 20q-26 0 -47 -19zM417 239l21 -9q117 -48 204 -89v609l-135 111l-90 -68v-554z" />
<glyph unicode="&#xff;" horiz-adv-x="1060" d="M31 858l29 -39l82 50l75 -89v-574l295 -206l192 133q0 -1 0.5 -2.5t0.5 -2.5q6 -44 21 -80q4 -10 17.5 -39t19.5 -46q9 -26 10 -45q2 -23 -8 -45t-26 -34q-17 -13 -41 -16q-51 53 -121.5 82t-143.5 26q-104 -3 -191 -66t-123 -160l30 -20q43 33 98 45t108 1 q101 -22 158 -107l378 267q27 19 52 33q38 21 52 34q23 20 33 54q8 30 0 60q-2 10 -25 55q-19 39 -25 77q-5 34 -5 80v541l-186 220l-198 -134l110 -131l2 -570v-26l-238 149v525l-157 186zM178 1404l184 184l187 -187l-184 -184zM649 1404l184 184l187 -187l-184 -184z" />
<glyph unicode="&#x152;" horiz-adv-x="2627" d="M33 687q-17 281 107 516q72 137 188.5 243.5t258.5 163.5l30 -37q-142 -101 -226 -253l-4 -8l592 255q117 -48 214.5 -134.5t159.5 -197.5q25 -43 46 -98q11 18 41 59q74 100 176.5 173t221.5 111l20 -29q-136 -70 -221 -207l541 331q95 -70 210 -123q66 -29 137 -52 l64 53l17 -20l-243 -254q-113 45 -220 104q-5 3 -15 8.5t-15 8.5v-358h477l-250 -260h-227v-483q128 16 240 91q114 76 183 202h40q-4 -107 -55 -211q-71 -144 -207 -227q-135 -83 -295 -89q-147 -6 -288 54.5t-244 170.5q-97 103 -152 242q-77 -140 -200 -261 q-94 -94 -194 -151q-113 -64 -234 -76q-150 -14 -283 55q-125 64 -218 190q-155 209 -173 498zM284 914q-6 -172 46 -330q1 -3 3 -9.5t3 -9.5l142 61v662l-127 -53q-61 -150 -67 -321zM356 514q57 -130 145 -214q72 -69 154 -102q88 -36 181 -31h2v1175q-36 26 -91 58l-4 -2 v-721zM896 175q82 18 143 59q88 59 142 160q81 153 55 342l-340 -171v-390zM896 630l328 166q-15 67 -42 128l-286 -144v-150zM896 845l261 132q-42 81 -86 138q-77 101 -175 181v-451zM1534 900q-13 -147 16 -278q11 -52 36 -112l112 48v655l-110 -67q-42 -107 -54 -246z M1609 460q31 -56 58 -88q79 -97 193 -142q93 -37 194 -35v1140q-41 26 -76 49l-16 -10v-765z" />
<glyph unicode="&#x153;" horiz-adv-x="1423" d="M31 183l105 85v527l461 265l223 -171l310 161l207 -314v-10l-442 -275v-88l245 -167l226 177l29 -49l-422 -344l-254 189l-279 -169q-48 35 -144 104t-144 104l-85 -69zM401 314l235 -157v589l-235 157v-589zM895 501l216 137l-177 255l-39 -22v-370z" />
<glyph unicode="&#x178;" horiz-adv-x="1400" d="M32 646q-9 104 69 179q44 43 106 60q42 12 87 9v339q0 30 -4 53q-5 27 -23 47q-14 14 -33 19t-38 0q-37 -10 -59 -47q-15 -24 -19 -49h-49q3 71 42 132q42 65 115 99q71 33 150 24q51 -6 91 -28q44 -23 71 -63q26 -38 36 -88q7 -36 7 -95v-1088q13 -3 52.5 -13t61.5 -15 q3 -1 9.5 -2t9.5 -2v1385h59v-206l278 225l207 -179l77 62l36 -44l-104 -85l1 -974q0 -85 -15 -129q-23 -66 -75 -105q-51 -38 -121 -46q-52 -6 -131 5q-58 9 -164 32t-142 30q-89 17 -155 20q-92 4 -152 -28q-32 -16 -51 -42q-21 -29 -24 -61q-3 -33 12 -60q15 -28 42 -45 q44 -30 118 -26q39 2 81 11t96 23.5t80 20.5q143 32 259 40q114 9 192 -15q49 -14 86 -44q39 -31 60 -75q21 -46 18 -92q-3 -47 -26 -90q-44 -82 -139 -123q-32 -14 -76 -23l-10 40q11 1 21 6q23 11 37 33t11 48q-1 20 -17 41q-13 18 -35 27q-36 16 -88 11q-34 -3 -70.5 -9 t-83 -15.5t-69.5 -13.5q-36 -6 -108.5 -20t-110.5 -20q-134 -22 -222 4q-66 18 -116 64t-72 112q-33 101 15 199q45 94 142 143q9 5 29 13v475h-36q-28 0 -34 -1q-20 -4 -32 -11q-17 -10 -25 -24q-10 -16 -8 -33q2 -28 27 -45l-11 -29q-59 16 -99 63q-38 47 -44 109z M252 1863l184 184l187 -187l-184 -184zM723 1863l184 184l187 -187l-184 -184zM773 111q44 0 76 12q41 14 70 45q28 30 44 71q19 53 19 167v180q-52 42 -118 39q-48 -3 -91 -33v-481zM773 652q42 29 93 31q64 3 116 -38v195q-52 -41 -116 -38q-50 2 -93 32v-182zM773 893 q41 -29 91 -32q66 -3 118 39v317l-111 85l-98 -78v-331z" />
<glyph unicode="&#x2000;" horiz-adv-x="1130" />
<glyph unicode="&#x2001;" horiz-adv-x="2260" />
<glyph unicode="&#x2002;" horiz-adv-x="1130" />
<glyph unicode="&#x2003;" horiz-adv-x="2260" />
<glyph unicode="&#x2004;" horiz-adv-x="753" />
<glyph unicode="&#x2005;" horiz-adv-x="565" />
<glyph unicode="&#x2006;" horiz-adv-x="376" />
<glyph unicode="&#x2007;" horiz-adv-x="376" />
<glyph unicode="&#x2008;" horiz-adv-x="282" />
<glyph unicode="&#x2009;" horiz-adv-x="452" />
<glyph unicode="&#x200a;" horiz-adv-x="125" />
<glyph unicode="&#x2010;" horiz-adv-x="1011" d="M31 656l250 280h625l47 49l30 -29l-251 -280h-622l-50 -49z" />
<glyph unicode="&#x2011;" horiz-adv-x="1011" d="M31 656l250 280h625l47 49l30 -29l-251 -280h-622l-50 -49z" />
<glyph unicode="&#x2012;" horiz-adv-x="1011" d="M31 656l250 280h625l47 49l30 -29l-251 -280h-622l-50 -49z" />
<glyph unicode="&#x2013;" horiz-adv-x="1083" d="M31 656l269 280h672l51 49l32 -29l-270 -280h-669l-54 -49z" />
<glyph unicode="&#x2014;" horiz-adv-x="2107" d="M31 656l538 280h1344l101 49l65 -29l-540 -280h-1338l-108 -49z" />
<glyph unicode="&#x2018;" horiz-adv-x="489" d="M58 1281q3 -69 37 -131q32 -59 82 -110q77 -79 191 -155l13 21q-49 25 -84 70t-48 99q-20 84 8 168q15 44 40 75q31 38 71 44q17 3 35 -2q5 -1 31 -17l26 -17l27 43l-278 182q-69 -43 -110 -111q-44 -75 -41 -159z" />
<glyph unicode="&#x2019;" horiz-adv-x="489" d="M31 1369l277 182q71 -44 111 -111q44 -75 41 -159q-3 -67 -38 -131q-32 -59 -82 -110q-78 -81 -190 -155l-14 21q49 25 84 70t48 99q20 86 -7 168q-15 44 -40 75q-31 38 -71 44q-17 3 -35 -2q-7 -2 -32 -17l-26 -17z" />
<glyph unicode="&#x201c;" horiz-adv-x="1042" d="M31 1281q3 -67 38 -131q32 -59 82 -110q78 -81 190 -155l14 21q-49 25 -84.5 70t-48.5 99q-20 84 8 168q15 44 40 75q31 38 71 44q17 3 35 -2q5 -1 31 -17l26 -17l27 43l-277 182q-71 -44 -111 -111q-44 -75 -41 -159zM584 1281q3 -69 37 -131q31 -56 83 -110 q78 -81 190 -155l14 21q-49 25 -84.5 70t-48.5 99q-20 84 8 168q15 44 40 75q31 38 71 44q17 3 35 -2q5 -1 31 -17l26 -17l27 43l-278 182q-69 -43 -110 -111q-44 -75 -41 -159z" />
<glyph unicode="&#x201d;" horiz-adv-x="1042" d="M31 1369l277 182q71 -44 111 -111q44 -75 41 -159q-3 -67 -38 -131q-32 -59 -82 -110q-78 -81 -190 -155l-14 21q49 25 84 70t48 99q20 86 -7 168q-15 44 -40 75q-31 38 -71 44q-17 3 -35 -2q-7 -2 -32 -17l-26 -17zM584 1369l277 182q71 -44 111 -111q44 -75 41 -159 q-3 -67 -38 -131q-32 -59 -82 -110q-77 -79 -191 -155l-13 21q49 25 84 70t48 99q20 86 -7 168q-15 44 -40 75q-31 38 -72 44q-17 3 -34 -2q-7 -2 -32 -17l-26 -17z" />
<glyph unicode="&#x2026;" horiz-adv-x="1783" d="M31 165l184 184l187 -187l-184 -184zM707 165l184 184l187 -187l-184 -184zM1382 165l184 184l188 -187l-185 -184z" />
<glyph unicode="&#x202f;" horiz-adv-x="452" />
<glyph unicode="&#x205f;" horiz-adv-x="565" />
<glyph unicode="&#x25fc;" horiz-adv-x="1064" d="M0 0v1065h1065v-1065h-1065z" />
</font>
</defs>
</svg>
