<?xml version="1.0" standalone="no"?>
<!DOCTYPE svg PUBLIC "-//W3C//DTD SVG 1.1//EN" "http://www.w3.org/Graphics/SVG/1.1/DTD/svg11.dtd" >
<svg xmlns="http://www.w3.org/2000/svg" xmlns:xlink="http://www.w3.org/1999/xlink" version="1.1">
<metadata>
Created by FontForge 20190801 at Fri Apr 27 08:10:57 2018
 By www-data
Copyright 2017 Dinamo (Johannes Breyer, Fabian Harb)
</metadata>
<defs>
<font id="Ginto-Thin" horiz-adv-x="1270" >
  <font-face 
    font-family="Ginto"
    font-weight="150"
    font-stretch="normal"
    units-per-em="2048"
    panose-1="2 0 4 3 0 0 0 2 0 4"
    ascent="1616"
    descent="-432"
    x-height="1024"
    cap-height="1434"
    bbox="-1415 -440 4287 2150"
    underline-thickness="50"
    underline-position="-100"
    unicode-range="U+000D-FB02"
  />
<missing-glyph horiz-adv-x="1303" 
d="M201 1434h901v-1434h-901v1434zM993 106v1222h-683v-1222h683z" />
    <glyph glyph-name=".notdef" horiz-adv-x="1303" 
d="M201 1434h901v-1434h-901v1434zM993 106v1222h-683v-1222h683z" />
    <glyph glyph-name="NULL" horiz-adv-x="1229" 
 />
    <glyph glyph-name="nonmarkingreturn" unicode="&#xd;" horiz-adv-x="1229" 
 />
    <glyph glyph-name="space" unicode=" " horiz-adv-x="524" 
 />
    <glyph glyph-name="A" unicode="A" horiz-adv-x="1308" 
d="M970 410h-635l-142 -410h-132l505 1434h175l508 -1434h-136zM933 516l-283 808l-279 -808h562z" />
    <glyph glyph-name="Aacute" unicode="&#xc1;" horiz-adv-x="1308" 
d="M970 410h-635l-142 -410h-132l505 1434h175l508 -1434h-136zM933 516l-283 808l-279 -808h562zM750 1823h130l-179 -271h-105z" />
    <glyph glyph-name="Abreve" unicode="&#x102;" horiz-adv-x="1308" 
d="M970 410h-635l-142 -410h-132l505 1434h175l508 -1434h-136zM933 516l-283 808l-279 -808h562zM502.5 1575q-69.5 31 -112.5 93t-47 150h96q6 -86 63.5 -136.5t152.5 -50.5t152 50.5t63 136.5h96q-5 -88 -48 -150t-111.5 -93t-151.5 -31t-152.5 31z" />
    <glyph glyph-name="Acircumflex" unicode="&#xc2;" horiz-adv-x="1308" 
d="M970 410h-635l-142 -410h-132l505 1434h175l508 -1434h-136zM933 516l-283 808l-279 -808h562zM845 1561l-192 202l-188 -202h-108l238 271h120l237 -271h-107z" />
    <glyph glyph-name="Adieresis" unicode="&#xc4;" horiz-adv-x="1308" 
d="M970 410h-635l-142 -410h-132l505 1434h175l508 -1434h-136zM933 516l-283 808l-279 -808h562zM413 1616q-24 24 -24 57q0 34 23.5 56.5t58.5 22.5t58.5 -22.5t23.5 -56.5q0 -33 -23.5 -57t-58.5 -24q-34 0 -58 24zM779 1616q-24 24 -24 57q0 34 24 56.5t59 22.5
t58 -22.5t23 -56.5q0 -33 -23.5 -57t-57.5 -24q-35 0 -59 24z" />
    <glyph glyph-name="uni0226" unicode="&#x226;" horiz-adv-x="1308" 
d="M970 410h-635l-142 -410h-132l505 1434h175l508 -1434h-136zM933 516l-283 808l-279 -808h562zM591 1621.5q-26 25.5 -26 62.5t26 61.5t64 24.5t63.5 -24.5t25.5 -61.5t-25.5 -62.5t-63.5 -25.5t-64 25.5z" />
    <glyph glyph-name="uni1EA0" unicode="&#x1ea0;" horiz-adv-x="1308" 
d="M970 410h-635l-142 -410h-132l505 1434h175l508 -1434h-136zM933 516l-283 808l-279 -808h562zM592 -285.5q-26 25.5 -26 62.5t26 61.5t64 24.5t63.5 -24.5t25.5 -61.5t-25.5 -62.5t-63.5 -25.5t-64 25.5z" />
    <glyph glyph-name="Agrave" unicode="&#xc0;" horiz-adv-x="1308" 
d="M970 410h-635l-142 -410h-132l505 1434h175l508 -1434h-136zM933 516l-283 808l-279 -808h562zM665 1552l-179 271h130l154 -271h-105z" />
    <glyph glyph-name="Amacron" unicode="&#x100;" horiz-adv-x="1308" 
d="M970 410h-635l-142 -410h-132l505 1434h175l508 -1434h-136zM933 516l-283 808l-279 -808h562zM307 1695h694v-98h-694v98z" />
    <glyph glyph-name="Aogonek" unicode="&#x104;" horiz-adv-x="1308" 
d="M970 410h-635l-142 -410h-132l505 1434h175l508 -1434h-136zM933 516l-283 808l-279 -808h562zM969.5 -353q-50.5 53 -50.5 137q0 68 35 124.5t102 90.5t159 35l26 -34q-118 -14 -177.5 -67.5t-59.5 -129.5q0 -61 34 -94.5t86 -33.5q34 0 65 10.5t52 22.5v-81
q-64 -33 -133 -33q-88 0 -138.5 53z" />
    <glyph glyph-name="Aring" unicode="&#xc5;" horiz-adv-x="1308" 
d="M970 410h-635l-142 -410h-132l505 1434h175l508 -1434h-136zM933 516l-283 808l-279 -808h562zM551.5 1559q-47.5 28 -75.5 75t-28 103t28 101.5t75.5 72t103.5 26.5q58 0 105 -26t74 -72t27 -102t-27 -103t-74.5 -75t-104.5 -28q-56 0 -103.5 28zM746 1642q35 38 35 95
q0 54 -35.5 90.5t-90.5 36.5t-90.5 -36.5t-35.5 -90.5q0 -57 35 -95t91 -38t91 38z" />
    <glyph glyph-name="Aringacute" unicode="&#x1fa;" horiz-adv-x="1308" 
d="M970 410h-635l-142 -410h-132l505 1434h175l508 -1434h-136zM933 516l-283 808l-279 -808h562zM737 2150h107l-144 -155h-84zM551.5 1559q-47.5 28 -75.5 75t-28 103t28 101.5t75.5 72t103.5 26.5q58 0 105 -26t74 -72t27 -102t-27 -103t-74.5 -75t-104.5 -28
q-56 0 -103.5 28zM746 1642q35 38 35 95q0 54 -35.5 90.5t-90.5 36.5t-90.5 -36.5t-35.5 -90.5q0 -57 35 -95t91 -38t91 38z" />
    <glyph glyph-name="Atilde" unicode="&#xc3;" horiz-adv-x="1308" 
d="M970 410h-635l-142 -410h-132l505 1434h175l508 -1434h-136zM933 516l-283 808l-279 -808h562zM346 1759q53 60 142 60q52 0 92.5 -19.5t96.5 -57.5q46 -32 75 -47t62 -15q57 0 89 35t38 100h79q-7 -112 -58 -171.5t-139 -59.5q-53 0 -95.5 20t-99.5 58q-46 31 -75 45.5
t-61 14.5q-111 0 -127 -134h-78q6 111 59 171z" />
    <glyph glyph-name="AE" unicode="&#xc6;" horiz-adv-x="1902" 
d="M1783 116v-116h-864v410h-548l-242 -410h-143l856 1434h931v-117h-725v-499h688v-113h-688v-589h735zM919 516v820l-485 -820h485z" />
    <glyph glyph-name="AEacute" unicode="&#x1fc;" horiz-adv-x="1902" 
d="M1783 116v-116h-864v410h-548l-242 -410h-143l856 1434h931v-117h-725v-499h688v-113h-688v-589h735zM919 516v820l-485 -820h485zM1301 1823h130l-179 -271h-105z" />
    <glyph glyph-name="uni01E2" unicode="&#x1e2;" horiz-adv-x="1902" 
d="M1783 116v-116h-864v410h-548l-242 -410h-143l856 1434h931v-117h-725v-499h688v-113h-688v-589h735zM919 516v820l-485 -820h485zM858 1695h694v-98h-694v98z" />
    <glyph glyph-name="B" unicode="B" horiz-adv-x="1271" 
d="M1020.5 703.5q64.5 -51.5 99 -127.5t34.5 -168q0 -119 -51 -211t-153 -144.5t-248 -52.5h-487v1434h493q121 0 209 -46t134.5 -127t46.5 -182q0 -110 -60.5 -191.5t-169.5 -113.5q88 -19 152.5 -70.5zM344 1320v-521h348q83 0 145.5 33t96.5 91t34 133q0 122 -74 193
t-208 71h-342zM938 194.5q84 79.5 84 217.5q0 85 -36 150t-103.5 100.5t-157.5 35.5h-381v-583h347q163 0 247 79.5z" />
    <glyph glyph-name="C" unicode="C" horiz-adv-x="1370" 
d="M452 60q-163 99 -251 270.5t-88 383.5q0 217 93 390t259 271t377 98q132 0 242 -35t191 -94v-140q-182 146 -428 146q-178 0 -314.5 -82t-211 -225.5t-74.5 -322.5t72.5 -324t206.5 -228.5t310 -83.5q131 0 243.5 42t197.5 113v-134q-88 -70 -202.5 -107t-243.5 -37
q-216 0 -379 99z" />
    <glyph glyph-name="Cacute" unicode="&#x106;" horiz-adv-x="1370" 
d="M452 60q-163 99 -251 270.5t-88 383.5q0 217 93 390t259 271t377 98q132 0 242 -35t191 -94v-140q-182 146 -428 146q-178 0 -314.5 -82t-211 -225.5t-74.5 -322.5t72.5 -324t206.5 -228.5t310 -83.5q131 0 243.5 42t197.5 113v-134q-88 -70 -202.5 -107t-243.5 -37
q-216 0 -379 99zM921 1823h130l-179 -271h-105z" />
    <glyph glyph-name="Ccaron" unicode="&#x10c;" horiz-adv-x="1370" 
d="M452 60q-163 99 -251 270.5t-88 383.5q0 217 93 390t259 271t377 98q132 0 242 -35t191 -94v-140q-182 146 -428 146q-178 0 -314.5 -82t-211 -225.5t-74.5 -322.5t72.5 -324t206.5 -228.5t310 -83.5q131 0 243.5 42t197.5 113v-134q-88 -70 -202.5 -107t-243.5 -37
q-216 0 -379 99zM1123 1819l-237 -271h-120l-238 271h108l188 -202l192 202h107z" />
    <glyph glyph-name="Ccedilla" unicode="&#xc7;" horiz-adv-x="1370" 
d="M452 60q-163 99 -251 270.5t-88 383.5q0 217 93 390t259 271t377 98q132 0 242 -35t191 -94v-140q-182 146 -428 146q-178 0 -314.5 -82t-211 -225.5t-74.5 -322.5t72.5 -324t206.5 -228.5t310 -83.5q131 0 243.5 42t197.5 113v-134q-88 -70 -202.5 -107t-243.5 -37
q-216 0 -379 99zM981.5 -131q45.5 -45 45.5 -114q0 -72 -51 -116.5t-141 -44.5q-75 0 -140 46v88q20 -20 54.5 -36t81.5 -16q54 0 82.5 24t28.5 62q0 40 -31.5 62t-90.5 22h-46v166h72v-98h6q84 0 129.5 -45z" />
    <glyph glyph-name="Ccircumflex" unicode="&#x108;" horiz-adv-x="1370" 
d="M452 60q-163 99 -251 270.5t-88 383.5q0 217 93 390t259 271t377 98q132 0 242 -35t191 -94v-140q-182 146 -428 146q-178 0 -314.5 -82t-211 -225.5t-74.5 -322.5t72.5 -324t206.5 -228.5t310 -83.5q131 0 243.5 42t197.5 113v-134q-88 -70 -202.5 -107t-243.5 -37
q-216 0 -379 99zM1016 1561l-192 202l-188 -202h-108l238 271h120l237 -271h-107z" />
    <glyph glyph-name="Cdotaccent" unicode="&#x10a;" horiz-adv-x="1370" 
d="M452 60q-163 99 -251 270.5t-88 383.5q0 217 93 390t259 271t377 98q132 0 242 -35t191 -94v-140q-182 146 -428 146q-178 0 -314.5 -82t-211 -225.5t-74.5 -322.5t72.5 -324t206.5 -228.5t310 -83.5q131 0 243.5 42t197.5 113v-134q-88 -70 -202.5 -107t-243.5 -37
q-216 0 -379 99zM762 1621.5q-26 25.5 -26 62.5t26 61.5t64 24.5t63.5 -24.5t25.5 -61.5t-25.5 -62.5t-63.5 -25.5t-64 25.5z" />
    <glyph glyph-name="D" unicode="D" horiz-adv-x="1482" 
d="M215 1434h458q217 0 373 -89t237.5 -249t81.5 -369q0 -216 -84 -380t-247.5 -255.5t-394.5 -91.5h-424v1434zM641 118q189 0 322 75t200.5 212t67.5 321q0 180 -65 313t-192.5 205t-309.5 72h-320v-1198h297z" />
    <glyph glyph-name="Eth" unicode="&#xd0;" horiz-adv-x="1482" 
d="M215 1434h458q217 0 373 -89t237.5 -249t81.5 -369q0 -216 -84 -380t-247.5 -255.5t-394.5 -91.5h-424v1434zM641 118q189 0 322 75t200.5 212t67.5 321q0 180 -65 313t-192.5 205t-309.5 72h-320v-1198h297zM6 760h637v-87h-637v87z" />
    <glyph glyph-name="Dcaron" unicode="&#x10e;" horiz-adv-x="1482" 
d="M215 1434h458q217 0 373 -89t237.5 -249t81.5 -369q0 -216 -84 -380t-247.5 -255.5t-394.5 -91.5h-424v1434zM641 118q189 0 322 75t200.5 212t67.5 321q0 180 -65 313t-192.5 205t-309.5 72h-320v-1198h297zM1050 1819l-237 -271h-120l-238 271h108l188 -202l192 202
h107z" />
    <glyph glyph-name="Dcroat" unicode="&#x110;" horiz-adv-x="1482" 
d="M215 1434h458q217 0 373 -89t237.5 -249t81.5 -369q0 -216 -84 -380t-247.5 -255.5t-394.5 -91.5h-424v1434zM641 118q189 0 322 75t200.5 212t67.5 321q0 180 -65 313t-192.5 205t-309.5 72h-320v-1198h297zM6 760h637v-87h-637v87z" />
    <glyph glyph-name="E" unicode="E" horiz-adv-x="1198" 
d="M1079 116v-116h-864v1434h854v-117h-725v-499h688v-113h-688v-589h735z" />
    <glyph glyph-name="Eacute" unicode="&#xc9;" horiz-adv-x="1198" 
d="M1079 116v-116h-864v1434h854v-117h-725v-499h688v-113h-688v-589h735zM752 1823h130l-179 -271h-105z" />
    <glyph glyph-name="Ebreve" unicode="&#x114;" horiz-adv-x="1198" 
d="M1079 116v-116h-864v1434h854v-117h-725v-499h688v-113h-688v-589h735zM504.5 1575q-69.5 31 -112.5 93t-47 150h96q6 -86 63.5 -136.5t152.5 -50.5t152 50.5t63 136.5h96q-5 -88 -48 -150t-111.5 -93t-151.5 -31t-152.5 31z" />
    <glyph glyph-name="Ecaron" unicode="&#x11a;" horiz-adv-x="1198" 
d="M1079 116v-116h-864v1434h854v-117h-725v-499h688v-113h-688v-589h735zM954 1819l-237 -271h-120l-238 271h108l188 -202l192 202h107z" />
    <glyph glyph-name="Ecircumflex" unicode="&#xca;" horiz-adv-x="1198" 
d="M1079 116v-116h-864v1434h854v-117h-725v-499h688v-113h-688v-589h735zM847 1561l-192 202l-188 -202h-108l238 271h120l237 -271h-107z" />
    <glyph glyph-name="Edieresis" unicode="&#xcb;" horiz-adv-x="1198" 
d="M1079 116v-116h-864v1434h854v-117h-725v-499h688v-113h-688v-589h735zM415 1616q-24 24 -24 57q0 34 23.5 56.5t58.5 22.5t58.5 -22.5t23.5 -56.5q0 -33 -23.5 -57t-58.5 -24q-34 0 -58 24zM781 1616q-24 24 -24 57q0 34 24 56.5t59 22.5t58 -22.5t23 -56.5
q0 -33 -23.5 -57t-57.5 -24q-35 0 -59 24z" />
    <glyph glyph-name="Edotaccent" unicode="&#x116;" horiz-adv-x="1198" 
d="M1079 116v-116h-864v1434h854v-117h-725v-499h688v-113h-688v-589h735zM593 1621.5q-26 25.5 -26 62.5t26 61.5t64 24.5t63.5 -24.5t25.5 -61.5t-25.5 -62.5t-63.5 -25.5t-64 25.5z" />
    <glyph glyph-name="uni1EB8" unicode="&#x1eb8;" horiz-adv-x="1198" 
d="M1079 116v-116h-864v1434h854v-117h-725v-499h688v-113h-688v-589h735zM592 -285.5q-26 25.5 -26 62.5t26 61.5t64 24.5t63.5 -24.5t25.5 -61.5t-25.5 -62.5t-63.5 -25.5t-64 25.5z" />
    <glyph glyph-name="Egrave" unicode="&#xc8;" horiz-adv-x="1198" 
d="M1079 116v-116h-864v1434h854v-117h-725v-499h688v-113h-688v-589h735zM667 1552l-179 271h130l154 -271h-105z" />
    <glyph glyph-name="Emacron" unicode="&#x112;" horiz-adv-x="1198" 
d="M1079 116v-116h-864v1434h854v-117h-725v-499h688v-113h-688v-589h735zM309 1695h694v-98h-694v98z" />
    <glyph glyph-name="Eogonek" unicode="&#x118;" horiz-adv-x="1198" 
d="M1079 116v-116h-864v1434h854v-117h-725v-499h688v-113h-688v-589h735zM807.5 -353q-50.5 53 -50.5 137q0 68 35 124.5t102 90.5t159 35l26 -34q-118 -14 -177.5 -67.5t-59.5 -129.5q0 -61 34 -94.5t86 -33.5q34 0 65 10.5t52 22.5v-81q-64 -33 -133 -33q-88 0 -138.5 53
z" />
    <glyph glyph-name="F" unicode="F" horiz-adv-x="1139" 
d="M344 1317v-499h680v-113h-680v-705h-129v1434h845v-117h-716z" />
    <glyph glyph-name="G" unicode="G" horiz-adv-x="1577" 
d="M1474 760v-67q0 -231 -80.5 -395.5t-226.5 -250.5t-341 -86q-204 0 -367 98.5t-254.5 270.5t-91.5 386q0 215 89.5 387.5t257 272t394.5 99.5q156 0 284 -47.5t218 -129.5v-140q-85 85 -213 139.5t-286 54.5q-193 0 -330.5 -82t-208.5 -225t-71 -325q0 -183 74.5 -329
t206.5 -228t300 -82q157 0 273.5 67t181 194.5t69.5 304.5h-799l27 113h894z" />
    <glyph glyph-name="Gbreve" unicode="&#x11e;" horiz-adv-x="1577" 
d="M1474 760v-67q0 -231 -80.5 -395.5t-226.5 -250.5t-341 -86q-204 0 -367 98.5t-254.5 270.5t-91.5 386q0 215 89.5 387.5t257 272t394.5 99.5q156 0 284 -47.5t218 -129.5v-140q-85 85 -213 139.5t-286 54.5q-193 0 -330.5 -82t-208.5 -225t-71 -325q0 -183 74.5 -329
t206.5 -228t300 -82q157 0 273.5 67t181 194.5t69.5 304.5h-799l27 113h894zM671.5 1575q-69.5 31 -112.5 93t-47 150h96q6 -86 63.5 -136.5t152.5 -50.5t152 50.5t63 136.5h96q-5 -88 -48 -150t-111.5 -93t-151.5 -31t-152.5 31z" />
    <glyph glyph-name="Gcircumflex" unicode="&#x11c;" horiz-adv-x="1577" 
d="M1474 760v-67q0 -231 -80.5 -395.5t-226.5 -250.5t-341 -86q-204 0 -367 98.5t-254.5 270.5t-91.5 386q0 215 89.5 387.5t257 272t394.5 99.5q156 0 284 -47.5t218 -129.5v-140q-85 85 -213 139.5t-286 54.5q-193 0 -330.5 -82t-208.5 -225t-71 -325q0 -183 74.5 -329
t206.5 -228t300 -82q157 0 273.5 67t181 194.5t69.5 304.5h-799l27 113h894zM1014 1561l-192 202l-188 -202h-108l238 271h120l237 -271h-107z" />
    <glyph glyph-name="uni0122" unicode="&#x122;" horiz-adv-x="1577" 
d="M1474 760v-67q0 -231 -80.5 -395.5t-226.5 -250.5t-341 -86q-204 0 -367 98.5t-254.5 270.5t-91.5 386q0 215 89.5 387.5t257 272t394.5 99.5q156 0 284 -47.5t218 -129.5v-140q-85 85 -213 139.5t-286 54.5q-193 0 -330.5 -82t-208.5 -225t-71 -325q0 -183 74.5 -329
t206.5 -228t300 -82q157 0 273.5 67t181 194.5t69.5 304.5h-799l27 113h894zM751 -120h143l-158 -307h-84z" />
    <glyph glyph-name="Gdotaccent" unicode="&#x120;" horiz-adv-x="1577" 
d="M1474 760v-67q0 -231 -80.5 -395.5t-226.5 -250.5t-341 -86q-204 0 -367 98.5t-254.5 270.5t-91.5 386q0 215 89.5 387.5t257 272t394.5 99.5q156 0 284 -47.5t218 -129.5v-140q-85 85 -213 139.5t-286 54.5q-193 0 -330.5 -82t-208.5 -225t-71 -325q0 -183 74.5 -329
t206.5 -228t300 -82q157 0 273.5 67t181 194.5t69.5 304.5h-799l27 113h894zM760 1621.5q-26 25.5 -26 62.5t26 61.5t64 24.5t63.5 -24.5t25.5 -61.5t-25.5 -62.5t-63.5 -25.5t-64 25.5z" />
    <glyph glyph-name="H" unicode="H" horiz-adv-x="1506" 
d="M1290 1434v-1434h-128v681h-818v-681h-129v1434h129v-635h818v635h128z" />
    <glyph glyph-name="Hbar" unicode="&#x126;" horiz-adv-x="1555" 
d="M1511 1076h-196v-1076h-128v681h-818v-681h-129v1076h-197v88h197v270h129v-270h818v270h128v-270h196v-88zM1187 1076h-818v-277h818v277z" />
    <glyph glyph-name="Hcircumflex" unicode="&#x124;" horiz-adv-x="1506" 
d="M1290 1434v-1434h-128v681h-818v-681h-129v1434h129v-635h818v635h128zM943 1561l-192 202l-188 -202h-108l238 271h120l237 -271h-107z" />
    <glyph glyph-name="I" unicode="I" horiz-adv-x="559" 
d="M215 1434h129v-1434h-129v1434z" />
    <glyph glyph-name="IJ" unicode="&#x132;" horiz-adv-x="1413" 
d="M215 1434h129v-1434h-129v1434zM708 -14.5q-68 26.5 -106 64.5v134q41 -46 101.5 -74t143.5 -28q109 0 172.5 70t63.5 213v1069h128v-1076q0 -133 -45 -222.5t-124.5 -133t-184.5 -43.5q-81 0 -149 26.5z" />
    <glyph glyph-name="Iacute" unicode="&#xcd;" horiz-adv-x="559" 
d="M215 1434h129v-1434h-129v1434zM376 1823h130l-179 -271h-105z" />
    <glyph glyph-name="Ibreve" unicode="&#x12c;" horiz-adv-x="559" 
d="M215 1434h129v-1434h-129v1434zM128.5 1575q-69.5 31 -112.5 93t-47 150h96q6 -86 63.5 -136.5t152.5 -50.5t152 50.5t63 136.5h96q-5 -88 -48 -150t-111.5 -93t-151.5 -31t-152.5 31z" />
    <glyph glyph-name="Icircumflex" unicode="&#xce;" horiz-adv-x="559" 
d="M215 1434h129v-1434h-129v1434zM471 1561l-192 202l-188 -202h-108l238 271h120l237 -271h-107z" />
    <glyph glyph-name="Idieresis" unicode="&#xcf;" horiz-adv-x="559" 
d="M215 1434h129v-1434h-129v1434zM39 1616q-24 24 -24 57q0 34 23.5 56.5t58.5 22.5t58.5 -22.5t23.5 -56.5q0 -33 -23.5 -57t-58.5 -24q-34 0 -58 24zM405 1616q-24 24 -24 57q0 34 24 56.5t59 22.5t58 -22.5t23 -56.5q0 -33 -23.5 -57t-57.5 -24q-35 0 -59 24z" />
    <glyph glyph-name="Idotaccent" unicode="&#x130;" horiz-adv-x="559" 
d="M215 1434h129v-1434h-129v1434zM217 1621.5q-26 25.5 -26 62.5t26 61.5t64 24.5t63.5 -24.5t25.5 -61.5t-25.5 -62.5t-63.5 -25.5t-64 25.5z" />
    <glyph glyph-name="uni1ECA" unicode="&#x1eca;" horiz-adv-x="559" 
d="M215 1434h129v-1434h-129v1434zM218 -285.5q-26 25.5 -26 62.5t26 61.5t64 24.5t63.5 -24.5t25.5 -61.5t-25.5 -62.5t-63.5 -25.5t-64 25.5z" />
    <glyph glyph-name="Igrave" unicode="&#xcc;" horiz-adv-x="559" 
d="M215 1434h129v-1434h-129v1434zM291 1552l-179 271h130l154 -271h-105z" />
    <glyph glyph-name="Imacron" unicode="&#x12a;" horiz-adv-x="559" 
d="M215 1434h129v-1434h-129v1434zM-24.9238 1695h610.724v-98h-610.724v98z" />
    <glyph glyph-name="Iogonek" unicode="&#x12e;" horiz-adv-x="559" 
d="M215 1434h129v-1434h-129v1434zM71.5 -353q-50.5 53 -50.5 137q0 68 35 124.5t102 90.5t159 35l26 -34q-118 -14 -177.5 -67.5t-59.5 -129.5q0 -61 34 -94.5t86 -33.5q34 0 65 10.5t52 22.5v-81q-64 -33 -133 -33q-88 0 -138.5 53z" />
    <glyph glyph-name="Itilde" unicode="&#x128;" horiz-adv-x="559" 
d="M215 1434h129v-1434h-129v1434zM-28 1759q53 60 142 60q52 0 92.5 -19.5t96.5 -57.5q46 -32 75 -47t62 -15q57 0 89 35t38 100h79q-7 -112 -58 -171.5t-139 -59.5q-53 0 -95.5 20t-99.5 58q-46 31 -75 45.5t-61 14.5q-111 0 -127 -134h-78q6 111 59 171z" />
    <glyph glyph-name="J" unicode="J" horiz-adv-x="854" 
d="M149 -14.5q-68 26.5 -106 64.5v134q41 -46 101.5 -74t143.5 -28q109 0 172.5 70t63.5 213v1069h128v-1076q0 -133 -45 -222.5t-124.5 -133t-184.5 -43.5q-81 0 -149 26.5z" />
    <glyph glyph-name="Jcircumflex" unicode="&#x134;" horiz-adv-x="854" 
d="M149 -14.5q-68 26.5 -106 64.5v134q41 -46 101.5 -74t143.5 -28q109 0 172.5 70t63.5 213v1069h128v-1076q0 -133 -45 -222.5t-124.5 -133t-184.5 -43.5q-81 0 -149 26.5zM778 1561l-192 202l-188 -202h-108l238 271h120l237 -271h-107z" />
    <glyph glyph-name="K" unicode="K" horiz-adv-x="1244" 
d="M1048 0l-704 733v-733h-129v1434h129v-661l686 661h175l-719 -673l738 -761h-176z" />
    <glyph glyph-name="uni0136" unicode="&#x136;" horiz-adv-x="1244" 
d="M1048 0l-704 733v-733h-129v1434h129v-661l686 661h175l-719 -673l738 -761h-176zM567 -120h143l-158 -307h-84z" />
    <glyph glyph-name="L" unicode="L" horiz-adv-x="1069" 
d="M1038 121v-121h-823v1434h129v-1313h694z" />
    <glyph glyph-name="Lacute" unicode="&#x139;" horiz-adv-x="1069" 
d="M1038 121v-121h-823v1434h129v-1313h694zM392 1823h130l-179 -271h-105z" />
    <glyph glyph-name="Lcaron" unicode="&#x13d;" horiz-adv-x="1076" 
d="M1038 121v-121h-823v1434h129v-1313h694zM727 1009h-95l108 425h155z" />
    <glyph glyph-name="uni013B" unicode="&#x13b;" horiz-adv-x="1069" 
d="M1038 121v-121h-823v1434h129v-1313h694zM536 -120h143l-158 -307h-84z" />
    <glyph glyph-name="Ldot" unicode="&#x13f;" horiz-adv-x="1071" 
d="M1038 121v-121h-823v1434h129v-1313h694zM652 680.5q-27 27.5 -27 68.5q0 39 27.5 66t68.5 27q40 0 66.5 -26.5t26.5 -66.5q0 -41 -26.5 -68.5t-66.5 -27.5q-42 0 -69 27.5z" />
    <glyph glyph-name="Lslash" unicode="&#x141;" horiz-adv-x="1107" 
d="M1076 121v-121h-823v690l-203 -131v100l203 131v644h129v-561l236 152v-100l-236 -152v-652h694z" />
    <glyph glyph-name="M" unicode="M" horiz-adv-x="1857" 
d="M1574 0l-114 1332l-468 -1332h-149l-455 1336l-105 -1336h-122l115 1434h207l437 -1291l455 1291h197l133 -1434h-131z" />
    <glyph glyph-name="N" unicode="N" horiz-adv-x="1551" 
d="M1336 1434v-1434h-178l-822 1318v-1318h-121v1434h195l805 -1291v1291h121z" />
    <glyph glyph-name="Nacute" unicode="&#x143;" horiz-adv-x="1551" 
d="M1336 1434v-1434h-178l-822 1318v-1318h-121v1434h195l805 -1291v1291h121zM872 1823h130l-179 -271h-105z" />
    <glyph glyph-name="Ncaron" unicode="&#x147;" horiz-adv-x="1551" 
d="M1336 1434v-1434h-178l-822 1318v-1318h-121v1434h195l805 -1291v1291h121zM1074 1819l-237 -271h-120l-238 271h108l188 -202l192 202h107z" />
    <glyph glyph-name="uni0145" unicode="&#x145;" horiz-adv-x="1551" 
d="M1336 1434v-1434h-178l-822 1318v-1318h-121v1434h195l805 -1291v1291h121zM706 -120h143l-158 -307h-84z" />
    <glyph glyph-name="Eng" unicode="&#x14a;" horiz-adv-x="1551" 
d="M1336 1434v-1445q0 -133 -45.5 -222.5t-125 -133t-184.5 -43.5q-80 0 -148 30t-107 73v130q94 -115 246 -115q104 0 168.5 58t73.5 173l-878 1379v-1318h-121v1434h195l805 -1267v1267h121z" />
    <glyph glyph-name="Ntilde" unicode="&#xd1;" horiz-adv-x="1551" 
d="M1336 1434v-1434h-178l-822 1318v-1318h-121v1434h195l805 -1291v1291h121zM468 1759q53 60 142 60q52 0 92.5 -19.5t96.5 -57.5q46 -32 75 -47t62 -15q57 0 89 35t38 100h79q-7 -112 -58 -171.5t-139 -59.5q-53 0 -95.5 20t-99.5 58q-46 31 -75 45.5t-61 14.5
q-111 0 -127 -134h-78q6 111 59 171z" />
    <glyph glyph-name="O" unicode="O" horiz-adv-x="1624" 
d="M450.5 60q-159.5 99 -248.5 271.5t-89 385.5q0 214 89.5 386.5t249 271t360.5 98.5q202 0 361.5 -99t249 -271.5t89.5 -385.5q0 -214 -89.5 -386.5t-249 -271t-361.5 -98.5t-361.5 99zM1106.5 165.5q128.5 82.5 200 227t71.5 324.5t-71 324.5t-200 226.5t-295 82
t-294.5 -82t-199.5 -226t-71 -325q0 -180 71 -324.5t199.5 -227t294.5 -82.5t294.5 82.5z" />
    <glyph glyph-name="Oacute" unicode="&#xd3;" horiz-adv-x="1624" 
d="M450.5 60q-159.5 99 -248.5 271.5t-89 385.5q0 214 89.5 386.5t249 271t360.5 98.5q202 0 361.5 -99t249 -271.5t89.5 -385.5q0 -214 -89.5 -386.5t-249 -271t-361.5 -98.5t-361.5 99zM1106.5 165.5q128.5 82.5 200 227t71.5 324.5t-71 324.5t-200 226.5t-295 82
t-294.5 -82t-199.5 -226t-71 -325q0 -180 71 -324.5t199.5 -227t294.5 -82.5t294.5 82.5zM907 1823h130l-179 -271h-105z" />
    <glyph glyph-name="Obreve" unicode="&#x14e;" horiz-adv-x="1624" 
d="M450.5 60q-159.5 99 -248.5 271.5t-89 385.5q0 214 89.5 386.5t249 271t360.5 98.5q202 0 361.5 -99t249 -271.5t89.5 -385.5q0 -214 -89.5 -386.5t-249 -271t-361.5 -98.5t-361.5 99zM1106.5 165.5q128.5 82.5 200 227t71.5 324.5t-71 324.5t-200 226.5t-295 82
t-294.5 -82t-199.5 -226t-71 -325q0 -180 71 -324.5t199.5 -227t294.5 -82.5t294.5 82.5zM659.5 1575q-69.5 31 -112.5 93t-47 150h96q6 -86 63.5 -136.5t152.5 -50.5t152 50.5t63 136.5h96q-5 -88 -48 -150t-111.5 -93t-151.5 -31t-152.5 31z" />
    <glyph glyph-name="Ocircumflex" unicode="&#xd4;" horiz-adv-x="1624" 
d="M450.5 60q-159.5 99 -248.5 271.5t-89 385.5q0 214 89.5 386.5t249 271t360.5 98.5q202 0 361.5 -99t249 -271.5t89.5 -385.5q0 -214 -89.5 -386.5t-249 -271t-361.5 -98.5t-361.5 99zM1106.5 165.5q128.5 82.5 200 227t71.5 324.5t-71 324.5t-200 226.5t-295 82
t-294.5 -82t-199.5 -226t-71 -325q0 -180 71 -324.5t199.5 -227t294.5 -82.5t294.5 82.5zM1002 1561l-192 202l-188 -202h-108l238 271h120l237 -271h-107z" />
    <glyph glyph-name="Odieresis" unicode="&#xd6;" horiz-adv-x="1624" 
d="M450.5 60q-159.5 99 -248.5 271.5t-89 385.5q0 214 89.5 386.5t249 271t360.5 98.5q202 0 361.5 -99t249 -271.5t89.5 -385.5q0 -214 -89.5 -386.5t-249 -271t-361.5 -98.5t-361.5 99zM1106.5 165.5q128.5 82.5 200 227t71.5 324.5t-71 324.5t-200 226.5t-295 82
t-294.5 -82t-199.5 -226t-71 -325q0 -180 71 -324.5t199.5 -227t294.5 -82.5t294.5 82.5zM570 1616q-24 24 -24 57q0 34 23.5 56.5t58.5 22.5t58.5 -22.5t23.5 -56.5q0 -33 -23.5 -57t-58.5 -24q-34 0 -58 24zM936 1616q-24 24 -24 57q0 34 24 56.5t59 22.5t58 -22.5
t23 -56.5q0 -33 -23.5 -57t-57.5 -24q-35 0 -59 24z" />
    <glyph glyph-name="uni1ECC" unicode="&#x1ecc;" horiz-adv-x="1624" 
d="M450.5 60q-159.5 99 -248.5 271.5t-89 385.5q0 214 89.5 386.5t249 271t360.5 98.5q202 0 361.5 -99t249 -271.5t89.5 -385.5q0 -214 -89.5 -386.5t-249 -271t-361.5 -98.5t-361.5 99zM1106.5 165.5q128.5 82.5 200 227t71.5 324.5t-71 324.5t-200 226.5t-295 82
t-294.5 -82t-199.5 -226t-71 -325q0 -180 71 -324.5t199.5 -227t294.5 -82.5t294.5 82.5zM749 -285.5q-26 25.5 -26 62.5t26 61.5t64 24.5t63.5 -24.5t25.5 -61.5t-25.5 -62.5t-63.5 -25.5t-64 25.5z" />
    <glyph glyph-name="Ograve" unicode="&#xd2;" horiz-adv-x="1624" 
d="M450.5 60q-159.5 99 -248.5 271.5t-89 385.5q0 214 89.5 386.5t249 271t360.5 98.5q202 0 361.5 -99t249 -271.5t89.5 -385.5q0 -214 -89.5 -386.5t-249 -271t-361.5 -98.5t-361.5 99zM1106.5 165.5q128.5 82.5 200 227t71.5 324.5t-71 324.5t-200 226.5t-295 82
t-294.5 -82t-199.5 -226t-71 -325q0 -180 71 -324.5t199.5 -227t294.5 -82.5t294.5 82.5zM822 1552l-179 271h130l154 -271h-105z" />
    <glyph glyph-name="Ohungarumlaut" unicode="&#x150;" horiz-adv-x="1624" 
d="M450.5 60q-159.5 99 -248.5 271.5t-89 385.5q0 214 89.5 386.5t249 271t360.5 98.5q202 0 361.5 -99t249 -271.5t89.5 -385.5q0 -214 -89.5 -386.5t-249 -271t-361.5 -98.5t-361.5 99zM1106.5 165.5q128.5 82.5 200 227t71.5 324.5t-71 324.5t-200 226.5t-295 82
t-294.5 -82t-199.5 -226t-71 -325q0 -180 71 -324.5t199.5 -227t294.5 -82.5t294.5 82.5zM766 1823h117l-209 -271h-95zM1045 1823h118l-210 -271h-94z" />
    <glyph glyph-name="Omacron" unicode="&#x14c;" horiz-adv-x="1624" 
d="M450.5 60q-159.5 99 -248.5 271.5t-89 385.5q0 214 89.5 386.5t249 271t360.5 98.5q202 0 361.5 -99t249 -271.5t89.5 -385.5q0 -214 -89.5 -386.5t-249 -271t-361.5 -98.5t-361.5 99zM1106.5 165.5q128.5 82.5 200 227t71.5 324.5t-71 324.5t-200 226.5t-295 82
t-294.5 -82t-199.5 -226t-71 -325q0 -180 71 -324.5t199.5 -227t294.5 -82.5t294.5 82.5zM464 1695h694v-98h-694v98z" />
    <glyph glyph-name="Oslash" unicode="&#xd8;" horiz-adv-x="1624" 
d="M450.5 60q-159.5 99 -248.5 271.5t-89 385.5q0 214 89.5 386.5t249 271t360.5 98.5q202 0 361.5 -99t249 -271.5t89.5 -385.5q0 -214 -89.5 -386.5t-249 -271t-361.5 -98.5t-361.5 99zM1106.5 165.5q128.5 82.5 200 227t71.5 324.5t-71 324.5t-200 226.5t-295 82
t-294.5 -82t-199.5 -226t-71 -325q0 -180 71 -324.5t199.5 -227t294.5 -82.5t294.5 82.5zM122 -31l1307 1557l73 -59l-1307 -1557z" />
    <glyph glyph-name="Oslashacute" unicode="&#x1fe;" horiz-adv-x="1624" 
d="M450.5 60q-159.5 99 -248.5 271.5t-89 385.5q0 214 89.5 386.5t249 271t360.5 98.5q202 0 361.5 -99t249 -271.5t89.5 -385.5q0 -214 -89.5 -386.5t-249 -271t-361.5 -98.5t-361.5 99zM1106.5 165.5q128.5 82.5 200 227t71.5 324.5t-71 324.5t-200 226.5t-295 82
t-294.5 -82t-199.5 -226t-71 -325q0 -180 71 -324.5t199.5 -227t294.5 -82.5t294.5 82.5zM122 -31l1307 1557l73 -59l-1307 -1557zM907 1823h130l-179 -271h-105z" />
    <glyph glyph-name="Otilde" unicode="&#xd5;" horiz-adv-x="1624" 
d="M450.5 60q-159.5 99 -248.5 271.5t-89 385.5q0 214 89.5 386.5t249 271t360.5 98.5q202 0 361.5 -99t249 -271.5t89.5 -385.5q0 -214 -89.5 -386.5t-249 -271t-361.5 -98.5t-361.5 99zM1106.5 165.5q128.5 82.5 200 227t71.5 324.5t-71 324.5t-200 226.5t-295 82
t-294.5 -82t-199.5 -226t-71 -325q0 -180 71 -324.5t199.5 -227t294.5 -82.5t294.5 82.5zM503 1759q53 60 142 60q52 0 92.5 -19.5t96.5 -57.5q46 -32 75 -47t62 -15q57 0 89 35t38 100h79q-7 -112 -58 -171.5t-139 -59.5q-53 0 -95.5 20t-99.5 58q-46 31 -75 45.5t-61 14.5
q-111 0 -127 -134h-78q6 111 59 171z" />
    <glyph glyph-name="OE" unicode="&#x152;" horiz-adv-x="2363" 
d="M2243 116v-116h-864v311q-81 -165 -227.5 -257.5t-340.5 -92.5q-202 0 -361 99t-248 271.5t-89 385.5q0 214 89.5 386.5t248.5 271t360 98.5q195 0 341 -92.5t227 -257.5v311h854v-117h-732v-499h695v-113h-695v-589h742zM1106 165.5q129 82.5 200.5 227t71.5 324.5
t-71.5 324.5t-200 226.5t-295.5 82q-166 0 -294 -82t-199 -226t-71 -325q0 -180 71 -324.5t199 -227t294 -82.5t295 82.5z" />
    <glyph glyph-name="P" unicode="P" horiz-adv-x="1196" 
d="M922 1381q98 -53 149.5 -148.5t51.5 -222.5q0 -128 -55 -225.5t-162.5 -152t-260.5 -54.5h-301v-578h-129v1434h474q135 0 233 -53zM899.5 774q89.5 85 89.5 235q0 145 -84 226.5t-237 81.5h-324v-628h293q173 0 262.5 85z" />
    <glyph glyph-name="Thorn" unicode="&#xde;" horiz-adv-x="1212" 
d="M922 1159.5q98 -52.5 149.5 -148.5t51.5 -223q0 -128 -55 -225.5t-162.5 -152t-260.5 -54.5h-301v-356h-129v1434h129v-222h345q135 0 233 -52.5zM899.5 553q89.5 85 89.5 235q0 145 -84 226.5t-237 81.5h-324v-628h293q173 0 262.5 85z" />
    <glyph glyph-name="Q" unicode="Q" horiz-adv-x="1620" 
d="M1449.5 389q-62.5 -151 -176.5 -254l225 -239h-159l-158 169q-79 -51 -172.5 -77.5t-196.5 -26.5q-202 0 -361.5 99t-248.5 271.5t-89 385.5q0 214 89.5 386.5t249 271t360.5 98.5q202 0 361.5 -99t249 -271.5t89.5 -385.5q0 -177 -62.5 -328zM1094 158l-328 351h155
l265 -282q92 87 142 213.5t50 276.5q0 180 -71 324.5t-200 226.5t-295 82t-294.5 -82t-199.5 -226t-71 -325q0 -180 71 -324.5t199.5 -227t294.5 -82.5q155 0 282 75z" />
    <glyph glyph-name="R" unicode="R" horiz-adv-x="1246" 
d="M994 0l-650 710v-710h-129v1434h521q121 0 211 -49.5t138.5 -136.5t48.5 -198q0 -113 -51 -199.5t-148.5 -134.5t-231.5 -48h-171l631 -668h-169zM344 768h334q157 0 240 73.5t83 202.5q0 84 -34.5 145.5t-99.5 94.5t-155 33h-368v-549z" />
    <glyph glyph-name="Racute" unicode="&#x154;" horiz-adv-x="1246" 
d="M994 0l-650 710v-710h-129v1434h521q121 0 211 -49.5t138.5 -136.5t48.5 -198q0 -113 -51 -199.5t-148.5 -134.5t-231.5 -48h-171l631 -668h-169zM344 768h334q157 0 240 73.5t83 202.5q0 84 -34.5 145.5t-99.5 94.5t-155 33h-368v-549zM734 1823h130l-179 -271h-105z
" />
    <glyph glyph-name="Rcaron" unicode="&#x158;" horiz-adv-x="1246" 
d="M994 0l-650 710v-710h-129v1434h521q121 0 211 -49.5t138.5 -136.5t48.5 -198q0 -113 -51 -199.5t-148.5 -134.5t-231.5 -48h-171l631 -668h-169zM344 768h334q157 0 240 73.5t83 202.5q0 84 -34.5 145.5t-99.5 94.5t-155 33h-368v-549zM936 1819l-237 -271h-120
l-238 271h108l188 -202l192 202h107z" />
    <glyph glyph-name="uni0156" unicode="&#x156;" horiz-adv-x="1246" 
d="M994 0l-650 710v-710h-129v1434h521q121 0 211 -49.5t138.5 -136.5t48.5 -198q0 -113 -51 -199.5t-148.5 -134.5t-231.5 -48h-171l631 -668h-169zM344 768h334q157 0 240 73.5t83 202.5q0 84 -34.5 145.5t-99.5 94.5t-155 33h-368v-549zM568 -120h143l-158 -307h-84z" />
    <glyph glyph-name="S" unicode="S" horiz-adv-x="1121" 
d="M318 13q-117 50 -206 137v139q87 -93 201.5 -149t240.5 -56q155 0 244 70.5t89 197.5q0 67 -27 116t-90.5 93.5t-176.5 95.5l-150 67q-157 69 -233 160.5t-76 216.5q0 107 53 191t151 131t230 47q128 0 228 -43t167 -109v-139q-84 83 -180 127t-213 44q-95 0 -163.5 -29
t-105 -82.5t-36.5 -126.5q0 -64 27.5 -112.5t83.5 -88.5t148 -82l156 -71q123 -56 197.5 -115t109 -127.5t34.5 -155.5q0 -119 -57.5 -209t-161.5 -139t-240 -49q-127 0 -244 50z" />
    <glyph glyph-name="Sacute" unicode="&#x15a;" horiz-adv-x="1121" 
d="M318 13q-117 50 -206 137v139q87 -93 201.5 -149t240.5 -56q155 0 244 70.5t89 197.5q0 67 -27 116t-90.5 93.5t-176.5 95.5l-150 67q-157 69 -233 160.5t-76 216.5q0 107 53 191t151 131t230 47q128 0 228 -43t167 -109v-139q-84 83 -180 127t-213 44q-95 0 -163.5 -29
t-105 -82.5t-36.5 -126.5q0 -64 27.5 -112.5t83.5 -88.5t148 -82l156 -71q123 -56 197.5 -115t109 -127.5t34.5 -155.5q0 -119 -57.5 -209t-161.5 -139t-240 -49q-127 0 -244 50zM671 1823h130l-179 -271h-105z" />
    <glyph glyph-name="Scaron" unicode="&#x160;" horiz-adv-x="1121" 
d="M318 13q-117 50 -206 137v139q87 -93 201.5 -149t240.5 -56q155 0 244 70.5t89 197.5q0 67 -27 116t-90.5 93.5t-176.5 95.5l-150 67q-157 69 -233 160.5t-76 216.5q0 107 53 191t151 131t230 47q128 0 228 -43t167 -109v-139q-84 83 -180 127t-213 44q-95 0 -163.5 -29
t-105 -82.5t-36.5 -126.5q0 -64 27.5 -112.5t83.5 -88.5t148 -82l156 -71q123 -56 197.5 -115t109 -127.5t34.5 -155.5q0 -119 -57.5 -209t-161.5 -139t-240 -49q-127 0 -244 50zM873 1819l-237 -271h-120l-238 271h108l188 -202l192 202h107z" />
    <glyph glyph-name="Scedilla" unicode="&#x15e;" horiz-adv-x="1121" 
d="M318 13q-117 50 -206 137v139q87 -93 201.5 -149t240.5 -56q155 0 244 70.5t89 197.5q0 67 -27 116t-90.5 93.5t-176.5 95.5l-150 67q-157 69 -233 160.5t-76 216.5q0 107 53 191t151 131t230 47q128 0 228 -43t167 -109v-139q-84 83 -180 127t-213 44q-95 0 -163.5 -29
t-105 -82.5t-36.5 -126.5q0 -64 27.5 -112.5t83.5 -88.5t148 -82l156 -71q123 -56 197.5 -115t109 -127.5t34.5 -155.5q0 -119 -57.5 -209t-161.5 -139t-240 -49q-127 0 -244 50zM727.5 -131q45.5 -45 45.5 -114q0 -72 -51 -116.5t-141 -44.5q-75 0 -140 46v88
q20 -20 54.5 -36t81.5 -16q54 0 82.5 24t28.5 62q0 40 -31.5 62t-90.5 22h-46v166h72v-98h6q84 0 129.5 -45z" />
    <glyph glyph-name="Scircumflex" unicode="&#x15c;" horiz-adv-x="1121" 
d="M318 13q-117 50 -206 137v139q87 -93 201.5 -149t240.5 -56q155 0 244 70.5t89 197.5q0 67 -27 116t-90.5 93.5t-176.5 95.5l-150 67q-157 69 -233 160.5t-76 216.5q0 107 53 191t151 131t230 47q128 0 228 -43t167 -109v-139q-84 83 -180 127t-213 44q-95 0 -163.5 -29
t-105 -82.5t-36.5 -126.5q0 -64 27.5 -112.5t83.5 -88.5t148 -82l156 -71q123 -56 197.5 -115t109 -127.5t34.5 -155.5q0 -119 -57.5 -209t-161.5 -139t-240 -49q-127 0 -244 50zM766 1561l-192 202l-188 -202h-108l238 271h120l237 -271h-107z" />
    <glyph glyph-name="uni0218" unicode="&#x218;" horiz-adv-x="1121" 
d="M318 13q-117 50 -206 137v139q87 -93 201.5 -149t240.5 -56q155 0 244 70.5t89 197.5q0 67 -27 116t-90.5 93.5t-176.5 95.5l-150 67q-157 69 -233 160.5t-76 216.5q0 107 53 191t151 131t230 47q128 0 228 -43t167 -109v-139q-84 83 -180 127t-213 44q-95 0 -163.5 -29
t-105 -82.5t-36.5 -126.5q0 -64 27.5 -112.5t83.5 -88.5t148 -82l156 -71q123 -56 197.5 -115t109 -127.5t34.5 -155.5q0 -119 -57.5 -209t-161.5 -139t-240 -49q-127 0 -244 50zM522 -120h143l-158 -307h-84z" />
    <glyph glyph-name="uni1E9E" unicode="&#x1e9e;" horiz-adv-x="1326" 
d="M992 793q114 -52 171.5 -146.5t57.5 -223.5q0 -136 -61.5 -239t-171.5 -159t-252 -56q-83 0 -161.5 19.5t-121.5 48.5v114q55 -32 123 -49.5t139 -17.5q113 0 198 41.5t132 118t47 179.5q0 151 -103.5 239t-322.5 88h-181v96l550 401q-64 51 -139 78t-167 27
q-124 0 -215 -46t-140 -134t-49 -211v-961h-128v954q0 157 61.5 274.5t180.5 182t287 64.5q130 0 230.5 -40t186.5 -110v-133l-488 -347h59q164 0 278 -52z" />
    <glyph glyph-name="T" unicode="T" horiz-adv-x="1099" 
d="M1069 1316h-460v-1316h-128v1316h-450v118h1038v-118z" />
    <glyph glyph-name="Tbar" unicode="&#x166;" horiz-adv-x="1099" 
d="M1069 1316h-460v-1316h-128v1316h-450v118h1038v-118zM230 760h637v-87h-637v87z" />
    <glyph glyph-name="Tcaron" unicode="&#x164;" horiz-adv-x="1099" 
d="M1069 1316h-460v-1316h-128v1316h-450v118h1038v-118zM847 1819l-237 -271h-120l-238 271h108l188 -202l192 202h107z" />
    <glyph glyph-name="uni0162" unicode="&#x162;" horiz-adv-x="1099" 
d="M1069 1316h-460v-1316h-128v1316h-450v118h1038v-118zM479 -120h143l-158 -307h-84z" />
    <glyph glyph-name="uni021A" unicode="&#x21a;" horiz-adv-x="1099" 
d="M1069 1316h-460v-1316h-128v1316h-450v118h1038v-118zM479 -120h143l-158 -307h-84z" />
    <glyph glyph-name="U" unicode="U" horiz-adv-x="1474" 
d="M454.5 26.5q-122.5 67.5 -190.5 195.5t-68 303v909h128v-903q0 -146 51.5 -247t144.5 -151.5t217 -50.5t216.5 50.5t144 151.5t51.5 247v903h129v-909q0 -175 -68 -303t-190.5 -195.5t-282.5 -67.5t-282.5 67.5z" />
    <glyph glyph-name="Uacute" unicode="&#xda;" horiz-adv-x="1474" 
d="M454.5 26.5q-122.5 67.5 -190.5 195.5t-68 303v909h128v-903q0 -146 51.5 -247t144.5 -151.5t217 -50.5t216.5 50.5t144 151.5t51.5 247v903h129v-909q0 -175 -68 -303t-190.5 -195.5t-282.5 -67.5t-282.5 67.5zM832 1823h130l-179 -271h-105z" />
    <glyph glyph-name="Ubreve" unicode="&#x16c;" horiz-adv-x="1474" 
d="M454.5 26.5q-122.5 67.5 -190.5 195.5t-68 303v909h128v-903q0 -146 51.5 -247t144.5 -151.5t217 -50.5t216.5 50.5t144 151.5t51.5 247v903h129v-909q0 -175 -68 -303t-190.5 -195.5t-282.5 -67.5t-282.5 67.5zM584.5 1575q-69.5 31 -112.5 93t-47 150h96
q6 -86 63.5 -136.5t152.5 -50.5t152 50.5t63 136.5h96q-5 -88 -48 -150t-111.5 -93t-151.5 -31t-152.5 31z" />
    <glyph glyph-name="Ucircumflex" unicode="&#xdb;" horiz-adv-x="1474" 
d="M454.5 26.5q-122.5 67.5 -190.5 195.5t-68 303v909h128v-903q0 -146 51.5 -247t144.5 -151.5t217 -50.5t216.5 50.5t144 151.5t51.5 247v903h129v-909q0 -175 -68 -303t-190.5 -195.5t-282.5 -67.5t-282.5 67.5zM927 1561l-192 202l-188 -202h-108l238 271h120l237 -271
h-107z" />
    <glyph glyph-name="Udieresis" unicode="&#xdc;" horiz-adv-x="1474" 
d="M454.5 26.5q-122.5 67.5 -190.5 195.5t-68 303v909h128v-903q0 -146 51.5 -247t144.5 -151.5t217 -50.5t216.5 50.5t144 151.5t51.5 247v903h129v-909q0 -175 -68 -303t-190.5 -195.5t-282.5 -67.5t-282.5 67.5zM495 1616q-24 24 -24 57q0 34 23.5 56.5t58.5 22.5
t58.5 -22.5t23.5 -56.5q0 -33 -23.5 -57t-58.5 -24q-34 0 -58 24zM861 1616q-24 24 -24 57q0 34 24 56.5t59 22.5t58 -22.5t23 -56.5q0 -33 -23.5 -57t-57.5 -24q-35 0 -59 24z" />
    <glyph glyph-name="uni1EE4" unicode="&#x1ee4;" horiz-adv-x="1474" 
d="M454.5 26.5q-122.5 67.5 -190.5 195.5t-68 303v909h128v-903q0 -146 51.5 -247t144.5 -151.5t217 -50.5t216.5 50.5t144 151.5t51.5 247v903h129v-909q0 -175 -68 -303t-190.5 -195.5t-282.5 -67.5t-282.5 67.5zM674 -285.5q-26 25.5 -26 62.5t26 61.5t64 24.5
t63.5 -24.5t25.5 -61.5t-25.5 -62.5t-63.5 -25.5t-64 25.5z" />
    <glyph glyph-name="Ugrave" unicode="&#xd9;" horiz-adv-x="1474" 
d="M454.5 26.5q-122.5 67.5 -190.5 195.5t-68 303v909h128v-903q0 -146 51.5 -247t144.5 -151.5t217 -50.5t216.5 50.5t144 151.5t51.5 247v903h129v-909q0 -175 -68 -303t-190.5 -195.5t-282.5 -67.5t-282.5 67.5zM747 1552l-179 271h130l154 -271h-105z" />
    <glyph glyph-name="Uhungarumlaut" unicode="&#x170;" horiz-adv-x="1474" 
d="M454.5 26.5q-122.5 67.5 -190.5 195.5t-68 303v909h128v-903q0 -146 51.5 -247t144.5 -151.5t217 -50.5t216.5 50.5t144 151.5t51.5 247v903h129v-909q0 -175 -68 -303t-190.5 -195.5t-282.5 -67.5t-282.5 67.5zM691 1823h117l-209 -271h-95zM970 1823h118l-210 -271h-94
z" />
    <glyph glyph-name="Umacron" unicode="&#x16a;" horiz-adv-x="1474" 
d="M454.5 26.5q-122.5 67.5 -190.5 195.5t-68 303v909h128v-903q0 -146 51.5 -247t144.5 -151.5t217 -50.5t216.5 50.5t144 151.5t51.5 247v903h129v-909q0 -175 -68 -303t-190.5 -195.5t-282.5 -67.5t-282.5 67.5zM389 1695h694v-98h-694v98z" />
    <glyph glyph-name="Uogonek" unicode="&#x172;" horiz-adv-x="1474" 
d="M454.5 26.5q-122.5 67.5 -190.5 195.5t-68 303v909h128v-903q0 -146 51.5 -247t144.5 -151.5t217 -50.5t216.5 50.5t144 151.5t51.5 247v903h129v-909q0 -175 -68 -303t-190.5 -195.5t-282.5 -67.5t-282.5 67.5zM679.5 -353q-50.5 53 -50.5 137q0 68 35 124.5t102 90.5
t159 35l26 -34q-118 -14 -177.5 -67.5t-59.5 -129.5q0 -61 34 -94.5t86 -33.5q34 0 65 10.5t52 22.5v-81q-64 -33 -133 -33q-88 0 -138.5 53z" />
    <glyph glyph-name="Uring" unicode="&#x16e;" horiz-adv-x="1474" 
d="M454.5 26.5q-122.5 67.5 -190.5 195.5t-68 303v909h128v-903q0 -146 51.5 -247t144.5 -151.5t217 -50.5t216.5 50.5t144 151.5t51.5 247v903h129v-909q0 -175 -68 -303t-190.5 -195.5t-282.5 -67.5t-282.5 67.5zM633.5 1559q-47.5 28 -75.5 75t-28 103t28 101.5t75.5 72
t103.5 26.5q58 0 105 -26t74 -72t27 -102t-27 -103t-74.5 -75t-104.5 -28q-56 0 -103.5 28zM828 1642q35 38 35 95q0 54 -35.5 90.5t-90.5 36.5t-90.5 -36.5t-35.5 -90.5q0 -57 35 -95t91 -38t91 38z" />
    <glyph glyph-name="Utilde" unicode="&#x168;" horiz-adv-x="1474" 
d="M454.5 26.5q-122.5 67.5 -190.5 195.5t-68 303v909h128v-903q0 -146 51.5 -247t144.5 -151.5t217 -50.5t216.5 50.5t144 151.5t51.5 247v903h129v-909q0 -175 -68 -303t-190.5 -195.5t-282.5 -67.5t-282.5 67.5zM428 1759q53 60 142 60q52 0 92.5 -19.5t96.5 -57.5
q46 -32 75 -47t62 -15q57 0 89 35t38 100h79q-7 -112 -58 -171.5t-139 -59.5q-53 0 -95.5 20t-99.5 58q-46 31 -75 45.5t-61 14.5q-111 0 -127 -134h-78q6 111 59 171z" />
    <glyph glyph-name="V" unicode="V" horiz-adv-x="1312" 
d="M1254 1434l-525 -1438h-148l-523 1438h138l460 -1297l462 1297h136z" />
    <glyph glyph-name="W" unicode="W" horiz-adv-x="1970" 
d="M1905 1434l-397 -1438h-162l-361 1325l-366 -1325h-164l-384 1438h138l329 -1297l359 1297h176l353 -1298l342 1298h137z" />
    <glyph glyph-name="Wacute" unicode="&#x1e82;" horiz-adv-x="1970" 
d="M1905 1434l-397 -1438h-162l-361 1325l-366 -1325h-164l-384 1438h138l329 -1297l359 1297h176l353 -1298l342 1298h137zM1083 1823h130l-179 -271h-105z" />
    <glyph glyph-name="Wcircumflex" unicode="&#x174;" horiz-adv-x="1970" 
d="M1905 1434l-397 -1438h-162l-361 1325l-366 -1325h-164l-384 1438h138l329 -1297l359 1297h176l353 -1298l342 1298h137zM1178 1561l-192 202l-188 -202h-108l238 271h120l237 -271h-107z" />
    <glyph glyph-name="Wdieresis" unicode="&#x1e84;" horiz-adv-x="1970" 
d="M1905 1434l-397 -1438h-162l-361 1325l-366 -1325h-164l-384 1438h138l329 -1297l359 1297h176l353 -1298l342 1298h137zM746 1616q-24 24 -24 57q0 34 23.5 56.5t58.5 22.5t58.5 -22.5t23.5 -56.5q0 -33 -23.5 -57t-58.5 -24q-34 0 -58 24zM1112 1616q-24 24 -24 57
q0 34 24 56.5t59 22.5t58 -22.5t23 -56.5q0 -33 -23.5 -57t-57.5 -24q-35 0 -59 24z" />
    <glyph glyph-name="Wgrave" unicode="&#x1e80;" horiz-adv-x="1970" 
d="M1905 1434l-397 -1438h-162l-361 1325l-366 -1325h-164l-384 1438h138l329 -1297l359 1297h176l353 -1298l342 1298h137zM998 1552l-179 271h130l154 -271h-105z" />
    <glyph glyph-name="X" unicode="X" horiz-adv-x="1221" 
d="M1017 0l-409 659l-407 -659h-154l478 758l-452 676h153l383 -587l391 587h151l-461 -676l483 -758h-156z" />
    <glyph glyph-name="Y" unicode="Y" horiz-adv-x="1289" 
d="M1224 1434l-517 -869v-565h-128v565l-507 869h141l430 -746l438 746h143z" />
    <glyph glyph-name="Yacute" unicode="&#xdd;" horiz-adv-x="1289" 
d="M1224 1434l-517 -869v-565h-128v565l-507 869h141l430 -746l438 746h143zM744 1823h130l-179 -271h-105z" />
    <glyph glyph-name="Ycircumflex" unicode="&#x176;" horiz-adv-x="1289" 
d="M1224 1434l-517 -869v-565h-128v565l-507 869h141l430 -746l438 746h143zM839 1561l-192 202l-188 -202h-108l238 271h120l237 -271h-107z" />
    <glyph glyph-name="Ydieresis" unicode="&#x178;" horiz-adv-x="1289" 
d="M1224 1434l-517 -869v-565h-128v565l-507 869h141l430 -746l438 746h143zM407 1616q-24 24 -24 57q0 34 23.5 56.5t58.5 22.5t58.5 -22.5t23.5 -56.5q0 -33 -23.5 -57t-58.5 -24q-34 0 -58 24zM773 1616q-24 24 -24 57q0 34 24 56.5t59 22.5t58 -22.5t23 -56.5
q0 -33 -23.5 -57t-57.5 -24q-35 0 -59 24z" />
    <glyph glyph-name="Ygrave" unicode="&#x1ef2;" horiz-adv-x="1289" 
d="M1224 1434l-517 -869v-565h-128v565l-507 869h141l430 -746l438 746h143zM659 1552l-179 271h130l154 -271h-105z" />
    <glyph glyph-name="uni0232" unicode="&#x232;" horiz-adv-x="1289" 
d="M1224 1434l-517 -869v-565h-128v565l-507 869h141l430 -746l438 746h143zM301 1695h694v-98h-694v98z" />
    <glyph glyph-name="Z" unicode="Z" horiz-adv-x="1164" 
d="M1087 120v-120h-1005v129l829 1190h-813v115h965v-118l-843 -1196h867z" />
    <glyph glyph-name="Zacute" unicode="&#x179;" horiz-adv-x="1164" 
d="M1087 120v-120h-1005v129l829 1190h-813v115h965v-118l-843 -1196h867zM676 1823h130l-179 -271h-105z" />
    <glyph glyph-name="Zcaron" unicode="&#x17d;" horiz-adv-x="1164" 
d="M1087 120v-120h-1005v129l829 1190h-813v115h965v-118l-843 -1196h867zM878 1819l-237 -271h-120l-238 271h108l188 -202l192 202h107z" />
    <glyph glyph-name="Zdotaccent" unicode="&#x17b;" horiz-adv-x="1164" 
d="M1087 120v-120h-1005v129l829 1190h-813v115h965v-118l-843 -1196h867zM517 1621.5q-26 25.5 -26 62.5t26 61.5t64 24.5t63.5 -24.5t25.5 -61.5t-25.5 -62.5t-63.5 -25.5t-64 25.5z" />
    <glyph glyph-name="M.ss02" horiz-adv-x="1860" 
d="M1645 1434v-1434h-125v1328l-529 -1328h-136l-520 1337v-1337h-120v1434h211l500 -1284l512 1284h207z" />
    <glyph glyph-name="a" unicode="a" horiz-adv-x="1046" 
d="M697.5 1006q89.5 -49 138 -142t48.5 -222v-642h-120v164q-38 -87 -119.5 -139t-189.5 -52q-102 0 -183 43t-126 117.5t-45 165.5q0 92 46 165.5t130 115t193 41.5q104 0 182 -44.5t112 -114.5v166q0 99 -35.5 170t-102 109t-156.5 38q-97 0 -178 -38.5t-142 -107.5v127
q63 57 147.5 93t188.5 36q122 0 211.5 -49zM632 104q62 32 97 86.5t35 119.5q0 64 -34 114t-94.5 78t-137.5 28q-83 0 -144.5 -28.5t-94.5 -80t-33 -118.5q0 -68 32.5 -120.5t93 -81.5t140.5 -29q78 0 140 32z" />
    <glyph glyph-name="aacute" unicode="&#xe1;" horiz-adv-x="1046" 
d="M697.5 1006q89.5 -49 138 -142t48.5 -222v-642h-120v164q-38 -87 -119.5 -139t-189.5 -52q-102 0 -183 43t-126 117.5t-45 165.5q0 92 46 165.5t130 115t193 41.5q104 0 182 -44.5t112 -114.5v166q0 99 -35.5 170t-102 109t-156.5 38q-97 0 -178 -38.5t-142 -107.5v127
q63 57 147.5 93t188.5 36q122 0 211.5 -49zM632 104q62 32 97 86.5t35 119.5q0 64 -34 114t-94.5 78t-137.5 28q-83 0 -144.5 -28.5t-94.5 -80t-33 -118.5q0 -68 32.5 -120.5t93 -81.5t140.5 -29q78 0 140 32zM611 1425h125l-178 -270h-101z" />
    <glyph glyph-name="abreve" unicode="&#x103;" horiz-adv-x="1046" 
d="M697.5 1006q89.5 -49 138 -142t48.5 -222v-642h-120v164q-38 -87 -119.5 -139t-189.5 -52q-102 0 -183 43t-126 117.5t-45 165.5q0 92 46 165.5t130 115t193 41.5q104 0 182 -44.5t112 -114.5v166q0 99 -35.5 170t-102 109t-156.5 38q-97 0 -178 -38.5t-142 -107.5v127
q63 57 147.5 93t188.5 36q122 0 211.5 -49zM632 104q62 32 97 86.5t35 119.5q0 64 -34 114t-94.5 78t-137.5 28q-83 0 -144.5 -28.5t-94.5 -80t-33 -118.5q0 -68 32.5 -120.5t93 -81.5t140.5 -29q78 0 140 32zM390 1180q-58 28 -94 84t-40 136h90q5 -76 51.5 -121.5
t120.5 -45.5q76 0 121.5 45t50.5 122h90q-4 -80 -40 -136t-94 -84t-128 -28t-128 28z" />
    <glyph glyph-name="acircumflex" unicode="&#xe2;" horiz-adv-x="1046" 
d="M697.5 1006q89.5 -49 138 -142t48.5 -222v-642h-120v164q-38 -87 -119.5 -139t-189.5 -52q-102 0 -183 43t-126 117.5t-45 165.5q0 92 46 165.5t130 115t193 41.5q104 0 182 -44.5t112 -114.5v166q0 99 -35.5 170t-102 109t-156.5 38q-97 0 -178 -38.5t-142 -107.5v127
q63 57 147.5 93t188.5 36q122 0 211.5 -49zM632 104q62 32 97 86.5t35 119.5q0 64 -34 114t-94.5 78t-137.5 28q-83 0 -144.5 -28.5t-94.5 -80t-33 -118.5q0 -68 32.5 -120.5t93 -81.5t140.5 -29q78 0 140 32zM672 1155l-158 200l-155 -200h-103l201 270h118l201 -270h-104z
" />
    <glyph glyph-name="adieresis" unicode="&#xe4;" horiz-adv-x="1046" 
d="M697.5 1006q89.5 -49 138 -142t48.5 -222v-642h-120v164q-38 -87 -119.5 -139t-189.5 -52q-102 0 -183 43t-126 117.5t-45 165.5q0 92 46 165.5t130 115t193 41.5q104 0 182 -44.5t112 -114.5v166q0 99 -35.5 170t-102 109t-156.5 38q-97 0 -178 -38.5t-142 -107.5v127
q63 57 147.5 93t188.5 36q122 0 211.5 -49zM632 104q62 32 97 86.5t35 119.5q0 64 -34 114t-94.5 78t-137.5 28q-83 0 -144.5 -28.5t-94.5 -80t-33 -118.5q0 -68 32.5 -120.5t93 -81.5t140.5 -29q78 0 140 32zM291 1239q-23 23 -23 55q0 31 23 52.5t55 21.5q34 0 56.5 -21
t22.5 -53t-22.5 -55t-56.5 -23q-32 0 -55 23zM629 1239q-23 23 -23 55q0 31 23 52.5t57 21.5q32 0 54.5 -21.5t22.5 -52.5q0 -32 -22.5 -55t-54.5 -23q-34 0 -57 23z" />
    <glyph glyph-name="uni0227" unicode="&#x227;" horiz-adv-x="1046" 
d="M697.5 1006q89.5 -49 138 -142t48.5 -222v-642h-120v164q-38 -87 -119.5 -139t-189.5 -52q-102 0 -183 43t-126 117.5t-45 165.5q0 92 46 165.5t130 115t193 41.5q104 0 182 -44.5t112 -114.5v166q0 99 -35.5 170t-102 109t-156.5 38q-97 0 -178 -38.5t-142 -107.5v127
q63 57 147.5 93t188.5 36q122 0 211.5 -49zM632 104q62 32 97 86.5t35 119.5q0 64 -34 114t-94.5 78t-137.5 28q-83 0 -144.5 -28.5t-94.5 -80t-33 -118.5q0 -68 32.5 -120.5t93 -81.5t140.5 -29q78 0 140 32zM452 1231q-26 26 -26 63q0 36 26 61t63 25q38 0 64 -25t26 -61
q0 -37 -26 -63t-64 -26q-37 0 -63 26z" />
    <glyph glyph-name="uni1EA1" unicode="&#x1ea1;" horiz-adv-x="1046" 
d="M697.5 1006q89.5 -49 138 -142t48.5 -222v-642h-120v164q-38 -87 -119.5 -139t-189.5 -52q-102 0 -183 43t-126 117.5t-45 165.5q0 92 46 165.5t130 115t193 41.5q104 0 182 -44.5t112 -114.5v166q0 99 -35.5 170t-102 109t-156.5 38q-97 0 -178 -38.5t-142 -107.5v127
q63 57 147.5 93t188.5 36q122 0 211.5 -49zM632 104q62 32 97 86.5t35 119.5q0 64 -34 114t-94.5 78t-137.5 28q-83 0 -144.5 -28.5t-94.5 -80t-33 -118.5q0 -68 32.5 -120.5t93 -81.5t140.5 -29q78 0 140 32zM451 -323q-26 26 -26 63q0 36 26 61t63 25q38 0 64 -25t26 -61
q0 -37 -26 -63t-64 -26q-37 0 -63 26z" />
    <glyph glyph-name="agrave" unicode="&#xe0;" horiz-adv-x="1046" 
d="M697.5 1006q89.5 -49 138 -142t48.5 -222v-642h-120v164q-38 -87 -119.5 -139t-189.5 -52q-102 0 -183 43t-126 117.5t-45 165.5q0 92 46 165.5t130 115t193 41.5q104 0 182 -44.5t112 -114.5v166q0 99 -35.5 170t-102 109t-156.5 38q-97 0 -178 -38.5t-142 -107.5v127
q63 57 147.5 93t188.5 36q122 0 211.5 -49zM632 104q62 32 97 86.5t35 119.5q0 64 -34 114t-94.5 78t-137.5 28q-83 0 -144.5 -28.5t-94.5 -80t-33 -118.5q0 -68 32.5 -120.5t93 -81.5t140.5 -29q78 0 140 32zM486 1155l-178 270h125l154 -270h-101z" />
    <glyph glyph-name="amacron" unicode="&#x101;" horiz-adv-x="1046" 
d="M697.5 1006q89.5 -49 138 -142t48.5 -222v-642h-120v164q-38 -87 -119.5 -139t-189.5 -52q-102 0 -183 43t-126 117.5t-45 165.5q0 92 46 165.5t130 115t193 41.5q104 0 182 -44.5t112 -114.5v166q0 99 -35.5 170t-102 109t-156.5 38q-97 0 -178 -38.5t-142 -107.5v127
q63 57 147.5 93t188.5 36q122 0 211.5 -49zM632 104q62 32 97 86.5t35 119.5q0 64 -34 114t-94.5 78t-137.5 28q-83 0 -144.5 -28.5t-94.5 -80t-33 -118.5q0 -68 32.5 -120.5t93 -81.5t140.5 -29q78 0 140 32zM248 1304h534v-87h-534v87z" />
    <glyph glyph-name="aogonek" unicode="&#x105;" horiz-adv-x="1046" 
d="M697.5 1006q89.5 -49 138 -142t48.5 -222v-642h-120v164q-38 -87 -119.5 -139t-189.5 -52q-102 0 -183 43t-126 117.5t-45 165.5q0 92 46 165.5t130 115t193 41.5q104 0 182 -44.5t112 -114.5v166q0 99 -35.5 170t-102 109t-156.5 38q-97 0 -178 -38.5t-142 -107.5v127
q63 57 147.5 93t188.5 36q122 0 211.5 -49zM632 104q62 32 97 86.5t35 119.5q0 64 -34 114t-94.5 78t-137.5 28q-83 0 -144.5 -28.5t-94.5 -80t-33 -118.5q0 -68 32.5 -120.5t93 -81.5t140.5 -29q78 0 140 32zM610.5 -353q-50.5 53 -50.5 137q0 66 34.5 120.5t101.5 87.5
t159 35l27 -27q-118 -14 -177.5 -67.5t-59.5 -129.5q0 -61 34 -94.5t86 -33.5q35 0 65.5 10.5t51.5 22.5v-81q-64 -33 -133 -33q-88 0 -138.5 53z" />
    <glyph glyph-name="aring" unicode="&#xe5;" horiz-adv-x="1046" 
d="M697.5 1006q89.5 -49 138 -142t48.5 -222v-642h-120v164q-38 -87 -119.5 -139t-189.5 -52q-102 0 -183 43t-126 117.5t-45 165.5q0 92 46 165.5t130 115t193 41.5q104 0 182 -44.5t112 -114.5v166q0 99 -35.5 170t-102 109t-156.5 38q-97 0 -178 -38.5t-142 -107.5v127
q63 57 147.5 93t188.5 36q122 0 211.5 -49zM632 104q62 32 97 86.5t35 119.5q0 64 -34 114t-94.5 78t-137.5 28q-83 0 -144.5 -28.5t-94.5 -80t-33 -118.5q0 -68 32.5 -120.5t93 -81.5t140.5 -29q78 0 140 32zM426.5 1183q-40.5 24 -64.5 64.5t-24 87.5q0 49 23.5 88.5
t64.5 62t90 22.5t89 -22.5t63 -62t23 -88.5q0 -47 -23 -87.5t-63.5 -64.5t-88.5 -24q-49 0 -89.5 24zM589.5 1257.5q29.5 31.5 29.5 77.5q0 44 -29.5 75t-73.5 31q-46 0 -76 -31t-30 -75q0 -46 30 -77.5t76 -31.5q44 0 73.5 31.5z" />
    <glyph glyph-name="aringacute" unicode="&#x1fb;" horiz-adv-x="1046" 
d="M697.5 1006q89.5 -49 138 -142t48.5 -222v-642h-120v164q-38 -87 -119.5 -139t-189.5 -52q-102 0 -183 43t-126 117.5t-45 165.5q0 92 46 165.5t130 115t193 41.5q104 0 182 -44.5t112 -114.5v166q0 99 -35.5 170t-102 109t-156.5 38q-97 0 -178 -38.5t-142 -107.5v127
q63 57 147.5 93t188.5 36q122 0 211.5 -49zM632 104q62 32 97 86.5t35 119.5q0 64 -34 114t-94.5 78t-137.5 28q-83 0 -144.5 -28.5t-94.5 -80t-33 -118.5q0 -68 32.5 -120.5t93 -81.5t140.5 -29q78 0 140 32zM584 1720h102l-148 -168h-79zM426.5 1183q-40.5 24 -64.5 64.5
t-24 87.5q0 49 23.5 88.5t64.5 62t90 22.5t89 -22.5t63 -62t23 -88.5q0 -47 -23 -87.5t-63.5 -64.5t-88.5 -24q-49 0 -89.5 24zM589.5 1257.5q29.5 31.5 29.5 77.5q0 44 -29.5 75t-73.5 31q-46 0 -76 -31t-30 -75q0 -46 30 -77.5t76 -31.5q44 0 73.5 31.5z" />
    <glyph glyph-name="atilde" unicode="&#xe3;" horiz-adv-x="1046" 
d="M697.5 1006q89.5 -49 138 -142t48.5 -222v-642h-120v164q-38 -87 -119.5 -139t-189.5 -52q-102 0 -183 43t-126 117.5t-45 165.5q0 92 46 165.5t130 115t193 41.5q104 0 182 -44.5t112 -114.5v166q0 99 -35.5 170t-102 109t-156.5 38q-97 0 -178 -38.5t-142 -107.5v127
q63 57 147.5 93t188.5 36q122 0 211.5 -49zM632 104q62 32 97 86.5t35 119.5q0 64 -34 114t-94.5 78t-137.5 28q-83 0 -144.5 -28.5t-94.5 -80t-33 -118.5q0 -68 32.5 -120.5t93 -81.5t140.5 -29q78 0 140 32zM567.5 1180.5q-29.5 16.5 -68.5 48.5q-33 26 -52.5 37.5
t-41.5 11.5q-79 0 -87 -97h-72q4 89 44.5 136.5t108.5 47.5q36 0 65.5 -16.5t66.5 -47.5q30 -25 51.5 -38t44.5 -13q38 0 60 26t26 71h72q-4 -89 -43 -136t-107 -47q-38 0 -67.5 16.5z" />
    <glyph glyph-name="ae" unicode="&#xe6;" horiz-adv-x="1774" 
d="M1674 514h-786q1 -132 51 -230t142 -150.5t217 -52.5q100 0 189.5 33.5t154.5 89.5v-108q-63 -58 -156 -92.5t-202 -34.5q-148 0 -261 65.5t-176 184.5q-22 -75 -75.5 -130.5t-130 -85.5t-164.5 -30q-109 0 -195 43t-133.5 117.5t-47.5 165.5q0 92 46 165.5t130 115
t193 41.5q104 0 182 -44.5t112 -114.5v166q0 99 -35.5 170t-102 109t-156.5 38q-96 0 -177.5 -38.5t-142.5 -106.5v128q63 56 147 91.5t189 35.5q132 0 224 -60.5t133 -172.5q59 110 163 171.5t245 61.5q131 0 226.5 -55t146 -156t50.5 -236v-94zM1001.5 854
q-90.5 -91 -108.5 -245h668q-2 102 -38.5 177.5t-107 117t-169.5 41.5q-154 0 -244.5 -91zM632 106.5q62 31.5 97 85.5t35 118t-34 114t-94.5 78t-137.5 28q-83 0 -144.5 -28.5t-94.5 -80t-33 -118.5t32.5 -118.5t93 -80.5t140.5 -29q78 0 140 31.5z" />
    <glyph glyph-name="aeacute" unicode="&#x1fd;" horiz-adv-x="1774" 
d="M1674 514h-786q1 -132 51 -230t142 -150.5t217 -52.5q100 0 189.5 33.5t154.5 89.5v-108q-63 -58 -156 -92.5t-202 -34.5q-148 0 -261 65.5t-176 184.5q-22 -75 -75.5 -130.5t-130 -85.5t-164.5 -30q-109 0 -195 43t-133.5 117.5t-47.5 165.5q0 92 46 165.5t130 115
t193 41.5q104 0 182 -44.5t112 -114.5v166q0 99 -35.5 170t-102 109t-156.5 38q-96 0 -177.5 -38.5t-142.5 -106.5v128q63 56 147 91.5t189 35.5q132 0 224 -60.5t133 -172.5q59 110 163 171.5t245 61.5q131 0 226.5 -55t146 -156t50.5 -236v-94zM1001.5 854
q-90.5 -91 -108.5 -245h668q-2 102 -38.5 177.5t-107 117t-169.5 41.5q-154 0 -244.5 -91zM632 106.5q62 31.5 97 85.5t35 118t-34 114t-94.5 78t-137.5 28q-83 0 -144.5 -28.5t-94.5 -80t-33 -118.5t32.5 -118.5t93 -80.5t140.5 -29q78 0 140 31.5zM961 1425h125l-178 -270
h-101z" />
    <glyph glyph-name="uni01E3" unicode="&#x1e3;" horiz-adv-x="1774" 
d="M1674 514h-786q1 -132 51 -230t142 -150.5t217 -52.5q100 0 189.5 33.5t154.5 89.5v-108q-63 -58 -156 -92.5t-202 -34.5q-148 0 -261 65.5t-176 184.5q-22 -75 -75.5 -130.5t-130 -85.5t-164.5 -30q-109 0 -195 43t-133.5 117.5t-47.5 165.5q0 92 46 165.5t130 115
t193 41.5q104 0 182 -44.5t112 -114.5v166q0 99 -35.5 170t-102 109t-156.5 38q-96 0 -177.5 -38.5t-142.5 -106.5v128q63 56 147 91.5t189 35.5q132 0 224 -60.5t133 -172.5q59 110 163 171.5t245 61.5q131 0 226.5 -55t146 -156t50.5 -236v-94zM1001.5 854
q-90.5 -91 -108.5 -245h668q-2 102 -38.5 177.5t-107 117t-169.5 41.5q-154 0 -244.5 -91zM632 106.5q62 31.5 97 85.5t35 118t-34 114t-94.5 78t-137.5 28q-83 0 -144.5 -28.5t-94.5 -80t-33 -118.5t32.5 -118.5t93 -80.5t140.5 -29q78 0 140 31.5zM598 1304h534v-87h-534
v87z" />
    <glyph glyph-name="b" unicode="b" horiz-adv-x="1232" 
d="M918.5 984.5q101.5 -70.5 157.5 -193t56 -272.5q0 -157 -61 -282.5t-166.5 -196.5t-233.5 -71q-131 0 -229.5 77t-144.5 206v-252h-121v1475h121v-713q46 132 146.5 212.5t242.5 80.5q131 0 232.5 -70.5zM835.5 136q82.5 57 127.5 156t45 222q0 122 -43.5 219.5t-124 153
t-185.5 55.5q-109 0 -191 -56.5t-125.5 -155t-43.5 -221.5q0 -121 43 -219t123 -154.5t185 -56.5q107 0 189.5 57z" />
    <glyph glyph-name="c" unicode="c" horiz-adv-x="1027" 
d="M342 41q-116 72 -179.5 197t-63.5 279q0 153 64 275.5t181.5 192.5t270.5 70q190 0 317 -96v-132q-67 59 -142.5 87.5t-168.5 28.5q-120 0 -210 -55t-138.5 -151.5t-48.5 -218.5q0 -125 47.5 -224t139 -156t219.5 -57q90 0 170 30t140 82v-119q-70 -53 -151 -79t-179 -26
q-152 0 -268 72z" />
    <glyph glyph-name="cacute" unicode="&#x107;" horiz-adv-x="1027" 
d="M342 41q-116 72 -179.5 197t-63.5 279q0 153 64 275.5t181.5 192.5t270.5 70q190 0 317 -96v-132q-67 59 -142.5 87.5t-168.5 28.5q-120 0 -210 -55t-138.5 -151.5t-48.5 -218.5q0 -125 47.5 -224t139 -156t219.5 -57q90 0 170 30t140 82v-119q-70 -53 -151 -79t-179 -26
q-152 0 -268 72zM694 1425h125l-178 -270h-101z" />
    <glyph glyph-name="ccaron" unicode="&#x10d;" horiz-adv-x="1027" 
d="M342 41q-116 72 -179.5 197t-63.5 279q0 153 64 275.5t181.5 192.5t270.5 70q190 0 317 -96v-132q-67 59 -142.5 87.5t-168.5 28.5q-120 0 -210 -55t-138.5 -151.5t-48.5 -218.5q0 -125 47.5 -224t139 -156t219.5 -57q90 0 170 30t140 82v-119q-70 -53 -151 -79t-179 -26
q-152 0 -268 72zM859 1425l-201 -270h-118l-201 270h103l155 -200l158 200h104z" />
    <glyph glyph-name="ccedilla" unicode="&#xe7;" horiz-adv-x="1027" 
d="M342 41q-116 72 -179.5 197t-63.5 279q0 153 64 275.5t181.5 192.5t270.5 70q190 0 317 -96v-132q-67 59 -142.5 87.5t-168.5 28.5q-120 0 -210 -55t-138.5 -151.5t-48.5 -218.5q0 -125 47.5 -224t139 -156t219.5 -57q90 0 170 30t140 82v-119q-70 -53 -151 -79t-179 -26
q-152 0 -268 72zM767.5 -120.5q45.5 -46.5 45.5 -119.5t-51 -119.5t-141 -46.5q-75 0 -140 46v88q20 -20 54.5 -36t81.5 -16q54 0 82.5 25t28.5 66q0 44 -31.5 67.5t-90.5 23.5h-46v154h72v-86h6q84 0 129.5 -46.5z" />
    <glyph glyph-name="ccircumflex" unicode="&#x109;" horiz-adv-x="1027" 
d="M342 41q-116 72 -179.5 197t-63.5 279q0 153 64 275.5t181.5 192.5t270.5 70q190 0 317 -96v-132q-67 59 -142.5 87.5t-168.5 28.5q-120 0 -210 -55t-138.5 -151.5t-48.5 -218.5q0 -125 47.5 -224t139 -156t219.5 -57q90 0 170 30t140 82v-119q-70 -53 -151 -79t-179 -26
q-152 0 -268 72zM755 1155l-158 200l-155 -200h-103l201 270h118l201 -270h-104z" />
    <glyph glyph-name="cdotaccent" unicode="&#x10b;" horiz-adv-x="1027" 
d="M342 41q-116 72 -179.5 197t-63.5 279q0 153 64 275.5t181.5 192.5t270.5 70q190 0 317 -96v-132q-67 59 -142.5 87.5t-168.5 28.5q-120 0 -210 -55t-138.5 -151.5t-48.5 -218.5q0 -125 47.5 -224t139 -156t219.5 -57q90 0 170 30t140 82v-119q-70 -53 -151 -79t-179 -26
q-152 0 -268 72zM535 1231q-26 26 -26 63q0 36 26 61t63 25q38 0 64 -25t26 -61q0 -37 -26 -63t-64 -26q-37 0 -63 26z" />
    <glyph glyph-name="d" unicode="d" horiz-adv-x="1232" 
d="M1057 1475v-1475h-121v268q-44 -135 -141.5 -217t-241.5 -82q-131 0 -234 69t-161 191.5t-58 279.5q0 160 61 284t167 193t237 69q132 0 226.5 -71t144.5 -204v695h121zM768 137.5q82 56.5 126 156t44 223.5q0 122 -42.5 219.5t-122.5 153t-188 55.5t-189.5 -54.5
t-126 -153t-44.5 -226.5q0 -127 44 -224.5t124.5 -151.5t184.5 -54q108 0 190 56.5z" />
    <glyph glyph-name="eth" unicode="&#xf0;" horiz-adv-x="1167" 
d="M1011 851q47 -161 47 -322q0 -176 -63 -302.5t-172 -192t-244 -65.5q-137 0 -246 66.5t-170.5 183t-61.5 260.5q0 147 61 262t168 178.5t240 63.5q128 0 215.5 -64t134.5 -173q-43 217 -179 415h-384v87h319q-95 117 -227 227h152q116 -99 212 -227h181v-87h-122
q92 -149 139 -310zM768 135.5q82 54.5 126.5 147t44.5 204.5q0 111 -42.5 199t-122.5 138.5t-188 50.5q-107 0 -189 -50t-126.5 -139.5t-44.5 -204.5q0 -114 44.5 -205t124.5 -143t183 -52q108 0 190 54.5z" />
    <glyph glyph-name="dcaron" unicode="&#x10f;" horiz-adv-x="1381" 
d="M1057 1475v-1475h-121v268q-44 -135 -141.5 -217t-241.5 -82q-131 0 -234 69t-161 191.5t-58 279.5q0 160 61 284t167 193t237 69q132 0 226.5 -71t144.5 -204v695h121zM768 137.5q82 56.5 126 156t44 223.5q0 122 -42.5 219.5t-122.5 153t-188 55.5t-189.5 -54.5
t-126 -153t-44.5 -226.5q0 -127 44 -224.5t124.5 -151.5t184.5 -54q108 0 190 56.5zM1324 1493h137l-158 -319h-79z" />
    <glyph glyph-name="dcroat" unicode="&#x111;" horiz-adv-x="1232" 
d="M1057 1475v-1475h-121v268q-44 -135 -141.5 -217t-241.5 -82q-131 0 -234 69t-161 191.5t-58 279.5q0 160 61 284t167 193t237 69q132 0 226.5 -71t144.5 -204v695h121zM768 137.5q82 56.5 126 156t44 223.5q0 122 -42.5 219.5t-122.5 153t-188 55.5t-189.5 -54.5
t-126 -153t-44.5 -226.5q0 -127 44 -224.5t124.5 -151.5t184.5 -54q108 0 190 56.5zM566 1309h637v-87h-637v87z" />
    <glyph glyph-name="e" unicode="e" horiz-adv-x="1111" 
d="M1011 514h-783q3 -132 52.5 -229.5t140 -150t214.5 -52.5q101 0 190.5 34.5t153.5 92.5v-117q-64 -56 -157 -89.5t-201 -33.5q-156 0 -274 70t-182 196t-64 291q0 153 57.5 273t167.5 188t262 68q131 0 226.5 -55t146 -156t50.5 -236v-94zM342 854q-90 -91 -109 -245h660
q-1 101 -36.5 177t-105 117.5t-167.5 41.5q-152 0 -242 -91z" />
    <glyph glyph-name="eacute" unicode="&#xe9;" horiz-adv-x="1111" 
d="M1011 514h-783q3 -132 52.5 -229.5t140 -150t214.5 -52.5q101 0 190.5 34.5t153.5 92.5v-117q-64 -56 -157 -89.5t-201 -33.5q-156 0 -274 70t-182 196t-64 291q0 153 57.5 273t167.5 188t262 68q131 0 226.5 -55t146 -156t50.5 -236v-94zM342 854q-90 -91 -109 -245h660
q-1 101 -36.5 177t-105 117.5t-167.5 41.5q-152 0 -242 -91zM679 1425h125l-178 -270h-101z" />
    <glyph glyph-name="ebreve" unicode="&#x115;" horiz-adv-x="1111" 
d="M1011 514h-783q3 -132 52.5 -229.5t140 -150t214.5 -52.5q101 0 190.5 34.5t153.5 92.5v-117q-64 -56 -157 -89.5t-201 -33.5q-156 0 -274 70t-182 196t-64 291q0 153 57.5 273t167.5 188t262 68q131 0 226.5 -55t146 -156t50.5 -236v-94zM342 854q-90 -91 -109 -245h660
q-1 101 -36.5 177t-105 117.5t-167.5 41.5q-152 0 -242 -91zM458 1180q-58 28 -94 84t-40 136h90q5 -76 51.5 -121.5t120.5 -45.5q76 0 121.5 45t50.5 122h90q-4 -80 -40 -136t-94 -84t-128 -28t-128 28z" />
    <glyph glyph-name="ecaron" unicode="&#x11b;" horiz-adv-x="1111" 
d="M1011 514h-783q3 -132 52.5 -229.5t140 -150t214.5 -52.5q101 0 190.5 34.5t153.5 92.5v-117q-64 -56 -157 -89.5t-201 -33.5q-156 0 -274 70t-182 196t-64 291q0 153 57.5 273t167.5 188t262 68q131 0 226.5 -55t146 -156t50.5 -236v-94zM342 854q-90 -91 -109 -245h660
q-1 101 -36.5 177t-105 117.5t-167.5 41.5q-152 0 -242 -91zM844 1425l-201 -270h-118l-201 270h103l155 -200l158 200h104z" />
    <glyph glyph-name="ecircumflex" unicode="&#xea;" horiz-adv-x="1111" 
d="M1011 514h-783q3 -132 52.5 -229.5t140 -150t214.5 -52.5q101 0 190.5 34.5t153.5 92.5v-117q-64 -56 -157 -89.5t-201 -33.5q-156 0 -274 70t-182 196t-64 291q0 153 57.5 273t167.5 188t262 68q131 0 226.5 -55t146 -156t50.5 -236v-94zM342 854q-90 -91 -109 -245h660
q-1 101 -36.5 177t-105 117.5t-167.5 41.5q-152 0 -242 -91zM740 1155l-158 200l-155 -200h-103l201 270h118l201 -270h-104z" />
    <glyph glyph-name="edieresis" unicode="&#xeb;" horiz-adv-x="1111" 
d="M1011 514h-783q3 -132 52.5 -229.5t140 -150t214.5 -52.5q101 0 190.5 34.5t153.5 92.5v-117q-64 -56 -157 -89.5t-201 -33.5q-156 0 -274 70t-182 196t-64 291q0 153 57.5 273t167.5 188t262 68q131 0 226.5 -55t146 -156t50.5 -236v-94zM342 854q-90 -91 -109 -245h660
q-1 101 -36.5 177t-105 117.5t-167.5 41.5q-152 0 -242 -91zM359 1239q-23 23 -23 55q0 31 23 52.5t55 21.5q34 0 56.5 -21t22.5 -53t-22.5 -55t-56.5 -23q-32 0 -55 23zM697 1239q-23 23 -23 55q0 31 23 52.5t57 21.5q32 0 54.5 -21.5t22.5 -52.5q0 -32 -22.5 -55
t-54.5 -23q-34 0 -57 23z" />
    <glyph glyph-name="edotaccent" unicode="&#x117;" horiz-adv-x="1111" 
d="M1011 514h-783q3 -132 52.5 -229.5t140 -150t214.5 -52.5q101 0 190.5 34.5t153.5 92.5v-117q-64 -56 -157 -89.5t-201 -33.5q-156 0 -274 70t-182 196t-64 291q0 153 57.5 273t167.5 188t262 68q131 0 226.5 -55t146 -156t50.5 -236v-94zM342 854q-90 -91 -109 -245h660
q-1 101 -36.5 177t-105 117.5t-167.5 41.5q-152 0 -242 -91zM520 1231q-26 26 -26 63q0 36 26 61t63 25q38 0 64 -25t26 -61q0 -37 -26 -63t-64 -26q-37 0 -63 26z" />
    <glyph glyph-name="uni1EB9" unicode="&#x1eb9;" horiz-adv-x="1111" 
d="M1011 514h-783q3 -132 52.5 -229.5t140 -150t214.5 -52.5q101 0 190.5 34.5t153.5 92.5v-117q-64 -56 -157 -89.5t-201 -33.5q-156 0 -274 70t-182 196t-64 291q0 153 57.5 273t167.5 188t262 68q131 0 226.5 -55t146 -156t50.5 -236v-94zM342 854q-90 -91 -109 -245h660
q-1 101 -36.5 177t-105 117.5t-167.5 41.5q-152 0 -242 -91zM532 -323q-26 26 -26 63q0 36 26 61t63 25q38 0 64 -25t26 -61q0 -37 -26 -63t-64 -26q-37 0 -63 26z" />
    <glyph glyph-name="egrave" unicode="&#xe8;" horiz-adv-x="1111" 
d="M1011 514h-783q3 -132 52.5 -229.5t140 -150t214.5 -52.5q101 0 190.5 34.5t153.5 92.5v-117q-64 -56 -157 -89.5t-201 -33.5q-156 0 -274 70t-182 196t-64 291q0 153 57.5 273t167.5 188t262 68q131 0 226.5 -55t146 -156t50.5 -236v-94zM342 854q-90 -91 -109 -245h660
q-1 101 -36.5 177t-105 117.5t-167.5 41.5q-152 0 -242 -91zM554 1155l-178 270h125l154 -270h-101z" />
    <glyph glyph-name="emacron" unicode="&#x113;" horiz-adv-x="1111" 
d="M1011 514h-783q3 -132 52.5 -229.5t140 -150t214.5 -52.5q101 0 190.5 34.5t153.5 92.5v-117q-64 -56 -157 -89.5t-201 -33.5q-156 0 -274 70t-182 196t-64 291q0 153 57.5 273t167.5 188t262 68q131 0 226.5 -55t146 -156t50.5 -236v-94zM342 854q-90 -91 -109 -245h660
q-1 101 -36.5 177t-105 117.5t-167.5 41.5q-152 0 -242 -91zM316 1304h534v-87h-534v87z" />
    <glyph glyph-name="eogonek" unicode="&#x119;" horiz-adv-x="1111" 
d="M1011 514h-783q3 -132 52.5 -229.5t140 -150t214.5 -52.5q101 0 190.5 34.5t153.5 92.5v-117q-64 -56 -157 -89.5t-201 -33.5q-156 0 -274 70t-182 196t-64 291q0 153 57.5 273t167.5 188t262 68q131 0 226.5 -55t146 -156t50.5 -236v-94zM342 854q-90 -91 -109 -245h660
q-1 101 -36.5 177t-105 117.5t-167.5 41.5q-152 0 -242 -91zM547.5 -353q-50.5 53 -50.5 137q0 66 34.5 120.5t101.5 87.5t159 35l27 -27q-118 -14 -177.5 -67.5t-59.5 -129.5q0 -61 34 -94.5t86 -33.5q35 0 65.5 10.5t51.5 22.5v-81q-64 -33 -133 -33q-88 0 -138.5 53z" />
    <glyph glyph-name="f" unicode="f" horiz-adv-x="708" 
d="M394 1333.5q-49 -54.5 -49 -158.5v-151h337v-103h-337v-921h-121v921h-183v103h183v137q0 162 80 248t220 86q60 0 110.5 -15.5t84.5 -41.5v-107q-35 27 -81.5 42t-101.5 15q-93 0 -142 -54.5z" />
    <glyph glyph-name="g" unicode="g" horiz-adv-x="1217" 
d="M1041 1024v-961q0 -147 -61.5 -255.5t-172.5 -166t-255 -57.5q-114 0 -205.5 35.5t-158.5 103.5v127q66 -76 157 -116.5t201 -40.5q120 0 204 48t127 135.5t43 205.5v231q-49 -133 -144.5 -206t-225.5 -73q-137 0 -238.5 64.5t-155.5 179t-54 259.5q0 147 57.5 265
t163 185.5t243.5 67.5q131 0 220.5 -72t133.5 -206v247h121zM751 196.5q80 51.5 124.5 143t44.5 206.5q0 114 -44 205t-122 143t-174 52q-108 0 -188 -53t-122.5 -146t-42.5 -210q0 -114 41 -203t118.5 -139t183.5 -50q101 0 181 51.5z" />
    <glyph glyph-name="gbreve" unicode="&#x11f;" horiz-adv-x="1217" 
d="M1041 1024v-961q0 -147 -61.5 -255.5t-172.5 -166t-255 -57.5q-114 0 -205.5 35.5t-158.5 103.5v127q66 -76 157 -116.5t201 -40.5q120 0 204 48t127 135.5t43 205.5v231q-49 -133 -144.5 -206t-225.5 -73q-137 0 -238.5 64.5t-155.5 179t-54 259.5q0 147 57.5 265
t163 185.5t243.5 67.5q131 0 220.5 -72t133.5 -206v247h121zM751 196.5q80 51.5 124.5 143t44.5 206.5q0 114 -44 205t-122 143t-174 52q-108 0 -188 -53t-122.5 -146t-42.5 -210q0 -114 41 -203t118.5 -139t183.5 -50q101 0 181 51.5zM467 1180q-58 28 -94 84t-40 136h90
q5 -76 51.5 -121.5t120.5 -45.5q76 0 121.5 45t50.5 122h90q-4 -80 -40 -136t-94 -84t-128 -28t-128 28z" />
    <glyph glyph-name="gcircumflex" unicode="&#x11d;" horiz-adv-x="1217" 
d="M1041 1024v-961q0 -147 -61.5 -255.5t-172.5 -166t-255 -57.5q-114 0 -205.5 35.5t-158.5 103.5v127q66 -76 157 -116.5t201 -40.5q120 0 204 48t127 135.5t43 205.5v231q-49 -133 -144.5 -206t-225.5 -73q-137 0 -238.5 64.5t-155.5 179t-54 259.5q0 147 57.5 265
t163 185.5t243.5 67.5q131 0 220.5 -72t133.5 -206v247h121zM751 196.5q80 51.5 124.5 143t44.5 206.5q0 114 -44 205t-122 143t-174 52q-108 0 -188 -53t-122.5 -146t-42.5 -210q0 -114 41 -203t118.5 -139t183.5 -50q101 0 181 51.5zM749 1155l-158 200l-155 -200h-103
l201 270h118l201 -270h-104z" />
    <glyph glyph-name="uni0123" unicode="&#x123;" horiz-adv-x="1217" 
d="M1041 1024v-961q0 -147 -61.5 -255.5t-172.5 -166t-255 -57.5q-114 0 -205.5 35.5t-158.5 103.5v127q66 -76 157 -116.5t201 -40.5q120 0 204 48t127 135.5t43 205.5v231q-49 -133 -144.5 -206t-225.5 -73q-137 0 -238.5 64.5t-155.5 179t-54 259.5q0 147 57.5 265
t163 185.5t243.5 67.5q131 0 220.5 -72t133.5 -206v247h121zM751 196.5q80 51.5 124.5 143t44.5 206.5q0 114 -44 205t-122 143t-174 52q-108 0 -188 -53t-122.5 -146t-42.5 -210q0 -114 41 -203t118.5 -139t183.5 -50q101 0 181 51.5zM656 1462h84l-112 -307h-142z" />
    <glyph glyph-name="gdotaccent" unicode="&#x121;" horiz-adv-x="1217" 
d="M1041 1024v-961q0 -147 -61.5 -255.5t-172.5 -166t-255 -57.5q-114 0 -205.5 35.5t-158.5 103.5v127q66 -76 157 -116.5t201 -40.5q120 0 204 48t127 135.5t43 205.5v231q-49 -133 -144.5 -206t-225.5 -73q-137 0 -238.5 64.5t-155.5 179t-54 259.5q0 147 57.5 265
t163 185.5t243.5 67.5q131 0 220.5 -72t133.5 -206v247h121zM751 196.5q80 51.5 124.5 143t44.5 206.5q0 114 -44 205t-122 143t-174 52q-108 0 -188 -53t-122.5 -146t-42.5 -210q0 -114 41 -203t118.5 -139t183.5 -50q101 0 181 51.5zM529 1231q-26 26 -26 63q0 36 26 61
t63 25q38 0 64 -25t26 -61q0 -37 -26 -63t-64 -26q-37 0 -63 26z" />
    <glyph glyph-name="h" unicode="h" horiz-adv-x="1180" 
d="M853.5 1004.5q80.5 -50.5 123 -145t42.5 -226.5v-633h-122v606q0 171 -67.5 256.5t-209.5 85.5q-100 0 -173 -49.5t-111.5 -138.5t-38.5 -206v-554h-121v1475h121v-684q40 124 133.5 194t228.5 70q114 0 194.5 -50.5z" />
    <glyph glyph-name="hbar" unicode="&#x127;" horiz-adv-x="1184" 
d="M853.5 1004.5q80.5 -50.5 123 -145t42.5 -226.5v-633h-122v606q0 171 -67.5 256.5t-209.5 85.5q-100 0 -173 -49.5t-111.5 -138.5t-38.5 -206v-554h-121v1475h121v-684q40 124 133.5 194t228.5 70q114 0 194.5 -50.5zM5 1309h637v-87h-637v87z" />
    <glyph glyph-name="hcircumflex" unicode="&#x125;" horiz-adv-x="1180" 
d="M853.5 1004.5q80.5 -50.5 123 -145t42.5 -226.5v-633h-122v606q0 171 -67.5 256.5t-209.5 85.5q-100 0 -173 -49.5t-111.5 -138.5t-38.5 -206v-554h-121v1475h121v-684q40 124 133.5 194t228.5 70q114 0 194.5 -50.5zM749 1524l-158 200l-155 -200h-103l201 270h118
l201 -270h-104z" />
    <glyph glyph-name="i" unicode="i" horiz-adv-x="487" 
d="M182.5 1270q-24.5 25 -24.5 60q0 34 24.5 57.5t60.5 23.5q37 0 61 -23t24 -58q0 -36 -24.5 -60.5t-60.5 -24.5t-60.5 25zM183 1024h121v-1024h-121v1024z" />
    <glyph glyph-name="dotlessi" unicode="&#x131;" horiz-adv-x="487" 
d="M183 1024h121v-1024h-121v1024z" />
    <glyph glyph-name="iacute" unicode="&#xed;" horiz-adv-x="487" 
d="M183 1024h121v-1024h-121v1024zM338 1425h125l-178 -270h-101z" />
    <glyph glyph-name="ibreve" unicode="&#x12d;" horiz-adv-x="487" 
d="M183 1024h121v-1024h-121v1024zM117 1180q-58 28 -94 84t-40 136h90q5 -76 51.5 -121.5t120.5 -45.5q76 0 121.5 45t50.5 122h90q-4 -80 -40 -136t-94 -84t-128 -28t-128 28z" />
    <glyph glyph-name="icircumflex" unicode="&#xee;" horiz-adv-x="487" 
d="M183 1024h121v-1024h-121v1024zM399 1155l-158 200l-155 -200h-103l201 270h118l201 -270h-104z" />
    <glyph glyph-name="idieresis" unicode="&#xef;" horiz-adv-x="487" 
d="M183 1024h121v-1024h-121v1024zM18 1239q-23 23 -23 55q0 31 23 52.5t55 21.5q34 0 56.5 -21t22.5 -53t-22.5 -55t-56.5 -23q-32 0 -55 23zM356 1239q-23 23 -23 55q0 31 23 52.5t57 21.5q32 0 54.5 -21.5t22.5 -52.5q0 -32 -22.5 -55t-54.5 -23q-34 0 -57 23z" />
    <glyph glyph-name="i.locl" horiz-adv-x="487" 
d="M182.5 1270q-24.5 25 -24.5 60q0 34 24.5 57.5t60.5 23.5q37 0 61 -23t24 -58q0 -36 -24.5 -60.5t-60.5 -24.5t-60.5 25zM183 1024h121v-1024h-121v1024z" />
    <glyph glyph-name="uni1ECB" unicode="&#x1ecb;" horiz-adv-x="487" 
d="M182.5 1270q-24.5 25 -24.5 60q0 34 24.5 57.5t60.5 23.5q37 0 61 -23t24 -58q0 -36 -24.5 -60.5t-60.5 -24.5t-60.5 25zM183 1024h121v-1024h-121v1024zM182 -323q-26 26 -26 63q0 36 26 61t63 25q38 0 64 -25t26 -61q0 -37 -26 -63t-64 -26q-37 0 -63 26z" />
    <glyph glyph-name="igrave" unicode="&#xec;" horiz-adv-x="487" 
d="M183 1024h121v-1024h-121v1024zM213 1155l-178 270h125l154 -270h-101z" />
    <glyph glyph-name="ij" unicode="&#x133;" horiz-adv-x="983" 
d="M182.5 1270q-24.5 25 -24.5 60q0 34 24.5 57.5t60.5 23.5q37 0 61 -23t24 -58q0 -36 -24.5 -60.5t-60.5 -24.5t-60.5 25zM183 1024h121v-1024h-121v1024zM679 1270q-25 25 -25 60t24.5 58t61.5 23q35 0 59.5 -23.5t24.5 -57.5q0 -35 -24.5 -60t-59.5 -25q-36 0 -61 25z
M464.5 -407q-42.5 17 -72.5 45v113q23 -29 63.5 -47.5t89.5 -18.5q65 0 99.5 40t34.5 123v1176h121v-1192q0 -78 -30 -136t-84.5 -89t-124.5 -31q-54 0 -96.5 17z" />
    <glyph glyph-name="imacron" unicode="&#x12b;" horiz-adv-x="487" 
d="M183 1024h121v-1024h-121v1024zM-25 1304h534v-87h-534v87z" />
    <glyph glyph-name="iogonek" unicode="&#x12f;" horiz-adv-x="495" 
d="M31.5 -353q-50.5 53 -50.5 137q0 66 34.5 120.5t101.5 87.5t159 35l27 -27q-118 -14 -177.5 -67.5t-59.5 -129.5q0 -61 34 -94.5t86 -33.5q35 0 65.5 10.5t51.5 22.5v-81q-64 -33 -133 -33q-88 0 -138.5 53zM191.5 1270q-24.5 25 -24.5 60q0 34 24.5 57.5t60.5 23.5
q37 0 61 -23t24 -58q0 -36 -24.5 -60.5t-60.5 -24.5t-60.5 25zM192 1024h121v-1024h-121v1024z" />
    <glyph glyph-name="itilde" unicode="&#x129;" horiz-adv-x="487" 
d="M183 1024h121v-1024h-121v1024zM294.5 1180.5q-29.5 16.5 -68.5 48.5q-33 26 -52.5 37.5t-41.5 11.5q-79 0 -87 -97h-72q4 89 44.5 136.5t108.5 47.5q36 0 65.5 -16.5t66.5 -47.5q30 -25 51.5 -38t44.5 -13q38 0 60 26t26 71h72q-4 -89 -43 -136t-107 -47
q-38 0 -67.5 16.5z" />
    <glyph glyph-name="j" unicode="j" horiz-adv-x="496" 
d="M192 1270q-25 25 -25 60t24.5 58t61.5 23q35 0 59.5 -23.5t24.5 -57.5q0 -35 -24.5 -60t-59.5 -25q-36 0 -61 25zM-22.5 -407q-42.5 17 -72.5 45v113q23 -29 63.5 -47.5t89.5 -18.5q65 0 99.5 40t34.5 123v1176h121v-1192q0 -78 -30 -136t-84.5 -89t-124.5 -31
q-54 0 -96.5 17z" />
    <glyph glyph-name="uni0237" unicode="&#x237;" horiz-adv-x="496" 
d="M-22.5 -407q-42.5 17 -72.5 45v113q23 -29 63.5 -47.5t89.5 -18.5q65 0 99.5 40t34.5 123v1176h121v-1192q0 -78 -30 -136t-84.5 -89t-124.5 -31q-54 0 -96.5 17z" />
    <glyph glyph-name="jcircumflex" unicode="&#x135;" horiz-adv-x="496" 
d="M-22.5 -407q-42.5 17 -72.5 45v113q23 -29 63.5 -47.5t89.5 -18.5q65 0 99.5 40t34.5 123v1176h121v-1192q0 -78 -30 -136t-84.5 -89t-124.5 -31q-54 0 -96.5 17zM409 1155l-158 200l-155 -200h-103l201 270h118l201 -270h-104z" />
    <glyph glyph-name="k" unicode="k" horiz-adv-x="996" 
d="M816 0l-519 535v-535h-121v1475h121v-888l484 437h168l-534 -458l563 -566h-162z" />
    <glyph glyph-name="uni0137" unicode="&#x137;" horiz-adv-x="996" 
d="M816 0l-519 535v-535h-121v1475h121v-888l484 437h168l-534 -458l563 -566h-162zM425 -121h137l-158 -319h-79z" />
    <glyph glyph-name="l" unicode="l" horiz-adv-x="487" 
d="M183 1475h121v-1475h-121v1475z" />
    <glyph glyph-name="lacute" unicode="&#x13a;" horiz-adv-x="487" 
d="M183 1475h121v-1475h-121v1475zM338 1876h125l-178 -270h-101z" />
    <glyph glyph-name="lcaron" unicode="&#x13e;" horiz-adv-x="615" 
d="M183 1475h121v-1475h-121v1475zM558 1493h137l-158 -319h-79z" />
    <glyph glyph-name="uni013C" unicode="&#x13c;" horiz-adv-x="487" 
d="M183 1475h121v-1475h-121v1475zM167 -121h137l-158 -319h-79z" />
    <glyph glyph-name="ldot" unicode="&#x140;" horiz-adv-x="697" 
d="M183 1475h121v-1475h-121v1475zM527 578.5q-27 27.5 -27 68.5q0 39 27.5 66t68.5 27q40 0 66.5 -26.5t26.5 -66.5q0 -41 -26.5 -68.5t-66.5 -27.5q-42 0 -69 27.5z" />
    <glyph glyph-name="lslash" unicode="&#x142;" horiz-adv-x="622" 
d="M569 869l-190 -123v-746h-121v668l-191 -123v98l191 123v709h121v-631l190 123v-98z" />
    <glyph glyph-name="m" unicode="m" horiz-adv-x="1679" 
d="M1367 1013.5q73 -45.5 111 -131.5t38 -205v-677h-121v659q0 144 -59.5 218.5t-175.5 74.5q-75 0 -133 -38t-90.5 -104.5t-32.5 -147.5v-662h-120v686q0 125 -61 195.5t-173 70.5q-74 0 -131.5 -41t-89.5 -112.5t-32 -159.5v-639h-121v1024h121v-191q39 108 114.5 167
t182.5 59q109 0 185 -59t107 -165q38 104 117.5 164t188.5 60q102 0 175 -45.5z" />
    <glyph glyph-name="n" unicode="n" horiz-adv-x="1180" 
d="M853.5 1004.5q80.5 -50.5 123 -145t42.5 -226.5v-633h-122v606q0 171 -67.5 256.5t-209.5 85.5q-100 0 -173 -49.5t-111.5 -138.5t-38.5 -206v-554h-121v1024h121v-240q39 127 133 199t229 72q114 0 194.5 -50.5z" />
    <glyph glyph-name="nacute" unicode="&#x144;" horiz-adv-x="1180" 
d="M853.5 1004.5q80.5 -50.5 123 -145t42.5 -226.5v-633h-122v606q0 171 -67.5 256.5t-209.5 85.5q-100 0 -173 -49.5t-111.5 -138.5t-38.5 -206v-554h-121v1024h121v-240q39 127 133 199t229 72q114 0 194.5 -50.5zM698 1425h125l-178 -270h-101z" />
    <glyph glyph-name="ncaron" unicode="&#x148;" horiz-adv-x="1180" 
d="M853.5 1004.5q80.5 -50.5 123 -145t42.5 -226.5v-633h-122v606q0 171 -67.5 256.5t-209.5 85.5q-100 0 -173 -49.5t-111.5 -138.5t-38.5 -206v-554h-121v1024h121v-240q39 127 133 199t229 72q114 0 194.5 -50.5zM863 1425l-201 -270h-118l-201 270h103l155 -200l158 200
h104z" />
    <glyph glyph-name="uni0146" unicode="&#x146;" horiz-adv-x="1180" 
d="M853.5 1004.5q80.5 -50.5 123 -145t42.5 -226.5v-633h-122v606q0 171 -67.5 256.5t-209.5 85.5q-100 0 -173 -49.5t-111.5 -138.5t-38.5 -206v-554h-121v1024h121v-240q39 127 133 199t229 72q114 0 194.5 -50.5zM527 -121h137l-158 -319h-79z" />
    <glyph glyph-name="eng" unicode="&#x14b;" horiz-adv-x="1180" 
d="M853.5 1004.5q80.5 -50.5 123 -145t42.5 -226.5v-801q0 -78 -30.5 -136t-85 -89t-124.5 -31q-102 0 -169 62v113q24 -29 64 -47.5t89 -18.5q65 0 99.5 40t34.5 123v758q0 171 -67.5 256.5t-209.5 85.5q-100 0 -173 -49.5t-111.5 -138.5t-38.5 -206v-554h-121v1024h121
v-240q39 127 133 199t229 72q114 0 194.5 -50.5z" />
    <glyph glyph-name="ntilde" unicode="&#xf1;" horiz-adv-x="1180" 
d="M853.5 1004.5q80.5 -50.5 123 -145t42.5 -226.5v-633h-122v606q0 171 -67.5 256.5t-209.5 85.5q-100 0 -173 -49.5t-111.5 -138.5t-38.5 -206v-554h-121v1024h121v-240q39 127 133 199t229 72q114 0 194.5 -50.5zM654.5 1180.5q-29.5 16.5 -68.5 48.5q-33 26 -52.5 37.5
t-41.5 11.5q-79 0 -87 -97h-72q4 89 44.5 136.5t108.5 47.5q36 0 65.5 -16.5t66.5 -47.5q30 -25 51.5 -38t44.5 -13q38 0 60 26t26 71h72q-4 -89 -43 -136t-107 -47q-38 0 -67.5 16.5z" />
    <glyph glyph-name="o" unicode="o" horiz-adv-x="1175" 
d="M333 42.5q-111 71.5 -172 195t-61 275.5t61 275t172 194t254 71q144 0 255 -71t171.5 -194t60.5 -275t-60.5 -276t-171.5 -195t-255 -71q-143 0 -254 71.5zM778.5 138q82.5 56 127 154t44.5 221t-44.5 220.5t-127 153t-191.5 55.5q-108 0 -190.5 -55.5t-127 -153
t-44.5 -220.5t44.5 -221t126.5 -154t191 -56t191.5 56z" />
    <glyph glyph-name="oacute" unicode="&#xf3;" horiz-adv-x="1175" 
d="M333 42.5q-111 71.5 -172 195t-61 275.5t61 275t172 194t254 71q144 0 255 -71t171.5 -194t60.5 -275t-60.5 -276t-171.5 -195t-255 -71q-143 0 -254 71.5zM778.5 138q82.5 56 127 154t44.5 221t-44.5 220.5t-127 153t-191.5 55.5q-108 0 -190.5 -55.5t-127 -153
t-44.5 -220.5t44.5 -221t126.5 -154t191 -56t191.5 56zM683 1425h125l-178 -270h-101z" />
    <glyph glyph-name="obreve" unicode="&#x14f;" horiz-adv-x="1175" 
d="M333 42.5q-111 71.5 -172 195t-61 275.5t61 275t172 194t254 71q144 0 255 -71t171.5 -194t60.5 -275t-60.5 -276t-171.5 -195t-255 -71q-143 0 -254 71.5zM778.5 138q82.5 56 127 154t44.5 221t-44.5 220.5t-127 153t-191.5 55.5q-108 0 -190.5 -55.5t-127 -153
t-44.5 -220.5t44.5 -221t126.5 -154t191 -56t191.5 56zM462 1180q-58 28 -94 84t-40 136h90q5 -76 51.5 -121.5t120.5 -45.5q76 0 121.5 45t50.5 122h90q-4 -80 -40 -136t-94 -84t-128 -28t-128 28z" />
    <glyph glyph-name="ocircumflex" unicode="&#xf4;" horiz-adv-x="1175" 
d="M333 42.5q-111 71.5 -172 195t-61 275.5t61 275t172 194t254 71q144 0 255 -71t171.5 -194t60.5 -275t-60.5 -276t-171.5 -195t-255 -71q-143 0 -254 71.5zM778.5 138q82.5 56 127 154t44.5 221t-44.5 220.5t-127 153t-191.5 55.5q-108 0 -190.5 -55.5t-127 -153
t-44.5 -220.5t44.5 -221t126.5 -154t191 -56t191.5 56zM744 1155l-158 200l-155 -200h-103l201 270h118l201 -270h-104z" />
    <glyph glyph-name="odieresis" unicode="&#xf6;" horiz-adv-x="1175" 
d="M333 42.5q-111 71.5 -172 195t-61 275.5t61 275t172 194t254 71q144 0 255 -71t171.5 -194t60.5 -275t-60.5 -276t-171.5 -195t-255 -71q-143 0 -254 71.5zM778.5 138q82.5 56 127 154t44.5 221t-44.5 220.5t-127 153t-191.5 55.5q-108 0 -190.5 -55.5t-127 -153
t-44.5 -220.5t44.5 -221t126.5 -154t191 -56t191.5 56zM363 1239q-23 23 -23 55q0 31 23 52.5t55 21.5q34 0 56.5 -21t22.5 -53t-22.5 -55t-56.5 -23q-32 0 -55 23zM701 1239q-23 23 -23 55q0 31 23 52.5t57 21.5q32 0 54.5 -21.5t22.5 -52.5q0 -32 -22.5 -55t-54.5 -23
q-34 0 -57 23z" />
    <glyph glyph-name="uni1ECD" unicode="&#x1ecd;" horiz-adv-x="1175" 
d="M333 42.5q-111 71.5 -172 195t-61 275.5t61 275t172 194t254 71q144 0 255 -71t171.5 -194t60.5 -275t-60.5 -276t-171.5 -195t-255 -71q-143 0 -254 71.5zM778.5 138q82.5 56 127 154t44.5 221t-44.5 220.5t-127 153t-191.5 55.5q-108 0 -190.5 -55.5t-127 -153
t-44.5 -220.5t44.5 -221t126.5 -154t191 -56t191.5 56zM527 -323q-26 26 -26 63q0 36 26 61t63 25q38 0 64 -25t26 -61q0 -37 -26 -63t-64 -26q-37 0 -63 26z" />
    <glyph glyph-name="ograve" unicode="&#xf2;" horiz-adv-x="1175" 
d="M333 42.5q-111 71.5 -172 195t-61 275.5t61 275t172 194t254 71q144 0 255 -71t171.5 -194t60.5 -275t-60.5 -276t-171.5 -195t-255 -71q-143 0 -254 71.5zM778.5 138q82.5 56 127 154t44.5 221t-44.5 220.5t-127 153t-191.5 55.5q-108 0 -190.5 -55.5t-127 -153
t-44.5 -220.5t44.5 -221t126.5 -154t191 -56t191.5 56zM558 1155l-178 270h125l154 -270h-101z" />
    <glyph glyph-name="ohungarumlaut" unicode="&#x151;" horiz-adv-x="1175" 
d="M333 42.5q-111 71.5 -172 195t-61 275.5t61 275t172 194t254 71q144 0 255 -71t171.5 -194t60.5 -275t-60.5 -276t-171.5 -195t-255 -71q-143 0 -254 71.5zM778.5 138q82.5 56 127 154t44.5 221t-44.5 220.5t-127 153t-191.5 55.5q-108 0 -190.5 -55.5t-127 -153
t-44.5 -220.5t44.5 -221t126.5 -154t191 -56t191.5 56zM569 1425h112l-209 -270h-90zM843 1425h113l-209 -270h-90z" />
    <glyph glyph-name="omacron" unicode="&#x14d;" horiz-adv-x="1175" 
d="M333 42.5q-111 71.5 -172 195t-61 275.5t61 275t172 194t254 71q144 0 255 -71t171.5 -194t60.5 -275t-60.5 -276t-171.5 -195t-255 -71q-143 0 -254 71.5zM778.5 138q82.5 56 127 154t44.5 221t-44.5 220.5t-127 153t-191.5 55.5q-108 0 -190.5 -55.5t-127 -153
t-44.5 -220.5t44.5 -221t126.5 -154t191 -56t191.5 56zM320 1304h534v-87h-534v87z" />
    <glyph glyph-name="oslash" unicode="&#xf8;" horiz-adv-x="1175" 
d="M333 42.5q-111 71.5 -172 195t-61 275.5t61 275t172 194t254 71q144 0 255 -71t171.5 -194t60.5 -275t-60.5 -276t-171.5 -195t-255 -71q-143 0 -254 71.5zM778.5 138q82.5 56 127 154t44.5 221t-44.5 220.5t-127 153t-191.5 55.5q-108 0 -190.5 -55.5t-127 -153
t-44.5 -220.5t44.5 -221t126.5 -154t191 -56t191.5 56zM43 -70l1026 1223l65 -55l-1026 -1223z" />
    <glyph glyph-name="oslashacute" unicode="&#x1ff;" horiz-adv-x="1175" 
d="M333 42.5q-111 71.5 -172 195t-61 275.5t61 275t172 194t254 71q144 0 255 -71t171.5 -194t60.5 -275t-60.5 -276t-171.5 -195t-255 -71q-143 0 -254 71.5zM778.5 138q82.5 56 127 154t44.5 221t-44.5 220.5t-127 153t-191.5 55.5q-108 0 -190.5 -55.5t-127 -153
t-44.5 -220.5t44.5 -221t126.5 -154t191 -56t191.5 56zM43 -70l1026 1223l65 -55l-1026 -1223zM683 1425h125l-178 -270h-101z" />
    <glyph glyph-name="otilde" unicode="&#xf5;" horiz-adv-x="1175" 
d="M333 42.5q-111 71.5 -172 195t-61 275.5t61 275t172 194t254 71q144 0 255 -71t171.5 -194t60.5 -275t-60.5 -276t-171.5 -195t-255 -71q-143 0 -254 71.5zM778.5 138q82.5 56 127 154t44.5 221t-44.5 220.5t-127 153t-191.5 55.5q-108 0 -190.5 -55.5t-127 -153
t-44.5 -220.5t44.5 -221t126.5 -154t191 -56t191.5 56zM639.5 1180.5q-29.5 16.5 -68.5 48.5q-33 26 -52.5 37.5t-41.5 11.5q-79 0 -87 -97h-72q4 89 44.5 136.5t108.5 47.5q36 0 65.5 -16.5t66.5 -47.5q30 -25 51.5 -38t44.5 -13q38 0 60 26t26 71h72q-4 -89 -43 -136
t-107 -47q-38 0 -67.5 16.5z" />
    <glyph glyph-name="oe" unicode="&#x153;" horiz-adv-x="1948" 
d="M1847 514h-785q2 -134 51.5 -231.5t141 -149.5t216.5 -52q101 0 190.5 33.5t153.5 89.5v-108q-64 -58 -156.5 -92.5t-200.5 -34.5q-161 0 -277 71.5t-175 201.5q-57 -126 -166 -198.5t-253 -72.5q-145 0 -255.5 71t-171 195t-60.5 276t60.5 275.5t171 194t255.5 70.5
q144 0 251 -70t165 -193q55 124 162.5 194.5t259.5 70.5q130 0 225.5 -55t146 -156t50.5 -236v-94zM1179.5 854.5q-90.5 -90.5 -111.5 -242.5h667q-2 101 -39 176t-107 116t-169 41q-150 0 -240.5 -90.5zM778.5 137q82.5 56 127 154.5t44.5 221.5q0 124 -44.5 221.5
t-127 153t-191.5 55.5t-191 -55.5t-126.5 -153t-44.5 -221.5t44 -222t126 -154t192 -56q109 0 191.5 56z" />
    <glyph glyph-name="p" unicode="p" horiz-adv-x="1232" 
d="M918.5 984.5q101.5 -70.5 157.5 -193t56 -272.5q0 -158 -61 -283.5t-167 -196t-235 -70.5t-228 74t-144 196v-628h-121v1413h121v-265q45 131 145 213.5t244 82.5q131 0 232.5 -70.5zM835.5 136q82.5 57 127.5 156t45 222q0 122 -43.5 219.5t-124 153t-185.5 55.5
q-109 0 -191 -56.5t-125.5 -155t-43.5 -221.5q0 -121 43 -219t123 -154.5t185 -56.5q107 0 189.5 57z" />
    <glyph glyph-name="thorn" unicode="&#xfe;" horiz-adv-x="1232" 
d="M918.5 984.5q101.5 -70.5 157.5 -193t56 -272.5q0 -158 -61 -283.5t-167 -196t-235 -70.5t-228 74t-144 196v-628h-121v1864h121v-716q45 131 145 213.5t244 82.5q131 0 232.5 -70.5zM835.5 136q82.5 57 127.5 156t45 222q0 122 -43.5 219.5t-124 153t-185.5 55.5
q-109 0 -191 -56.5t-125.5 -155t-43.5 -221.5q0 -121 43 -219t123 -154.5t185 -56.5q107 0 189.5 57z" />
    <glyph glyph-name="q" unicode="q" horiz-adv-x="1232" 
d="M1057 1024v-1413h-121v658q-45 -138 -143 -219t-239 -81q-130 0 -233.5 69t-162 191.5t-58.5 277.5q0 161 61 285.5t167 193.5t237 69q134 0 228 -73.5t143 -212.5v255h121zM768.5 138q81.5 57 125.5 156t44 223q0 123 -42.5 220t-122.5 152.5t-188 55.5
q-107 0 -188.5 -54.5t-126.5 -152.5t-45 -226q0 -127 44.5 -225t125 -152t184.5 -54q108 0 189.5 57z" />
    <glyph glyph-name="r" unicode="r" horiz-adv-x="729" 
d="M631.5 1034q30.5 -9 58.5 -29v-117q-59 40 -147 40q-73 0 -128.5 -45t-86.5 -126t-31 -186v-571h-121v1024h121v-230q34 119 102.5 184t162.5 65q39 0 69.5 -9z" />
    <glyph glyph-name="racute" unicode="&#x155;" horiz-adv-x="729" 
d="M631.5 1034q30.5 -9 58.5 -29v-117q-59 40 -147 40q-73 0 -128.5 -45t-86.5 -126t-31 -186v-571h-121v1024h121v-230q34 119 102.5 184t162.5 65q39 0 69.5 -9zM512 1425h125l-178 -270h-101z" />
    <glyph glyph-name="rcaron" unicode="&#x159;" horiz-adv-x="729" 
d="M631.5 1034q30.5 -9 58.5 -29v-117q-59 40 -147 40q-73 0 -128.5 -45t-86.5 -126t-31 -186v-571h-121v1024h121v-230q34 119 102.5 184t162.5 65q39 0 69.5 -9zM677 1425l-201 -270h-118l-201 270h103l155 -200l158 200h104z" />
    <glyph glyph-name="uni0157" unicode="&#x157;" horiz-adv-x="729" 
d="M631.5 1034q30.5 -9 58.5 -29v-117q-59 40 -147 40q-73 0 -128.5 -45t-86.5 -126t-31 -186v-571h-121v1024h121v-230q34 119 102.5 184t162.5 65q39 0 69.5 -9zM165 -121h137l-158 -319h-79z" />
    <glyph glyph-name="s" unicode="s" horiz-adv-x="921" 
d="M100 111v120q72 -73 167 -113.5t196 -40.5q113 0 181.5 50t68.5 140q0 66 -37.5 110.5t-131.5 76.5l-195 64q-122 40 -178 106.5t-56 157.5q0 81 43 143t121.5 96t182.5 34q176 0 322 -106v-120q-68 59 -149 89t-169 30q-109 0 -171 -42.5t-62 -121.5q0 -117 159 -169
l189 -58q135 -42 193.5 -112.5t58.5 -172.5q0 -91 -46 -160t-127.5 -106t-184.5 -37q-214 0 -375 142z" />
    <glyph glyph-name="sacute" unicode="&#x15b;" horiz-adv-x="921" 
d="M100 111v120q72 -73 167 -113.5t196 -40.5q113 0 181.5 50t68.5 140q0 66 -37.5 110.5t-131.5 76.5l-195 64q-122 40 -178 106.5t-56 157.5q0 81 43 143t121.5 96t182.5 34q176 0 322 -106v-120q-68 59 -149 89t-169 30q-109 0 -171 -42.5t-62 -121.5q0 -117 159 -169
l189 -58q135 -42 193.5 -112.5t58.5 -172.5q0 -91 -46 -160t-127.5 -106t-184.5 -37q-214 0 -375 142zM563 1425h125l-178 -270h-101z" />
    <glyph glyph-name="scaron" unicode="&#x161;" horiz-adv-x="921" 
d="M100 111v120q72 -73 167 -113.5t196 -40.5q113 0 181.5 50t68.5 140q0 66 -37.5 110.5t-131.5 76.5l-195 64q-122 40 -178 106.5t-56 157.5q0 81 43 143t121.5 96t182.5 34q176 0 322 -106v-120q-68 59 -149 89t-169 30q-109 0 -171 -42.5t-62 -121.5q0 -117 159 -169
l189 -58q135 -42 193.5 -112.5t58.5 -172.5q0 -91 -46 -160t-127.5 -106t-184.5 -37q-214 0 -375 142zM728 1425l-201 -270h-118l-201 270h103l155 -200l158 200h104z" />
    <glyph glyph-name="scedilla" unicode="&#x15f;" horiz-adv-x="921" 
d="M100 111v120q72 -73 167 -113.5t196 -40.5q113 0 181.5 50t68.5 140q0 66 -37.5 110.5t-131.5 76.5l-195 64q-122 40 -178 106.5t-56 157.5q0 81 43 143t121.5 96t182.5 34q176 0 322 -106v-120q-68 59 -149 89t-169 30q-109 0 -171 -42.5t-62 -121.5q0 -117 159 -169
l189 -58q135 -42 193.5 -112.5t58.5 -172.5q0 -91 -46 -160t-127.5 -106t-184.5 -37q-214 0 -375 142zM401 -121h137l-158 -319h-79z" />
    <glyph glyph-name="scircumflex" unicode="&#x15d;" horiz-adv-x="921" 
d="M100 111v120q72 -73 167 -113.5t196 -40.5q113 0 181.5 50t68.5 140q0 66 -37.5 110.5t-131.5 76.5l-195 64q-122 40 -178 106.5t-56 157.5q0 81 43 143t121.5 96t182.5 34q176 0 322 -106v-120q-68 59 -149 89t-169 30q-109 0 -171 -42.5t-62 -121.5q0 -117 159 -169
l189 -58q135 -42 193.5 -112.5t58.5 -172.5q0 -91 -46 -160t-127.5 -106t-184.5 -37q-214 0 -375 142zM624 1155l-158 200l-155 -200h-103l201 270h118l201 -270h-104z" />
    <glyph glyph-name="uni0219" unicode="&#x219;" horiz-adv-x="921" 
d="M100 111v120q72 -73 167 -113.5t196 -40.5q113 0 181.5 50t68.5 140q0 66 -37.5 110.5t-131.5 76.5l-195 64q-122 40 -178 106.5t-56 157.5q0 81 43 143t121.5 96t182.5 34q176 0 322 -106v-120q-68 59 -149 89t-169 30q-109 0 -171 -42.5t-62 -121.5q0 -117 159 -169
l189 -58q135 -42 193.5 -112.5t58.5 -172.5q0 -91 -46 -160t-127.5 -106t-184.5 -37q-214 0 -375 142zM401 -121h137l-158 -319h-79z" />
    <glyph glyph-name="germandbls" unicode="&#xdf;" horiz-adv-x="1144" 
d="M959 694.5q87 -107.5 87 -277.5q0 -134 -55 -235.5t-157.5 -157t-242.5 -55.5q-45 0 -83 7t-78 24v102q69 -24 136 -24q114 0 194 45t121 122.5t41 175.5q0 155 -92 245.5t-282 90.5h-102v103h115q92 0 156.5 34.5t97 95.5t32.5 139q0 80 -35 138.5t-96 88.5t-138 30
q-85 0 -148.5 -39t-98 -111t-34.5 -169v-1067h-121v1049q0 139 51 239.5t143 153.5t213 53q122 0 209.5 -48t132.5 -128.5t45 -176.5q0 -122 -67.5 -205.5t-192.5 -110.5q162 -24 249 -131.5z" />
    <glyph glyph-name="t" unicode="t" horiz-adv-x="753" 
d="M726 921h-298v-921h-122v921h-277v103h277v296l122 41v-337h298v-103z" />
    <glyph glyph-name="tbar" unicode="&#x167;" horiz-adv-x="753" 
d="M726 921h-298v-921h-122v921h-277v103h277v296l122 41v-337h298v-103zM56 555h637v-87h-637v87z" />
    <glyph glyph-name="tcaron" unicode="&#x165;" horiz-adv-x="753" 
d="M726 921h-298v-921h-122v921h-277v103h277v296l122 41v-337h298v-103zM732 1478h125l-178 -270h-101z" />
    <glyph glyph-name="uni0163" unicode="&#x163;" horiz-adv-x="753" 
d="M726 921h-298v-921h-122v921h-277v103h277v296l122 41v-337h298v-103zM516.5 -120.5q45.5 -46.5 45.5 -119.5t-51 -119.5t-141 -46.5q-75 0 -140 46v88q20 -20 54.5 -36t81.5 -16q54 0 82.5 25t28.5 66q0 44 -31.5 67.5t-90.5 23.5h-46v154h72v-86h6q84 0 129.5 -46.5z
" />
    <glyph glyph-name="uni021B" unicode="&#x21b;" horiz-adv-x="753" 
d="M726 921h-298v-921h-122v921h-277v103h277v296l122 41v-337h298v-103zM306 -121h137l-158 -319h-79z" />
    <glyph glyph-name="u" unicode="u" horiz-adv-x="1172" 
d="M997 1024v-1024h-122v235q-40 -128 -128.5 -197.5t-216.5 -69.5q-115 0 -198 48.5t-127 141t-44 223.5v643h121v-612q0 -165 72.5 -253t210.5 -88q98 0 167.5 50.5t106 142t36.5 213.5v547h122z" />
    <glyph glyph-name="uacute" unicode="&#xfa;" horiz-adv-x="1172" 
d="M997 1024v-1024h-122v235q-40 -128 -128.5 -197.5t-216.5 -69.5q-115 0 -198 48.5t-127 141t-44 223.5v643h121v-612q0 -165 72.5 -253t210.5 -88q98 0 167.5 50.5t106 142t36.5 213.5v547h122zM680 1425h125l-178 -270h-101z" />
    <glyph glyph-name="ubreve" unicode="&#x16d;" horiz-adv-x="1172" 
d="M997 1024v-1024h-122v235q-40 -128 -128.5 -197.5t-216.5 -69.5q-115 0 -198 48.5t-127 141t-44 223.5v643h121v-612q0 -165 72.5 -253t210.5 -88q98 0 167.5 50.5t106 142t36.5 213.5v547h122zM459 1180q-58 28 -94 84t-40 136h90q5 -76 51.5 -121.5t120.5 -45.5
q76 0 121.5 45t50.5 122h90q-4 -80 -40 -136t-94 -84t-128 -28t-128 28z" />
    <glyph glyph-name="ucircumflex" unicode="&#xfb;" horiz-adv-x="1172" 
d="M997 1024v-1024h-122v235q-40 -128 -128.5 -197.5t-216.5 -69.5q-115 0 -198 48.5t-127 141t-44 223.5v643h121v-612q0 -165 72.5 -253t210.5 -88q98 0 167.5 50.5t106 142t36.5 213.5v547h122zM741 1155l-158 200l-155 -200h-103l201 270h118l201 -270h-104z" />
    <glyph glyph-name="udieresis" unicode="&#xfc;" horiz-adv-x="1172" 
d="M997 1024v-1024h-122v235q-40 -128 -128.5 -197.5t-216.5 -69.5q-115 0 -198 48.5t-127 141t-44 223.5v643h121v-612q0 -165 72.5 -253t210.5 -88q98 0 167.5 50.5t106 142t36.5 213.5v547h122zM360 1239q-23 23 -23 55q0 31 23 52.5t55 21.5q34 0 56.5 -21t22.5 -53
t-22.5 -55t-56.5 -23q-32 0 -55 23zM698 1239q-23 23 -23 55q0 31 23 52.5t57 21.5q32 0 54.5 -21.5t22.5 -52.5q0 -32 -22.5 -55t-54.5 -23q-34 0 -57 23z" />
    <glyph glyph-name="uni1EE5" unicode="&#x1ee5;" horiz-adv-x="1172" 
d="M997 1024v-1024h-122v235q-40 -128 -128.5 -197.5t-216.5 -69.5q-115 0 -198 48.5t-127 141t-44 223.5v643h121v-612q0 -165 72.5 -253t210.5 -88q98 0 167.5 50.5t106 142t36.5 213.5v547h122zM524 -323q-26 26 -26 63q0 36 26 61t63 25q38 0 64 -25t26 -61
q0 -37 -26 -63t-64 -26q-37 0 -63 26z" />
    <glyph glyph-name="ugrave" unicode="&#xf9;" horiz-adv-x="1172" 
d="M997 1024v-1024h-122v235q-40 -128 -128.5 -197.5t-216.5 -69.5q-115 0 -198 48.5t-127 141t-44 223.5v643h121v-612q0 -165 72.5 -253t210.5 -88q98 0 167.5 50.5t106 142t36.5 213.5v547h122zM555 1155l-178 270h125l154 -270h-101z" />
    <glyph glyph-name="uhungarumlaut" unicode="&#x171;" horiz-adv-x="1172" 
d="M997 1024v-1024h-122v235q-40 -128 -128.5 -197.5t-216.5 -69.5q-115 0 -198 48.5t-127 141t-44 223.5v643h121v-612q0 -165 72.5 -253t210.5 -88q98 0 167.5 50.5t106 142t36.5 213.5v547h122zM566 1425h112l-209 -270h-90zM840 1425h113l-209 -270h-90z" />
    <glyph glyph-name="umacron" unicode="&#x16b;" horiz-adv-x="1172" 
d="M997 1024v-1024h-122v235q-40 -128 -128.5 -197.5t-216.5 -69.5q-115 0 -198 48.5t-127 141t-44 223.5v643h121v-612q0 -165 72.5 -253t210.5 -88q98 0 167.5 50.5t106 142t36.5 213.5v547h122zM317 1304h534v-87h-534v87z" />
    <glyph glyph-name="uogonek" unicode="&#x173;" horiz-adv-x="1172" 
d="M997 1024v-1024h-122v235q-40 -128 -128.5 -197.5t-216.5 -69.5q-115 0 -198 48.5t-127 141t-44 223.5v643h121v-612q0 -165 72.5 -253t210.5 -88q98 0 167.5 50.5t106 142t36.5 213.5v547h122zM724.5 -353q-50.5 53 -50.5 137q0 66 34.5 120.5t101.5 87.5t159 35l27 -27
q-118 -14 -177.5 -67.5t-59.5 -129.5q0 -61 34 -94.5t86 -33.5q35 0 65.5 10.5t51.5 22.5v-81q-64 -33 -133 -33q-88 0 -138.5 53z" />
    <glyph glyph-name="uring" unicode="&#x16f;" horiz-adv-x="1172" 
d="M997 1024v-1024h-122v235q-40 -128 -128.5 -197.5t-216.5 -69.5q-115 0 -198 48.5t-127 141t-44 223.5v643h121v-612q0 -165 72.5 -253t210.5 -88q98 0 167.5 50.5t106 142t36.5 213.5v547h122zM495.5 1183q-40.5 24 -64.5 64.5t-24 87.5q0 49 23.5 88.5t64.5 62t90 22.5
t89 -22.5t63 -62t23 -88.5q0 -47 -23 -87.5t-63.5 -64.5t-88.5 -24q-49 0 -89.5 24zM658.5 1257.5q29.5 31.5 29.5 77.5q0 44 -29.5 75t-73.5 31q-46 0 -76 -31t-30 -75q0 -46 30 -77.5t76 -31.5q44 0 73.5 31.5z" />
    <glyph glyph-name="utilde" unicode="&#x169;" horiz-adv-x="1172" 
d="M997 1024v-1024h-122v235q-40 -128 -128.5 -197.5t-216.5 -69.5q-115 0 -198 48.5t-127 141t-44 223.5v643h121v-612q0 -165 72.5 -253t210.5 -88q98 0 167.5 50.5t106 142t36.5 213.5v547h122zM636.5 1180.5q-29.5 16.5 -68.5 48.5q-33 26 -52.5 37.5t-41.5 11.5
q-79 0 -87 -97h-72q4 89 44.5 136.5t108.5 47.5q36 0 65.5 -16.5t66.5 -47.5q30 -25 51.5 -38t44.5 -13q38 0 60 26t26 71h72q-4 -89 -43 -136t-107 -47q-38 0 -67.5 16.5z" />
    <glyph glyph-name="v" unicode="v" horiz-adv-x="1034" 
d="M979 1024l-406 -1028h-113l-402 1028h129l330 -878l336 878h126z" />
    <glyph glyph-name="w" unicode="w" horiz-adv-x="1589" 
d="M1534 1024l-339 -1028h-112l-288 898l-298 -898h-111l-323 1028h131l250 -862l284 862h135l277 -864l269 864h125z" />
    <glyph glyph-name="wacute" unicode="&#x1e83;" horiz-adv-x="1589" 
d="M1534 1024l-339 -1028h-112l-288 898l-298 -898h-111l-323 1028h131l250 -862l284 862h135l277 -864l269 864h125zM895 1425h125l-178 -270h-101z" />
    <glyph glyph-name="wcircumflex" unicode="&#x175;" horiz-adv-x="1589" 
d="M1534 1024l-339 -1028h-112l-288 898l-298 -898h-111l-323 1028h131l250 -862l284 862h135l277 -864l269 864h125zM956 1155l-158 200l-155 -200h-103l201 270h118l201 -270h-104z" />
    <glyph glyph-name="wdieresis" unicode="&#x1e85;" horiz-adv-x="1589" 
d="M1534 1024l-339 -1028h-112l-288 898l-298 -898h-111l-323 1028h131l250 -862l284 862h135l277 -864l269 864h125zM575 1239q-23 23 -23 55q0 31 23 52.5t55 21.5q34 0 56.5 -21t22.5 -53t-22.5 -55t-56.5 -23q-32 0 -55 23zM913 1239q-23 23 -23 55q0 31 23 52.5
t57 21.5q32 0 54.5 -21.5t22.5 -52.5q0 -32 -22.5 -55t-54.5 -23q-34 0 -57 23z" />
    <glyph glyph-name="wgrave" unicode="&#x1e81;" horiz-adv-x="1589" 
d="M1534 1024l-339 -1028h-112l-288 898l-298 -898h-111l-323 1028h131l250 -862l284 862h135l277 -864l269 864h125zM770 1155l-178 270h125l154 -270h-101z" />
    <glyph glyph-name="x" unicode="x" horiz-adv-x="989" 
d="M806 0l-312 455l-315 -455h-142l383 538l-359 486h144l289 -411l294 411h140l-358 -486l382 -538h-146z" />
    <glyph glyph-name="y" unicode="y" horiz-adv-x="1046" 
d="M1002 1024l-654 -1421h-131l232 485l-391 936h128l328 -800l360 800h128z" />
    <glyph glyph-name="yacute" unicode="&#xfd;" horiz-adv-x="1046" 
d="M1002 1024l-654 -1421h-131l232 485l-391 936h128l328 -800l360 800h128zM624 1425h125l-178 -270h-101z" />
    <glyph glyph-name="ycircumflex" unicode="&#x177;" horiz-adv-x="1046" 
d="M1002 1024l-654 -1421h-131l232 485l-391 936h128l328 -800l360 800h128zM685 1155l-158 200l-155 -200h-103l201 270h118l201 -270h-104z" />
    <glyph glyph-name="ydieresis" unicode="&#xff;" horiz-adv-x="1046" 
d="M1002 1024l-654 -1421h-131l232 485l-391 936h128l328 -800l360 800h128zM304 1239q-23 23 -23 55q0 31 23 52.5t55 21.5q34 0 56.5 -21t22.5 -53t-22.5 -55t-56.5 -23q-32 0 -55 23zM642 1239q-23 23 -23 55q0 31 23 52.5t57 21.5q32 0 54.5 -21.5t22.5 -52.5
q0 -32 -22.5 -55t-54.5 -23q-34 0 -57 23z" />
    <glyph glyph-name="ygrave" unicode="&#x1ef3;" horiz-adv-x="1046" 
d="M1002 1024l-654 -1421h-131l232 485l-391 936h128l328 -800l360 800h128zM499 1155l-178 270h125l154 -270h-101z" />
    <glyph glyph-name="uni0233" unicode="&#x233;" horiz-adv-x="1046" 
d="M1002 1024l-654 -1421h-131l232 485l-391 936h128l328 -800l360 800h128zM261 1304h534v-87h-534v87z" />
    <glyph glyph-name="z" unicode="z" horiz-adv-x="926" 
d="M857 109v-109h-776v119l605 799h-595v106h733v-108l-619 -807h652z" />
    <glyph glyph-name="zacute" unicode="&#x17a;" horiz-adv-x="926" 
d="M857 109v-109h-776v119l605 799h-595v106h733v-108l-619 -807h652zM564 1425h125l-178 -270h-101z" />
    <glyph glyph-name="zcaron" unicode="&#x17e;" horiz-adv-x="926" 
d="M857 109v-109h-776v119l605 799h-595v106h733v-108l-619 -807h652zM729 1425l-201 -270h-118l-201 270h103l155 -200l158 200h104z" />
    <glyph glyph-name="zdotaccent" unicode="&#x17c;" horiz-adv-x="926" 
d="M857 109v-109h-776v119l605 799h-595v106h733v-108l-619 -807h652zM405 1231q-26 26 -26 63q0 36 26 61t63 25q38 0 64 -25t26 -61q0 -37 -26 -63t-64 -26q-37 0 -63 26z" />
    <glyph glyph-name="a.salt" horiz-adv-x="1232" 
d="M1057 1024v-1024h-121v269q-45 -138 -143 -219t-239 -81q-130 0 -233.5 69t-162 191.5t-58.5 277.5q0 161 61 285.5t167 193.5t237 69q134 0 228 -73.5t143 -212.5v255h121zM768 137.5q82 56.5 126 156t44 223.5q0 122 -42.5 219.5t-122.5 153t-188 55.5t-189.5 -54.5
t-126 -153t-44.5 -226.5q0 -127 44 -224.5t124.5 -151.5t184.5 -54q108 0 190 56.5z" />
    <glyph glyph-name="aacute.salt" horiz-adv-x="1232" 
d="M1057 1024v-1024h-121v269q-45 -138 -143 -219t-239 -81q-130 0 -233.5 69t-162 191.5t-58.5 277.5q0 161 61 285.5t167 193.5t237 69q134 0 228 -73.5t143 -212.5v255h121zM768 137.5q82 56.5 126 156t44 223.5q0 122 -42.5 219.5t-122.5 153t-188 55.5t-189.5 -54.5
t-126 -153t-44.5 -226.5q0 -127 44 -224.5t124.5 -151.5t184.5 -54q108 0 190 56.5zM704 1425h125l-178 -270h-101z" />
    <glyph glyph-name="abreve.salt" horiz-adv-x="1232" 
d="M1057 1024v-1024h-121v269q-45 -138 -143 -219t-239 -81q-130 0 -233.5 69t-162 191.5t-58.5 277.5q0 161 61 285.5t167 193.5t237 69q134 0 228 -73.5t143 -212.5v255h121zM768 137.5q82 56.5 126 156t44 223.5q0 122 -42.5 219.5t-122.5 153t-188 55.5t-189.5 -54.5
t-126 -153t-44.5 -226.5q0 -127 44 -224.5t124.5 -151.5t184.5 -54q108 0 190 56.5zM483 1180q-58 28 -94 84t-40 136h90q5 -76 51.5 -121.5t120.5 -45.5q76 0 121.5 45t50.5 122h90q-4 -80 -40 -136t-94 -84t-128 -28t-128 28z" />
    <glyph glyph-name="acircumflex.salt" horiz-adv-x="1232" 
d="M1057 1024v-1024h-121v269q-45 -138 -143 -219t-239 -81q-130 0 -233.5 69t-162 191.5t-58.5 277.5q0 161 61 285.5t167 193.5t237 69q134 0 228 -73.5t143 -212.5v255h121zM768 137.5q82 56.5 126 156t44 223.5q0 122 -42.5 219.5t-122.5 153t-188 55.5t-189.5 -54.5
t-126 -153t-44.5 -226.5q0 -127 44 -224.5t124.5 -151.5t184.5 -54q108 0 190 56.5zM765 1155l-158 200l-155 -200h-103l201 270h118l201 -270h-104z" />
    <glyph glyph-name="adieresis.salt" horiz-adv-x="1232" 
d="M1057 1024v-1024h-121v269q-45 -138 -143 -219t-239 -81q-130 0 -233.5 69t-162 191.5t-58.5 277.5q0 161 61 285.5t167 193.5t237 69q134 0 228 -73.5t143 -212.5v255h121zM768 137.5q82 56.5 126 156t44 223.5q0 122 -42.5 219.5t-122.5 153t-188 55.5t-189.5 -54.5
t-126 -153t-44.5 -226.5q0 -127 44 -224.5t124.5 -151.5t184.5 -54q108 0 190 56.5zM384 1239q-23 23 -23 55q0 31 23 52.5t55 21.5q34 0 56.5 -21t22.5 -53t-22.5 -55t-56.5 -23q-32 0 -55 23zM722 1239q-23 23 -23 55q0 31 23 52.5t57 21.5q32 0 54.5 -21.5t22.5 -52.5
q0 -32 -22.5 -55t-54.5 -23q-34 0 -57 23z" />
    <glyph glyph-name="uni0227.salt" horiz-adv-x="1232" 
d="M1057 1024v-1024h-121v269q-45 -138 -143 -219t-239 -81q-130 0 -233.5 69t-162 191.5t-58.5 277.5q0 161 61 285.5t167 193.5t237 69q134 0 228 -73.5t143 -212.5v255h121zM768 137.5q82 56.5 126 156t44 223.5q0 122 -42.5 219.5t-122.5 153t-188 55.5t-189.5 -54.5
t-126 -153t-44.5 -226.5q0 -127 44 -224.5t124.5 -151.5t184.5 -54q108 0 190 56.5zM545 1231q-26 26 -26 63q0 36 26 61t63 25q38 0 64 -25t26 -61q0 -37 -26 -63t-64 -26q-37 0 -63 26z" />
    <glyph glyph-name="uni1EA1.salt" horiz-adv-x="1232" 
d="M1057 1024v-1024h-121v269q-45 -138 -143 -219t-239 -81q-130 0 -233.5 69t-162 191.5t-58.5 277.5q0 161 61 285.5t167 193.5t237 69q134 0 228 -73.5t143 -212.5v255h121zM768 137.5q82 56.5 126 156t44 223.5q0 122 -42.5 219.5t-122.5 153t-188 55.5t-189.5 -54.5
t-126 -153t-44.5 -226.5q0 -127 44 -224.5t124.5 -151.5t184.5 -54q108 0 190 56.5zM556 -323q-26 26 -26 63q0 36 26 61t63 25q38 0 64 -25t26 -61q0 -37 -26 -63t-64 -26q-37 0 -63 26z" />
    <glyph glyph-name="agrave.salt" horiz-adv-x="1232" 
d="M1057 1024v-1024h-121v269q-45 -138 -143 -219t-239 -81q-130 0 -233.5 69t-162 191.5t-58.5 277.5q0 161 61 285.5t167 193.5t237 69q134 0 228 -73.5t143 -212.5v255h121zM768 137.5q82 56.5 126 156t44 223.5q0 122 -42.5 219.5t-122.5 153t-188 55.5t-189.5 -54.5
t-126 -153t-44.5 -226.5q0 -127 44 -224.5t124.5 -151.5t184.5 -54q108 0 190 56.5zM579 1155l-178 270h125l154 -270h-101z" />
    <glyph glyph-name="amacron.salt" horiz-adv-x="1232" 
d="M1057 1024v-1024h-121v269q-45 -138 -143 -219t-239 -81q-130 0 -233.5 69t-162 191.5t-58.5 277.5q0 161 61 285.5t167 193.5t237 69q134 0 228 -73.5t143 -212.5v255h121zM768 137.5q82 56.5 126 156t44 223.5q0 122 -42.5 219.5t-122.5 153t-188 55.5t-189.5 -54.5
t-126 -153t-44.5 -226.5q0 -127 44 -224.5t124.5 -151.5t184.5 -54q108 0 190 56.5zM341 1304h534v-87h-534v87z" />
    <glyph glyph-name="aogonek.salt" horiz-adv-x="1232" 
d="M1057 1024v-1024h-121v269q-45 -138 -143 -219t-239 -81q-130 0 -233.5 69t-162 191.5t-58.5 277.5q0 161 61 285.5t167 193.5t237 69q134 0 228 -73.5t143 -212.5v255h121zM768 137.5q82 56.5 126 156t44 223.5q0 122 -42.5 219.5t-122.5 153t-188 55.5t-189.5 -54.5
t-126 -153t-44.5 -226.5q0 -127 44 -224.5t124.5 -151.5t184.5 -54q108 0 190 56.5zM783.5 -353q-50.5 53 -50.5 137q0 66 34.5 120.5t101.5 87.5t159 35l27 -27q-118 -14 -177.5 -67.5t-59.5 -129.5q0 -61 34 -94.5t86 -33.5q35 0 65.5 10.5t51.5 22.5v-81
q-64 -33 -133 -33q-88 0 -138.5 53z" />
    <glyph glyph-name="aring.salt" horiz-adv-x="1232" 
d="M1057 1024v-1024h-121v269q-45 -138 -143 -219t-239 -81q-130 0 -233.5 69t-162 191.5t-58.5 277.5q0 161 61 285.5t167 193.5t237 69q134 0 228 -73.5t143 -212.5v255h121zM768 137.5q82 56.5 126 156t44 223.5q0 122 -42.5 219.5t-122.5 153t-188 55.5t-189.5 -54.5
t-126 -153t-44.5 -226.5q0 -127 44 -224.5t124.5 -151.5t184.5 -54q108 0 190 56.5zM519.5 1183q-40.5 24 -64.5 64.5t-24 87.5q0 49 23.5 88.5t64.5 62t90 22.5t89 -22.5t63 -62t23 -88.5q0 -47 -23 -87.5t-63.5 -64.5t-88.5 -24q-49 0 -89.5 24zM682.5 1257.5
q29.5 31.5 29.5 77.5q0 44 -29.5 75t-73.5 31q-46 0 -76 -31t-30 -75q0 -46 30 -77.5t76 -31.5q44 0 73.5 31.5z" />
    <glyph glyph-name="aringacute.salt" horiz-adv-x="1232" 
d="M1057 1024v-1024h-121v269q-45 -138 -143 -219t-239 -81q-130 0 -233.5 69t-162 191.5t-58.5 277.5q0 161 61 285.5t167 193.5t237 69q134 0 228 -73.5t143 -212.5v255h121zM768 137.5q82 56.5 126 156t44 223.5q0 122 -42.5 219.5t-122.5 153t-188 55.5t-189.5 -54.5
t-126 -153t-44.5 -226.5q0 -127 44 -224.5t124.5 -151.5t184.5 -54q108 0 190 56.5zM677 1720h102l-148 -168h-79zM519.5 1183q-40.5 24 -64.5 64.5t-24 87.5q0 49 23.5 88.5t64.5 62t90 22.5t89 -22.5t63 -62t23 -88.5q0 -47 -23 -87.5t-63.5 -64.5t-88.5 -24
q-49 0 -89.5 24zM682.5 1257.5q29.5 31.5 29.5 77.5q0 44 -29.5 75t-73.5 31q-46 0 -76 -31t-30 -75q0 -46 30 -77.5t76 -31.5q44 0 73.5 31.5z" />
    <glyph glyph-name="atilde.salt" horiz-adv-x="1232" 
d="M1057 1024v-1024h-121v269q-45 -138 -143 -219t-239 -81q-130 0 -233.5 69t-162 191.5t-58.5 277.5q0 161 61 285.5t167 193.5t237 69q134 0 228 -73.5t143 -212.5v255h121zM768 137.5q82 56.5 126 156t44 223.5q0 122 -42.5 219.5t-122.5 153t-188 55.5t-189.5 -54.5
t-126 -153t-44.5 -226.5q0 -127 44 -224.5t124.5 -151.5t184.5 -54q108 0 190 56.5zM660.5 1180.5q-29.5 16.5 -68.5 48.5q-33 26 -52.5 37.5t-41.5 11.5q-79 0 -87 -97h-72q4 89 44.5 136.5t108.5 47.5q36 0 65.5 -16.5t66.5 -47.5q30 -25 51.5 -38t44.5 -13q38 0 60 26
t26 71h72q-4 -89 -43 -136t-107 -47q-38 0 -67.5 16.5z" />
    <glyph glyph-name="t.ss03" horiz-adv-x="748" 
d="M640.5 83q37.5 19 67.5 50v-105q-37 -34 -81 -51.5t-106 -17.5q-123 0 -190.5 71t-67.5 198v693h-233v103h233v296l121 41v-337h315v-103h-315v-681q0 -87 42.5 -131.5t121.5 -44.5q55 0 92.5 19z" />
    <glyph glyph-name="tbar.ss03" horiz-adv-x="748" 
d="M640.5 83q37.5 19 67.5 50v-105q-37 -34 -81 -51.5t-106 -17.5q-123 0 -190.5 71t-67.5 198v693h-233v103h233v296l121 41v-337h315v-103h-315v-681q0 -87 42.5 -131.5t121.5 -44.5q55 0 92.5 19zM39 555h637v-87h-637v87z" />
    <glyph glyph-name="tcaron.ss03" horiz-adv-x="748" 
d="M640.5 83q37.5 19 67.5 50v-105q-37 -34 -81 -51.5t-106 -17.5q-123 0 -190.5 71t-67.5 198v693h-233v103h233v296l121 41v-337h315v-103h-315v-681q0 -87 42.5 -131.5t121.5 -44.5q55 0 92.5 19zM696 1478h125l-178 -270h-101z" />
    <glyph glyph-name="uni0163.ss03" horiz-adv-x="748" 
d="M640.5 83q37.5 19 67.5 50v-105q-37 -34 -81 -51.5t-106 -17.5q-123 0 -190.5 71t-67.5 198v693h-233v103h233v296l121 41v-337h315v-103h-315v-681q0 -87 42.5 -131.5t121.5 -44.5q55 0 92.5 19zM654.5 -120.5q45.5 -46.5 45.5 -119.5t-51 -119.5t-141 -46.5
q-75 0 -140 46v88q20 -20 54.5 -36t81.5 -16q54 0 82.5 25t28.5 66q0 44 -31.5 67.5t-90.5 23.5h-46v154h72v-86h6q84 0 129.5 -46.5z" />
    <glyph glyph-name="uni021B.ss03" horiz-adv-x="748" 
d="M640.5 83q37.5 19 67.5 50v-105q-37 -34 -81 -51.5t-106 -17.5q-123 0 -190.5 71t-67.5 198v693h-233v103h233v296l121 41v-337h315v-103h-315v-681q0 -87 42.5 -131.5t121.5 -44.5q55 0 92.5 19zM444 -121h137l-158 -319h-79z" />
    <glyph glyph-name="u.ss04" horiz-adv-x="1143" 
d="M354 10.5q-93 51.5 -143.5 147.5t-50.5 226v640h121v-639q0 -98 35 -169t100 -108.5t153 -37.5q90 0 156 37.5t101.5 108.5t35.5 169v639h121v-640q0 -130 -51.5 -226t-145 -147.5t-217.5 -51.5q-122 0 -215 51.5z" />
    <glyph glyph-name="uacute.ss04" horiz-adv-x="1143" 
d="M354 10.5q-93 51.5 -143.5 147.5t-50.5 226v640h121v-639q0 -98 35 -169t100 -108.5t153 -37.5q90 0 156 37.5t101.5 108.5t35.5 169v639h121v-640q0 -130 -51.5 -226t-145 -147.5t-217.5 -51.5q-122 0 -215 51.5zM666 1425h125l-178 -270h-101z" />
    <glyph glyph-name="ubreve.ss04" horiz-adv-x="1143" 
d="M354 10.5q-93 51.5 -143.5 147.5t-50.5 226v640h121v-639q0 -98 35 -169t100 -108.5t153 -37.5q90 0 156 37.5t101.5 108.5t35.5 169v639h121v-640q0 -130 -51.5 -226t-145 -147.5t-217.5 -51.5q-122 0 -215 51.5zM445 1180q-58 28 -94 84t-40 136h90q5 -76 51.5 -121.5
t120.5 -45.5q76 0 121.5 45t50.5 122h90q-4 -80 -40 -136t-94 -84t-128 -28t-128 28z" />
    <glyph glyph-name="ucircumflex.ss04" horiz-adv-x="1143" 
d="M354 10.5q-93 51.5 -143.5 147.5t-50.5 226v640h121v-639q0 -98 35 -169t100 -108.5t153 -37.5q90 0 156 37.5t101.5 108.5t35.5 169v639h121v-640q0 -130 -51.5 -226t-145 -147.5t-217.5 -51.5q-122 0 -215 51.5zM727 1155l-158 200l-155 -200h-103l201 270h118
l201 -270h-104z" />
    <glyph glyph-name="udieresis.ss04" horiz-adv-x="1143" 
d="M354 10.5q-93 51.5 -143.5 147.5t-50.5 226v640h121v-639q0 -98 35 -169t100 -108.5t153 -37.5q90 0 156 37.5t101.5 108.5t35.5 169v639h121v-640q0 -130 -51.5 -226t-145 -147.5t-217.5 -51.5q-122 0 -215 51.5zM346 1239q-23 23 -23 55q0 31 23 52.5t55 21.5
q34 0 56.5 -21t22.5 -53t-22.5 -55t-56.5 -23q-32 0 -55 23zM684 1239q-23 23 -23 55q0 31 23 52.5t57 21.5q32 0 54.5 -21.5t22.5 -52.5q0 -32 -22.5 -55t-54.5 -23q-34 0 -57 23z" />
    <glyph glyph-name="uni1EE5.ss04" horiz-adv-x="1143" 
d="M354 10.5q-93 51.5 -143.5 147.5t-50.5 226v640h121v-639q0 -98 35 -169t100 -108.5t153 -37.5q90 0 156 37.5t101.5 108.5t35.5 169v639h121v-640q0 -130 -51.5 -226t-145 -147.5t-217.5 -51.5q-122 0 -215 51.5zM510 -323q-26 26 -26 63q0 36 26 61t63 25q38 0 64 -25
t26 -61q0 -37 -26 -63t-64 -26q-37 0 -63 26z" />
    <glyph glyph-name="ugrave.ss04" horiz-adv-x="1143" 
d="M354 10.5q-93 51.5 -143.5 147.5t-50.5 226v640h121v-639q0 -98 35 -169t100 -108.5t153 -37.5q90 0 156 37.5t101.5 108.5t35.5 169v639h121v-640q0 -130 -51.5 -226t-145 -147.5t-217.5 -51.5q-122 0 -215 51.5zM541 1155l-178 270h125l154 -270h-101z" />
    <glyph glyph-name="uhungarumlaut.ss04" horiz-adv-x="1143" 
d="M354 10.5q-93 51.5 -143.5 147.5t-50.5 226v640h121v-639q0 -98 35 -169t100 -108.5t153 -37.5q90 0 156 37.5t101.5 108.5t35.5 169v639h121v-640q0 -130 -51.5 -226t-145 -147.5t-217.5 -51.5q-122 0 -215 51.5zM552 1425h112l-209 -270h-90zM826 1425h113l-209 -270
h-90z" />
    <glyph glyph-name="umacron.ss04" horiz-adv-x="1143" 
d="M354 10.5q-93 51.5 -143.5 147.5t-50.5 226v640h121v-639q0 -98 35 -169t100 -108.5t153 -37.5q90 0 156 37.5t101.5 108.5t35.5 169v639h121v-640q0 -130 -51.5 -226t-145 -147.5t-217.5 -51.5q-122 0 -215 51.5zM303 1304h534v-87h-534v87z" />
    <glyph glyph-name="uogonek.ss04" horiz-adv-x="1143" 
d="M354 10.5q-93 51.5 -143.5 147.5t-50.5 226v640h121v-639q0 -98 35 -169t100 -108.5t153 -37.5q90 0 156 37.5t101.5 108.5t35.5 169v639h121v-640q0 -130 -51.5 -226t-145 -147.5t-217.5 -51.5q-122 0 -215 51.5zM478.5 -353q-50.5 53 -50.5 137q0 66 34.5 120.5
t101.5 87.5t159 35l27 -27q-118 -14 -177.5 -67.5t-59.5 -129.5q0 -61 34 -94.5t86 -33.5q35 0 65.5 10.5t51.5 22.5v-81q-64 -33 -133 -33q-88 0 -138.5 53z" />
    <glyph glyph-name="uring.ss04" horiz-adv-x="1143" 
d="M354 10.5q-93 51.5 -143.5 147.5t-50.5 226v640h121v-639q0 -98 35 -169t100 -108.5t153 -37.5q90 0 156 37.5t101.5 108.5t35.5 169v639h121v-640q0 -130 -51.5 -226t-145 -147.5t-217.5 -51.5q-122 0 -215 51.5zM481.5 1183q-40.5 24 -64.5 64.5t-24 87.5
q0 49 23.5 88.5t64.5 62t90 22.5t89 -22.5t63 -62t23 -88.5q0 -47 -23 -87.5t-63.5 -64.5t-88.5 -24q-49 0 -89.5 24zM644.5 1257.5q29.5 31.5 29.5 77.5q0 44 -29.5 75t-73.5 31q-46 0 -76 -31t-30 -75q0 -46 30 -77.5t76 -31.5q44 0 73.5 31.5z" />
    <glyph glyph-name="utilde.ss04" horiz-adv-x="1143" 
d="M354 10.5q-93 51.5 -143.5 147.5t-50.5 226v640h121v-639q0 -98 35 -169t100 -108.5t153 -37.5q90 0 156 37.5t101.5 108.5t35.5 169v639h121v-640q0 -130 -51.5 -226t-145 -147.5t-217.5 -51.5q-122 0 -215 51.5zM622.5 1180.5q-29.5 16.5 -68.5 48.5q-33 26 -52.5 37.5
t-41.5 11.5q-79 0 -87 -97h-72q4 89 44.5 136.5t108.5 47.5q36 0 65.5 -16.5t66.5 -47.5q30 -25 51.5 -38t44.5 -13q38 0 60 26t26 71h72q-4 -89 -43 -136t-107 -47q-38 0 -67.5 16.5z" />
    <glyph glyph-name="I_S_B_N" horiz-adv-x="4502" 
d="M215 1434h129v-1434h-129v1434zM877 13q-117 50 -206 137v139q87 -93 201.5 -149t240.5 -56q155 0 244 70.5t89 197.5q0 67 -27 116t-90.5 93.5t-176.5 95.5l-150 67q-157 69 -233 160.5t-76 216.5q0 107 53 191t151 131t230 47q128 0 228 -43t167 -109v-139
q-84 83 -180 127t-213 44q-95 0 -163.5 -29t-105 -82.5t-36.5 -126.5q0 -64 27.5 -112.5t83.5 -88.5t148 -82l156 -71q123 -56 197.5 -115t109 -127.5t34.5 -155.5q0 -119 -57.5 -209t-161.5 -139t-240 -49q-127 0 -244 50zM2700.5 703.5q64.5 -51.5 99 -127.5t34.5 -168
q0 -119 -51 -211t-153 -144.5t-248 -52.5h-487v1434h493q121 0 209 -46t134.5 -127t46.5 -182q0 -110 -60.5 -191.5t-169.5 -113.5q88 -19 152.5 -70.5zM2024 1320v-521h348q83 0 145.5 33t96.5 91t34 133q0 122 -74 193t-208 71h-342zM2618 194.5q84 79.5 84 217.5
q0 85 -36 150t-103.5 100.5t-157.5 35.5h-381v-583h347q163 0 247 79.5zM4287 1434v-1434h-178l-822 1318v-1318h-121v1434h195l805 -1291v1291h121z" />
    <glyph glyph-name="f_f" horiz-adv-x="1351" 
d="M394 1333.5q-49 -54.5 -49 -158.5v-151h337v-103h-337v-921h-121v921h-183v103h183v137q0 162 80 248t220 86q60 0 110.5 -15.5t84.5 -41.5v-107q-35 27 -81.5 42t-101.5 15q-93 0 -142 -54.5zM1037 1333.5q-49 -54.5 -49 -158.5v-151h337v-103h-337v-921h-121v921h-183
v103h183v137q0 162 80 248t220 86q60 0 110.5 -15.5t84.5 -41.5v-107q-35 27 -81.5 42t-101.5 15q-93 0 -142 -54.5z" />
    <glyph glyph-name="f_f_i" horiz-adv-x="1838" 
d="M394 1333.5q-49 -54.5 -49 -158.5v-151h337v-103h-337v-921h-121v921h-183v103h183v137q0 162 80 248t220 86q60 0 110.5 -15.5t84.5 -41.5v-107q-35 27 -81.5 42t-101.5 15q-93 0 -142 -54.5zM1037 1333.5q-49 -54.5 -49 -158.5v-151h337v-103h-337v-921h-121v921h-183
v103h183v137q0 162 80 248t220 86q60 0 110.5 -15.5t84.5 -41.5v-107q-35 27 -81.5 42t-101.5 15q-93 0 -142 -54.5zM1533.5 1270q-24.5 25 -24.5 60q0 34 24.5 57.5t60.5 23.5q37 0 61 -23t24 -58q0 -36 -24.5 -60.5t-60.5 -24.5t-60.5 25zM1534 1024h121v-1024h-121v1024z
" />
    <glyph glyph-name="f_f_l" horiz-adv-x="1838" 
d="M394 1333.5q-49 -54.5 -49 -158.5v-151h337v-103h-337v-921h-121v921h-183v103h183v137q0 162 80 248t220 86q60 0 110.5 -15.5t84.5 -41.5v-107q-35 27 -81.5 42t-101.5 15q-93 0 -142 -54.5zM1037 1333.5q-49 -54.5 -49 -158.5v-151h337v-103h-337v-921h-121v921h-183
v103h183v137q0 162 80 248t220 86q60 0 110.5 -15.5t84.5 -41.5v-107q-35 27 -81.5 42t-101.5 15q-93 0 -142 -54.5zM1534 1475h121v-1475h-121v1475z" />
    <glyph glyph-name="fi" unicode="&#xfb01;" horiz-adv-x="1195" 
d="M394 1333.5q-49 -54.5 -49 -158.5v-151h337v-103h-337v-921h-121v921h-183v103h183v137q0 162 80 248t220 86q60 0 110.5 -15.5t84.5 -41.5v-107q-35 27 -81.5 42t-101.5 15q-93 0 -142 -54.5zM890.5 1270q-24.5 25 -24.5 60q0 34 24.5 57.5t60.5 23.5q37 0 61 -23
t24 -58q0 -36 -24.5 -60.5t-60.5 -24.5t-60.5 25zM891 1024h121v-1024h-121v1024z" />
    <glyph glyph-name="fl" unicode="&#xfb02;" horiz-adv-x="1195" 
d="M394 1333.5q-49 -54.5 -49 -158.5v-151h337v-103h-337v-921h-121v921h-183v103h183v137q0 162 80 248t220 86q60 0 110.5 -15.5t84.5 -41.5v-107q-35 27 -81.5 42t-101.5 15q-93 0 -142 -54.5zM891 1475h121v-1475h-121v1475z" />
    <glyph glyph-name="w_w_w" horiz-adv-x="4291" 
d="M4257 1024l-340 -1028h-111l-289 898l-298 -898h-111l-279 900l-283 -900h-112l-289 896l-297 -896h-111l-279 901l-284 -901h-111l-289 897l-297 -897h-112l-322 1028h128l252 -859l285 859h135l277 -864l278 864h122l274 -863l285 863h135l277 -864l278 864h123
l273 -864l285 864h136l276 -864l269 864h126z" />
    <glyph glyph-name="ordfeminine" unicode="&#xaa;" horiz-adv-x="949" 
d="M632.5 1413q78.5 -43 121 -124t42.5 -191v-557h-112v144q-32 -76 -102.5 -121t-162.5 -45q-89 0 -159.5 37t-110 101.5t-39.5 144.5q0 82 40.5 146.5t113.5 100.5t168 36q87 0 154.5 -39t97.5 -104v143q0 126 -66.5 197t-182.5 71q-84 0 -155 -34t-125 -93v112
q54 54 130 86t163 32q106 0 184.5 -43zM571 637.5q53 26.5 83 72.5t30 101t-29 97.5t-80 66t-116 23.5q-72 0 -125.5 -24t-81.5 -67.5t-28 -100.5t28 -101.5t80 -69t120 -24.5q66 0 119 26.5z" />
    <glyph glyph-name="ordmasculine" unicode="&#xba;" horiz-adv-x="1051" 
d="M305 576.5q-96 60.5 -149.5 168t-53.5 242.5t53.5 242t149.5 167t220 60t220.5 -60t150 -167t53.5 -242t-53.5 -242.5t-150 -168t-220.5 -60.5t-220 60.5zM686.5 665.5q69.5 46.5 107.5 130t38 191.5t-38 191t-107.5 129t-161.5 46q-91 0 -160.5 -46t-107.5 -129
t-38 -191t38 -191.5t107.5 -130t160.5 -46.5q92 0 161.5 46.5z" />
    <glyph glyph-name="ordfeminine.salt" horiz-adv-x="1092" 
d="M931 1431v-889h-113v227q-39 -118 -123.5 -185.5t-201.5 -67.5q-113 0 -201.5 60t-138 166t-49.5 241q0 137 51.5 244.5t144 168t210.5 60.5q110 0 188.5 -59.5t119.5 -168.5v203h113zM676 667q69 48 106.5 132.5t37.5 190.5t-36 188.5t-103.5 128.5t-156.5 46
q-90 0 -159 -45.5t-106.5 -129t-37.5 -193.5q0 -108 37 -191t104.5 -129t154.5 -46q90 0 159 48z" />
    <glyph glyph-name="a.sups_salt" horiz-adv-x="939" 
d="M784 1433v-733h-99v166q-36 -89 -103.5 -138.5t-158.5 -49.5q-94 0 -168.5 49.5t-116 137t-41.5 198.5q0 112 43 201t120.5 139t175.5 50q87 0 149.5 -44t99.5 -126v150h99zM570 805q56 39 87 108t31 156q0 86 -29.5 153t-84.5 104.5t-128 37.5t-129 -37t-87 -105
t-31 -157q0 -88 30.5 -156t85.5 -105.5t126 -37.5q73 0 129 39z" />
    <glyph glyph-name="t.sups_ss03" horiz-adv-x="605" 
d="M316 1350v-467q0 -59 28.5 -89t82.5 -30q73 0 117 48v-89q-26 -23 -59 -35.5t-79 -12.5q-92 0 -141 53t-49 145v477h-170v83h170v223l100 39v-262h228v-83h-228z" />
    <glyph glyph-name="u.sups_ss04" horiz-adv-x="887" 
d="M284.5 715q-67.5 38 -105 108t-37.5 165v445h100v-445q0 -105 54 -163t145 -58q95 0 150 57.5t55 163.5v445h99v-445q0 -95 -37.5 -165t-106.5 -108t-160 -38q-89 0 -156.5 38z" />
    <glyph glyph-name="a.sups" horiz-adv-x="808" 
d="M528 1417q66 -36 101.5 -102.5t35.5 -156.5v-459h-99v107q-29 -58 -85.5 -91.5t-130.5 -33.5q-73 0 -131.5 30.5t-91.5 84t-33 119.5t34 119.5t94.5 83.5t138.5 30q68 0 122.5 -28t82.5 -76v103q0 102 -54.5 159.5t-150.5 57.5q-132 0 -233 -106v98q47 45 109 71t135 26
q90 0 156 -36zM473 780.5q43 21.5 68 59t25 83.5q0 44 -23.5 78.5t-65.5 53.5t-96 19q-87 0 -137 -42.5t-50 -114.5q0 -70 49.5 -114t132.5 -44q54 0 97 21.5z" />
    <glyph glyph-name="b.sups" horiz-adv-x="957" 
d="M700.5 1403q75.5 -50 118 -137.5t42.5 -194.5q0 -108 -44.5 -198t-122.5 -142.5t-174 -52.5q-88 0 -158 49.5t-107 133.5v-161h-100v1049h100v-485q37 87 110 138t166 51q94 0 169.5 -50zM635.5 805q58.5 39 91 107.5t32.5 154.5t-31.5 153t-88.5 105t-130 38
q-75 0 -133.5 -38.5t-91 -106.5t-32.5 -154t31.5 -153.5t88 -106t129.5 -38.5q76 0 134.5 39z" />
    <glyph glyph-name="c.sups" horiz-adv-x="825" 
d="M276 729q-85 51 -133 140.5t-48 199.5q0 109 48.5 196.5t136 137.5t198.5 50q142 0 250 -85v-99q-111 95 -245 95q-85 0 -150 -37.5t-100.5 -104t-35.5 -152.5q0 -90 35.5 -158.5t101.5 -107t153 -38.5q67 0 131 26t112 70v-91q-111 -93 -260 -93q-109 0 -194 51z" />
    <glyph glyph-name="d.sups" horiz-adv-x="957" 
d="M802 1749v-1050h-99v171q-37 -89 -109 -140.5t-166 -51.5t-169.5 49.5t-118.5 137.5t-43 198q0 112 44.5 200.5t123.5 139t179 50.5q88 0 154.5 -45t104.5 -127v468h99zM580.5 805q59.5 39 92.5 108t33 156q0 86 -31.5 153t-89 104.5t-131.5 37.5q-75 0 -133.5 -37
t-90.5 -105t-32 -157q0 -87 31.5 -155t88 -106t128.5 -38q75 0 134.5 39z" />
    <glyph glyph-name="e.sups" horiz-adv-x="860" 
d="M762 1062h-566q1 -90 36.5 -157t100.5 -103t154 -36q75 0 141.5 27t114.5 70v-93q-46 -42 -116 -67t-150 -25q-113 0 -199 49t-133.5 138.5t-47.5 205.5q0 111 44 198t124 135.5t184 48.5q98 0 168.5 -41t107.5 -114.5t37 -169.5v-66zM283 1304q-65 -60 -82 -164h469
q-5 102 -62.5 163t-161.5 61q-98 0 -163 -60z" />
    <glyph glyph-name="f.sups" horiz-adv-x="584" 
d="M329 1637q-37 -39 -37 -113v-92h247v-84h-247v-648h-99v648h-129v84h129v82q0 118 59.5 183.5t167.5 65.5q42 0 79.5 -11.5t64.5 -32.5v-82q-60 39 -127 39q-71 0 -108 -39z" />
    <glyph glyph-name="g.sups" horiz-adv-x="945" 
d="M790 1432v-659q0 -111 -44 -193t-123.5 -125.5t-182.5 -43.5q-80 0 -151 27t-128 78v104q53 -62 122.5 -92t147.5 -30q125 0 193.5 78t68.5 225v109q-37 -89 -106 -137.5t-161 -48.5q-97 0 -171.5 46t-115.5 127.5t-41 185.5q0 105 43 189.5t120 132.5t176 48
q90 0 154 -47.5t101 -132.5v159h98zM569.5 847.5q57.5 35.5 90 99t32.5 143.5q0 79 -31.5 142t-87.5 98.5t-127 35.5q-73 0 -129 -36t-87 -100.5t-31 -146.5q0 -80 29.5 -141.5t84 -95.5t127.5 -34q72 0 129.5 35.5z" />
    <glyph glyph-name="h.sups" horiz-adv-x="905" 
d="M693.5 1374q67.5 -80 67.5 -225v-449h-98v432q0 119 -47 177.5t-141 58.5q-103 0 -162 -74.5t-59 -200.5v-393h-99v1049h99v-462q32 80 95.5 123.5t153.5 43.5q123 0 190.5 -80z" />
    <glyph glyph-name="i.sups" horiz-adv-x="425" 
d="M165 1594.5q-20 18.5 -20 45.5q0 28 20 46t48 18q27 0 46.5 -18.5t19.5 -45.5q0 -26 -19.5 -45t-46.5 -19q-28 0 -48 18.5zM163 1431h99v-731h-99v731z" />
    <glyph glyph-name="j.sups" horiz-adv-x="410" 
d="M156 1594.5q-20 18.5 -20 45.5q0 28 20 46t48 18q27 0 46.5 -18.5t19.5 -45.5t-19.5 -45.5t-46.5 -18.5q-28 0 -48 18.5zM-11.5 430.5q-35.5 17.5 -60.5 45.5v86q53 -61 124 -61q52 0 77.5 29t25.5 90v811h99v-824q0 -88 -51.5 -141t-135.5 -53q-43 0 -78.5 17.5z" />
    <glyph glyph-name="k.sups" horiz-adv-x="776" 
d="M612 700l-357 375v-375h-100v1049h100v-625l329 309h134l-371 -329l395 -404h-130z" />
    <glyph glyph-name="l.sups" horiz-adv-x="425" 
d="M163 1749h99v-1049h-99v1049z" />
    <glyph glyph-name="m.sups" horiz-adv-x="1255" 
d="M1049.5 1382.5q61.5 -72.5 61.5 -202.5v-480h-98v469q0 100 -40.5 150.5t-118.5 50.5q-50 0 -89 -25.5t-61 -70.5t-23 -100v-474h-98v488q0 87 -41.5 134.5t-116.5 47.5q-50 0 -88.5 -27.5t-60 -76t-22.5 -108.5v-458h-99v733h99v-118q29 68 80.5 104t121.5 36
q76 0 131 -39.5t78 -109.5q28 70 83 109.5t129 39.5q111 0 172.5 -72.5z" />
    <glyph glyph-name="n.sups" horiz-adv-x="905" 
d="M693.5 1373.5q67.5 -79.5 67.5 -223.5v-450h-98v431q0 119 -47 177.5t-141 58.5q-68 0 -118 -34t-76.5 -95.5t-26.5 -143.5v-394h-99v733h99v-156q30 84 94 130t155 46q123 0 190.5 -79.5z" />
    <glyph glyph-name="o.sups" horiz-adv-x="913" 
d="M270.5 728q-81.5 50 -127.5 138.5t-46 199.5q0 110 46 198.5t127.5 138.5t185.5 50t186.5 -50t128.5 -138t46 -199t-46 -199.5t-128.5 -138.5t-186.5 -50t-185.5 50zM591.5 804q58.5 38 91 106t32.5 156t-32 155.5t-91 105t-136 37.5q-75 0 -134 -37t-91.5 -105
t-32.5 -156t32.5 -156t91 -106t134.5 -38q77 0 135.5 38z" />
    <glyph glyph-name="p.sups" horiz-adv-x="957" 
d="M700.5 1403q75.5 -50 118 -137.5t42.5 -194.5q0 -109 -44.5 -199t-123 -142t-176.5 -52q-86 0 -156 48.5t-106 130.5v-429h-100v1005h100v-172q36 85 108 138.5t168 53.5q94 0 169.5 -50zM635.5 805q58.5 39 91 107.5t32.5 154.5t-31.5 153t-88.5 105t-130 38
q-75 0 -133.5 -38.5t-91 -106.5t-32.5 -154t31.5 -153.5t88 -106t129.5 -38.5q76 0 134.5 39z" />
    <glyph glyph-name="q.sups" horiz-adv-x="957" 
d="M802 1433v-1005h-99v444q-36 -90 -107.5 -142t-166.5 -52q-94 0 -170 49.5t-119 137.5t-43 197q0 112 44.5 201t124 139.5t180.5 50.5q89 0 155 -47.5t102 -136.5v164h99zM581 805q59 39 92 108t33 156q0 86 -31.5 153t-89 104.5t-131.5 37.5q-75 0 -133.5 -37
t-90.5 -105t-32 -157q0 -87 31.5 -155t88.5 -106t129 -38q75 0 134 39z" />
    <glyph glyph-name="r.sups" horiz-adv-x="585" 
d="M491 1438q26 -7 44 -21v-96q-50 32 -111 32q-50 0 -88 -30t-59 -83t-23 -119v-421h-99v733h99v-151q24 78 71 120.5t112 42.5q28 0 54 -7z" />
    <glyph glyph-name="s.sups" horiz-adv-x="717" 
d="M220.5 704.5q-68.5 26.5 -124.5 74.5v99q55 -53 124 -83.5t137 -30.5q80 0 126.5 33.5t46.5 93.5q0 46 -28.5 78t-95.5 55l-118 38q-181 60 -181 198q0 56 32 100t89.5 68.5t131.5 24.5q65 0 124.5 -20.5t107.5 -55.5v-98q-49 42 -108 65t-123 23q-73 0 -115 -28.5
t-42 -76.5q0 -40 28 -69.5t88 -50.5l115 -34q99 -34 145.5 -85.5t46.5 -128.5q0 -64 -33 -113t-92.5 -76t-135.5 -27q-77 0 -145.5 26.5z" />
    <glyph glyph-name="t.sups" horiz-adv-x="602" 
d="M555 1349h-210v-649h-99v649h-200v84h200v225l99 34v-259h210v-84z" />
    <glyph glyph-name="u.sups" horiz-adv-x="900" 
d="M745 1433v-733h-98v148q-30 -81 -91 -126t-145 -45q-127 0 -197.5 78t-70.5 218v460h99v-439q0 -115 49.5 -175t143.5 -60q99 0 155.5 76t56.5 205v393h98z" />
    <glyph glyph-name="v.sups" horiz-adv-x="799" 
d="M733 1433l-291 -736h-89l-287 736h105l227 -611l232 611h103z" />
    <glyph glyph-name="w.sups" horiz-adv-x="1186" 
d="M1119 1433l-241 -736h-89l-199 627l-204 -627h-88l-229 736h104l171 -597l195 597h104l190 -601l185 601h101z" />
    <glyph glyph-name="x.sups" horiz-adv-x="768" 
d="M599 700l-215 316l-220 -316h-112l271 384l-256 349h117l200 -287l204 287h114l-258 -349l272 -384h-117z" />
    <glyph glyph-name="y.sups" horiz-adv-x="807" 
d="M751 1433l-461 -1005h-106l161 338l-277 667h105l226 -558l247 558h105z" />
    <glyph glyph-name="z.sups" horiz-adv-x="724" 
d="M646 787v-87h-559v91l421 556h-414v86h529v-83l-434 -563h457z" />
    <glyph glyph-name="uni0394" unicode="&#x394;" horiz-adv-x="1271" 
d="M1208 101v-101h-1146v101l498 1265h149zM190 112h890l-445 1140z" />
    <glyph glyph-name="uni03A9" unicode="&#x3a9;" horiz-adv-x="1545" 
d="M1328 360.5q-98 -162.5 -285 -250.5h330v-110h-523v114q136 34 236.5 118t154.5 207.5t54 271.5q0 162 -66.5 290.5t-185.5 201.5t-270 73t-270.5 -73t-186 -201.5t-66.5 -290.5q0 -148 54 -271.5t154.5 -207.5t236.5 -118v-114h-523v110h331q-189 89 -286.5 251
t-97.5 362q0 190 87.5 343t237.5 240t329 87t328.5 -87t237 -240t87.5 -343q0 -200 -98 -362.5z" />
    <glyph glyph-name="uni03BC" unicode="&#x3bc;" horiz-adv-x="1187" 
d="M1011 1024v-1024h-121v234q-41 -127 -128 -196.5t-208 -69.5q-97 0 -163.5 40.5t-93.5 108.5v-506h-121v1413h121v-612q0 -166 72.5 -253.5t210.5 -87.5q98 0 167.5 50.5t106 142t36.5 213.5v547h121z" />
    <glyph glyph-name="pi" unicode="&#x3c0;" horiz-adv-x="1345" 
d="M1202.5 99.5q35.5 11.5 56.5 27.5v-107q-66 -40 -154 -40q-99 0 -158 60.5t-59 168.5v708h-507v-917h-121v917h-224v107h1217v-107h-244v-686q0 -69 31 -106t88 -37q39 0 74.5 11.5z" />
    <glyph glyph-name="zero" unicode="0" horiz-adv-x="1265" 
d="M363 55.5q-115 90.5 -177.5 254t-62.5 376.5q0 208 62.5 368.5t177.5 249.5t269 89t270 -89.5t178.5 -250t62.5 -368.5q0 -212 -62.5 -375.5t-178.5 -254t-270 -90.5t-269 90.5zM836.5 158q86.5 76 132 212.5t45.5 314.5q0 173 -46 307t-132 209t-204 75
q-117 0 -203 -74.5t-131 -208.5t-45 -307q0 -178 45 -315t131 -213t203 -76q118 0 204.5 76z" />
    <glyph glyph-name="one" unicode="1" horiz-adv-x="755" 
d="M539 1366v-1366h-121v1220l-368 -247v126l394 267h95z" />
    <glyph glyph-name="two" unicode="2" horiz-adv-x="1043" 
d="M938 115v-115h-829v104l456 465q83 85 130.5 153.5t68 130.5t20.5 131q0 86 -38 152t-109 102.5t-168 36.5q-116 0 -208.5 -47t-154.5 -124v136q75 73 168 113t217 40q127 0 222.5 -49.5t147 -139.5t51.5 -206q0 -126 -56 -237t-185 -240l-406 -406h673z" />
    <glyph glyph-name="three" unicode="3" horiz-adv-x="1079" 
d="M814 663.5q71 -50.5 108 -124.5t37 -160q0 -117 -57.5 -211t-165 -148.5t-250.5 -54.5q-212 0 -364 108v130q57 -57 147.5 -90t200.5 -33q111 0 193 37.5t126 106t44 159.5q0 77 -37 139.5t-118.5 100.5t-208.5 38h-255l19 103h236q111 0 183 35.5t105.5 95t33.5 133.5
q0 76 -38.5 132.5t-111 87t-172.5 30.5q-117 0 -201.5 -37.5t-136.5 -92.5v126q154 119 355 119q128 0 225.5 -44t150.5 -123t53 -181q0 -81 -33 -148t-94 -110.5t-143 -56.5q98 -16 169 -66.5z" />
    <glyph glyph-name="four" unicode="4" horiz-adv-x="1148" 
d="M1089 385h-236v-385h-119v385h-684v123l636 854h167v-873h236v-104zM734 489v758l-562 -758h562z" />
    <glyph glyph-name="five" unicode="5" horiz-adv-x="1115" 
d="M799.5 818.5q101.5 -57.5 156.5 -157t55 -221.5q0 -133 -63 -241.5t-177 -171t-261 -62.5q-105 0 -204 35.5t-166 97.5v131q64 -69 158 -107.5t198 -38.5q118 0 206 46.5t134.5 127t46.5 180.5q0 98 -44 174.5t-128 119t-200 42.5q-181 0 -350 -105v694h775v-115h-660
v-437q125 66 286 66q136 0 237.5 -57.5z" />
    <glyph glyph-name="six" unicode="6" horiz-adv-x="1201" 
d="M884 837.5q100 -57.5 156 -159.5t56 -231q0 -136 -61.5 -246t-171.5 -173t-250 -63q-139 0 -249.5 68t-175.5 213.5t-65 368.5q0 247 74 422.5t206 265.5t305 90q88 0 168 -26t147 -74v-135q-51 50 -135 84t-176 34q-142 0 -247 -73.5t-161.5 -215t-56.5 -339.5
q0 -35 1 -48q23 86 78.5 153t139 104.5t189.5 37.5q129 0 229 -57.5zM793 121.5q81 46.5 127.5 130t46.5 189.5q0 101 -44.5 181t-123.5 124.5t-179 44.5q-103 0 -184 -46.5t-126 -126.5t-45 -176q0 -101 45.5 -185t125 -133t177.5 -49q99 0 180 46.5z" />
    <glyph glyph-name="seven" unicode="7" horiz-adv-x="990" 
d="M955 1362v-111l-679 -1251h-143l694 1252h-757v110h885z" />
    <glyph glyph-name="eight" unicode="8" horiz-adv-x="1169" 
d="M968 581.5q77 -93.5 77 -220.5q0 -110 -58 -200.5t-163 -143t-239 -52.5q-135 0 -240 52.5t-163.5 143t-58.5 200.5q0 127 77.5 220.5t211.5 132.5q-120 36 -189 120t-69 196q0 100 54.5 183t153 131.5t223.5 48.5t222.5 -48.5t152 -131.5t54.5 -183q0 -112 -69 -196
t-188 -120q134 -39 211 -132.5zM318.5 887q37.5 -61 106.5 -97t159 -36q89 0 158 36t107.5 97.5t38.5 134.5q0 74 -37 133t-106 92.5t-161 33.5t-160.5 -33.5t-105.5 -92t-37 -133.5q0 -74 37.5 -135zM759.5 117q76.5 40 118 108t41.5 149q0 80 -41 146.5t-117 105
t-176 38.5q-101 0 -177.5 -38.5t-117.5 -105t-41 -146.5q0 -81 41.5 -148.5t117.5 -108t176 -40.5q99 0 175.5 40z" />
    <glyph glyph-name="nine" unicode="9" horiz-adv-x="1184" 
d="M824.5 1326q108.5 -67 172 -211t63.5 -366q0 -255 -71.5 -431t-199 -264.5t-294.5 -88.5q-94 0 -174.5 28.5t-151.5 89.5v134q58 -64 139 -99t177 -35q216 0 335 173t119 526v13q-45 -143 -148 -220.5t-247 -77.5q-129 0 -228.5 55.5t-155 155t-55.5 225.5q0 129 60 234
t167.5 165.5t245.5 60.5t246.5 -67zM749 647.5q79 44.5 123.5 120.5t44.5 167q0 96 -45 175t-124 125t-174 46q-96 0 -173.5 -44.5t-122 -123t-44.5 -177.5q0 -97 43 -173t119.5 -118t174.5 -42q99 0 178 44.5z" />
    <glyph glyph-name="uni2776" unicode="&#x2776;" horiz-adv-x="1459" 
d="M1047.5 51.5q139.5 92.5 217.5 256t78 369.5t-78 369t-217.5 255t-318.5 92q-178 0 -317.5 -92t-217 -255t-77.5 -369t77.5 -369.5t217 -256t317.5 -92.5q179 0 318.5 92.5zM717 947l-206 -136v102l228 154h78v-782h-100v662z" />
    <glyph glyph-name="uni2777" unicode="&#x2777;" horiz-adv-x="1459" 
d="M1047.5 51.5q139.5 92.5 217.5 256t78 369.5t-78 369t-217.5 255t-318.5 92q-178 0 -317.5 -92t-217 -255t-77.5 -369t77.5 -369.5t217 -256t317.5 -92.5q179 0 318.5 92.5zM490 371l246 256q65 67 92.5 118.5t27.5 105.5q0 67 -42 107.5t-112 40.5q-58 0 -114 -28
t-100 -76v102q101 93 224 93q73 0 128.5 -29t86 -81.5t30.5 -120.5t-33.5 -131t-107.5 -140l-196 -204h353v-91h-483v78z" />
    <glyph glyph-name="uni2778" unicode="&#x2778;" horiz-adv-x="1459" 
d="M1047.5 51.5q139.5 92.5 217.5 256t78 369.5t-78 369t-217.5 255t-318.5 92q-178 0 -317.5 -92t-217 -255t-77.5 -369t77.5 -369.5t217 -256t317.5 -92.5q179 0 318.5 92.5zM507 326v94q36 -31 91.5 -50t115.5 -19q83 0 131.5 43t48.5 114q0 65 -48 104t-140 39h-150
l15 81h142q77 0 116 37t39 99q0 61 -43 95.5t-123 34.5q-61 0 -110.5 -22.5t-78.5 -55.5v97q91 70 210 70q72 0 127.5 -25.5t86 -71.5t30.5 -107q0 -70 -38 -116.5t-100 -59.5q77 -15 121 -69t44 -133q0 -68 -34 -124t-96 -88t-142 -32q-127 0 -215 65z" />
    <glyph glyph-name="uni2779" unicode="&#x2779;" horiz-adv-x="1459" 
d="M1047.5 51.5q139.5 92.5 217.5 256t78 369.5t-78 369t-217.5 255t-318.5 92q-178 0 -317.5 -92t-217 -255t-77.5 -369t77.5 -369.5t217 -256t317.5 -92.5q179 0 318.5 92.5zM777 497h-377v86l347 482h125v-484h125v-84h-125v-212h-95v212zM777 581v379l-274 -379h274z
" />
    <glyph glyph-name="uni277A" unicode="&#x277a;" horiz-adv-x="1459" 
d="M1047.5 51.5q139.5 92.5 217.5 256t78 369.5t-78 369t-217.5 255t-318.5 92q-178 0 -317.5 -92t-217 -255t-77.5 -369t77.5 -369.5t217 -256t317.5 -92.5q179 0 318.5 92.5zM600 276.5q-59 22.5 -97 58.5v102q35 -41 91.5 -67t116.5 -26q89 0 142 52t53 136
q0 78 -50 125.5t-135 47.5q-59 0 -108.5 -19t-96.5 -52v431h449v-91h-358v-230q63 38 148 38q72 0 130 -32t90.5 -88.5t32.5 -128.5q0 -78 -37 -142t-102.5 -100.5t-148.5 -36.5q-61 0 -120 22.5z" />
    <glyph glyph-name="uni277B" unicode="&#x277b;" horiz-adv-x="1459" 
d="M1047.5 51.5q139.5 92.5 217.5 256t78 369.5t-78 369t-217.5 255t-318.5 92q-178 0 -317.5 -92t-217 -255t-77.5 -369t77.5 -369.5t217 -256t317.5 -92.5q179 0 318.5 92.5zM578.5 303q-63.5 42 -99 127t-35.5 208q0 141 41.5 242t117 154t175.5 53q51 0 98 -15t85 -44
v-102q-34 33 -82.5 52.5t-99.5 19.5q-111 0 -173 -91t-65 -255q24 68 79.5 108t133.5 40q71 0 127.5 -33t88 -91t31.5 -131q0 -81 -35.5 -145.5t-98.5 -101.5t-142 -37q-83 0 -146.5 42zM815.5 372q40.5 25 63 69.5t22.5 100.5q0 50 -22 91t-61.5 64t-88.5 23q-51 0 -91 -24
t-62.5 -65t-22.5 -89q0 -53 22.5 -98t62 -71t87.5 -26q50 0 90.5 25z" />
    <glyph glyph-name="uni277C" unicode="&#x277c;" horiz-adv-x="1459" 
d="M1047.5 51.5q139.5 92.5 217.5 256t78 369.5t-78 369t-217.5 255t-318.5 92q-178 0 -317.5 -92t-217 -255t-77.5 -369t77.5 -369.5t217 -256t317.5 -92.5q179 0 318.5 92.5zM897 978h-409v87h514v-82l-374 -698h-112z" />
    <glyph glyph-name="uni277D" unicode="&#x277d;" horiz-adv-x="1459" 
d="M1047.5 51.5q139.5 92.5 217.5 256t78 369.5t-78 369t-217.5 255t-318.5 92q-178 0 -317.5 -92t-217 -255t-77.5 -369t77.5 -369.5t217 -256t317.5 -92.5q179 0 318.5 92.5zM593.5 291.5q-61.5 30.5 -96 84.5t-34.5 121q0 69 43.5 121t117.5 73q-68 19 -108 66.5
t-40 111.5q0 61 33.5 111t92 78.5t130.5 28.5q71 0 129 -28.5t91 -78.5t33 -111q0 -64 -39.5 -111.5t-106.5 -66.5q73 -21 117 -73.5t44 -120.5q0 -66 -34.5 -120t-96 -85t-137.5 -31q-77 0 -138.5 30.5zM810 741q35 19 54.5 51.5t19.5 72.5q0 60 -41.5 97.5t-110.5 37.5
q-70 0 -112 -37.5t-42 -97.5q0 -40 20 -72.5t55 -51.5t79 -19q43 0 78 19zM818.5 368.5q37.5 20.5 58.5 55.5t21 79q0 68 -46 110t-120 42q-75 0 -121 -42t-46 -110q0 -44 21 -79.5t59 -55.5t87 -20t86.5 20.5z" />
    <glyph glyph-name="uni277E" unicode="&#x277e;" horiz-adv-x="1459" 
d="M1047.5 51.5q139.5 92.5 217.5 256t78 369.5t-78 369t-217.5 255t-318.5 92q-178 0 -317.5 -92t-217 -255t-77.5 -369t77.5 -369.5t217 -256t317.5 -92.5q179 0 318.5 92.5zM499 333v102q70 -82 185 -82q108 0 166.5 87t63.5 256q-25 -59 -78 -92t-125 -33t-129 30.5
t-89.5 86.5t-32.5 128q0 77 35.5 139t98 97t141.5 35q134 0 207 -95t73 -271q0 -146 -38 -249t-111 -157t-176 -54q-113 0 -191 72zM820.5 670.5q39.5 22.5 62 61.5t22.5 86q0 50 -22.5 91.5t-61.5 66t-87 24.5t-87 -23.5t-61 -64.5t-22 -93q0 -75 46.5 -123t121.5 -48
q49 0 88.5 22.5z" />
    <glyph glyph-name="uni277F" unicode="&#x277f;" horiz-adv-x="1459" 
d="M1047.5 51.5q139.5 92.5 217.5 256t78 369.5t-78 369t-217.5 255t-318.5 92q-178 0 -317.5 -92t-217 -255t-77.5 -369t77.5 -369.5t217 -256t317.5 -92.5q179 0 318.5 92.5zM720 366.5q-59 106.5 -59 317.5q0 201 59.5 304.5t168.5 103.5q110 0 171.5 -104t61.5 -306
q0 -209 -61 -315.5t-172 -106.5q-110 0 -169 106.5zM449 952l-141 -107v95l163 127h70v-782h-92v667zM992.5 434q35.5 82 35.5 248q0 317 -139 317q-68 0 -101 -76.5t-33 -238.5q0 -171 33 -251.5t101 -80.5t103.5 82z" />
    <glyph glyph-name="uni2460" unicode="&#x2460;" horiz-adv-x="1459" 
d="M411.5 51.5q-139.5 92.5 -217 256t-77.5 369.5t77.5 369t217 255t317.5 92q179 0 318.5 -92t217.5 -255t78 -369t-78 -369.5t-217.5 -256t-318.5 -92.5q-178 0 -317.5 92.5zM1011.5 111q122.5 82 190 229.5t67.5 336.5q0 188 -67.5 334.5t-190 229t-282.5 82.5
q-158 0 -280.5 -82.5t-190.5 -229.5t-68 -334q0 -189 68 -336t190.5 -229.5t280.5 -82.5q160 0 282.5 82zM717 947l-206 -136v102l228 154h78v-782h-100v662z" />
    <glyph glyph-name="uni2461" unicode="&#x2461;" horiz-adv-x="1459" 
d="M411.5 51.5q-139.5 92.5 -217 256t-77.5 369.5t77.5 369t217 255t317.5 92q179 0 318.5 -92t217.5 -255t78 -369t-78 -369.5t-217.5 -256t-318.5 -92.5q-178 0 -317.5 92.5zM1011.5 111q122.5 82 190 229.5t67.5 336.5q0 188 -67.5 334.5t-190 229t-282.5 82.5
q-158 0 -280.5 -82.5t-190.5 -229.5t-68 -334q0 -189 68 -336t190.5 -229.5t280.5 -82.5q160 0 282.5 82zM490 371l246 256q65 67 92.5 118.5t27.5 105.5q0 67 -42 107.5t-112 40.5q-58 0 -114 -28t-100 -76v102q101 93 224 93q73 0 128.5 -29t86 -81.5t30.5 -120.5
t-33.5 -131t-107.5 -140l-196 -204h353v-91h-483v78z" />
    <glyph glyph-name="uni2462" unicode="&#x2462;" horiz-adv-x="1459" 
d="M411.5 51.5q-139.5 92.5 -217 256t-77.5 369.5t77.5 369t217 255t317.5 92q179 0 318.5 -92t217.5 -255t78 -369t-78 -369.5t-217.5 -256t-318.5 -92.5q-178 0 -317.5 92.5zM1011.5 111q122.5 82 190 229.5t67.5 336.5q0 188 -67.5 334.5t-190 229t-282.5 82.5
q-158 0 -280.5 -82.5t-190.5 -229.5t-68 -334q0 -189 68 -336t190.5 -229.5t280.5 -82.5q160 0 282.5 82zM507 326v94q36 -31 91.5 -50t115.5 -19q83 0 131.5 43t48.5 114q0 65 -48 104t-140 39h-150l15 81h142q77 0 116 37t39 99q0 61 -43 95.5t-123 34.5
q-61 0 -110.5 -22.5t-78.5 -55.5v97q91 70 210 70q72 0 127.5 -25.5t86 -71.5t30.5 -107q0 -70 -38 -116.5t-100 -59.5q77 -15 121 -69t44 -133q0 -68 -34 -124t-96 -88t-142 -32q-127 0 -215 65z" />
    <glyph glyph-name="uni2463" unicode="&#x2463;" horiz-adv-x="1459" 
d="M411.5 51.5q-139.5 92.5 -217 256t-77.5 369.5t77.5 369t217 255t317.5 92q179 0 318.5 -92t217.5 -255t78 -369t-78 -369.5t-217.5 -256t-318.5 -92.5q-178 0 -317.5 92.5zM1011.5 111q122.5 82 190 229.5t67.5 336.5q0 188 -67.5 334.5t-190 229t-282.5 82.5
q-158 0 -280.5 -82.5t-190.5 -229.5t-68 -334q0 -189 68 -336t190.5 -229.5t280.5 -82.5q160 0 282.5 82zM777 497h-377v86l347 482h125v-484h125v-84h-125v-212h-95v212zM777 581v379l-274 -379h274z" />
    <glyph glyph-name="uni2464" unicode="&#x2464;" horiz-adv-x="1459" 
d="M411.5 51.5q-139.5 92.5 -217 256t-77.5 369.5t77.5 369t217 255t317.5 92q179 0 318.5 -92t217.5 -255t78 -369t-78 -369.5t-217.5 -256t-318.5 -92.5q-178 0 -317.5 92.5zM1011.5 111q122.5 82 190 229.5t67.5 336.5q0 188 -67.5 334.5t-190 229t-282.5 82.5
q-158 0 -280.5 -82.5t-190.5 -229.5t-68 -334q0 -189 68 -336t190.5 -229.5t280.5 -82.5q160 0 282.5 82zM600 276.5q-59 22.5 -97 58.5v102q35 -41 91.5 -67t116.5 -26q89 0 142 52t53 136q0 78 -50 125.5t-135 47.5q-59 0 -108.5 -19t-96.5 -52v431h449v-91h-358v-230
q63 38 148 38q72 0 130 -32t90.5 -88.5t32.5 -128.5q0 -78 -37 -142t-102.5 -100.5t-148.5 -36.5q-61 0 -120 22.5z" />
    <glyph glyph-name="uni2465" unicode="&#x2465;" horiz-adv-x="1459" 
d="M411.5 51.5q-139.5 92.5 -217 256t-77.5 369.5t77.5 369t217 255t317.5 92q179 0 318.5 -92t217.5 -255t78 -369t-78 -369.5t-217.5 -256t-318.5 -92.5q-178 0 -317.5 92.5zM1011.5 111q122.5 82 190 229.5t67.5 336.5q0 188 -67.5 334.5t-190 229t-282.5 82.5
q-158 0 -280.5 -82.5t-190.5 -229.5t-68 -334q0 -189 68 -336t190.5 -229.5t280.5 -82.5q160 0 282.5 82zM578.5 303q-63.5 42 -99 127t-35.5 208q0 141 41.5 242t117 154t175.5 53q51 0 98 -15t85 -44v-102q-34 33 -82.5 52.5t-99.5 19.5q-111 0 -173 -91t-65 -255
q24 68 79.5 108t133.5 40q71 0 127.5 -33t88 -91t31.5 -131q0 -81 -35.5 -145.5t-98.5 -101.5t-142 -37q-83 0 -146.5 42zM815.5 372q40.5 25 63 69.5t22.5 100.5q0 50 -22 91t-61.5 64t-88.5 23q-51 0 -91 -24t-62.5 -65t-22.5 -89q0 -53 22.5 -98t62 -71t87.5 -26
q50 0 90.5 25z" />
    <glyph glyph-name="uni2466" unicode="&#x2466;" horiz-adv-x="1459" 
d="M411.5 51.5q-139.5 92.5 -217 256t-77.5 369.5t77.5 369t217 255t317.5 92q179 0 318.5 -92t217.5 -255t78 -369t-78 -369.5t-217.5 -256t-318.5 -92.5q-178 0 -317.5 92.5zM1011.5 111q122.5 82 190 229.5t67.5 336.5q0 188 -67.5 334.5t-190 229t-282.5 82.5
q-158 0 -280.5 -82.5t-190.5 -229.5t-68 -334q0 -189 68 -336t190.5 -229.5t280.5 -82.5q160 0 282.5 82zM897 978h-409v87h514v-82l-374 -698h-112z" />
    <glyph glyph-name="uni2467" unicode="&#x2467;" horiz-adv-x="1459" 
d="M411.5 51.5q-139.5 92.5 -217 256t-77.5 369.5t77.5 369t217 255t317.5 92q179 0 318.5 -92t217.5 -255t78 -369t-78 -369.5t-217.5 -256t-318.5 -92.5q-178 0 -317.5 92.5zM1011.5 111q122.5 82 190 229.5t67.5 336.5q0 188 -67.5 334.5t-190 229t-282.5 82.5
q-158 0 -280.5 -82.5t-190.5 -229.5t-68 -334q0 -189 68 -336t190.5 -229.5t280.5 -82.5q160 0 282.5 82zM593.5 291.5q-61.5 30.5 -96 84.5t-34.5 121q0 69 43.5 121t117.5 73q-68 19 -108 66.5t-40 111.5q0 61 33.5 111t92 78.5t130.5 28.5q71 0 129 -28.5t91 -78.5
t33 -111q0 -64 -39.5 -111.5t-106.5 -66.5q73 -21 117 -73.5t44 -120.5q0 -66 -34.5 -120t-96 -85t-137.5 -31q-77 0 -138.5 30.5zM810 741q35 19 54.5 51.5t19.5 72.5q0 60 -41.5 97.5t-110.5 37.5q-70 0 -112 -37.5t-42 -97.5q0 -40 20 -72.5t55 -51.5t79 -19q43 0 78 19z
M818.5 368.5q37.5 20.5 58.5 55.5t21 79q0 68 -46 110t-120 42q-75 0 -121 -42t-46 -110q0 -44 21 -79.5t59 -55.5t87 -20t86.5 20.5z" />
    <glyph glyph-name="uni2468" unicode="&#x2468;" horiz-adv-x="1459" 
d="M411.5 51.5q-139.5 92.5 -217 256t-77.5 369.5t77.5 369t217 255t317.5 92q179 0 318.5 -92t217.5 -255t78 -369t-78 -369.5t-217.5 -256t-318.5 -92.5q-178 0 -317.5 92.5zM1011.5 111q122.5 82 190 229.5t67.5 336.5q0 188 -67.5 334.5t-190 229t-282.5 82.5
q-158 0 -280.5 -82.5t-190.5 -229.5t-68 -334q0 -189 68 -336t190.5 -229.5t280.5 -82.5q160 0 282.5 82zM499 333v102q70 -82 185 -82q108 0 166.5 87t63.5 256q-25 -59 -78 -92t-125 -33t-129 30.5t-89.5 86.5t-32.5 128q0 77 35.5 139t98 97t141.5 35q134 0 207 -95
t73 -271q0 -146 -38 -249t-111 -157t-176 -54q-113 0 -191 72zM820.5 670.5q39.5 22.5 62 61.5t22.5 86q0 50 -22.5 91.5t-61.5 66t-87 24.5t-87 -23.5t-61 -64.5t-22 -93q0 -75 46.5 -123t121.5 -48q49 0 88.5 22.5z" />
    <glyph glyph-name="uni2469" unicode="&#x2469;" horiz-adv-x="1459" 
d="M411.5 51.5q-139.5 92.5 -217 256t-77.5 369.5t77.5 369t217 255t317.5 92q179 0 318.5 -92t217.5 -255t78 -369t-78 -369.5t-217.5 -256t-318.5 -92.5q-178 0 -317.5 92.5zM1011.5 111q122.5 82 190 229.5t67.5 336.5q0 188 -67.5 334.5t-190 229t-282.5 82.5
q-158 0 -280.5 -82.5t-190.5 -229.5t-68 -334q0 -189 68 -336t190.5 -229.5t280.5 -82.5q160 0 282.5 82zM720 366.5q-59 106.5 -59 317.5q0 201 59.5 304.5t168.5 103.5q110 0 171.5 -104t61.5 -306q0 -209 -61 -315.5t-172 -106.5q-110 0 -169 106.5zM449 952l-141 -107
v95l163 127h70v-782h-92v667zM992.5 434q35.5 82 35.5 248q0 317 -139 317q-68 0 -101 -76.5t-33 -238.5q0 -171 33 -251.5t101 -80.5t103.5 82z" />
    <glyph glyph-name="zero.case" horiz-adv-x="1278" 
d="M365.5 59q-116.5 94 -179.5 263.5t-63 391.5q0 221 63 391t179.5 264.5t272.5 94.5t273 -95t180.5 -265t63.5 -391t-63.5 -390.5t-180.5 -263.5t-273 -94t-272.5 94zM845.5 161.5q87.5 79.5 134 222.5t46.5 329t-46.5 330t-134 224.5t-207.5 80.5q-119 0 -206 -80.5
t-133 -224t-46 -329.5q0 -187 46 -330t133 -222.5t206 -79.5q120 0 207.5 79.5z" />
    <glyph glyph-name="one.case" horiz-adv-x="770" 
d="M554 1442v-1442h-121v1296l-381 -247v125l407 268h95z" />
    <glyph glyph-name="two.case" horiz-adv-x="1051" 
d="M949 115v-115h-841v104l459 495q84 91 132 162t69 136t21 139q0 92 -38.5 162.5t-110.5 109.5t-170 39q-116 0 -210.5 -48.5t-155.5 -127.5v138q76 74 170 114.5t215 40.5q129 0 225.5 -52t149 -146t52.5 -216q0 -133 -56.5 -248t-187.5 -252l-412 -435h689z" />
    <glyph glyph-name="three.case" horiz-adv-x="1090" 
d="M822.5 696.5q72.5 -53.5 110 -133.5t37.5 -176q0 -116 -58.5 -212.5t-167 -153t-253.5 -56.5q-215 0 -370 110v130q58 -58 150 -91.5t204 -33.5q113 0 196.5 39.5t128 110.5t44.5 162q0 86 -40 155t-126 110t-216 41h-249l20 105h241q113 0 186.5 37.5t107.5 100
t34 140.5q0 81 -39.5 141.5t-113.5 93.5t-176 33q-119 0 -204.5 -38.5t-139.5 -94.5v127q78 61 167.5 91t194.5 30q130 0 228.5 -46t152.5 -129t54 -191q0 -85 -34 -155.5t-96.5 -116.5t-146.5 -60q101 -16 173.5 -69.5z" />
    <glyph glyph-name="four.case" horiz-adv-x="1167" 
d="M1106 425h-241v-425h-119v425h-691v124l642 893h168v-913h241v-104zM746 529v797l-570 -797h570z" />
    <glyph glyph-name="five.case" horiz-adv-x="1121" 
d="M807 855.5q104 -59.5 159.5 -162t55.5 -228.5q0 -139 -63.5 -253.5t-179 -180.5t-264.5 -66q-107 0 -208 34.5t-168 93.5v131q65 -66 160.5 -103.5t201.5 -37.5q120 0 209 50t136.5 136.5t47.5 193.5q0 102 -45 181t-130.5 123.5t-202.5 44.5q-184 0 -356 -108v730h787
v-115h-672v-472q131 68 291 68q137 0 241 -59.5z" />
    <glyph glyph-name="six.case" horiz-adv-x="1211" 
d="M893.5 867.5q101.5 -59.5 158 -164.5t56.5 -239q0 -140 -62 -254t-173.5 -179.5t-253.5 -65.5q-141 0 -253 71t-177.5 223t-65.5 385q0 261 74.5 446t208 280t308.5 95q90 0 172 -25.5t149 -73.5v-139q-51 52 -136.5 87t-180.5 35q-144 0 -250 -79t-163.5 -230
t-57.5 -363q0 -32 1 -44q25 83 81.5 149.5t141.5 105.5t191 39q130 0 231.5 -59.5zM802 124q82 49 129.5 136.5t47.5 197.5q0 106 -45 189.5t-125.5 130t-182.5 46.5q-105 0 -187.5 -48.5t-128 -132t-45.5 -183.5q0 -106 46.5 -194.5t127.5 -139.5t180 -51q101 0 183 49z
" />
    <glyph glyph-name="seven.case" horiz-adv-x="998" 
d="M958 1434v-112l-691 -1322h-143l707 1323h-770v111h897z" />
    <glyph glyph-name="eight.case" horiz-adv-x="1183" 
d="M980 612q78 -98 78 -231q0 -116 -59 -211t-165 -150t-242 -55q-137 0 -243.5 55t-165.5 150t-59 211q0 133 78.5 231t213.5 139q-122 39 -192 126.5t-70 205.5q0 105 55.5 192.5t155.5 138.5t227 51t226.5 -51t155 -138.5t55.5 -192.5q0 -118 -70.5 -205.5t-191.5 -126.5
q135 -41 213 -139zM318.5 932.5q38.5 -64.5 109.5 -102.5t163 -38t163 38t110 102.5t39 142.5q0 80 -38.5 143.5t-109 99.5t-164.5 36t-164.5 -36t-108.5 -99.5t-38 -143.5q0 -78 38.5 -142.5zM769.5 120q77.5 43 120 115.5t42.5 158.5q0 85 -41.5 155t-119 111t-179.5 41
q-103 0 -180.5 -41t-119.5 -111t-42 -155q0 -86 42 -158.5t119.5 -115.5t179.5 -43q101 0 178.5 43z" />
    <glyph glyph-name="nine.case" horiz-adv-x="1196" 
d="M833 1395.5q110 -68.5 174 -216t64 -374.5q0 -273 -72.5 -462t-201 -283.5t-297.5 -94.5q-96 0 -178 29.5t-154 90.5v135q59 -65 141.5 -101t180.5 -36q218 0 339 186t121 567q-44 -138 -150.5 -214t-250.5 -76q-131 0 -232 57t-157 159t-56 231q0 132 60.5 239.5
t169.5 169.5t249 62t250 -68.5zM756.5 699q80.5 46 126 124.5t45.5 171.5q0 99 -46 181t-126 129.5t-177 47.5q-98 0 -177 -46t-124 -127.5t-45 -183.5q0 -100 43.5 -178t121.5 -121.5t177 -43.5q101 0 181.5 46z" />
    <glyph glyph-name="zero.case_zero" horiz-adv-x="1278" 
d="M911 1369q117 -95 180.5 -265t63.5 -391t-63.5 -390.5t-180.5 -263.5t-273 -94t-272.5 94t-179.5 263.5t-63 391.5q0 221 63 391t179.5 264.5t272.5 94.5t273 -95zM432 1267.5q-87 -80.5 -133 -224t-46 -329.5t45 -326l640 755q-50 98 -126.5 151.5t-173.5 53.5
q-119 0 -206 -80.5zM845.5 161.5q87.5 79.5 134 222.5t46.5 329q0 189 -47 333l-641 -757q50 -99 126.5 -153t173.5 -54q120 0 207.5 79.5z" />
    <glyph glyph-name="zero.onum" horiz-adv-x="1266" 
d="M360.5 45.5q-119.5 76.5 -187 213t-67.5 310.5q0 164 67.5 296t187 207t270.5 75t271.5 -75.5t188.5 -208t68 -296.5q0 -173 -68 -309t-188 -212.5t-272 -76.5q-151 0 -270.5 76.5zM840.5 146q90.5 61 140 170.5t49.5 250.5q0 134 -49.5 239.5t-140.5 165t-209 59.5
t-208 -59t-138.5 -164t-48.5 -239q0 -142 48.5 -251.5t138 -171t208.5 -61.5t209.5 61z" />
    <glyph glyph-name="one.onum" horiz-adv-x="737" 
d="M548 1120v-1120h-122v978l-368 -221v120l395 243h95z" />
    <glyph glyph-name="two.onum" horiz-adv-x="1016" 
d="M923 115v-115h-817v103l419 323q124 95 180.5 174.5t56.5 170.5q0 121 -77 191t-221 70q-114 0 -205 -47t-155 -123v135q78 70 169.5 110t209.5 40q124 0 215 -47t139.5 -129.5t48.5 -185.5q0 -117 -63.5 -212.5t-205.5 -203.5l-332 -254h638z" />
    <glyph glyph-name="three.onum" horiz-adv-x="1042" 
d="M795 417.5q71 -50.5 108 -124.5t37 -160q0 -117 -57.5 -211t-165 -148.5t-250.5 -54.5q-212 0 -364 108v130q57 -57 147.5 -90t200.5 -33q111 0 193 37.5t126 106t44 159.5q0 77 -37 139.5t-118.5 100.5t-208.5 38h-255l19 103h236q111 0 183 35.5t105.5 95t33.5 133.5
q0 76 -38.5 132.5t-111 87t-172.5 30.5q-117 0 -201.5 -37.5t-136.5 -92.5v126q154 119 355 119q128 0 225.5 -44t150.5 -123t53 -181q0 -81 -33 -148t-94 -110.5t-143 -56.5q98 -16 169 -66.5z" />
    <glyph glyph-name="four.onum" horiz-adv-x="1155" 
d="M1096 143h-235v-385h-119v385h-685v124l636 861h168v-880h235v-105zM742 248v766l-562 -766h562z" />
    <glyph glyph-name="five.onum" horiz-adv-x="1075" 
d="M780 572.5q102 -57.5 157 -157t55 -221.5q0 -131 -62 -238.5t-174 -169.5t-257 -62q-105 -4 -206.5 32.5t-171.5 99.5v131q66 -70 162.5 -109.5t201.5 -36.5q116 0 201.5 46t131 125.5t45.5 178.5q0 98 -44 174.5t-128 119.5t-199 43q-178 0 -350 -105v693h774v-115h-659
v-436q127 65 285 65q136 0 238 -57.5z" />
    <glyph glyph-name="six.onum" horiz-adv-x="1187" 
d="M878 837.5q100 -57.5 156 -159.5t56 -231q0 -136 -61.5 -246t-171.5 -173t-250 -63q-139 0 -249.5 68t-175.5 213.5t-65 368.5q0 247 74 422.5t206 265.5t305 90q88 0 168 -26t147 -74v-135q-51 50 -135 84t-176 34q-142 0 -247 -73.5t-161.5 -215t-56.5 -339.5
q0 -35 1 -48q23 86 78.5 153t139 104.5t189.5 37.5q129 0 229 -57.5zM787 121.5q81 46.5 127.5 130t46.5 189.5q0 101 -44.5 181t-123.5 124.5t-179 44.5q-103 0 -184 -46.5t-126 -126.5t-45 -176q0 -101 45.5 -185t125 -133t177.5 -49q99 0 180 46.5z" />
    <glyph glyph-name="seven.onum" horiz-adv-x="967" 
d="M933 1116v-111l-679 -1251h-143l694 1252h-757v110h885z" />
    <glyph glyph-name="eight.onum" horiz-adv-x="1169" 
d="M968 581.5q77 -93.5 77 -220.5q0 -110 -58 -200.5t-163 -143t-239 -52.5q-135 0 -240 52.5t-163.5 143t-58.5 200.5q0 127 77.5 220.5t211.5 132.5q-120 36 -189 120t-69 196q0 100 54.5 183t153 131.5t223.5 48.5t222.5 -48.5t152 -131.5t54.5 -183q0 -112 -69 -196
t-188 -120q134 -39 211 -132.5zM318.5 887q37.5 -61 106.5 -97t159 -36q89 0 158 36t107.5 97.5t38.5 134.5q0 74 -37 133t-106 92.5t-161 33.5t-160.5 -33.5t-105.5 -92t-37 -133.5q0 -74 37.5 -135zM759.5 117q76.5 40 118 108t41.5 149q0 80 -41 146.5t-117 105
t-176 38.5q-101 0 -177.5 -38.5t-117.5 -105t-41 -146.5q0 -81 41.5 -148.5t117.5 -108t176 -40.5q99 0 175.5 40z" />
    <glyph glyph-name="nine.onum" horiz-adv-x="1156" 
d="M811.5 1082q108.5 -67 172 -211t63.5 -366q0 -253 -73 -428.5t-203 -263t-301 -87.5q-94 0 -174.5 28.5t-151.5 88.5v134q58 -64 139 -99t177 -35q221 0 343.5 172t122.5 524v14q-45 -143 -147.5 -220t-247.5 -77q-129 0 -228.5 55.5t-154.5 154t-55 223.5
q0 129 59.5 234t167 165.5t245.5 60.5t246.5 -67zM736 403.5q79 44.5 123.5 120.5t44.5 167q0 96 -45 175.5t-123.5 125.5t-173.5 46q-96 0 -174 -44.5t-122.5 -123.5t-44.5 -178q0 -97 43 -172.5t120 -118t174 -42.5q99 0 178 44.5z" />
    <glyph glyph-name="zero.onum_zero" horiz-adv-x="1266" 
d="M902.5 1071.5q120.5 -75.5 188.5 -208t68 -296.5q0 -173 -68 -309t-188 -212.5t-272 -76.5q-151 0 -270.5 76.5t-187 213t-67.5 310.5q0 164 67.5 296t187 207t270.5 75t271.5 -75.5zM423 972q-90 -59 -138.5 -164t-48.5 -239q0 -88 19.5 -164.5t55.5 -137.5l585 660
q-52 50 -119 77t-146 27q-118 0 -208 -59zM840.5 146q90.5 61 140 170.5t49.5 250.5q0 81 -19 153.5t-55 131.5l-587 -661q51 -52 117 -79t145 -27q119 0 209.5 61z" />
    <glyph glyph-name="zero.tnum" 
d="M370.5 53q-112.5 88 -173 251t-60.5 382q0 213 60.5 373t173 247t263.5 87t264 -87t174 -247.5t61 -373.5q0 -218 -61 -381t-173.5 -251t-264.5 -88q-151 0 -263.5 88zM832 155.5q83 73.5 127 210t44 319.5q0 179 -44 312.5t-127.5 206t-197.5 72.5t-197 -72.5
t-126.5 -205.5t-43.5 -312q0 -184 43.5 -320.5t126 -210t197.5 -73.5t198 73.5z" />
    <glyph glyph-name="one.tnum" 
d="M1118 113v-113h-893v113h388v1108l-358 -235v126l384 254h95v-1253h384z" />
    <glyph glyph-name="two.tnum" 
d="M1052 115v-115h-829v104l456 465q83 85 130.5 153.5t68 130.5t20.5 131q0 86 -38 152t-109 102.5t-168 36.5q-116 0 -208.5 -47t-154.5 -124v136q75 73 168 113t217 40q127 0 222.5 -49.5t147 -139.5t51.5 -206q0 -126 -56 -237t-185 -240l-406 -406h673z" />
    <glyph glyph-name="three.tnum" 
d="M910 663.5q71 -50.5 108 -124.5t37 -160q0 -117 -57.5 -211t-165 -148.5t-250.5 -54.5q-212 0 -364 108v130q57 -57 147.5 -90t200.5 -33q111 0 193 37.5t126 106t44 159.5q0 77 -37 139.5t-118.5 100.5t-208.5 38h-255l19 103h236q111 0 183 35.5t105.5 95t33.5 133.5
q0 76 -38.5 132.5t-111 87t-172.5 30.5q-117 0 -201.5 -37.5t-136.5 -92.5v126q154 119 355 119q128 0 225.5 -44t150.5 -123t53 -181q0 -81 -33 -148t-94 -110.5t-143 -56.5q98 -16 169 -66.5z" />
    <glyph glyph-name="four.tnum" 
d="M1150 385h-236v-385h-119v385h-684v123l636 854h167v-873h236v-104zM795 489v758l-562 -758h562z" />
    <glyph glyph-name="five.tnum" 
d="M877.5 818.5q101.5 -57.5 156.5 -157t55 -221.5q0 -133 -63 -241.5t-177 -171t-261 -62.5q-105 0 -204 35.5t-166 97.5v131q64 -69 158 -107.5t198 -38.5q118 0 206 46.5t134.5 127t46.5 180.5q0 98 -44 174.5t-128 119t-200 42.5q-181 0 -350 -105v694h775v-115h-660
v-437q125 66 286 66q136 0 237.5 -57.5z" />
    <glyph glyph-name="six.tnum" 
d="M918 837.5q100 -57.5 156 -159.5t56 -231q0 -136 -61.5 -246t-171.5 -173t-250 -63q-139 0 -249.5 68t-175.5 213.5t-65 368.5q0 247 74 422.5t206 265.5t305 90q88 0 168 -26t147 -74v-135q-51 50 -135 84t-176 34q-142 0 -247 -73.5t-161.5 -215t-56.5 -339.5
q0 -35 1 -48q23 86 78.5 153t139 104.5t189.5 37.5q129 0 229 -57.5zM827 121.5q81 46.5 127.5 130t46.5 189.5q0 101 -44.5 181t-123.5 124.5t-179 44.5q-103 0 -184 -46.5t-126 -126.5t-45 -176q0 -101 45.5 -185t125 -133t177.5 -49q99 0 180 46.5z" />
    <glyph glyph-name="seven.tnum" 
d="M1090 1362v-111l-679 -1251h-143l694 1252h-757v110h885z" />
    <glyph glyph-name="eight.tnum" 
d="M1019 581.5q77 -93.5 77 -220.5q0 -110 -58 -200.5t-163 -143t-239 -52.5q-135 0 -240 52.5t-163.5 143t-58.5 200.5q0 127 77.5 220.5t211.5 132.5q-120 36 -189 120t-69 196q0 100 54.5 183t153 131.5t223.5 48.5t222.5 -48.5t152 -131.5t54.5 -183q0 -112 -69 -196
t-188 -120q134 -39 211 -132.5zM369.5 887q37.5 -61 106.5 -97t159 -36q89 0 158 36t107.5 97.5t38.5 134.5q0 74 -37 133t-106 92.5t-161 33.5t-160.5 -33.5t-105.5 -92t-37 -133.5q0 -74 37.5 -135zM810.5 117q76.5 40 118 108t41.5 149q0 80 -41 146.5t-117 105
t-176 38.5q-101 0 -177.5 -38.5t-117.5 -105t-41 -146.5q0 -81 41.5 -148.5t117.5 -108t176 -40.5q99 0 175.5 40z" />
    <glyph glyph-name="nine.tnum" 
d="M867.5 1326q108.5 -67 172 -211t63.5 -366q0 -255 -71.5 -431t-199 -264.5t-294.5 -88.5q-94 0 -174.5 28.5t-151.5 89.5v134q58 -64 139 -99t177 -35q216 0 335 173t119 526v13q-45 -143 -148 -220.5t-247 -77.5q-129 0 -228.5 55.5t-155 155t-55.5 225.5q0 129 60 234
t167.5 165.5t245.5 60.5t246.5 -67zM792 647.5q79 44.5 123.5 120.5t44.5 167q0 96 -45 175t-124 125t-174 46q-96 0 -173.5 -44.5t-122 -123t-44.5 -177.5q0 -97 43 -173t119.5 -118t174.5 -42q99 0 178 44.5z" />
    <glyph glyph-name="zero.tnum_zero" 
d="M898 1306q113 -87 174 -247.5t61 -373.5q0 -218 -61 -381t-173.5 -251t-264.5 -88q-151 0 -263.5 88t-173 251t-60.5 382q0 213 60.5 373t173 247t263.5 87t264 -87zM437 1203.5q-83 -72.5 -126.5 -205.5t-43.5 -312t41 -313l610 719q-48 89 -120 136.5t-164 47.5
q-114 0 -197 -72.5zM832 155.5q83 73.5 127 210t44 319.5q0 176 -43 310l-612 -721q48 -93 120.5 -142.5t165.5 -49.5q115 0 198 73.5z" />
    <glyph glyph-name="zero.tnum_onum" 
d="M366 45.5q-118 76.5 -184.5 213t-66.5 310.5q0 164 66.5 296t184.5 207t267 75q150 0 269 -75.5t186 -208t67 -296.5q0 -173 -67 -309t-186 -212.5t-269 -76.5q-149 0 -267 76.5zM839.5 146q89.5 61 138 170.5t48.5 250.5q0 134 -49 239.5t-138 165t-206 59.5t-205 -59
t-136 -164t-48 -239q0 -142 48 -251.5t136 -171t205 -61.5t206.5 61z" />
    <glyph glyph-name="one.tnum_onum" 
d="M1108 113v-113h-893v113h387v863l-345 -207v123l371 228h95v-1007h385z" />
    <glyph glyph-name="two.tnum_onum" 
d="M1050 115v-115h-817v103l419 323q124 95 180.5 174.5t56.5 170.5q0 121 -77 191t-221 70q-114 0 -205 -47t-155 -123v135q78 70 169.5 110t209.5 40q124 0 215 -47t139.5 -129.5t48.5 -185.5q0 -117 -63.5 -212.5t-205.5 -203.5l-332 -254h638z" />
    <glyph glyph-name="three.tnum_onum" 
d="M908 417.5q71 -50.5 108 -124.5t37 -160q0 -117 -57.5 -211t-165 -148.5t-250.5 -54.5q-212 0 -364 108v130q57 -57 147.5 -90t200.5 -33q111 0 193 37.5t126 106t44 159.5q0 77 -37 139.5t-118.5 100.5t-208.5 38h-255l19 103h236q111 0 183 35.5t105.5 95t33.5 133.5
q0 76 -38.5 132.5t-111 87t-172.5 30.5q-117 0 -201.5 -37.5t-136.5 -92.5v126q154 119 355 119q128 0 225.5 -44t150.5 -123t53 -181q0 -81 -33 -148t-94 -110.5t-143 -56.5q98 -16 169 -66.5z" />
    <glyph glyph-name="four.tnum_onum" 
d="M1153 143h-235v-385h-119v385h-685v124l636 861h168v-880h235v-105zM799 248v766l-562 -766h562z" />
    <glyph glyph-name="five.tnum_onum" 
d="M877 572.5q102 -57.5 157 -157t55 -221.5q0 -131 -62 -238.5t-174 -169.5t-257 -62q-105 -4 -206.5 32.5t-171.5 99.5v131q66 -70 162.5 -109.5t201.5 -36.5q116 0 201.5 46t131 125.5t45.5 178.5q0 98 -44 174.5t-128 119.5t-199 43q-178 0 -350 -105v693h774v-115h-659
v-436q127 65 285 65q136 0 238 -57.5z" />
    <glyph glyph-name="six.tnum_onum" 
d="M920 837.5q100 -57.5 156 -159.5t56 -231q0 -136 -61.5 -246t-171.5 -173t-250 -63q-139 0 -249.5 68t-175.5 213.5t-65 368.5q0 247 74 422.5t206 265.5t305 90q88 0 168 -26t147 -74v-135q-51 50 -135 84t-176 34q-142 0 -247 -73.5t-161.5 -215t-56.5 -339.5
q0 -35 1 -48q23 86 78.5 153t139 104.5t189.5 37.5q129 0 229 -57.5zM829 121.5q81 46.5 127.5 130t46.5 189.5q0 101 -44.5 181t-123.5 124.5t-179 44.5q-103 0 -184 -46.5t-126 -126.5t-45 -176q0 -101 45.5 -185t125 -133t177.5 -49q99 0 180 46.5z" />
    <glyph glyph-name="seven.tnum_onum" 
d="M1084 1116v-111l-679 -1251h-143l694 1252h-757v110h885z" />
    <glyph glyph-name="eight.tnum_onum" 
d="M1027 581.5q77 -93.5 77 -220.5q0 -110 -58 -200.5t-163 -143t-239 -52.5q-135 0 -240 52.5t-163.5 143t-58.5 200.5q0 127 77.5 220.5t211.5 132.5q-120 36 -189 120t-69 196q0 100 54.5 183t153 131.5t223.5 48.5t222.5 -48.5t152 -131.5t54.5 -183q0 -112 -69 -196
t-188 -120q134 -39 211 -132.5zM377.5 887q37.5 -61 106.5 -97t159 -36q89 0 158 36t107.5 97.5t38.5 134.5q0 74 -37 133t-106 92.5t-161 33.5t-160.5 -33.5t-105.5 -92t-37 -133.5q0 -74 37.5 -135zM818.5 117q76.5 40 118 108t41.5 149q0 80 -41 146.5t-117 105
t-176 38.5q-101 0 -177.5 -38.5t-117.5 -105t-41 -146.5q0 -81 41.5 -148.5t117.5 -108t176 -40.5q99 0 175.5 40z" />
    <glyph glyph-name="nine.tnum_onum" 
d="M868.5 1082q108.5 -67 172 -211t63.5 -366q0 -253 -73 -428.5t-203 -263t-301 -87.5q-94 0 -174.5 28.5t-151.5 88.5v134q58 -64 139 -99t177 -35q221 0 343.5 172t122.5 524v14q-45 -143 -147.5 -220t-247.5 -77q-129 0 -228.5 55.5t-154.5 154t-55 223.5
q0 129 59.5 234t167 165.5t245.5 60.5t246.5 -67zM793 403.5q79 44.5 123.5 120.5t44.5 167q0 96 -45 175.5t-123.5 125.5t-173.5 46q-96 0 -174 -44.5t-122.5 -123.5t-44.5 -178q0 -97 43 -172.5t120 -118t174 -42.5q99 0 178 44.5z" />
    <glyph glyph-name="zero.tnum_onum_zero" 
d="M902 1071.5q119 -75.5 186 -208t67 -296.5q0 -173 -67 -309t-186 -212.5t-269 -76.5q-149 0 -267 76.5t-184.5 213t-66.5 310.5q0 164 66.5 296t184.5 207t267 75q150 0 269 -75.5zM428 972q-88 -59 -136 -164t-48 -239q0 -177 73 -301l581 655q-51 52 -118.5 80
t-146.5 28q-117 0 -205 -59zM839.5 146q89.5 61 138 170.5t48.5 250.5q0 162 -70 280l-581 -656q50 -51 115.5 -78.5t142.5 -27.5q117 0 206.5 61z" />
    <glyph glyph-name="zero.zero" horiz-adv-x="1265" 
d="M902 1303.5q116 -89.5 178.5 -250t62.5 -368.5q0 -212 -62.5 -375.5t-178.5 -254t-270 -90.5t-269 90.5t-177.5 254t-62.5 376.5q0 208 62.5 368.5t177.5 249.5t269 89t270 -89.5zM429 1201.5q-86 -74.5 -131 -208.5t-45 -307q0 -185 48 -322l621 732q-50 86 -124 133
t-166 47q-117 0 -203 -74.5zM836.5 158q86.5 76 132 212.5t45.5 314.5q0 180 -49 316l-622 -733q50 -89 123 -137.5t166 -48.5q118 0 204.5 76z" />
    <glyph glyph-name="zero.subs" horiz-adv-x="856" 
d="M255 33.5q-74 58.5 -114 163.5t-40 243q0 131 40.5 231.5t114 156.5t171.5 56q99 0 173.5 -56t114.5 -157t40 -232q0 -137 -40 -242.5t-114 -163.5t-174 -58q-98 0 -172 58.5zM540.5 119q48.5 46 74.5 129t26 191q0 102 -26 181t-74.5 122.5t-113.5 43.5q-64 0 -112 -44
t-74 -122.5t-26 -179.5q0 -108 26 -191.5t74 -129.5t112 -46q65 0 113.5 46z" />
    <glyph glyph-name="one.subs" horiz-adv-x="556" 
d="M396 861v-861h-108v733l-227 -152v112l251 168h84z" />
    <glyph glyph-name="two.subs" horiz-adv-x="716" 
d="M625 108v-100h-531v85l270 281q72 75 101.5 131t29.5 117q0 74 -45.5 118t-123.5 44q-65 0 -126 -30.5t-108 -82.5v112q109 101 246 101q80 0 141 -32t94.5 -89.5t33.5 -132.5q0 -74 -36.5 -143.5t-118.5 -152.5l-220 -226h393z" />
    <glyph glyph-name="three.subs" horiz-adv-x="738" 
d="M593.5 386.5q45.5 -59.5 45.5 -142.5q0 -75 -37.5 -136.5t-106 -97t-156.5 -35.5q-141 0 -236 71v108q46 -39 106 -60t122 -21q90 0 143.5 47.5t53.5 126.5q0 72 -52.5 114.5t-154.5 42.5h-164l16 90h156q85 0 128.5 40.5t43.5 109.5q0 67 -48 104.5t-136 37.5
q-62 0 -116 -22.5t-92 -58.5v105q98 74 232 74q79 0 140 -28t95 -78.5t34 -117.5q0 -74 -39 -124.5t-102 -68.5q79 -21 124.5 -80.5z" />
    <glyph glyph-name="four.subs" horiz-adv-x="784" 
d="M716 235h-136v-235h-105v235h-415v95l382 529h138v-532h136v-92zM475 327v420l-300 -420h300z" />
    <glyph glyph-name="five.subs" horiz-adv-x="756" 
d="M533 514q63 -35 99 -98t36 -142q0 -86 -40.5 -156t-112.5 -110.5t-162 -40.5q-68 0 -133 24.5t-106 65.5v117q38 -50 99.5 -78.5t129.5 -28.5q64 0 112.5 26.5t74.5 73t26 106.5q0 87 -55 138t-149 51q-62 0 -113 -18t-112 -57v472h494v-99h-393v-250q72 39 162 39
q80 0 143 -35z" />
    <glyph glyph-name="six.subs" horiz-adv-x="809" 
d="M583 531.5q62 -36.5 97 -100t35 -143.5q0 -89 -39.5 -160.5t-108.5 -112t-156 -40.5q-92 0 -161.5 46.5t-108.5 139.5t-39 229q0 155 46 266.5t129 169.5t193 58q55 0 107 -16.5t96 -48.5v-115q-37 38 -90.5 60t-111.5 22q-81 0 -140 -46t-90.5 -131t-31.5 -199v-3
q26 74 87.5 117.5t147.5 43.5q77 0 139 -36.5zM510 97.5q44 27.5 69 76t25 110.5q0 56 -24.5 101t-67.5 70.5t-97 25.5q-56 0 -100.5 -26.5t-69 -71.5t-24.5 -99q0 -58 25 -107.5t68.5 -78t96.5 -28.5q55 0 99 27.5z" />
    <glyph glyph-name="seven.subs" horiz-adv-x="680" 
d="M632 859v-90l-411 -769h-124l420 764h-451v95h566z" />
    <glyph glyph-name="eight.subs" horiz-adv-x="796" 
d="M649.5 364.5q43.5 -56.5 43.5 -130.5q0 -73 -38 -132t-105 -93t-151 -34q-85 0 -152.5 33.5t-105.5 93t-38 132.5q0 74 44 130.5t121 83.5q-70 26 -110 77t-40 119q0 67 36.5 122t101 86.5t143.5 31.5t142.5 -31.5t100 -86.5t36.5 -122q0 -68 -39.5 -119t-108.5 -77
q76 -27 119.5 -83.5zM275.5 747q-45.5 -41 -45.5 -108q0 -45 21.5 -81t60 -56t87.5 -20q47 0 85 20.5t59.5 56.5t21.5 80q0 67 -45 108t-121 41q-78 0 -123.5 -41zM494.5 93.5q41.5 22.5 64 61.5t22.5 87q0 75 -50 121.5t-132 46.5t-133 -46.5t-51 -121.5q0 -48 23 -87
t65 -61.5t96 -22.5t95.5 22.5z" />
    <glyph glyph-name="nine.subs" horiz-adv-x="804" 
d="M619.5 779.5q80.5 -104.5 80.5 -297.5q0 -161 -42 -274.5t-122.5 -173t-193.5 -59.5q-126 0 -209 73v106q80 -77 203 -77q120 0 184.5 96.5t69.5 282.5q-26 -66 -85 -102.5t-140 -36.5q-79 0 -141.5 34t-98 95t-35.5 140q0 85 39 153t107.5 106.5t155.5 38.5
q147 0 227.5 -104.5zM486 426q44 25 68.5 67.5t24.5 94.5q0 55 -25 101t-68 72.5t-96 26.5t-95.5 -25.5t-67 -71t-24.5 -102.5q0 -54 23.5 -97t65.5 -67t96 -24t98 25z" />
    <glyph glyph-name="zero.dnom" horiz-adv-x="856" 
d="M255 33.5q-74 58.5 -114 163.5t-40 243q0 131 40.5 231.5t114 156.5t171.5 56q99 0 173.5 -56t114.5 -157t40 -232q0 -137 -40 -242.5t-114 -163.5t-174 -58q-98 0 -172 58.5zM540.5 119q48.5 46 74.5 129t26 191q0 102 -26 181t-74.5 122.5t-113.5 43.5q-64 0 -112 -44
t-74 -122.5t-26 -179.5q0 -108 26 -191.5t74 -129.5t112 -46q65 0 113.5 46z" />
    <glyph glyph-name="one.dnom" horiz-adv-x="556" 
d="M396 861v-861h-108v733l-227 -152v112l251 168h84z" />
    <glyph glyph-name="two.dnom" horiz-adv-x="716" 
d="M625 108v-100h-531v85l270 281q72 75 101.5 131t29.5 117q0 74 -45.5 118t-123.5 44q-65 0 -126 -30.5t-108 -82.5v112q109 101 246 101q80 0 141 -32t94.5 -89.5t33.5 -132.5q0 -74 -36.5 -143.5t-118.5 -152.5l-220 -226h393z" />
    <glyph glyph-name="three.dnom" horiz-adv-x="738" 
d="M593.5 386.5q45.5 -59.5 45.5 -142.5q0 -75 -37.5 -136.5t-106 -97t-156.5 -35.5q-141 0 -236 71v108q46 -39 106 -60t122 -21q90 0 143.5 47.5t53.5 126.5q0 72 -52.5 114.5t-154.5 42.5h-164l16 90h156q85 0 128.5 40.5t43.5 109.5q0 67 -48 104.5t-136 37.5
q-62 0 -116 -22.5t-92 -58.5v105q98 74 232 74q79 0 140 -28t95 -78.5t34 -117.5q0 -74 -39 -124.5t-102 -68.5q79 -21 124.5 -80.5z" />
    <glyph glyph-name="four.dnom" horiz-adv-x="784" 
d="M716 235h-136v-235h-105v235h-415v95l382 529h138v-532h136v-92zM475 327v420l-300 -420h300z" />
    <glyph glyph-name="five.dnom" horiz-adv-x="756" 
d="M533 514q63 -35 99 -98t36 -142q0 -86 -40.5 -156t-112.5 -110.5t-162 -40.5q-68 0 -133 24.5t-106 65.5v117q38 -50 99.5 -78.5t129.5 -28.5q64 0 112.5 26.5t74.5 73t26 106.5q0 87 -55 138t-149 51q-62 0 -113 -18t-112 -57v472h494v-99h-393v-250q72 39 162 39
q80 0 143 -35z" />
    <glyph glyph-name="six.dnom" horiz-adv-x="809" 
d="M583 531.5q62 -36.5 97 -100t35 -143.5q0 -89 -39.5 -160.5t-108.5 -112t-156 -40.5q-92 0 -161.5 46.5t-108.5 139.5t-39 229q0 155 46 266.5t129 169.5t193 58q55 0 107 -16.5t96 -48.5v-115q-37 38 -90.5 60t-111.5 22q-81 0 -140 -46t-90.5 -131t-31.5 -199v-3
q26 74 87.5 117.5t147.5 43.5q77 0 139 -36.5zM510 97.5q44 27.5 69 76t25 110.5q0 56 -24.5 101t-67.5 70.5t-97 25.5q-56 0 -100.5 -26.5t-69 -71.5t-24.5 -99q0 -58 25 -107.5t68.5 -78t96.5 -28.5q55 0 99 27.5z" />
    <glyph glyph-name="seven.dnom" horiz-adv-x="680" 
d="M632 859v-90l-411 -769h-124l420 764h-451v95h566z" />
    <glyph glyph-name="eight.dnom" horiz-adv-x="796" 
d="M649.5 364.5q43.5 -56.5 43.5 -130.5q0 -73 -38 -132t-105 -93t-151 -34q-85 0 -152.5 33.5t-105.5 93t-38 132.5q0 74 44 130.5t121 83.5q-70 26 -110 77t-40 119q0 67 36.5 122t101 86.5t143.5 31.5t142.5 -31.5t100 -86.5t36.5 -122q0 -68 -39.5 -119t-108.5 -77
q76 -27 119.5 -83.5zM275.5 747q-45.5 -41 -45.5 -108q0 -45 21.5 -81t60 -56t87.5 -20q47 0 85 20.5t59.5 56.5t21.5 80q0 67 -45 108t-121 41q-78 0 -123.5 -41zM494.5 93.5q41.5 22.5 64 61.5t22.5 87q0 75 -50 121.5t-132 46.5t-133 -46.5t-51 -121.5q0 -48 23 -87
t65 -61.5t96 -22.5t95.5 22.5z" />
    <glyph glyph-name="nine.dnom" horiz-adv-x="804" 
d="M619.5 779.5q80.5 -104.5 80.5 -297.5q0 -161 -42 -274.5t-122.5 -173t-193.5 -59.5q-126 0 -209 73v106q80 -77 203 -77q120 0 184.5 96.5t69.5 282.5q-26 -66 -85 -102.5t-140 -36.5q-79 0 -141.5 34t-98 95t-35.5 140q0 85 39 153t107.5 106.5t155.5 38.5
q147 0 227.5 -104.5zM486 426q44 25 68.5 67.5t24.5 94.5q0 55 -25 101t-68 72.5t-96 26.5t-95.5 -25.5t-67 -71t-24.5 -102.5q0 -54 23.5 -97t65.5 -67t96 -24t98 25z" />
    <glyph glyph-name="zero.numr" horiz-adv-x="856" 
d="M255 649.5q-74 58.5 -114 163.5t-40 243q0 131 40.5 231.5t114 156.5t171.5 56q99 0 173.5 -56t114.5 -157t40 -232q0 -137 -40 -242.5t-114 -163.5t-174 -58q-98 0 -172 58.5zM540.5 735q48.5 46 74.5 129t26 191q0 102 -26 181t-74.5 122.5t-113.5 43.5q-64 0 -112 -44
t-74 -122.5t-26 -179.5q0 -108 26 -191.5t74 -129.5t112 -46q65 0 113.5 46z" />
    <glyph glyph-name="one.numr" horiz-adv-x="556" 
d="M396 1477v-861h-108v733l-227 -152v112l251 168h84z" />
    <glyph glyph-name="two.numr" horiz-adv-x="716" 
d="M625 724v-100h-531v85l270 281q72 75 101.5 131t29.5 117q0 74 -45.5 118t-123.5 44q-65 0 -126 -30.5t-108 -82.5v112q109 101 246 101q80 0 141 -32t94.5 -89.5t33.5 -132.5q0 -74 -36.5 -143.5t-118.5 -152.5l-220 -226h393z" />
    <glyph glyph-name="three.numr" horiz-adv-x="738" 
d="M593.5 1002.5q45.5 -59.5 45.5 -142.5q0 -75 -37.5 -136.5t-106 -97t-156.5 -35.5q-141 0 -236 71v108q46 -39 106 -60t122 -21q90 0 143.5 47.5t53.5 126.5q0 72 -52.5 114.5t-154.5 42.5h-164l16 90h156q85 0 128.5 40.5t43.5 109.5q0 67 -48 104.5t-136 37.5
q-62 0 -116 -22.5t-92 -58.5v105q98 74 232 74q79 0 140 -28t95 -78.5t34 -117.5q0 -74 -39 -124.5t-102 -68.5q79 -21 124.5 -80.5z" />
    <glyph glyph-name="four.numr" horiz-adv-x="784" 
d="M716 851h-136v-235h-105v235h-415v95l382 529h138v-532h136v-92zM475 943v420l-300 -420h300z" />
    <glyph glyph-name="five.numr" horiz-adv-x="756" 
d="M533 1130q63 -35 99 -98t36 -142q0 -86 -40.5 -156t-112.5 -110.5t-162 -40.5q-68 0 -133 24.5t-106 65.5v117q38 -50 99.5 -78.5t129.5 -28.5q64 0 112.5 26.5t74.5 73t26 106.5q0 87 -55 138t-149 51q-62 0 -113 -18t-112 -57v472h494v-99h-393v-250q72 39 162 39
q80 0 143 -35z" />
    <glyph glyph-name="six.numr" horiz-adv-x="809" 
d="M583 1147.5q62 -36.5 97 -100t35 -143.5q0 -89 -39.5 -160.5t-108.5 -112t-156 -40.5q-92 0 -161.5 46.5t-108.5 139.5t-39 229q0 155 46 266.5t129 169.5t193 58q55 0 107 -16.5t96 -48.5v-115q-37 38 -90.5 60t-111.5 22q-81 0 -140 -46t-90.5 -131t-31.5 -199v-3
q26 74 87.5 117.5t147.5 43.5q77 0 139 -36.5zM510 713.5q44 27.5 69 76t25 110.5q0 56 -24.5 101t-67.5 70.5t-97 25.5q-56 0 -100.5 -26.5t-69 -71.5t-24.5 -99q0 -58 25 -107.5t68.5 -78t96.5 -28.5q55 0 99 27.5z" />
    <glyph glyph-name="seven.numr" horiz-adv-x="680" 
d="M632 1475v-90l-411 -769h-124l420 764h-451v95h566z" />
    <glyph glyph-name="eight.numr" horiz-adv-x="796" 
d="M649.5 980.5q43.5 -56.5 43.5 -130.5q0 -73 -38 -132t-105 -93t-151 -34q-85 0 -152.5 33.5t-105.5 93t-38 132.5q0 74 44 130.5t121 83.5q-70 26 -110 77t-40 119q0 67 36.5 122t101 86.5t143.5 31.5t142.5 -31.5t100 -86.5t36.5 -122q0 -68 -39.5 -119t-108.5 -77
q76 -27 119.5 -83.5zM275.5 1363q-45.5 -41 -45.5 -108q0 -45 21.5 -81t60 -56t87.5 -20q47 0 85 20.5t59.5 56.5t21.5 80q0 67 -45 108t-121 41q-78 0 -123.5 -41zM494.5 709.5q41.5 22.5 64 61.5t22.5 87q0 75 -50 121.5t-132 46.5t-133 -46.5t-51 -121.5q0 -48 23 -87
t65 -61.5t96 -22.5t95.5 22.5z" />
    <glyph glyph-name="nine.numr" horiz-adv-x="804" 
d="M619.5 1395.5q80.5 -104.5 80.5 -297.5q0 -161 -42 -274.5t-122.5 -173t-193.5 -59.5q-126 0 -209 73v106q80 -77 203 -77q120 0 184.5 96.5t69.5 282.5q-26 -66 -85 -102.5t-140 -36.5q-79 0 -141.5 34t-98 95t-35.5 140q0 85 39 153t107.5 106.5t155.5 38.5
q147 0 227.5 -104.5zM486 1042q44 25 68.5 67.5t24.5 94.5q0 55 -25 101t-68 72.5t-96 26.5t-95.5 -25.5t-67 -71t-24.5 -102.5q0 -54 23.5 -97t65.5 -67t96 -24t98 25z" />
    <glyph glyph-name="uni2070" unicode="&#x2070;" horiz-adv-x="856" 
d="M255 649.5q-74 58.5 -114 163.5t-40 243q0 131 40.5 231.5t114 156.5t171.5 56q99 0 173.5 -56t114.5 -157t40 -232q0 -137 -40 -242.5t-114 -163.5t-174 -58q-98 0 -172 58.5zM540.5 735q48.5 46 74.5 129t26 191q0 102 -26 181t-74.5 122.5t-113.5 43.5q-64 0 -112 -44
t-74 -122.5t-26 -179.5q0 -108 26 -191.5t74 -129.5t112 -46q65 0 113.5 46z" />
    <glyph glyph-name="onesuperior" unicode="&#xb9;" horiz-adv-x="556" 
d="M396 1477v-861h-108v733l-227 -152v112l251 168h84z" />
    <glyph glyph-name="twosuperior" unicode="&#xb2;" horiz-adv-x="716" 
d="M625 724v-100h-531v85l270 281q72 75 101.5 131t29.5 117q0 74 -45.5 118t-123.5 44q-65 0 -126 -30.5t-108 -82.5v112q109 101 246 101q80 0 141 -32t94.5 -89.5t33.5 -132.5q0 -74 -36.5 -143.5t-118.5 -152.5l-220 -226h393z" />
    <glyph glyph-name="threesuperior" unicode="&#xb3;" horiz-adv-x="738" 
d="M593.5 1002.5q45.5 -59.5 45.5 -142.5q0 -75 -37.5 -136.5t-106 -97t-156.5 -35.5q-141 0 -236 71v108q46 -39 106 -60t122 -21q90 0 143.5 47.5t53.5 126.5q0 72 -52.5 114.5t-154.5 42.5h-164l16 90h156q85 0 128.5 40.5t43.5 109.5q0 67 -48 104.5t-136 37.5
q-62 0 -116 -22.5t-92 -58.5v105q98 74 232 74q79 0 140 -28t95 -78.5t34 -117.5q0 -74 -39 -124.5t-102 -68.5q79 -21 124.5 -80.5z" />
    <glyph glyph-name="uni2074" unicode="&#x2074;" horiz-adv-x="784" 
d="M716 851h-136v-235h-105v235h-415v95l382 529h138v-532h136v-92zM475 943v420l-300 -420h300z" />
    <glyph glyph-name="uni2075" unicode="&#x2075;" horiz-adv-x="756" 
d="M533 1130q63 -35 99 -98t36 -142q0 -86 -40.5 -156t-112.5 -110.5t-162 -40.5q-68 0 -133 24.5t-106 65.5v117q38 -50 99.5 -78.5t129.5 -28.5q64 0 112.5 26.5t74.5 73t26 106.5q0 87 -55 138t-149 51q-62 0 -113 -18t-112 -57v472h494v-99h-393v-250q72 39 162 39
q80 0 143 -35z" />
    <glyph glyph-name="uni2076" unicode="&#x2076;" horiz-adv-x="809" 
d="M583 1147.5q62 -36.5 97 -100t35 -143.5q0 -89 -39.5 -160.5t-108.5 -112t-156 -40.5q-92 0 -161.5 46.5t-108.5 139.5t-39 229q0 155 46 266.5t129 169.5t193 58q55 0 107 -16.5t96 -48.5v-115q-37 38 -90.5 60t-111.5 22q-81 0 -140 -46t-90.5 -131t-31.5 -199v-3
q26 74 87.5 117.5t147.5 43.5q77 0 139 -36.5zM510 713.5q44 27.5 69 76t25 110.5q0 56 -24.5 101t-67.5 70.5t-97 25.5q-56 0 -100.5 -26.5t-69 -71.5t-24.5 -99q0 -58 25 -107.5t68.5 -78t96.5 -28.5q55 0 99 27.5z" />
    <glyph glyph-name="uni2077" unicode="&#x2077;" horiz-adv-x="680" 
d="M632 1475v-90l-411 -769h-124l420 764h-451v95h566z" />
    <glyph glyph-name="uni2078" unicode="&#x2078;" horiz-adv-x="796" 
d="M649.5 980.5q43.5 -56.5 43.5 -130.5q0 -73 -38 -132t-105 -93t-151 -34q-85 0 -152.5 33.5t-105.5 93t-38 132.5q0 74 44 130.5t121 83.5q-70 26 -110 77t-40 119q0 67 36.5 122t101 86.5t143.5 31.5t142.5 -31.5t100 -86.5t36.5 -122q0 -68 -39.5 -119t-108.5 -77
q76 -27 119.5 -83.5zM275.5 1363q-45.5 -41 -45.5 -108q0 -45 21.5 -81t60 -56t87.5 -20q47 0 85 20.5t59.5 56.5t21.5 80q0 67 -45 108t-121 41q-78 0 -123.5 -41zM494.5 709.5q41.5 22.5 64 61.5t22.5 87q0 75 -50 121.5t-132 46.5t-133 -46.5t-51 -121.5q0 -48 23 -87
t65 -61.5t96 -22.5t95.5 22.5z" />
    <glyph glyph-name="uni2079" unicode="&#x2079;" horiz-adv-x="804" 
d="M619.5 1395.5q80.5 -104.5 80.5 -297.5q0 -161 -42 -274.5t-122.5 -173t-193.5 -59.5q-126 0 -209 73v106q80 -77 203 -77q120 0 184.5 96.5t69.5 282.5q-26 -66 -85 -102.5t-140 -36.5q-79 0 -141.5 34t-98 95t-35.5 140q0 85 39 153t107.5 106.5t155.5 38.5
q147 0 227.5 -104.5zM486 1042q44 25 68.5 67.5t24.5 94.5q0 55 -25 101t-68 72.5t-96 26.5t-95.5 -25.5t-67 -71t-24.5 -102.5q0 -54 23.5 -97t65.5 -67t96 -24t98 25z" />
    <glyph glyph-name="fraction" unicode="&#x2044;" horiz-adv-x="334" 
d="M518 1434h119l-824 -1434h-122z" />
    <glyph glyph-name="onehalf" unicode="&#xbd;" horiz-adv-x="1606" 
d="M396 1477v-861h-108v733l-227 -152v112l251 168h84zM1074 1434h119l-824 -1434h-122zM1515 108v-100h-531v85l270 281q72 75 101.5 131t29.5 117q0 74 -45.5 118t-123.5 44q-65 0 -126 -30.5t-108 -82.5v112q109 101 246 101q80 0 141 -32t94.5 -89.5t33.5 -132.5
q0 -74 -36.5 -143.5t-118.5 -152.5l-220 -226h393z" />
    <glyph glyph-name="onethird" unicode="&#x2153;" horiz-adv-x="1628" 
d="M396 1477v-861h-108v733l-227 -152v112l251 168h84zM1074 1434h119l-824 -1434h-122zM1483.5 386.5q45.5 -59.5 45.5 -142.5q0 -75 -37.5 -136.5t-106 -97t-156.5 -35.5q-141 0 -236 71v108q46 -39 106 -60t122 -21q90 0 143.5 47.5t53.5 126.5q0 72 -52.5 114.5
t-154.5 42.5h-164l16 90h156q85 0 128.5 40.5t43.5 109.5q0 67 -48 104.5t-136 37.5q-62 0 -116 -22.5t-92 -58.5v105q98 74 232 74q79 0 140 -28t95 -78.5t34 -117.5q0 -74 -39 -124.5t-102 -68.5q79 -21 124.5 -80.5z" />
    <glyph glyph-name="twothirds" unicode="&#x2154;" horiz-adv-x="1788" 
d="M625 724v-100h-531v85l270 281q72 75 101.5 131t29.5 117q0 74 -45.5 118t-123.5 44q-65 0 -126 -30.5t-108 -82.5v112q109 101 246 101q80 0 141 -32t94.5 -89.5t33.5 -132.5q0 -74 -36.5 -143.5t-118.5 -152.5l-220 -226h393zM1234 1434h119l-824 -1434h-122z
M1643.5 386.5q45.5 -59.5 45.5 -142.5q0 -75 -37.5 -136.5t-106 -97t-156.5 -35.5q-141 0 -236 71v108q46 -39 106 -60t122 -21q90 0 143.5 47.5t53.5 126.5q0 72 -52.5 114.5t-154.5 42.5h-164l16 90h156q85 0 128.5 40.5t43.5 109.5q0 67 -48 104.5t-136 37.5
q-62 0 -116 -22.5t-92 -58.5v105q98 74 232 74q79 0 140 -28t95 -78.5t34 -117.5q0 -74 -39 -124.5t-102 -68.5q79 -21 124.5 -80.5z" />
    <glyph glyph-name="onequarter" unicode="&#xbc;" horiz-adv-x="1654" 
d="M396 1477v-861h-108v733l-227 -152v112l251 168h84zM1074 1434h119l-824 -1434h-122zM1586 235h-136v-235h-105v235h-415v95l382 529h138v-532h136v-92zM1345 327v420l-300 -420h300z" />
    <glyph glyph-name="threequarters" unicode="&#xbe;" horiz-adv-x="1836" 
d="M593.5 1002.5q45.5 -59.5 45.5 -142.5q0 -75 -37.5 -136.5t-106 -97t-156.5 -35.5q-141 0 -236 71v108q46 -39 106 -60t122 -21q90 0 143.5 47.5t53.5 126.5q0 72 -52.5 114.5t-154.5 42.5h-164l16 90h156q85 0 128.5 40.5t43.5 109.5q0 67 -48 104.5t-136 37.5
q-62 0 -116 -22.5t-92 -58.5v105q98 74 232 74q79 0 140 -28t95 -78.5t34 -117.5q0 -74 -39 -124.5t-102 -68.5q79 -21 124.5 -80.5zM1256 1434h119l-824 -1434h-122zM1768 235h-136v-235h-105v235h-415v95l382 529h138v-532h136v-92zM1527 327v420l-300 -420h300z" />
    <glyph glyph-name="asterisk" unicode="*" horiz-adv-x="810" 
d="M703 1205l-239 13l131 -198l-81 -46l-108 202l-110 -202l-81 46l133 198l-241 -12v85l238 -13l-130 199l81 45l110 -205l108 205l81 -45l-129 -199l237 13v-86z" />
    <glyph glyph-name="backslash" unicode="\" horiz-adv-x="843" 
d="M183.04 1638h-117.992l594.963 -1884h117.993z" />
    <glyph glyph-name="periodcentered" unicode="&#xb7;" horiz-adv-x="470" 
d="M167 578.5q-27 27.5 -27 68.5q0 39 27.5 66t68.5 27q40 0 66.5 -26.5t26.5 -66.5q0 -41 -26.5 -68.5t-66.5 -27.5q-42 0 -69 27.5z" />
    <glyph glyph-name="bullet" unicode="&#x2022;" horiz-adv-x="1118" 
d="M359.5 341q-91.5 54 -145 146t-53.5 201q0 110 53.5 202t145 145.5t200.5 53.5q108 0 199.5 -53.5t145 -145.5t53.5 -202q0 -109 -53.5 -201t-145 -146t-199.5 -54q-109 0 -200.5 54z" />
    <glyph glyph-name="colon" unicode=":" horiz-adv-x="485" 
d="M176 5.5q-27 27.5 -27 68.5q0 39 27.5 66t68.5 27q40 0 66.5 -26.5t26.5 -66.5q0 -41 -26.5 -68.5t-66.5 -27.5q-42 0 -69 27.5zM176 786.5q-27 27.5 -27 68.5q0 39 27.5 66t68.5 27q40 0 66.5 -26.5t26.5 -66.5q0 -41 -26.5 -68.5t-66.5 -27.5q-42 0 -69 27.5z" />
    <glyph glyph-name="comma" unicode="," horiz-adv-x="441" 
d="M164 166h155l-168 -473h-95z" />
    <glyph glyph-name="ellipsis" unicode="&#x2026;" horiz-adv-x="1416" 
d="M198 5.5q-27 27.5 -27 68.5q0 39 27.5 66t68.5 27q40 0 66.5 -26.5t26.5 -66.5q0 -41 -26.5 -68.5t-66.5 -27.5q-42 0 -69 27.5zM641 5.5q-27 27.5 -27 68.5q0 39 27.5 66t68.5 27q40 0 66.5 -26.5t26.5 -66.5q0 -41 -26.5 -68.5t-66.5 -27.5q-42 0 -69 27.5zM1082 5.5
q-27 27.5 -27 68.5q0 39 27.5 66t68.5 27q40 0 66.5 -26.5t26.5 -66.5q0 -41 -26.5 -68.5t-66.5 -27.5q-42 0 -69 27.5z" />
    <glyph glyph-name="exclam" unicode="!" horiz-adv-x="525" 
d="M202 1434h121v-1074h-121v1074zM197 5.5q-27 27.5 -27 66.5q0 40 27 67.5t68 27.5q40 0 66 -27.5t26 -67.5q0 -39 -26 -66.5t-66 -27.5q-41 0 -68 27.5z" />
    <glyph glyph-name="exclamdown" unicode="&#xa1;" horiz-adv-x="525" 
d="M202 -389.912h121v1073.93h-121v-1073.93zM197 1038.5q-27 -27.498 -27 -66.4961q0 -39.9971 27 -67.4951q27 -27.499 68 -27.499q40 0 66 27.499q26 27.498 26 67.4951q0 38.998 -26 66.4961q-26 27.499 -66 27.499q-41 0 -68 -27.499z" />
    <glyph glyph-name="numbersign" unicode="#" horiz-adv-x="1371" 
d="M331 475h-249v93h273l90 372h-281v93h303l98 401h110l-97 -401h344l98 401h110l-98 -401h269l-23 -93h-268l-90 -372h283l-23 -93h-284l-116 -475h-110l116 475h-344l-116 -475h-111zM809 568l90 372h-344l-90 -372h344z" />
    <glyph glyph-name="period" unicode="." horiz-adv-x="409" 
d="M137 5.5q-27 27.5 -27 68.5q0 39 27.5 66t68.5 27q40 0 66.5 -26.5t26.5 -66.5q0 -41 -26.5 -68.5t-66.5 -27.5q-42 0 -69 27.5z" />
    <glyph glyph-name="question" unicode="?" horiz-adv-x="985" 
d="M682 1410q108 -54 166 -151.5t58 -224.5q0 -121 -55 -217.5t-159.5 -152.5t-248.5 -56h-45v-248h-122v347h120q124 0 210.5 39.5t130.5 111.5t44 168q0 100 -43.5 173t-125.5 112t-195 39q-122 0 -208.5 -39t-132.5 -84v128q154 109 352 109q146 0 254 -54zM407.5 140
q26.5 -27 26.5 -66q0 -41 -26.5 -68.5t-66.5 -27.5q-41 0 -68.5 28t-27.5 68q0 38 27.5 65.5t68.5 27.5q40 0 66.5 -27z" />
    <glyph glyph-name="questiondown" unicode="&#xbf;" horiz-adv-x="969" 
d="M297.042 -365.914q-107.994 53.9971 -165.99 151.491t-57.9961 224.486q0 120.992 54.9961 217.486q54.9971 96.4941 159.49 152.491q104.494 55.9961 248.485 55.9961h44.9971v247.984h121.992v-346.979h-119.992q-123.993 0 -210.487 -39.4971
q-86.4951 -39.498 -130.492 -111.493q-43.9971 -71.9961 -43.9971 -167.99q0 -99.9941 43.4971 -172.989t125.492 -111.993t194.988 -38.998q121.992 0 208.487 38.998t132.492 83.9951v-127.992q-153.991 -108.993 -351.979 -108.993q-145.991 0 -253.984 53.9961z
M571.524 904.009q-26.498 26.998 -26.498 65.9961q0 40.9971 26.498 68.4951q26.499 27.499 66.4961 27.499q40.998 0 68.4961 -27.999q27.498 -27.998 27.498 -67.9951q0 -37.998 -27.498 -65.4961q-27.498 -27.499 -68.4961 -27.499q-39.9971 0 -66.4961 26.999z" />
    <glyph glyph-name="quotedbl" unicode="&#x22;" horiz-adv-x="726" 
d="M143 1516h109v-472h-109v472zM473 1516h109v-472h-109v472z" />
    <glyph glyph-name="quotesingle" unicode="'" horiz-adv-x="396" 
d="M143 1516h109v-472h-109v472z" />
    <glyph glyph-name="semicolon" unicode=";" horiz-adv-x="559" 
d="M232 166h155l-168 -473h-95zM220 786.5q-27 27.5 -27 68.5q0 39 27.5 66t68.5 27q40 0 66.5 -26.5t26.5 -66.5q0 -41 -26.5 -68.5t-66.5 -27.5q-42 0 -69 27.5z" />
    <glyph glyph-name="slash" unicode="/" horiz-adv-x="843" 
d="M660 1638h118l-595 -1884h-118z" />
    <glyph glyph-name="underscore" unicode="_" horiz-adv-x="1124" 
d="M109 0h906v-96h-906v96z" />
    <glyph glyph-name="exclamdown.case" horiz-adv-x="525" 
d="M202 0.0878906h121v1073.93h-121v-1073.93zM197 1428.5q-27 -27.498 -27 -66.4961q0 -39.9971 27 -67.4951q27 -27.499 68 -27.499q40 0 66 27.499q26 27.498 26 67.4951q0 38.998 -26 66.4961q-26 27.499 -66 27.499q-41 0 -68 -27.499z" />
    <glyph glyph-name="questiondown.case" horiz-adv-x="984" 
d="M303.042 24.0859q-107.994 53.9971 -165.99 151.491t-57.9961 224.486q0 120.992 54.9961 217.486q54.9971 96.4941 159.49 152.491q104.494 55.9961 248.485 55.9961h44.9971v247.984h121.992v-346.979h-119.992q-123.993 0 -210.487 -39.4971
q-86.4951 -39.498 -130.492 -111.493q-43.9971 -71.9961 -43.9971 -167.99q0 -99.9941 43.4971 -172.989t125.492 -111.993t194.988 -38.998q121.992 0 208.487 38.998t132.492 83.9951v-127.992q-153.991 -108.993 -351.979 -108.993q-145.991 0 -253.984 53.9961z
M577.524 1294.01q-26.498 26.998 -26.498 65.9961q0 40.9971 26.498 68.4951q26.499 27.499 66.4961 27.499q40.998 0 68.4961 -27.999q27.498 -27.998 27.498 -67.9951q0 -37.998 -27.498 -65.4961q-27.498 -27.499 -68.4961 -27.499q-39.9971 0 -66.4961 26.999z" />
    <glyph glyph-name="angleleft" unicode="&#x2329;" horiz-adv-x="641" 
d="M607 -246h-126l-415 958l391 926h126l-386 -923z" />
    <glyph glyph-name="angleright" unicode="&#x232a;" horiz-adv-x="641" 
d="M34.0371 -246h125.992l414.975 958l-390.976 926h-125.993l385.977 -923z" />
    <glyph glyph-name="uni3010" unicode="&#x3010;" horiz-adv-x="749" 
d="M202 1640h533q-177 -174 -270 -414.5t-93 -520.5q0 -282 92 -526t271 -425h-533v1886z" />
    <glyph glyph-name="uni3011" unicode="&#x3011;" horiz-adv-x="749" 
d="M547.013 1640h-532.968q176.989 -174 269.983 -414.5t92.9941 -520.5q0 -282 -91.9941 -526t-270.983 -425h532.968v1886z" />
    <glyph glyph-name="braceleft" unicode="{" horiz-adv-x="756" 
d="M337 776q-35 -63 -124 -91q93 -29 126 -94t33 -165v-394q0 -102 52.5 -152t147.5 -50q38 0 74 7.5t59 19.5v-99q-71 -30 -154 -30q-143 0 -219.5 83t-76.5 234v381q0 81 -16.5 121.5t-59 57t-127.5 16.5v116q84 0 126 15.5t59.5 57t17.5 123.5v387q0 152 78.5 234.5
t226.5 82.5q82 0 145 -29v-99q-24 11 -60 18.5t-73 7.5q-96 0 -148 -49.5t-52 -153.5v-399q0 -94 -35 -157z" />
    <glyph glyph-name="braceright" unicode="}" horiz-adv-x="756" 
d="M419.021 589.047q34.998 62.9971 123.992 90.9951q-92.9941 28.998 -125.992 93.9941t-32.998 164.99v393.976q0 101.994 -52.4961 151.99q-52.4971 49.9971 -147.491 49.9971q-37.998 0 -73.9961 -7.49902q-35.9971 -7.5 -58.9961 -19.499v98.9941
q70.9961 29.998 153.99 29.998q142.992 0 219.487 -82.9951t76.4951 -233.985v-380.977q0 -80.9951 16.499 -121.493q16.499 -40.4971 58.9961 -56.9961q42.498 -16.499 127.492 -16.499v-115.993q-83.9951 0 -125.992 -15.499t-59.4961 -56.9961
q-17.499 -41.498 -17.499 -123.493v-386.977q0 -151.99 -78.4951 -234.485t-226.486 -82.4951q-81.9951 0 -144.991 28.998v98.9941q23.999 -10.999 59.9961 -18.499q35.998 -7.49902 72.9961 -7.49902q95.9941 0 147.99 49.4971q51.9971 49.4971 51.9971 153.49v398.976
q0 93.9941 34.998 156.99z" />
    <glyph glyph-name="bracketleft" unicode="[" horiz-adv-x="693" 
d="M202 1638h443v-102h-326v-1680h326v-102h-443v1884z" />
    <glyph glyph-name="bracketright" unicode="]" horiz-adv-x="693" 
d="M491.013 1638h-442.974v-102h325.98v-1680h-325.98v-102h442.974v1884z" />
    <glyph glyph-name="uni300C" unicode="&#x300c;" horiz-adv-x="642" 
d="M157 1638h455v-104h-338v-756h-117v860z" />
    <glyph glyph-name="uni300D" unicode="&#x300d;" horiz-adv-x="429" 
d="M276.01 -244.9h-454.973v103.994h337.979v755.954h116.993v-859.948z" />
    <glyph glyph-name="uni300A" unicode="&#x300a;" horiz-adv-x="1095" 
d="M607 -246h-126l-415 958l391 926h126l-386 -923zM1062 -246h-126l-415 958l391 926h126l-386 -923z" />
    <glyph glyph-name="uni300B" unicode="&#x300b;" horiz-adv-x="1095" 
d="M488.037 -246h125.992l414.975 958l-390.976 926h-125.993l385.977 -923zM33.0371 -246h125.992l414.975 958l-390.976 926h-125.993l385.977 -923z" />
    <glyph glyph-name="parenleft" unicode="(" horiz-adv-x="662" 
d="M315.5 -11.5q-91.5 137.5 -151.5 323.5t-60 403q0 196 54 370t145.5 313t208.5 242h145q-195 -158 -314 -392.5t-119 -531.5q0 -303 116 -545t317 -417h-145q-105 97 -196.5 234.5z" />
    <glyph glyph-name="parenright" unicode=")" horiz-adv-x="662" 
d="M346.52 1406.5q91.4941 -137.491 151.49 -323.479q59.9961 -185.989 59.9961 -402.976q0 -195.988 -53.9961 -369.978q-53.9971 -173.989 -145.491 -312.981q-91.4941 -138.991 -208.487 -241.985h-144.991q194.988 157.991 313.98 392.477
q118.993 234.485 118.993 531.468q0 302.981 -115.993 544.967t-316.98 416.975h144.991q104.993 -96.9941 196.488 -234.486z" />
    <glyph glyph-name="uni3014" unicode="&#x3014;" horiz-adv-x="557" 
d="M143 60v1277l289 326l83 -79l-255 -290v-1190l255 -290l-83 -79z" />
    <glyph glyph-name="uni3015" unicode="&#x3015;" horiz-adv-x="557" 
d="M414.009 60v1277l-288.982 326l-82.9951 -79l254.984 -290v-1190l-254.984 -290l82.9951 -79z" />
    <glyph glyph-name="uni300E" unicode="&#x300e;" horiz-adv-x="825" 
d="M154 1637h600v-285h-311v-575h-289v860zM361 859v575h311v122h-436v-697h125z" />
    <glyph glyph-name="uni300F" unicode="&#x300f;" horiz-adv-x="748" 
d="M594.01 -243.9h-599.964v284.982h310.981v574.966h288.982v-859.948zM387.022 534.053v-574.965h-310.981v-121.993h435.974v696.958h-124.992z" />
    <glyph glyph-name="emdash" unicode="&#x2014;" horiz-adv-x="1744" 
d="M157 701h1430v-106h-1430v106z" />
    <glyph glyph-name="endash" unicode="&#x2013;" horiz-adv-x="1294" 
d="M157 701h979v-106h-979v106z" />
    <glyph glyph-name="hyphen" unicode="-" horiz-adv-x="895" 
d="M147 747h601v-119h-601v119z" />
    <glyph glyph-name="uni00AD" unicode="&#xad;" horiz-adv-x="895" 
d="M147 747h601v-119h-601v119z" />
    <glyph glyph-name="emdash.frac" horiz-adv-x="1755" 
d="M162 783h1430v-106h-1430v106z" />
    <glyph glyph-name="endash.frac" horiz-adv-x="1304" 
d="M162 783h979v-106h-979v106z" />
    <glyph glyph-name="hyphen.frac" horiz-adv-x="911" 
d="M155 792h601v-119h-601v119z" />
    <glyph glyph-name="uni00AD.frac" horiz-adv-x="911" 
d="M155 792h601v-119h-601v119z" />
    <glyph glyph-name="guillemotleft" unicode="&#xab;" horiz-adv-x="1200" 
d="M601.038 512l413.975 -512h133.992l-408.976 514l383.977 510h-133.991zM105.038 512l413.975 -512h133.992l-408.976 514l383.977 510h-133.991z" />
    <glyph glyph-name="guillemotright" unicode="&#xbb;" horiz-adv-x="1200" 
d="M622 512l-414 -512h-134l409 514l-384 510h134zM1118 512l-414 -512h-134l409 514l-384 510h134z" />
    <glyph glyph-name="guilsinglleft" unicode="&#x2039;" horiz-adv-x="704" 
d="M82.0381 512l413.975 -512h133.992l-408.976 514l383.977 510h-133.991z" />
    <glyph glyph-name="guilsinglright" unicode="&#x203a;" horiz-adv-x="704" 
d="M622 512l-414 -512h-134l409 514l-384 510h134z" />
    <glyph glyph-name="quotedblbase" unicode="&#x201e;" horiz-adv-x="788" 
d="M224 208h141l-168 -515h-85zM535 208h141l-168 -515h-85z" />
    <glyph glyph-name="quotedblleft" unicode="&#x201c;" horiz-adv-x="755" 
d="M541.014 1001.09h-140.991l167.989 514.969h84.9951zM230.014 1001.09h-140.991l167.989 514.969h84.9951z" />
    <glyph glyph-name="quotedblright" unicode="&#x201d;" horiz-adv-x="748" 
d="M224 1516h141l-168 -515h-85zM535 1516h141l-168 -515h-85z" />
    <glyph glyph-name="quoteleft" unicode="&#x2018;" horiz-adv-x="437" 
d="M213.014 1001.09h-140.991l167.989 514.969h84.9951z" />
    <glyph glyph-name="quoteright" unicode="&#x2019;" horiz-adv-x="437" 
d="M224 1516h141l-168 -515h-85z" />
    <glyph glyph-name="quotesinglbase" unicode="&#x201a;" horiz-adv-x="437" 
d="M224 208h141l-168 -515h-85z" />
    <glyph glyph-name="guillemotleft.case" horiz-adv-x="1255" 
d="M593.038 666l413.975 -512h133.992l-408.976 514l383.977 510h-133.991zM97.0381 666l413.975 -512h133.992l-408.976 514l383.977 510h-133.991z" />
    <glyph glyph-name="guillemotright.case" horiz-adv-x="1255" 
d="M663 666l-414 -512h-134l409 514l-384 510h134zM1159 666l-414 -512h-134l409 514l-384 510h134z" />
    <glyph glyph-name="guilsinglleft.case" horiz-adv-x="760" 
d="M645 154h-134l-414 512l389 512h134l-384 -510z" />
    <glyph glyph-name="guilsinglright.case" horiz-adv-x="760" 
d="M663 666l-414 -512h-134l409 514l-384 510h134z" />
    <glyph glyph-name="uni2003" unicode="&#x2003;" horiz-adv-x="1475" 
 />
    <glyph glyph-name="uni2002" unicode="&#x2002;" horiz-adv-x="1229" 
 />
    <glyph glyph-name="uni200A" unicode="&#x200a;" horiz-adv-x="154" 
 />
    <glyph glyph-name="uni00A0" unicode="&#xa0;" horiz-adv-x="524" 
 />
    <glyph glyph-name="uni2009" unicode="&#x2009;" horiz-adv-x="713" 
 />
    <glyph glyph-name="cent" unicode="&#xa2;" horiz-adv-x="1059" 
d="M946 74q-118 -89 -269 -102v-216h-111v215q-138 12 -242.5 86t-161.5 194t-57 266q0 144 56.5 261t161 189.5t243.5 85.5v225h111v-225q152 -12 261 -94v-132q-67 59 -142.5 87.5t-168.5 28.5q-120 0 -210 -55t-138.5 -151.5t-48.5 -218.5q0 -125 47.5 -224t139 -156
t219.5 -57q90 0 170 30t140 82v-119z" />
    <glyph glyph-name="currency" unicode="&#xa4;" horiz-adv-x="1249" 
d="M1012.5 565q-22.5 -65 -64.5 -120l173 -171l-70 -70l-171 171q-54 -43 -118.5 -66.5t-135.5 -23.5t-136.5 24t-118.5 67l-174 -172l-69 70l174 171q-42 54 -65 119t-24 136q1 69 24 133.5t64 117.5l-173 170l69 70l173 -170q53 43 119 67t137 24t136.5 -24t118.5 -67
l170 170l70 -70l-172 -170q41 -53 63.5 -117.5t22.5 -133.5q0 -70 -22.5 -135zM776 433q68 40 107 110t39 157t-39 156.5t-107 109t-152 39.5t-152 -39.5t-107 -109t-39 -156.5t39 -157t107 -110t152 -40t152 40z" />
    <glyph glyph-name="dollar" unicode="$" horiz-adv-x="1065" 
d="M933 154.5q-49 -81.5 -136.5 -130t-199.5 -58.5v-210h-111v210q-110 10 -212.5 62t-177.5 134v139q89 -106 195.5 -165t228.5 -59q101 0 177 30t117.5 87.5t41.5 138.5q0 66 -25 115t-81 89.5t-152 80.5l-186 75q-156 63 -227.5 150t-71.5 205q0 94 44.5 168.5t128.5 120
t200 54.5v217h111v-217q102 -10 185 -48.5t142 -90.5v-144q-76 78 -174.5 123t-213.5 45q-91 0 -158 -29t-102.5 -79.5t-35.5 -115.5q0 -82 49 -139.5t169 -107.5l197 -79q174 -71 250.5 -163t76.5 -221q0 -106 -49 -187.5z" />
    <glyph glyph-name="Euro" unicode="&#x20ac;" horiz-adv-x="1382" 
d="M1269 239v-124q-85 -78 -185.5 -117t-222.5 -39q-159 0 -283.5 63t-206.5 179.5t-114 276.5h-173v94h159q-5 60 -5 112q0 44 3 84h-157v93h169q30 168 115 287.5t213.5 182t287.5 62.5q125 0 218 -37.5t168 -99.5v-132q-162 152 -386 152q-125 0 -225.5 -47.5
t-168 -140.5t-93.5 -227h654l-26 -93h-641q-3 -37 -3 -78q0 -66 7 -118h602l-26 -94h-560q46 -193 172 -298t309 -105q222 0 399 164z" />
    <glyph glyph-name="florin" unicode="&#x192;" horiz-adv-x="1066" 
d="M730 1233.5q-47 -52.5 -62 -168.5l-26 -209h307v-103h-320l-58 -468q-21 -162 -95.5 -244t-210.5 -82q-51 0 -99 15.5t-80 43.5v107q30 -29 72 -44t90 -15q94 0 141.5 53t61.5 169l58 465h-278v103h291l27 211q20 161 95 243.5t211 82.5q50 0 99 -15.5t80 -43.5v-107
q-31 29 -72.5 44t-89.5 15q-95 0 -142 -52.5z" />
    <glyph glyph-name="sterling" unicode="&#xa3;" horiz-adv-x="1139" 
d="M737 1256q-52 -26 -97.5 -88t-86.5 -169l-102 -268h391v-103h-430l-194 -511h798v-117h-925v123l195 505h-185v103h224l119 308q68 178 167.5 266t242.5 88q55 0 104.5 -13t85.5 -34v-119q-33 27 -81 41t-108 14q-66 0 -118 -26z" />
    <glyph glyph-name="uni20A9" unicode="&#x20a9;" horiz-adv-x="2013" 
d="M1677 814l-54 -221h283v-93h-306l-124 -504h-152l-126 504h-379l-127 -504h-153l-120 504h-313v93h291l-53 221h-238v94h215l-108 454h127l102 -454h374l114 454h158l114 -454h378l106 454h126l-112 -454h206v-94h-229zM921 908h175l-87 349zM512 593h224l56 221h-329z
M1175 593l-55 221h-222l-56 -221h333zM1559 814h-334l56 -221h226zM713 500h-180l84 -378zM1486 500h-182l94 -376z" />
    <glyph glyph-name="yen" unicode="&#xa5;" horiz-adv-x="1201" 
d="M720 755h333v-93h-393l-3 -5v-185h396v-93h-396v-379h-120v379h-390v93h390v185l-3 5h-387v93h328l-383 607h139l367 -605l373 605h141z" />
    <glyph glyph-name="cent.tnum" horiz-adv-x="1273" 
d="M1056 74q-118 -89 -269 -102v-216h-111v215q-138 12 -242.5 86t-161.5 194t-57 266q0 144 56.5 261t161 189.5t243.5 85.5v225h111v-225q152 -12 261 -94v-132q-67 59 -142.5 87.5t-168.5 28.5q-120 0 -210 -55t-138.5 -151.5t-48.5 -218.5q0 -125 47.5 -224t139 -156
t219.5 -57q90 0 170 30t140 82v-119z" />
    <glyph glyph-name="currency.tnum" 
d="M1023.5 565q-22.5 -65 -64.5 -120l173 -171l-70 -70l-171 171q-54 -43 -118.5 -66.5t-135.5 -23.5t-136.5 24t-118.5 67l-174 -172l-69 70l174 171q-42 54 -65 119t-24 136q1 69 24 133.5t64 117.5l-173 170l69 70l173 -170q53 43 119 67t137 24t136.5 -24t118.5 -67
l170 170l70 -70l-172 -170q41 -53 63.5 -117.5t22.5 -133.5q0 -70 -22.5 -135zM787 433q68 40 107 110t39 157t-39 156.5t-107 109t-152 39.5t-152 -39.5t-107 -109t-39 -156.5t39 -157t107 -110t152 -40t152 40z" />
    <glyph glyph-name="dollar.tnum" 
d="M1035 154.5q-49 -81.5 -136.5 -130t-199.5 -58.5v-210h-111v210q-110 10 -212.5 62t-177.5 134v139q89 -106 195.5 -165t228.5 -59q101 0 177 30t117.5 87.5t41.5 138.5q0 66 -25 115t-81 89.5t-152 80.5l-186 75q-156 63 -227.5 150t-71.5 205q0 94 44.5 168.5
t128.5 120t200 54.5v217h111v-217q102 -10 185 -48.5t142 -90.5v-144q-76 78 -174.5 123t-213.5 45q-91 0 -158 -29t-102.5 -79.5t-35.5 -115.5q0 -82 49 -139.5t169 -107.5l197 -79q174 -71 250.5 -163t76.5 -221q0 -106 -49 -187.5z" />
    <glyph glyph-name="Euro.tnum" 
d="M1189 209v-119q-152 -131 -370 -131q-156 0 -278.5 63t-202 179.5t-111.5 276.5h-173v94h159q-5 60 -5 112q0 44 3 84h-157v93h169q29 168 112.5 287.5t209.5 182t282 62.5q111 0 194 -30t153 -82v-129q-142 124 -347 124q-122 0 -220 -47.5t-164 -140.5t-92 -227h643
l-26 -93h-629q-3 -37 -3 -78q0 -62 6 -118h591l-26 -94h-549q45 -193 168.5 -298t301.5 -105q202 0 361 134z" />
    <glyph glyph-name="florin.tnum" horiz-adv-x="962" 
d="M694 1233.5q-47 -52.5 -62 -168.5l-26 -209h307v-103h-320l-58 -468q-21 -162 -95.5 -244t-210.5 -82q-51 0 -99 15.5t-80 43.5v107q30 -29 72 -44t90 -15q94 0 141.5 53t61.5 169l58 465h-278v103h291l27 211q20 161 95 243.5t211 82.5q50 0 99 -15.5t80 -43.5v-107
q-31 29 -72.5 44t-89.5 15q-95 0 -142 -52.5z" />
    <glyph glyph-name="sterling.tnum" 
d="M802 1256q-52 -26 -97.5 -88t-86.5 -169l-102 -268h391v-103h-430l-194 -511h798v-117h-925v123l195 505h-185v103h224l119 308q68 178 167.5 266t242.5 88q55 0 104.5 -13t85.5 -34v-119q-33 27 -81 41t-108 14q-66 0 -118 -26z" />
    <glyph glyph-name="uni20A9.tnum" 
d="M1091 817l-32 -226h170v-89h-183l-72 -506h-139l-83 506h-241l-84 -506h-140l-69 506h-177v89h165l-30 226h-135v88h123l-62 457h109l55 -457h231l80 457h116l77 -457h232l59 457h107l-65 -457h126v-88h-138zM578 905h107l-53 325zM304 591h139l39 226h-205zM737 591
l-37 226h-137l-37 -226h211zM991 817h-206l38 -226h139zM427 502h-113l46 -382zM950 502h-113l64 -379z" />
    <glyph glyph-name="yen.tnum" 
d="M752 755h334v-93h-392l-3 -5v-185h395v-93h-395v-379h-120v379h-390v93h390v185l-3 5h-387v93h330l-373 607h136l357 -603l364 603h138z" />
    <glyph glyph-name="uni2215" unicode="&#x2215;" horiz-adv-x="843" 
d="M660 1638h118l-595 -1884h-118z" />
    <glyph glyph-name="plus" unicode="+" 
d="M1072 596h-384v-386h-105v386h-385v105h385v381h105v-381h384v-105z" />
    <glyph glyph-name="minus" unicode="&#x2212;" 
d="M198 701h874v-105h-874v105z" />
    <glyph glyph-name="multiply" unicode="&#xd7;" 
d="M705 648l302 -301l-70 -70l-302 301l-302 -301l-70 70l302 301l-302 301l70 70l302 -301l302 301l70 -70z" />
    <glyph glyph-name="divide" unicode="&#xf7;" 
d="M578.5 950q-24.5 24 -24.5 57t24 55.5t59 22.5t58 -22t23 -56q0 -33 -23.5 -57t-57.5 -24t-58.5 24zM198 701h874v-105h-874v105zM578 236.5q-24 23.5 -24 57.5q0 33 24 55.5t59 22.5q34 0 57.5 -22.5t23.5 -55.5q0 -34 -23.5 -57.5t-57.5 -23.5q-35 0 -59 23.5z" />
    <glyph glyph-name="equal" unicode="=" 
d="M198 517h874v-105h-874v105zM198 885h874v-105h-874v105z" />
    <glyph glyph-name="notequal" unicode="&#x2260;" 
d="M724 780l-106 -263h453v-105h-495l-114 -285h-106l114 285h-273v105h315l105 263h-420v105h462l114 284h107l-114 -284h305v-105h-347z" />
    <glyph glyph-name="greater" unicode="&#x3e;" 
d="M1078 755v-126l-851 -382v120l739 326l-739 327v117z" />
    <glyph glyph-name="less" unicode="&#x3c;" 
d="M192.065 755v-126l850.948 -382v120l-738.955 326l738.955 327v117z" />
    <glyph glyph-name="greaterequal" unicode="&#x2265;" 
d="M1059 730l-852 -324v117l736 270l-736 270v115l852 -322v-126zM1081 291v-105h-874v105h874z" />
    <glyph glyph-name="lessequal" unicode="&#x2264;" 
d="M211.064 730l851.948 -324v117l-735.955 270l735.955 270v115l-851.948 -322v-126zM189.066 291v-105h873.946v105h-873.946z" />
    <glyph glyph-name="plusminus" unicode="&#xb1;" 
d="M1072 804v-106h-384v-289h-105v289h-385v106h385v288h105v-288h384zM198 291h874v-105h-874v105z" />
    <glyph glyph-name="approxequal" unicode="&#x2248;" 
d="M746.5 309.5q-37.5 12.5 -66 30t-69.5 47.5q-50 37 -83 54.5t-73 17.5q-62 0 -103.5 -39t-48.5 -103h-103q5 77 40 133t90.5 85t120.5 29q45 0 83 -13t66.5 -30.5t69.5 -47.5q49 -36 82 -53.5t71 -17.5q61 0 104.5 39t50.5 102h102q-4 -77 -39 -132.5t-91 -84.5t-122 -29
q-44 0 -81.5 12.5zM746.5 677.5q-37.5 12.5 -66 30t-69.5 47.5q-50 37 -83 54.5t-73 17.5q-62 0 -103.5 -39t-48.5 -103h-103q5 77 40 133t90.5 85t120.5 29q45 0 83 -13t66.5 -30.5t69.5 -47.5q49 -36 82 -53.5t71 -17.5q61 0 104.5 39t50.5 102h102q-4 -77 -39 -132.5
t-91 -84.5t-122 -29q-44 0 -81.5 12.5z" />
    <glyph glyph-name="logicalnot" unicode="&#xac;" 
d="M1067 701v-472h-105v367h-769v105h874z" />
    <glyph glyph-name="asciitilde" unicode="~" 
d="M744.5 493.5q-37.5 12.5 -66 30t-69.5 47.5q-50 37 -83 54.5t-73 17.5q-62 0 -103.5 -39t-48.5 -103h-103q5 77 40 133t90.5 85t120.5 29q45 0 83 -13t66.5 -30.5t69.5 -47.5q49 -36 82 -53.5t71 -17.5q61 0 104.5 39t50.5 102h102q-4 -77 -39 -132.5t-91 -84.5t-122 -29
q-44 0 -81.5 12.5z" />
    <glyph glyph-name="infinity" unicode="&#x221e;" 
d="M246.5 490q-56.5 32 -89 88t-32.5 124t32.5 124.5t89 88.5t125.5 32q86 0 147.5 -39.5t117.5 -129.5q58 91 117 130t143 39q69 0 126 -32t89.5 -88t32.5 -125q0 -68 -32.5 -124t-89.5 -88t-126 -32q-89 0 -146 39.5t-114 130.5q-58 -91 -116.5 -130.5t-148.5 -39.5
q-69 0 -125.5 32zM481.5 586.5q44.5 32.5 97.5 118.5q-45 77 -93.5 111.5t-104.5 34.5q-44 0 -79.5 -19.5t-56 -53.5t-20.5 -76q0 -41 20.5 -75t56 -53.5t79.5 -19.5q56 0 100.5 32.5zM968.5 573.5q35.5 19.5 56 53.5t20.5 75t-20.5 75.5t-56 54t-78.5 19.5
q-56 0 -104 -34.5t-94 -111.5q53 -87 97 -119t101 -32q43 0 78.5 19.5z" />
    <glyph glyph-name="integral" unicode="&#x222b;" horiz-adv-x="942" 
d="M82 -251.5q-45 14.5 -75 41.5v107q28 -28 66.5 -42t82.5 -14q87 0 130.5 52.5t57.5 168.5l128 1005q19 161 89.5 243.5t199.5 82.5q47 0 92 -15t75 -42v-107q-28 29 -66.5 43t-83.5 14q-87 0 -130 -52.5t-57 -168.5l-128 -1005q-19 -161 -89.5 -243.5t-199.5 -82.5
q-47 0 -92 14.5z" />
    <glyph glyph-name="Omega" unicode="&#x2126;" horiz-adv-x="1545" 
d="M1328 360.5q-98 -162.5 -285 -250.5h330v-110h-523v114q136 34 236.5 118t154.5 207.5t54 271.5q0 162 -66.5 290.5t-185.5 201.5t-270 73t-270.5 -73t-186 -201.5t-66.5 -290.5q0 -148 54 -271.5t154.5 -207.5t236.5 -118v-114h-523v110h331q-189 89 -286.5 251
t-97.5 362q0 190 87.5 343t237.5 240t329 87t328.5 -87t237 -240t87.5 -343q0 -200 -98 -362.5z" />
    <glyph glyph-name="Delta" unicode="&#x2206;" horiz-adv-x="1271" 
d="M1208 101v-101h-1146v101l498 1265h149zM190 112h890l-445 1140z" />
    <glyph glyph-name="product" unicode="&#x220f;" horiz-adv-x="1461" 
d="M1393 1249h-231v-1249h-122v1249h-619v-1249h-122v1249h-232v113h1326v-113z" />
    <glyph glyph-name="summation" unicode="&#x2211;" horiz-adv-x="1096" 
d="M1008 1250h-799l578 -691l-580 -693h801v-112h-921v132l553 670l-553 670v136h921v-112z" />
    <glyph glyph-name="radical" unicode="&#x221a;" horiz-adv-x="1285" 
d="M1273 1250h-397l-449 -1496h-138l-250 840h124l194 -698l426 1466h490v-112z" />
    <glyph glyph-name="partialdiff" unicode="&#x2202;" horiz-adv-x="1201" 
d="M801 1303q129 -90 200 -265t71 -423q0 -223 -65 -368.5t-175.5 -213.5t-249.5 -68q-140 0 -250 63t-171.5 173t-61.5 246q0 129 56 231t156 159.5t228 57.5q107 0 191 -38t139 -105.5t78 -154.5q1 14 1 51q0 199 -54 340t-155.5 214.5t-243.5 73.5q-92 0 -176 -34
t-135 -84v135q67 48 147 74t168 26q173 0 302 -90zM759.5 124q79.5 49 125 133t45.5 185q0 96 -45 176t-126 126.5t-184 46.5q-100 0 -179 -44.5t-123.5 -124.5t-44.5 -181q0 -106 46.5 -189.5t127.5 -130t180 -46.5q98 0 177.5 49z" />
    <glyph glyph-name="mu" unicode="&#xb5;" horiz-adv-x="1187" 
d="M1011 1024v-1024h-121v234q-41 -127 -128 -196.5t-208 -69.5q-97 0 -163.5 40.5t-93.5 108.5v-506h-121v1413h121v-612q0 -166 72.5 -253.5t210.5 -87.5q98 0 167.5 50.5t106 142t36.5 213.5v547h121z" />
    <glyph glyph-name="percent" unicode="%" horiz-adv-x="1727" 
d="M227.5 647.5q-71.5 51.5 -111.5 144.5t-40 214q0 122 40.5 215t112 144.5t162.5 51.5t163 -51.5t112.5 -145t40.5 -215.5q0 -120 -40.5 -213t-112 -144.5t-163.5 -51.5t-163.5 51.5zM1101 1362h112l-611 -1362h-113zM498.5 726q47.5 40 75 112.5t27.5 166.5q0 97 -27 170
t-75 112.5t-108 39.5t-107.5 -39.5t-74.5 -112t-27 -169.5q0 -96 27 -168.5t74.5 -112t107.5 -39.5t107.5 40zM1172 24q-72 51 -112 143.5t-40 214.5t40.5 215.5t112 145t162.5 51.5t163 -51.5t112.5 -145.5t40.5 -216q0 -121 -40.5 -213.5t-112 -143.5t-163.5 -51
q-91 0 -163 51zM1443 102.5q48 39.5 75 111.5t27 167q0 97 -27 170t-75 112.5t-108 39.5t-107.5 -39.5t-74.5 -112.5t-27 -169t27 -168.5t74.5 -111.5t107.5 -39t108 39.5z" />
    <glyph glyph-name="perthousand" unicode="&#x2030;" horiz-adv-x="2475" 
d="M227.5 647.5q-71.5 51.5 -111.5 144.5t-40 214q0 122 40.5 215t112 144.5t162.5 51.5t163 -51.5t112.5 -145t40.5 -215.5q0 -120 -40.5 -213t-112 -144.5t-163.5 -51.5t-163.5 51.5zM1101 1362h112l-611 -1362h-113zM498.5 726q47.5 40 75 112.5t27.5 166.5q0 97 -27 170
t-75 112.5t-108 39.5t-107.5 -39.5t-74.5 -112t-27 -169.5q0 -96 27 -168.5t74.5 -112t107.5 -39.5t107.5 40zM1172 24q-72 51 -112 143.5t-40 214.5t40.5 215.5t112 145t162.5 51.5t163 -51.5t112.5 -145.5t40.5 -216q0 -121 -40.5 -213.5t-112 -143.5t-163.5 -51
q-91 0 -163 51zM1919 24q-72 51 -112 143.5t-40 214.5t40.5 215.5t112 145t162.5 51.5q92 0 164 -51.5t112.5 -145.5t40.5 -216q0 -121 -40.5 -213.5t-112.5 -143.5t-164 -51q-91 0 -163 51zM1443 102.5q48 39.5 75 111.5t27 167q0 97 -27 170t-75 112.5t-108 39.5
t-107.5 -39.5t-74.5 -112.5t-27 -169t27 -168.5t74.5 -111.5t107.5 -39t108 39.5zM2190 102.5q48 39.5 75.5 111.5t27.5 167q0 97 -27.5 170t-75.5 112.5t-108 39.5q-59 0 -106.5 -39.5t-74.5 -112.5t-27 -169t27 -168.5t74 -111.5t107 -39t108 39.5z" />
    <glyph glyph-name="arrowup" unicode="&#x2191;" horiz-adv-x="1046" 
d="M995 803l-414 496v-1299h-116v1299l-414 -496v163l423 509h101l420 -509v-163z" />
    <glyph glyph-name="uni2197" unicode="&#x2197;" horiz-adv-x="1224" 
d="M1153 1434v-693l-112 -114v614l-903 -904l-83 81l902 903h-592l116 113h672z" />
    <glyph glyph-name="arrowright" unicode="&#x2192;" horiz-adv-x="1626" 
d="M1544 782v-100l-516 -434h-163l506 428h-1302v114h1303l-507 429h163z" />
    <glyph glyph-name="uni2198" unicode="&#x2198;" horiz-adv-x="1268" 
d="M1160 0.0878906v692.957l-112 113.993v-613.962l-903 903.944l-83 -80.9951l902 -902.944h-592l116 -112.993h672z" />
    <glyph glyph-name="arrowdown" unicode="&#x2193;" horiz-adv-x="1104" 
d="M1024 631.049l-414 -495.97v1298.92h-116v-1298.92l-414 495.97v-162.99l423 -508.969h101l420 508.969v162.99z" />
    <glyph glyph-name="uni2199" unicode="&#x2199;" horiz-adv-x="1268" 
d="M108.07 0.0878906v692.957l111.993 113.993v-613.962l902.945 903.944l82.9941 -80.9951l-901.944 -902.944h591.964l-115.993 -112.993h-671.959z" />
    <glyph glyph-name="arrowleft" unicode="&#x2190;" horiz-adv-x="1626" 
d="M82.0938 782v-100l515.969 -434h162.99l-505.969 428h1301.92v114h-1302.92l506.969 429h-162.99z" />
    <glyph glyph-name="uni2196" unicode="&#x2196;" horiz-adv-x="1224" 
d="M71.0703 1434v-693l111.993 -114v614l902.945 -904l82.9941 81l-901.944 903h591.964l-115.993 113h-671.959z" />
    <glyph glyph-name="uni21A4" unicode="&#x21a4;" horiz-adv-x="1711" 
d="M1580 676h-1v-428h-116v428h-1185l506 -428h-163l-516 434v100l516 437h163l-507 -429h1186v429h116v-429h1v-114z" />
    <glyph glyph-name="uni21A5" unicode="&#x21a5;" horiz-adv-x="1140" 
d="M628 1299v-1185h414v-114h-945v114h415v1185l-414 -496v163l423 509h101l420 -509v-163z" />
    <glyph glyph-name="uni21A6" unicode="&#x21a6;" horiz-adv-x="1711" 
d="M131.097 676h1v-428h115.992v428h1184.93l-505.969 -428h162.99l515.969 434v100l-515.969 437h-162.99l506.969 -429h-1185.93v429h-115.992v-429h-1v-114z" />
    <glyph glyph-name="uni21A7" unicode="&#x21a7;" horiz-adv-x="1140" 
d="M628 135.079v1184.93h414v113.993h-945v-113.993h415v-1184.93l-414 495.97v-162.99l423 -508.969h101l420 508.969v162.99z" />
    <glyph glyph-name="uni21B0" unicode="&#x21b0;" horiz-adv-x="1681" 
d="M1534 991v-991h-116v877h-1161l506 -428h-163l-516 435v99l516 437h163l-508 -429h1279z" />
    <glyph glyph-name="uni21B1" unicode="&#x21b1;" horiz-adv-x="1681" 
d="M147.094 991v-991h115.993v877h1160.93l-505.969 -428h162.99l515.968 435v99l-515.968 437h-162.99l507.969 -429h-1278.92z" />
    <glyph glyph-name="uni21B2" unicode="&#x21b2;" horiz-adv-x="1683" 
d="M1536 443.061v990.939h-116v-876.946h-1161l506 427.974h-163l-516 -434.974v-98.9941l516 -436.973h163l-508 428.974h1279z" />
    <glyph glyph-name="uni21B3" unicode="&#x21b3;" horiz-adv-x="1681" 
d="M147.094 443.061v990.939h115.993v-876.946h1160.93l-505.969 427.974h162.99l515.968 -434.974v-98.9941l-515.968 -436.973h-162.99l507.969 428.974h-1278.92z" />
    <glyph glyph-name="H18533" unicode="&#x25cf;" horiz-adv-x="1539" 
d="M437.5 105q-149.5 87 -236 237.5t-86.5 331.5t86.5 332.5t236 239t330.5 87.5q182 0 332 -87.5t236.5 -239t86.5 -332.5t-86.5 -331.5t-236.5 -237.5t-332 -87q-181 0 -330.5 87z" />
    <glyph glyph-name="circle" unicode="&#x25cb;" horiz-adv-x="1539" 
d="M437.5 105q-149.5 87 -236 237.5t-86.5 331.5t86.5 332.5t236 239t330.5 87.5q182 0 332 -87.5t236.5 -239t86.5 -332.5t-86.5 -331.5t-236.5 -237.5t-332 -87q-181 0 -330.5 87zM1052 185.5q128 74.5 201.5 203.5t73.5 285t-74 286t-202 205.5t-283 75.5
q-154 0 -281.5 -75.5t-201.5 -205.5t-74 -286t74 -285t201.5 -203.5t281.5 -74.5q156 0 284 74.5z" />
    <glyph glyph-name="uni25C6" unicode="&#x25c6;" horiz-adv-x="1855" 
d="M51 670l871 876l882 -876l-882 -875z" />
    <glyph glyph-name="uni25C7" unicode="&#x25c7;" horiz-adv-x="1855" 
d="M51 670l871 876l882 -876l-882 -875zM1670 670l-748 746l-738 -746l738 -742z" />
    <glyph glyph-name="lozenge" unicode="&#x25ca;" horiz-adv-x="1153" 
d="M1073 690l-445 -690h-103l-446 690l446 672h103zM946 685l-370 569l-372 -569l373 -577z" />
    <glyph glyph-name="filledbox" unicode="&#x25a0;" horiz-adv-x="1670" 
d="M215 1300h1239v-1239h-1239v1239z" />
    </font>
</defs>
</svg>
