<?xml version="1.0" encoding="utf-8"?>
<!-- Generator: Adobe Illustrator 24.1.0, SVG Export Plug-In . SVG Version: 6.00 Build 0)  -->
<svg version="1.1" id="Calque_1" xmlns="http://www.w3.org/2000/svg" xmlns:xlink="http://www.w3.org/1999/xlink" x="0px" y="0px"
	 viewBox="0 0 20.5 26" style="enable-background:new 0 0 20.5 26;" xml:space="preserve">
<g id="Calque_2_1_">
	<path d="M1,2.8h5.4c0.6,0,1,0.4,1,0.8v18.9c0,0.4-0.4,0.8-1,0.8H1c-0.6,0-1-0.4-1-0.8V3.6C0,3.1,0.4,2.8,1,2.8z"/>
	<path d="M14,2.8h5.4c0.6,0,1,0.4,1,0.8v18.9c0,0.4-0.4,0.8-1,0.8H14c-0.6,0-1-0.4-1-0.8V3.6C13,3.1,13.5,2.8,14,2.8z"/>
</g>
</svg>
