<?xml version="1.0" encoding="utf-8"?>
<!-- Generator: Adobe Illustrator 24.1.0, SVG Export Plug-In . SVG Version: 6.00 Build 0)  -->
<svg version="1.1" id="Calque_1" xmlns="http://www.w3.org/2000/svg" xmlns:xlink="http://www.w3.org/1999/xlink" x="0px" y="0px"
	 viewBox="0 0 7.5 9.4" style="enable-background:new 0 0 7.5 9.4;" xml:space="preserve">
<g id="Calque_2_1_">
	<path d="M0.3,1h2.1c0.2,0,0.3,0.1,0.3,0.3v7c0,0.1-0.1,0.3-0.3,0.3H0.3C0.1,8.4,0,8.3,0,8.2v-7C0,1.1,0.1,1,0.3,1z"/>
	<path d="M5.1,1h2.1c0.2,0,0.3,0.1,0.3,0.3v6.9c0,0.1-0.1,0.3-0.3,0.3H5.1c-0.2,0-0.3-0.1-0.3-0.3V1.2C4.8,1.1,4.9,1,5.1,1z"/>
</g>
</svg>
