<?xml version="1.0" encoding="utf-8"?>
<!-- Generator: Adobe Illustrator 24.1.0, SVG Export Plug-In . SVG Version: 6.00 Build 0)  -->
<svg version="1.1" id="Calque_1" xmlns="http://www.w3.org/2000/svg" xmlns:xlink="http://www.w3.org/1999/xlink" x="0px" y="0px"
	 viewBox="0 0 16 20.4" style="enable-background:new 0 0 16 20.4;" xml:space="preserve">
<g id="Calque_2_1_">
	<path d="M1,2.2h3.8c0.6,0,1,0.4,1,0.8v14.4c0,0.4-0.4,0.8-1,0.8H1c-0.6,0-1-0.4-1-0.8V3C0,2.5,0.4,2.2,1,2.2z"/>
	<path d="M11.2,2.2H15c0.6,0,1,0.4,1,0.8v14.4c0,0.4-0.4,0.8-1,0.8h-3.8c-0.6,0-1-0.4-1-0.8V3C10.2,2.5,10.6,2.2,11.2,2.2z"/>
</g>
</svg>
